<svg xmlns="http://www.w3.org/2000/svg" width="256" height="256"><path fill="#6d2131" d="M196.758 22.805C214.352 29.29 227.158 41.63 236 58c1.55 3.528 2.597 6.122 2 10-1.562 2.313-1.562 2.313-4 4-3.97.354-7.186-.047-11-1-5.3-.393-8.473.206-13 3q-1.479 1.364-2.937 2.75C204 79 204 79 200.563 79c-2.636-.74-4.797-1.503-7.25-2.625-3.098-1.608-3.098-1.608-5.75-1.062L186 76l1.5 2.375C189 81 189 81 189 83l2.125.043c9.143.46 14.342 3.069 20.625 9.644 3.59 4.321 5.566 8.99 7.25 14.313l.586 1.79c2.453 13.096.203 25.66-6.828 36.878-2.358 3.128-5.06 5.532-8.121 7.957-2.867 2.408-2.91 4.84-3.345 8.416l-.396 3.188-.42 3.462-.906 7.24q-.71 5.714-1.408 11.429-.677 5.51-1.373 11.019l-.407 3.42C194.135 219.45 194.135 219.45 187 225c-20.327 11.78-45.407 11.16-68.125 11.25-.84.005-1.68.01-2.546.017-15.756.075-31.437-.894-46.891-4.142l-2.522-.522C58.298 229.745 50.165 227.616 44 221c-2.59-5.891-3.733-11.451-4.535-17.809l-.376-2.803c-.393-2.94-.772-5.883-1.151-8.826l-.776-5.818c-2.05-15.45-2.05-15.45-2.676-21.792l-.242-2.361a247 247 0 0 1-.397-4.316c-.53-5.224-2.205-7.826-5.968-11.33-7.029-7.277-9.76-17.983-10.254-27.82.228-8.653 3.416-16.104 9.379-22.336C31.852 91.444 36.475 87.996 43 87l.625-2.562C46.763 76.592 52.417 72.376 60 69l3.313-.812c3.636-1.607 4.086-3.627 5.628-7.153C71.458 56.196 75.951 53.703 81 52c6.484-.834 11.692-.314 17.344 3.027C100.15 56.166 100.15 56.166 103 57l2.727-.93c3.73-1.22 6.735-1.269 10.648-1.195l3.773.055L123 55c2.985-4.676 4.556-8.497 5.41-13.984.728-2.49 1.475-3.517 3.59-5.016 2.121-.11 2.121-.11 4.438.25l2.308.328c2.254.422 2.254.422 4.156.95 8.544 1.925 17.58 1.02 25.098-3.528 3.19-2.727 5.147-6.191 7.188-9.812 4.501-7.917 14.505-3.717 21.57-1.383"/><path fill="#ccfbfc" d="M167 73v2c-1.282.09-1.282.09-2.59.184l-3.347.254c-1.103.08-2.205.162-3.34.246-2.634.02-2.634.02-3.723 1.316l2.633-.07 3.492-.055 3.445-.07c4.227.24 7.658 1.309 11.43 3.195l1-2c4.1 4.31 5.631 6.853 6 13l-1.687.848C174.493 94.905 169.77 98.49 165 103l1.434-1.172c8.53-6.717 17.475-10.95 28.566-9.828 6.055 1.775 9.682 4.745 13 10 1.275 2.943 2.203 5.897 3 9l.555 1.922c1.864 8.702.546 17.249-3.555 25.078-4.198 6.048-9.524 11.589-17 13q-2.624.098-5.25.063l-2.703-.028L181 151c1.324-3.05 2.584-4.667 5.25-6.625 5.7-4.686 9.629-11.063 10.75-18.375l-.742 1.836c-4.544 10.184-11.762 17.81-22.024 22.336-2.815 1.043-5.228 1.64-8.234 1.828l-2.023.188c-11.87.63-23.612-4.063-34.8-7.487l-3.927-1.201c-.65-.2-1.301-.398-1.971-.603-17.523-5.34-34.796-9.038-53.154-9.21l-3.105-.087c-9.801-.081-17.407 2.316-24.645 9.033A1673 1673 0 0 0 39 146c-6.606-7.01-6.606-7.01-7-12l-.54-2.074c-.643-4.09-.308-7.997-.023-12.113l.31-4.856L32 111v-2c-1.43 4.672-2.404 9.131-3 14h-2c-.672-7.992.049-13.55 5-20 5.493-6.392 12.832-9.296 21.07-10.418C64.84 92.047 76.561 96.015 86 103l1 2-1.74-.048a851 851 0 0 0-7.885-.14l-2.738-.076c-5.347-.058-8.977.315-13.637 3.264 2.898-.88 2.898-.88 5.063-2.062 15.344-4.898 32.064 5.967 45.242 12.722 16.714 8.517 35.766 14.38 54.57 9.09 7.028-2.655 12.659-6.848 16.102-13.691.72-1.667 1.378-3.361 2.023-5.059l-1-1-.293 2.219c-1.295 5.095-4.783 8.428-8.707 11.781-14.17 7.762-28.735 7.339-44 3-3.434-1.16-6.71-2.54-9.994-4.072a361 361 0 0 0-4.641-2.102 913 913 0 0 1-9.115-4.138l-2.978-1.327c-5.92-2.773-10.137-5.779-14.583-10.57C79.212 92.745 64.918 91.464 52 90c.88-5.782 3.698-8.047 8.063-11.75C65.765 74.57 73.538 75.342 80 76c13.338 3.655 22.726 16.077 31.367 26.195 6.07 6.708 12.636 13.116 21.895 14.18 7.749.268 13.844-.817 20.738-4.375v-1l-2.09.875c-9.391 3.71-16.076 4.552-25.469.48-3.991-2.216-7.217-5.15-10.441-8.355 5.707-3.805 10.57-5.488 17.25-6.437C145.362 95.846 145.362 95.846 155 89v-3c-2.464-1.232-4.19-1.167-6.937-1.187l-2.653-.043c-2.672.063-2.672.063-5.41 2.23l3-1a81 81 0 0 1 4.688-.062l2.449.027L152 86v4c-7.716 3.65-14.434 5.815-23 6l.84-1.723 1.097-2.34 1.09-2.285C133.198 86.46 133.608 83.37 134 80c11.264-4.707 20.613-8.273 33-7"/><path fill="#fbf9f9" d="M196.758 22.805C214.352 29.29 227.158 41.63 236 58c1.55 3.528 2.597 6.122 2 10-1.562 2.313-1.562 2.313-4 4-3.97.354-7.186-.047-11-1-5.3-.393-8.473.206-13 3q-1.479 1.364-2.937 2.75C204 79 204 79 200.563 79c-2.636-.74-4.797-1.503-7.25-2.625-3.098-1.608-3.098-1.608-5.75-1.062L186 76l1.5 2.375C189 81 189 81 189 83l2.125.043c9.143.46 14.342 3.069 20.625 9.644 3.59 4.321 5.566 8.99 7.25 14.313l.586 1.79c2.453 13.096.203 25.66-6.828 36.878-2.358 3.128-5.06 5.532-8.121 7.957-2.867 2.408-2.91 4.84-3.345 8.416l-.396 3.188-.42 3.462-.906 7.24q-.71 5.714-1.408 11.429-.677 5.51-1.373 11.019l-.407 3.42C194.135 219.45 194.135 219.45 187 225c-20.327 11.78-45.407 11.16-68.125 11.25-.84.005-1.68.01-2.546.017-15.756.075-31.437-.894-46.891-4.142l-2.522-.522C58.298 229.745 50.165 227.616 44 221c-2.59-5.891-3.733-11.451-4.535-17.809l-.376-2.803c-.393-2.94-.772-5.883-1.151-8.826l-.776-5.818c-2.05-15.45-2.05-15.45-2.676-21.792l-.242-2.361a247 247 0 0 1-.397-4.316c-.53-5.224-2.205-7.826-5.968-11.33-7.029-7.277-9.76-17.983-10.254-27.82.228-8.653 3.416-16.104 9.379-22.336C31.852 91.444 36.475 87.996 43 87l.625-2.562C46.763 76.592 52.417 72.376 60 69l3.313-.812c3.636-1.607 4.086-3.627 5.628-7.153C71.458 56.196 75.951 53.703 81 52c6.484-.834 11.692-.314 17.344 3.027C100.15 56.166 100.15 56.166 103 57l2.727-.93c3.73-1.22 6.735-1.269 10.648-1.195l3.773.055L123 55c2.985-4.676 4.556-8.497 5.41-13.984.728-2.49 1.475-3.517 3.59-5.016 2.121-.11 2.121-.11 4.438.25l2.308.328c2.254.422 2.254.422 4.156.95 8.544 1.925 17.58 1.02 25.098-3.528 3.19-2.727 5.147-6.191 7.188-9.812 4.501-7.917 14.505-3.717 21.57-1.383m-20.973 10.644C171.997 38.861 166.25 41.342 160 43c-3.151.254-6.278.234-9.437.188l-2.487-.002c-4.788-.035-9.354-.392-14.076-1.186l-.664 2.598C131.322 51.858 129.409 56.714 124 62l-2.125-.484c-3.004-.54-5.825-.72-8.875-.766l-3.062-.078c-3.357.375-5.128 1.524-7.938 3.328h-3l-5-5c-3.846-2.35-7.365-2.292-11.715-1.66-4.03 1.164-6.78 3.322-9.285 6.66-1.097 2.727-1.545 5.065-2 8l-3.937.625c-8.8 2.006-14.292 6.832-19.067 14.324C46.782 89.07 46.782 89.07 47 92l-2.437.125C36.868 94.015 30.336 99.417 26 106c-3.428 6.985-2.983 15.08-1.125 22.488C27.763 136.572 31.95 142.95 38 149a95 95 0 0 1 1 7.105l.5 4.38.25 2.273c.388 3.476.82 6.947 1.25 10.418l1.25 10.201c.91 7.505 1.894 14.967 3.346 22.39.365 2.02.581 4.065.779 6.108.795 3.974 1.601 5.39 4.625 8.125 14.61 9.46 36.323 10.149 53.246 10.168l3.184.01q3.321.007 6.643.007c3.324.002 6.648.02 9.972.04 24.84.123 24.84.123 48.955-5.225.893-.3 1.787-.598 2.707-.906 5.083-1.846 9.161-3.494 12.293-8.094 1.088-3.607 1.504-7.272 2-11l.998-5.835c1.095-6.474 2.01-12.928 2.598-19.468.276-3.067.578-6.132.878-9.197q.212-2.299.384-4.6c.932-12.422.932-12.422 3.956-16.116 2.127-1.573 2.127-1.573 4.2-2.693 5.768-3.17 8.328-9.39 10.361-15.341 3.361-12.231 1.861-22.008-4.187-33.062C205.614 94.297 201.806 89.91 196 89a123 123 0 0 0-5.75-.062l-2.984.027L185 89l-.062-2.5c-1.332-4.97-4.41-7.87-7.938-11.5 3.41-3.524 5.19-5.147 10.125-5.25 3.432.017 6.016.51 9.188 1.813 3.967 1.59 3.967 1.59 7.687.437a381 381 0 0 0 6-5c2.824-.941 4.53-1.117 7.45-1.098l2.568.01 2.67.025 2.705.014q3.303.018 6.607.049c-1.673-9.987-8.095-16.966-15-24l-1.867-1.941c-7.76-7.443-21.124-14.962-32.13-14.774-3.725 1.33-5.212 4.934-7.218 8.164"/><path fill="#712d3d" d="M185 29c14.712 1.848 26.415 9.827 36 21 6 8.004 6 8.004 6 11-2.763-.523-5.326-1.109-8-2l4 3h-11l1 4-3.312 1.813c-2.182 1.224-3.632 2.124-5.313 4L203 73c-2.834-.23-5.101-1.039-7.75-2.062-4.67-1.348-9.616-2.177-14.16-.04-1.834 1.184-1.834 1.184-4.09 3.102l1.242 1.61 1.633 2.14 1.617 2.11C183.735 83.043 185 85.055 185 89l2.16-.105c6.88-.195 12.308-.09 17.68 4.77 7.608 8.074 10.558 17.037 10.437 27.972-.925 11.227-5.367 19.617-13.277 27.363l-3-1c.531-.594 1.062-1.189 1.61-1.8 7.387-8.669 11.17-16.684 10.706-28.216-.898-8.47-3.02-15.953-9.316-21.984-5.761-3.414-10.994-3.778-17.414-2.531-5.586 1.452-9.917 3.749-14.578 7.129-1.938 1.353-3.87 2.4-6.008 3.402 4.508-5.931 9.292-9.706 16-13h2a320 320 0 0 0-1.312-4.312l-.739-2.426C178.927 81.827 178.126 80.56 176 79h-4l-2.23-.496c-3.698-.673-7.34-.61-11.083-.567l-2.244.014q-2.721.02-5.443.049c3.386-3.131 5.711-3.336 10.25-3.187l3.266.082L167 75v-2c-10.155.032-18.195 2.103-27.578 5.723C136 80 136 80 134 80v7h-1l-.437-3.25c-.4-2.667-.839-5.164-1.563-7.75h2l-2-5c6.185-4.048 12.31-7.845 19-11l-7 2-.148-1.977C142.428 55.067 141.843 50.67 140 46l1.66.48c10.168 2.258 21.142.251 30.02-5.093 4.427-3.274 7.628-6.59 10.32-11.387 2.54 3.81 2.361 5.451 2 10-1.88 9.047-1.88 9.047-5.11 11.797L177 53l4 1 .375-1.625C182 50 182 50 183 47.344c1.122-3.753 1.444-7.334 1.625-11.219l.117-2.086q.138-2.52.258-5.039"/><path fill="#6f2436" d="M184.5 25.188C200.274 26.91 213.984 37.358 224 49a84 84 0 0 1 6 10l1.152 2.098C232 63 232 63 232 66l-21-1 1-3 9-1-7-3c3.708-1.236 4.675-.568 8.188.938l2.73 1.152L227 61c-10.146-17.454-22.951-26.422-42-32l.14 2.93c.23 8.281-.184 14.565-4.14 22.07h-8l1.75-.75c3.224-1.791 5.573-3.504 6.945-7.043 1.33-4.843 2.63-10.556.305-15.207l-.996 1.54c-5.647 8.17-12.415 12.692-22.09 14.995-6.376 1.017-13.18 1.867-18.914-1.535l1.5 2.375c1.993 4.816 1.71 8.435 1.5 13.625l9-3c-1.898 3.796-7.333 5.207-11.098 6.99l-2.144 1.037-1.965.93C134.827 69.1 133.446 70.243 132 72c.228 2.163.228 2.163 1 4h-2l.98 1.727c1.66 3.7 1.495 7.291 1.02 11.273-1.5 3.563-1.5 3.563-3 6 8.16-.199 14.644-2.575 22-6v-2c-7.057-.15-7.057-.15-14 1 2.35-2.458 3.772-3.91 7.277-4.168l2.66-.02 2.653-.042C153 84 153 84 156 86c-.298 2.781-.944 3.94-2.875 6-7.768 4.972-15.835 6.337-24.863 7.43-4.374.764-7.476 2.298-11.262 4.57 6.15 5.882 12.717 10.032 21.438 10.5 4.722-.202 8.84-1.845 13.18-3.625C154 110 154 110 157 110c-7.176 6.503-14.184 7.665-23.613 7.395-12.644-1.473-22.496-14.202-30.637-23.145-10.108-11.101-17.707-17.39-33.223-18.172L67 76l1-3 3-1 .75-3.687c.957-4.329 2.683-6.517 6.195-9.176C81.575 57.129 84.885 56.563 89 57c4.526 1.472 7.34 3.009 10 7 2.14-.458 3.868-.923 5.77-2.027 2.844-1.24 5.073-1.203 8.168-1.16l3.09.019c2.756.156 5.286.55 7.972 1.168 6.04-5.902 7.93-11.904 10-20l2.918.48c12.67 1.793 25.73 2.135 36.394-5.73 2.364-2.419 3.509-4.154 5.063-7.062 1.973-3.276 2.17-3.583 6.125-4.5"/><path fill="#a97f53" d="M91.438 136.625c3.744.832 4.438 1.236 7.124 4.25 2.26 4.911 2.7 9.396 2.981 14.762l.126 2.359c.491 10.144.59 20.295.626 30.45q.018 3.401.062 6.803c.042 3.32.058 6.638.069 9.958l.053 3.065c-.014 4.392-.048 7-2.318 10.84-3.655 3.193-7.225 3.237-11.872 3.161-3.68-.44-5.631-1.745-8.289-4.273-2.18-5.999-2.795-12.183-3.5-18.5l-.386-3.396c-1.388-12.767-2.185-25.57-2.88-38.39a249 249 0 0 0-.616-7.869l-.181-2.07a647 647 0 0 0-.542-5.722C72 139 72 139 73.337 137.1c4.705-3.113 12.784-1.24 18.1-.475"/><path fill="#a97f52" d="M120 144c17.34 5.01 17.34 5.01 20 9 .183 2.788.232 5.463.188 8.25-.01.876-.018 1.752-.027 2.654q-.038 3.129-.095 6.258-.073 4.283-.125 8.567c-.053 4.37-.125 8.74-.206 13.11q-.047 2.655-.08 5.311a816 816 0 0 1-.143 7.569l-.02 2.305c-.124 4.488-.758 7.386-3.492 10.976-3.32 2.905-5.944 3.902-10.375 4.313-4.218-.364-5.674-1.362-8.625-4.313-4.74-9.482-2.22-26.213-2.24-36.642-.01-3.182-.041-6.362-.073-9.544q-.009-3.072-.015-6.146l-.038-2.842c.023-6.605.47-13.93 5.366-18.826"/><path fill="#a97e52" d="M60 137c4.81 4.952 4.335 12.472 5 19l.278 2.531a346 346 0 0 1 2.034 34.531l.054 3.334c-.005 5.59-.095 9.832-3.366 14.604-2.765 2.242-4.539 2.934-8.062 3.438-3.758-.56-4.62-1.457-6.938-4.438a56 56 0 0 1-1.414-7.633l-.305-2.275a728 728 0 0 1-.906-7.217q-.306-2.346-.617-4.691C44.355 177.473 43.164 166.739 42 156l-.37-3.213c-.387-3.756-.374-5.827 1.983-8.869 4.655-4.304 9.784-7.96 16.387-6.918"/><path fill="#6c2b3a" d="M185 29c14.712 1.848 26.415 9.827 36 21 6 8.004 6 8.004 6 11-2.763-.523-5.326-1.109-8-2l4 3h-11l1 4-3.312 1.813c-2.182 1.224-3.632 2.124-5.313 4L203 73c-2.834-.23-5.101-1.039-7.75-2.062-4.093-1.181-8.015-1.487-12.25-.938l-3 2-3-1-3 1-.445-1.723C171.82 64.31 169.369 60.397 165 56c5.38-1.19 10.453-2.292 16-2l.375-1.625C182 50 182 50 183 47.344c1.122-3.753 1.444-7.334 1.625-11.219l.117-2.086q.138-2.52.258-5.039"/><path fill="#a97f53" d="m158.371 153.863 2.129.012 2.129-.012c5.244.01 5.244.01 6.371 1.137.113 2.313.155 4.63.168 6.945l.013 2.164q.013 3.508.006 7.016l-.002 2.396c-.026 9.964-.147 19.912-.873 29.854l-.16 2.782c-.382 4.319-.795 6.373-3.48 9.905-4.071 2.953-5.743 2.72-10.672 1.938-2.552-2.157-3.825-3.901-4.356-7.24-.142-2.807-.146-5.586-.105-8.397l.003-3.135q.01-3.282.046-6.564c.037-3.322.041-6.644.04-9.967q.015-3.198.036-6.396l.007-2.978c.263-19.443.263-19.443 8.7-19.46"/><path fill="#a8c9d9" d="M100.734 130.402c6.599 2.038 13.26 3.853 19.92 5.676q3.256.896 6.509 1.8c17.275 4.757 36.899 9.476 53.837 1.122 5.017-2.873 9.572-6.286 14-10-2.188 7.781-9.57 14.418-16 19-16.546 8.418-33.307 1.756-49.823-3.3l-3.927-1.2c-.65-.2-1.301-.398-1.971-.603-17.523-5.34-34.796-9.038-53.154-9.21l-3.105-.087c-9.801-.081-17.407 2.316-24.645 9.033A1673 1673 0 0 0 39 146l-4-5c3.176-7.53 7.055-11.799 14.438-15.312 15.633-5.724 36.038-.034 51.296 4.714"/><path fill="#fd5570" d="M121.188 65.563c4.815 2.754 8.778 6.208 10.507 11.609C132.58 82.63 131.741 87.2 129 92c-2.437 2.813-2.437 2.813-5 5l-1.812 1.813c-3.355 1.82-6.523 1.962-10.188 1.187-2.861-1.847-5.03-4.179-7.312-6.687l-1.838-1.897c-7.467-7.844-7.467-7.844-8.287-13.353.682-4.777 2.54-7.617 6.39-10.551 6.75-4.189 12.857-5.175 20.234-1.95"/><path fill="#a97e52" d="M186.625 153.75c.982.015 1.965.03 2.977.047C192 154 192 154 193 155c-.336 15.277-2.774 30.904-5 46l-.36 2.754c-.659 4.002-1.452 6.547-4.452 9.371C180 215 180 215 177.25 215c-2.25-1-2.25-1-4.25-4-.836-9.866.091-19.963.813-29.812l.211-3.105c1.441-17.869 1.441-17.869 5.41-22.902 2.353-1.775 4.294-1.507 7.191-1.431"/><path fill="#855328" d="M146.945 152.805 153 153l-.427 2.22c-1.298 7.167-1.88 14.035-1.874 21.311l-.013 3.149q-.008 3.256-.002 6.513c.004 3.327-.02 6.652-.045 9.979q-.004 3.18-.002 6.36l-.028 3.004.019 2.794-.002 2.447c.467 2.776 1.482 4.169 3.374 6.223 1.944.518 1.944.518 4 .313l2.063-.075c2.151-.2 2.151-.2 4.937-1.238l1-3h1v10c-3.755 1.658-7.258 2.513-11.312 3.125l-3.239.508c-3.86.41-7.569.426-11.449.367-.129-14.447.06-28.871.438-43.312l.059-2.411c.702-27.996.702-27.996 5.448-28.472"/><path fill="#865626" d="M58 136h10c1.662 5.99 2.502 11.734 3 17.922l.246 2.849q.384 4.489.754 8.979.374 4.408.75 8.815.25 2.917.496 5.833a914 914 0 0 0 2.134 21.905c.764 7.246.819 14.416.62 21.697-8.371-.204-17.43-1.936-23.871-7.664C50.75 214.687 50.75 214.687 49 212l1-2 1.219 1.5c1.672 1.688 1.672 1.688 3.937 1.75 5.115-.42 5.115-.42 8.844-3.687L65 207l1-2c1.138-14.652-.075-29.575-1.312-44.187l-.179-2.235a572 572 0 0 0-.56-6.371l-.333-3.704c-.84-4.775-2.11-8.996-5.616-12.503"/><path fill="#6d2838" d="M184.5 25.188C200.274 26.91 213.984 37.358 224 49a84 84 0 0 1 6 10l1.152 2.098C232 63 232 63 232 66l-21-1 1-3 9-1-7-3c3.708-1.236 4.675-.568 8.188.938l2.73 1.152L227 61c-10.146-17.454-22.951-26.422-42-32l.14 2.93c.23 8.281-.184 14.565-4.14 22.07h-8l1.75-.75c3.224-1.791 5.573-3.504 6.945-7.043 1.33-4.843 2.63-10.556.305-15.207l-.996 1.54c-5.647 8.17-12.415 12.692-22.09 14.995-6.376 1.017-13.18 1.867-18.914-1.535l1.563 2.438c1.834 4.545 1.841 7.88.437 12.562-3.25 4.303-7.314 6.519-12 9l-4-4c1.527-3.436 3.6-6.12 6-9h-2l.621-2.012.816-2.675.81-2.637c.716-2.546 1.27-5.076 1.753-7.676l2.918.48c12.67 1.793 25.73 2.135 36.394-5.73 2.364-2.419 3.509-4.154 5.063-7.062 1.973-3.276 2.17-3.583 6.125-4.5"/><path fill="#875727" d="M110 142c2.383.023 2.383.023 5.125.375l2.758.336L120 143l-.875 2.063c-2.708 7.071-3.413 12.866-3.355 20.41v3.03q.006 3.168.024 6.337c.018 3.188.02 6.376.02 9.564-1.156 18.193-1.156 18.193 3.311 34.971 3.67 2.074 5.71 2.21 9.875 1.625 5.17-1.926 6.349-3.436 10-8v14c-3.523.88-6.062 1.117-9.64 1.098l-3.243-.01-3.367-.025-3.414-.014q-4.168-.018-8.336-.049-.598-11.334-1.173-22.669-.268-5.267-.545-10.534c-.724-13.716-1.416-27.43-1.5-41.168l-.034-2.9.004-2.625-.003-2.272C108 144 108 144 110 142"/><path fill="#d2b786" d="M85 141.875c3.152 1.773 3.944 4.824 5 8.125.59 3.07.874 6.136 1.125 9.25l.236 2.65c.231 2.7.44 5.399.639 8.1l.18 2.427c.666 9.471.95 18.955 1.07 28.448l.065 2.83c.042 8.546.042 8.546-3.315 12.295h-3c-8.262-18.198-7.06-43.48-7.312-63.062l-.054-2.342c.006-5.083.006-5.083 1.76-7.584C83 142 83 142 85 141.875"/><path fill="#82ddc1" d="M185 29c14.712 1.848 26.415 9.827 36 21 6 8.004 6 8.004 6 11-4.19-.706-8.003-2.01-12-3.437-10.77-3.703-21.677-4.788-33-5.563l.938-3.062C184.594 42.442 184.67 35.669 185 29"/><path fill="#865628" d="M96 138c5.396.48 5.396.48 7.813 2.563 3.676 7.546 2.595 17.752 2.94 26.03l.198 4.55q.207 4.75.406 9.501.256 6.063.521 12.124l.404 9.384.193 4.468c.616 14.263.616 14.263.525 21.38-21.01-.752-21.01-.752-30-3-.953-4.763-1.083-9.167-1-14h1l.688 3.313c.995 3.685.995 3.685 3.374 5.625 5.162 1.866 9.922 1.986 14.938-.313 2.097-1.476 2.097-1.476 3-3.625.095-1.508.128-3.02.13-4.531l.009-2.857-.006-3.112.003-3.225q0-3.4-.006-6.8-.005-5.108.007-10.217c.005-9.797-.032-19.594-.457-29.383l-.067-2.095c-.31-5.798-2.027-10.609-4.613-15.78"/><path fill="#d1b685" d="M127 154c2.375.313 2.375.313 5 1 2.474 3.71 2.245 5.592 2.23 10.02v2.106q-.006 2.216-.024 4.43c-.018 2.21-.02 4.42-.02 6.63-.061 25.413-.061 25.413-4.186 35.814h-4c-3.988-6.916-3.38-14.034-3.25-21.812l.04-4.185c.043-4.002.122-8.002.21-12.003l.063-3.14q.091-3.774.25-7.548l.067-2.134c.22-3.947.884-6.28 3.62-9.178"/><path fill="#a8c8d7" d="M75.164 88.582c10.131 2.99 18.554 9.313 27.012 15.426 17.752 12.826 35.709 22.545 58.347 19.672 3.987-.749 7.314-2.003 10.915-3.868L175 118l2 1c-8.149 7.606-18.656 9.324-29.398 9.215-9.735-.58-18.79-3.18-27.596-7.287a361 361 0 0 0-4.641-2.102 913 913 0 0 1-9.115-4.138l-2.978-1.327c-5.92-2.773-10.137-5.779-14.583-10.57C79.75 93.313 66.23 91.629 54 90c5.8-3.867 14.5-2.644 21.164-1.418"/><path fill="#81dbbf" d="M182 30c2.54 3.81 2.361 5.451 2 10-1.832 8.813-1.832 8.813-4.684 11.71-3.01 1.676-5.731 2.108-9.129 2.665-6.942 1.23-13.397 3.204-20.042 5.54-2.383.822-4.69 1.537-7.145 2.085l-.148-1.977C142.428 55.067 141.843 50.67 140 46l1.66.48c10.168 2.258 21.142.251 30.02-5.093 4.427-3.274 7.628-6.59 10.32-11.387"/><path fill="#dc3e57" d="M99 69h1l.332 2.012c1.087 6.053 1.932 10.721 6.856 14.8 4.866 2.055 9.18 1.55 14.187.438 3.09-1.471 3.367-2.171 4.625-5.25a83 83 0 0 0 1.125-4.75l.508-2.422L128 72c3.402 2.914 3.724 5.257 4.063 9.59-.14 5.394-2.006 9.19-5.5 13.222L124 97l-1.812 1.813c-3.355 1.82-6.523 1.962-10.188 1.187-2.861-1.847-5.03-4.179-7.312-6.687l-1.838-1.897c-7.467-7.844-7.467-7.844-8.287-13.353.55-3.855 2.053-6.03 4.437-9.063"/><path fill="#d1b786" d="M50 149c2.375.188 2.375.188 5 1 6.454 12.471 6.195 34.474 5 48l-2 3-4-1c-3.463-12.86-10.27-38.461-4-51"/><path fill="#89dfc3" d="M165 58c3.84 2.855 5.701 5.827 6.875 10.438L172 71l-2.375-.5L166 70l-1.992-.277c-7.842-.557-14.675 2.257-21.934 4.867-3.003 1.076-5.912 1.911-9.074 2.41l-2-6c23.871-16.466 23.871-16.466 34-13"/><path fill="#d2b787" d="m160 160 4 2q.075 6.72.11 13.44.015 2.278.04 4.556c.263 23.384.263 23.384-4.15 30.004h-3c-1.886-5.583-2.315-10.502-2.25-16.375l.016-2.63a175 175 0 0 1 1.109-17.433l.237-2.093c1.13-8.711 1.13-8.711 3.888-11.469"/><path fill="#80dabe" d="m183.25 53.563 2.04-.104c3.796-.034 6.17.537 9.077 2.877C198.335 60.35 200 63.33 200 69l-2.312-1c-7.108-1.928-13.329-2.145-19.875 1.5A107 107 0 0 0 174 72l-.445-1.723C171.82 64.31 169.369 60.397 165 56c6.04-1.626 12.017-2.282 18.25-2.437"/><path fill="#865529" d="M176.848 152.902 183 153l-1.895 1.657c-5.885 6.55-5.717 18.107-6.292 26.53l-.24 3.269c-2.002 15.387-2.002 15.387 1.427 29.544 4.125-.437 4.125-.437 7.813-2.187 1.64-2.504 1.86-4.872 2.187-7.813h1v6h2l-1 3-1-1-1.25 2.688c-3.241 4.98-9.346 6.532-14.75 8.312h-2c.299-8.335.641-16.668 1-25l.103-2.406q.338-7.853.711-15.706.123-2.632.237-5.266c.109-2.494.229-4.988.351-7.481l.092-2.267c.614-11.721.614-11.721 5.354-11.972"/><path fill="#a8c8d8" d="m201 99 4 2v2l3-1q.721 2.124 1.438 4.25l.808 2.39c2.902 9.08 2.71 17.944-.914 26.817-3.403 6.496-9.004 12.83-16.18 15.137-2.51.474-4.848.502-7.402.469l-2.703-.028L181 151c1.356-3.124 2.795-4.931 5.438-7.062 2.313-1.884 4.484-3.796 6.562-5.938l2 3c2.737-.08 4.493-.553 6.563-2.379C206.043 133.615 209 128.89 209 122h-2l-.113-1.871C206.29 112.453 204.543 105.84 201 99"/><path fill="#f8546e" d="M93.375 61.688c2.987 2.631 3.36 3.44 3.625 7.312-.996 2.676-.996 2.676-2.437 5.313l-1.434 2.675L92 79l-2.668-1.059-3.52-1.379-3.48-1.37C79.529 74.188 76.929 73.48 74 73c.453-4.868 1.583-7.486 5-11 4.574-3.312 9.52-2.74 14.375-.312"/><path fill="#e7fffb" d="M60 97v3c-1.504 1.29-1.504 1.29-3.562 2.625-4.176 2.952-6.988 6.313-9.993 10.422C45 115 45 115 43 117c-3 .25-3 .25-6 0-2-2-2-2-2.5-5.187.673-5.13 2.576-7.545 6.5-10.813 6.133-3.972 11.827-4.54 19-4"/><path fill="#d0b584" d="m183 163 3 1c.31 9.596.138 18.875-1.375 28.375l-.382 2.429c-.635 3.702-1.245 6.946-3.243 10.196h-2c-2.776-8.327-1.068-18.925-.187-27.562l.212-2.27c.52-4.618 1.616-8.078 3.975-12.168"/><path fill="#a8c7d6" d="m135 98-4 3c.295 3.535.749 4.762 3.375 7.25 4.067 2.711 7.028 2.864 11.813 2.813l3.292-.028L152 111c-3.566 3.566-8.429 4.133-13.312 4.375-9.408-.272-16.205-4.928-22.688-11.375 6.247-4.165 11.488-6.215 19-6"/><path fill="#7fd7bb" d="M136 46h2c5.01 10.064 5.01 10.064 4 15-3.337 4.247-7.308 6.516-12 9l-4-4c1.355-2.944 2.94-5.258 5-7.75 3.076-3.99 4.12-7.32 5-12.25"/><path fill="#723140" d="m168 40 2 1-1 3c-7.823 3.627-16.44 5.124-25 4-2.34-1.023-2.34-1.023-4-2l1.5 2.813C143 52 143 52 143 55h-2l-3-9h-2l.125 2.75c-.122 3.16-.261 4.734-2.125 7.25-2.078.605-2.078.605-4 1l.621-2.012.816-2.675.81-2.637c.716-2.546 1.27-5.076 1.753-7.676l2.91.484c4.51.64 8.978.737 13.528.766l2.447.063c5.744.037 9.804-1.172 15.115-3.313"/><path fill="#e7fffb" d="M79 78c4.737 1.757 9.653 3.718 12.3 8.203L92 88a853 853 0 0 1-4.312-.437l-2.426-.247C83 87 83 87 80 86c-3.581-.271-7.163-.445-10.75-.621C66 85 66 85 63 83c.375-1.937.375-1.937 1-4 4.5-2.25 10.134-1.573 15-1"/><path fill="#81d9bd" d="M194 54c7.076.145 13.442 1.193 20.125 3.438l1.973.658c2.845 1.001 4.743 1.745 6.902 3.904l-2.125.043c-6.203.312-10.28 1.203-15.316 4.898C204 68 204 68 202 68l-.988-2.047-1.325-2.703-1.3-2.672C197.099 58.184 195.69 56.122 194 54"/><path fill="#40b187" d="M183 47c30.604 2.319 30.604 2.319 42 12l1 2-3.562-1.25C208.898 55.314 196.162 53.093 182 52z"/><path fill="#e6fffb" d="M196.563 98.5 199 100v5c-5.158 1.032-8.102.735-13-1-4.185-.22-7.928.013-12 1 1.741-4.165 3.712-5.4 7.715-7.238 5.3-1.767 9.747-1.41 14.847.738"/><path fill="#44b088" d="M183 33h1c.388 5.954-.448 11.553-3 17-3.178 3.23-6.434 3.657-10.812 4.375-6.943 1.23-13.398 3.204-20.043 5.54-2.383.822-4.69 1.537-7.145 2.085v-6l2 2 1.625-.734c6.106-2.611 12.2-4.343 18.664-5.783 5.602-1.292 10.207-2.686 13.961-7.17 2.013-3.81 2.88-7.105 3.75-11.313"/><path fill="#8f5642" d="M75 149h1q.87 7.09 1.709 14.185.287 2.403.582 4.805C79.528 178.06 80.296 187.838 80 198h-1l-1-5-2 2c-1.575-15.494-2.209-30.465-1-46"/><path fill="#8be0c5" d="m140 46 2.492.438C149.404 47.587 155.994 48.285 163 48c-1.275 2.55-2.492 2.746-5 4l-1.277 1.43c-2.27 2.069-4.514 2.77-7.41 3.758L146.3 58.23 144 59q-1.005-2.685-2-5.375l-1.125-3.023C140 48 140 48 140 46"/><path fill="#3fb288" d="M165 58c3.063 2.375 3.063 2.375 5 5v2l-3-1c-11.93-1.035-19.988 1.303-30.562 6.875C134 72 134 72 131 71c21.907-15.111 21.907-15.111 34-13"/><path fill="#da3e57" d="m94 63 3 2c-.535 5.348-2.467 9.358-5 14l-2.668-1.059-3.52-1.379-3.48-1.37C79.529 74.188 76.929 73.48 74 73l1-6 3.125 2c3.465 1.956 5.846 2.7 9.875 2 2.93-1.823 4.628-2.97 5.813-6.25z"/><path fill="#a9c9d8" d="M152 86v4c-7.716 3.65-14.434 5.815-23 6 .773-1.922.773-1.922 2-4 3.625-1.25 3.625-1.25 7-2l-1-2c5.13-2.104 9.561-2.218 15-2"/><path fill="#772a3c" d="M93.887 58.89C96.159 60.366 97.775 61.55 99 64l6-1c-.187 1.875-.187 1.875-1 4a125 125 0 0 1-5 2l-1 3-2-1 .375-2.75c-.042-3.458-.042-3.458-2.937-5.625C89.499 60.763 87.306 60.462 83 61c-3.184 1.3-3.184 1.3-6 3l-4 2c1.495-3.805 3.694-5.662 7-8 4.596-1.532 9.462-1.198 13.887.89"/><path fill="#3fb288" d="m183.25 53.563 2.04-.104c3.857-.034 6.233.582 9.194 2.943C197 59 197 59 197 61l-1.547-.656c-9.178-3.515-18.137-3.21-27.453-.344l-3-4c6.04-1.626 12.017-2.282 18.25-2.437"/><path fill="#aaaeb5" d="m201 99 4 2v2l3-1c2.816 6.787 3.369 12.689 3 20h-4l-.113-1.871C206.29 112.453 204.543 105.84 201 99"/><path fill="#a7c3d2" d="m85 102 2 3H66c2.309-4.617 2.309-4.617 6.125-6 5.195-1.561 8.671-.286 12.875 3"/><path fill="#44b28a" d="M194 54c7.076.145 13.442 1.193 20.125 3.438l1.973.658c2.845 1.001 4.743 1.745 6.902 3.904-5.534.369-9.977-.707-15.277-2.281-2.462-.65-4.693-.97-7.223-1.157C197 58 197 58 195.281 55.966z"/><path fill="#9b8c96" d="m33 106 1 2-1 3c-.343 3.136-.465 6.287-.625 9.438l-.156 2.603-.133 2.518-.124 2.29c-.055 2.18-.055 2.18.658 4.304L33 134l-2 2q-1.005-2.685-2-5.375l-1.125-3.023C27 125 27 125 27 123h2l-.187-2.937c-.02-4.651 1.42-8.798 3.187-13.063z"/><path fill="#44ad86" d="M139 49c2.604 3.906 3.322 7.314 3 12-3.101 4.361-7.354 6.54-12 9 0-3 0-3 2.313-5.375L135 62c3.2-4.229 3.563-7.839 4-13"/><path fill="#81d9be" d="M142 68v2l8 1c-2.967 1.528-5.972 2.866-9.062 4.125l-2.598 1.07C136 77 136 77 133 77l-1-5q1.934-1.007 3.875-2l2.18-1.125C140 68 140 68 142 68"/><path fill="#763142" d="M68 74c-2.21 3.314-3.623 3.7-7.187 5.125-3.948 1.906-6.305 4.786-8.126 8.688L52 90l-2-2-2 1c2.582-7.532 7.167-11.352 14-15 3-1 3-1 6 0"/><path fill="#743546" d="M100 111c5.099 1.528 9.657 3.71 14.375 6.125l2.23 1.129q2.7 1.369 5.395 2.746v3c-5.456-1.607-10.33-4.05-15.375-6.625l-2.52-1.273Q101.05 114.556 98 113z"/><path fill="#ff8f7e" d="M110 69q2.188-.04 4.375-.062l2.46-.036C119 69 119 69 121 70c-.875 3.875-.875 3.875-2 5-7.459.36-7.459.36-11-2z"/><path fill="#733344" d="m183 108 2 1c-3.357 8.021-7.273 14.51-15.516 18.094-2.15.73-4.279 1.37-6.484 1.906 1.011-2.669 1.654-3.803 4.172-5.238l2.578-1.075c6.137-2.882 9.755-6.493 12.625-12.624z"/><path fill="#937b85" d="M167 73c5.75 1.75 5.75 1.75 8 4v3l-3-1c-6.816-1.753-14.02-1.152-21-1 3.386-3.131 5.711-3.336 10.25-3.187l3.266.082L167 75z"/><path fill="#66323d" d="M175 54v1l-8 1c-.23 2.363-.23 2.363 2.5 4.625L172 63l-1 3-.996-1.531c-2.884-4.032-2.884-4.032-7.266-5.969-3.747 0-7.125.52-10.738 1.5v-2q4.338-1.3 8.688-2.562l2.474-.749c7.514-2.16 7.514-2.16 11.838-.689"/><path fill="#aaecd3" d="M188 33c9.923.953 18.802 6.213 26 13-3.782 0-5.295-1.21-8.5-3.187-5.664-3.4-11.43-6.22-17.5-8.813z"/><path fill="#96e6cb" d="m185.188 57.938 3.855.027L192 58v4l-1.516-.496c-3.41-.692-6.771-.609-10.234-.566l-2.113.013q-2.57.02-5.137.049c3.637-3.637 7.29-3.107 12.188-3.062"/><path fill="#aacad9" d="M181 86h1v5c-.58.315-1.16.63-1.758.953-4.564 2.5-8.963 5.085-13.242 8.047 2.282-5.602 6.71-9.283 12-12h2z"/><path fill="#68182b" d="m164 127-1 2c-3.763 1.254-7.272 1.107-11.187 1.063l-2.272-.014q-2.77-.02-5.541-.049v-2q4.437-.54 8.875-1.062l2.55-.315 2.442-.283 2.254-.27C162 126 162 126 164 127"/><path fill="#753748" d="m147.938 83.813 2.652-.043C153 84 153 84 156 86v3h-3l-1-2c-7.057-.15-7.057-.15-14 1 3.292-3.442 5.17-4.153 9.938-4.187"/><path fill="#794050" d="m180 91 2 1v2l-2.484 1.172-3.266 1.578c-1.067.51-2.135 1.02-3.234 1.547-2.883 1.628-4.82 3.251-7.016 5.703l-2-1a661 661 0 0 1 4.625-4.312l2.602-2.426c2.82-2.3 5.41-3.882 8.773-5.262"/><path fill="#702b3c" d="M155 90c-4.235 3.962-8.547 5.432-14 7l-1-3a597 597 0 0 1 5.813-2.562l3.269-1.442C152 89 152 89 155 90"/><path fill="#c5ebed" d="m29 108 3 1-.937 3.063c-1.04 3.61-1.606 7.206-2.063 10.937h-2q-.079-2.625-.125-5.25l-.07-2.953C27 111.98 27.555 110.39 29 108"/><path fill="#c0e1e3" d="M153 73h14v2c-1.247.09-1.247.09-2.52.184l-3.292.254-3.27.246c-2.978.218-2.978.218-5.918 1.316z"/><path fill="#8fe1c6" d="M198 58c6.625-.125 6.625-.125 10 1l1 3c-7.147.162-7.147.162-10-1z"/><path fill="#722834" d="M190 188h1v10l-3-2c-.312-3-.312-3 0-6z"/><path fill="#6c1a2d" d="M132 80h1c.081 1.437.14 2.874.188 4.313l.105 2.425c-.355 2.74-1.187 3.554-3.293 5.262-1.41-2.818-.509-4.173.438-7.125l.87-2.758z"/><path fill="#ff927f" d="m83 63 5 1-1 3h-5z"/><path fill="#46b78e" d="m137 67 3 1c-2.938 2.503-5.179 3.47-9 4 3.75-3.875 3.75-3.875 6-5"/><path fill="#6c2235" d="m164 127-1 2c-3.062.625-3.062.625-6 1v-3c4.75-1.125 4.75-1.125 7 0"/><path fill="#671e2f" d="m181 49 1 2-1 3h-8l1.75-.812c2.283-1.205 4.224-2.596 6.25-4.188"/></svg>