<svg xmlns="http://www.w3.org/2000/svg" width="256" height="256"><path fill="#d372da" d="m113 86-.332 2.805q-.373 3.155-.742 6.31-.841 7.212-1.727 14.416l-.824 6.844-.41 3.273c-.712 5.984-1.04 11.788-.946 17.812-.017 2.301-.215 4.444-.535 6.72-.865 6.948-.447 13.963-.234 20.945l.067 2.334c.38 12.913 1.142 25.786 2.12 38.666l.186 2.506c.876 11.795.876 11.795 2.994 23.42C113 234 113 234 113 238c-43.866.569-43.866.569-56-10-13.255-14.2-11.334-34.818-11.26-53.064.01-3.168 0-6.335-.013-9.502-.008-13.256.757-26.266 2.273-39.434l1.846.632 2.436.826 2.409.82c6.05 1.892 12.22 1.904 18.496 1.91l2.346.037c6.632.016 12.96-.995 19.467-2.225-.892.01-1.784.02-2.703.032q-5.024.05-10.047.078-2.163.015-4.326.04C56.1 128.409 56.1 128.409 47 121c-4.668-5.282-5.935-11.52-6.035-18.434.357-5.16 1.664-8.501 5.035-12.566 4.855-3.236 9.955-3.133 15.672-3.316l3.918-.128 4.16-.118 2.124-.065c13.71-.412 27.41-.489 41.126-.373m-31 9 1 2Zm-32 1-2 3 1 3 2-6zm19 1v1h7v-1zm14 1 1 2Zm6 5 1 2Zm-20 4 1 2Zm15 1 1 2Zm-16 1 1 3Zm15 1v5h1v-5zm-14 2v1h8v-1zm27 20v1h7v-1zm-39 3 1 3Zm39 0 1 2Zm1 2 1 2Zm-39 1 1 3Zm40 1 1 2Zm-1 2 1 3Zm-39 1c-.953 4.763-1.083 9.167-1 14l-2 1c.278 3.272.575 6.542.875 9.813l.238 2.814.254 2.705.222 2.491c.318 2.46.318 2.46 2.411 5.177l-.016-2.092q-.029-4.736-.047-9.47l-.025-3.292c-.017-5.515.229-10.706 1.088-16.146-.26-2.343-.574-4.682-1-7zm6 2 1 2Zm32 0 1 3Zm1 3 4 1Zm-11 24 4 2v-2zm4 3 1 3Zm-14 1v1h7v-1zm-1 1 1 3Zm-16 4 1 4Zm1 5 1 2Zm31 1 1 4Zm-34 19 1 2Zm1 3 1 2Zm6 5 1 3Zm-5 6 1 2Zm-1 3 1 3Zm42 5v1h7v-1zm-1 4 1 2Z"/><path fill="#d374da" d="M143 86a1092 1092 0 0 1 39.255.318q2.164.057 4.329.104c20.234.45 20.234.45 24.916 5.016 3.685 6.295 3.03 13.503 2.5 20.562-1.485 5.422-4.213 8.994-9 12-6.934 3.404-12.924 4.128-20.586 4.098l-2.127-.005c-2.22-.005-4.441-.018-6.662-.03l-4.543-.014q-5.541-.017-11.082-.049c7.541 1.283 14.904 2.366 22.563 2.313l2.441-.007c6.645-.11 12.664-1.273 18.996-3.306 1.33-.343 2.663-.68 4-1 1.234 2.468 1.065 3.994 1 6.75-.05 4.159.128 8.218.492 12.36.638 8.565.659 17.108.638 25.694-.005 2.692 0 5.383.007 8.075.003 9.757-.247 19.398-1.137 29.121-3.95-.878-6.228-1.92-9-5-.425-3.044-.294-5.947 0-9l-.367 3.035-.508 4.028-.238 1.99c-.573 4.47-1.624 8.611-2.887 12.947 0 3.015.52 4.869 1.5 7.688l.844 2.449L199 228c-12.057 8.579-25.812 9.183-40.156 8.938-2.744-.268-2.744-.268-3.844 1.062-2.02.072-4.042.084-6.062.063l-3.348-.028L143 238q.215-2.532.438-5.062c.08-.94.162-1.88.246-2.848q.327-3.18.789-6.344c2.664-18.93 3.456-38.071 4.076-57.156q.076-2.328.157-4.654.111-3.304.208-6.608l.124-3.91c-.033-2.998-.382-5.51-1.038-8.418-.02-2.313.006-4.626.063-6.937.076-6.766-.646-13.178-1.725-19.863-.73-4.744-1.337-9.504-1.963-14.263l-.41-3.03-.38-2.88-.341-2.57c-.249-2.503-.286-4.944-.244-7.457m30 8 1 2Zm-1 3 1 2Zm8 0v1h7v-1zm7 1 1 3Zm-21 5 1 3Zm19 1 1 3Zm22 0 1 3Zm-1 3-2.062 2.375c-3.693 3.3-6.135 3.73-10.938 4.625l1 2c4.982-.475 8.11-1.834 12-5 .952-2.121.952-2.121 1-4zm-20 1 1 2Zm-15 1 1 3Zm7 3v1h9v-1zm-6 1 1 2Zm-19 13 4 1Zm0 6v1h7v-1zm7 1 1 2Zm38 3 1 3Zm-40 2v5h1v-5zm39 1 1 2Zm-38 5 1 3Zm32 0 1 2Zm-36 3 4 1Zm42 4 1 4Zm-31 21 1 2Zm-1 3 1 2Zm9 0v1h6v-1zm6 1 1 3Zm-21 4 1 3Zm19 2 1 2Zm1 3 1 2Zm-15 1 1 3Zm1 3 1 4Zm26 25 1 2Zm-42 13v1h7v-1zm8 1 1 3Z"/><path fill="#fa9bde" d="M114 86h28c2.34 50.843 2.19 101.151 0 152h-28c-3.635-50.377-3.391-101.616 0-152m90.063-61.937C210.346 29.64 214.946 37.698 216 46c.303 7.751-1.768 13.266-7 19-12.632 11.333-29.186 14.396-45.625 14.188l-2.945-.002A142 142 0 0 1 143 78l-.25-3.187c-.402-3.876-.402-3.876-3-6.126C138 66 138 66 138.125 64.031 142.675 46.971 152.805 31.138 168 22c13.19-6.464 23.887-6.138 36.063 2.063M174 27c2.765 1.224 2.765 1.224 4.688.563C185.296 25.955 191.563 27.33 198 29c-3.599-3.969-7.693-4.755-12.937-5.312-4.074.415-7.282 1.747-11.063 3.312m-11.75 18.938c-3.262 4.867-5.83 9.388-6.75 15.25-2.26 4.238-5.735 4.747-10.164 6.148-.77.22-1.542.438-2.336.664 4.007 1.631 7.26.245 11.125-1.125l2.029-.706C168.61 61.729 182.848 54.662 190 43c.945-2.358 1.489-4.496 2-7-3.234-3.854-3.234-3.854-7.812-5.562-9.524 1.68-16.42 7.875-21.938 15.5m1.75 25.5c-6 1.427-11.85 2.205-18 2.562l1 2c8.926.533 18.914-.005 26-6-3.258 0-5.842.644-9 1.438M95.188 26.563C107.083 36.78 114.546 50.848 118 66l-1.875 1.188c-2.463 2.1-3.036 3.814-4.125 6.812-10.216.709-19.218-1.404-29-4 9.616 4.143 18.606 5.077 29 5v3c-20.84 3.055-44.265 2.49-61.937-10.312-5.511-4.641-8.978-9.342-10.063-16.563C39.504 40.654 44.122 32.633 51 25c13.728-11.982 30.253-8.807 44.188 1.563M59 27c3.255 1.085 3.867.858 7 0 5.424-.34 10.655.09 16 1-.867-2.267-.867-2.267-3.562-3.125C70.94 22.967 65.933 24.029 59 27m6.438 6.063c-1.733 2.892-1.733 2.892-1.126 6.25 4.438 11.781 17.824 19.25 28.555 24.363C102.683 68.3 102.683 68.3 113 68l-2.3-.559c-8.018-2.34-8.018-2.34-9.888-5.359a85 85 0 0 1-1.156-4.582c-2.715-10.345-10.902-18.714-19.605-24.336-4.91-2.787-10.031-3.79-14.614-.102"/><path fill="#d475da" d="M54 135h3c2.997 6.993 1.513 13.717 0 21l-1 1a57 57 0 0 0 .305 4.262l.27 2.642c.098.919.198 1.837.3 2.784l.277 2.724c.383 3.67.793 7.284 1.45 10.916.411 2.761.282 4.979-.102 7.734-.424 3.562-.547 6.45.5 9.938-3.98.844-7.97 1.447-12 2-.872-3.012-1.126-5.694-1.13-8.825l-.009-2.894.006-3.11-.003-3.22q0-3.375.006-6.748c.005-3.426 0-6.852-.007-10.277q0-3.284.004-6.567l-.006-3.084c.018-5.52.323-10.815 1.139-16.275l2.375-.875c2.722-.974 2.722-.974 4.625-3.125"/><path fill="#dc8ee1" d="M175.77 137.313 178 138v2h4c.688 2.25.688 2.25 1 5-1.48 2.172-1.48 2.172-3 4l2.117.332 2.758.48 2.742.458C190 151 190 151 192 154c.082 1.938.082 1.938-.187 4l-.231 2.063c-.73 2.432-1.564 3.405-3.582 4.937-4.3 1.294-8.017 1.34-12.25-.125-6.73-4.589-9.862-9.356-11.437-17.375.908-4.624 2.984-6.285 6.449-9.312C173 137 173 137 175.77 137.313"/><path fill="#db8de1" d="M75.563 205.938 78 206l.777 2.082c2.187 5.459 2.187 5.459 6.489 9.18 2.388.765 2.388.765 4.746 1.238C92 219 92 219 94 221c.558 4.225.438 6.313-1.875 9.938-3.77 2.487-6.107 2.853-10.559 2.601-4.53-.952-7.519-3.106-10.566-6.539-2.879-4.562-5.112-9.564-4-15 2.438-2.812 2.438-2.812 5-5 1-1 1-1 3.563-1.062"/><path fill="#dc8fe1" d="M87 131c4.087 4.207 5.618 8.325 6.438 14.063-.596 3.996-2.496 5.276-5.438 7.937-1.295 2.166-1.295 2.166-2 4l-5-1-.332-2.117-.48-2.758-.458-2.742c-.56-2.727-.56-2.727-3.73-4.383l-3.5-.437C69 143 69 143 67.063 141.938c-1.786-3.256-1.3-6.273-1.063-9.938 2.036-2.036 6.011-1.458 8.813-1.625l2.197-.156c7.002-.436 7.002-.436 9.99.781"/><path fill="#fa99de" d="M86 172c2.688.313 2.688.313 5 1l.188 2.313c.581 2.918.581 2.918 3.374 4.5L97 181l-1.937 2.25c-1.911 2.547-2.464 3.756-3.063 6.75l-2 3-2.25-1c-2.889-1.228-2.889-1.228-6.75-1h-5c-1.249-3.608-.68-6.296 0-10a98 98 0 0 0 0-5l3.313-.312c3.621-.316 3.621-.316 5.312-2.313z"/><path fill="#db8de0" d="M160 155c2.221 1.762 2.872 3.206 3.32 5.988.347 6.69-1.77 11.34-5.52 16.739-2.807 1.985-5.47 1.462-8.8 1.273a550 550 0 0 1-.25-8.687l-.102-2.475c-.067-4.14-.006-6.265 2.243-9.858 3.048-2.861 4.95-3.487 9.109-2.98"/><path fill="#dc8ee1" d="M53.688 175.188C56 176 56 176 58 177c1.326 4.702.758 8.894.191 13.652-.213 2.621.053 4.829.809 7.348-3.98.844-7.97 1.447-12 2-1.144-4.15-1.295-8.217-1.375-12.5l-.113-2.3c-.065-4.115-.054-5.615 2.843-8.743C51 175 51 175 53.688 175.187"/><path fill="#fa9bde" d="m127.875 67.813 3.18-.043c2.939.23 4.522.595 6.945 2.23 2.438 3.657 2.24 5.69 2 10-1 1-1 1-4.062 1.063L133 81l-2-4v4h-5l-1-4-1 4h-8c-.49-7.362-.49-7.362 1.875-10.437 3.519-2.588 5.653-2.724 10-2.75"/><path fill="#fa9add" d="m176 93 1.563 1.938c3.096 2.62 5.458 2.756 9.437 3.062l-.29 1.793c-.652 4.65-1.055 7.93 1.29 12.207l-2.117.148-2.758.227-2.742.21c-2.562.21-2.562.21-4.383 2.415h-3l-1.312-3.375c-1.387-3.8-1.387-3.8-4.688-5.625l1-4 4-1 .875-3.437L174 94z"/><path fill="#fa9ade" d="M79 94c2.188.313 2.188.313 4 1l1 5 4 1c.813 1.688.813 1.688 1 4a283 283 0 0 1-5 5c-.872 2.678-.872 2.678-1 5-4.875-.875-4.875-.875-6-2a70 70 0 0 0-4.062-.562L69 112l.625-3.125c.387-3.998-.106-6.212-1.625-9.875 1-1 1-1 4.375-1.375C76.184 96.968 76.536 96.581 79 94"/><path fill="#fa9bde" d="M167 172c2.962.613 4.38 1.254 7 3 1.99.39 3.99.732 6 1l-.562 3.625c-.47 3.658-.253 6.754.562 10.375l-6.055-.293L172 190l-2 3h-4l-.75-3.312c-1.318-3.887-2.006-4.526-5.25-6.688v-3h2l1-2 2-1a78 78 0 0 0 2-5"/><path fill="#dc8ee1" d="m200.25 87.688 3.453-.114c3.94.509 5.499 1.668 8.297 4.426 2.135 3.786 1.953 5.863 1 10l-2.23-.035-2.958-.028-2.917-.035c-2.75.093-5.22.477-7.895 1.098l-1.437-3.437c-1.2-3.32-1.2-3.32-2.563-4.563-.125-3-.125-3 0-6 1.858-1.858 4.758-1.26 7.25-1.312"/><path fill="#db8ce0" d="M175 117c4.133 1.373 8.106 3.053 12 5l1-3 3 1v2h3v3l-5-1 1 4c-3.958.087-7.916.14-11.875.188l-3.418.076-3.262.029-3.015.048L166 128c-2-3-2-3-1.812-5.5 1.911-5.883 4.89-6.158 10.812-5.5"/><path fill="#db8de1" d="M44 111h11l1 2c1.85 1.05 1.85 1.05 4 2 3.889 1.778 3.889 1.778 5 4 .25 3 .25 3 0 6-3 2-3 2-6.187 1.938-6.146-1.512-10.316-4.15-14.376-9C43 115 43 115 44 111"/><path fill="#dc8fe1" d="M184.375 200.063 187 201v7l-2.25.75c-2.847 1.06-2.847 1.06-4.562 3.375-2.455 2.104-3.137 2.182-6.25 2.25C170 214 170 214 167 212c-.562-2.687-.562-2.687 0-6 5.128-7.684 8.529-8.722 17.375-5.937"/><path fill="#dc90e1" d="m98.242 104.77 2.633.043 2.617.019C106 105 106 105 110 106l-1 15-5.125-.5c-3.976-.364-7.878-.608-11.875-.5v-4h3l-1-2c-.187-3.5-.187-3.5 0-7 2-2 2-2 4.242-2.23"/><path fill="#fa9bde" d="M199 135c2.867.573 3.861.861 6 3l4 1 1 14-8 2-2.266.566L198 156l-.75-3.312c-1.27-3.747-1.908-4.794-5.25-6.688.813-1.937.813-1.937 2-4l3-1c1.225-3.008 1.225-3.008 2-6"/><path fill="#dc8fe1" d="m199 173-.5 2.5c-.391 2.737-.487 4.909-.375 7.625C198 187 198 187 197 189.5c-2.712 2.034-4.787 2.13-8.125 1.945C187 191 187 191 185 188.938c-1.248-3.666-1.54-6.086-1-9.938 1.802-3.315 3.896-5.586 7.5-6.937 2.66-.067 4.927.275 7.5.937"/><path fill="#dc90e1" d="M75 153c1.56 1.56 1.282 3.089 1.375 5.25-.018 3.847-.128 4.47-2.812 7.5L71 168c-.872 2.678-.872 2.678-1 5l-4-1 1-4-2.375-.375C62 167 62 167 60 165c-.068-3.52.22-5.973 2.387-8.828 4.181-4.022 6.819-4.91 12.613-3.172"/><path fill="#db8ee1" d="M100 199c2.304 3.457 2.259 4.949 2 9l-1 2h2v3l-1.812-.625c-2.473-.682-2.473-.682-5.188 1.625-3.562.553-6.867.618-10.062-1.125-1.477-2.954-.871-4.763.062-7.875 3.88-5.886 7.023-7.972 14-6"/><path fill="#dc8fe1" d="m157 191-.625 1.688c-.485 2.993.497 4.524 1.625 7.312.125 3.313.125 3.313 0 6l3 1v5c-3.106.998-4.9.94-8 0l-2.687-.5C148 211 148 211 147 210c-.415-5.665-.852-11.945 2-17 2.795-1.28 4.925-2 8-2"/><path fill="#e09ce5" d="M65 92c1.616 3.232 1.575 6.506 1 10-2.003 3.005-3.381 4.672-7.008 5.406-2.978.132-5.371-.057-7.992-1.531-1.512-2.834-1.443-4.708-1-7.875 4.143-6.51 7.519-7.694 15-6"/><path fill="#fa9bde" d="M55 204c1.81 1.645 2.941 2.867 3.938 5.125.908 2.082.908 2.082 3.187 2.625L64 212c-.312 2.375-.312 2.375-1 5l-3 2a118 118 0 0 0-3 7c-4.209-1.403-4.907-3.777-6.926-7.566-1.423-3.224-1.85-5.932-2.074-9.434l4-1v-2zm-1-69h3c3.025 7.057 1.328 13.637 0 21l-2.125-.937c-3.322-1.33-3.322-1.33-8.875-2.063l1-14 5-2z"/><path fill="#db8ce0" d="M107 152v24c-6 1-6 1-8.437-.375-2.026-3.402-1.802-5.412-1.176-9.246C98.416 162.388 101.838 152 107 152"/><path fill="#fa95df" d="m148 129 5 2v2h7l1 3-1 2h-2v5l2 1-1 3-5 1v-2l-5 2c-1.01-4.156-1.102-8.044-1.062-12.312l.027-3.801z"/><path fill="#db8ce0" d="M199 194a928 928 0 0 1-.375 7.063c-.07 1.31-.14 2.621-.21 3.972-.41 3.91-1.061 7.276-2.415 10.965-3 2-3 2-5.125 1.75C189 217 189 217 188 215c-1.093-7.18 2.257-12.998 6-19 3-2 3-2 5-2m-8 20 1 2Z"/><path fill="#db8de1" d="m75 179 2 2c-.023 2.164-.023 2.164-.375 4.625l-.336 2.477L76 190h7c-2.625 5.75-2.625 5.75-6 8-2.937 0-2.937 0-6-1-3.079-3.316-4-5.076-4-9.625 1.08-3.647 2.01-5.088 5-7.375z"/><path fill="#db8ce1" d="M144 96c6.355.908 8.286 1.272 13 5 2 3 2 3 1.875 5.563C158 109 158 109 156.438 110.313c-3.545 1-6.76.81-10.438.687z"/><path fill="#fa9cde" d="M107 129h1c.107 6.44-.038 12.626-1 19l-2.187-.5c-2.677-.476-5.102-.577-7.813-.5l.625-3.625c.51-3.933-.058-6.687-1.625-10.375l1.898-.367 2.477-.508 2.46-.492c2.352-.5 2.352-.5 4.165-2.633"/><path fill="#fa9bde" d="M200 204c2.712 1.613 5.374 3.249 8 5-.403 6.316-2.712 10.65-6 16h-4c-1.41-7.69-.23-13.554 2-21"/><path fill="#fa9ade" d="m145 224 1.5 1.5c3.616 2.17 6.322 1.709 10.5 1.5.24 4.087-.577 7.177-2 11h-12c.875-10.625.875-10.625 2-14"/><path fill="#fa99de" d="M110 224c2.607 4.536 2.593 8.845 3 14h-12c-1-5-1-5-1-7l-2-1 1-2c2.017-.228 4.034-.453 6.055-.648 2.441-.442 3.536-1.327 4.945-3.352"/><path fill="#db8de0" d="M209 160h1v22h-5c-2.45-2.45-2.323-3.247-2.375-6.625.107-6.133 2.024-11.024 6.375-15.375"/><path fill="#dd92e2" d="m89 220 5 1c.433 4.416.5 6.347-2.25 9.938C89 233 89 233 85 233c-2-3-2-3-1.625-5.187L84 226l4-1z"/><path fill="#e3a5e7" d="M198 93c2.125.375 2.125.375 4 1v8a88 88 0 0 1-5 1c-1-1-1-1-1.187-4.437C196 95 196 95 198 93"/><path fill="#f1d3f3" d="M198 165c2.063.438 2.063.438 4 1v5c-1.875.625-1.875.625-4 1l-2-2c.536-3.536.536-3.536 2-5"/><path fill="#f4dcf6" d="m54 193 5 1-1 5-5-1z"/><path fill="#f4dcf5" d="m173 137 5 1-1 5-5-1z"/><path fill="#f3daf5" d="m96 93 5 1-1 5-5-1z"/><path fill="#de97e3" d="M159 214h5v5c-1.875.625-1.875.625-4 1l-2-2c.375-2.125.375-2.125 1-4"/><path fill="#f3d9f5" d="M156 207h5v5c-1.875.625-1.875.625-4 1l-2-2c.375-2.125.375-2.125 1-4"/><path fill="#e1a0e5" d="m194 172 5 1-1 5-5-1z"/><path fill="#f4ddf6" d="m82 151 5 1-1 5-5-1z"/><path fill="#df9ae4" d="M178 140h4a88 88 0 0 1 1 5c-1 1-1 1-3.562 1.063L177 146z"/><path fill="#f3dbf5" d="m154 112 5 1-1 5-5-1z"/><path fill="#f6e2f7" d="M85 225c2.063.438 2.063.438 4 1l-1 5-5-1c.875-3.875.875-3.875 2-5"/><path fill="#f5e1f7" d="M55 115q2.514.428 5 1l-1 5-4-1c-.562-1.937-.562-1.937-1-4z"/><path fill="#de97e3" d="m92 92 3 1 1 6h-5c-.625-2.375-.625-2.375-1-5z"/><path fill="#e5ade9" d="M89 220h4v6h-5a100 100 0 0 1 0-5z"/><path fill="#df99e4" d="m59 196 4 1-1 5-5-1z"/><path fill="#e6b0ea" d="M50 112c3.146-.262 4.618-.248 7.313 1.5L59 115c-4.43 2.092-4.43 2.092-7.312 1.625L50 116z"/><path fill="#faa1e1" d="M59 142c2.438.813 2.438.813 5 2l1 3-6 2z"/><path fill="#f7e7f8" d="M198 93c2.063.438 2.063.438 4 1l-1 5h-4a100 100 0 0 1 0-5z"/><path fill="#fbedf9" d="m76 179 2 1-1 9h5l-1 2h-5c-1.242-3.59-.72-6.321 0-10z"/><path fill="#e5aee9" d="m81 146 5 1v4h-4l-1 2z"/><path fill="#e2a4e7" d="M100 191h4l-1 6h-4z"/><path fill="#e8b6eb" d="M155 161c2.867.573 3.861.861 6 3v3c-2.169-.506-4-1-6-2z"/><path fill="#df9ae4" d="m159 115 3 1-1 5h-4l-1-3z"/><path fill="#e7b3eb" d="M76 207h3v7l-4-1z"/><path fill="#e3a6e7" d="m188 119 3 1v2h3v3h-3v-2h-4z"/><path fill="#fbb2e6" d="M78 181c2.624 3.061 3 3.732 3 8h-4z"/><path fill="#fb9fdc" d="m197 212-2 5-3-1v-3c2-1 2-1 5-1"/></svg>