<svg xmlns="http://www.w3.org/2000/svg" width="256" height="256"><path fill="#f62f42" d="M170.875 17.438C174.838 18.15 176.293 19 179 22c2.918 5.227 3.113 9.928 2.57 15.816l-.312 3.518L181 44l2.11.788c14.276 5.368 28.27 11.098 42.015 17.712l1.926.917c1.803.861 3.599 1.737 5.394 2.614l3.11 1.518C238 69 238 69 240 72c.63 5.89-.797 9.586-3.5 14.625l-1.09 2.091C224.83 108.75 224.83 108.75 218 113c-.83.115-1.658.23-2.512.35-2.593.414-2.593.414-3.938 2.453l-1.163 2.361-1.332 2.628-1.368 2.833-2.902 5.797-1.429 2.889c-1.498 2.97-3.097 5.87-4.728 8.77-7.814 13.978-13.465 30.188-9.874 46.302 1.32 4.297 2.829 8.5 4.402 12.71 2.838 7.866 4.445 15.01 1.781 23.157-5.285 7.502-11.266 11.86-19.937 14.75-7.24.714-13.043.346-19-4-6.311-6.125-10.871-13.19-15.375-20.687-6.307-10.287-12.677-20.409-20.422-29.692-8.661-10.467-8.661-10.467-8.629-17.234 1.487-8.334 7.025-14.624 12.047-21.16 8.89-11.831 15.388-25.5 22.058-38.644a348 348 0 0 1 3.454-6.56l1.68-3.273 1.394-2.64c.829-3.25.604-4.925.11-8.188-.819-7.081 1.762-12.154 4.808-18.422l1.477-3.184a601 601 0 0 1 5.923-12.41l1.416-2.945 1.288-2.616c.88-2.678.718-3.689-.417-6.22l-.957-1.887C164.042 33.492 164.35 27.978 165 23c2.284-4.86 2.284-4.86 5.875-5.562M171 24c-1.52 6.355-.166 10.917 2 17h2c1.643-4.93 1.813-9.264-.375-13.937-1.464-2.16-1.464-2.16-3.625-3.063"/><path fill="#f62f43" d="M74.875 17.438c4.159.748 5.514 2.298 8.125 5.562 1.995 3.983 2.217 7.2 2.125 11.625l-.055 3.414L85 41v3l2.573 1.019C101.923 50.722 116.27 56.428 130.25 63l2.842 1.308c8.672 4.167 8.672 4.167 10.908 8.692.063 6.67-2.399 11.556-5.562 17.313l-1.354 2.513C128.33 108.779 128.33 108.779 122 113l-2.497.326c-2.658.45-2.658.45-4.137 2.737l-1.417 2.722-1.605 3.024-1.656 3.254-1.729 3.308a1016 1016 0 0 0-3.402 6.593 479 479 0 0 1-4.041 7.696c-7.52 14.193-12.976 29.904-8.828 46.013 1.616 5.213 3.564 10.274 5.574 15.344 2.316 6.226 2.945 12.893.238 19.046-3.765 6.724-9.979 11.45-17.078 14.277-5.967 1.626-11.978 1.642-17.672-.903-7.398-4.468-12.058-10.962-16.437-18.25a2904 2904 0 0 0-3.133-5.062l-1.595-2.582c-6.506-10.438-13.323-20.6-21.109-30.13-4.294-5.274-6.141-8.826-5.972-15.651.97-5.406 4.29-9.42 7.496-13.762 10.587-14.369 18.865-29.444 26.714-45.453q.97-1.98 1.95-3.955a648 648 0 0 0 2.723-5.588l1.6-3.287c1.35-2.752 1.35-2.752.013-5.717-.369-5.862.263-9.568 2.773-14.984l.86-1.888c.9-1.966 1.82-3.922 2.742-5.878l1.828-3.98c4.236-9.215 4.236-9.215 6.003-12.537 1.375-3 .101-5.643-.76-8.702C67.962 33.265 67.498 27.831 69 22c2.352-3.873 2.352-3.873 5.875-4.562M75 24c-1.917 3.834-1.501 8.281-.328 12.305.724 1.919 1.52 3.81 2.328 5.695 2.455-2.455 2.68-4.441 3.04-7.828-.066-3.63-1.295-6.006-3.04-9.172z"/><path fill="#cad6e7" d="M170.875 17.438C174.838 18.15 176.293 19 179 22c2.918 5.227 3.113 9.928 2.57 15.816l-.312 3.518L181 44l2.11.788c14.276 5.368 28.27 11.098 42.015 17.712l1.926.917c1.803.861 3.599 1.737 5.394 2.614l3.11 1.518C238 69 238 69 240 72c.63 5.89-.797 9.586-3.5 14.625l-1.09 2.091C224.584 109.218 224.584 109.218 218 113c-5.101.391-8.682-.345-13.36-2.344l-3.604-1.517-3.786-1.639q-1.952-.83-3.906-1.656-3.88-1.645-7.755-3.31a854 854 0 0 0-9.366-3.936c-22.6-9.35-22.6-9.35-24.223-12.598 0-9.165 4.187-16.824 8-24.937q.994-2.153 1.984-4.307c4.27-9.265 4.27-9.265 6.016-12.756l-1.437-3.312C164.31 35.024 164.216 28.999 165 23c2.284-4.86 2.284-4.86 5.875-5.562M171 24c-1.52 6.355-.166 10.917 2 17h2c1.643-4.93 1.813-9.264-.375-13.937-1.464-2.16-1.464-2.16-3.625-3.063"/><path fill="#cdd9ea" d="M74.875 17.438c4.159.748 5.514 2.298 8.125 5.562 1.995 3.983 2.217 7.2 2.125 11.625l-.055 3.414L85 41v3l2.573 1.019C101.923 50.722 116.27 56.428 130.25 63l2.842 1.308c8.672 4.167 8.672 4.167 10.908 8.692.063 6.67-2.399 11.556-5.562 17.313l-1.354 2.513C128.33 108.779 128.33 108.779 122 113c-5.798.464-9.99-.366-15.297-2.781l-2.023-.877c-2.15-.934-4.29-1.888-6.43-2.842q-3.331-1.457-6.665-2.906-2.203-.959-4.405-1.922c-6.693-2.922-13.464-5.625-20.304-8.186C62.716 91.882 58.982 90.44 56 87c-.469-5.845.275-9.594 2.773-14.984l.86-1.888c.9-1.966 1.82-3.922 2.742-5.878l1.828-3.98c4.236-9.215 4.236-9.215 6.003-12.537 1.375-3 .101-5.643-.76-8.702C67.962 33.265 67.498 27.831 69 22c2.352-3.873 2.352-3.873 5.875-4.562M75 24c-1.917 3.834-1.501 8.281-.328 12.305.724 1.919 1.52 3.81 2.328 5.695 2.455-2.455 2.68-4.441 3.04-7.828-.066-3.63-1.295-6.006-3.04-9.172z"/><path fill="#e0212e" d="M154 89c6.244 1.977 12.265 4.278 18.277 6.871l2.58 1.102q4.042 1.728 8.08 3.465l8.07 3.453q2.498 1.069 4.992 2.14c5.632 2.414 11.303 4.716 17.001 6.969-4.99 10.217-10.24 20.196-16 30-5.467-1.748-10.758-3.658-16-6 .635-4.992 2.81-9.102 5-13.562q1.1-2.25 2.188-4.504l.98-1.999c.842-1.96 1.373-3.855 1.832-5.935l-2.613-.805c-4.462-1.574-8.5-3.755-12.68-5.953-2.665-1.45-2.665-1.45-5.707-1.242l-1.645 3.508-2.167 4.617-1.08 2.305A473 473 0 0 1 159 126l-1.687-.5c-3.55-.768-6.15-1.138-9.41.652-9.018 8.193-15.054 21.812-15.903 33.848l-.207 2.367c-.707 15.983 4.97 32.427 15.207 44.633 5.817 6.153 11.253 10.762 19.922 11.121 5.269-.203 10.293-.615 14.476-4.047 3.897-5.046 6.18-11.221 8.602-17.074h2c3.43 8.774 5.96 17.004 2.938 26.25-5.286 7.502-11.267 11.86-19.938 14.75-7.24.714-13.043.346-19-4-6.311-6.125-10.871-13.19-15.375-20.687-6.307-10.287-12.677-20.409-20.422-29.692-8.661-10.467-8.661-10.467-8.629-17.234 1.487-8.334 7.025-14.624 12.047-21.16C136.284 128.373 145.41 108.149 154 89"/><path fill="#e1212e" d="M58 89c7.352 2.27 14.33 5.224 21.362 8.327C91.806 102.817 104.324 108.064 117 113c-4.99 10.217-10.24 20.196-16 30-3.95-.628-7.199-1.865-10.812-3.562l-2.958-1.38L85 137c.606-6.233 3.339-10.87 6.293-16.254l1.09-2.066 1.012-1.852c.787-2.378.588-3.536-.395-5.828-1.513-1.284-1.513-1.284-3.457-2.176l-2.123-1.068-2.233-1.069-2.197-1.126c-3.85-2.004-3.85-2.004-8.076-2.446-2.738 1.266-3.193 2.805-4.387 5.541l-1.287 2.848-1.302 2.996q-1.285 2.928-2.598 5.844l-1.145 2.63C63 125 63 125 60 126l-3.187-1c-3.725-.38-3.725-.38-5.836 1.512-11.041 11.78-15.742 27.147-15.332 43.125 1.586 15.012 7.81 32.57 19.792 42.363 5.743 4.059 11.41 6.61 18.54 6.371 3.105-.57 5.638-1.935 8.359-3.496C84 214 84 214 86 214c1.805-3.54 3.465-7.14 5.125-10.75l1.633-3.547L94 197c4.724 3.983 5.46 10.353 6.328 16.219.3 5.383-1.268 9.48-4.328 13.781-5.35 5.929-11.73 10.27-19.734 11.379-7.2.308-12.475-1.12-17.964-5.838-4.484-4.38-7.77-8.995-10.99-14.353a2904 2904 0 0 0-3.132-5.063l-1.595-2.582c-6.506-10.438-13.323-20.6-21.109-30.13-4.294-5.274-6.141-8.826-5.972-15.651.97-5.406 4.29-9.42 7.496-13.762 11.927-16.188 20.831-33.39 29.442-51.514l.894-1.878q1.214-2.557 2.424-5.118C57 90 57 90 58 89"/><path fill="#e9eff4" d="M103 51c5.96 2.249 11.692 5.012 17.427 7.776a296 296 0 0 0 7.503 3.423l4.57 2.051 2.12.922C138.846 67.112 141.568 69 144 73c-.087 5.452-1.147 9.282-4 14l-1.46 1.414c-1.705 1.756-2.646 3.493-3.79 5.648-1.877 3.026-2.548 3.841-5.875 5.438-12.549 1.62-22.475-.413-32.879-7.887-7.35-5.94-12.007-13.958-13.41-23.398-.226-6.82 1.473-10.935 5.914-16.153C93.164 48.627 97.669 49.53 103 51"/><path fill="#edf3f8" d="M198.065 51.708c2.152.899 4.263 1.86 6.372 2.855l2.336 1.066a903 903 0 0 1 11.93 5.61l2.284 1.085q2.138 1.02 4.267 2.061c3.179 1.53 6.182 2.793 9.61 3.654C238 69 238 69 240 72c.7 6.11-1.024 10.015-3.813 15.25l-1.08 2.14c-2.376 4.606-4.107 7.818-9.107 9.798-9.364 2.326-19.032 1.124-27.45-3.547C189.449 89.803 182.938 82.534 180 72c-1.245-11.932-1.245-11.932 1.75-16.625L184 53l1.75-1.937c3.939-1.86 8.314-.727 12.315.645"/><path fill="#db222f" d="M154 89c6.244 1.977 12.265 4.278 18.277 6.871l2.58 1.102q4.042 1.728 8.08 3.465l8.07 3.453q2.498 1.069 4.992 2.14c5.632 2.414 11.303 4.716 17.001 6.969-4.99 10.217-10.24 20.196-16 30-5.467-1.748-10.758-3.658-16-6 .635-4.992 2.81-9.102 5-13.562q1.1-2.25 2.188-4.504l.98-1.999c.842-1.96 1.373-3.855 1.832-5.935l-2.613-.805c-4.462-1.574-8.5-3.755-12.68-5.953-2.665-1.45-2.665-1.45-5.707-1.242l-1.645 3.508-2.167 4.617-1.08 2.305A473 473 0 0 1 159 126c-4.333-.645-7.867-2.19-11.812-4.062l-3.52-1.66L141 119c.627-4.045 1.933-7.284 3.723-10.957l1.63-3.37 1.71-3.486 1.72-3.544q2.1-4.326 4.217-8.643"/><path fill="#dd222f" d="M58 89c7.352 2.27 14.33 5.224 21.362 8.327C91.806 102.817 104.324 108.064 117 113c-4.99 10.217-10.24 20.196-16 30-3.95-.628-7.199-1.865-10.812-3.562l-2.958-1.38L85 137c.606-6.233 3.339-10.87 6.293-16.254l1.09-2.066 1.012-1.852c.787-2.378.588-3.536-.395-5.828-1.513-1.284-1.513-1.284-3.457-2.176l-2.123-1.068-2.233-1.069-2.197-1.126c-3.85-2.004-3.85-2.004-8.076-2.446-2.738 1.266-3.193 2.805-4.387 5.541l-1.287 2.848-1.302 2.996q-1.285 2.928-2.598 5.844l-1.145 2.63C63 125 63 125 60 126a105 105 0 0 1-7.687-3.437l-2.127-1.026A698 698 0 0 1 45 119c.56-4.29 1.583-7.696 3.469-11.582l1.48-3.072 1.551-3.159 1.55-3.216C56.838 90.163 56.838 90.163 58 89"/><path fill="#ebe9ef" d="M74 102c4.364.622 8.27 2.894 12.188 4.813l2.232 1.04 2.123 1.042 1.938.932C94 111 94 111 94.808 112.91c.334 3.638-1.76 6.596-3.433 9.715l-1.113 2.145a764 764 0 0 1-2.224 4.25c-1.385 2.641-2.714 5.308-4.038 7.98l-2 4c-4.96-.616-8.937-2.798-13.312-5.062l-2.245-1.143Q63.72 133.405 61 132c.452-6.662 3.015-11.873 5.938-17.812l1.38-2.89c3.394-7.01 3.394-7.01 5.682-9.298"/><path fill="#ebeaf0" d="M170 102c4.92.442 9 2.831 13.313 5.063l2.244 1.142q2.724 1.39 5.443 2.795c-.872 6.6-3.507 11.867-6.375 17.813l-1.5 3.216-1.46 3.053c-.44.92-.878 1.84-1.33 2.788C179 140 179 140 176 141c-1.87-.59-1.87-.59-3.941-1.582l-2.268-1.076-2.353-1.155-2.366-1.119C159.29 133.29 159.29 133.29 157 131c.374-3.864 1.794-7.014 3.469-10.484l1.48-3.082 1.551-3.184 1.55-3.23c3.8-7.87 3.8-7.87 4.95-9.02"/><path fill="#200507" d="M114 160h1l.262 1.836.425 2.539.387 2.46c2.668 9.117 8.164 16.76 13.614 24.415l2.148 3.05q2.113 2.995 4.236 5.985 2.468 3.477 4.916 6.969A634 634 0 0 0 148 217l2.137 2.96c3.76 5 6.53 8.587 12.863 10.04 8.334.963 14.683-.114 22.246-3.71 2.864-1.342 5.74-2.34 8.754-3.29-3.025 6.93-9.69 11.597-16.578 14.34-5.898 1.607-11.937 1.636-17.61-.778-8.761-5.314-14.047-14.693-19.187-23.25-6.307-10.286-12.677-20.408-20.422-29.69-8.279-10.02-8.279-10.02-8.531-17.5.365-2.362 1.148-4.057 2.328-6.122"/><path fill="#070305" d="M149 99c4.333.645 7.867 2.19 11.813 4.063l3.519 1.66L167 106c-.65 4.714-2.516 8.577-4.562 12.813A1176 1176 0 0 1 159 126c-4.334-.646-7.868-2.19-11.814-4.063l-3.519-1.66L141 119c.65-4.714 2.516-8.577 4.563-12.812l.998-2.1Q147.774 101.54 149 99m-96 0c4.333.645 7.867 2.19 11.813 4.063l3.519 1.66L71 106c-2.138 7.244-5.227 13.467-9 20a95.5 95.5 0 0 1-17-7c.547-5.006 2.241-8.972 4.563-13.375l.998-1.941A689 689 0 0 1 53 99"/><path fill="#1d355c" d="M189 117c4.333.645 7.867 2.19 11.813 4.063l3.519 1.66L207 124c-1.596 4.394-3.78 8.29-6.125 12.313l-1.129 1.955q-1.37 2.368-2.746 4.732c-5.467-1.748-10.758-3.658-16-6 .65-4.714 2.516-8.577 4.563-12.812l.998-2.1Q187.775 119.54 189 117"/><path fill="#1c335a" d="M93 117c4.333.645 7.867 2.19 11.813 4.063l3.519 1.66L111 124q-1.653 3.346-3.312 6.688c-.31.625-.618 1.251-.936 1.896-1.776 3.57-3.647 7.03-5.752 10.416-3.95-.628-7.199-1.865-10.812-3.562l-2.958-1.38L85 137c.547-5.006 2.241-8.972 4.563-13.375l.998-1.941A689 689 0 0 1 93 117"/><path fill="#230507" d="M18 159h1l.262 1.766c2.424 14.147 9.386 24.87 17.357 36.508a959 959 0 0 1 5.035 7.456C52.087 221.014 52.087 221.014 68 231c8.538 1.106 17.237.964 25-3-1.898 5.166-5.963 6.554-10.7 8.79-6.343 2.326-12.328 2.388-18.55-.352-7.399-4.466-12.06-10.964-16.437-18.25a2904 2904 0 0 0-3.133-5.063l-1.595-2.582c-6.506-10.438-13.323-20.6-21.109-30.13-3.73-4.582-5.762-7.502-5.726-13.476l-.016-2.597C16 162 16 162 18 159"/><path fill="#22355d" d="M172 108c4.817 1.515 8.693 3.416 13 6-.616 4.96-2.798 8.937-5.062 13.313A1249 1249 0 0 1 176 135l-4.001-1.001v-2l-2.812-.375C166 131 166 131 163 129c.616-4.96 2.798-8.937 5.063-13.312l1.142-2.245q1.39-2.724 2.795-5.443"/><path fill="#23355c" d="M76 108c4.817 1.515 8.693 3.416 13 6-1.494 4.843-3.45 9.314-5.625 13.875l-.984 2.086A1895 1895 0 0 1 80 135c-3.612-1.149-7.008-2.383-10.375-4.125l-2.086-1.07L66 129c1.48-5.001 3.632-9.33 6.125-13.875l1.129-2.086Q74.622 110.517 76 108"/><path fill="#e2212d" d="M170.875 17.438C174.838 18.15 176.293 19 179 22c3.503 6.519 3.318 12.862 2 20l-1 2-3.187-.562c-3.384-.389-5.577-.32-8.813.562-3.225-6.853-3.985-13.461-3-21 2.284-4.86 2.284-4.86 5.875-5.562M171 24c-1.52 6.355-.166 10.917 2 17h2c1.643-4.93 1.813-9.264-.375-13.937-1.464-2.16-1.464-2.16-3.625-3.063"/><path fill="#e2212e" d="M74.813 17.563c4.263.585 5.534 2.121 8.187 5.437 1.967 3.955 2.27 7.231 2.25 11.625l.016 3.414C85 41 85 41 83 44l-5-1 .324-2.16c.792-6.323.788-10.238-2.324-15.84-1.4 1.178-1.4 1.178-1.187 4.5.042 4.666 1.02 9 2.187 13.5l-5 2c-3.456-6.912-4.938-13.846-3.187-21.5 1.792-5.283 1.792-5.283 6-5.937"/><path fill="#090407" d="M205 124h2c-1.596 4.394-3.78 8.29-6.125 12.313l-1.129 1.955q-1.37 2.368-2.746 4.732c-5.467-1.748-10.758-3.658-16-6l1-5 2.055-.043c7.88-.404 15.204-2.216 20.945-7.957"/><path fill="#080306" d="M108 125c1.175 3.475 1.063 3.868-.652 7.453a230 230 0 0 1-2.285 3.797l-1.17 1.969c-.954 1.6-1.922 3.191-2.893 4.781-3.95-.628-7.199-1.865-10.812-3.562l-2.958-1.38L85 137l1-5 2.125-.078c8.047-.481 13.246-2.502 19.875-6.922"/><path fill="#290609" d="M18 159h1l.262 1.766c2.638 15.391 10.774 26.778 19.488 39.359a6782 6782 0 0 1 5.218 7.614q1.614 2.354 3.235 4.701l1.468 2.127 1.293 1.869C51 218 51 218 52 220l-2 2-1.234-1.905c-13.735-21.584-13.735-21.584-29.137-41.974-2.897-3.772-3.908-6.405-3.879-11.184l-.016-2.597C16 162 16 162 18 159"/><path fill="#18090b" d="M58 89c7.408 2.287 14.446 5.263 21.533 8.384 3.322 1.462 6.648 2.912 9.975 4.362l1.968.859c7.46 3.25 14.978 6.352 22.524 9.395-9.028 3.01-24.835-6.858-33.118-10.393C73.042 98.31 65.317 95.786 57 94z"/><path fill="#1c345c" d="m155 101 12 5c-.765 3.823-1.476 6.384-3.062 9.813l-1.098 2.394L162 120c-4.864-4.47-7.808-8.08-8.25-14.812C154 102 154 102 155 101"/><path fill="#1d345c" d="M58 101c4.472 1.418 8.711 3.113 13 5a932 932 0 0 1-1.375 4.25l-.773 2.39c-.804 2.226-1.75 4.27-2.852 6.36-4.277-1.527-6-4-8-8-.321-3.363-.24-6.634 0-10"/><path fill="#2d0609" d="M114 160h1l.262 1.836.425 2.539.387 2.46c2.601 8.891 7.886 16.348 13.239 23.79l1.955 2.754A1464 1464 0 0 0 136 200l-2 3-1.328-2.098c-4.49-6.926-9.297-13.355-14.634-19.648-3.54-4.271-6.023-8.009-6.05-13.774l.325-2.292.3-2.333C113 161 113 161 114 160"/><path fill="#190b0c" d="M154 89c6.279 1.988 12.335 4.305 18.383 6.906l2.601 1.11q4.072 1.737 8.141 3.484l5.48 2.34a10360 10360 0 0 1 18.465 7.904L210 112c-4.04 1.676-7.175.148-11-1.375l-2.102-.808c-6.595-2.588-13-5.578-19.428-8.549-7.633-3.467-15.403-6.026-23.47-8.268z"/><path fill="#e2212e" d="M63 179c2.25-.375 2.25-.375 5 0 3.086 3.337 4.242 5.907 4.25 10.375L72 193l-5 1c-3.293-4.356-4.676-7.388-5-13z"/><path fill="#f03044" d="m191 112 1 2c1.934.468 1.934.468 4.254.633l2.588.254 2.72.238 2.733.262q3.352.32 6.705.613c-1.875 5.75-1.875 5.75-3 8-4.333-.645-7.867-2.19-11.812-4.062l-3.52-1.66L190 117z"/><path fill="#f12e42" d="m95 114 15.625 1.563 2.54.253L115 116c-1.125 2.972-2.223 5.334-4 8a95.5 95.5 0 0 1-17-7z"/><path fill="#e2212e" d="M160 179c2.894.228 4.56.636 6.813 2.5 1.788 3.765 1.423 7.401 1.187 11.5l-5 1c-3.223-4.936-4.608-7.92-4-14z"/><path fill="#660f17" d="M25 184c3.648.604 3.965.956 6.458 4.111q1.372 2.056 2.71 4.135l1.455 2.201c1.533 2.323 3.049 4.657 4.565 6.99q1.548 2.355 3.1 4.706c7.43 11.294 7.43 11.294 8.712 13.857l-2 2-1.234-1.905C38.36 204.023 38.36 204.023 27.539 188.23 26 186 26 186 25 184"/><path fill="#210e12" d="m165 123 13 7-2 5-4-1v-2l-2.812-.375C166 131 166 131 163 129c.875-4.875.875-4.875 2-6"/><path fill="#1c0d11" d="M68 124c3.297.658 5.841 1.894 8.75 3.563l2.422 1.378c.603.35 1.206.7 1.828 1.059l-1 5c-4.972-1.492-9.418-3.605-14-6z"/><path fill="#d1ddee" d="M205 78c2.875.313 2.875.313 6 1 2 3 2 3 2 6-2.741-.37-4.586-.686-6.812-2.375C205 81 205 81 205 78m-96 0c2.741.37 4.586.686 6.813 2.375C117 82 117 82 117 85c-2.741-.37-4.586-.686-6.812-2.375C109 81 109 81 109 78"/><path fill="#560c11" d="M125 189c1.766.152 1.766.152 4 1 1.922 2.504 1.922 2.504 3.75 5.563l1.86 3.066L136 201l-2 2a5565 5565 0 0 1-3.937-5.875l-2.215-3.305C126 191 126 191 125 189"/><path fill="#410b0f" d="M43 208c3.904 3.47 6.366 7.552 9 12l-2 2a771 771 0 0 1-3.5-5.312l-1.969-2.989C43 211 43 211 43 208"/><path fill="#13090a" d="m154 89 9 3-1 3-8-2z"/><path fill="#38090c" d="M135 201c2.964 2.808 5.445 5.183 7 9l-2 2a397 397 0 0 1-2.5-3.812l-1.406-2.145C135 204 135 204 135 201"/><path fill="#e52331" d="m167 169 4 1 1 5-3 1c-1.46-2.647-2-3.894-2-7"/><path fill="#560e13" d="M25 184c1.828.215 1.828.215 4 1 1.484 2.066 1.484 2.066 2.75 4.563l1.297 2.503L34 194c-3.662-1.22-4.163-2.368-6.187-5.562l-1.606-2.504z"/><path fill="#230c0e" d="M199 108q2.19.676 4.375 1.375l2.46.773C208 111 208 111 210 113c-4.571-.549-8.674-1.417-13-3z"/><path fill="#e3222f" d="M71 169h3l1 7-3-1z"/></svg>