<svg xmlns="http://www.w3.org/2000/svg" width="256" height="256"><path fill="#e1222f" d="M196.902 45.18c7.878 6.657 13.018 14.725 16.942 24.195 1.238 2.812 2.622 5.518 4.03 8.247C225.396 92.24 230.57 106.37 230 123l3 1c1.316 1.418 1.316 1.418 2.563 3.188l1.253 1.73c7.492 13.179 2.94 32.288-.816 46.082-5.83 20.04-13.306 42.299-31.812 53.938-8.693 4.647-16.99 6.289-26.75 6.437l-2.095.043c-2.89-.029-4.883-.105-7.308-1.754C167 232 167 232 167 229l-3.062-.125c-4.723-.69-7.983-3.203-10.938-6.875-10.348-19.997 1.828-51.173 8-71 3.476-10.88 7.265-21.654 11.688-32.187l.79-1.944c2.102-4.794 4.863-7.54 9.522-9.869 4.163-.283 8.201-.136 12.313.563 2.737.445 4.069.113 6.687-.563 2.75.438 2.75.438 5 1 .54-7.148-1.202-12.457-4-19l-.957-2.562c-1.628-3.708-2.865-5.888-6.61-7.637a199 199 0 0 0-6.206-1.805c-8.682-2.68-16.23-8.633-23.79-13.558C150.215 53.529 138.279 47.48 119.75 51c-11.294 2.877-20.876 9.35-30.5 15.688-14.788 9.736-14.788 9.736-22.305 10.707-5.81.687-5.81.687-10.234 4.231-4.158 6.784-7.908 14.541-7.773 22.624L49 108l3.875-.562c3.875-.563 3.875-.563 6.125.562l2.063-.437c5.066-.97 9.933-1.41 14.75.624 6.064 5.026 8.238 11.312 10.937 18.5l1.317 3.48c8.47 22.727 15.517 46.057 18.37 70.208l.283 2.25c.792 7.972-.583 15.064-5.72 21.375-3.786 3.786-6.698 4.584-12 5l-.375 2.438L88 234c-7.057 3.529-19.923 1.206-27.129-.906-15.819-6.026-24.865-17.422-31.72-32.378-7.458-17.594-13.227-36.084-13.526-55.279l-.043-2.238c.075-8.116 3.43-13.93 8.418-20.199h2l-.14-1.844C25.157 104.13 32.256 83.162 43 70l3-1 .285-2.172C49.537 53.963 64.277 43.628 75 37c40.762-24.037 84.375-20.003 121.902 8.18"/><path fill="#f63043" d="M44 69c3.409.496 5.795 1.973 8.625 3.875l2.352 1.555C57 76 57 76 59 79l-1.68 2.816-2.195 3.746-1.105 1.846c-3.114 5.35-5.366 10.717-5.145 17.03L49 108l3.875-.562c3.875-.563 3.875-.563 6.125.562l2.063-.437c5.066-.97 9.933-1.41 14.75.624 6.064 5.026 8.238 11.312 10.937 18.5l1.317 3.48c8.47 22.727 15.517 46.057 18.37 70.208l.283 2.25c.792 7.972-.583 15.064-5.72 21.375-3.786 3.786-6.698 4.584-12 5l-.375 2.438L88 234c-7.057 3.529-19.923 1.206-27.129-.906-15.819-6.026-24.865-17.422-31.72-32.378-7.458-17.594-13.227-36.084-13.526-55.279l-.043-2.238c.075-8.116 3.43-13.93 8.418-20.199h2l-.14-1.844C25.123 103.303 32.746 84.291 43 70z"/><path fill="#cfdbed" d="M196.902 45.18C204.676 51.749 210.973 59.865 213 70l-2.176.281c-3.299.84-5.282 2.204-8.012 4.219-4.721 3.455-4.721 3.455-6.812 4.5-11.445-1.824-21.08-9.381-30.562-15.562C150.214 53.529 138.278 47.48 119.75 51c-11.294 2.877-20.876 9.35-30.5 15.688C83.066 70.757 77.036 74.55 70 77l-2.797.98c-4.156 1.131-6.845 1.733-10.754-.32C54.156 75.885 52.09 74.007 50 72a160 160 0 0 0-4-3c1.511-11.51 12.725-20.015 21.262-26.797 40.698-30.126 89.993-26.799 129.64 2.977"/><path fill="#c6d1e2" d="M75.813 108.188c6.064 5.025 8.238 11.311 10.937 18.5.435 1.148.87 2.296 1.317 3.48 8.47 22.726 15.517 46.056 18.37 70.207l.283 2.25c.792 7.972-.583 15.064-5.72 21.375-2.966 3.049-5.025 4.178-9.172 4.605L88 229c-14.816-39.623-26.63-77.624-30-120 6.154-2.118 11.623-3.426 17.813-.812"/><path fill="#d0daec" d="m187.25 106.813 2.266-.043c3.033.28 5.632 1.187 8.484 2.23-.15 11.75-1.287 23.159-3.25 34.75l-.583 3.544c-1.488 8.406-3.78 16.414-6.445 24.503a831 831 0 0 0-2.246 6.976c-1.348 4.237-2.71 8.47-4.078 12.7q-.836 2.591-1.666 5.184c-3.51 10.968-7.278 21.72-11.732 32.343-8.912-.986-8.912-.986-11.812-3.625l-1.645-1.414c-6.445-8.19-5.381-18.721-4.25-28.492 3.678-26.223 12.165-52.292 22.394-76.656l.792-1.944c2.726-6.22 6.94-9.998 13.771-10.056"/><path fill="#f62e42" d="M236 128c7.788 13.143 4.292 30.208.732 44.313-5.719 20.997-13.46 44.938-33.044 56.75-6.66 3.7-6.66 3.7-9.688 3.937-1.668-1.11-1.668-1.11-3.187-2.75l-1.543-1.61c-3.344-4.32-3.07-10.19-2.617-15.394 3.829-24.8 18.617-66.762 38.831-83.152 3.47-2.505 6.31-2.172 10.516-2.094"/><path fill="#e2212e" d="M44 69c3.409.496 5.795 1.973 8.625 3.875l2.352 1.555C57 76 57 76 59 79l-1.68 2.816-2.195 3.746-1.105 1.846c-3.114 5.35-5.366 10.717-5.145 17.03L49 108l3.938-.562c2.214-.317 2.214-.317 4.062-.438 1 1 1 1 1.098 3.066l-.035 2.496-.028 2.504L58 117l-1.687.629c-10.75 4.34-15.85 10.429-20.868 20.676-6.559 16.77-5.572 38.25 1.4 54.689C42.505 205.79 48.819 217.866 62 224c7.738 2.58 16.296 1.054 24-1 3.05 5.246 3.05 5.246 2.813 8.813C88 234 88 234 86 235c-15.986.992-29.857-1.337-42.437-12.082-18.514-18.867-27.538-51.759-27.938-77.48l-.043-2.239c.075-8.116 3.43-13.93 8.418-20.199h2l-.14-1.844C25.123 103.303 32.746 84.291 43 70z"/><path fill="#a5c0dd" d="M128.875 35.688c.881.005 1.763.01 2.67.017 6.58.122 12.286.913 18.455 3.295 1.167.425 2.333.85 3.535 1.29 16.212 6.074 30.53 14.97 44.153 25.585l1.857 1.444c4.33 3.431 4.33 3.431 5.455 5.681-6.867 6.02-6.867 6.02-11.402 5.977-10.282-2.833-19.322-9.779-28.16-15.54C150.214 53.53 138.278 47.482 119.75 51c-11.294 2.877-20.876 9.35-30.5 15.688C70.136 79.265 70.136 79.265 59 79c-2.782-1.327-3.941-2.608-6-5v-1l3.688-.875c6.484-2.161 11.398-6.508 16.623-10.753 16.65-13.518 33.29-25.835 55.564-25.684"/><path fill="#eef4fb" d="M182 109c3.528 7.057.385 17.57-1.187 24.875l-.688 3.297Q179.083 142.09 178 147l-.615 2.81c-2.707 12.223-6.033 24.227-9.627 36.217a350 350 0 0 0-3.328 11.914l-.764 2.87a307 307 0 0 0-1.361 5.328c-1.52 5.657-3.783 10-8.305 13.861h-2c-10.63-22.152 5.727-59.924 13-81.062 2.4-6.816 4.957-13.55 7.813-20.188l.841-1.969C177.131 109 177.131 109 182 109"/><path fill="#eef4fa" d="M75 110c5.945 3.517 7.474 9.037 9.813 15.188l1.303 3.356C93.3 147.33 99.001 166.292 103 186l.746 3.438c1.464 7.43 3.749 20.573.254 27.562-3.654-.544-3.654-.544-5.17-2.54-.31-.664-.622-1.327-.943-2.01l-1.083-2.275-1.117-2.488-1.184-2.584C84.512 182.844 78.109 159.175 75 135l-.398-2.906c-.839-6.979-.934-14.078-.602-21.094z"/><path fill="#1a3661" d="M211.012 69.156c6.818 2.894 9.89 13.655 12.507 20.114 4.066 10.487 7.465 21.362 6.481 32.73-3.816-.449-6.04-1.656-9.113-3.898-3.28-1.915-6.961-2.825-10.594-3.88C208 113 208 113 207.164 110.599 207 108 207 108 207.188 104.375 207.277 94.833 201.64 85.997 197 78q2.154-1.689 4.313-3.375l2.425-1.898c4.917-3.754 4.917-3.754 7.274-3.57"/><path fill="#193661" d="M44 69c3.409.496 5.795 1.973 8.625 3.875l2.352 1.555C57 76 57 76 59 79l-1.68 2.816-2.195 3.746-1.105 1.846c-3.587 6.163-5.307 11.826-5.145 19.03l.055 3.183L49 112l-1.687.734C37.876 116.84 37.876 116.84 29 122h-3c-1.547-17.871 6.805-37.789 17-52z"/><path fill="#095ba3" d="M213 71c7.515 6.301 11.32 19.06 14 28.188l.628 2.139c1.001 3.632 1.606 6.904 1.372 10.673-6.832-1.215-11.565-7.047-15.375-12.5-4.567-7.384-5.672-14.909-4.625-23.5 2-3.25 2-3.25 4-5"/><path fill="#a8c2de" d="M81 127c6.478 5.244 7.427 15.324 9.188 22.938a6317 6317 0 0 0 2.306 9.773 923 923 0 0 0 3.74 15.137l.56 2.199c.724 2.852 1.45 5.704 2.187 8.554q.763 2.964 1.515 5.93l.88 3.424c.572 2.79.751 5.21.624 8.045-3-1-3-1-4.36-3.316C87.84 176.808 81.777 151.907 81 127m93 0h1c-.443 24.79-6.16 54.553-19 76h-2c.566-6.086 1.533-11.773 3.11-17.672l.627-2.415c.665-2.556 1.339-5.11 2.013-7.663q1.375-5.256 2.742-10.516l.673-2.58c1.897-7.314 3.662-14.656 5.213-22.051 1.113-4.995 2.893-8.764 5.622-13.103"/><path fill="#095ca3" d="m51 72 8 6-1.68 3.035-2.195 4.028-1.105 1.99c-3.214 5.93-5.333 11.531-5.145 18.385l.055 2.62L49 110c-3.563.18-4.698.206-7.75-1.875-3.348-3.162-3.474-5.121-3.625-9.625C37.757 87.428 44.047 80.109 51 72"/><path fill="#e2212e" d="M213 177c2.438.375 2.438.375 5 1 1.841 3.683 1.37 7.972 1 12-1.5 3.625-1.5 3.625-3 6h-4c-1.41-2.82-1.17-5.233-1.187-8.375l-.043-3.46c.218-3.004.66-4.644 2.23-7.165"/><path fill="#e3212f" d="M49 182c3.007.322 4.008 1.008 6.188 3.188 1.96 3.043 2.48 5.239 2.812 8.812l-4 2c-3.33-2.818-4.853-4.379-5.875-8.687C48 184 48 184 49 182"/><path fill="#a8c2de" d="M177 41c3.532.196 4.979.983 7.75 3.25 2.268 2.772 2.95 4.24 3.25 7.75-4.409-.504-6.826-1.911-10-5-1.312-2.75-1.312-2.75-2-5z"/><path fill="#e3222f" d="m222 157 4 1-1 9h-4q-.04-2.22-.062-4.437l-.036-2.497C221 158 221 158 222 157"/><path fill="#e42230" d="m51 169 4 2-1 4-3-2z"/></svg>