<svg xmlns="http://www.w3.org/2000/svg" width="256" height="256"><path fill="#722335" d="M191.246 34.188c13.399 13.683 21.67 30.57 22.191 49.875C212.432 111.043 198.164 133.07 181 153l-2.473 2.992c-11.46 13.854-23.763 27.454-37.418 39.176-2.285 1.985-4.506 4.032-6.734 6.082-5.65 5.097-11.607 9.755-17.63 14.399a603 603 0 0 0-4.862 3.816c-6.451 5.064-13.065 9.825-19.82 14.472l-2.44 1.686c-7.258 4.944-13.41 9.134-22.498 7.815-8.512-2.437-15.23-9.445-19.57-16.93-4.104-7.902-5.827-15.124-3.742-23.946 4.258-8.713 15.651-14.39 23.433-19.89C77.65 175.297 87.664 167.706 97 159a592 592 0 0 1 3.813-3.312c10.34-9.05 20.096-18.38 29.187-28.688l2.621-2.96C142.656 112.36 154.736 98.127 155 82c-1.135-3.845-2.138-6.19-5.062-8.937-5.737-2.075-11.165-2.02-16.75.457-4.994 2.637-8.554 6.517-12.375 10.605a580 580 0 0 1-4.106 4.32c-.593.635-1.186 1.27-1.798 1.923-4.725 4.04-9.831 4.065-15.784 3.94C90.435 93.45 83.167 89.039 77 83c-4.904-6.192-7.474-11.295-7.324-19.266C70.904 53.372 79.284 45.394 86 38l2.223-2.512C98.716 24.25 113.78 15.586 129 13l2.336-.406c22.513-2.975 43.91 5.978 59.91 21.594"/><path fill="#732537" d="M174 27.313c5.415 3.77 10.294 8.07 15 12.687l1.898 1.824c11.422 11.913 16.64 27.32 16.52 43.51C206.238 125.102 169.717 159.976 143 186a155 155 0 0 1-3.812 3.375 356 356 0 0 0-8.813 7.875C124.174 202.837 117.62 207.925 111 213l-1.9 1.466A607 607 0 0 1 95 225l-2.318 1.682a527 527 0 0 1-7.12 5.006l-2.184 1.568C78.402 236.637 74.08 238.25 68 238c-7.071-2.121-12.86-9.142-16.324-15.387-2.497-5.58-4.067-11.53-2.676-17.613 2.722-4.144 6.006-6.648 10.063-9.437l3.75-2.625 2.035-1.422c14.612-10.29 28.432-21.188 41.64-33.227a523 523 0 0 1 5.305-4.766c9.986-8.943 19.337-18.594 27.737-29.051 1.673-1.675 3.315-2.524 5.47-3.472-.97 2.686-1.725 4.705-3.687 6.813-1.67 2.784-1.56 4.881-1.008 8.039 2.62 8.094 9.912 13.573 17.132 17.46 3.804 1.021 7.645 1.364 11.563 1.688l.84-1.777c1.427-2.734 3.192-5.079 5.039-7.54 1.307-1.802 1.307-1.802 2.121-4.683l-3.312-.5c-9.03-2.261-16.16-9.329-21.688-16.5l1-2 1.145 1.504c5.932 7.321 13.684 13.611 23.234 14.98 3.864-.12 3.864-.12 6.273-3.406q1.182-1.89 2.286-3.828l1.205-1.922c2.08-3.437 2.857-5.23 2.857-9.328l-3.437-.375L183 119l-1-2 2.703-.156c6.429-.39 6.429-.39 11.91-3.301 1.101-2.152 1.747-4.21 2.387-6.543l1.105-3.172C202.04 98.101 203.563 93.054 203 87c-3.696.635-6.946 1.712-10.437 3.063-6.976 2.377-15.792 3.9-22.833 1.003-2.562-1.579-3.95-2.55-5.73-5.066-.639-3.658-.872-7.291-1-11l3.75-1.25c3.655-1.38 5.629-2.801 8.25-5.75q1.987-1.733 4-3.437c4.875-4.252 8.547-8.494 11-14.563-.781-6.187-6.151-10.495-10.734-14.227C174.975 32.584 171.062 29.81 166 28l.14 2.93c.228 8.205-.239 14.695-4.14 22.07l-1.016 2.094C159.183 58.582 157.77 60.7 154 62l-1 1c-2.19-.09-4.378-.247-6.562-.437l-3.63-.31L140 62V52h-1l-.297-3.805C137.6 35.165 137.6 35.165 133 23c-6.988.76-16.817 1.99-22 7-.607 6.384.623 10.423 3.625 16l1.09 2.12c1.989 3.781 4.107 7.147 6.847 10.443 2.174 2.722 2.427 3.308 2.75 7-1.695 4.441-4.174 7.96-8.312 10.437-9.12-.474-17.193-8.748-23.223-14.887-3.2-3.806-4.033-6.39-3.902-11.363l.055-2.703L90 45l-4 3c4.98-11.972 19.99-21.003 31.25-25.875 19.096-7.714 39.203-5.36 56.75 5.188"/><path fill="#fcfafa" d="M191.246 34.188c13.399 13.683 21.67 30.57 22.191 49.875C212.432 111.043 198.164 133.07 181 153l-2.473 2.992c-11.46 13.854-23.763 27.454-37.418 39.176-2.285 1.985-4.506 4.032-6.734 6.082-5.65 5.097-11.607 9.755-17.63 14.399a603 603 0 0 0-4.862 3.816c-6.451 5.064-13.065 9.825-19.82 14.472l-2.44 1.686c-7.258 4.944-13.41 9.134-22.498 7.815-8.512-2.437-15.23-9.445-19.57-16.93-4.104-7.902-5.827-15.124-3.742-23.946 4.258-8.713 15.651-14.39 23.433-19.89C77.65 175.297 87.664 167.706 97 159a592 592 0 0 1 3.813-3.312c10.34-9.05 20.096-18.38 29.187-28.688l2.621-2.96C142.656 112.36 154.736 98.127 155 82c-1.135-3.845-2.138-6.19-5.062-8.937-5.737-2.075-11.165-2.02-16.75.457-4.994 2.637-8.554 6.517-12.375 10.605a580 580 0 0 1-4.106 4.32c-.593.635-1.186 1.27-1.798 1.923-4.725 4.04-9.831 4.065-15.784 3.94C90.435 93.45 83.167 89.039 77 83c-4.904-6.192-7.474-11.295-7.324-19.266C70.904 53.372 79.284 45.394 86 38l2.223-2.512C98.716 24.25 113.78 15.586 129 13l2.336-.406c22.513-2.975 43.91 5.978 59.91 21.594M83 50c-6.96 8.99-6.96 8.99-8 20 3.799 8.206 10.73 14.395 19 17.938 1.971.63 1.971.63 4 1.062l2.148.488c3.915.46 6.083.043 9.364-2.222 3.352-2.978 6.447-6.13 9.476-9.434 6-6.421 13.611-11.98 22.7-12.457 6.18.483 11.545 2.77 15.812 7.25 3.348 5.301 3.013 10.208 2.5 16.375-4.304 18.694-18.821 33.977-31.627 47.526-1.928 2.07-3.77 4.213-5.623 6.349C113.178 153.544 102.278 163.182 91 172l-4.184 3.305c-7.576 5.959-15.216 11.784-23.091 17.341C55.317 197.83 55.317 197.83 49 205c-1.016 8.662.83 15.77 6.059 22.746 4.919 5.715 9.041 9.945 16.879 10.566C79.565 237.095 85.91 231.443 92 227l2.358-1.698c9.456-6.813 18.758-13.754 27.642-21.302l3.21-2.687c12.92-10.88 26.18-22.251 37.165-35.125 1.84-2.14 3.687-4.255 5.61-6.32 21.184-22.809 40.579-49.84 39.39-82.2-1.136-17.733-12.71-32.78-25.312-44.418-13.817-11.5-30.852-17.188-48.788-15.548C112.277 20.455 96.092 34.125 83 50"/><path fill="#eceaeb" d="M204 87c.895 9.626-3.08 19.85-8 28-5.009 3.493-11.318 1.886-17 1-7.4-1.834-14.418-5.78-19-12-.607-5.393.973-9.101 3-14l3.625.5c11.696 1.23 27.898-6.343 37.375-3.5"/><path fill="#fd5570" d="M193 52c6.755 6.166 9.662 15.122 11 24l.625 3.25c-.735 3.234-1.286 3.61-3.937 5.438-7.92 4.276-15.725 5.586-24.625 5.75l-2.225.067c-3.375-.014-5.477-.26-8.295-2.173-1.871-2.828-2.133-4.712-2.293-8.082l-.172-2.984L163 75l2.309-.848C177.78 69.31 184.919 62.564 193 52"/><path fill="#eceaea" d="M133 22c5.68 8.71 6.349 17.718 6.313 27.938l.048 2.822.002 2.705.01 2.425c-.465 2.634-1.304 3.467-3.373 5.11-4.143 2.125-4.143 2.125-6.957 1.715C120.473 61.716 115.873 50.53 112 43c-1.926-4.332-3.373-8.3-2-13 5.475-5.787 15.282-8.26 23-8"/><path fill="#e8e3e4" d="M166 28c9.093 1.149 17.171 9.287 23 16 2 3 2 3 1.938 5.188-3.158 9.472-10.385 17.15-19.063 21.874-2.948 1.324-4.808 1.934-8.062 2.126-3.943-1.665-6.759-4.233-9.813-7.188.564-2.695.955-3.946 2.75-6.125 5.959-7.614 8.265-15.134 8.813-24.625l.13-2.113q.158-2.568.307-5.137"/><path fill="#d3d2d2" d="M122 148c2.415 2.415 3.05 4.497 4.25 7.688 4.3 10.401 9.691 14.426 19.75 19.312-.862 4.552-3.51 7.06-6.687 10.25l-1.569 1.68c-2.658 2.688-4.051 3.956-7.865 4.582-8.558-1.521-14.81-8.92-19.879-15.512-2.845-4.445-3.907-7.739-3-13 3.867-5.93 9.6-10.512 15-15"/><path fill="#d4d3d3" d="m88 179 .375 2.238c2.278 11.208 7.688 19.372 17.156 25.836L107 208c-.194 3.842-.962 4.962-3.766 7.71q-1.726 1.353-3.484 2.665l-1.738 1.402c-2.566 1.958-4.348 3.212-7.625 3.266C81.65 219.225 73.847 209.641 70 201c-.993-4.883-.993-4.883 0-8 2.959-3.488 6.375-6.229 10-9l2.188-1.68C86.69 179 86.69 179 88 179"/><path fill="#fd5570" d="M138 22c16.71-.707 16.71-.707 23 3 3.304 4.2 3.59 10.04 3.414 15.219-1.11 7.456-4.18 16.135-9.39 21.746-4.582 2.344-10.148.896-15.024.035l.048-2.029c.063-3.094.101-6.189.14-9.283l.076-3.19c.06-6.474-.624-11.906-2.712-18.05-.634-2.811-.295-4.689.448-7.448"/><path fill="#fb556f" d="m105 165 .777 2.273C110.027 178.635 116.99 186.29 127 193c-.843 4.697-3.737 6.857-7.25 9.813l-1.738 1.56c-4.257 3.621-4.257 3.621-7.657 3.647-8.189-3.545-14.442-10.553-19.23-17.895-1.508-4.19-2.062-7.734-1.125-12.125 1.602-2.795 3.634-4.835 6-7l1.887-1.766C102.606 165 102.606 165 105 165"/><path fill="#fc556f" d="M105 32c2.698 1.349 2.74 2.567 3.75 5.375 3.035 7.85 6.735 14.948 12.125 21.438 2.077 2.61 3.089 4.057 4 7.312-1.309 4.3-4.017 7.539-7.875 9.875-9.112-.458-17.201-8.756-23.223-14.887-3.264-3.881-4.62-7.467-4.562-12.531C91.306 41.704 99.38 36.042 105 32m33 101 .629 1.688c3.733 9.246 9.396 15.833 18.371 20.312 3.304 1.299 3.304 1.299 6 2-.477 4.658-2.262 6.83-5.437 10.188l-2.434 2.605A327 327 0 0 1 151 174c-8.484-.441-14.67-5.1-20.387-11.008-3.404-4.204-5.164-8.794-6.238-14.054C125.445 143.908 132.278 133 138 133m-70 61 .41 1.8c3.02 11.629 9.25 19.81 18.59 27.2-.347 2.855-.875 3.883-3.004 5.887-5.391 3.794-9.29 6.448-15.996 6.113-6.915-3.319-12.111-9.924-15.305-16.82-1.275-3.998-1.605-8.078-.695-12.18 2.63-4.022 5.62-6.32 9.688-8.812l2.949-1.833C67 194 67 194 68 194"/><path fill="#fa556f" d="M157 104c2.701 1.248 4.292 2.278 6.5 4.375 5.975 5.14 14.808 6.926 22.5 7.625l-3 2 7 1c.773 2.047.773 2.047 1 5-1.363 2.61-2.706 4.856-4.375 7.25-.425.637-.85 1.274-1.29 1.93-3.045 4.53-3.045 4.53-4.335 5.82-6.677.852-11.423-1.417-17-5-12.044-9.434-12.044-9.434-13.562-16.687.87-5.127 3.717-9.028 6.562-13.313"/><path fill="#d3d2d2" d="M148 118c2.189 2.074 3.87 4.198 5.563 6.688 6.093 8.17 13.814 13.2 23.437 16.312-.84 5.912-3.555 10.055-8 14-5.006 1.786-9.471.035-14.125-2.062-7.35-4.064-13.33-9.75-15.875-17.938-.487-6.578 3.244-10.293 7.285-15.059zM85 53l5 5 2.313 2.188C94 62 94 62 94 64c.57.26 1.14.52 1.727.79 2.462 1.31 4.474 2.839 6.648 4.585 3.448 2.73 6.924 5.253 10.625 7.625-.543 3.802-2.157 5.501-5 8-3.275 1.637-6.462 1.523-10 1-7.345-2.723-14.12-6.714-18.375-13.437C77.875 68.727 77.177 67.114 78 63c1.976-3.512 4.134-7.134 7-10"/><path fill="#e9e6e7" d="M94 198c2 0 2 0 4.25 2.188L101 203c1.966 1.712 3.977 3.354 6 5-.194 3.842-.962 4.962-3.766 7.71q-1.726 1.353-3.484 2.665l-1.738 1.402c-2.546 1.943-4.352 3.204-7.602 3.297-3.142-1.4-5.228-3.275-7.722-5.637l-2.676-2.503L78 213c.387-2.337.667-3.674 2.383-5.356l1.742-1.187 1.89-1.314 1.985-1.33 3.875-2.668L93 199z"/><path fill="#e8e4e5" d="M132.89 168.121c2.734 1.139 5.276 2.496 7.86 3.941l2.984 1.66L146 175c-.862 4.552-3.51 7.06-6.687 10.25l-1.569 1.68c-2.643 2.672-4.058 3.952-7.842 4.601-3.17-.58-5.017-1.446-7.652-3.281l-2.297-1.547c-2.038-1.777-2.938-3.22-3.953-5.703q2.622-2.409 5.25-4.812l1.488-1.37A391 391 0 0 1 127 171l2.11-1.887C131 168 131 168 132.89 168.121"/><path fill="#de3e57" d="m105 165 .988 2.45 1.325 3.238 1.3 3.199c1.277 2.867 2.711 5.464 4.387 8.113-5.667 5.279-11.427 9.897-18 14-3.383-5.111-5.94-9.605-5.547-15.871 1.027-3.998 3.57-6.405 6.547-9.129l1.887-1.766C102.606 165 102.606 165 105 165"/><path fill="#dd3e57" d="m138 133 .7 1.723c2.24 5.307 4.797 9.704 8.3 14.277l-1.937 1.875c-4.21 4.197-8.11 8.69-12.063 13.125-4.892-4.363-7.326-8.481-8.562-14.937C125.37 143.983 132.23 133 138 133m-70 61 .55 2.012c1.369 4.804 2.853 8.703 5.45 12.988-1.423 4.27-4.52 5.188-8.312 7.125l-2.053 1.09C60.43 218.888 57.548 220.217 54 221c-2.469-4.629-2.944-9.88-2-15 2.613-4.032 5.622-6.321 9.688-8.812l2.949-1.833C67 194 67 194 68 194"/><path fill="#d3d2d2" d="m163 90 18 2-1.875 7.625-.578 2.366c-1.01 4.073-2.159 8.044-3.547 12.009-6.118-1.255-11.21-5.115-15-10-.9-5.587.862-8.298 3-14"/><path fill="#e9e6e7" d="m162 135 15 6c-.839 5.902-3.548 10.072-8 14-4.84 1.593-9.025.214-13.5-1.875-3.33-1.784-3.33-1.784-4.5-4.125z"/><path fill="#d3d1d1" d="M162 51c6.562 2.763 10.912 6.098 15 12v2l2 1c-9.395 7-9.395 7-14.875 7-4.273-1.367-6.94-3.918-10.125-7 .808-3.91 2.487-5.895 5-9a132 132 0 0 0 3-6"/><path fill="#dd3e57" d="M116 54c7.714 7.714 7.714 7.714 8.625 11.813-.817 4.166-2.7 5.983-5.605 8.964C117 76 117 76 114.62 75.907c-3.117-1.079-5.606-2.547-8.371-4.344l-2.922-1.872C101 68 101 68 100 66z"/><path fill="#e9e6e7" d="m85 53 5 5 2.313 2.188C94 62 94 62 94 64l3 1c-.632 3.458-2.003 5.754-4 8.625-2.155 3.096-2.155 3.096-4 6.375-5.98-1.915-8.208-5.582-11-11-.9-3.601-.49-5.135 1.324-8.332C83.03 54.97 83.03 54.97 85 53"/><path fill="#d63d55" d="M157 104c2.665 1.231 4.226 2.22 6.375 4.313 4.83 4.225 11.628 5.756 17.625 7.687v1c-4.318-.508-8.033-1.197-12-3l-.562 2.375c-2.025 5.104-5.189 9.229-8.438 13.625-4.72-3.671-8.284-6.58-9.562-12.687.87-5.127 3.717-9.028 6.562-13.313"/><path fill="#d4d3d3" d="M139 47c.081 2.104.14 4.208.188 6.313l.105 3.55C139 60 139 60 137.641 61.84c-2.71 1.916-5.197 3.35-8.578 2.906-5.035-1.821-8.464-6.684-11-11.183L117 51c7.492-2.647 13.98-4.16 22-4"/><path fill="#de3f58" d="M141 47c6.484.48 12.192 2 18 5l1 2c-4.763 7.391-4.763 7.391-7 9-4.399.104-8.614-.522-13-1z"/><path fill="#dd3e57" d="M175 72c2.088 6.043 2.234 11.652 2 18-7.85.604-7.85.604-11.5-1.312-2.393-4.289-2.333-8.848-2.5-13.688 1.432-.7 2.87-1.384 4.313-2.062l2.425-1.16C172 71 172 71 175 72"/><path fill="#783142" d="m79 58 1 3-1 2c-.71 4.968.6 8.01 3.309 12.04C86.404 79.786 92.085 83.042 98 85c2.667.24 2.667.24 5.313.125l2.675-.055L108 85l-1 4c-9.668.614-16.572-2.23-24.137-8.234C78.436 76.57 75.3 72.29 74.5 66.187c.453-2.888.845-4.797 2.5-7.187z"/><path fill="#c0a4aa" d="M201 89c1.543 1.23 1.543 1.23 3 3-.074 2.05-.074 2.05-.687 4.313l-.63 2.39c-.83 2.79-1.7 5.557-2.683 8.297l-5 1 .55-1.617c1.944-5.759 3.734-11.553 5.45-17.383"/><path fill="#ff947f" d="M191 65c3.875 1.75 3.875 1.75 5 4a95 95 0 0 1 .063 5.125l-.028 2.758L196 79h-3c-1.336-4.842-2.253-8.934-2-14"/><path fill="#832c3f" d="m196 86 2 2c-8.85 3.63-16.472 4.507-26 4l1-2c2.745-.428 5.425-.752 8.188-1 5.222-.48 9.865-1.106 14.812-3"/><path fill="#ff907e" d="M146 27c1.46.114 2.917.242 4.375.375l2.46.21C155 28 155 28 157 30v3c-4.571-.549-8.674-1.417-13-3z"/><path fill="#b7969d" d="M123 24v2l2 1a618 618 0 0 1-5.25 2.5l-2.953 1.406C114 32 114 32 110 32c1.009-2.61 1.665-3.797 4.094-5.266l2.406-.984 2.406-1.016C121 24 121 24 123 24"/><path fill="#792538" d="m152 122 1.938 2.063c5.961 5.928 12.42 10.463 20.062 13.937v2c-7.878-.997-14.571-7.076-19.687-12.875C152 124 152 124 152 122"/><path fill="#b6949c" d="M82 61c1 2 1 2 .938 4.813C83 69.06 83.63 71.088 85 74c-2.375-.25-2.375-.25-5-1-2.424-3.116-2.174-6.174-2-10z"/><path fill="#802d40" d="m188 54 2 3c-9.783 11.391-9.783 11.391-15 14l-3-1 1.504-1.031C179.118 64.963 184.858 60.284 188 54"/><path fill="#7a293b" d="M70 202c2.205 2.095 3.95 4.26 5.688 6.75 3.241 4.41 7.08 7.812 11.312 11.25l-2 2c-6.514-5.183-11.406-10.418-15-18z"/><path fill="#7d283b" d="m129 161 1.25 1.137c5.455 4.833 11.2 8.668 17.75 11.863-2.669 1.042-3.713 1.12-6.402-.004-5.15-3.166-9.172-5.972-12.598-10.996z"/><path fill="#863143" d="M137 29c2 1 2 1 3.188 4.188 1.462 6.2.463 12.547-.188 18.812h-1z"/><path fill="#ff937f" d="M115.188 194.313 117 195c-.312 1.875-.312 1.875-1 4-3 2-3 2-7 2 .407-2.36.898-3.86 2.313-5.812C113 194 113 194 115.187 194.313"/><path fill="#ff8e7e" d="M106 43c-1.491 3.796-3.657 5.717-7 8h-3c.973-3.272 1.658-4.745 4.438-6.812C103 43 103 43 106 43"/><path fill="#ff927e" d="M179 123h2c.373 3.353.31 4.604-1.812 7.313C177 132 177 132 174 132c.573-3.87 2.39-6.152 5-9"/><path fill="#ff8b7d" d="M153 159c-.37 2.741-.686 4.586-2.375 6.813C149 167 149 167 146 167c.37-2.741.686-4.586 2.375-6.812C150 159 150 159 153 159"/><path fill="#ff927e" d="M73 223h4c-.312 1.875-.312 1.875-1 4-3 2-3 2-7 2 1.152-2.468 2.048-4.048 4-6"/><path fill="#7e3445" d="M90 190c4.05 1.35 4.742 3.442 7 7a257 257 0 0 0 4 5h-3c-2.043-2.371-2.043-2.371-4.187-5.437l-2.168-3.06C90 191 90 191 90 190"/><path fill="#e0d7da" d="M178 35c4.274 1.583 6.265 4.506 9 8-3.59 0-4.109-.664-6.687-3l-1.887-1.687L177 37z"/><path fill="#742a3c" d="m99 217 2 1c-1.804 3.265-2.834 4.89-6 7l-3-1z"/><path fill="#bea1a8" d="m97 214 2 1c-.812 2.438-.812 2.438-2 5l-3 1v-2l-2-1z"/><path fill="#822f41" d="M129 161a271 271 0 0 1 3.5 2.813l1.969 1.582C136 167 136 167 136 170c-3.739-2.657-5.65-4.581-7-9"/><path fill="#752d3e" d="m175 148 1 2c-2.363 2.526-3.665 3.888-7 5 1.393-3.367 2.979-4.986 6-7"/><path fill="#7e3445" d="M165 135c3.147.7 6.026 1.76 9 3v2c-4.314-.48-6.166-1.746-9-5"/></svg>