<svg xmlns="http://www.w3.org/2000/svg" width="256" height="256"><path fill="#feb2ba" d="M190 10c4.625 3.02 4.625 3.02 5.648 5.694.48 3.14.181 6.038-.078 9.204-1.665 15.573-1.665 15.573 3.133 29.696 3.018 3.008 6.47 5.367 10.003 7.73 4.376 3.197 8.024 7.178 11.794 11.051l2.244 2.238a228 228 0 0 1 11.652 12.547 144 144 0 0 0 4.448 4.86c15.235 16.02 15.235 16.02 15.11 22.324-1.341 3.735-3.314 6.89-5.454 10.219l-1.348 2.126C241.92 135.837 236.063 143.455 230 151l.875 2.125L232 156l1.125 2.688c1.726 6.534 1.663 13.155-1.008 19.425-2.338 3.95-5.764 7.992-10.124 9.65-2.798 1.737-2.933 3.305-3.696 6.464l-.781 3.125-.766 3.273-.812 3.297q-.99 4.034-1.938 8.078l2.036.555 2.694.765 2.661.743c4.195 1.507 7.276 4.048 10.609 6.937l3 2.313c2.463 3.309 2.593 5.38 2.664 9.406-1.003 3.447-2.95 4.995-5.664 7.281-17.82 9.379-41.838 11.231-61.625 11.25l-2.283.003c-37.927-.033-75.914-2.852-113.761-5.188q-3.098-.19-6.195-.375c-3.853-.233-7.705-.478-11.558-.725l-3.423-.205c-16.26-1.076-16.26-1.076-21.842-4.322-1.729-3.21-1.756-5.288-1.188-8.86 2.066-6.086 6.377-11.85 11.648-15.496 2.547-1.923 2.547-1.923 2.532-5.113l-.43-3.469-.41-3.727L23 200q-.297-3.435-.562-6.875L22 188l-2.21.477c-2.506.47-4.872.784-7.415.898l-2.29.148C8 189 8 189 6.333 187.098c-1.834-4.266-2.409-8.454-3.02-13.036l-.392-2.67C1.584 161.954 1.584 161.954 2 158c2.119-2.695 3.787-3.44 7.133-3.95l2.445-.38 2.547-.357 2.477-.393c5.357-.801 10.993-1.638 16.398-.92 3.545 3.545 3.407 8.936 4.188 13.75l.576 3.29.529 3.194.485 2.913c.247 3.169-.031 5.767-.778 8.853-2 2-2 2-12 3l3 25 10-2h5l-.469-1.992c-.654-3.702-.85-7.386-1.031-11.133-.284-5.678-.7-11.328-1.232-16.988-.274-2.95-.524-5.9-.768-8.852l-.25-2.982q-.254-3.03-.5-6.063l-.25-2.955-.219-2.644c-.26-2.207-.686-4.253-1.281-6.391l-2.312-.062C33 149 33 149 31.188 146.25 28.108 137.699 29.39 128.146 33 120c1.815-3.083 3.866-5.944 6-8.812l1.617-2.233c3.972-5.469 3.972-5.469 6.068-7.949 2.138-3.26 1.106-6.602.502-10.256l-.33-2.258C46.587 86.66 46.296 84.83 46 83l-1.941.105C35.183 83.383 29.315 81.072 22.8 75c-5.494-6.102-6.528-12.731-6.246-20.781 1.034-7.475 4.567-13.475 10.574-18.035 7.165-4.533 14.798-5.458 23.105-3.715 7.06 2.298 12.012 6.707 15.703 13.093 3.358 7.384 3.456 15.65.626 23.25C63.926 73.908 59.757 77.857 55 81l-5 1 3 10c9.624-12.351 9.624-12.351 19.188-24.75 7.933-10.324 15.974-20.554 24.246-30.61 3.452-4.208 6.715-8.487 9.71-13.038 4.62-3.987 11.817-3.85 17.61-3.832h2.135q2.214.006 4.43.024c2.241.018 4.483.02 6.726.02 6.415.022 12.618.16 18.955 1.186v-9q2.904-1.472 5.813-2.937l3.269-1.653c8.65-4.18 16.63-1.503 24.918 2.59"/><path fill="#edf6fc" d="M190 10c4.625 3.02 4.625 3.02 5.648 5.694.48 3.14.181 6.038-.078 9.204-1.665 15.573-1.665 15.573 3.133 29.696 3.018 3.008 6.47 5.367 10.003 7.73 4.376 3.197 8.024 7.178 11.794 11.051l2.244 2.238a228 228 0 0 1 11.652 12.547 144 144 0 0 0 4.448 4.86c15.235 16.02 15.235 16.02 15.11 22.324-1.341 3.734-3.314 6.89-5.454 10.219l-1.35 2.128A217 217 0 0 1 229 152c-2.58-1.238-5.04-2.607-7.5-4.062-5.325-3.035-10.39-3.948-16.52-2.442-6.222 2.106-10.48 5.754-14.98 10.504l.5-3.187c.728-5.88.994-11.907.5-17.813l-2-2c-3.442.353-5.069 1.046-8 3-1.99.39-3.99.732-6 1-3.002-7.076-3.349-13.37-3-21l-1.793.43c-2.497.464-4.67.732-7.207.57-6.518-5.547-7.147-12.903-7.852-21.059L155 94l-3 2c-3.437.5-3.437.5-7 0-3.81-4.521-4.88-8.715-5.75-14.375l-.379-2.23A465 465 0 0 1 138 74l-3 2c-2.562-.062-2.562-.062-5-1-2.009-3.849-2.332-7.393-2.562-11.687-.114-4.315-.114-4.315-1.438-8.313l-2.25-.75C116.035 50.743 113.813 42.397 111 35l-3 1c-.913 2.253-1.458 4.517-2.059 6.871C105 45 105 45 103.031 46.266 101 47 101 47 98.937 47.313 95.89 48.394 95.413 50.107 94 53c-.849 3.302-1.426 6.64-2 10-1.896 11.089-1.896 11.089-5 15-3.32 1.162-4.628 1.124-8 0-3.133 4.49-4.303 7.985-5 13.438-.765 5.718-1.696 9.79-5 14.562-3.187 1.063-3.187 1.063-6 1l-1-1-.113 3.184c-.82 18.749-.82 18.749-5.887 23.816-2.375.438-2.375.438-5 0-4-4.108-4-4.108-4-7h-5v14l3-1c-.502 4.394-1.872 6.872-5 10-2.5 1.063-2.5 1.063-5 1-3.147-2.36-4.312-4.204-5-8-.143-2.06-.22-4.124-.25-6.187l-.078-3.231c.78-8.51 4.303-14.64 9.328-21.394l1.617-2.233c3.972-5.469 3.972-5.469 6.068-7.949 2.138-3.26 1.106-6.602.502-10.256l-.33-2.258C46.587 86.66 46.296 84.83 46 83l-1.941.105C35.183 83.383 29.315 81.072 22.8 75c-5.494-6.102-6.528-12.731-6.246-20.781 1.034-7.475 4.567-13.475 10.574-18.035 7.165-4.533 14.798-5.458 23.105-3.715 7.06 2.298 12.012 6.707 15.703 13.093 3.358 7.384 3.456 15.65.626 23.25C63.926 73.908 59.757 77.857 55 81l-5 1 3 10c9.624-12.351 9.624-12.351 19.188-24.75 7.933-10.324 15.974-20.554 24.246-30.61 3.452-4.208 6.715-8.487 9.71-13.038 4.62-3.987 11.817-3.85 17.61-3.832h2.135q2.214.006 4.43.024c2.241.018 4.483.02 6.726.02 6.415.022 12.618.16 18.955 1.186v-9q2.904-1.472 5.813-2.937l3.269-1.653c8.65-4.18 16.63-1.503 24.918 2.59"/><path fill="#ecf6fb" d="M33 152c3.545 3.545 3.407 8.936 4.188 13.75l.576 3.29.529 3.194.485 2.913c.247 3.169-.031 5.767-.778 8.853-2 2-2 2-12 3l3 25 10-2h5l.125-1.687C45.469 204.76 48.01 203.29 51 201c-.393 3.34-.95 4.936-3.062 7.625-2.74 4.77-2.282 8.997-1.938 14.375l3.762-.035 4.926-.028 2.474-.025c4.13-.017 7.789.256 11.838 1.088 3.247.204 6.498.277 9.75.375 6.942.247 13.726.764 20.6 1.767 14.836 2.152 29.495 2.092 44.458 1.923l2.703-.028q2.522-.028 5.044-.074c4.286-.054 8.217.223 12.445 1.037 11.537.66 20.034-.444 29.98-6.23C196 222 196 222 202 222v12l2 1 1-11 5 2c1.068-7.118 1.22-11.559-2-18-.187-2.937-.187-2.937 0-5 2.025 1.933 3.421 3.632 5 6v3l3.938.625c5.588 1.248 9.592 3.885 14.062 7.375l1.898 1.41c2.47 2.08 3.864 3.616 4.641 6.793.269 4.273.111 6.016-2.723 9.418-15.195 12.835-45.412 13.611-64.441 13.629l-2.283.003c-37.927-.033-75.914-2.852-113.761-5.188q-3.098-.19-6.195-.375c-3.853-.233-7.705-.478-11.558-.725l-3.423-.205c-16.26-1.076-16.26-1.076-21.842-4.322-1.729-3.21-1.756-5.288-1.188-8.86 2.066-6.086 6.377-11.85 11.648-15.496 2.547-1.923 2.547-1.923 2.532-5.113l-.43-3.469-.41-3.727L23 200q-.297-3.435-.562-6.875L22 188l-2.21.477c-2.506.47-4.872.784-7.415.898l-2.29.148C8 189 8 189 6.333 187.098c-1.834-4.266-2.409-8.454-3.02-13.036l-.392-2.67C1.584 161.954 1.584 161.954 2 158c2.119-2.695 3.787-3.44 7.133-3.95l2.445-.38 2.547-.357 2.477-.393c5.357-.801 10.993-1.638 16.398-.92"/><path fill="#fdb0b8" d="M185 132c3.297.33 4.623.623 7 3a75.6 75.6 0 0 1-1 20l2.063-2.75c4.53-5.443 10.116-7.868 17.062-8.562 7.666.618 14.621 3.683 19.875 9.312 4.276 6.734 5.131 13.404 3.563 21.164-1.699 5.498-5.103 9.287-9.563 12.836l-2.007.764c-2.798 1.736-2.933 3.304-3.696 6.463l-.781 3.125-.766 3.273-.812 3.297q-.99 4.034-1.938 8.078c-1.982-2.585-3.626-5.04-5-8 .424 3.037.834 5.64 2.125 8.438 1.543 4.517.133 9.07-1.125 13.562l-5-2-1 11-3-1 1-12c-5.937 1.232-11.022 3.25-16.484 5.879-4.8 2.14-8.805 2.256-14.078 2.246l-2.038.012c-3.075-.006-5.46-.157-8.4-1.137-.317-8.072-.317-8.072 2-12a74 74 0 0 1 5.344-4.473c2.036-1.696 2.036-1.696 3.656-5.527l-9 6c1.043-5.217 1.214-5.667 5.063-8.687A79 79 0 0 0 172 201v-2l-7 4c-.192-4.797-.168-8.664 2-13 1.74-1.448 3.506-2.653 5.441-3.824 1.877-1.185 1.877-1.185 2.559-4.176l-2.375 1.5C170 185 170 185 168 185c.299-3.588.77-4.782 3.438-7.312C174 176 174 176 176 176v-3l-7 3c-.12-9.619-.12-9.619 2.59-12.96 1.91-1.54 1.91-1.54 3.816-2.821 1.907-1.222 1.907-1.222 2.594-4.219l-7 4c1.221-6.227 2.993-8.19 8-12v-2l-6 3q.173-2.688.375-5.375l.21-3.023C174 138 174 138 176 136l7-2z"/><path fill="#cc699b" d="m95.157 156.4 2.484.041 2.746.022 2.863.1 2.816.017c5.282.093 10.026.388 14.934 2.42 2.362 3.37 2.242 6.487 2.227 10.513v1.952a943 943 0 0 1-.032 6.363l-.008 4.422c-.008 3.873-.028 7.747-.05 11.62-.02 3.955-.03 7.91-.04 11.864-.02 7.756-.055 15.51-.097 23.266-18.114-.972-18.114-.972-25.5-2l-3.719-.5C91 226 91 226 90 225c-.11-1.937-.15-3.878-.161-5.817l-.03-3.773-.012-4.113-.017-4.197q-.015-4.41-.02-8.817c-.006-3.76-.03-7.521-.058-11.282-.019-2.892-.024-5.785-.026-8.678a569 569 0 0 0-.024-4.158 521 521 0 0 1-.008-5.83l-.011-3.349c.48-3.898 1.469-7.459 5.524-8.585"/><path fill="#81b8e4" d="M57.871 36.184c6.007 4.56 9.54 10.56 10.574 18.035.292 8.33-.835 14.828-6.539 21.074C58.054 78.921 55.366 81.319 50 82l1 3.063c1.052 3.724 1.38 7.055 1 10.937l-3 2q-.755-2.904-1.5-5.812l-.844-3.27C46 86 46 86 46 83l-1.941.105C35.183 83.383 29.315 81.072 22.8 75c-5.494-6.102-6.528-12.731-6.246-20.781 1.034-7.475 4.567-13.475 10.574-18.035 9.605-6.076 21.137-6.076 30.742 0"/><path fill="#76bb4a" d="M225.832 149.063c4.512 3.29 6.694 7.692 8.168 12.937.872 6.328.291 12.442-3 18-2.552 3.126-5.17 6.304-9.007 7.764-2.798 1.736-2.933 3.304-3.696 6.463l-.781 3.125-.766 3.273-.812 3.297q-.99 4.034-1.938 8.078c-1.982-2.585-3.626-5.04-5-8 .424 3.037.834 5.64 2.125 8.438 1.543 4.517.133 9.07-1.125 13.562l-5-2-1 11-3-1 5-45-6-1c-5.695-3.496-10.171-8.526-12-15-1.251-7.937.268-14.49 5-21 9.959-9.877 21.111-9.735 32.832-2.937"/><path fill="#fbd06b" d="M165 18q.755 1.935 1.5 3.875l.844 2.18C168 26 168 26 168 28c3.4-1.133 4.053-2.125 6-5 2.993 1.098 3.846 1.677 5.25 4.625L180 30h4l2-6h3l1 6 5-1c.3 5.013.516 10.02.66 15.04q.088 2.549.245 5.096c.539 8.94.668 15.91-5.203 23.097-2.464 2.707-5.055 5.238-7.702 7.767l-1 2c-9.419-4.403-19.634-12.389-24-22-1.723-6.351-1.664-12.905-1.5-19.437l.055-2.51c.075-2.396.197-4.782.351-7.174l.13-2.182C157.537 23.355 158.92 18 165 18"/><path fill="#72410b" d="M33 152c3.545 3.545 3.407 8.936 4.188 13.75l.576 3.29.529 3.194.485 2.913c.247 3.169-.031 5.767-.778 8.853-2.495 2.495-3.673 2.36-7.125 2.625l-2.758.227L26 187c.08.571.16 1.142.244 1.73C28.342 203.79 29.878 218.837 31 234h-3q-1.048-6.933-2.081-13.867-.352-2.351-.707-4.701C23.83 206.3 22.593 197.224 22 188l-2.353.483c-2.457.48-4.773.78-7.272.892l-2.29.148C8 189 8 189 6.333 187.098c-1.834-4.266-2.409-8.454-3.02-13.036l-.392-2.67C1.584 161.954 1.584 161.954 2 158c2.119-2.695 3.787-3.44 7.133-3.95l2.445-.38 2.547-.357 2.477-.393c5.357-.801 10.993-1.638 16.398-.92"/><path fill="#f9cb6a" d="M145.82 154.574c4.38.856 7.22 2.158 9.93 5.738 2.938 6.317 3.537 11.506 3.438 18.375l-.002 2.588c-.026 3.56-.05 6.319-1.186 9.725h-28l-.187-9.437-.083-2.916c-.08-8.396 1.606-16.111 7.465-22.393 2.84-1.973 5.249-1.97 8.625-1.68"/><path fill="#b6ddf1" d="M56.906 38.86c4.988 2.141 8.474 4.568 10.547 9.683C68.585 53.626 68.607 58.841 68 64l-2 3-.227-1.906C64.746 58.404 62.758 53.864 58 49c-2.582-1.937-2.582-1.937-5-3l-2-1c-7.643-.763-7.643-.763-14.625 1.875-2.41 2.157-3.28 2.972-3.543 6.148l-.02 2.352-.042 2.336c.26 2.58.779 4.141 2.23 6.289 4.045 1.145 6.122 1.43 9.938-.437L47 62l-1-7-4-1 2 3c-.375 2.188-.375 2.188-1 4-2.727.221-4.464.304-6.875-1.062C35 58 35 58 35.063 54.5 36 51 36 51 37.625 49.063 41.072 47.52 43.242 47.499 47 48c4.033 1.802 7.154 3.995 10 7.375 1.33 3.49 1.456 5.913 1 9.625-2.45 4.805-5.068 7.79-10 10-6.167.718-11.839.894-17.625-1.5-4.168-4.387-6.531-8.84-7-14.937.32-5.64 2.828-9.508 6.625-13.563 8.15-7.23 16.39-9.25 26.906-6.14"/><path fill="#face6b" d="M74 155c4.598 1.84 6.576 4.758 9 9 1.035 3.178 1.116 6.092 1.098 9.422l-.008 2.8-.028 3.528L84 191H56l-.312-10.875-.138-3.363c-.1-7.202 1.2-12.838 5.45-18.762 4.23-3.643 7.586-3.699 13-3"/><path fill="#a9d882" d="M221 151c2.444 1.079 4.321 2.261 6.414 3.906 1.677 1.378 1.677 1.378 4.586 1.094 2.836 6.736 3.06 13.678.625 20.563C231 180 231 180 229 181l-.078-2.852c-.38-8.357-.599-13.113-6.797-18.898-5.292-3.113-9.128-3.495-15.125-2.25l-3 1c-.974 2.922-1.196 5.01-1.25 8.063l-.078 2.66L203 171c2.906 2.388 2.906 2.388 6.625 1.688 3.2-.33 3.2-.33 4.375-1.688.04-1.666.043-3.334 0-5h-2l-1 4c-4.875-.875-4.875-.875-6-2-.26-2.999-.437-5.18 1-7.875 2.574-1.448 4.916-1.845 7.86-1.73 4.429 1.252 6.956 4.72 9.14 8.605.99 3.92.378 7.054-1.125 10.813-3.393 3.958-6.63 5.046-11.75 5.625-5.523-.223-10.293-2.487-14.062-6.5-2.48-4.523-2.659-8.906-2.063-13.938 5.003-10.84 16.138-13.193 27-12"/><path fill="#ebf3f8" d="M110 87c7.774.032 12.258 1.755 18 7l-4 3-1.922 1.77C120 100 120 100 117.422 99.637L110 97v15l4.96-.035 6.415-.028 3.273-.025 3.125-.01 2.889-.016C133 112 133 112 135 113c-.595 10.558-.595 10.558-4 15-5.493-5.304-5.493-5.304-7-8l1-6h-15v14h2l-1 11c-6.755.734-11.185-1.724-17-5 0-3 0-3 1.285-4.457 1.879-1.433 3.542-2.603 5.715-3.543 3.938.688 3.938.688 7 2v-14c-1.397.095-2.795.19-4.234.29l-5.516.335-2.79.195-2.694.157-2.476.158c-2.558-.15-4.099-.846-6.29-2.135-.543-6.655.227-10.458 4-16 2.945 2.65 5.094 5.528 7 9l-1 6h14l-.07-4.453q-.029-2.898-.055-5.797c-.017-.968-.034-1.936-.05-2.934l-.02-2.832-.032-2.602c.244-2.561.937-4.177 2.227-6.382"/><path fill="#d1af5e" d="M186 24h3l1 6 5-1c.3 5.013.516 10.02.66 15.04q.088 2.549.245 5.096c.537 8.922.648 15.933-5.154 23.146-6.243 6.964-6.243 6.964-9.751 8.718V31l3-1c1.225-3.008 1.225-3.008 2-6"/><path fill="#f8cc67" d="M32.188 162.938 36 163c1.149 4.749 2.165 9.468 2.813 14.313l.332 2.425c-.193 3.007-1.08 4.094-3.145 6.262-2.48.61-2.48.61-5.187.75l-2.731.172L26 187c.08.571.16 1.142.244 1.73C28.342 203.79 29.878 218.837 31 234h-3q-1.048-6.933-2.081-13.867-.352-2.351-.707-4.701C23.83 206.3 22.593 197.224 22 188h-5l-1-11 9-2v-11c2.75-.917 4.36-1.109 7.188-1.062"/><path fill="#784518" d="M207 190h2l.297 1.941c.758 4.387 1.471 8.088 3.89 11.871C215 207 215 207 214.75 209.938L214 212c-2.011-2.56-3.628-5.046-5-8 .424 3.037.834 5.64 2.125 8.438 1.543 4.517.133 9.07-1.125 13.562l-5-2-1 11-3-1q.79-7.472 1.6-14.941.272-2.538.54-5.075.388-3.664.79-7.328l.234-2.26c.548-4.943 1.54-9.594 2.836-14.396"/><path fill="#714313" d="M110 97c6.295 1.05 9.073 2.141 13 7 1.111 2.726 1.544 5.06 2 8h-15z"/><path fill="#ecf1f7" d="M107 87c.27 8.567.27 8.567-2.742 11.965-3.017 2.26-5.672 3.84-9.258 5.035-3.86-6.916-3.86-6.916-3-11 4.755-4.623 8.407-6.3 15-6"/><path fill="#714313" d="M108 97v15H94c1.132-6.791 1.132-6.791 3.813-9.75l1.519-1.734C102.152 97.953 104.175 97 108 97"/><path fill="#6d3d0c" d="M110 114h15c-2.27 7.945-2.27 7.945-5.25 10.375l-1.703 1.46C116 127 116 127 110 128z"/><path fill="#693906" d="M22 187h4c2.201 15.635 3.835 31.254 5 47h-3q-1.05-6.904-2.081-13.812-.351-2.34-.707-4.68C23.768 206.01 22.557 196.597 22 187"/><path fill="#ecf3f8" d="M122 121c2.933 2.365 3.953 3.844 5.063 7.5-.063 3.5-.063 3.5-2.188 5.813C121.141 136.504 118.368 138 114 138c-.347-3.727-.536-7.286 0-11 2.875-2.562 2.875-2.562 6-4z"/><path fill="#6d3c0b" d="M94 114h14v14c-8.29-1.658-8.29-1.658-11.203-5.648-1.75-2.92-2.797-4.91-2.797-8.352"/><path fill="#ecf2f8" d="M84 116c9.781-.118 9.781-.118 12.656 2.52 1.094 1.855 1.094 1.855 2.344 5.48-1 3-1 3-2.75 4.188-2.764.997-4.342 1.394-7.25.812-3.597-4.096-4.57-7.629-5-13"/><path fill="#e60618" d="M171 211q-.211 3.938-.437 7.875l-.12 2.262c-.33 5.636-.33 5.636-1.443 7.863h-8c-.317-8.072-.317-8.072 2-12 6.057-6 6.057-6 8-6"/><path fill="#6b3b07" d="M38 174c1.316 7.178 1.316 7.178.063 10.438C34.88 186.848 31.95 186.74 28 187c-1.327-3.981-1.07-7.85-1-12 3.674-1.176 7.17-1.074 11-1"/><path fill="#6c3b07" d="m28.438 151.813 2.433-.043C33 152 33 152 35 154c.414 2.164.414 2.164.625 4.625l.227 2.477L36 163q-2.718.29-5.437.563l-3.06.316L25 164c-1.656-1.656-1.4-3.729-1.625-6-.095-.907-.19-1.815-.29-2.75-.027-.743-.056-1.485-.085-2.25 1.589-1.589 3.248-1.17 5.438-1.187"/><path fill="#6d3c08" d="M16 177c1.327 3.981 1.07 7.85 1 12-3.05.288-5.958.426-9 0-2.705-2.787-2.97-4.457-3.187-8.312L5 178c3.724-.693 7.21-1.111 11-1"/><path fill="#f8cc67" d="M14 166c1.176 3.674 1.074 7.17 1 11-3.674 1.176-7.17 1.074-11 1l-1-11c3.947-.79 7.043-1.092 11-1"/><path fill="#6d3d08" d="m13 154 1 12-11 1c-1.074-6.738-1.074-6.738-1-9 1.92-2.607 2.823-2.96 6.063-3.687C11 154 11 154 13 154"/><path fill="#edf4fa" d="M131 97c.68 1.222 1.343 2.453 2 3.688l1.125 2.074c.998 2.553 1.027 4.52.875 7.238-3.425-.013-6.665-.186-10-1-2.687-2.875-2.687-2.875-4-6 1-3 1-3 3.875-4.687C128 97 128 97 131 97"/><path fill="#e71324" d="M52 204q.508 3.061 1 6.125l.563 3.445c.407 3.191.515 6.218.437 9.43h-8c-1.867-9.235-1.867-9.235.234-13.512C50.373 204 50.373 204 52 204"/><path fill="#f9cd68" d="m23 153 2 10c-3.904 1.952-6.722 2.506-11 3-.982-4.053-1.082-7.839-1-12 3.537-.808 6.278-1 10-1"/><path fill="#77470f" d="M145 176h10c.073 4.398.074 7.704-1 12h-9z"/><path fill="#76460e" d="M145 158c4.62 1.155 5.34 2.24 8 6 1.478 2.957 1.06 5.742 1 9h-9z"/><path fill="#71410b" d="M71 158c6.194 2.477 6.194 2.477 8 6 .536 3.012.775 5.94 1 9h-9z"/><path fill="#6f3e09" d="M71 176h9v12h-9z"/><path fill="#e70f20" d="M175 185c.168 4.157.078 7.967-1 12-2.664 2.744-5.542 4.407-9 6-.192-4.797-.168-8.664 2-13 5.579-5 5.579-5 8-5"/><path fill="#72410b" d="M134 176h8v12h-8z"/><path fill="#71400a" d="M60 176h8v12h-8z"/><path fill="#e60516" d="M49 180c1.295 3.886 1.71 7.967 1 12-1.42 2.51-2.87 3.972-5 6h-2c-1.708-10.453-1.708-10.453-.023-14.133C46.17 180 46.17 180 49 180"/><path fill="#784810" d="M66 158h2v15h-8c.426-6.173 1.422-10.422 6-15"/><path fill="#e70c1d" d="M46 152h1c2.028 11.485 2.028 11.485-.492 15.2-1.771 1.468-3.49 2.698-5.508 3.8-1.606-9.81-1.606-9.81.813-14.562 1.358-1.514 2.749-3 4.187-4.438"/><path fill="#e70b1c" d="M178 159c.105 4.127.008 7.984-1 12-2.363 2.443-4.853 3.767-8 5-.119-9.546-.119-9.546 2.59-13.066C176.225 159 176.225 159 178 159"/><path fill="#6f3f0a" d="M141 158h1v15h-7c-.458-5.728.442-8.5 4-13z"/><path fill="#8c426b" d="M115 190.75c3 .25 3 .25 5 2.25-.568 5.568-.568 5.568-2 7-2.937.188-2.937.188-6 0-2-2-2-2-2.25-4.5.384-3.837 1.483-4.436 5.25-4.75"/><path fill="#e40c1c" d="M207 207c2.917 2.917 3.947 4.138 5 8a59.6 59.6 0 0 1-2 11l-4-2z"/><path fill="#e71223" d="M178.625 135.875 181 136c.047 3.131-.089 5.992-1 9-2.226 2.039-4.163 2.814-7 4q.173-2.688.375-5.375c.07-.998.14-1.995.21-3.023.573-3.592 1.367-4.552 5.04-4.727"/><path fill="#e70a1a" d="M219 189a772 772 0 0 1-.875 5.75l-.492 3.234c-.565 2.693-1.267 4.652-2.633 7.016l-.875-2.812c-1.012-3.286-1.012-3.286-3.125-6.188-.125-3.187-.125-3.187 0-6 2.763-.597 5.16-1 8-1"/><path fill="#683907" d="M50 82c1.571 4.812 2.503 8.87 2 14l-3 2q-.755-2.904-1.5-5.812l-.844-3.27C46 86 46 86 46 83c2-1 2-1 4-1"/><path fill="#794f23" d="M28 213h1l2 21h-3l-2-17h2z"/><path fill="#e91f2f" d="M49 170c.438 2.125.438 2.125 0 5-2.127 2.276-4.502 4.146-7 6-.355-3.814-.262-5.584 1.813-8.875C46 170 46 170 49 170"/><path fill="#e71222" d="M46 143c-.489 6.357-.489 6.357-2.937 9.438C41 154 41 154 39 154c.489-6.357.489-6.357 2.938-9.437C44 143 44 143 46 143"/><path fill="#e81525" d="M180 149c0 2.688 0 2.688-1 6-2.48 2.03-5.156 3.536-8 5 .866-4.096 1.462-6.475 4.5-9.437C178 149 178 149 180 149"/><path fill="#e70d1e" d="M176 176c.375 2.25.375 2.25 0 5-4.973 4-4.973 4-8 4 .299-3.588.77-4.782 3.438-7.312C174 176 174 176 176 176"/><path fill="#e71021" d="M173 202c-1.326 5.637-5.466 7.932-10 11 .084-2.869.587-4.557 2.555-6.668C170.515 202 170.515 202 173 202"/><path fill="#e52330" d="M208 197c3.336 2.99 5.375 5.808 7 10-.312 2.875-.312 2.875-1 5-3.927-5.049-6.461-8.388-6-15"/><path fill="#f7bdc4" d="m124 108 11 2 1-2v9l-1-4-10-1z"/><path fill="#fdeced" d="M48 193h2c-.633 3.191-1.756 5.512-3.5 8.25l-1.344 2.14L44 205h-1v-7h2l.938-1.937C47 194 47 194 48 193"/><path fill="#fce0e2" d="M209 194c6 6 6 6 6.063 9.563L215 207c-2.506-1.253-2.884-2.335-4.125-4.812l-1.07-2.083C209 198 209 198 209 194"/><path fill="#e71323" d="M49 196h2c.438 2.125.438 2.125 0 5-2.127 2.276-4.502 4.146-7 6 .53-4.508 2.252-7.42 5-11"/><path fill="#e81526" d="M42 126h2c.276 1.934.52 3.873.75 5.813l.422 3.269L45 138l-4 3z"/><path fill="#fdf0f1" d="M50 201c.645 1.766.645 1.766 1 4-.926 1.922-.926 1.922-2.312 3.75l-1.364 1.86L46 212h-2c-.375-2.125-.375-2.125 0-5 1.793-2.24 3.835-4.125 6-6"/><path fill="#f9bac0" d="m99 124 2 1c-1.498 4.662-4.885 5.866-9 8l-3-4 1.934-.586 2.504-.789 2.496-.773c2.244-.66 2.244-.66 3.066-2.852"/><path fill="#fbbdc5" d="M83 107h1l1 6 9 2v2c-6.625.125-6.625.125-10-1l-1 2z"/><path fill="#fdeeef" d="M172 207c-1.362 5.295-4.603 7.237-9 10 .152-2.667.494-4.45 2.332-6.445C169.506 207 169.506 207 172 207"/><path fill="#fce6e8" d="M208 203c3.248 3.1 4.966 5.007 5.125 9.688L213 216c-3.312-1.656-3.77-4.645-5-8-.187-2.937-.187-2.937 0-5"/><path fill="#fdf0f1" d="M47 176h2c-.505 4.379-3.178 6.817-6 10l-2-4z"/><path fill="#fdebec" d="M48 166c-.704 4.75-3.705 7.705-7 11-.312-2.687-.312-2.687 0-6 4.13-5 4.13-5 7-5"/><path fill="#fdedef" d="M45 149c.613 1.836.613 1.836 1 4-1.804 2.613-3.758 4.758-6 7-.875-2.125-.875-2.125-1-5 1.747-2.295 3.8-4.144 6-6"/><path fill="#fdf0f1" d="m172 198 1 3-8 6c.125-2.25.125-2.25 1-5 3.063-2.312 3.063-2.312 6-4"/><path fill="#7c360d" d="m205 211 2 1-1 12c-3-4-3-4-3.11-6.105.999-5.784.999-5.784 2.11-6.895"/><path fill="#6d3b0a" d="M207 190h2c.082 4.161-.018 7.947-1 12h-2c-.143-8.571-.143-8.571 1-12"/><path fill="#fdf0f1" d="M175 182c-.062 1.75-.062 1.75-1 4-2.242 1.595-4.536 2.745-7 4 1.344-4.145 3.122-8 8-8"/><path fill="#8cc0e7" d="m29 35 2 1-10 10c0-4.322 2.15-5.884 5-9z"/><path fill="#fdf0f1" d="M176 173v3c-4.222 3-4.222 3-7 3 .313-1.875.313-1.875 1-4 3-2 3-2 6-2"/><path fill="#fdecee" d="M178 156c-.125 1.75-.125 1.75-1 4-3.062 2.25-3.062 2.25-6 4 .34-3.151.58-4.608 2.938-6.812C176 156 176 156 178 156"/><path fill="#fdeff0" d="m179 145 1 3-7 5c.188-2.312.188-2.312 1-5 2.563-1.812 2.563-1.812 5-3"/><path fill="#fbe2e4" d="M45 139c-.312 2.375-.312 2.375-1 5l-3 2c-.687-1.812-.687-1.812-1-4 1.616-2.154 2.255-3 5-3"/><path fill="#8ec2e6" d="M56 37c3.293.319 4.865 1.545 7 4l-1 2-8-4z"/><path fill="#704111" d="M28 226h2l1 8h-3z"/><path fill="#ec3746" d="m168 204 2 1c-2.21 2.82-4.4 5.53-7 8 .48-4.314 1.746-6.166 5-9"/><path fill="#744718" d="M203 227h1v8l-3-1z"/></svg>