<?xml version="1.0" encoding="UTF-8"?>
<svg version="1.1" xmlns="http://www.w3.org/2000/svg" width="256" height="256">
<path d="M0 0 C3.96297248 0.71333505 5.41793354 1.56277771 8.125 4.5625 C11.04266986 9.78952245 11.23835832 14.49095053 10.6953125 20.37890625 C10.59234863 21.5397876 10.48938477 22.70066895 10.38330078 23.89672852 C10.25544189 25.2162854 10.25544189 25.2162854 10.125 26.5625 C11.16950317 26.95236084 11.16950317 26.95236084 12.23510742 27.35009766 C26.51067992 32.71870891 40.50431032 38.44878826 54.25 45.0625 C54.88545746 45.365047 55.52091492 45.66759399 56.17562866 45.97930908 C57.97867586 46.8407744 59.77467404 47.71694661 61.5703125 48.59375 C62.59656738 49.09455078 63.62282227 49.59535156 64.68017578 50.11132812 C67.125 51.5625 67.125 51.5625 69.125 54.5625 C69.75549843 60.45192852 68.32799354 64.14874721 65.625 69.1875 C65.2655127 69.87755127 64.90602539 70.56760254 64.53564453 71.27856445 C53.95570302 91.31228479 53.95570302 91.31228479 47.125 95.5625 C46.29589111 95.67770996 45.46678223 95.79291992 44.61254883 95.91162109 C42.02046535 96.32620321 42.02046535 96.32620321 40.67456055 98.36572266 C40.29082275 99.1447998 39.90708496 99.92387695 39.51171875 100.7265625 C39.07230957 101.59394043 38.63290039 102.46131836 38.18017578 103.35498047 C37.72884277 104.28971191 37.27750977 105.22444336 36.8125 106.1875 C35.84596304 108.12024749 34.87850989 110.05253707 33.91015625 111.984375 C33.20270264 113.41426758 33.20270264 113.41426758 32.48095703 114.87304688 C30.98303469 117.84407902 29.38354277 120.74290217 27.75341797 123.64257812 C19.93852701 137.62191592 14.2877067 153.83143266 17.87890625 169.9453125 C19.19908355 174.24236019 20.70784371 178.44632505 22.28125 182.65625 C25.11920117 190.52142896 26.72571281 197.66620201 24.0625 205.8125 C18.77721398 213.31419629 12.79603099 217.67215634 4.125 220.5625 C-3.11574799 221.27604706 -8.91797983 220.90836625 -14.875 216.5625 C-21.18642225 210.43717001 -25.7460806 203.37200401 -30.25 195.875 C-36.55683688 185.58876561 -42.92653943 175.46684061 -50.671875 166.18359375 C-59.33347158 155.71611609 -59.33347158 155.71611609 -59.30078125 148.94921875 C-57.81413343 140.6158076 -52.27600945 134.32524295 -47.25390625 127.7890625 C-38.3645653 115.95826281 -31.86576094 102.28949079 -25.19628906 89.14550781 C-24.07013128 86.94396506 -22.91489454 84.76283943 -21.7421875 82.5859375 C-21.18789062 81.50570312 -20.63359375 80.42546875 -20.0625 79.3125 C-19.60230469 78.44109375 -19.14210937 77.5696875 -18.66796875 76.671875 C-17.83931545 73.42257437 -18.06441186 71.74761881 -18.55859375 68.484375 C-19.3765474 61.40301147 -16.79574847 56.33089648 -13.75 50.0625 C-13.26273438 49.01191406 -12.77546875 47.96132812 -12.2734375 46.87890625 C-10.3409305 42.72093242 -8.37700615 38.58097703 -6.34985352 34.46826172 C-5.88248779 33.49646973 -5.41512207 32.52467773 -4.93359375 31.5234375 C-4.29635376 30.22865479 -4.29635376 30.22865479 -3.64624023 28.90771484 C-2.76542966 26.2293146 -2.92798525 25.21891259 -4.0625 22.6875 C-4.53623047 21.75357422 -4.53623047 21.75357422 -5.01953125 20.80078125 C-6.83340821 16.05488399 -6.52521536 10.5411098 -5.875 5.5625 C-3.59111722 0.70260989 -3.59111722 0.70260989 0 0 Z M0.125 6.5625 C-1.3947276 12.9177245 -0.0413492 17.47958727 2.125 23.5625 C2.785 23.5625 3.445 23.5625 4.125 23.5625 C5.76848093 18.6320572 5.93764925 14.29861431 3.75 9.625 C2.28578274 7.46547594 2.28578274 7.46547594 0.125 6.5625 Z " fill="#F62F42" transform="translate(170.875,17.4375)"/>
<path d="M0 0 C4.15874494 0.74857409 5.51381126 2.29851407 8.125 5.5625 C10.11975719 9.54513591 10.34156045 12.76207848 10.25 17.1875 C10.23195313 18.31414063 10.21390625 19.44078125 10.1953125 20.6015625 C10.17210938 21.57867187 10.14890625 22.55578125 10.125 23.5625 C10.125 24.5525 10.125 25.5425 10.125 26.5625 C10.97392822 26.89870361 11.82285645 27.23490723 12.69750977 27.58129883 C27.04803081 33.28452486 41.39518866 38.99045976 55.375 45.5625 C56.31287354 45.99409424 57.25074707 46.42568848 58.21704102 46.87036133 C66.88860594 51.03709084 66.88860594 51.03709084 69.125 55.5625 C69.18785605 62.23222522 66.72620742 67.11851043 63.5625 72.875 C63.11575928 73.70443115 62.66901855 74.5338623 62.20874023 75.38842773 C53.45612845 91.3417477 53.45612845 91.3417477 47.125 95.5625 C45.88907104 95.72383423 45.88907104 95.72383423 44.62817383 95.88842773 C41.96978038 96.33787301 41.96978038 96.33787301 40.4909668 98.62524414 C40.02343994 99.52364014 39.55591309 100.42203613 39.07421875 101.34765625 C38.5443335 102.34555176 38.01444824 103.34344727 37.46850586 104.37158203 C36.64878296 105.98202393 36.64878296 105.98202393 35.8125 107.625 C34.95700562 109.26251221 34.95700562 109.26251221 34.08422852 110.93310547 C32.94206819 113.12689396 31.8077484 115.32478384 30.68164062 117.52685547 C29.35892985 120.10630745 28.00980903 122.66772227 26.640625 125.22265625 C19.12116762 139.41586603 13.66476006 155.12646192 17.81347656 171.23583984 C19.42903933 176.44885839 21.37672124 181.5092258 23.38745117 186.57983398 C25.70340967 192.80555359 26.33184168 199.47200305 23.625 205.625 C19.86006442 212.34904284 13.64605025 217.07491361 6.546875 219.90234375 C0.58017254 221.52875136 -5.43101342 221.54412166 -11.125 219 C-18.52309703 214.53107314 -23.18337228 208.03797406 -27.5625 200.75 C-28.60501708 199.06141599 -29.64933559 197.37394304 -30.6953125 195.6875 C-31.22157227 194.83542969 -31.74783203 193.98335937 -32.29003906 193.10546875 C-38.79595351 182.6671439 -45.61295418 172.50602894 -53.39868164 162.9753418 C-57.69259099 157.70153824 -59.54047717 154.14937407 -59.37109375 147.32421875 C-58.40006611 141.91857669 -55.08069404 137.90366349 -51.875 133.5625 C-41.28842033 119.1937366 -33.00954019 104.11833517 -25.1607666 88.10916138 C-24.51353389 86.78967282 -23.86356104 85.47152471 -23.21081543 84.15475464 C-22.29269319 82.29692282 -21.38853297 80.43295052 -20.48828125 78.56640625 C-19.96016846 77.48174072 -19.43205566 76.3970752 -18.88793945 75.27954102 C-17.53806181 72.527142 -17.53806181 72.527142 -18.875 69.5625 C-19.24358031 63.70031795 -18.61204335 59.99455779 -16.1015625 54.578125 C-15.81775726 53.95524597 -15.53395203 53.33236694 -15.24154663 52.69061279 C-14.34165546 50.72444793 -13.42130687 48.76870614 -12.5 46.8125 C-11.88925711 45.48630617 -11.27987004 44.15948708 -10.671875 42.83203125 C-6.43638462 33.61796676 -6.43638462 33.61796676 -4.66943359 30.29589844 C-3.29393642 27.29465998 -4.56777216 24.65294246 -5.4296875 21.59375 C-6.91179121 15.82775748 -7.37564476 10.39386452 -5.875 4.5625 C-3.52291498 0.68926597 -3.52291498 0.68926597 0 0 Z M0.125 6.5625 C-1.79180574 10.39611148 -1.37614041 14.84347186 -0.203125 18.8671875 C0.52074442 20.78612436 1.31709989 22.67739973 2.125 24.5625 C4.57951751 22.10798249 4.80558559 20.12136371 5.1640625 16.734375 C5.09876192 13.10366278 3.86962869 10.72867799 2.125 7.5625 C1.465 7.2325 0.805 6.9025 0.125 6.5625 Z " fill="#F62F43" transform="translate(74.875,17.4375)"/>
<path d="M0 0 C3.96297248 0.71333505 5.41793354 1.56277771 8.125 4.5625 C11.04266986 9.78952245 11.23835832 14.49095053 10.6953125 20.37890625 C10.59234863 21.5397876 10.48938477 22.70066895 10.38330078 23.89672852 C10.29806152 24.77643311 10.21282227 25.6561377 10.125 26.5625 C11.16950317 26.95236084 11.16950317 26.95236084 12.23510742 27.35009766 C26.51067992 32.71870891 40.50431032 38.44878826 54.25 45.0625 C54.88545746 45.365047 55.52091492 45.66759399 56.17562866 45.97930908 C57.97867586 46.8407744 59.77467404 47.71694661 61.5703125 48.59375 C62.59656738 49.09455078 63.62282227 49.59535156 64.68017578 50.11132812 C67.125 51.5625 67.125 51.5625 69.125 54.5625 C69.75549843 60.45192852 68.32799354 64.14874721 65.625 69.1875 C65.2655127 69.87755127 64.90602539 70.56760254 64.53564453 71.27856445 C53.70841539 91.78053797 53.70841539 91.78053797 47.125 95.5625 C42.02396264 95.9536048 38.44341354 95.21760996 33.765625 93.21875 C31.98152222 92.46766968 31.98152222 92.46766968 30.16137695 91.70141602 C28.89911698 91.15542111 27.63699392 90.60910957 26.375 90.0625 C25.07363955 89.50920792 23.77179594 88.95705093 22.46948242 88.40600586 C19.88176213 87.30921294 17.2969382 86.2060018 14.71435547 85.09716797 C11.59965114 83.76544226 8.47794629 82.45469601 5.34765625 81.16015625 C-17.25110267 71.81029465 -17.25110267 71.81029465 -18.875 68.5625 C-18.875 59.39738495 -14.68790248 51.73861024 -10.875 43.625 C-10.21236601 42.18999542 -9.5508975 40.75445206 -8.890625 39.31835938 C-4.62044314 30.05338627 -4.62044314 30.05338627 -2.875 26.5625 C-3.349375 25.469375 -3.82375 24.37625 -4.3125 23.25 C-6.56355258 17.58606126 -6.65852922 11.56187571 -5.875 5.5625 C-3.59111722 0.70260989 -3.59111722 0.70260989 0 0 Z M0.125 6.5625 C-1.3947276 12.9177245 -0.0413492 17.47958727 2.125 23.5625 C2.785 23.5625 3.445 23.5625 4.125 23.5625 C5.76848093 18.6320572 5.93764925 14.29861431 3.75 9.625 C2.28578274 7.46547594 2.28578274 7.46547594 0.125 6.5625 Z " fill="#CAD6E7" transform="translate(170.875,17.4375)"/>
<path d="M0 0 C4.15874494 0.74857409 5.51381126 2.29851407 8.125 5.5625 C10.11975719 9.54513591 10.34156045 12.76207848 10.25 17.1875 C10.23195313 18.31414063 10.21390625 19.44078125 10.1953125 20.6015625 C10.17210938 21.57867187 10.14890625 22.55578125 10.125 23.5625 C10.125 24.5525 10.125 25.5425 10.125 26.5625 C10.97392822 26.89870361 11.82285645 27.23490723 12.69750977 27.58129883 C27.04803081 33.28452486 41.39518866 38.99045976 55.375 45.5625 C56.31287354 45.99409424 57.25074707 46.42568848 58.21704102 46.87036133 C66.88860594 51.03709084 66.88860594 51.03709084 69.125 55.5625 C69.18785605 62.23222522 66.72620742 67.11851043 63.5625 72.875 C63.11575928 73.70443115 62.66901855 74.5338623 62.20874023 75.38842773 C53.45612845 91.3417477 53.45612845 91.3417477 47.125 95.5625 C41.32737129 96.02679583 37.13434211 95.19615028 31.828125 92.78125 C31.16039062 92.49192596 30.49265625 92.20260193 29.8046875 91.9045105 C27.65544267 90.97029336 25.51543762 90.01669912 23.375 89.0625 C21.15476142 88.09055663 18.93245421 87.12346427 16.7098999 86.15682983 C15.24096415 85.51770261 13.77273704 84.87694408 12.30523682 84.23452759 C5.61236116 81.31200045 -1.15925851 78.60916794 -7.99902344 76.04882812 C-12.1599048 74.44431747 -15.89342267 73.00187857 -18.875 69.5625 C-19.34389771 63.71783247 -18.60013331 59.96886153 -16.1015625 54.578125 C-15.81775726 53.95524597 -15.53395203 53.33236694 -15.24154663 52.69061279 C-14.34165546 50.72444793 -13.42130687 48.76870614 -12.5 46.8125 C-11.88925711 45.48630617 -11.27987004 44.15948708 -10.671875 42.83203125 C-6.43638462 33.61796676 -6.43638462 33.61796676 -4.66943359 30.29589844 C-3.29393642 27.29465998 -4.56777216 24.65294246 -5.4296875 21.59375 C-6.91179121 15.82775748 -7.37564476 10.39386452 -5.875 4.5625 C-3.52291498 0.68926597 -3.52291498 0.68926597 0 0 Z M0.125 6.5625 C-1.79180574 10.39611148 -1.37614041 14.84347186 -0.203125 18.8671875 C0.52074442 20.78612436 1.31709989 22.67739973 2.125 24.5625 C4.57951751 22.10798249 4.80558559 20.12136371 5.1640625 16.734375 C5.09876192 13.10366278 3.86962869 10.72867799 2.125 7.5625 C1.465 7.2325 0.805 6.9025 0.125 6.5625 Z " fill="#CDD9EA" transform="translate(74.875,17.4375)"/>
<path d="M0 0 C6.24400556 1.97727713 12.2652087 4.27790596 18.27734375 6.87109375 C19.12873428 7.23469498 19.98012482 7.5982962 20.85731506 7.97291565 C23.55215533 9.12443397 26.24492134 10.28070455 28.9375 11.4375 C31.62686191 12.58987621 34.31666458 13.74120853 37.00697327 14.89137268 C38.67169627 15.60339235 40.33583556 16.31677909 41.99925232 17.03184509 C47.63109556 19.44496676 53.30235978 21.7468195 59 24 C54.01089963 34.21704066 48.75987848 44.19595152 43 54 C37.53262809 52.25192871 32.24175152 50.34205919 27 48 C27.63518251 43.00786243 29.81002935 38.89784233 32 34.4375 C32.73254042 32.9378412 33.46182571 31.43658703 34.1875 29.93359375 C34.51105469 29.27415771 34.83460938 28.61472168 35.16796875 27.93530273 C36.01046545 25.97565738 36.54145844 24.07993758 37 22 C36.13761719 21.73445313 35.27523437 21.46890625 34.38671875 21.1953125 C29.92507171 19.62061354 25.88779805 17.44037684 21.70703125 15.2421875 C19.04196585 13.79146945 19.04196585 13.79146945 16 14 C15.18595703 15.73636719 15.18595703 15.73636719 14.35546875 17.5078125 C13.63285153 19.04689333 12.9101931 20.5859548 12.1875 22.125 C11.83107422 22.88554688 11.47464844 23.64609375 11.10742188 24.4296875 C9.12541075 28.64827998 7.10592758 32.84129128 5 37 C4.1646875 36.7525 4.1646875 36.7525 3.3125 36.5 C-0.23733441 35.73246824 -2.83786506 35.36158322 -6.09765625 37.15234375 C-15.11455477 45.34463525 -21.15104529 58.96370879 -22 71 C-22.06832031 71.78117187 -22.13664062 72.56234375 -22.20703125 73.3671875 C-22.9144809 89.35030924 -17.23699045 105.7935685 -7 118 C-1.18274243 124.15266701 4.25258695 128.76180507 12.921875 129.12109375 C18.19077632 128.91793959 23.21494138 128.5055099 27.3984375 125.07421875 C31.2946098 120.02820047 33.57790977 113.85277123 36 108 C36.66 108 37.32 108 38 108 C41.43015016 116.77444662 43.9602563 125.0039219 40.9375 134.25 C35.65221398 141.75169629 29.67103099 146.10965634 21 149 C13.75925201 149.71354706 7.95702017 149.34586625 2 145 C-4.31142225 138.87467001 -8.8710806 131.80950401 -13.375 124.3125 C-19.68183688 114.02626561 -26.05153943 103.90434061 -33.796875 94.62109375 C-42.45847158 84.15361609 -42.45847158 84.15361609 -42.42578125 77.38671875 C-40.93913343 69.0533076 -35.40100945 62.76274295 -30.37890625 56.2265625 C-17.71550993 39.37288279 -8.59139851 19.14913823 0 0 Z " fill="#E0212E" transform="translate(154,89)"/>
<path d="M0 0 C7.35216161 2.27016908 14.3308642 5.22355646 21.36199951 8.32705688 C33.80631669 13.81673869 46.3243786 19.0639639 59 24 C54.01089963 34.21704066 48.75987848 44.19595152 43 54 C39.05050296 53.37183502 35.80107972 52.1354471 32.1875 50.4375 C31.21167969 49.98246094 30.23585938 49.52742188 29.23046875 49.05859375 C28.12638672 48.53458984 28.12638672 48.53458984 27 48 C27.60568729 41.76728243 30.33873062 37.13090907 33.29296875 31.74609375 C33.83244141 30.72322266 33.83244141 30.72322266 34.3828125 29.6796875 C34.71684082 29.06851074 35.05086914 28.45733398 35.39501953 27.82763672 C36.18203178 25.45008478 35.98279515 24.29240566 35 22 C33.48688491 20.71589621 33.48688491 20.71589621 31.54296875 19.82421875 C30.49206055 19.29538086 30.49206055 19.29538086 29.41992188 18.75585938 C28.68322266 18.40330078 27.94652344 18.05074219 27.1875 17.6875 C26.46240234 17.31560547 25.73730469 16.94371094 24.99023438 16.56054688 C21.14032516 14.55699975 21.14032516 14.55699975 16.91357422 14.11450195 C14.17565019 15.38146425 13.72144833 16.92019408 12.52734375 19.65625 C12.10259766 20.59597656 11.67785156 21.53570312 11.24023438 22.50390625 C10.81033203 23.49261719 10.38042969 24.48132813 9.9375 25.5 C9.08107299 27.45209366 8.21561491 29.40025784 7.33984375 31.34375 C6.77317993 32.64602539 6.77317993 32.64602539 6.19506836 33.97460938 C5 36 5 36 2 37 C0.948125 36.67 -0.10375 36.34 -1.1875 36 C-4.91192426 35.61969405 -4.91192426 35.61969405 -7.0234375 37.51171875 C-18.06423752 49.29280229 -22.76514329 64.65941169 -22.35546875 80.63671875 C-20.76875657 95.64945708 -14.54522322 113.20722275 -2.5625 123 C3.18040666 127.05896962 8.84623489 129.61065021 15.9765625 129.37109375 C19.08204336 128.80155575 21.61499141 127.43602086 24.3359375 125.875 C26 125 26 125 28 125 C29.80488492 121.46032279 31.46467342 117.85940561 33.125 114.25 C33.66382812 113.07953125 34.20265625 111.9090625 34.7578125 110.703125 C35.16773437 109.81109375 35.57765625 108.9190625 36 108 C40.7237643 111.98278166 41.46070959 118.35336962 42.328125 124.21875 C42.62717884 129.60171918 41.0604801 133.69808571 38 138 C32.6508423 143.92875041 26.2692417 148.26983365 18.265625 149.37890625 C11.066666 149.68714897 5.79117526 148.25954922 0.30249023 143.54052734 C-4.18160263 139.16126081 -7.46802024 134.5455271 -10.6875 129.1875 C-11.73001708 127.49891599 -12.77433559 125.81144304 -13.8203125 124.125 C-14.34657227 123.27292969 -14.87283203 122.42085938 -15.41503906 121.54296875 C-21.92095351 111.1046439 -28.73795418 100.94352894 -36.52368164 91.4128418 C-40.81759099 86.13903824 -42.66547717 82.58687407 -42.49609375 75.76171875 C-41.52506611 70.35607669 -38.20569404 66.34116349 -35 62 C-23.07315251 45.81214188 -14.16893994 28.60906586 -5.55761719 10.48608398 C-5.26260818 9.86624634 -4.96759918 9.24640869 -4.66365051 8.60778809 C-3.8534398 6.90295797 -3.04661517 5.19651985 -2.23999023 3.48999023 C-1 1 -1 1 0 0 Z " fill="#E1212E" transform="translate(58,89)"/>
<path d="M0 0 C5.96083854 2.2486437 11.69194905 5.01161084 17.42675781 7.77587891 C19.91144327 8.95787254 22.41319999 10.08679962 24.9296875 11.19921875 C26.45318595 11.88267664 27.97662631 12.56626405 29.5 13.25 C30.19947754 13.55429932 30.89895508 13.85859863 31.61962891 14.17211914 C35.8456552 16.11161748 38.56789187 18.00039506 41 22 C40.91345471 27.45235311 39.85275216 31.28198681 37 36 C36.51789063 36.46664062 36.03578125 36.93328125 35.5390625 37.4140625 C33.83517669 39.16984331 32.89421174 40.90703069 31.75 43.0625 C29.873436 46.08832064 29.2019227 46.9030771 25.875 48.5 C13.32595078 50.11923216 3.39962846 48.08676518 -7.00390625 40.61328125 C-14.35444301 34.67243647 -19.01060868 26.65505672 -20.4140625 17.21484375 C-20.64034045 10.39564922 -18.94065355 6.28026792 -14.5 1.0625 C-9.83594681 -2.37357784 -5.33105218 -1.46960925 0 0 Z " fill="#E9EFF4" transform="translate(103,51)"/>
<path d="M0 0 C2.15240196 0.89883611 4.26279036 1.86000066 6.37255859 2.85473633 C7.14317627 3.20681152 7.91379395 3.55888672 8.70776367 3.92163086 C12.70194965 5.7547212 16.67124862 7.63932373 20.63818359 9.53051758 C21.39172119 9.88879639 22.14525879 10.2470752 22.92163086 10.61621094 C24.34703356 11.29689409 25.76961149 11.98353762 27.1887207 12.67724609 C30.36784496 14.20653953 33.37146009 15.46993602 36.79833984 16.33129883 C39.93505859 17.29223633 39.93505859 17.29223633 41.93505859 20.29223633 C42.63485419 26.40227963 40.9110816 30.30704078 38.12255859 35.54223633 C37.76613281 36.24864258 37.40970703 36.95504883 37.04248047 37.68286133 C34.66571514 42.28811672 32.93503251 45.50057998 27.93505859 47.47973633 C18.57129443 49.80589248 8.90298082 48.60457594 0.48583984 43.93286133 C-8.61647598 38.09534308 -15.12807631 30.82579249 -18.06494141 20.29223633 C-19.31022935 8.36064026 -19.31022935 8.36064026 -16.31494141 3.66723633 C-15.57244141 2.88348633 -14.82994141 2.09973633 -14.06494141 1.29223633 C-13.48744141 0.65286133 -12.90994141 0.01348633 -12.31494141 -0.64526367 C-8.37630676 -2.50517448 -4.00094739 -1.37133442 0 0 Z " fill="#EDF3F8" transform="translate(198.06494140625,51.707763671875)"/>
<path d="M0 0 C6.24400556 1.97727713 12.2652087 4.27790596 18.27734375 6.87109375 C19.12873428 7.23469498 19.98012482 7.5982962 20.85731506 7.97291565 C23.55215533 9.12443397 26.24492134 10.28070455 28.9375 11.4375 C31.62686191 12.58987621 34.31666458 13.74120853 37.00697327 14.89137268 C38.67169627 15.60339235 40.33583556 16.31677909 41.99925232 17.03184509 C47.63109556 19.44496676 53.30235978 21.7468195 59 24 C54.01089963 34.21704066 48.75987848 44.19595152 43 54 C37.53262809 52.25192871 32.24175152 50.34205919 27 48 C27.63518251 43.00786243 29.81002935 38.89784233 32 34.4375 C32.73254042 32.9378412 33.46182571 31.43658703 34.1875 29.93359375 C34.51105469 29.27415771 34.83460938 28.61472168 35.16796875 27.93530273 C36.01046545 25.97565738 36.54145844 24.07993758 37 22 C36.13761719 21.73445313 35.27523437 21.46890625 34.38671875 21.1953125 C29.92507171 19.62061354 25.88779805 17.44037684 21.70703125 15.2421875 C19.04196585 13.79146945 19.04196585 13.79146945 16 14 C15.45730469 15.15757813 14.91460937 16.31515625 14.35546875 17.5078125 C13.63285153 19.04689333 12.9101931 20.5859548 12.1875 22.125 C11.83107422 22.88554688 11.47464844 23.64609375 11.10742188 24.4296875 C9.12541075 28.64827998 7.10592758 32.84129128 5 37 C0.66695924 36.35534798 -2.86672065 34.81074878 -6.8125 32.9375 C-7.97394531 32.38964844 -9.13539063 31.84179688 -10.33203125 31.27734375 C-11.21246094 30.85582031 -12.09289062 30.43429688 -13 30 C-12.37296891 25.95516216 -11.06657059 22.71559226 -9.27734375 19.04296875 C-8.73916016 17.93115234 -8.20097656 16.81933594 -7.64648438 15.67382812 C-6.80053711 13.9480957 -6.80053711 13.9480957 -5.9375 12.1875 C-5.36966797 11.01767578 -4.80183594 9.84785156 -4.21679688 8.64257812 C-2.81629404 5.75918993 -1.41053866 2.87848849 0 0 Z " fill="#DB222F" transform="translate(154,89)"/>
<path d="M0 0 C7.35216161 2.27016908 14.3308642 5.22355646 21.36199951 8.32705688 C33.80631669 13.81673869 46.3243786 19.0639639 59 24 C54.01089963 34.21704066 48.75987848 44.19595152 43 54 C39.05050296 53.37183502 35.80107972 52.1354471 32.1875 50.4375 C30.72376953 49.75494141 30.72376953 49.75494141 29.23046875 49.05859375 C28.12638672 48.53458984 28.12638672 48.53458984 27 48 C27.60568729 41.76728243 30.33873062 37.13090907 33.29296875 31.74609375 C33.83244141 30.72322266 33.83244141 30.72322266 34.3828125 29.6796875 C34.71684082 29.06851074 35.05086914 28.45733398 35.39501953 27.82763672 C36.18203178 25.45008478 35.98279515 24.29240566 35 22 C33.48688491 20.71589621 33.48688491 20.71589621 31.54296875 19.82421875 C30.49206055 19.29538086 30.49206055 19.29538086 29.41992188 18.75585938 C28.68322266 18.40330078 27.94652344 18.05074219 27.1875 17.6875 C26.46240234 17.31560547 25.73730469 16.94371094 24.99023438 16.56054688 C21.14032516 14.55699975 21.14032516 14.55699975 16.91357422 14.11450195 C14.17565019 15.38146425 13.72144833 16.92019408 12.52734375 19.65625 C12.10259766 20.59597656 11.67785156 21.53570312 11.24023438 22.50390625 C10.81033203 23.49261719 10.38042969 24.48132813 9.9375 25.5 C9.08107299 27.45209366 8.21561491 29.40025784 7.33984375 31.34375 C6.96206787 32.21193359 6.58429199 33.08011719 6.19506836 33.97460938 C5 36 5 36 2 37 C-0.64782172 35.93797752 -3.13967722 34.82570625 -5.6875 33.5625 C-6.38939453 33.22412109 -7.09128906 32.88574219 -7.81445312 32.53710938 C-9.54723706 31.70018652 -11.27419752 30.85122607 -13 30 C-12.44069196 25.71078672 -11.41701488 22.30414598 -9.53125 18.41796875 C-9.04269531 17.40412109 -8.55414063 16.39027344 -8.05078125 15.34570312 C-7.28314453 13.78239258 -7.28314453 13.78239258 -6.5 12.1875 C-5.98824219 11.12595703 -5.47648437 10.06441406 -4.94921875 8.97070312 C-1.16252911 1.16252911 -1.16252911 1.16252911 0 0 Z " fill="#DD222F" transform="translate(58,89)"/>
<path d="M0 0 C4.36407253 0.62150003 8.27058633 2.89408273 12.1875 4.8125 C12.92419922 5.15603516 13.66089844 5.49957031 14.41992188 5.85351562 C15.12052734 6.19705078 15.82113281 6.54058594 16.54296875 6.89453125 C17.18258545 7.20237549 17.82220215 7.51021973 18.48120117 7.82739258 C20 9 20 9 20.80834961 10.91040039 C21.1420048 14.54830459 19.04836883 17.50565393 17.375 20.625 C16.82392578 21.68654297 16.82392578 21.68654297 16.26171875 22.76953125 C15.5249264 24.18882599 14.78377325 25.60586618 14.03808594 27.02050781 C12.65322923 29.66124586 11.32428425 32.32846703 10 35 C9.33333333 36.33333333 8.66666667 37.66666667 8 39 C3.04001528 38.38367054 -0.93671966 36.20164371 -5.3125 33.9375 C-6.05306641 33.56044922 -6.79363281 33.18339844 -7.55664062 32.79492188 C-9.37387522 31.86871843 -11.18732404 30.93509371 -13 30 C-12.54849203 23.33795387 -9.98504453 18.12686469 -7.0625 12.1875 C-6.60681641 11.23423828 -6.15113281 10.28097656 -5.68164062 9.29882812 C-2.28804301 2.28804301 -2.28804301 2.28804301 0 0 Z " fill="#EBE9EF" transform="translate(74,102)"/>
<path d="M0 0 C4.92076638 0.44221036 9.00020997 2.83120784 13.3125 5.0625 C14.05306641 5.43955078 14.79363281 5.81660156 15.55664062 6.20507812 C17.37387522 7.13128157 19.18732404 8.06490629 21 9 C20.12835383 15.6005619 17.49303158 20.86684992 14.625 26.8125 C14.13 27.87404297 13.635 28.93558594 13.125 30.02929688 C12.64289063 31.03669922 12.16078125 32.04410156 11.6640625 33.08203125 C11.22529785 34.00218018 10.7865332 34.9223291 10.33447266 35.87036133 C9 38 9 38 6 39 C4.13061523 38.41088867 4.13061523 38.41088867 2.05859375 37.41796875 C1.31029297 37.06283203 0.56199219 36.70769531 -0.20898438 36.34179688 C-0.98564453 35.96087891 -1.76230469 35.57996094 -2.5625 35.1875 C-3.73329102 34.63352539 -3.73329102 34.63352539 -4.92773438 34.06835938 C-10.71100239 31.28899761 -10.71100239 31.28899761 -13 29 C-12.62631427 25.13582502 -11.20573866 21.98592466 -9.53125 18.515625 C-9.04269531 17.49855469 -8.55414063 16.48148438 -8.05078125 15.43359375 C-7.28314453 13.85771484 -7.28314453 13.85771484 -6.5 12.25 C-5.73236328 10.65091797 -5.73236328 10.65091797 -4.94921875 9.01953125 C-1.14959206 1.14959206 -1.14959206 1.14959206 0 0 Z " fill="#EBEAF0" transform="translate(170,102)"/>
<path d="M0 0 C0.33 0 0.66 0 1 0 C1.08636719 0.60585937 1.17273438 1.21171875 1.26171875 1.8359375 C1.40222656 2.67382812 1.54273437 3.51171875 1.6875 4.375 C1.81511719 5.18710938 1.94273438 5.99921875 2.07421875 6.8359375 C4.74152721 15.95205503 10.23817239 23.59428702 15.6875 31.25 C16.39648438 32.25635498 17.10546875 33.26270996 17.8359375 34.29956055 C19.24474485 36.29681441 20.65660067 38.2919221 22.07177734 40.28466797 C23.71790608 42.60275404 25.35554278 44.92638545 26.98828125 47.25390625 C29.29144328 50.52784761 31.63517979 53.77020951 34 57 C34.70511719 57.97710937 35.41023438 58.95421875 36.13671875 59.9609375 C39.89654772 64.95971963 42.66791657 68.54673495 49 70 C57.3338774 70.96332454 63.68306137 69.88649932 71.24609375 66.2890625 C74.11035265 64.94834557 76.98617968 63.94986384 80 63 C76.97540166 69.93073791 70.30991106 74.59650525 63.421875 77.33984375 C57.52407051 78.9474711 51.48480271 78.97600919 45.8125 76.5625 C37.05058735 71.24766276 31.76521596 61.86865215 26.625 53.3125 C20.31816312 43.02626561 13.94846057 32.90434061 6.203125 23.62109375 C-2.07581174 13.60218197 -2.07581174 13.60218197 -2.328125 6.12109375 C-1.96284589 3.75982524 -1.18013878 2.06524287 0 0 Z " fill="#200507" transform="translate(114,160)"/>
<path d="M0 0 C4.33304076 0.64465202 7.86672065 2.18925122 11.8125 4.0625 C12.97394531 4.61035156 14.13539063 5.15820312 15.33203125 5.72265625 C16.21246094 6.14417969 17.09289062 6.56570312 18 7 C17.35014905 11.71370756 15.48438608 15.57686444 13.4375 19.8125 C13.10814453 20.50537109 12.77878906 21.19824219 12.43945312 21.91210938 C11.63127749 23.61044948 10.81631623 25.30555769 10 27 C5.66695924 26.35534798 2.13327935 24.81074878 -1.8125 22.9375 C-2.97394531 22.38964844 -4.13539063 21.84179688 -5.33203125 21.27734375 C-6.21246094 20.85582031 -7.09289062 20.43429688 -8 20 C-7.35014905 15.28629244 -5.48438608 11.42313556 -3.4375 7.1875 C-2.9434668 6.14819336 -2.9434668 6.14819336 -2.43945312 5.08789062 C-1.63127749 3.38955052 -0.81631623 1.69444231 0 0 Z " fill="#070305" transform="translate(149,99)"/>
<path d="M0 0 C4.33304076 0.64465202 7.86672065 2.18925122 11.8125 4.0625 C12.97394531 4.61035156 14.13539062 5.15820312 15.33203125 5.72265625 C16.21246094 6.14417969 17.09289062 6.56570312 18 7 C15.86233829 14.244298 12.77315981 20.46718285 9 27 C3.00067626 25.1668733 -2.44920563 22.92678249 -8 20 C-7.45318976 14.99399078 -5.75859667 11.02818933 -3.4375 6.625 C-3.10814453 5.98433594 -2.77878906 5.34367187 -2.43945312 4.68359375 C-1.63360518 3.11861368 -0.81781507 1.55875979 0 0 Z " fill="#070305" transform="translate(53,99)"/>
<path d="M0 0 C4.33304076 0.64465202 7.86672065 2.18925122 11.8125 4.0625 C12.97394531 4.61035156 14.13539063 5.15820312 15.33203125 5.72265625 C16.21246094 6.14417969 17.09289062 6.56570312 18 7 C16.40376856 11.39383706 14.21975667 15.28995807 11.875 19.3125 C11.50246094 19.95767578 11.12992188 20.60285156 10.74609375 21.26757812 C9.83367787 22.84675945 8.91724491 24.42361864 8 26 C2.53262809 24.25192871 -2.75824848 22.34205919 -8 20 C-7.35014905 15.28629244 -5.48438608 11.42313556 -3.4375 7.1875 C-2.9434668 6.14819336 -2.9434668 6.14819336 -2.43945312 5.08789062 C-1.63127749 3.38955052 -0.81631623 1.69444231 0 0 Z " fill="#1D355C" transform="translate(189,117)"/>
<path d="M0 0 C4.33304076 0.64465202 7.86672065 2.18925122 11.8125 4.0625 C12.97394531 4.61035156 14.13539062 5.15820312 15.33203125 5.72265625 C16.21246094 6.14417969 17.09289062 6.56570312 18 7 C16.89835882 9.23044611 15.79378106 11.45935646 14.6875 13.6875 C14.37876953 14.31333984 14.07003906 14.93917969 13.75195312 15.58398438 C11.9761894 19.15420407 10.10467271 22.61309592 8 26 C4.05050296 25.37183502 0.80107972 24.1354471 -2.8125 22.4375 C-3.78832031 21.98246094 -4.76414062 21.52742188 -5.76953125 21.05859375 C-6.50558594 20.70925781 -7.24164063 20.35992187 -8 20 C-7.45318976 14.99399078 -5.75859667 11.02818933 -3.4375 6.625 C-3.10814453 5.98433594 -2.77878906 5.34367187 -2.43945312 4.68359375 C-1.63360518 3.11861368 -0.81781507 1.55875979 0 0 Z " fill="#1C335A" transform="translate(93,117)"/>
<path d="M0 0 C0.33 0 0.66 0 1 0 C1.08636719 0.58265625 1.17273438 1.1653125 1.26171875 1.765625 C3.68641251 15.9133794 10.64757656 26.63660796 18.61889648 38.27392578 C20.31228226 40.74968166 21.98421842 43.23894787 23.65429688 45.73046875 C34.08690101 62.01414583 34.08690101 62.01414583 50 72 C58.53807579 73.10558796 67.23668085 72.96424808 75 69 C73.10205769 74.16599683 69.03722541 75.55414154 64.30078125 77.7890625 C57.95738214 80.11622667 51.97194306 80.177548 45.75 77.4375 C38.35118825 72.97198676 33.69065714 66.47385879 29.3125 59.1875 C28.26998292 57.49891599 27.22566441 55.81144304 26.1796875 54.125 C25.65342773 53.27292969 25.12716797 52.42085937 24.58496094 51.54296875 C18.07904649 41.1046439 11.26204582 30.94352894 3.47631836 21.4128418 C-0.25452307 16.83060142 -2.2860368 13.91060003 -2.25 7.9375 C-2.25515625 7.08027344 -2.2603125 6.22304687 -2.265625 5.33984375 C-2 3 -2 3 0 0 Z " fill="#230507" transform="translate(18,159)"/>
<path d="M0 0 C4.81714842 1.51474072 8.69304252 3.41582551 13 6 C12.38367054 10.95998472 10.20164371 14.93671966 7.9375 19.3125 C7.56044922 20.05306641 7.18339844 20.79363281 6.79492188 21.55664062 C5.86871843 23.37387522 4.93509371 25.18732404 4 27 C2.68 26.67 1.36 26.34 0 26 C0 25.34 0 24.68 0 24 C-0.928125 23.87625 -1.85625 23.7525 -2.8125 23.625 C-6 23 -6 23 -9 21 C-8.38367054 16.04001528 -6.20164371 12.06328034 -3.9375 7.6875 C-3.37192383 6.57665039 -3.37192383 6.57665039 -2.79492188 5.44335938 C-1.86871843 3.62612478 -0.93509371 1.81267596 0 0 Z " fill="#22355D" transform="translate(172,108)"/>
<path d="M0 0 C4.81714842 1.51474072 8.69304252 3.41582551 13 6 C11.50640515 10.84286815 9.54966433 15.31350896 7.375 19.875 C7.05015625 20.56335938 6.7253125 21.25171875 6.390625 21.9609375 C5.59676528 23.64205219 4.79880442 25.32122921 4 27 C0.38778356 25.85112887 -3.00775797 24.61667691 -6.375 22.875 C-7.06335938 22.52179688 -7.75171875 22.16859375 -8.4609375 21.8046875 C-8.96882813 21.53914063 -9.47671875 21.27359375 -10 21 C-8.51991304 15.99886406 -6.3681664 11.67084403 -3.875 7.125 C-3.50246094 6.43664062 -3.12992187 5.74828125 -2.74609375 5.0390625 C-1.83500474 3.35705202 -0.91809685 1.67819564 0 0 Z " fill="#23355C" transform="translate(76,108)"/>
<path d="M0 0 C3.96297248 0.71333505 5.41793354 1.56277771 8.125 4.5625 C11.62773719 11.08110743 11.44276295 17.42461734 10.125 24.5625 C9.795 25.2225 9.465 25.8825 9.125 26.5625 C8.073125 26.376875 7.02125 26.19125 5.9375 26 C2.55380118 25.61170669 0.36074112 25.68002515 -2.875 26.5625 C-6.09979876 19.70980264 -6.85960791 13.10150764 -5.875 5.5625 C-3.59111722 0.70260989 -3.59111722 0.70260989 0 0 Z M0.125 6.5625 C-1.3947276 12.9177245 -0.0413492 17.47958727 2.125 23.5625 C2.785 23.5625 3.445 23.5625 4.125 23.5625 C5.76848093 18.6320572 5.93764925 14.29861431 3.75 9.625 C2.28578274 7.46547594 2.28578274 7.46547594 0.125 6.5625 Z " fill="#E2212D" transform="translate(170.875,17.4375)"/>
<path d="M0 0 C4.26376944 0.58522326 5.5346737 2.12146712 8.1875 5.4375 C10.15462 9.39223083 10.4577016 12.6686523 10.4375 17.0625 C10.44265625 18.18914063 10.4478125 19.31578125 10.453125 20.4765625 C10.1875 23.4375 10.1875 23.4375 8.1875 26.4375 C6.5375 26.1075 4.8875 25.7775 3.1875 25.4375 C3.29449219 24.72464844 3.40148437 24.01179688 3.51171875 23.27734375 C4.30318513 16.95412308 4.29970299 13.03946539 1.1875 7.4375 C-0.21296159 8.61520565 -0.21296159 8.61520565 0 11.9375 C0.04226439 16.60348859 1.0209003 20.9377583 2.1875 25.4375 C0.5375 26.0975 -1.1125 26.7575 -2.8125 27.4375 C-6.26849242 20.52551516 -7.75035589 13.59183409 -6 5.9375 C-4.20755656 0.6545088 -4.20755656 0.6545088 0 0 Z " fill="#E2212E" transform="translate(74.8125,17.5625)"/>
<path d="M0 0 C0.66 0 1.32 0 2 0 C0.40376856 4.39383706 -1.78024333 8.28995807 -4.125 12.3125 C-4.49753906 12.95767578 -4.87007812 13.60285156 -5.25390625 14.26757812 C-6.16632213 15.84675945 -7.08275509 17.42361864 -8 19 C-13.46737191 17.25192871 -18.75824848 15.34205919 -24 13 C-23.67 11.35 -23.34 9.7 -23 8 C-21.98292969 7.97873047 -21.98292969 7.97873047 -20.9453125 7.95703125 C-13.06426355 7.55315478 -5.74139223 5.74139223 0 0 Z " fill="#090407" transform="translate(205,124)"/>
<path d="M0 0 C1.17482324 3.47454806 1.06339535 3.8675142 -0.65234375 7.453125 C-1.40158685 8.72617522 -2.16382013 9.99165126 -2.9375 11.25 C-3.32357422 11.8996875 -3.70964844 12.549375 -4.10742188 13.21875 C-5.06058418 14.81912129 -6.02885924 16.4104742 -7 18 C-10.94949704 17.37183502 -14.19892028 16.1354471 -17.8125 14.4375 C-18.78832031 13.98246094 -19.76414062 13.52742187 -20.76953125 13.05859375 C-21.50558594 12.70925781 -22.24164063 12.35992187 -23 12 C-22.67 10.35 -22.34 8.7 -22 7 C-20.948125 6.96132812 -20.948125 6.96132812 -19.875 6.921875 C-11.8276924 6.44078596 -6.62938468 4.41958979 0 0 Z " fill="#080306" transform="translate(108,125)"/>
<path d="M0 0 C0.33 0 0.66 0 1 0 C1.08636719 0.58265625 1.17273438 1.1653125 1.26171875 1.765625 C3.89955979 17.15706447 12.03563515 28.54435139 20.75 41.125 C22.4915155 43.66152382 24.2300171 46.20009179 25.96807861 48.73898315 C27.04375539 50.30785679 28.12207292 51.87492384 29.20330811 53.43997192 C29.68761292 54.14185638 30.17191772 54.84374084 30.67089844 55.56689453 C31.09771912 56.18355988 31.52453979 56.80022522 31.96429443 57.43557739 C33 59 33 59 34 61 C33.34 61.66 32.68 62.32 32 63 C31.59273682 62.37134033 31.18547363 61.74268066 30.76586914 61.0949707 C17.03073274 39.51134283 17.03073274 39.51134283 1.62890625 19.12109375 C-1.26751665 15.34949271 -2.27882879 12.71587192 -2.25 7.9375 C-2.25515625 7.08027344 -2.2603125 6.22304687 -2.265625 5.33984375 C-2 3 -2 3 0 0 Z " fill="#290609" transform="translate(18,159)"/>
<path d="M0 0 C7.4079345 2.28679717 14.44604001 5.26341419 21.53338623 8.38418579 C24.85460591 9.84637386 28.18128526 11.29603045 31.5078125 12.74609375 C32.48205673 13.17120491 32.48205673 13.17120491 33.47598267 13.60490417 C40.93621152 16.85406934 48.45369523 19.95713517 56 23 C46.97216719 26.0092776 31.16489692 16.14201438 22.88208008 12.60668945 C15.04128558 9.31084925 7.31696501 6.78601492 -1 5 C-0.67 3.35 -0.34 1.7 0 0 Z " fill="#18090B" transform="translate(58,89)"/>
<path d="M0 0 C5.94 2.475 5.94 2.475 12 5 C11.23539233 8.82303833 10.52385218 11.38393238 8.9375 14.8125 C8.39416016 15.99779297 8.39416016 15.99779297 7.83984375 17.20703125 C7.56269531 17.79871094 7.28554687 18.39039062 7 19 C2.13585554 14.53024564 -0.80849748 10.92041339 -1.25 4.1875 C-1 1 -1 1 0 0 Z " fill="#1C345C" transform="translate(155,101)"/>
<path d="M0 0 C4.47238653 1.41807378 8.71146306 3.11304374 13 5 C12.54554036 6.41791408 12.08625056 7.83428046 11.625 9.25 C11.36976562 10.03890625 11.11453125 10.8278125 10.8515625 11.640625 C10.04826333 13.86627958 9.10288338 15.90931672 8 18 C3.72316502 16.47255894 1.99962349 13.99924698 0 10 C-0.32124049 6.6370136 -0.2395064 3.36639552 0 0 Z " fill="#1D345C" transform="translate(58,101)"/>
<path d="M0 0 C0.33 0 0.66 0 1 0 C1.08636719 0.60585937 1.17273438 1.21171875 1.26171875 1.8359375 C1.40222656 2.67382812 1.54273437 3.51171875 1.6875 4.375 C1.81511719 5.18710938 1.94273438 5.99921875 2.07421875 6.8359375 C4.67543396 15.72616671 9.95973256 23.18294434 15.3125 30.625 C15.95767578 31.53378906 16.60285156 32.44257813 17.26757812 33.37890625 C18.83891949 35.59042372 20.41639653 37.79725535 22 40 C21.34 40.99 20.68 41.98 20 43 C19.56171875 42.30777344 19.1234375 41.61554688 18.671875 40.90234375 C14.18194811 33.9758102 9.37520374 27.54735564 4.03808594 21.25366211 C0.49772875 16.98274588 -1.9849051 13.24540256 -2.01171875 7.48046875 C-1.90472656 6.72378906 -1.79773438 5.96710938 -1.6875 5.1875 C-1.58824219 4.41792969 -1.48898438 3.64835938 -1.38671875 2.85546875 C-1 1 -1 1 0 0 Z " fill="#2D0609" transform="translate(114,160)"/>
<path d="M0 0 C6.27865812 1.98801376 12.33484257 4.30452113 18.3828125 6.90625 C19.24131805 7.2722229 20.09982361 7.6381958 20.98434448 8.01525879 C23.6993228 9.17353263 26.41218328 10.33667382 29.125 11.5 C30.95168472 12.28027154 32.77850653 13.06022219 34.60546875 13.83984375 C39.40539981 15.88914572 44.20317236 17.94344608 49 20 C50.35660167 20.58139514 51.71320917 21.16277669 53.06982422 21.74414062 C54.03678223 22.15857422 55.00374023 22.57300781 56 23 C51.96079368 24.67627062 48.82470743 23.14760771 45 21.625 C43.95972656 21.22486694 43.95972656 21.22486694 42.8984375 20.81665039 C36.30309241 18.2290553 29.8987236 15.23902329 23.46972656 12.26831055 C15.83746385 8.80091762 8.06715827 6.24212919 0 4 C0 2.68 0 1.36 0 0 Z " fill="#190B0C" transform="translate(154,89)"/>
<path d="M0 0 C2.25 -0.375 2.25 -0.375 5 0 C8.08644287 3.336695 9.24204985 5.90701698 9.25 10.375 C9.1675 11.57125 9.085 12.7675 9 14 C7.35 14.33 5.7 14.66 4 15 C0.70653615 10.64412845 -0.67622943 7.61202326 -1 2 C-0.67 1.34 -0.34 0.68 0 0 Z " fill="#E2212E" transform="translate(63,179)"/>
<path d="M0 0 C0.33 0.66 0.66 1.32 1 2 C2.93356663 2.46794323 2.93356663 2.46794323 5.25390625 2.6328125 C6.53491211 2.75849609 6.53491211 2.75849609 7.84179688 2.88671875 C8.73962891 2.96535156 9.63746094 3.04398437 10.5625 3.125 C11.91504883 3.25455078 11.91504883 3.25455078 13.29492188 3.38671875 C15.52929918 3.59951659 17.76413615 3.80354467 20 4 C18.125 9.75 18.125 9.75 17 12 C12.66695924 11.35534798 9.13327935 9.81074878 5.1875 7.9375 C4.02605469 7.38964844 2.86460937 6.84179688 1.66796875 6.27734375 C0.34732422 5.64505859 0.34732422 5.64505859 -1 5 C-0.67 3.35 -0.34 1.7 0 0 Z " fill="#F03044" transform="translate(191,112)"/>
<path d="M0 0 C5.20833333 0.52083333 10.41666667 1.04166667 15.625 1.5625 C16.46289062 1.64628906 17.30078125 1.73007813 18.1640625 1.81640625 C18.76992187 1.87699219 19.37578125 1.93757813 20 2 C18.87548273 4.9719385 17.77706209 7.33440687 16 10 C10.00067626 8.1668733 4.55079437 5.92678249 -1 3 C-0.67 2.01 -0.34 1.02 0 0 Z " fill="#F12E42" transform="translate(95,114)"/>
<path d="M0 0 C2.8940621 0.22847859 4.56003344 0.63588974 6.8125 2.5 C8.60081417 6.26487195 8.23646554 9.90126405 8 14 C6.35 14.33 4.7 14.66 3 15 C-0.22342628 10.06412851 -1.60794251 7.07942506 -1 1 C-0.67 0.67 -0.34 0.34 0 0 Z " fill="#E2212E" transform="translate(160,179)"/>
<path d="M0 0 C3.64779904 0.60367072 3.96546797 0.9562887 6.45776367 4.11108398 C7.37311166 5.48151619 8.27575064 6.86049164 9.16796875 8.24609375 C9.88839104 9.33556053 9.88839104 9.33556053 10.62336731 10.44703674 C12.15569493 12.77020089 13.6715326 15.10363541 15.1875 17.4375 C16.21966643 19.00654184 17.25285773 20.57491 18.28710938 22.14257812 C25.7186343 33.4372686 25.7186343 33.4372686 27 36 C26.34 36.66 25.68 37.32 25 38 C24.59273682 37.37134033 24.18547363 36.74268066 23.76586914 36.0949707 C13.3596108 20.02346847 13.3596108 20.02346847 2.5390625 4.23046875 C1 2 1 2 0 0 Z " fill="#660F17" transform="translate(25,184)"/>
<path d="M0 0 C4.29 2.31 8.58 4.62 13 7 C12.34 8.65 11.68 10.3 11 12 C9.68 11.67 8.36 11.34 7 11 C7 10.34 7 9.68 7 9 C6.071875 8.87625 5.14375 8.7525 4.1875 8.625 C1 8 1 8 -2 6 C-1.125 1.125 -1.125 1.125 0 0 Z " fill="#210E12" transform="translate(165,123)"/>
<path d="M0 0 C3.29680965 0.65784963 5.84117922 1.89420573 8.75 3.5625 C9.94882813 4.24505859 9.94882813 4.24505859 11.171875 4.94140625 C11.77515625 5.29074219 12.3784375 5.64007813 13 6 C12.67 7.65 12.34 9.3 12 11 C7.0276578 9.50829734 2.58154261 7.39542583 -2 5 C-1.34 3.35 -0.68 1.7 0 0 Z " fill="#1C0D11" transform="translate(68,124)"/>
<path d="M0 0 C2.875 0.3125 2.875 0.3125 6 1 C8 4 8 4 8 7 C5.25851328 6.62952882 3.41406801 6.31412056 1.1875 4.625 C0 3 0 3 0 0 Z " fill="#D1DDEE" transform="translate(205,78)"/>
<path d="M0 0 C2.74148672 0.37047118 4.58593199 0.68587944 6.8125 2.375 C8 4 8 4 8 7 C5.25851328 6.62952882 3.41406801 6.31412056 1.1875 4.625 C0 3 0 3 0 0 Z " fill="#D1DDEE" transform="translate(109,78)"/>
<path d="M0 0 C1.765625 0.15234375 1.765625 0.15234375 4 1 C5.921875 3.50390625 5.921875 3.50390625 7.75 6.5625 C8.67039063 8.08037109 8.67039063 8.08037109 9.609375 9.62890625 C10.06828125 10.41136719 10.5271875 11.19382813 11 12 C10.34 12.66 9.68 13.32 9 14 C7.6860942 12.04260958 6.37391698 10.08405875 5.0625 8.125 C4.33160156 7.03445312 3.60070312 5.94390625 2.84765625 4.8203125 C1 2 1 2 0 0 Z " fill="#560C11" transform="translate(125,189)"/>
<path d="M0 0 C3.9036874 3.46994436 6.36588975 7.55224006 9 12 C8.34 12.66 7.68 13.32 7 14 C5.82508418 12.23462904 4.66031316 10.46250287 3.5 8.6875 C2.8503125 7.70136719 2.200625 6.71523437 1.53125 5.69921875 C0 3 0 3 0 0 Z " fill="#410B0F" transform="translate(43,208)"/>
<path d="M0 0 C2.97 0.99 5.94 1.98 9 3 C8.67 3.99 8.34 4.98 8 6 C5.36 5.34 2.72 4.68 0 4 C0 2.68 0 1.36 0 0 Z " fill="#13090A" transform="translate(154,89)"/>
<path d="M0 0 C2.96404505 2.80804268 5.44499019 5.18315774 7 9 C6.34 9.66 5.68 10.32 5 11 C4.15841464 9.73461631 3.32700252 8.46246221 2.5 7.1875 C1.80390625 6.12595703 1.80390625 6.12595703 1.09375 5.04296875 C0 3 0 3 0 0 Z " fill="#38090C" transform="translate(135,201)"/>
<path d="M0 0 C1.32 0.33 2.64 0.66 4 1 C4.33 2.65 4.66 4.3 5 6 C4.01 6.33 3.02 6.66 2 7 C0.5393715 4.35261084 0 3.10551666 0 0 Z " fill="#E52331" transform="translate(167,169)"/>
<path d="M0 0 C1.828125 0.21484375 1.828125 0.21484375 4 1 C5.484375 3.06640625 5.484375 3.06640625 6.75 5.5625 C7.17796875 6.38878906 7.6059375 7.21507812 8.046875 8.06640625 C8.36140625 8.70449219 8.6759375 9.34257812 9 10 C5.33838422 8.77946141 4.83729526 7.63217696 2.8125 4.4375 C2.28269531 3.61121094 1.75289062 2.78492188 1.20703125 1.93359375 C0.80871094 1.29550781 0.41039063 0.65742188 0 0 Z " fill="#560E13" transform="translate(25,184)"/>
<path d="M0 0 C1.46067199 0.45082469 2.91848032 0.91093537 4.375 1.375 C5.18710938 1.63023438 5.99921875 1.88546875 6.8359375 2.1484375 C9 3 9 3 11 5 C6.428721 4.45144652 2.32564205 3.58255197 -2 2 C-1.34 1.34 -0.68 0.68 0 0 Z " fill="#230C0E" transform="translate(199,108)"/>
<path d="M0 0 C0.99 0 1.98 0 3 0 C3.33 2.31 3.66 4.62 4 7 C3.01 6.67 2.02 6.34 1 6 C0.67 4.02 0.34 2.04 0 0 Z " fill="#E3222F" transform="translate(71,169)"/>
</svg>
