<?xml version="1.0" encoding="UTF-8"?>
<svg version="1.1" xmlns="http://www.w3.org/2000/svg" width="256" height="256">
<path d="M0 0 C13.39887166 13.68395403 21.66905129 30.56963132 22.19140625 49.875 C21.1853498 76.85560483 6.91661703 98.88352908 -10.24609375 118.8125 C-11.47005859 120.29363281 -11.47005859 120.29363281 -12.71875 121.8046875 C-24.17927192 135.65834791 -36.4825626 149.25800523 -50.13671875 160.98046875 C-52.42238921 162.96561587 -54.64310753 165.0128983 -56.87109375 167.0625 C-62.52200176 172.15956711 -68.47763788 176.81796151 -74.50097656 181.46142578 C-76.13009136 182.72269065 -77.74717881 183.99944821 -79.36328125 185.27734375 C-85.81423291 190.34125873 -92.42809562 195.10240345 -99.18359375 199.75 C-99.98885498 200.30606934 -100.79411621 200.86213867 -101.6237793 201.43505859 C-108.88148775 206.379671 -115.03289718 210.56925434 -124.12109375 209.25 C-132.63283104 206.81343398 -139.35039145 199.8056299 -143.69140625 192.3203125 C-147.79483258 184.4182858 -149.51857432 177.19607163 -147.43359375 168.375 C-143.17516963 159.6610025 -131.7817981 153.98386404 -124 148.484375 C-113.59572012 141.10904972 -103.58170918 133.51893916 -94.24609375 124.8125 C-92.97992019 123.70299295 -91.70919526 122.59865471 -90.43359375 121.5 C-80.09391087 112.45017696 -70.33724978 103.11983234 -61.24609375 92.8125 C-59.94865234 91.34683594 -59.94865234 91.34683594 -58.625 89.8515625 C-48.58989181 78.17263783 -36.51048014 63.94006986 -36.24609375 47.8125 C-37.380812 43.96706594 -38.38378179 41.62255063 -41.30859375 38.875 C-47.04516876 36.80006861 -52.47282394 36.85554788 -58.05859375 39.33203125 C-63.05186577 41.96993087 -66.61243316 45.84940666 -70.43359375 49.9375 C-71.79479425 51.38449583 -73.16307114 52.82487443 -74.5390625 54.2578125 C-75.13227295 54.89219238 -75.7254834 55.52657227 -76.33666992 56.18017578 C-81.06207349 60.21981883 -86.16836511 60.24510893 -92.12109375 60.12109375 C-100.81070977 59.26299417 -108.07875113 54.85037551 -114.24609375 48.8125 C-119.15014207 42.62062387 -121.7200452 37.51726156 -121.5703125 29.546875 C-120.34161497 19.18436573 -111.96176821 11.20623397 -105.24609375 3.8125 C-104.51261719 2.98363281 -103.77914062 2.15476562 -103.0234375 1.30078125 C-92.52984445 -9.93815111 -77.46647754 -18.60179774 -62.24609375 -21.1875 C-61.47523438 -21.3215625 -60.704375 -21.455625 -59.91015625 -21.59375 C-37.39715095 -24.56844139 -15.99915197 -15.61532056 0 0 Z " fill="#722335" transform="translate(191.24609375,34.1875)"/>
<path d="M0 0 C5.41518731 3.77069791 10.29446938 8.07090553 15 12.6875 C15.62648437 13.28949219 16.25296875 13.89148438 16.8984375 14.51171875 C28.31995371 26.42420511 33.53745494 41.83235509 33.41796875 58.02124023 C32.237126 97.78981 -4.28348878 132.66338888 -31 158.6875 C-32.25415504 159.83106351 -33.52138962 160.9608302 -34.8125 162.0625 C-37.80230473 164.63498973 -40.72209893 167.26740115 -43.625 169.9375 C-49.82595514 175.52403123 -56.38024525 180.61246861 -63 185.6875 C-63.62680664 186.1712207 -64.25361328 186.65494141 -64.89941406 187.15332031 C-69.54938 190.73476332 -74.24825232 194.24224099 -79 197.6875 C-79.76489746 198.24244141 -80.52979492 198.79738281 -81.31787109 199.36914062 C-83.6755615 201.06114728 -86.05223335 202.72215227 -88.4375 204.375 C-89.1584082 204.89247803 -89.87931641 205.40995605 -90.62207031 205.94311523 C-95.59759626 209.32475718 -99.92041847 210.93794698 -106 210.6875 C-113.07104665 208.56618601 -118.85934916 201.5457232 -122.32421875 195.30078125 C-124.8210139 189.72022507 -126.39061027 183.77141991 -125 177.6875 C-122.27820459 173.54367909 -118.99390053 171.03968189 -114.9375 168.25 C-113.68656162 167.37634208 -112.43661685 166.50126029 -111.1875 165.625 C-110.51589844 165.15578125 -109.84429687 164.6865625 -109.15234375 164.203125 C-94.53967056 153.91325713 -80.71998062 143.01501052 -67.51171875 130.9765625 C-65.75486533 129.37544881 -63.98553849 127.7879635 -62.20703125 126.2109375 C-52.22149133 117.26748167 -42.87014653 107.61629879 -34.47021484 97.15917969 C-32.79742292 95.48472108 -31.15505129 94.63542237 -29 93.6875 C-29.96994521 96.37350213 -30.72512763 98.39226672 -32.6875 100.5 C-34.35794989 103.28408316 -34.24693721 105.38189126 -33.6953125 108.5390625 C-31.07567049 116.63346198 -23.78289984 122.11209239 -16.5625 126 C-12.75856431 127.02056811 -8.91789139 127.36314298 -5 127.6875 C-4.58427734 126.80771484 -4.58427734 126.80771484 -4.16015625 125.91015625 C-2.73313254 123.17622867 -0.9679928 120.83179901 0.87890625 118.37109375 C2.18551179 116.56863235 2.18551179 116.56863235 3 113.6875 C1.906875 113.5225 0.81375 113.3575 -0.3125 113.1875 C-9.3420062 110.9261139 -16.47202103 103.85893218 -22 96.6875 C-21.67 96.0275 -21.34 95.3675 -21 94.6875 C-20.62230469 95.18378906 -20.24460937 95.68007812 -19.85546875 96.19140625 C-13.92330594 103.51283435 -6.17065066 109.80292118 3.37890625 111.171875 C7.24263488 111.05114292 7.24263488 111.05114292 9.65234375 107.765625 C10.43997599 106.50541341 11.20115274 105.22834875 11.9375 103.9375 C12.33517578 103.30328125 12.73285156 102.6690625 13.14257812 102.015625 C15.22251062 98.57890349 16 96.78490779 16 92.6875 C14.865625 92.56375 13.73125 92.44 12.5625 92.3125 C11.386875 92.10625 10.21125 91.9 9 91.6875 C8.67 91.0275 8.34 90.3675 8 89.6875 C8.89203125 89.6359375 9.7840625 89.584375 10.703125 89.53125 C17.13190592 89.14107444 17.13190592 89.14107444 22.61328125 86.23046875 C23.71412809 84.07860765 24.35953024 82.02038426 25 79.6875 C25.36480469 78.64078125 25.72960937 77.5940625 26.10546875 76.515625 C28.03870175 70.78850472 29.5631313 65.74116153 29 59.6875 C25.30429989 60.32238519 22.05362009 61.39906726 18.5625 62.75 C11.58651037 65.12719597 2.77099183 66.65009389 -4.26953125 63.75390625 C-6.83178208 62.17491194 -8.22014057 61.20385299 -10 58.6875 C-10.63878374 55.02901128 -10.87211766 51.39608787 -11 47.6875 C-9.7625 47.275 -8.525 46.8625 -7.25 46.4375 C-3.59512617 45.05733786 -1.62121576 43.63636773 1 40.6875 C2.32442795 39.53138477 3.65877685 38.386588 5 37.25 C9.87548704 32.99864766 13.54658227 28.7564807 16 22.6875 C15.21887675 16.5005079 9.84852862 12.19273045 5.265625 8.4609375 C0.97467739 5.27171968 -2.93798513 2.49666777 -8 0.6875 C-7.95359375 1.65429688 -7.9071875 2.62109375 -7.859375 3.6171875 C-7.63191187 11.82210754 -8.09850225 18.31206589 -12 25.6875 C-12.50273437 26.72390625 -12.50273437 26.72390625 -13.015625 27.78125 C-14.817136 31.26989036 -16.23049455 33.38767053 -20 34.6875 C-20.33 35.0175 -20.66 35.3475 -21 35.6875 C-23.19050021 35.59732004 -25.378466 35.44083792 -27.5625 35.25 C-28.76003906 35.14816406 -29.95757812 35.04632813 -31.19140625 34.94140625 C-32.11824219 34.85761719 -33.04507813 34.77382813 -34 34.6875 C-34 31.3875 -34 28.0875 -34 24.6875 C-34.33 24.6875 -34.66 24.6875 -35 24.6875 C-35.09796875 23.43195312 -35.1959375 22.17640625 -35.296875 20.8828125 C-36.40116588 7.85301019 -36.40116588 7.85301019 -41 -4.3125 C-47.98782953 -3.55295331 -57.81693639 -2.32279482 -63 2.6875 C-63.60730326 9.07108541 -62.37665166 13.11087885 -59.375 18.6875 C-59.01543213 19.38738037 -58.65586426 20.08726074 -58.28540039 20.80834961 C-56.29635906 24.58854184 -54.17834313 27.9545392 -51.4375 31.25 C-49.26404905 33.97278471 -49.01129496 34.55873751 -48.6875 38.25 C-50.38346068 42.69180179 -52.86174487 46.21106386 -57 48.6875 C-66.11924458 48.21377301 -74.19324331 39.93922516 -80.22265625 33.80078125 C-83.42374973 29.99464592 -84.25585474 27.40998 -84.125 22.4375 C-84.10695312 21.54546875 -84.08890625 20.6534375 -84.0703125 19.734375 C-84.04710937 19.05890625 -84.02390625 18.3834375 -84 17.6875 C-85.32 18.6775 -86.64 19.6675 -88 20.6875 C-83.02090538 8.71529496 -68.01017216 -0.31517393 -56.75 -5.1875 C-37.65397372 -12.90143152 -17.54657569 -10.54766067 0 0 Z " fill="#732537" transform="translate(174,27.3125)"/>
<path d="M0 0 C13.39887166 13.68395403 21.66905129 30.56963132 22.19140625 49.875 C21.1853498 76.85560483 6.91661703 98.88352908 -10.24609375 118.8125 C-11.47005859 120.29363281 -11.47005859 120.29363281 -12.71875 121.8046875 C-24.17927192 135.65834791 -36.4825626 149.25800523 -50.13671875 160.98046875 C-52.42238921 162.96561587 -54.64310753 165.0128983 -56.87109375 167.0625 C-62.52200176 172.15956711 -68.47763788 176.81796151 -74.50097656 181.46142578 C-76.13009136 182.72269065 -77.74717881 183.99944821 -79.36328125 185.27734375 C-85.81423291 190.34125873 -92.42809562 195.10240345 -99.18359375 199.75 C-99.98885498 200.30606934 -100.79411621 200.86213867 -101.6237793 201.43505859 C-108.88148775 206.379671 -115.03289718 210.56925434 -124.12109375 209.25 C-132.63283104 206.81343398 -139.35039145 199.8056299 -143.69140625 192.3203125 C-147.79483258 184.4182858 -149.51857432 177.19607163 -147.43359375 168.375 C-143.17516963 159.6610025 -131.7817981 153.98386404 -124 148.484375 C-113.59572012 141.10904972 -103.58170918 133.51893916 -94.24609375 124.8125 C-92.97992019 123.70299295 -91.70919526 122.59865471 -90.43359375 121.5 C-80.09391087 112.45017696 -70.33724978 103.11983234 -61.24609375 92.8125 C-59.94865234 91.34683594 -59.94865234 91.34683594 -58.625 89.8515625 C-48.58989181 78.17263783 -36.51048014 63.94006986 -36.24609375 47.8125 C-37.380812 43.96706594 -38.38378179 41.62255063 -41.30859375 38.875 C-47.04516876 36.80006861 -52.47282394 36.85554788 -58.05859375 39.33203125 C-63.05186577 41.96993087 -66.61243316 45.84940666 -70.43359375 49.9375 C-71.79479425 51.38449583 -73.16307114 52.82487443 -74.5390625 54.2578125 C-75.13227295 54.89219238 -75.7254834 55.52657227 -76.33666992 56.18017578 C-81.06207349 60.21981883 -86.16836511 60.24510893 -92.12109375 60.12109375 C-100.81070977 59.26299417 -108.07875113 54.85037551 -114.24609375 48.8125 C-119.15014207 42.62062387 -121.7200452 37.51726156 -121.5703125 29.546875 C-120.34161497 19.18436573 -111.96176821 11.20623397 -105.24609375 3.8125 C-104.51261719 2.98363281 -103.77914062 2.15476562 -103.0234375 1.30078125 C-92.52984445 -9.93815111 -77.46647754 -18.60179774 -62.24609375 -21.1875 C-61.47523438 -21.3215625 -60.704375 -21.455625 -59.91015625 -21.59375 C-37.39715095 -24.56844139 -15.99915197 -15.61532056 0 0 Z M-108.24609375 15.8125 C-115.20649192 24.80189941 -115.20649192 24.80189941 -116.24609375 35.8125 C-112.44737819 44.01888553 -105.51668742 50.20781347 -97.24609375 53.75 C-95.27502855 54.38082347 -95.27502855 54.38082347 -93.24609375 54.8125 C-92.53710938 54.97363281 -91.828125 55.13476562 -91.09765625 55.30078125 C-87.18306621 55.76091727 -85.01474416 55.34326327 -81.734375 53.078125 C-78.38177814 50.10032074 -75.28749902 46.94802048 -72.2578125 43.64453125 C-66.25890309 37.22333836 -58.64661232 31.66414433 -49.55859375 31.1875 C-43.3784931 31.67067151 -38.01327453 33.95696018 -33.74609375 38.4375 C-30.39790424 43.73880005 -30.73275595 48.64511297 -31.24609375 54.8125 C-35.55016097 73.5066715 -50.06726517 88.7899609 -62.87353516 102.33837891 C-64.80109031 104.40856354 -66.64232959 106.55125749 -68.49609375 108.6875 C-78.06830332 119.35616266 -88.96859285 128.99422188 -100.24609375 137.8125 C-101.64063618 138.91404835 -103.03516641 140.01561214 -104.4296875 141.1171875 C-112.0057685 147.07601208 -119.64598576 152.90121549 -127.52148438 158.45874023 C-135.92947246 163.64269465 -135.92947246 163.64269465 -142.24609375 170.8125 C-143.26226159 179.47491437 -141.41675009 186.58295274 -136.1875 193.55859375 C-131.26851312 199.27390903 -127.14571316 203.5030064 -119.30859375 204.125 C-111.68146737 202.9066903 -105.33606074 197.25372649 -99.24609375 192.8125 C-98.07868652 191.97187012 -98.07868652 191.97187012 -96.88769531 191.11425781 C-87.43224161 184.30104666 -78.13038353 177.36021521 -69.24609375 169.8125 C-68.17590048 168.91652424 -67.10558054 168.02069976 -66.03515625 167.125 C-53.11557492 156.24602925 -39.8561901 144.87406795 -28.87109375 132 C-27.03199443 129.8598092 -25.18404166 127.74580621 -23.26171875 125.6796875 C-2.07737686 102.87172817 17.31783411 75.83984815 16.12890625 43.48046875 C14.99332081 25.74759237 3.41809934 10.70068336 -9.18359375 -0.9375 C-23.00048144 -12.43810632 -40.0353939 -18.12553234 -57.97070312 -16.48583984 C-78.96862601 -13.73267871 -95.15444601 -0.06203035 -108.24609375 15.8125 Z " fill="#FCFAFA" transform="translate(191.24609375,34.1875)"/>
<path d="M0 0 C0.895446 9.62604449 -3.07915682 19.84985348 -8 28 C-13.00898351 31.49281137 -19.31770781 29.88580767 -25 29 C-32.39976943 27.16577953 -39.41758536 23.22057253 -44 17 C-44.60711413 11.60656751 -43.02697688 7.89852746 -41 3 C-39.80375 3.165 -38.6075 3.33 -37.375 3.5 C-25.67871594 4.7302214 -9.47685831 -2.84305749 0 0 Z " fill="#ECEAEB" transform="translate(204,87)"/>
<path d="M0 0 C6.75508037 6.1658074 9.66218143 15.12174946 11 24 C11.20625 25.0725 11.4125 26.145 11.625 27.25 C10.88988703 30.48449708 10.33943559 30.85988795 7.6875 32.6875 C-0.23175137 36.9644476 -8.0372571 38.27381955 -16.9375 38.4375 C-18.03856079 38.47097534 -18.03856079 38.47097534 -19.16186523 38.50512695 C-22.53722911 38.49071397 -24.63856497 38.2453621 -27.45703125 36.33203125 C-29.32816392 33.50401554 -29.58953854 31.61969063 -29.75 28.25 C-29.80671875 27.26515625 -29.8634375 26.2803125 -29.921875 25.265625 C-29.94765625 24.51796875 -29.9734375 23.7703125 -30 23 C-29.23816406 22.72027344 -28.47632813 22.44054687 -27.69140625 22.15234375 C-15.21902289 17.30975795 -8.08083016 10.56430042 0 0 Z " fill="#FD5570" transform="translate(193,52)"/>
<path d="M0 0 C5.68001706 8.70935949 6.34892065 17.71786517 6.3125 27.9375 C6.32861328 28.86884766 6.34472656 29.80019531 6.36132812 30.75976562 C6.36197266 31.65244141 6.36261719 32.54511719 6.36328125 33.46484375 C6.36626221 34.265271 6.36924316 35.06569824 6.37231445 35.89038086 C5.90750534 38.52409599 5.06855072 39.35662555 3 41 C-1.14339007 43.12481542 -1.14339007 43.12481542 -3.95703125 42.71484375 C-12.52635812 39.71639859 -17.12777719 28.53080573 -21 21 C-22.92608269 16.6678927 -24.37268622 12.69954378 -23 8 C-17.525246 2.21282798 -7.71764622 -0.26045342 0 0 Z " fill="#ECEAEA" transform="translate(133,22)"/>
<path d="M0 0 C9.09314046 1.14895277 17.17109036 9.28740727 23 16 C25 19 25 19 24.9375 21.1875 C21.7799039 30.66028831 14.55330281 38.33837125 5.875 43.0625 C2.92653972 44.38593102 1.06740368 44.99603508 -2.1875 45.1875 C-6.13012239 43.52283721 -8.94587321 40.95473213 -12 38 C-11.43614773 35.30478617 -11.04482481 34.05443012 -9.25 31.875 C-3.29145101 24.26129852 -0.98473503 16.74138782 -0.4375 7.25 C-0.39431641 6.55261719 -0.35113281 5.85523438 -0.30664062 5.13671875 C-0.20110404 3.42468078 -0.1001009 1.71236439 0 0 Z " fill="#E8E3E4" transform="translate(166,28)"/>
<path d="M0 0 C2.4145175 2.4145175 3.04915725 4.49726109 4.25 7.6875 C8.54997112 18.08945325 13.9413781 22.11387228 24 27 C23.13815869 31.55150359 20.49038606 34.06066897 17.3125 37.25 C16.53616211 38.08144531 16.53616211 38.08144531 15.74414062 38.9296875 C13.08601262 41.61760773 11.69251566 42.88645863 7.87890625 43.51171875 C-0.67913077 41.99054799 -6.93036744 34.59290244 -12 28 C-14.8446542 23.55522781 -15.90710837 20.26122857 -15 15 C-11.13318673 9.07088632 -5.39966427 4.48803264 0 0 Z " fill="#D3D2D2" transform="translate(122,148)"/>
<path d="M0 0 C0.12375 0.73863281 0.2475 1.47726563 0.375 2.23828125 C2.65347528 13.44553155 8.06304915 21.61035086 17.53125 28.07421875 C18.25828125 28.53248047 18.25828125 28.53248047 19 29 C18.80583709 32.84165186 18.03847273 33.96228803 15.234375 36.7109375 C14.08373571 37.61293289 12.9217838 38.50064928 11.75 39.375 C11.17636719 39.83777344 10.60273437 40.30054688 10.01171875 40.77734375 C7.4460914 42.73516872 5.6643235 43.98907689 2.38671875 44.04296875 C-6.34935429 40.22540492 -14.15206303 30.64098126 -18 22 C-18.99319806 17.11677622 -18.99319806 17.11677622 -18 14 C-15.04122545 10.51225004 -11.62461793 7.77114684 -8 5 C-7.278125 4.44570312 -6.55625 3.89140625 -5.8125 3.3203125 C-1.31038136 0 -1.31038136 0 0 0 Z " fill="#D4D3D3" transform="translate(88,179)"/>
<path d="M0 0 C16.70911991 -0.70712576 16.70911991 -0.70712576 23 3 C26.30428546 7.20087511 26.58985472 13.04087017 26.4140625 18.21875 C25.30403092 25.67481119 22.23469032 34.35378582 17.0234375 39.96484375 C12.44208904 42.30858379 6.87616221 40.86092478 2 40 C2.01571045 39.33057373 2.0314209 38.66114746 2.04760742 37.97143555 C2.1107725 34.8768797 2.14924564 31.7824602 2.1875 28.6875 C2.21263672 27.63498047 2.23777344 26.58246094 2.26367188 25.49804688 C2.32343596 19.02360485 1.63983368 13.59181015 -0.44799805 7.44848633 C-1.0818717 4.63684595 -0.74344108 2.75901985 0 0 Z " fill="#FD5570" transform="translate(138,22)"/>
<path d="M0 0 C0.25652344 0.75023437 0.51304688 1.50046875 0.77734375 2.2734375 C5.02712032 13.63479306 11.98937835 21.28988304 22 28 C21.15703372 32.69733525 18.26301318 34.85680292 14.75 37.8125 C14.17636719 38.32748047 13.60273437 38.84246094 13.01171875 39.37304688 C8.75526988 42.99442194 8.75526988 42.99442194 5.35546875 43.01953125 C-2.83395609 39.47485483 -9.08666958 32.46710665 -13.875 25.125 C-15.38345681 20.9348422 -15.9365665 17.39111506 -15 13 C-13.39813613 10.20525879 -11.366112 8.16506981 -9 6 C-8.37738281 5.41734375 -7.75476563 4.8346875 -7.11328125 4.234375 C-2.39412967 0 -2.39412967 0 0 0 Z " fill="#FB556F" transform="translate(105,165)"/>
<path d="M0 0 C2.69804757 1.34902379 2.74021733 2.56709555 3.75 5.375 C6.78490803 13.22544475 10.48504471 20.32277606 15.875 26.8125 C17.95194652 29.42259127 18.96369944 30.87035515 19.875 34.125 C18.56637919 38.4247541 15.85848768 41.66401036 12 44 C2.88801174 43.54218535 -5.20102975 35.24379793 -11.22265625 29.11328125 C-14.48710768 25.23181263 -15.84394717 21.64644944 -15.78515625 16.58203125 C-13.69373157 9.70426153 -5.6201168 4.0411316 0 0 Z " fill="#FC556F" transform="translate(105,32)"/>
<path d="M0 0 C0.20753906 0.556875 0.41507813 1.11375 0.62890625 1.6875 C4.36196124 10.93423036 10.02481917 17.52147542 19 22 C22.30392016 23.29904008 22.30392016 23.29904008 25 24 C24.52328794 28.65839684 22.73777828 30.82932569 19.5625 34.1875 C18.75941406 35.04730469 17.95632812 35.90710938 17.12890625 36.79296875 C15.76477768 38.20715709 14.38938393 39.61061607 13 41 C4.51605285 40.55883475 -1.66950201 35.89955557 -7.38671875 29.9921875 C-10.79135163 25.78791929 -12.55148894 21.19770417 -13.625 15.9375 C-12.55482734 10.90768849 -5.72157227 0 0 0 Z " fill="#FC556F" transform="translate(138,133)"/>
<path d="M0 0 C0.13535156 0.59425781 0.27070312 1.18851563 0.41015625 1.80078125 C3.43004828 13.42826972 9.66004309 21.60851482 19 29 C18.65333092 31.85529257 18.12473629 32.88255823 15.99609375 34.88671875 C10.60475155 38.68123593 6.70601336 41.33530067 0 41 C-6.91459597 37.68099393 -12.11135806 31.07620571 -15.3046875 24.1796875 C-16.57989616 20.18212326 -16.90999692 16.10167731 -16 12 C-13.37000441 7.97837504 -10.38035967 5.68035393 -6.3125 3.1875 C-5.33925781 2.58292969 -4.36601563 1.97835937 -3.36328125 1.35546875 C-1 0 -1 0 0 0 Z " fill="#FC556F" transform="translate(68,194)"/>
<path d="M0 0 C2.70144663 1.24770205 4.29234557 2.27772829 6.5 4.375 C12.47532412 9.51408283 21.30804855 11.30073169 29 12 C28.01 12.66 27.02 13.32 26 14 C28.31 14.33 30.62 14.66 33 15 C33.7734375 17.046875 33.7734375 17.046875 34 20 C32.63661004 22.61074673 31.29412222 24.85560444 29.625 27.25 C29.19960937 27.88679688 28.77421875 28.52359375 28.3359375 29.1796875 C25.29007711 33.70992289 25.29007711 33.70992289 24 35 C17.32310793 35.8523692 12.57716606 33.58295683 7 30 C-5.04436389 20.56581695 -5.04436389 20.56581695 -6.5625 13.3125 C-5.69201486 8.18630972 -2.84507372 4.28454555 0 0 Z " fill="#FA556F" transform="translate(157,104)"/>
<path d="M0 0 C2.18899997 2.07412533 3.87086112 4.19801353 5.5625 6.6875 C11.65584914 14.85710144 19.37672636 19.88779235 29 23 C28.15997786 28.91165581 25.44532961 33.05508272 21 37 C15.99445548 38.78571182 11.5285352 37.03476852 6.875 34.9375 C-0.47511988 30.87439025 -6.45526787 25.18881749 -9 17 C-9.48727868 10.42173782 -5.7558082 6.70676151 -1.71484375 1.94140625 C-1.14894531 1.30074219 -0.58304688 0.66007812 0 0 Z " fill="#D3D2D2" transform="translate(148,118)"/>
<path d="M0 0 C2.5 2.5 2.5 2.5 5 5 C5.763125 5.721875 6.52625 6.44375 7.3125 7.1875 C9 9 9 9 9 11 C9.56976563 11.26039062 10.13953125 11.52078125 10.7265625 11.7890625 C13.18877893 13.10055235 15.20142835 14.62851611 17.375 16.375 C20.82263773 19.10461731 24.29935563 21.62779207 28 24 C27.4568634 27.80195622 25.84334437 29.50130343 23 32 C19.72529373 33.63735313 16.53777204 33.5230261 13 33 C5.65546581 30.27687271 -1.11931095 26.28589763 -5.375 19.5625 C-7.12466147 15.72670369 -7.82300644 14.1150322 -7 10 C-5.02419354 6.48810663 -2.86552672 2.86552672 0 0 Z " fill="#D3D2D2" transform="translate(85,53)"/>
<path d="M0 0 C2 0 2 0 4.25 2.1875 C5.1575 3.115625 6.065 4.04375 7 5 C8.96647738 6.71199207 10.97740933 8.35370527 13 10 C12.80583709 13.84165186 12.03847273 14.96228803 9.234375 17.7109375 C8.08373571 18.61293289 6.9217838 19.50064928 5.75 20.375 C5.17636719 20.83777344 4.60273437 21.30054688 4.01171875 21.77734375 C1.46562512 23.72026258 -0.34016968 24.98109084 -3.58984375 25.07421875 C-6.73213364 23.67368436 -8.81756339 21.79937333 -11.3125 19.4375 C-12.19550781 18.61121094 -13.07851562 17.78492188 -13.98828125 16.93359375 C-14.65214844 16.29550781 -15.31601563 15.65742188 -16 15 C-15.61331598 12.66347422 -15.33259982 11.32619915 -13.6171875 9.64379883 C-13.04226562 9.25216553 -12.46734375 8.86053223 -11.875 8.45703125 C-11.25109375 8.02326172 -10.6271875 7.58949219 -9.984375 7.14257812 C-9.32953125 6.70365234 -8.6746875 6.26472656 -8 5.8125 C-6.70802206 4.92362935 -5.41633995 4.03432851 -4.125 3.14453125 C-3.09375 2.43683594 -2.0625 1.72914063 -1 1 C-0.67 0.67 -0.34 0.34 0 0 Z " fill="#E9E6E7" transform="translate(94,198)"/>
<path d="M0 0 C2.73288761 1.13870317 5.2756252 2.49573672 7.859375 3.94140625 C8.84421875 4.48925781 9.8290625 5.03710938 10.84375 5.6015625 C11.59140625 6.02308594 12.3390625 6.44460937 13.109375 6.87890625 C12.24753369 11.43040984 9.59976106 13.93957522 6.421875 17.12890625 C5.90431641 17.68320313 5.38675781 18.2375 4.85351562 18.80859375 C2.21051497 21.48121707 0.79569703 22.76120159 -2.98828125 23.41015625 C-6.1586605 22.82984457 -8.0055782 21.96435264 -10.640625 20.12890625 C-11.39859375 19.6184375 -12.1565625 19.10796875 -12.9375 18.58203125 C-14.9760441 16.80442079 -15.87608814 15.36128368 -16.890625 12.87890625 C-15.1426049 11.27253605 -13.39230856 9.66877328 -11.640625 8.06640625 C-11.14949219 7.61458984 -10.65835938 7.16277344 -10.15234375 6.69726562 C-8.74399116 5.41097026 -7.31763037 4.14447666 -5.890625 2.87890625 C-5.19453125 2.25628906 -4.4984375 1.63367188 -3.78125 0.9921875 C-1.890625 -0.12109375 -1.890625 -0.12109375 0 0 Z " fill="#E8E4E5" transform="translate(132.890625,168.12109375)"/>
<path d="M0 0 C0.32613281 0.80824219 0.65226562 1.61648437 0.98828125 2.44921875 C1.42527344 3.51785156 1.86226562 4.58648437 2.3125 5.6875 C2.74175781 6.74324219 3.17101562 7.79898438 3.61328125 8.88671875 C4.89032901 11.7537809 6.32404122 14.35090386 8 17 C2.33268868 22.27877224 -3.426549 26.89742065 -10 31 C-13.38342635 25.88860948 -15.93918517 21.3949715 -15.546875 15.12890625 C-14.5198755 11.13094392 -11.9772937 8.72432103 -9 6 C-8.37738281 5.41734375 -7.75476563 4.8346875 -7.11328125 4.234375 C-2.39412967 0 -2.39412967 0 0 0 Z " fill="#DE3E57" transform="translate(105,165)"/>
<path d="M0 0 C0.23074219 0.56847656 0.46148437 1.13695312 0.69921875 1.72265625 C2.94093896 7.03012821 5.49691613 11.42652939 9 16 C8.360625 16.61875 7.72125 17.2375 7.0625 17.875 C2.85331938 22.07201536 -1.04656399 26.56422757 -5 31 C-9.89194547 26.6369135 -12.32614258 22.51903319 -13.5625 16.0625 C-12.62963153 10.98354947 -5.76854919 0 0 0 Z " fill="#DD3E57" transform="translate(138,133)"/>
<path d="M0 0 C0.18175781 0.66386719 0.36351563 1.32773438 0.55078125 2.01171875 C1.9185444 6.81642521 3.40319842 10.71527739 6 15 C4.5767863 19.26964109 1.48061703 20.1876362 -2.3125 22.125 C-2.98990234 22.48464844 -3.66730469 22.84429687 -4.36523438 23.21484375 C-7.57004641 24.88773684 -10.45183361 26.21716533 -14 27 C-16.46863407 22.37131111 -16.94405577 17.12030249 -16 12 C-13.38745156 7.9679873 -10.37779339 5.67878126 -6.3125 3.1875 C-5.33925781 2.58292969 -4.36601563 1.97835937 -3.36328125 1.35546875 C-1 0 -1 0 0 0 Z " fill="#DD3E57" transform="translate(68,194)"/>
<path d="M0 0 C5.94 0.66 11.88 1.32 18 2 C17.38125 4.51625 16.7625 7.0325 16.125 9.625 C15.83906982 10.79603271 15.83906982 10.79603271 15.54736328 11.99072266 C14.53712756 16.06372009 13.38834662 20.03508217 12 24 C5.88246503 22.74512103 0.78990787 18.88477014 -3 14 C-3.89965263 8.41268367 -2.13811772 5.70164725 0 0 Z " fill="#D3D2D2" transform="translate(163,90)"/>
<path d="M0 0 C7.5 3 7.5 3 15 6 C14.16132181 11.90219779 11.45235487 16.07194113 7 20 C2.16026601 21.59304303 -2.02539648 20.2142156 -6.5 18.125 C-9.82926829 16.34146341 -9.82926829 16.34146341 -11 14 C-7.37 9.38 -3.74 4.76 0 0 Z " fill="#E9E6E7" transform="translate(162,135)"/>
<path d="M0 0 C6.56232989 2.76308627 10.91237246 6.09848774 15 12 C15 12.66 15 13.32 15 14 C15.66 14.33 16.32 14.66 17 15 C7.60526316 22 7.60526316 22 2.125 22 C-2.14807672 20.63261545 -4.81475086 18.08158718 -8 15 C-7.19172761 11.09060087 -5.51340964 9.10480014 -3 6 C-1.95548562 4.02288349 -0.94301862 2.02749004 0 0 Z " fill="#D3D1D1" transform="translate(162,51)"/>
<path d="M0 0 C7.71428571 7.71428571 7.71428571 7.71428571 8.625 11.8125 C7.80806148 15.97888646 5.92482036 17.79609937 3.01953125 20.77734375 C1 22 1 22 -1.37890625 21.90625 C-4.49639988 20.82836845 -6.98492941 19.35979588 -9.75 17.5625 C-10.71421875 16.94503906 -11.6784375 16.32757813 -12.671875 15.69140625 C-15 14 -15 14 -16 12 C-10.72 8.04 -5.44 4.08 0 0 Z " fill="#DD3E57" transform="translate(116,54)"/>
<path d="M0 0 C2.5 2.5 2.5 2.5 5 5 C5.763125 5.721875 6.52625 6.44375 7.3125 7.1875 C9 9 9 9 9 11 C9.99 11.33 10.98 11.66 12 12 C11.36838761 15.45807781 9.99727014 17.75392417 8 20.625 C5.84472887 23.72090305 5.84472887 23.72090305 4 27 C-1.98012709 25.08472931 -4.2081426 21.41786188 -7 16 C-7.90033509 12.39865964 -7.49092498 10.8645493 -5.67578125 7.66796875 C-1.96959459 1.96959459 -1.96959459 1.96959459 0 0 Z " fill="#E9E6E7" transform="translate(85,53)"/>
<path d="M0 0 C2.66465243 1.23113688 4.22614245 2.22019133 6.375 4.3125 C11.20448764 8.53830169 18.00274898 10.0693781 24 12 C24 12.33 24 12.66 24 13 C19.6822542 12.49202991 15.96697886 11.80317221 12 10 C11.814375 10.78375 11.62875 11.5675 11.4375 12.375 C9.4134714 17.47907213 6.24945024 21.60368497 3 26 C-1.72044782 22.32854059 -5.28412696 19.42028231 -6.5625 13.3125 C-5.69201486 8.18630972 -2.84507372 4.28454555 0 0 Z " fill="#D63D55" transform="translate(157,104)"/>
<path d="M0 0 C0.0810206 2.10353495 0.13919907 4.20795952 0.1875 6.3125 C0.23970703 8.07013672 0.23970703 8.07013672 0.29296875 9.86328125 C0 13 0 13 -1.359375 14.83984375 C-4.06932276 16.75616395 -6.55613161 18.18921662 -9.9375 17.74609375 C-14.97182002 15.92496662 -18.4014454 11.0619517 -20.9375 6.5625 C-21.288125 5.716875 -21.63875 4.87125 -22 4 C-14.50811985 1.35286902 -8.02072623 -0.16041452 0 0 Z " fill="#D4D3D3" transform="translate(139,47)"/>
<path d="M0 0 C6.48409637 0.48030344 12.19183947 1.99968316 18 5 C18.33 5.66 18.66 6.32 19 7 C14.2369186 14.39098837 14.2369186 14.39098837 12 16 C7.60148477 16.10407446 3.38600533 15.47768375 -1 15 C-0.67 10.05 -0.34 5.1 0 0 Z " fill="#DE3F58" transform="translate(141,47)"/>
<path d="M0 0 C2.08765411 6.04320928 2.23415997 11.65166295 2 18 C-5.84984026 18.60383387 -5.84984026 18.60383387 -9.5 16.6875 C-11.89347895 12.39918356 -11.83311245 7.83973906 -12 3 C-10.5682384 2.30062798 -9.12932968 1.61587282 -7.6875 0.9375 C-6.48673828 0.36322266 -6.48673828 0.36322266 -5.26171875 -0.22265625 C-3 -1 -3 -1 0 0 Z " fill="#DD3E57" transform="translate(175,72)"/>
<path d="M0 0 C0.33 0.99 0.66 1.98 1 3 C0.67 3.66 0.34 4.32 0 5 C-0.70970809 9.96795663 0.59980657 13.01060977 3.30859375 17.0390625 C7.40367241 21.78670565 13.08455006 25.04328149 19 27 C21.66723306 27.23923539 21.66723306 27.23923539 24.3125 27.125 C25.19550781 27.10695313 26.07851562 27.08890625 26.98828125 27.0703125 C27.98408203 27.03550781 27.98408203 27.03550781 29 27 C28.67 28.32 28.34 29.64 28 31 C18.33211223 31.61383414 11.42827103 28.76910387 3.86328125 22.765625 C-0.56447001 18.56993618 -3.6995615 14.2908436 -4.5 8.1875 C-4.04688371 5.29888368 -3.65480062 3.39026757 -2 1 C-1.34 0.67 -0.68 0.34 0 0 Z " fill="#783142" transform="translate(79,58)"/>
<path d="M0 0 C1.54296875 1.23046875 1.54296875 1.23046875 3 3 C2.92578125 5.05078125 2.92578125 5.05078125 2.3125 7.3125 C2.10496094 8.10140625 1.89742187 8.8903125 1.68359375 9.703125 C0.85311206 12.49354347 -0.01625906 15.25957882 -1 18 C-2.65 18.33 -4.3 18.66 -6 19 C-5.72736328 18.19949219 -5.72736328 18.19949219 -5.44921875 17.3828125 C-3.5063945 11.62408217 -1.71615568 5.83006078 0 0 Z " fill="#C0A4AA" transform="translate(201,89)"/>
<path d="M0 0 C3.875 1.75 3.875 1.75 5 4 C5.06996014 5.70702735 5.08440154 7.41668003 5.0625 9.125 C5.05347656 10.03507812 5.04445312 10.94515625 5.03515625 11.8828125 C5.02355469 12.58148438 5.01195312 13.28015625 5 14 C4.01 14 3.02 14 2 14 C0.66416101 9.15758367 -0.25328119 5.06562383 0 0 Z " fill="#FF947F" transform="translate(191,65)"/>
<path d="M0 0 C0.66 0.66 1.32 1.32 2 2 C-6.85007633 5.63080055 -14.47198497 6.50740908 -24 6 C-23.67 5.34 -23.34 4.68 -23 4 C-20.25515854 3.57176905 -17.5745146 3.24796141 -14.8125 3 C-9.5896529 2.51912405 -4.94690134 1.89355075 0 0 Z " fill="#832C3F" transform="translate(196,86)"/>
<path d="M0 0 C1.45922693 0.11409593 2.91740598 0.24165544 4.375 0.375 C5.59316406 0.47941406 5.59316406 0.47941406 6.8359375 0.5859375 C9 1 9 1 11 3 C11 3.99 11 4.98 11 6 C6.428721 5.45144652 2.32564205 4.58255197 -2 3 C-1.34 2.01 -0.68 1.02 0 0 Z " fill="#FF907E" transform="translate(146,27)"/>
<path d="M0 0 C0 0.66 0 1.32 0 2 C0.66 2.33 1.32 2.66 2 3 C0.25447527 3.84266711 -1.4966208 4.67380038 -3.25 5.5 C-4.22453125 5.9640625 -5.1990625 6.428125 -6.203125 6.90625 C-9 8 -9 8 -13 8 C-11.99138318 5.39075213 -11.33501908 4.20251153 -8.90625 2.734375 C-8.1121875 2.40953125 -7.318125 2.0846875 -6.5 1.75 C-5.7059375 1.41484375 -4.911875 1.0796875 -4.09375 0.734375 C-2 0 -2 0 0 0 Z " fill="#B7969D" transform="translate(123,24)"/>
<path d="M0 0 C0.639375 0.680625 1.27875 1.36125 1.9375 2.0625 C7.89921944 7.99053741 14.35799607 12.52636185 22 16 C22 16.66 22 17.32 22 18 C14.12164448 17.00273981 7.42901719 10.92371948 2.3125 5.125 C0 2 0 2 0 0 Z " fill="#792538" transform="translate(152,122)"/>
<path d="M0 0 C1 2 1 2 0.9375 4.8125 C1.00120383 8.06139549 1.62955807 10.08781089 3 13 C0.625 12.75 0.625 12.75 -2 12 C-4.42363044 8.88390372 -4.17392151 5.82627315 -4 2 C-2.68 1.34 -1.36 0.68 0 0 Z " fill="#B6949C" transform="translate(82,61)"/>
<path d="M0 0 C0.66 0.99 1.32 1.98 2 3 C-7.7826087 14.39130435 -7.7826087 14.39130435 -13 17 C-13.99 16.67 -14.98 16.34 -16 16 C-15.50371094 15.6596875 -15.00742188 15.319375 -14.49609375 14.96875 C-8.88177911 10.96309098 -3.1420897 6.28417941 0 0 Z " fill="#802D40" transform="translate(188,54)"/>
<path d="M0 0 C2.20483512 2.09491666 3.94907153 4.2594148 5.6875 6.75 C8.92917583 11.15933236 12.76735038 14.56231503 17 18 C16.34 18.66 15.68 19.32 15 20 C8.48554181 14.8173866 3.59377141 9.58215301 0 2 C0 1.34 0 0.68 0 0 Z " fill="#7A293B" transform="translate(70,202)"/>
<path d="M0 0 C0.4125 0.37511719 0.825 0.75023437 1.25 1.13671875 C6.70460664 5.97037687 12.45029735 9.8050231 19 13 C16.33144232 14.04153868 15.28721669 14.12002389 12.59765625 12.99609375 C7.44782204 9.83001694 3.42561235 7.02423144 0 2 C0 1.34 0 0.68 0 0 Z " fill="#7D283B" transform="translate(129,161)"/>
<path d="M0 0 C2 1 2 1 3.1875 4.1875 C4.64994376 10.38871502 3.65114094 16.73496823 3 23 C2.67 23 2.34 23 2 23 C1.34 15.41 0.68 7.82 0 0 Z " fill="#863143" transform="translate(137,29)"/>
<path d="M0 0 C0.598125 0.226875 1.19625 0.45375 1.8125 0.6875 C1.5 2.5625 1.5 2.5625 0.8125 4.6875 C-2.1875 6.6875 -2.1875 6.6875 -6.1875 6.6875 C-5.78066505 4.32785727 -5.28935661 2.82815912 -3.875 0.875 C-2.1875 -0.3125 -2.1875 -0.3125 0 0 Z " fill="#FF937F" transform="translate(115.1875,194.3125)"/>
<path d="M0 0 C-1.49128001 3.79598549 -3.65733441 5.71720399 -7 8 C-7.99 8 -8.98 8 -10 8 C-9.02738378 4.72847271 -8.34232413 3.25454871 -5.5625 1.1875 C-3 0 -3 0 0 0 Z " fill="#FF8E7E" transform="translate(106,43)"/>
<path d="M0 0 C0.66 0 1.32 0 2 0 C2.37254569 3.35291118 2.31050198 4.6038423 0.1875 7.3125 C-2 9 -2 9 -5 9 C-4.42676569 5.13066838 -2.61046448 2.84777943 0 0 Z " fill="#FF927E" transform="translate(179,123)"/>
<path d="M0 0 C-0.37047118 2.74148672 -0.68587944 4.58593199 -2.375 6.8125 C-4 8 -4 8 -7 8 C-6.62952882 5.25851328 -6.31412056 3.41406801 -4.625 1.1875 C-3 0 -3 0 0 0 Z " fill="#FF8B7D" transform="translate(153,159)"/>
<path d="M0 0 C1.32 0 2.64 0 4 0 C3.6875 1.875 3.6875 1.875 3 4 C0 6 0 6 -4 6 C-2.84826645 3.53199953 -1.95216435 1.95216435 0 0 Z " fill="#FF927E" transform="translate(73,223)"/>
<path d="M0 0 C4.04964951 1.34988317 4.74190559 3.44179062 7 7 C8.31543279 8.68083079 9.64316249 10.3524116 11 12 C10.01 12 9.02 12 8 12 C5.95703125 9.62890625 5.95703125 9.62890625 3.8125 6.5625 C3.09707031 5.55316406 2.38164063 4.54382813 1.64453125 3.50390625 C0 1 0 1 0 0 Z " fill="#7E3445" transform="translate(90,190)"/>
<path d="M0 0 C4.2742558 1.5830577 6.26531794 4.50568404 9 8 C5.41087588 8 4.89142971 7.33563446 2.3125 5 C1.68988281 4.443125 1.06726563 3.88625 0.42578125 3.3125 C-0.04472656 2.879375 -0.51523438 2.44625 -1 2 C-0.67 1.34 -0.34 0.68 0 0 Z " fill="#E0D7DA" transform="translate(178,35)"/>
<path d="M0 0 C0.66 0.33 1.32 0.66 2 1 C0.19587357 4.26460973 -0.83394693 5.88929795 -4 8 C-4.99 7.67 -5.98 7.34 -7 7 C-4.66666667 4.66666667 -2.33333333 2.33333333 0 0 Z " fill="#742A3C" transform="translate(99,217)"/>
<path d="M0 0 C0.66 0.33 1.32 0.66 2 1 C1.1875 3.4375 1.1875 3.4375 0 6 C-0.99 6.33 -1.98 6.66 -3 7 C-3 6.34 -3 5.68 -3 5 C-3.66 4.67 -4.32 4.34 -5 4 C-3.35 2.68 -1.7 1.36 0 0 Z " fill="#BEA1A8" transform="translate(97,214)"/>
<path d="M0 0 C1.17539996 0.92652701 2.34010577 1.86663387 3.5 2.8125 C4.1496875 3.33457031 4.799375 3.85664063 5.46875 4.39453125 C7 6 7 6 7 9 C3.26115668 6.34345343 1.35021826 4.41889613 0 0 Z " fill="#822F41" transform="translate(129,161)"/>
<path d="M0 0 C0.33 0.66 0.66 1.32 1 2 C-1.36292656 4.52588702 -2.66462511 5.88820837 -6 7 C-4.60667426 3.63279613 -3.0210714 2.0140476 0 0 Z " fill="#752D3E" transform="translate(175,148)"/>
<path d="M0 0 C3.14737182 0.69941596 6.02588876 1.76078698 9 3 C9 3.66 9 4.32 9 5 C4.68607774 4.5206753 2.83430453 3.2542015 0 0 Z " fill="#7E3445" transform="translate(165,135)"/>
</svg>
