<svg xmlns="http://www.w3.org/2000/svg" width="256" height="256"><path fill="#41b3b4" d="m83.875 27.75 2.492-.078c4.828.602 7.834 2.448 11.082 6.027l2.239 2.989C101.84 39.64 101.84 39.64 104 42c2.954 0 5.902-.052 8.855-.105C145.023 41.455 173.15 48.3 197 71c16.45 16.274 27.054 38.718 28 62l.121 2.898c.566 27.482-8.613 53.479-27.523 73.594-17.058 17.433-41.022 28.417-65.49 28.75-27.556.076-51.456-7.64-72.108-26.242l-2.363-2.113c-15.15-14.314-26.43-35.76-27.83-56.783C29.08 124.2 34.051 101.138 50 77l1.092-1.698C52.035 73.85 53.014 72.422 54 71h1c-.527-4.788-.527-4.788-2.062-9.312-1.827-5.237-1.618-10.648.124-15.876 5.86-8.502 14.146-14.276 24.028-17.492 2.28-.382 4.472-.527 6.785-.57M77 36l-1 2 2.379-.14c6.871-.237 11.02.066 16.621 4.14-.322-3.007-1.008-4.008-3.187-6.187-5.595-3.606-9.22-3.324-14.813.187m29 10 1 2Zm-6 1-1 2 3-1zm2 1 4 1Zm-4 1 1 2Zm-1 2 1 2Zm-5 1-2 2h7c-2.382-1.414-2.382-1.414-5-2m-3 2 1 2Zm-1 2 1 2Zm-7 2v1h7v-1zm-2 3 1 2Zm-7 2v1h6v-1zm-9 5v1h6v-1zm-2 2 1 2Z"/><path fill="#41d8d8" d="m83.875 27.75 2.492-.078c4.828.602 7.834 2.448 11.082 6.027l2.239 2.989C101.84 39.64 101.84 39.64 104 42c2.954 0 5.902-.052 8.855-.105C145.023 41.455 173.15 48.3 197 71c16.45 16.274 27.054 38.718 28 62l.121 2.898c.566 27.482-8.613 53.479-27.523 73.594-17.058 17.433-41.022 28.417-65.49 28.75-27.556.076-51.456-7.64-72.108-26.242l-2.363-2.113c-15.15-14.314-26.43-35.76-27.83-56.783C29.08 124.2 34.051 101.138 50 77l1.092-1.698C52.035 73.85 53.014 72.422 54 71h1c-.527-4.788-.527-4.788-2.062-9.312-1.827-5.237-1.618-10.648.124-15.876 5.86-8.502 14.146-14.276 24.028-17.492 2.28-.382 4.472-.527 6.785-.57M77 36l-1 2 2.379-.14c6.871-.237 11.02.066 16.621 4.14-.322-3.007-1.008-4.008-3.187-6.187-5.595-3.606-9.22-3.324-14.813.187m29 10 1 2Zm-6 1-1 2 3-1zm2 1 4 1Zm-4 1 1 2Zm-1 2 1 2Zm-5 1-2 2h7c-2.382-1.414-2.382-1.414-5-2m-3 2 1 2ZM59.188 85C42.567 104.968 38.134 128.641 40 154c.722 5.546 2.167 10.713 4 16l1.063 3.145c8.382 22.208 25.634 39.507 47.097 49.296 18.993 7.731 40.063 9.504 59.84 3.559l3.504-1.031c13.17-4.28 23.63-11.364 33.496-20.969l2.625-2.437c17.52-18.903 24.249-41.262 23.746-66.63-1.009-22.234-12.1-43.74-28.09-59C147.598 42.299 93.75 47.527 59.188 85M88 56l1 2Zm-7 2v1h7v-1zm-2 3 1 2Zm-7 2v1h6v-1zm-9 5v1h6v-1zm-2 2 1 2Z"/><path fill="#42cdce" d="M176 72a149 149 0 0 1 5 5l-3.375.594C157.49 81.424 141.061 89.925 129 107l-1.249 2.562C126 112 126 112 123.403 112.947l-3.11.46-3.446.555-3.66.538C94.583 117.614 72.58 123.556 60 139v3l2.336-1.969 3.039-2.531 3.023-2.531C71 133 71 133 73 133c-.629 6.54-.629 6.54-2.562 8.938C68.122 145.26 68.683 148.006 69 152l2 3c.477 3.733.5 5.344-1.812 8.375C67 165 67 165 64 165v4l1.875-1c5.822-1.863 11.121-2.002 16.625.75 3.736 3.362 3.736 3.362 4.5 6.25-.158 3.783-.56 5.493-3.062 8.375L82 185l5 1 1 4c-3.313 1.041-4.602 1.186-7.812-.312L78 188v-2l-3 1c-5.698.538-8.551-.399-13-4-1.444-2.888-.973-5.53-.84-8.71-.181-2.597-.731-4.123-2.16-6.29-2.52-.737-2.52-.737-5-1-1-1-1-1-1.187-3.875C53 160 53 160 55 157l-4-8-5 9-2-1c-4.216-21.187.49-43.858 12.23-61.89C58.942 91.218 61.896 87.588 65 84l1.734-2.04C94.39 51.979 143.341 48.844 176 72"/><path fill="#5bbdbf" d="M138 141c1.36.965 2.69 1.969 4 3 2.3 1.103 4.633 2.044 7 3v2l-1 1 2.75-1.5c5.848-2.48 12.55-2.577 18.625-.809 4.762 2.156 7.889 4.863 10.625 9.309.728 4.168.968 6.362-1.18 9.996-2.906 3.622-5.324 5.603-9.82 7.004-5.615.556-12.045.88-17-2-5.284-5.831-7.386-12.428-9-20l-1.5 2.188c-3.687 4.147-7.86 7.537-13.5 8.125l-2-.313.063 2.375C126 167 126 167 125 169q.491 3.501 1 7c-1 1-1 1-3.937 1.25L119 177c-2-3-2-3-1.625-5l.625-2c0-3.702-.774-6.507-2-10l-2.125-2c-1.875-2-1.875-2-2.25-5.625C112 149 112 149 114 147a90 90 0 0 1 5.875-.312c4.926-.217 4.926-.217 8.75-3.188L130 141c2.941-1.47 4.853-.755 8 0"/><path fill="#5abcbe" d="M75 93c-.575 4.939-2.844 8.572-5.25 12.813C63.735 116.803 59.335 128.32 59 141c3.145 0 4.636-2.02 7-4 4.778-4 4.778-4 7-4-.629 6.54-.629 6.54-2.562 8.938C68.122 145.26 68.683 148.006 69 152l2 3c.477 3.733.5 5.344-1.812 8.375C67 165 67 165 64 165v4l1.875-1c5.822-1.863 11.121-2.002 16.625.75 3.736 3.362 3.736 3.362 4.5 6.25-.158 3.783-.56 5.493-3.062 8.375L82 185l5 1 1 4c-3.313 1.041-4.602 1.186-7.812-.312L78 188v-2l-3 1c-5.698.538-8.551-.399-13-4-1.444-2.888-.973-5.53-.84-8.71-.181-2.597-.731-4.123-2.16-6.29-2.52-.737-2.52-.737-5-1-1-1-1-1-1.187-3.875C53 160 53 160 55 157c-1.156-3.077-1.156-3.077-2.176-4.988-4.716-11.512-2.034-25.945 2.395-37.074C58.3 108.228 66.329 93 75 93"/><path fill="#5cbdbf" d="M156 109c-.613 2.962-1.254 4.38-3 7l3.043-.14c8.89-.286 17.94-.273 25.957 4.14 1.188 2.402 1.188 2.402 2 5q1.271 1.966 2.625 3.875c2.446 3.854 3.16 6.502 2.375 11.125-1.437 2.938-1.437 2.938-4 5-4.095 1.081-7.522.7-11.34-1.11-6.142-3.905-12.835-8.983-15.66-15.89v-3l-5 1 1 2c.438 2.813.438 2.813 0 6-3.168 3.554-4.779 4.756-9.437 5.688-4.668-.901-7.573-3.006-10.563-6.688-.695-2.203-.695-2.203-1-4l-4 1-1-4h4l-.035-2.117-.028-2.758-.035-2.742C132 116 132 116 133 114c2.607-.78 5.165-1.453 7.813-2.062l2.197-.526q2.993-.713 5.99-1.412l2.053-.556C153 109 153 109 156 109"/><path fill="#5abcbe" d="M143 168c1.924 1.776 2.823 3.607 3.89 5.977 1.894 4.42 1.894 4.42 5.485 7.398L155 182c3.09.865 5.431 1.541 7.938 3.563 1.685 3.867 1.161 7.423.062 11.437-2.246 2.995-3.449 3.816-7 5v5l2-1a403 403 0 0 1 5.75-.187c4.396-.235 4.396-.235 8.164-2.247l1.461-1.691L176 199c3.458-.068 5.134.19 7.676 2.566L185 203c-6.883 6.84-15.73 12.91-25 16-4-4.5-4-4.5-4-9l-5-1-2-7-2.125-.25c-6.25-1.63-10.164-5.635-13.875-10.75-2.852-5.211-4.172-10.13-3-16 3.148-5.585 6.64-7.649 13-7m-43 28c2 2 2 2 2.195 4.164l-.07 2.461-.055 2.477L102 207l1.875.875C106 209 106 209 108 211l2.438-.562L113 210c2.018 1.513 2.875 2.75 4 5l2.313-1.937c5.113-3.925 10.484-3.64 16.687-3.063 6.846 1.712 11.52 4.576 16 10v2c-7.399 2.974-14.691 3.33-22.562 3.375l-2.995.041-2.822-.018-2.549-.01L119 225c-2-3-2-3-2-7-2.016.716-2.016.716-4 2-.655 2.035-.655 2.035-1 4-10.047-1.49-19.057-5.28-28-10-.344-5.73-.41-10.113 3-15 4.49-3.98 7.212-4.558 13-3"/><path fill="#5bbdbf" d="M92 128c2.438 1.875 2.438 1.875 4 4v2l5 1v4h-3l.14 3c.276 8.414.255 14.993-5.6 21.664C91 165 91 165 88.186 165.625c-4.138-.812-5.418-2.489-7.93-5.75C77.702 156.065 77 153.605 77 149l-3-1 3-1-.105-1.758c-.181-5.215.094-8.777 3.105-13.242 3.787-3.998 6.545-4.793 12-4"/><path fill="#d6eeef" d="M199 124c4.556.556 4.556.556 6 2 .04 2 .043 4 0 6l-3 1 .494 1.716c.523 2.36.62 4.417.604 6.83l-.01 2.56-.025 2.644-.014 2.691q-.018 3.28-.049 6.559l3 1-1 3c-2.062.688-2.062.688-4 1l-.625 3.313c-2.56 10.011-8.7 18.866-16.375 25.687-2.777 1.277-2.777 1.277-5 2 .582-4.535 2.51-7.977 4.75-11.875 5.076-9.156 8.743-18.706 10.25-29.125l-4-2 3-2c1.964-2.946 2.284-3.826 2.563-7.16l.226-2.404.422-5.008.226-2.4.184-2.196C197 126 197 126 199 124"/><path fill="#5cbdbf" d="m156 109-2 8h-2q.212 2.188.438 4.375l.246 2.46c.207 2.208.207 2.208 1.316 4.165.438 2.813.438 2.813 0 6-3.168 3.554-4.779 4.756-9.437 5.688-4.668-.901-7.573-3.006-10.563-6.688-.695-2.203-.695-2.203-1-4l-4 1-1-4h4l-.035-2.117-.028-2.758-.035-2.742C132 116 132 116 133 114c2.607-.78 5.165-1.453 7.813-2.062l2.197-.526q2.993-.713 5.99-1.412l2.053-.556C153 109 153 109 156 109"/><path fill="#5abcbe" d="M120 117c4.068 3.13 6.295 7.688 7.125 12.688.137 3.172-.143 4.35-1.562 7.312-2.721 2.124-4.876 3.093-8.348 3.332-4.484-.672-7.754-3.571-11.215-6.332l-1.762-1.305c-3.581-2.76-5.984-5.793-8.238-9.695v-2q4.31-1.011 8.625-2l2.45-.578c8.67-1.974 8.67-1.974 12.925-1.422"/><path fill="#5abdbe" d="M117.012 178.582c4.628.973 7.323 3.665 10.363 7.106 2.097 4.275 2.583 7.638 1.625 12.312-1.364 2.838-2.498 3.879-5 6-4.708.883-7.115-.444-11-3-2.191-.696-2.191-.696-4-1v-2h-5l1-2h2l-.5-1.5c-.711-3.557-1.11-6.92-.5-10.5 2.963-4.445 5.602-5.795 11.012-5.418"/><path fill="#d4f3f3" d="M75 93c-.576 4.94-2.846 8.57-5.25 12.813C60.816 122.333 58.707 138.426 57 157l-3-1c-5.57-13.088-3.904-28.19 1.219-41.062C58.3 108.228 66.329 93 75 93"/><path fill="#5abcbe" d="M73 133c-.629 6.54-.629 6.54-2.562 8.938C68.122 145.26 68.683 148.006 69 152l2 3c.477 3.733.5 5.344-1.812 8.375C67 165 67 165 64 165l1.5 3.313C67 172 67 172 67 175c-3.786-.54-5.554-2.117-8-5v-2l-2.437-.437C54 167 54 167 53 166c-.04-2-.043-4 0-6l4-2-.035-1.687c-.062-5.21.285-10.157 1.035-15.313h3c2.5-1.77 2.5-1.77 5.063-4 4.729-4 4.729-4 6.937-4m70.762 79.719c3.459 1.98 5.7 4.208 8.238 7.281v2c-7.399 2.974-14.691 3.33-22.562 3.375l-2.995.041-2.822-.018-2.549-.01L119 225c-2-3-2-3-2-7l-2-1h2l.625-1.812c5.436-8.649 18.313-5.963 26.137-2.47"/><path fill="#5bbdbf" d="m186 173 2 1-1.715 2.922-2.222 3.828-1.131 1.922c-1.787 3.09-3.18 5.843-3.932 9.328 5.885-3.943 10.057-8.115 14-14l7 4c-.608 3.95-2.58 6.462-4.937 9.625l-2.153 2.914C191 197 191 197 189 199c-6.698-.592-12.596-5.177-17.062-10-2.22-3.437-2.722-4.995-1.938-9 1.438-2.312 1.438-2.312 4-4 2.307-.42 4.537-.624 6.879-.727 2.42-.152 2.42-.152 5.121-2.273"/><path fill="#5abcbe" d="M187 83c4.546 1.543 6.528 5.092 9.125 8.875l1.34 1.895C203 101.68 203 101.68 203 106c-3.677 2.354-6.704 2.389-11 2-3.02-1.898-3.02-1.898-5.812-4.375l-2.833-2.46A142 142 0 0 1 179 97c.317-3.733 2.416-6.284 4.563-9.25l1.94-2.703z"/><path fill="#5dbdbf" d="M110 161c2.563 1.563 2.563 1.563 4 4 0 6.382-2.551 10.382-6.812 14.938-3.367 1.635-5.65 1.027-9.188.062-2.999-3.048-3.438-5.558-3.687-9.75l-.2-2.984L94 165l2.313-.875c9.175-3.84 9.175-3.84 13.687-3.125"/><path fill="#5ebec0" d="M160.313 85.125C162 86 162 86 164 88c2.57.648 2.57.648 5 1l-1 4-4-1-1.066 1.61c-3.493 4.997-6.24 8.074-11.934 10.39-4.336.64-7.73.743-11.562-1.5L138 101c2.481-6.425 15.13-16.263 22.313-15.875"/><path fill="#42d9d9" d="M73.164 16.762C76.53 18.572 79.157 20.639 81 24v3c-2.687.813-2.687.813-6 1l-5-5c-4.197-.674-6.202-.468-9.875 1.688-2.416 2.63-3.04 3.765-3.125 7.312l1.125 3.063L59 38c-1.375 2.375-1.375 2.375-3 4-3-1-3-1-4.164-2.73-1.781-4.836-1.741-10.555-.113-15.438 4.394-8.344 12.809-10.109 21.441-7.07"/><path fill="#5bbdbf" d="M211 140c.689 13.49-1.48 24.598-7 37l-7-2c0-3.275.682-5.476 1.75-8.562l.984-2.942c1.423-2.805 2.355-3.462 5.266-4.496v-2l-2-1v-15c2.709-1.354 5.01-1.065 8-1m-19-30 2.438 1c4.3 1.207 8.132 1.177 12.562 1q.762 2.34 1.5 4.688l.844 2.636c.655 2.67.774 4.94.656 7.676l-1.937.313L206 128l-1 3-2-6-3.25.75c-3.75.25-3.75.25-5.969-1.344-2.288-3.09-2.196-4.855-2.031-8.656l.11-3.266z"/><path fill="#59bcbe" d="M58 188c7.439.317 12.682 3.64 17.871 8.895 3.795 4.613 4.917 8.16 5.129 14.105-3.478-1.56-6.272-3.632-9.25-6l-2.703-2.125L67 201v-2h-2c-1.727-1.898-1.727-1.898-3.625-4.375l-1.914-2.46C58 190 58 190 58 188"/><path fill="#66c2c3" d="M122 159.875c3 .125 3 .125 4 1.125.235 5.53.235 5.53-1 8q.491 3.501 1 7c-1 1-1 1-3.937 1.25L119 177c-2-3-2-3-1.625-5l.625-2q-.001-3.063-.062-6.125c.085-3.94.11-3.835 4.062-4"/><path fill="#d5eeee" d="M56.25 158.438C59 159 59 159 60.336 160.609c1.299 2.095 2.492 4.224 3.664 6.391l1.813 2.813C67 172 67 172 67 175c-3.786-.54-5.554-2.117-8-5v-2l-2.437-.437C54 167 54 167 53 166c-.125-3-.125-3 0-6 1-1 1-1 3.25-1.562"/><path fill="#d4eeee" d="m187 174 4 1c.938 2.5.938 2.5 1 6-2.869 4.403-6.636 8.082-11 11h-2c.603-4.507 2.366-7.859 4.563-11.812l.998-1.811q1.212-2.192 2.439-4.377"/><path fill="#58bcbe" d="M184 78c1.875 1.5 1.875 1.5 3 3l-3 6c-4.874-.453-7.39-1.709-11-5l1-3c3.227-1.315 6.564-1.292 10-1"/><path fill="#7ccacc" d="m186 173 2 1-7 13-5-2c-.043-2-.04-4 0-6 1-1 1-1 4.063-1.062L183 178l.375-1.937L184 174z"/><path fill="#7fcbcd" d="m57 149 1 3 2.375-.125C63 152 63 152 65 154c.125 2.625.125 2.625 0 5-3.118 1.603-4.39 2.19-7.812 1.125L55 159l2-1z"/><path fill="#a5dbdc" d="M115 211c.625 2.875.625 2.875 1 6-2 2-2 2-4.5 2.313L109 219c-2-3-2-3-1.75-5.625L108 211c2.667-1.333 4.167-.671 7 0"/><path fill="#a9dcdd" d="M156 116.313c2 .687 2 .687 4 2.687-.556 4.556-.556 4.556-2 6-2.437.25-2.437.25-5 0-2-3-2-3-1.75-5.625L152 117c2-1 2-1 4-.687"/><path fill="#a7dbdc" d="M122 159.875c3 .125 3 .125 4 1.125.04 2 .043 4 0 6-2.312 1.125-2.312 1.125-5 2l-3-2c-.25-3.062-.25-3.062 0-6 1-1 1-1 4-1.125"/><path fill="#6dc4c6" d="m173 151 4 2-1 4-2.25-.125c-2.838.129-4.338.696-6.75 2.125l-2-2c.375-2.125.375-2.125 1-4l2.375.125c2.786.162 2.786.162 4.625-2.125"/><path fill="#d6eeee" d="M192 110c3.161 1.37 3.993 1.99 6 5 .258 2.695.089 5.285 0 8h-3c-3.429-8.429-3.429-8.429-3-13"/><path fill="#eaf6f7" d="m187 174 4 1c1.125 5.75 1.125 5.75 0 8l-7-1c1.875-5.75 1.875-5.75 3-8"/><path fill="#79c9cb" d="M159 118c2.375-.187 2.375-.187 5 0 2 3 2 3 1.625 5.688L165 126c-4.75 1.125-4.75 1.125-7 0z"/><path fill="#58d2d3" d="m101 69 5 1c-.312 1.938-.312 1.938-1 4l-3 1-1 5-4-1 1-5h3z"/><path fill="#aaddde" d="M199 124c4.875.875 4.875.875 6 2 .04 2 .043 4 0 6l-3 1-1 2-.875-2.937c-.767-3.17-.767-3.17-3.125-4.063zM56.563 158.938 59 159l2 4h-2v5c-4.875-.875-4.875-.875-6-2-.125-3-.125-3 0-6 1-1 1-1 3.563-1.062"/><path fill="#5fbec0" d="M52 150c2 3 2 3 3 6l2 2-3 2c-1.192 2.05-1.192 2.05-2 4-3.054-6.352-3.054-6.352-2.812-9.25C50 153 50 153 52 150"/><path fill="#79c9cb" d="M99 208h3c2.108 2.888 3 4.385 3 8h-6a177 177 0 0 1-1-7z"/><path fill="#b0dfe0" d="m142 144 7 3v2l-2 1-1 3-7-2v-2l2-1c.652-2.025.652-2.025 1-4"/><path fill="#b3e0e1" d="M77 142h2l1 2c2.025.652 2.025.652 4 1v2l-2 1c-1.134 2.017-1.134 2.017-2 4l-2-2a89 89 0 0 0-4-2l3-1z"/><path fill="#b5e1e2" d="m108 191 2 1v2h5l-1.375 1.25c-1.685 1.814-2.618 3.503-3.625 5.75l-1-3h-5l1.438-1.25c1.725-1.932 2.128-3.232 2.562-5.75"/><path fill="#91d3d4" d="m191 95 4 1 1 4c-1.875.625-1.875.625-4 1l-2-2c.375-2.125.375-2.125 1-4"/><path fill="#58d2d3" d="M104 100h3l1 5-4 1-2-4z"/><path fill="#8cd1d2" d="m152 204 4 1-1 5-4-1z"/><path fill="#94d4d5" d="m92 133 3 1v5l-5-1c.875-3.875.875-3.875 2-5"/><path fill="#65c1c3" d="M192 115c2 3 2 3 2.938 5.625L196 123l3 1-1 2c-4.875-1.75-4.875-1.75-6-4-.04-2.333-.043-4.667 0-7"/><path fill="#8cdcdd" d="M153 68q2.514.428 5 1l-1 4h-4c-.562-1.937-.562-1.937-1-4z"/><path fill="#96d5d6" d="m166 153 4 1-1 5-4-2z"/><path fill="#eff9f9" d="M57 140h1c.25 2.25.25 2.25 0 5-1.875 2.313-1.875 2.313-4 4h-2c.573-3.87 2.438-6.118 5-9"/><path fill="#6cc4c5" d="m191 102 4 1v4l-5-1z"/><path fill="#5ad2d3" d="m125 85 5 1v4h-5z"/><path fill="#e8f7f7" d="M54 128h5l-1 5-4-1z"/><path fill="#6ec5c6" d="M158 88h4v5l-5-1z"/><path fill="#8cdcdd" d="m101 69 5 1-1 4h-4z"/><path fill="#5ad2d3" d="m150 66 6 1-3 2v3l-4-1z"/><path fill="#66c2c3" d="M100 207c4.875.875 4.875.875 6 2 .04 2 .043 4 0 6-2-1.812-2-1.812-4-4v-3z"/><path fill="#90d2d3" d="m79 185 5 1-1 4-4-1z"/><path fill="#8ed2d3" d="m164 88 5 1-1 4-4-1z"/><path fill="#a1d9da" d="m202 153 1 3 3 1-1 3c-2.062.688-2.062.688-4 1z"/><path fill="#ecf7f7" d="M195 146h5v2l-2 1c-1.134 2.017-1.134 2.017-2 4-1-1-1-1-1.062-4.062z"/><path fill="#a9dcdd" d="m186 173 2 1-3 6h-2c-.187-2.375-.187-2.375 0-5z"/></svg>