<svg xmlns="http://www.w3.org/2000/svg" width="256" height="256"><path fill="#009578" d="M126 0h4q1.256 2.434 2.5 4.875l1.406 2.742C135 10 135 10 135 12l2.992.367 3.883.508 3.867.492C149 14 149 14 151 16l-3.375 3.875-1.898 2.18A91 91 0 0 1 142 26a88 88 0 0 0 .375 7.625l.172 2.14c.141 1.746.296 3.49.453 5.235-4.73 1.217-6.763.463-11-2 1.28 10.255 6.88 16.402 13.308 23.966 2.847 3.422 5.512 6.98 8.192 10.534a623 623 0 0 0 14.719 18.68c4.846 5.967 6.395 9.202 5.781 16.82-3.089 2.06-3.71 2.239-7.187 2.125L163 111l2.387 2.902C196.758 152.195 196.758 152.195 196 163c-.937 2.375-.937 2.375-3 4-2.992.626-5.949.872-9 1 5.11 6.674 10.241 13.33 15.438 19.938l1.375 1.751c2.346 2.985 4.704 5.96 7.082 8.92 17.688 22.109 17.688 22.109 17.5 34.79C225 236 225 236 222.625 239.124c-4.876 3.483-8.739 3.436-14.625 2.875-8.346-1.94-15.662-5.667-23-10l-.297 2.598c-.875 6.695-1.699 11.896-5.703 17.402-3.874 1.937-7.803 1.77-12 1-8.909-4.411-15.585-12.17-20-21l-.7 1.871c-6.708 17.422-6.708 17.422-14.3 22.129-4.178.671-6.315.329-10.125-1.5-5.909-5.138-9.122-11.919-10.875-19.5v-4c-2.24 2.14-4.106 4.378-5.937 6.875l-1.602 2.14a187 187 0 0 0-3.273 4.61c-4.605 5-9.472 8.709-16.438 9.063-3.61-.242-4.687-.643-7.75-2.813-4.096-5.888-4.476-11.903-5-18.875l-3.254 1.68-4.308 2.195-2.135 1.105C53.79 240.79 46.494 243.174 38 242c-3.109-1.329-5.45-2.901-7-6-1.435-10.14 2.034-17.666 8.016-25.71a289 289 0 0 1 4.504-5.388c2.71-3.172 5.29-6.425 7.855-9.714l2.781-3.555 1.41-1.804q2.196-2.798 4.403-5.587l1.475-1.868q1.38-1.748 2.764-3.492c3.058-3.877 5.946-7.848 8.792-11.882l-3.187.688c-4.222.345-5.56-.104-8.813-2.688-1.89-3.781-1.551-7.32-.27-11.227 3.018-6.687 7.574-11.941 12.36-17.402 2.86-3.272 5.53-6.663 8.16-10.121l1.239-1.627L86 120a1990 1990 0 0 1 5.82-7.488L93 111l-5.957.195C85 111 85 111 82 109c-.765-4.846-.456-7.852 2.188-12 3.65-5.005 7.632-9.772 11.565-14.557 4.726-5.754 9.285-11.621 13.77-17.565a241 241 0 0 1 8.602-10.753c3.58-4.522 4.779-9.539 5.875-15.125l-2.687 1.563c-3.616 1.569-4.65 1.38-8.313.437l.5-3c1.207-7.613 1.207-7.613-1.18-14.672-2.14-2.095-2.14-2.095-4.437-3.812C106 18 106 18 105 15c5.33-1.7 10.431-2.52 16-3l.813-2.625C122.97 6.082 124.383 3.089 126 0"/><path fill="#00b292" d="M126 0h4q1.256 2.434 2.5 4.875l1.406 2.742C135 10 135 10 135 12l2.992.367 3.883.508 3.867.492C149 14 149 14 151 16l-3.375 3.875-1.898 2.18A91 91 0 0 1 142 26a88 88 0 0 0 .375 7.625l.172 2.14c.141 1.746.296 3.49.453 5.235-4.73 1.217-6.763.463-11-2 1.28 10.255 6.88 16.402 13.308 23.966 2.847 3.422 5.512 6.98 8.192 10.534a623 623 0 0 0 14.719 18.68c4.846 5.967 6.395 9.202 5.781 16.82-3.089 2.06-3.71 2.239-7.187 2.125L163 111l2.387 2.902C196.758 152.195 196.758 152.195 196 163c-.937 2.375-.937 2.375-3 4-2.992.626-5.949.872-9 1 5.11 6.674 10.241 13.33 15.438 19.938l1.375 1.751c2.346 2.985 4.704 5.96 7.082 8.92 17.688 22.109 17.688 22.109 17.5 34.79C225 236 225 236 222.625 239.124c-4.876 3.483-8.739 3.436-14.625 2.875-9.368-2.177-20.268-5.965-26-14l-2.25-.875c-7.748-3.17-11.087-8.926-14.684-16.223-1.057-2.877-1.294-4.87-1.066-7.902h-2l.691 1.863.871 2.45.88 2.425C165 212 165 212 164 215c-13.858-14.196-28.68-33.038-35-52l1-1-3-2c-1.06-1.924-1.06-1.924-2.008-4.246l-1.05-2.537-1.067-2.655-1.09-2.642c-2.137-5.208-3.815-9.561-4.035-15.232-.374-4.543-1.077-6.663-4.402-9.95-2.985-3.85-4.265-9.042-5.348-13.738l1-2 2 1-.707-1.719c-.293-2.281-.293-2.281 1.07-4.5l1.95-2.281c3.405-4.035 5.53-6.718 6-12.062-.058-3.312-.058-3.312-1.438-5.376-2.66-1.507-4.877-1.262-7.875-1.062l-.687 2.438L108 86c-2.582.66-2.582.66-5 1-1.369-5.812-2.302-10.801.844-16.113a163 163 0 0 1 6.745-7.399C117.542 56.153 122.283 49.023 124 39l-2.687 1.563c-3.616 1.569-4.65 1.38-8.313.437l.5-3c1.207-7.613 1.207-7.613-1.18-14.672-2.14-2.095-2.14-2.095-4.437-3.812C106 18 106 18 105 15c5.33-1.7 10.431-2.52 16-3l.813-2.625C122.97 6.082 124.383 3.089 126 0"/><path fill="#009276" d="M150 201c5.951 3.042 9.703 7.962 14 13l-2-11h2l.445 1.871c2.674 10.094 6.804 16.657 15.797 22.133L182 228l1-2c2.44 4.881 1.58 12.277.469 17.496-1.383 3.975-2.86 7.283-6.469 9.504-4.726 1.164-8.458.772-12.816-1.41-7.022-4.756-11.736-10.443-16.184-17.59l-1.198-1.911a331 331 0 0 1-3.74-6.214l-1.182-1.953c-2.712-4.78-4.19-9.368-3.88-14.922 1.258-2.629 1.258-2.629 3.125-4.562l1.82-2.004c2.576-1.798 3.972-1.82 7.055-1.434"/><path fill="#df9f2d" d="M126 0h4q1.256 2.434 2.5 4.875l1.406 2.742C135 10 135 10 135 12l2.992.367 3.883.508 3.867.492C149 14 149 14 151 16l-3.375 3.875-1.898 2.18A91 91 0 0 1 142 26a88 88 0 0 0 .375 7.625l.172 2.14c.141 1.746.296 3.49.453 5.235-4.73 1.217-6.763.463-11-2l2 10h-12l2-10-2.687 1.563c-3.616 1.569-4.65 1.38-8.313.437l.5-3c1.207-7.613 1.207-7.613-1.18-14.672-2.14-2.095-2.14-2.095-4.437-3.812C106 18 106 18 105 15c5.33-1.7 10.431-2.52 16-3l.813-2.625C122.97 6.082 124.383 3.089 126 0"/><path fill="#02e1b7" d="M188 192c4.202-.412 6.272-.558 9.688 2.063 4.547 5.776 8.45 12.533 9.875 19.812L208 216l2 1v2h-3v5l-3 1c-1.15 1.967-1.15 1.967-2 4l-1 1c-3.396 0-5.967-.177-8.691-2.348-6.627-7.29-8.649-16.25-8.61-25.879.444-4.09 1.938-6.45 4.301-9.773"/><path fill="#007f66" d="M114 123c2.375 1.438 2.375 1.438 4 4 1.251 6.5-.496 11.565-4 17-3.518 5.07-7.669 8.073-12.793 11.484-2.28 1.467-2.28 1.467-4.207 3.516-2.323.4-4.657.74-7 1 3.75-3 3.75-3 6-3l-1-2.562c-1.637-5.627-1.568-10.142 1-15.438l2.375.188L101 139c2.152-3.228 2.2-4.284 2-8h-2c2.342-5.962 6.557-9.097 13-8"/><path fill="#00977a" d="M101 76c2 2 2 2 2.266 4.094l-.016 2.406.016 2.406C103 87 103 87 101 89c-.167 3.583-.167 3.583 0 7l4 1 1 7-1.68.516c-4.468 1.305-4.468 1.305-7.57 4.484l-.75 2c-2.125 1.75-2.125 1.75-4 3l1-3-5.957.195C85 111 85 111 82 109c-.765-4.846-.456-7.852 2.188-12 5.273-7.24 11.1-14.104 16.812-21"/><path fill="#007a63" d="M80.438 193.563C83 194 83 194 84.75 196.063c1.413 3.32 1.78 6.373 2.25 9.937l2 2c.125 3.125.125 3.125 0 6l-2.562.875c-4.253 2.071-6.262 5.862-8.727 9.75-1.7 2.36-3.302 3.776-5.711 5.375-3.554-6.16-3.914-13.659-2.469-20.523 1.594-5.768 4.187-14.709 10.906-15.915"/><path fill="#00a084" d="M167 194c3.331.574 4.8 1.455 7 4 4.162 7.255 9.992 19.92 8.602 28.441L182 228c-6.178-1.872-10.421-5.442-13.781-10.887-4.615-8.848-4.615-8.848-4.219-14.113l3-1z"/><path fill="#f1af32" d="M127 23c3.471 1.157 3.816 1.825 5.7 4.816l1.474 2.315 1.513 2.432 1.55 2.443A963 963 0 0 1 141 41c-3 1-3 1-6.187-.437L132 39l2 10h-12l2-10-2.812 1.563C118 42 118 42 115 41z"/><path fill="#01775f" d="m119 197 5 1v13l-6 2v2.75c0 7.25 0 7.25-1.531 8.953l-1.969 1.547-1.969 1.578L111 229c-2.606-2.606-2.328-3.805-2.375-7.437.193-10.066 3.388-17.417 10.375-24.563"/><path fill="#008a71" d="M139.063 131.125C141 132 141 132 143 135c1.114 8.145-.898 14.453-5 21.375-2 2.625-2 2.625-5 4.625l-2-1 1-3-.937-2.187c-2.575-6.816-.877-12.156 1.769-18.614 2.805-5.282 2.805-5.282 6.23-5.074"/><path fill="#006e58" d="M147.613 200.648C150 201 150 201 152 203c.125 3.125.125 3.125 0 6l-4 2 .035 2.957.028 3.856.035 3.832C148 225 148 225 147 228c-2.817-1.035-3.877-1.803-5.484-4.39l-1.266-2.86-1.297-2.828c-1.059-3.246-1.349-5.53-.953-8.922 1.355-2.336 1.355-2.336 3.188-4.375l1.792-2.086C145 201 145 201 147.613 200.65"/><path fill="#02a184" d="M145 86v8h7c.25 7.5.25 7.5-2 12l10 1v1h-14v-2l-2.75-1.75c-3.592-2.487-5.33-4.333-7.25-8.25.06-3.573.303-5.92 2.25-8.937 2.334-1.417 4.071-1.28 6.75-1.063"/><path fill="#e0a02e" d="m106 16 21 5c-2.25 6.75-2.25 6.75-4.383 9.867l-1.347 1.992-1.395 2.016-1.418 2.086A996 996 0 0 1 115 42l-2-1 .5-3c1.21-7.635 1.21-7.635-1.215-14.707-2.169-2.123-2.169-2.123-4.5-3.875L106 18z"/><path fill="#01977c" d="M117 81c1.813 1.125 1.813 1.125 3 3 .865 5.517-.527 8.822-3.566 13.266-1.886 2.281-3.71 3.587-6.434 4.734h-3c-.687-2.312-.687-2.312-1-5l1.5-1.437L109 94c-.245-2.998-.653-5.307-2-8 2.682-5.236 4.213-6.694 10-5"/><path fill="#f7b032" d="M129 0c6 8 6 8 6 12l14 2c-2.23 2.23-3.13 2.436-6.133 3.07l-2.2.477-2.792.578L129 20z"/><path fill="#f8b132" d="M126 0h1v20l-8.875-1.875-2.792-.578-2.2-.477-2.254-.476C109 16 109 16 107 14l14-2 2-6a199 199 0 0 1 3-6"/><path fill="#004236" d="m158 133 .938 2.438c.825 2.453.825 2.453 2.062 3.562-.01 3.011-.133 6.01-.258 9.02.287 3.31 1.035 4.577 3.258 6.98l-6-3-1 3c-1-2-1-2-.406-3.883.644-2.158.644-2.158-.625-4.047l-1.469-1.945c-1.986-2.957-2.5-3.81-2.5-7.5 1.198-3.146 2.468-4.625 6-4.625"/><path fill="#634714" d="M127 0h2v20c5.747-1.68 5.747-1.68 11.487-3.381l2.185-.623 2.222-.65c2.345-.385 3.864-.075 6.106.654l-3.07.805-4.055 1.07-2.016.527C135.862 19.985 135.862 19.985 130 22l-1 2h-3v-2l-21-6c3.71-.928 4.672-1.082 8.11-.223l2.06.5 2.58.66L126 19z"/><path fill="#e4495b" d="M132 109c3.38.356 6.043 1.357 9 3h-2l-.437 2.938C138 118 138 118 137 119c-2.937.25-2.937.25-6 0-2-3-2-3-1.75-5.562C130 111 130 111 132 109"/><path fill="#d99824" d="M119 211c3.625.375 3.625.375 7 1 1.323 5.411 1.323 5.411-.062 7.938-2.874 1.575-4.852.867-7.938.062-1-1-1-1-1.187-3.937C117 213 117 213 119 211"/><path fill="#cf1c3a" d="M87 206c2 2 2 2 2.313 5L89 214c-3 2-3 2-5.562 1.75C81 215 81 215 79 213c.25-3.062.25-3.062 1-6 2.513-1.256 4.217-1.209 7-1"/><path fill="#bbf4f9" d="M119.938 159.813C123 160 123 160 125 162c.313 3 .313 3 0 6-3 2-3 2-5.562 1.813C117 169 117 169 115 166c.704-5.917.704-5.917 4.938-6.187"/><path fill="#d01c3a" d="m105 86.688 3 .312c2 3 2 3 1.75 5.563C109 95 109 95 107 97c-3.125-.375-3.125-.375-6-1-.625-3.375-.625-3.375-1-7 2-2 2-2 5-2.312"/><path fill="#00deb4" d="M216.563 222.25C219 223 219 223 221 225c-.33 3.297-.623 4.623-3 7-2.5.25-2.5.25-5 0-2-2-2-2-2.312-5l.312-3c3-2 3-2 5.563-1.75"/><path fill="#d99824" d="M96 130c3.625.375 3.625.375 7 1 .688 2.25.688 2.25 1 5-1.437 2.313-1.437 2.313-3 4-5.875-.875-5.875-.875-7-2-.187-2.937-.187-2.937 0-6z"/><path fill="#d11a39" d="M147.438 200.813C150 201 150 201 152 203c.25 3 .25 3 0 6-2 2-2 2-4.437 2.375-2.563-.375-2.563-.375-4.5-2.062-1.063-2.313-1.063-2.313-.313-5 1.77-3.276 1.77-3.276 4.688-3.5"/><path fill="#dcf7f9" d="M161 193c3.297.33 4.623.623 7 3-.375 3.125-.375 3.125-1 6-5.434 1.328-5.434 1.328-7.937-.125C158 200 158 200 158.188 197.438 159 195 159 195 161 193"/><path fill="#ebb138" d="M149.563 85.188C152 86 152 86 154 88c-.33 3.297-.623 4.623-3 7-3.125-.375-3.125-.375-6-1-1.328-5.434-1.328-5.434.125-7.937C147 85 147 85 149.563 85.187"/><path fill="#dcf6f9" d="m163 129.688 3 .312c2 3 2 3 1.688 5.625C167 138 167 138 166 139c-2.937.188-2.937.188-6 0-2-2-2-2-2.25-4.5.383-3.832 1.5-4.422 5.25-4.812"/><path fill="#f6465b" d="M150.5 156.875C154 157 154 157 155 158c.188 2.938.188 2.938 0 6-2 2-2 2-4.5 2.25C148 166 148 166 146 164c-.187-3.062-.187-3.062 0-6 1-1 1-1 4.5-1.125"/><path fill="#e6faf6" d="m205 210 2 1 1 5 2 1v2h-3v5h-3l-.312-1.812c-.777-2.47-1.759-3.51-3.688-5.188l4-1-.062-2.437C204 211 204 211 205 210"/><path fill="#003f34" d="M138 88c1 2 1 2 .813 5.313.222 4.378 1.04 5.71 4.187 8.687 2.51 1.44 2.51 1.44 5 2l2-1v3l10 1v1h-14v-2l-2.75-1.75c-3.592-2.487-5.33-4.333-7.25-8.25.31-6.31.31-6.31 2-8"/><path fill="#01b293" d="M155 135h3c2.301 3.452 2.138 4.235 1.625 8.188l-.336 2.73L159 148c-4.95-4.791-4.95-4.791-5.125-9.062C154 136 154 136 155 135"/><path fill="#004236" d="M105 97c2 2 2 2 2 5l2.375-1.562L112 99l2 1-1.562 1.75c-1.682 2.109-1.682 2.109-1.188 4.375.738 1.92.738 1.92 1.75 3.875-3.875-1.75-3.875-1.75-5-4l-11 2c1-2 1-2 2.848-2.633l2.215-.492 2.222-.508L106 104z"/><path fill="#e1fbf6" d="m199 204 4 5-2 1-2 3-3-5 2-1z"/></svg>