<svg xmlns="http://www.w3.org/2000/svg" width="256" height="256"><path fill="#d0dbed" d="M188.129 46.137c3.025 2.214 5.96 4.5 8.871 6.863l2.656 2.152c15.746 13.438 24.177 30.727 26.031 51.223.703 12.133.27 24.238-.125 36.375l-.118 3.732c-.253 7.203-.695 14.35-1.444 21.518l2.344.902c6.799 2.81 9.6 7.716 12.656 14.098 2.297 6.892 2.026 14.764-1 21.375-3.8 6.584-9.386 11.89-16.742 14.184-7.979 1.56-14.876 1.113-22-2.942-5.971-4.277-10.003-9.602-12.258-16.617-.418-2.66-.696-5.324-1-8l-1.504 3.402c-7.45 16.553-7.45 16.553-13.496 22.598l-1.805 1.867c-6.604 5.576-14.612 5.033-22.77 4.384C106.115 219.079 63.875 195.484 35 168l-1.957-1.797c-3.842-3.635-7.107-7.667-10.355-11.828-.434-.55-.867-1.102-1.313-1.67C16.272 146.03 14.957 140.292 16 132c1.208-3.642 2.918-6.859 4.813-10.187l1.492-2.73C39.378 88.46 39.378 88.46 54.277 82.743c4.192-1.787 7.39-4.448 10.848-7.368 35.06-28.765 79.69-58.818 123.004-29.238M188 126l.016 1.769q.029 4.053.047 8.106l.025 2.781c.016 4.62-.133 9.08-.717 13.664-.468 4.126.127 6.772 1.629 10.68.283 2.648.502 5.223.625 7.875l.117 2.086q.138 2.52.258 5.039l2.2-2.293c2.45-2.37 4.757-4.187 7.613-6.02l2.394-1.55L204 167c-4.699-21.394-4.699-21.394-14-41zm1 52 1 2Z"/><path fill="#f62e42" d="M188.129 46.137c3.025 2.214 5.96 4.5 8.871 6.863l2.656 2.152c15.746 13.438 24.177 30.727 26.031 51.223.703 12.133.27 24.238-.125 36.375l-.118 3.732c-.253 7.203-.695 14.35-1.444 21.518l-2.54-.496c-3.665-.534-7.132-.601-10.835-.566l-3.773.027L204 167l-1.524-4.877q-.67-2.145-1.345-4.29a739 739 0 0 1-3.436-11.212c-.21-.702-.422-1.404-.64-2.127q-.879-2.934-1.746-5.873c-1.007-2.785-1.986-4.947-3.461-7.46C190 128 190 128 190 126h-2l.488 2.012c.619 3.611.703 7.148.7 10.8l.001 2.147c-.05 5.017-.608 9.299-2.189 14.041-5-5-5-5-7.375-7.437-6.323-6.173-13.23-11.242-20.5-16.25l-3.091-2.136C126.194 108.64 93.872 86.86 57 83c32.98-33.687 86.67-67.224 131.129-36.863"/><path fill="#f1f7fc" d="M108.018 98.507c17.304 8.661 33.14 19.434 48.982 30.493l5.117 3.543q2.255 1.57 4.508 3.144l1.987 1.383c8.992 6.35 15.812 12.927 20.888 22.867 1.572 9.627-1.137 17.845-6.312 25.875-5.247 5.247-9.002 6.489-16.375 6.813-12.791-.402-21.591-7.551-31.155-15.285-5.168-4.177-10.417-8.256-15.658-12.34l-2.263-1.772c-18.162-14.163-37.097-26.3-59.174-33.353C51.498 127.616 43.722 124.823 40 118c-1.38-4.081-1.614-7.388-.066-11.453 17.696-31.884 41.23-21.148 68.084-8.04"/><path fill="#d0dbed" d="M36 143c6.582.552 12.22 2.781 18.313 5.25l3.296 1.332c18.017 7.429 35.484 16.021 51.526 27.13a388 388 0 0 0 5.787 3.901c6.65 4.465 6.65 4.465 9.078 6.387v2l1.707.777c7.674 4.092 16.166 11.21 21.293 18.223-.262 2.266-.262 2.266-1 4-27.69 2.27-64.407-15.539-85.812-32.375C51.504 172.195 44.384 164.093 39 154l-1.875-3.312C35.953 147.888 35.735 146 36 143"/><path fill="#eff4fa" d="M127.563 179.125c11.28 7.622 22.3 15.712 31.437 25.875l1.656 1.832c3.665 4.51 3.83 7.623 3.344 13.168-11.363 5.682-30.919-.116-42.358-3.749C110.052 212.385 99.004 207.27 88 202l-1.826-.87c-11.795-5.642-22.962-12.115-33.362-20.067l-2.036-1.546C42.387 173.083 34.643 166.25 28 158l-2.465-3.027q-1.27-1.61-2.535-3.223l-2.375-3.016C19 146 19 146 19.075 143.777c1.551-2.979 4.068-4.153 6.925-5.777 29.997-9.198 78.114 25.59 101.563 41.125M36 143c.604 13.585 11.69 25.023 20.938 34 20.643 18.114 57.299 35.273 85.25 35.313L146 212c.994-1.683.994-1.683 1-4a52.6 52.6 0 0 0-5.375-5.812l-1.656-1.6C132.86 192.876 132.86 192.876 124 189v-2c-1.56-1.37-1.56-1.37-3.629-2.723l-2.361-1.617-2.573-1.722-2.644-1.782A982 982 0 0 0 105 174l-1.953-1.28c-16.197-10.475-33.95-18.956-51.86-26.032-.953-.38-1.907-.758-2.89-1.149C43.974 143.89 40.677 142.8 36 143"/><path fill="#cedaec" d="M231.313 171.125c6.782 7.255 9.132 14.649 9.023 24.45-.707 7.208-3.943 12.445-9.149 17.363-6.617 5.225-12.736 6.723-21.16 6.468-7.952-1.067-13.731-5.17-18.62-11.386-4.87-6.993-5.314-13.71-4.407-22.02 2-7.236 6.06-13.422 12.563-17.312 10.175-4.996 22.308-3.62 31.75 2.437"/><path fill="#df202d" d="M98 52c0 3 0 3-1.437 5.063-2.526 4.748-3.35 9.843-2.008 15.117 4.15 9.439 13.812 14.533 22.382 19.382l3.147 1.812a1134 1134 0 0 0 16.482 9.259c15.726 8.68 30.722 17.693 44.434 29.367l2.16 1.625c3.144 2.6 4.65 4.236 5.336 8.34.1 4.873.02 8.766-2.496 13.035l-1.074-1.617c-9.886-13.836-26.209-22.37-40.166-31.553a398 398 0 0 1-6.87-4.658C114.712 101.135 85.79 84.355 57 83c8.73-8.917 18.666-16.062 29-23l1.745-1.172Q92.861 55.397 98 52m49.277-4.844c4 .907 6.772 2.256 10.293 4.344l1.827 1.074q1.909 1.128 3.807 2.27a616 616 0 0 0 5.687 3.37c30.1 17.798 30.1 17.798 34.734 30.571 1.252 7.397-.273 13.267-2.5 20.278C198.501 117.707 196.802 126 196 135h-2c-4.382-6.323-5.66-11.963-6.547-19.543-.599-4.567-1.321-9.33-3.453-13.457l-1.84-.914c-3.109-1.563-4.358-3.873-6.348-6.711-4.217-5.772-8.99-10.608-14.25-15.437C142.381 61.323 142.381 61.323 140 55c.187-3.125.187-3.125 1-6 3-2 3-2 6.277-1.844"/><path fill="#f1f6fb" d="M228 169c6.291 4.036 9.673 10.02 12 17 .12 2.164.175 4.332.188 6.5l.042 3.469C240 199 240 199 238 202v-2l-3.875-.113-5.125-.2-2.543-.068c-8.087-.345-14.868-2.202-20.918-7.838-5.704-6.601-6.254-14.364-6.539-22.781 9.657-4.373 19.24-4.245 29 0"/><path fill="#080101" d="M151 59c11.199.861 19.753 9.265 26.977 17.16C190.627 91.514 192.546 107.866 192 127l-3-1-.262-2.64c-2.553-21.647-14.884-37.036-30.14-51.637l-1.692-1.635a193 193 0 0 0-3.286-3.08c-1.48-1.414-1.48-1.414-3.62-4.008.172-2.344.172-2.344 1-4"/><path fill="#0d0708" d="M60 79c9.48 2.208 18.77 4.922 28 8l2.542.848C123.851 99.109 151.59 116.87 177 141l2.773 2.543 2.54 2.394 2.238 2.09C186 150 186 150 185.73 152.254L185 154l-.855-1.398c-9.133-13.552-26.034-21.989-39.385-30.772a398 398 0 0 1-6.87-4.658C114.712 101.135 85.79 84.355 57 83z"/><path fill="#e12c39" d="M62 152c21.81 6.878 41.86 20.327 60 34-3.903 1.301-6.202.161-9.875-1.25l-2.094-.8C96.492 178.579 82.759 171.94 72 162l-2.809-2.457c-4.906-4.321-4.906-4.321-7.191-6.543z"/><path fill="#1a1b1b" d="M17 145c3.875 1.5 5.442 3.671 7.75 7.063C30.624 160.384 37.09 167.58 45 174l2.832 2.305C73.179 196.55 105.14 212.636 137 219l2.363.533c2.708.48 5.19.58 7.938.565l2.959-.01 3.053-.025 3.11-.014q3.79-.02 7.577-.049l-1-10 2.313 2.375c2.596 2.698 2.596 2.698 5.687 4.625-5.159 5.069-10.231 6.631-17.375 6.625C111.113 222.601 65.027 196.581 35 168l-1.957-1.797c-3.878-3.669-7.15-7.745-10.418-11.953l-1.338-1.72c-1.906-2.503-3.285-4.523-4.287-7.53"/><path fill="#e32330" d="m199 148 2.168 1.39c7.372 4.54 14.462 7.436 22.832 9.61v9l-2.54-.496c-3.665-.534-7.132-.601-10.835-.566l-3.773.027L204 167a2224 2224 0 0 1-2.5-7.812l-.723-2.237c-.976-3.084-1.777-5.696-1.777-8.951"/><path fill="#27292b" d="M189 182h1l.262 3.148c.971 10.177 2.301 19.177 10.3 26.352 4.454 3.538 7.98 4.753 13.688 5.125l3.266.227L220 217l-1 2c-8.512.658-14.937.059-22-5-5.57-5.024-9.659-10.512-10.242-18.187-.197-9.819-.197-9.819 2.242-13.813"/><path fill="#121313" d="M92 204a192 192 0 0 1 16.092 5.906c9.508 3.97 18.821 6.971 28.908 9.094l2.374.537c2.703.477 5.184.577 7.927.56l2.959-.01 3.053-.024 3.11-.014q3.79-.02 7.577-.049l-1-10 2.313 2.375c2.596 2.698 2.596 2.698 5.687 4.625-5.159 5.069-10.231 6.631-17.375 6.625-21.452-.517-42.57-8.143-61.625-17.625z"/><path fill="#e2212e" d="M131 69c2.363-.14 2.363-.14 5 0 3.568 3.67 5.88 6.991 6.188 12.125C142 84 142 84 141 86c-2.187.438-2.187.438-5 0-3.188-2.663-4.834-5.568-5.312-9.691 0-2.457.09-4.863.312-7.309"/><path fill="#d1ddee" d="M141 151c6.017.236 6.017.236 8.578 2.227 2.22 2.488 3.372 4.317 3.734 7.648L153 163c-2.187.75-2.187.75-5 1-3.39-2.129-5.72-4.163-7-8-.125-2.75-.125-2.75 0-5"/><path fill="#323436" d="m163 210 2.313 2.375c2.596 2.698 2.596 2.698 5.687 4.625-5.83 4.837-10.106 6.663-17.715 6.406C151 223 151 223 149 221l15-1z"/><path fill="#291416" d="M60 79a806 806 0 0 1 23 6c-2.516 1.652-3.642 2.057-6.664 1.574l-2.961-.886C67.901 84.168 62.661 83.363 57 83z"/><path fill="#d2ddee" d="M218 183c2.668.368 3.82.82 5.75 2.75 1.46 2.63 1.497 4.287 1.25 7.25-3.36-1.44-5.716-3.124-8-6 .25-2.25.25-2.25 1-4"/><path fill="#121213" d="M17 145c4.01 1.53 5.827 4.015 8.313 7.438l2.175 2.933L29 158l-1 3q-2.475-3.15-4.937-6.312c-.47-.595-.938-1.19-1.42-1.803-2.029-2.612-3.59-4.724-4.643-7.885"/><path fill="#e3212f" d="M117 60c1.938.625 1.938.625 4 2 .75 3.125.75 3.125 1 6h-3c-2-2-2-2-2.125-5.125z"/><path fill="#d2ddee" d="M140 135c2.438.688 2.438.688 5 2 .813 2.625.813 2.625 1 5-4.875-.875-4.875-.875-6-2a100 100 0 0 1 0-5"/><path fill="#270709" d="M60 79c2.352.599 4.686 1.27 7 2l1 2H57z"/><path fill="#0e0f0f" d="M59 187c4.515.531 7.347 2.366 11 5l-1 2q-2.504-1.463-5-2.937l-2.812-1.653L59 188z"/></svg>