<?xml version="1.0" encoding="UTF-8"?>
<svg version="1.1" xmlns="http://www.w3.org/2000/svg" width="256" height="256">
<path d="M0 0 C1.32 0 2.64 0 4 0 C4.83819158 1.62249941 5.6704116 3.24808497 6.5 4.875 C7.19609375 6.23238281 7.19609375 6.23238281 7.90625 7.6171875 C9 10 9 10 9 12 C9.98742187 12.12117187 10.97484375 12.24234375 11.9921875 12.3671875 C13.91417969 12.61855469 13.91417969 12.61855469 15.875 12.875 C17.78925781 13.11863281 17.78925781 13.11863281 19.7421875 13.3671875 C23 14 23 14 25 16 C23.8758824 17.29243468 22.75067408 18.58392075 21.625 19.875 C20.99851562 20.59429688 20.37203125 21.31359375 19.7265625 22.0546875 C18.52573166 23.4076598 17.2791655 24.7208345 16 26 C16.01747888 28.59269983 16.13768592 31.0525154 16.375 33.625 C16.43171875 34.33140625 16.4884375 35.0378125 16.546875 35.765625 C16.68840921 37.51121361 16.84297387 39.25573673 17 41 C12.26970211 42.2168228 10.23720229 41.4634897 6 39 C7.27923576 49.2552067 12.8797221 55.40162489 19.30761719 62.96582031 C22.15492886 66.3881805 24.81973153 69.94637201 27.5 73.5 C32.29239034 79.82115345 37.18846286 86.04581695 42.21875 92.1796875 C47.06483454 98.14718003 48.61436021 101.38193343 48 109 C44.91111478 111.05925681 44.29064073 111.2390374 40.8125 111.125 C39.554375 111.08375 38.29625 111.0425 37 111 C37.78761719 111.95777344 38.57523438 112.91554688 39.38671875 113.90234375 C70.75827401 152.19459532 70.75827401 152.19459532 70 163 C69.0625 165.375 69.0625 165.375 67 167 C64.00762978 167.62606327 61.05114366 167.87206945 58 168 C63.11056907 174.67367154 68.24122364 181.33025847 73.4375 187.9375 C73.89133057 188.51556396 74.34516113 189.09362793 74.81274414 189.68920898 C77.15906881 192.67427603 79.51730686 195.64884647 81.89453125 198.609375 C99.58251829 220.71785727 99.58251829 220.71785727 99.39453125 233.3984375 C99 236 99 236 96.625 239.125 C91.7494496 242.607536 87.88616681 242.56096355 82 242 C73.65424485 240.06041547 66.33793169 236.33342423 59 232 C58.90203125 232.85722656 58.8040625 233.71445313 58.703125 234.59765625 C57.82752882 241.29294776 57.00428815 246.49410379 53 252 C49.12572195 253.93713903 45.19721111 253.76939301 41 253 C32.09148725 248.5888692 25.41487148 240.82974297 21 232 C20.76925781 232.61746094 20.53851563 233.23492187 20.30078125 233.87109375 C13.59187428 251.29303795 13.59187428 251.29303795 6 256 C1.82202336 256.67146053 -0.31523995 256.32868483 -4.125 254.5 C-10.03359746 249.36208916 -13.24718015 242.58130212 -15 235 C-15 233.68 -15 232.36 -15 231 C-17.2404439 233.14072087 -19.10585029 235.37773754 -20.9375 237.875 C-21.46601562 238.58140625 -21.99453125 239.2878125 -22.5390625 240.015625 C-23.65632879 241.53319525 -24.74175014 243.07425883 -25.8125 244.625 C-30.41717825 249.62436495 -35.28449406 253.33402656 -42.25 253.6875 C-45.86012004 253.44645161 -46.93681771 253.04475412 -50 250.875 C-54.09618477 244.98673439 -54.47641615 238.97193226 -55 232 C-56.07378906 232.55429688 -57.14757812 233.10859375 -58.25390625 233.6796875 C-59.68993891 234.41178258 -61.12614618 235.14353523 -62.5625 235.875 C-63.26697266 236.23980469 -63.97144531 236.60460937 -64.69726562 236.98046875 C-72.21007071 240.78880313 -79.50591497 243.17352491 -88 242 C-91.10864287 240.67130587 -93.45059157 239.09881686 -95 236 C-96.43549244 225.86069897 -92.96573694 218.33376247 -86.984375 210.2890625 C-85.50546414 208.47500277 -84.0030227 206.67993187 -82.48046875 204.90234375 C-79.76962273 201.73044045 -77.19025333 198.47711361 -74.625 195.1875 C-73.69803637 194.00251051 -72.77095193 192.81761553 -71.84375 191.6328125 C-71.37839844 191.03758789 -70.91304687 190.44236328 -70.43359375 189.82910156 C-68.97096126 187.9629499 -67.50204398 186.10191191 -66.03125 184.2421875 C-65.54446777 183.62577393 -65.05768555 183.00936035 -64.55615234 182.37426758 C-63.63577488 181.20911556 -62.71431352 180.04481848 -61.79150391 178.8815918 C-58.73442691 175.00530189 -55.84582688 171.0341381 -53 167 C-54.5778125 167.3403125 -54.5778125 167.3403125 -56.1875 167.6875 C-60.40867437 168.0334979 -61.7460799 167.58399538 -65 165 C-66.89069648 161.21860703 -66.55118206 157.68007366 -65.26953125 153.7734375 C-62.25245575 147.08576834 -57.69622691 141.831518 -52.91015625 136.37109375 C-50.05083982 133.09909248 -47.37959005 129.70803536 -44.75 126.25 C-44.34128662 125.71310547 -43.93257324 125.17621094 -43.51147461 124.62304688 C-42.34055778 123.08235437 -41.17026893 121.54118468 -40 120 C-38.62781737 118.22698265 -37.25316642 116.45587016 -35.875 114.6875 C-35.31554687 113.96949219 -34.75609375 113.25148438 -34.1796875 112.51171875 C-33.59574219 111.76341797 -33.59574219 111.76341797 -33 111 C-34.98567708 111.06510417 -36.97135417 111.13020833 -38.95703125 111.1953125 C-41 111 -41 111 -44 109 C-44.76512409 104.15421411 -44.45597086 101.14833831 -41.8125 97 C-38.1616087 91.99502226 -34.17981568 87.22801582 -30.24682617 82.44311523 C-25.52119699 76.68886854 -20.96187387 70.82174658 -16.47680664 64.87841797 C-13.7015841 61.20232667 -10.85587098 57.63816937 -7.875 54.125 C-4.2943908 49.60259284 -3.09632865 44.58605549 -2 39 C-3.3303125 39.7734375 -3.3303125 39.7734375 -4.6875 40.5625 C-8.3031873 42.13157185 -9.33616656 41.94248526 -13 41 C-12.835 40.01 -12.67 39.02 -12.5 38 C-11.29266132 30.38742961 -11.29266132 30.38742961 -13.6796875 23.328125 C-15.81959182 21.23346808 -15.81959182 21.23346808 -18.1171875 19.515625 C-20 18 -20 18 -21 15 C-15.67067568 13.29915181 -10.56890517 12.47986031 -5 12 C-4.731875 11.13375 -4.46375 10.2675 -4.1875 9.375 C-3.02888013 6.08208036 -1.61790161 3.08872125 0 0 Z " fill="#009578" transform="translate(126,0)"/>
<path d="M0 0 C1.32 0 2.64 0 4 0 C4.83819158 1.62249941 5.6704116 3.24808497 6.5 4.875 C6.9640625 5.77992188 7.428125 6.68484375 7.90625 7.6171875 C9 10 9 10 9 12 C10.48113281 12.18175781 10.48113281 12.18175781 11.9921875 12.3671875 C13.91417969 12.61855469 13.91417969 12.61855469 15.875 12.875 C17.78925781 13.11863281 17.78925781 13.11863281 19.7421875 13.3671875 C23 14 23 14 25 16 C23.8758824 17.29243468 22.75067408 18.58392075 21.625 19.875 C20.99851563 20.59429688 20.37203125 21.31359375 19.7265625 22.0546875 C18.52573166 23.4076598 17.2791655 24.7208345 16 26 C16.01747888 28.59269983 16.13768592 31.0525154 16.375 33.625 C16.43171875 34.33140625 16.4884375 35.0378125 16.546875 35.765625 C16.68840921 37.51121361 16.84297387 39.25573673 17 41 C12.26970211 42.2168228 10.23720229 41.4634897 6 39 C7.27923576 49.2552067 12.8797221 55.40162489 19.30761719 62.96582031 C22.15492886 66.3881805 24.81973153 69.94637201 27.5 73.5 C32.29239034 79.82115345 37.18846286 86.04581695 42.21875 92.1796875 C47.06483454 98.14718003 48.61436021 101.38193343 48 109 C44.91111478 111.05925681 44.29064073 111.2390374 40.8125 111.125 C39.554375 111.08375 38.29625 111.0425 37 111 C37.78761719 111.95777344 38.57523438 112.91554688 39.38671875 113.90234375 C70.75827401 152.19459532 70.75827401 152.19459532 70 163 C69.0625 165.375 69.0625 165.375 67 167 C64.00762978 167.62606327 61.05114366 167.87206945 58 168 C63.11056907 174.67367154 68.24122364 181.33025847 73.4375 187.9375 C73.89133057 188.51556396 74.34516113 189.09362793 74.81274414 189.68920898 C77.15906881 192.67427603 79.51730686 195.64884647 81.89453125 198.609375 C99.58251829 220.71785727 99.58251829 220.71785727 99.39453125 233.3984375 C99 236 99 236 96.625 239.125 C91.7494496 242.607536 87.88616681 242.56096355 82 242 C72.63181218 239.82279832 61.73213913 236.03508065 56 228 C55.2575 227.71125 54.515 227.4225 53.75 227.125 C46.00231656 223.95549314 42.66305811 218.19894556 39.06640625 210.90234375 C38.00915489 208.02491606 37.77193984 206.03153134 38 203 C37.34 203 36.68 203 36 203 C36.22816406 203.61488281 36.45632812 204.22976562 36.69140625 204.86328125 C36.97886719 205.67152344 37.26632813 206.47976562 37.5625 207.3125 C37.99755859 208.51326172 37.99755859 208.51326172 38.44140625 209.73828125 C39 212 39 212 38 215 C24.14166196 200.80440153 9.3208101 181.96243029 3 163 C3.33 162.67 3.66 162.34 4 162 C2.515 161.01 2.515 161.01 1 160 C-0.05908203 158.07641602 -0.05908203 158.07641602 -1.0078125 155.75390625 C-1.35457031 154.91666016 -1.70132813 154.07941406 -2.05859375 153.21679688 C-2.41050781 152.34087891 -2.76242188 151.46496094 -3.125 150.5625 C-3.48464844 149.69044922 -3.84429687 148.81839844 -4.21484375 147.91992188 C-6.35242645 142.7120659 -8.03037213 138.35860535 -8.25 132.6875 C-8.62357783 128.14526798 -9.32710626 126.02474046 -12.65234375 122.73828125 C-15.63672585 118.88886086 -16.91732371 113.69628417 -18 109 C-17.505 108.01 -17.505 108.01 -17 107 C-16.34 107.33 -15.68 107.66 -15 108 C-15.34998047 107.14921875 -15.34998047 107.14921875 -15.70703125 106.28125 C-16 104 -16 104 -14.63671875 101.78125 C-13.99347656 101.0284375 -13.35023437 100.275625 -12.6875 99.5 C-9.28158104 95.46540228 -7.15627983 92.78159009 -6.6875 87.4375 C-6.74493839 84.12562343 -6.74493839 84.12562343 -8.125 82.0625 C-10.785027 80.55515137 -13.00206205 80.80013747 -16 81 C-16.226875 81.804375 -16.45375 82.60875 -16.6875 83.4375 C-17.120625 84.283125 -17.55375 85.12875 -18 86 C-20.58203125 86.66015625 -20.58203125 86.66015625 -23 87 C-24.36853384 81.18841792 -25.30221284 76.19886363 -22.15625 70.88671875 C-19.9717633 68.34152205 -17.74518115 65.89341717 -15.41064453 63.48828125 C-8.45780248 56.15278019 -3.7165464 49.02305257 -2 39 C-2.886875 39.515625 -3.77375 40.03125 -4.6875 40.5625 C-8.3031873 42.13157185 -9.33616656 41.94248526 -13 41 C-12.835 40.01 -12.67 39.02 -12.5 38 C-11.29266132 30.38742961 -11.29266132 30.38742961 -13.6796875 23.328125 C-15.81959182 21.23346808 -15.81959182 21.23346808 -18.1171875 19.515625 C-20 18 -20 18 -21 15 C-15.67067568 13.29915181 -10.56890517 12.47986031 -5 12 C-4.731875 11.13375 -4.46375 10.2675 -4.1875 9.375 C-3.02888013 6.08208036 -1.61790161 3.08872125 0 0 Z " fill="#00B292" transform="translate(126,0)"/>
<path d="M0 0 C5.9511111 3.04167901 9.70318663 7.96235674 14 13 C13.34 9.37 12.68 5.74 12 2 C12.66 2 13.32 2 14 2 C14.22042969 2.92619141 14.22042969 2.92619141 14.4453125 3.87109375 C17.11860648 13.96508308 21.24916825 20.52795888 30.2421875 26.00390625 C30.82226562 26.33261719 31.40234375 26.66132813 32 27 C32.33 26.34 32.66 25.68 33 25 C35.44064323 29.88128646 34.57951038 37.27715342 33.46875 42.49609375 C32.08621397 46.47088484 30.60954558 49.77874118 27 52 C22.27371397 53.16393611 18.54165691 52.77189757 14.18359375 50.58984375 C7.16198394 45.83389941 2.44751693 40.147483 -2 33 C-2.39525879 32.36932617 -2.79051758 31.73865234 -3.19775391 31.08886719 C-4.47087636 29.03232273 -5.70970369 26.95888789 -6.9375 24.875 C-7.52265381 23.90820312 -7.52265381 23.90820312 -8.11962891 22.921875 C-10.8322615 18.14241713 -12.30996606 13.55383865 -12 8 C-10.7421875 5.37109375 -10.7421875 5.37109375 -8.875 3.4375 C-7.97394531 2.44556641 -7.97394531 2.44556641 -7.0546875 1.43359375 C-4.47861504 -0.36378 -3.08278094 -0.38596615 0 0 Z " fill="#009276" transform="translate(150,201)"/>
<path d="M0 0 C1.32 0 2.64 0 4 0 C4.83819158 1.62249941 5.6704116 3.24808497 6.5 4.875 C6.9640625 5.77992188 7.428125 6.68484375 7.90625 7.6171875 C9 10 9 10 9 12 C10.48113281 12.18175781 10.48113281 12.18175781 11.9921875 12.3671875 C13.91417969 12.61855469 13.91417969 12.61855469 15.875 12.875 C17.78925781 13.11863281 17.78925781 13.11863281 19.7421875 13.3671875 C23 14 23 14 25 16 C23.8758824 17.29243468 22.75067408 18.58392075 21.625 19.875 C20.99851563 20.59429688 20.37203125 21.31359375 19.7265625 22.0546875 C18.52573166 23.4076598 17.2791655 24.7208345 16 26 C16.01747888 28.59269983 16.13768592 31.0525154 16.375 33.625 C16.43171875 34.33140625 16.4884375 35.0378125 16.546875 35.765625 C16.68840921 37.51121361 16.84297387 39.25573673 17 41 C12.26970211 42.2168228 10.23720229 41.4634897 6 39 C6.66 42.3 7.32 45.6 8 49 C4.04 49 0.08 49 -4 49 C-3.34 45.7 -2.68 42.4 -2 39 C-2.886875 39.515625 -3.77375 40.03125 -4.6875 40.5625 C-8.3031873 42.13157185 -9.33616656 41.94248526 -13 41 C-12.835 40.01 -12.67 39.02 -12.5 38 C-11.29266132 30.38742961 -11.29266132 30.38742961 -13.6796875 23.328125 C-15.81959182 21.23346808 -15.81959182 21.23346808 -18.1171875 19.515625 C-20 18 -20 18 -21 15 C-15.67067568 13.29915181 -10.56890517 12.47986031 -5 12 C-4.731875 11.13375 -4.46375 10.2675 -4.1875 9.375 C-3.02888013 6.08208036 -1.61790161 3.08872125 0 0 Z " fill="#DF9F2D" transform="translate(126,0)"/>
<path d="M0 0 C4.20237442 -0.41199749 6.27248569 -0.55832494 9.6875 2.0625 C14.23461486 7.83856482 18.13837822 14.59615537 19.5625 21.875 C19.706875 22.57625 19.85125 23.2775 20 24 C20.66 24.33 21.32 24.66 22 25 C22 25.66 22 26.32 22 27 C21.01 27 20.02 27 19 27 C19 28.65 19 30.3 19 32 C17.515 32.495 17.515 32.495 16 33 C14.8499169 34.96672915 14.8499169 34.96672915 14 37 C13.67 37.33 13.34 37.66 13 38 C9.60394448 38 7.03324541 37.82325558 4.30859375 35.65234375 C-2.31815765 28.36125636 -4.33950303 19.40225456 -4.30078125 9.7734375 C-3.85718559 5.68313987 -2.36332781 3.32342973 0 0 Z " fill="#02E1B7" transform="translate(188,192)"/>
<path d="M0 0 C2.375 1.4375 2.375 1.4375 4 4 C5.25130335 10.49911639 3.50356183 15.56543214 0 21 C-3.51816018 26.07028968 -7.66895426 29.0734868 -12.79296875 32.484375 C-15.07307092 33.95133329 -15.07307092 33.95133329 -17 36 C-19.32275177 36.40047444 -21.65739357 36.7397104 -24 37 C-20.25 34 -20.25 34 -18 34 C-18.33 33.154375 -18.66 32.30875 -19 31.4375 C-20.63675337 25.81116028 -20.56793844 21.29637302 -18 16 C-16.824375 16.0928125 -16.824375 16.0928125 -15.625 16.1875 C-14.75875 16.125625 -13.8925 16.06375 -13 16 C-10.8480563 12.77208445 -10.79913557 11.71599191 -11 8 C-11.66 8 -12.32 8 -13 8 C-10.65771762 2.03782667 -6.44328534 -1.09672942 0 0 Z " fill="#007F66" transform="translate(114,123)"/>
<path d="M0 0 C2 2 2 2 2.265625 4.09375 C2.26046875 4.8878125 2.2553125 5.681875 2.25 6.5 C2.25515625 7.2940625 2.2603125 8.088125 2.265625 8.90625 C2 11 2 11 0 13 C-0.16677282 16.58343976 -0.16677282 16.58343976 0 20 C1.32 20.33 2.64 20.66 4 21 C4.33 23.31 4.66 25.62 5 28 C4.44570312 28.17015625 3.89140625 28.3403125 3.3203125 28.515625 C-1.14842288 29.82082573 -1.14842288 29.82082573 -4.25 33 C-4.4975 33.66 -4.745 34.32 -5 35 C-7.125 36.75 -7.125 36.75 -9 38 C-8.67 37.01 -8.34 36.02 -8 35 C-9.98567708 35.06510417 -11.97135417 35.13020833 -13.95703125 35.1953125 C-16 35 -16 35 -19 33 C-19.76512409 28.15421411 -19.45597086 25.14833831 -16.8125 21 C-11.53913864 13.76030051 -5.7114422 6.89614109 0 0 Z " fill="#00977A" transform="translate(101,76)"/>
<path d="M0 0 C2.5625 0.4375 2.5625 0.4375 4.3125 2.5 C5.72576771 5.82117911 6.091777 8.87345446 6.5625 12.4375 C7.2225 13.0975 7.8825 13.7575 8.5625 14.4375 C8.6875 17.5625 8.6875 17.5625 8.5625 20.4375 C7.716875 20.72625 6.87125 21.015 6 21.3125 C1.74706729 23.38366817 -0.2617331 27.17431841 -2.7265625 31.0625 C-4.42705827 33.42300555 -6.02872922 34.83866524 -8.4375 36.4375 C-11.9917242 30.27684472 -12.35148093 22.7789094 -10.90625 15.9140625 C-9.31292062 10.14690291 -6.71903671 1.20598095 0 0 Z " fill="#007A63" transform="translate(80.4375,193.5625)"/>
<path d="M0 0 C3.33129146 0.5743606 4.80063399 1.45485738 7 4 C11.16243346 11.25489969 16.99225895 23.91998194 15.6015625 32.44140625 C15.40304688 32.95574219 15.20453125 33.47007812 15 34 C8.82191835 32.12785405 4.57871909 28.55849431 1.21875 23.11328125 C-3.39605348 14.26461327 -3.39605348 14.26461327 -3 9 C-2.01 8.67 -1.02 8.34 0 8 C0 5.36 0 2.72 0 0 Z " fill="#00A084" transform="translate(167,194)"/>
<path d="M0 0 C3.47098534 1.15699511 3.81559165 1.82476322 5.69921875 4.81640625 C6.18583984 5.58017578 6.67246094 6.34394531 7.17382812 7.13085938 C7.67333984 7.93330078 8.17285156 8.73574219 8.6875 9.5625 C9.19861328 10.36880859 9.70972656 11.17511719 10.23632812 12.00585938 C11.49844955 13.99930349 12.75257157 15.99734085 14 18 C11 19 11 19 7.8125 17.5625 C6.884375 17.046875 5.95625 16.53125 5 16 C5.66 19.3 6.32 22.6 7 26 C3.04 26 -0.92 26 -5 26 C-4.34 22.7 -3.68 19.4 -3 16 C-3.928125 16.515625 -4.85625 17.03125 -5.8125 17.5625 C-9 19 -9 19 -12 18 C-8.04 12.06 -4.08 6.12 0 0 Z " fill="#F1AF32" transform="translate(127,23)"/>
<path d="M0 0 C1.65 0.33 3.3 0.66 5 1 C5 5.29 5 9.58 5 14 C3.02 14.66 1.04 15.32 -1 16 C-1 16.9075 -1 17.815 -1 18.75 C-1 26 -1 26 -2.53125 27.703125 C-3.1809375 28.21359375 -3.830625 28.7240625 -4.5 29.25 C-5.1496875 29.77078125 -5.799375 30.2915625 -6.46875 30.828125 C-6.9740625 31.21484375 -7.479375 31.6015625 -8 32 C-10.60599988 29.39400012 -10.3277682 28.1946257 -10.375 24.5625 C-10.18188799 14.49653633 -6.98726328 7.14606472 0 0 Z " fill="#01775F" transform="translate(119,197)"/>
<path d="M0 0 C1.9375 0.875 1.9375 0.875 3.9375 3.875 C5.0514503 12.01985741 3.03943854 18.32797871 -1.0625 25.25 C-3.0625 27.875 -3.0625 27.875 -6.0625 29.875 C-6.7225 29.545 -7.3825 29.215 -8.0625 28.875 C-7.7325 27.885 -7.4025 26.895 -7.0625 25.875 C-7.371875 25.153125 -7.68125 24.43125 -8 23.6875 C-10.57468732 16.8721512 -8.87635739 11.53180902 -6.23046875 5.07421875 C-3.42538262 -0.20759895 -3.42538262 -0.20759895 0 0 Z " fill="#008A71" transform="translate(139.0625,131.125)"/>
<path d="M0 0 C2.38671875 0.3515625 2.38671875 0.3515625 4.38671875 2.3515625 C4.51171875 5.4765625 4.51171875 5.4765625 4.38671875 8.3515625 C2.40671875 9.3415625 2.40671875 9.3415625 0.38671875 10.3515625 C0.39832031 11.32738281 0.40992188 12.30320313 0.421875 13.30859375 C0.43089844 14.58089844 0.43992188 15.85320312 0.44921875 17.1640625 C0.46082031 18.42863281 0.47242188 19.69320312 0.484375 20.99609375 C0.38671875 24.3515625 0.38671875 24.3515625 -0.61328125 27.3515625 C-3.42992291 26.3163865 -4.49073757 25.54892232 -6.09765625 22.9609375 C-6.5153125 22.01734375 -6.93296875 21.07375 -7.36328125 20.1015625 C-7.79125 19.16828125 -8.21921875 18.235 -8.66015625 17.2734375 C-9.71910163 14.02716231 -10.00883235 11.74329949 -9.61328125 8.3515625 C-8.2578125 6.015625 -8.2578125 6.015625 -6.42578125 3.9765625 C-5.83410156 3.28820312 -5.24242187 2.59984375 -4.6328125 1.890625 C-2.61328125 0.3515625 -2.61328125 0.3515625 0 0 Z " fill="#006E58" transform="translate(147.61328125,200.6484375)"/>
<path d="M0 0 C0 2.64 0 5.28 0 8 C2.31 8 4.62 8 7 8 C7.25 15.5 7.25 15.5 5 20 C8.3 20.33 11.6 20.66 15 21 C15 21.33 15 21.66 15 22 C10.38 22 5.76 22 1 22 C1 21.34 1 20.68 1 20 C0.0925 19.4225 -0.815 18.845 -1.75 18.25 C-5.34194895 15.76326611 -7.08007366 13.91664973 -9 10 C-8.93944176 6.42706371 -8.69714446 4.08057391 -6.75 1.0625 C-4.41628148 -0.35440053 -2.67863922 -0.21718696 0 0 Z " fill="#02A184" transform="translate(145,86)"/>
<path d="M0 0 C6.93 1.65 13.86 3.3 21 5 C18.75 11.75 18.75 11.75 16.6171875 14.8671875 C16.17246094 15.52460938 15.72773437 16.18203125 15.26953125 16.859375 C14.80933594 17.52453125 14.34914063 18.1896875 13.875 18.875 C13.40707031 19.56335938 12.93914062 20.25171875 12.45703125 20.9609375 C11.31098303 22.64492672 10.15635521 24.3230716 9 26 C8.34 25.67 7.68 25.34 7 25 C7.2475 23.515 7.2475 23.515 7.5 22 C8.71023377 14.36479803 8.71023377 14.36479803 6.28515625 7.29296875 C4.11646571 5.17001825 4.11646571 5.17001825 1.78515625 3.41796875 C1.19605469 2.95003906 0.60695313 2.48210938 0 2 C0 1.34 0 0.68 0 0 Z " fill="#E0A02E" transform="translate(106,16)"/>
<path d="M0 0 C1.8125 1.125 1.8125 1.125 3 3 C3.86534436 8.51657028 2.47348575 11.8220435 -0.56640625 16.265625 C-2.45236663 18.54727734 -4.2758919 19.85300712 -7 21 C-7.99 21 -8.98 21 -10 21 C-10.6875 18.6875 -10.6875 18.6875 -11 16 C-10.505 15.525625 -10.01 15.05125 -9.5 14.5625 C-9.005 14.046875 -8.51 13.53125 -8 13 C-8.24471481 10.00224356 -8.65338914 7.69322172 -10 5 C-7.31800772 -0.23627064 -5.7870199 -1.69376192 0 0 Z " fill="#01977C" transform="translate(117,81)"/>
<path d="M0 0 C6 8 6 8 6 12 C10.62 12.66 15.24 13.32 20 14 C17.77049009 16.22950991 16.86951945 16.43601702 13.8671875 17.0703125 C13.14128418 17.22773926 12.41538086 17.38516602 11.66748047 17.54736328 C10.28520264 17.83329346 10.28520264 17.83329346 8.875 18.125 C4.481875 19.053125 4.481875 19.053125 0 20 C0 13.4 0 6.8 0 0 Z " fill="#F7B032" transform="translate(129,0)"/>
<path d="M0 0 C0.33 0 0.66 0 1 0 C1 6.6 1 13.2 1 20 C-1.92875 19.38125 -4.8575 18.7625 -7.875 18.125 C-8.79651855 17.93437988 -9.71803711 17.74375977 -10.66748047 17.54736328 C-11.39338379 17.38993652 -12.11928711 17.23250977 -12.8671875 17.0703125 C-13.61081543 16.91320801 -14.35444336 16.75610352 -15.12060547 16.59423828 C-17 16 -17 16 -19 14 C-12.07 13.01 -12.07 13.01 -5 12 C-4.34 10.02 -3.68 8.04 -3 6 C-2.02995879 3.98529902 -1.03755118 1.98077953 0 0 Z " fill="#F8B132" transform="translate(126,0)"/>
<path d="M0 0 C0.309375 0.804375 0.61875 1.60875 0.9375 2.4375 C1.76335345 4.89080405 1.76335345 4.89080405 3 6 C2.99088862 9.01131228 2.86678317 12.01091235 2.7421875 15.01953125 C3.02854159 18.32995806 3.7774531 19.59708934 6 22 C4 21 2 20 0 19 C-0.33 19.99 -0.66 20.98 -1 22 C-2 20 -2 20 -1.40625 18.1171875 C-0.76193242 15.95876212 -0.76193242 15.95876212 -2.03125 14.0703125 C-2.5159375 13.42835938 -3.000625 12.78640625 -3.5 12.125 C-5.48627968 9.16765025 -6 8.31585058 -6 4.625 C-4.80151777 1.47898415 -3.5315376 0 0 0 Z " fill="#004236" transform="translate(158,133)"/>
<path d="M0 0 C0.66 0 1.32 0 2 0 C2 6.6 2 13.2 2 20 C7.74687969 18.32035314 7.74687969 18.32035314 13.48730469 16.61889648 C14.20821289 16.41337158 14.92912109 16.20784668 15.671875 15.99609375 C16.77160645 15.67402954 16.77160645 15.67402954 17.89355469 15.34545898 C20.23869816 14.96085328 21.75825808 15.27121236 24 16 C22.98679688 16.26554687 21.97359375 16.53109375 20.9296875 16.8046875 C19.57809823 17.16135689 18.22653722 17.51813343 16.875 17.875 C15.87726563 18.13603516 15.87726563 18.13603516 14.859375 18.40234375 C8.86156752 19.9847141 8.86156752 19.9847141 3 22 C2.67 22.66 2.34 23.32 2 24 C1.01 24 0.02 24 -1 24 C-1 23.34 -1 22.68 -1 22 C-7.93 20.02 -14.86 18.04 -22 16 C-18.28992074 15.07248019 -17.32838671 14.91790332 -13.890625 15.77734375 C-13.21032227 15.94226318 -12.53001953 16.10718262 -11.82910156 16.27709961 C-10.97799805 16.49503174 -10.12689453 16.71296387 -9.25 16.9375 C-6.5275 17.618125 -3.805 18.29875 -1 19 C-0.67 12.73 -0.34 6.46 0 0 Z " fill="#634714" transform="translate(127,0)"/>
<path d="M0 0 C3.37991574 0.3557806 6.04288438 1.35715799 9 3 C8.34 3 7.68 3 7 3 C6.855625 3.969375 6.71125 4.93875 6.5625 5.9375 C6 9 6 9 5 10 C2.0625 10.25 2.0625 10.25 -1 10 C-3 7 -3 7 -2.75 4.4375 C-2 2 -2 2 0 0 Z " fill="#E4495B" transform="translate(132,109)"/>
<path d="M0 0 C3.625 0.375 3.625 0.375 7 1 C8.32278481 6.41139241 8.32278481 6.41139241 6.9375 8.9375 C4.06369928 10.51345523 2.08587291 9.80501033 -1 9 C-2 8 -2 8 -2.1875 5.0625 C-2 2 -2 2 0 0 Z " fill="#D99824" transform="translate(119,211)"/>
<path d="M0 0 C2 2 2 2 2.3125 5 C2.1578125 6.485 2.1578125 6.485 2 8 C-1 10 -1 10 -3.5625 9.75 C-6 9 -6 9 -8 7 C-7.75 3.9375 -7.75 3.9375 -7 1 C-4.48718205 -0.25640898 -2.78302919 -0.20872719 0 0 Z " fill="#CF1C3A" transform="translate(87,206)"/>
<path d="M0 0 C3.0625 0.1875 3.0625 0.1875 5.0625 2.1875 C5.375 5.1875 5.375 5.1875 5.0625 8.1875 C2.0625 10.1875 2.0625 10.1875 -0.5 10 C-2.9375 9.1875 -2.9375 9.1875 -4.9375 6.1875 C-4.23305896 0.27019525 -4.23305896 0.27019525 0 0 Z " fill="#BBF4F9" transform="translate(119.9375,159.8125)"/>
<path d="M0 0 C0.99 0.103125 1.98 0.20625 3 0.3125 C5 3.3125 5 3.3125 4.75 5.875 C4 8.3125 4 8.3125 2 10.3125 C-1.125 9.9375 -1.125 9.9375 -4 9.3125 C-4.625 5.9375 -4.625 5.9375 -5 2.3125 C-3 0.3125 -3 0.3125 0 0 Z " fill="#D01C3A" transform="translate(105,86.6875)"/>
<path d="M0 0 C2.4375 0.75 2.4375 0.75 4.4375 2.75 C4.10778521 6.04714793 3.8148161 7.3726839 1.4375 9.75 C-1.0625 10 -1.0625 10 -3.5625 9.75 C-5.5625 7.75 -5.5625 7.75 -5.875 4.75 C-5.771875 3.76 -5.66875 2.77 -5.5625 1.75 C-2.5625 -0.25 -2.5625 -0.25 0 0 Z " fill="#00DEB4" transform="translate(216.5625,222.25)"/>
<path d="M0 0 C3.625 0.375 3.625 0.375 7 1 C7.6875 3.25 7.6875 3.25 8 6 C6.5625 8.3125 6.5625 8.3125 5 10 C-0.875 9.125 -0.875 9.125 -2 8 C-2.1875 5.0625 -2.1875 5.0625 -2 2 C-1.34 1.34 -0.68 0.68 0 0 Z " fill="#D99824" transform="translate(96,130)"/>
<path d="M0 0 C2.5625 0.1875 2.5625 0.1875 4.5625 2.1875 C4.8125 5.1875 4.8125 5.1875 4.5625 8.1875 C2.5625 10.1875 2.5625 10.1875 0.125 10.5625 C-2.4375 10.1875 -2.4375 10.1875 -4.375 8.5 C-5.4375 6.1875 -5.4375 6.1875 -4.6875 3.5 C-2.91689262 0.22437636 -2.91689262 0.22437636 0 0 Z " fill="#D11A39" transform="translate(147.4375,200.8125)"/>
<path d="M0 0 C3.29714793 0.32971479 4.6226839 0.6226839 7 3 C6.625 6.125 6.625 6.125 6 9 C0.56559513 10.32841008 0.56559513 10.32841008 -1.9375 8.875 C-3 7 -3 7 -2.8125 4.4375 C-2 2 -2 2 0 0 Z " fill="#DCF7F9" transform="translate(161,193)"/>
<path d="M0 0 C2.4375 0.8125 2.4375 0.8125 4.4375 2.8125 C4.10778521 6.10964793 3.8148161 7.4351839 1.4375 9.8125 C-1.6875 9.4375 -1.6875 9.4375 -4.5625 8.8125 C-5.89091008 3.37809513 -5.89091008 3.37809513 -4.4375 0.875 C-2.5625 -0.1875 -2.5625 -0.1875 0 0 Z " fill="#EBB138" transform="translate(149.5625,85.1875)"/>
<path d="M0 0 C0.99 0.103125 1.98 0.20625 3 0.3125 C5 3.3125 5 3.3125 4.6875 5.9375 C4 8.3125 4 8.3125 3 9.3125 C0.0625 9.5 0.0625 9.5 -3 9.3125 C-5 7.3125 -5 7.3125 -5.25 4.8125 C-4.86676958 0.9801958 -3.75087075 0.3907157 0 0 Z " fill="#DCF6F9" transform="translate(163,129.6875)"/>
<path d="M0 0 C3.5 0.125 3.5 0.125 4.5 1.125 C4.6875 4.0625 4.6875 4.0625 4.5 7.125 C2.5 9.125 2.5 9.125 0 9.375 C-2.5 9.125 -2.5 9.125 -4.5 7.125 C-4.6875 4.0625 -4.6875 4.0625 -4.5 1.125 C-3.5 0.125 -3.5 0.125 0 0 Z " fill="#F6465B" transform="translate(150.5,156.875)"/>
<path d="M0 0 C0.66 0.33 1.32 0.66 2 1 C2.5 3.5 2.5 3.5 3 6 C3.66 6.33 4.32 6.66 5 7 C5 7.66 5 8.32 5 9 C4.01 9 3.02 9 2 9 C2 10.65 2 12.3 2 14 C1.01 14 0.02 14 -1 14 C-1.103125 13.401875 -1.20625 12.80375 -1.3125 12.1875 C-2.08876455 9.71756736 -3.07088921 8.67748765 -5 7 C-3.68 6.67 -2.36 6.34 -1 6 C-1.020625 5.195625 -1.04125 4.39125 -1.0625 3.5625 C-1 1 -1 1 0 0 Z " fill="#E6FAF6" transform="translate(205,210)"/>
<path d="M0 0 C1 2 1 2 0.8125 5.3125 C1.03512133 9.69071942 1.85330597 11.02339754 5 14 C7.50995496 15.43923199 7.50995496 15.43923199 10 16 C10.66 15.67 11.32 15.34 12 15 C12 15.99 12 16.98 12 18 C15.3 18.33 18.6 18.66 22 19 C22 19.33 22 19.66 22 20 C17.38 20 12.76 20 8 20 C8 19.34 8 18.68 8 18 C7.0925 17.4225 6.185 16.845 5.25 16.25 C1.65805105 13.76326611 -0.08007366 11.91664973 -2 8 C-1.68965517 1.68965517 -1.68965517 1.68965517 0 0 Z " fill="#003F34" transform="translate(138,88)"/>
<path d="M0 0 C0.99 0 1.98 0 3 0 C5.30143236 3.45214853 5.13833854 4.23479324 4.625 8.1875 C4.51414063 9.08855469 4.40328125 9.98960937 4.2890625 10.91796875 C4.19367188 11.60503906 4.09828125 12.29210937 4 13 C-0.95065113 8.20904729 -0.95065113 8.20904729 -1.125 3.9375 C-1 1 -1 1 0 0 Z " fill="#01B293" transform="translate(155,135)"/>
<path d="M0 0 C2 2 2 2 2 5 C2.78375 4.484375 3.5675 3.96875 4.375 3.4375 C5.674375 2.7259375 5.674375 2.7259375 7 2 C7.66 2.33 8.32 2.66 9 3 C8.484375 3.5775 7.96875 4.155 7.4375 4.75 C5.75601104 6.85856105 5.75601104 6.85856105 6.25 9.125 C6.9878892 11.04498297 6.9878892 11.04498297 8 13 C4.125 11.25 4.125 11.25 3 9 C-0.63 9.66 -4.26 10.32 -8 11 C-7 9 -7 9 -5.15234375 8.3671875 C-4.05599609 8.12355469 -4.05599609 8.12355469 -2.9375 7.875 C-2.20402344 7.70742187 -1.47054687 7.53984375 -0.71484375 7.3671875 C-0.14894531 7.24601562 0.41695312 7.12484375 1 7 C0.67 4.69 0.34 2.38 0 0 Z " fill="#004236" transform="translate(105,97)"/>
<path d="M0 0 C1.32 1.65 2.64 3.3 4 5 C3.01 5.495 3.01 5.495 2 6 C1.01 7.485 1.01 7.485 0 9 C-0.99 7.35 -1.98 5.7 -3 4 C-2.34 3.67 -1.68 3.34 -1 3 C-0.67 2.01 -0.34 1.02 0 0 Z " fill="#E1FBF6" transform="translate(199,204)"/>
</svg>
