<?xml version="1.0" encoding="UTF-8"?>
<svg version="1.1" xmlns="http://www.w3.org/2000/svg" width="256" height="256">
<path d="M0 0 C8.92804153 7.44003461 16.7544177 18.31144789 18.3046875 30.06640625 C19.53691086 45.78339769 17.77952611 58.99112897 8.3046875 72.06640625 C6.99961336 73.42741214 5.67293696 74.76892832 4.3046875 76.06640625 C4.5728125 76.60265625 4.8409375 77.13890625 5.1171875 77.69140625 C5.5090625 78.47515625 5.9009375 79.25890625 6.3046875 80.06640625 C6.8409375 81.09765625 7.3771875 82.12890625 7.9296875 83.19140625 C9.3046875 86.06640625 9.3046875 86.06640625 9.3046875 88.06640625 C9.830625 88.30230469 10.3565625 88.53820312 10.8984375 88.78125 C14.05836803 90.46894017 16.90925018 92.53205948 19.8046875 94.62890625 C20.41473633 95.07000732 21.02478516 95.5111084 21.65332031 95.96557617 C22.91511184 96.87990129 24.17584799 97.79568454 25.43554688 98.71289062 C27.22114062 100.00590678 29.01896774 101.27984378 30.8203125 102.55078125 C31.88765625 103.3190625 32.955 104.08734375 34.0546875 104.87890625 C35.01890625 105.56597656 35.983125 106.25304687 36.9765625 106.9609375 C39.5199453 109.26107731 40.41693242 110.78171247 41.3046875 114.06640625 C41.11613724 119.34581365 40.05318412 122.31790963 36.3046875 126.06640625 C30.20190597 128.10066676 25.3290405 127.02559088 19.49609375 124.66015625 C18.88450912 124.41599976 18.2729245 124.17184326 17.64280701 123.92028809 C15.71286439 123.1468467 13.79015401 122.35701007 11.8671875 121.56640625 C10.55057484 121.03535465 9.23352077 120.50539602 7.91601562 119.9765625 C4.7070422 118.68576537 1.50433064 117.38018804 -1.6953125 116.06640625 C-0.20860625 128.88170323 1.35301149 141.68221905 3.12890625 154.4609375 C3.28167023 155.56525116 3.4344342 156.66956482 3.59182739 157.80734253 C4.21588883 162.31147556 4.84169114 166.81531306 5.47875977 171.31762695 C5.95285203 174.6769161 6.41664408 178.03750276 6.87890625 181.3984375 C7.02261154 182.39551224 7.16631683 183.39258698 7.31437683 184.4198761 C9.71012211 202.03931631 9.71012211 202.03931631 6.6796875 208.56640625 C2.96171445 212.48006209 -0.16003779 215.26094572 -5.6953125 215.50390625 C-10.63796367 215.22093004 -14.15038906 213.57533148 -17.70703125 210.1015625 C-20.48621015 205.85908312 -21.25387615 201.61730913 -22.2578125 196.69140625 C-22.57468018 195.22888428 -22.57468018 195.22888428 -22.89794922 193.73681641 C-23.84847644 189.31049158 -24.74251872 184.87591649 -25.57421875 180.42578125 C-25.70304443 179.74435059 -25.83187012 179.06291992 -25.96459961 178.36083984 C-26.29746847 176.56467309 -26.61041391 174.76484615 -26.921875 172.96484375 C-27.72360497 169.96038092 -28.52558572 168.27846916 -30.6953125 166.06640625 C-33.6953125 165.39973958 -33.6953125 165.39973958 -36.6953125 166.06640625 C-40.02242967 169.34108739 -40.60837216 173.25843511 -41.4140625 177.68359375 C-41.63008118 178.78575729 -41.63008118 178.78575729 -41.85046387 179.91018677 C-42.30883947 182.25210838 -42.75346944 184.59631336 -43.1953125 186.94140625 C-43.63778196 189.27920837 -44.08352462 191.6161237 -44.54016113 193.95120239 C-44.82357167 195.40097614 -45.09902474 196.85233646 -45.3651123 198.3053894 C-46.721854 205.25748411 -48.73878307 210.04574888 -54.6953125 214.06640625 C-58.42583817 215.30991481 -61.82083293 215.58839496 -65.6953125 215.06640625 C-70.50279743 212.66266379 -73.42881076 209.9481023 -75.6953125 205.06640625 C-76.56919437 195.80522432 -75.02238901 186.5310779 -73.7265625 177.37890625 C-73.52400181 175.90358975 -73.32223452 174.42816412 -73.12121582 172.95263672 C-72.59545158 169.10642576 -72.06061417 165.26153715 -71.52325439 161.41693115 C-70.66111335 155.23753163 -69.81282484 149.05621759 -68.96495056 142.87484741 C-68.66871253 140.72514995 -68.3684299 138.5760477 -68.06750488 136.42700195 C-67.88731812 135.124646 -67.70713135 133.82229004 -67.52148438 132.48046875 C-67.36160034 131.33529785 -67.20171631 130.19012695 -67.0369873 129.01025391 C-66.61845244 125.89811991 -66.61845244 125.89811991 -66.6953125 122.06640625 C-68.58339089 119.89656789 -68.58339089 119.89656789 -71.6953125 119.06640625 C-74.87265751 119.58825709 -77.73151616 120.83656114 -80.6953125 122.06640625 C-96.78045889 128.66793727 -96.78045889 128.66793727 -103.4453125 125.94140625 C-106.33978027 123.52934978 -107.46180089 121.62988422 -108.6953125 118.06640625 C-108.6953125 113.90745966 -108.3988202 111.86133021 -105.62109375 108.72265625 C-102.19704926 105.61404443 -98.60668137 102.8648814 -94.8828125 100.12890625 C-93.87250977 99.37963867 -93.87250977 99.37963867 -92.84179688 98.61523438 C-91.48557355 97.60942281 -90.12734562 96.60630839 -88.76708984 95.60595703 C-87.32507555 94.53438713 -85.89381389 93.44825814 -84.47119141 92.35107422 C-83.40070557 91.52760498 -83.40070557 91.52760498 -82.30859375 90.6875 C-81.34046753 89.93424438 -81.34046753 89.93424438 -80.3527832 89.16577148 C-78.6953125 88.06640625 -78.6953125 88.06640625 -76.6953125 88.06640625 C-76.4271875 86.97328125 -76.1590625 85.88015625 -75.8828125 84.75390625 C-74.81867511 81.44947962 -74.34876586 80.11680203 -71.6953125 78.06640625 C-73.16111776 74.88807604 -74.98054624 72.24297062 -77.0703125 69.44140625 C-85.57129782 57.46918525 -86.74948841 45.344895 -85.6953125 31.06640625 C-83.325092 17.34482855 -75.84884923 6.25204909 -64.6953125 -1.93359375 C-44.1494447 -14.63922512 -19.71962444 -14.1466871 0 0 Z " fill="#E3945D" transform="translate(161.6953125,25.93359375)"/>
<path d="M0 0 C5.33555553 2.90021094 10.11983956 6.18626096 14.9375 9.875 C15.60201172 10.37902344 16.26652344 10.88304688 16.95117188 11.40234375 C18.28892828 12.41701447 19.62480249 13.4341717 20.95874023 14.45385742 C22.37385834 15.52573195 23.79859322 16.58498243 25.23071289 17.6340332 C25.94864014 18.16085693 26.66656738 18.68768066 27.40625 19.23046875 C28.05787109 19.70379639 28.70949219 20.17712402 29.38085938 20.66479492 C31.7016482 22.57860585 32.49435708 24.0383772 33 27 C32.81144974 32.2794074 31.74849662 35.25150338 28 39 C21.89721847 41.03426051 17.024353 39.95918463 11.19140625 37.59375 C10.57982162 37.34959351 9.968237 37.10543701 9.33811951 36.85388184 C7.40817689 36.08044045 5.48546651 35.29060382 3.5625 34.5 C2.24588734 33.9689484 0.92883327 33.43898977 -0.38867188 32.91015625 C-3.5976453 31.61935912 -6.80035686 30.31378179 -10 29 C-8.51329375 41.81529698 -6.95167601 54.6158128 -5.17578125 67.39453125 C-5.02301727 68.49884491 -4.8702533 69.60315857 -4.71286011 70.74093628 C-4.08879867 75.24506931 -3.46299636 79.74890681 -2.82592773 84.2512207 C-2.35183547 87.61050985 -1.88804342 90.97109651 -1.42578125 94.33203125 C-1.28207596 95.32910599 -1.13837067 96.32618073 -0.99031067 97.35346985 C1.40543461 114.97291006 1.40543461 114.97291006 -1.625 121.5 C-5.34297305 125.41365584 -8.46472529 128.19453947 -14 128.4375 C-18.94265117 128.15452379 -22.45507656 126.50892523 -26.01171875 123.03515625 C-28.79089765 118.79267687 -29.55856365 114.55090288 -30.5625 109.625 C-30.77374512 108.64998535 -30.98499023 107.6749707 -31.20263672 106.67041016 C-32.15316394 102.24408533 -33.04720622 97.80951024 -33.87890625 93.359375 C-34.00773193 92.67794434 -34.13655762 91.99651367 -34.26928711 91.29443359 C-34.60215597 89.49826684 -34.91510141 87.6984399 -35.2265625 85.8984375 C-36.02829247 82.89397467 -36.83027322 81.21206291 -39 79 C-42 78.33333333 -42 78.33333333 -45 79 C-48.32711717 82.27468114 -48.91305966 86.19202886 -49.71875 90.6171875 C-49.93476868 91.71935104 -49.93476868 91.71935104 -50.15515137 92.84378052 C-50.61352697 95.18570213 -51.05815694 97.52990711 -51.5 99.875 C-51.94246946 102.21280212 -52.38821212 104.54971745 -52.84484863 106.88479614 C-53.12825917 108.33456989 -53.40371224 109.78593021 -53.6697998 111.23898315 C-55.0265415 118.19107786 -57.04347057 122.97934263 -63 127 C-66.73052567 128.24350856 -70.12552043 128.52198871 -74 128 C-78.80748493 125.59625754 -81.73349826 122.88169605 -84 118 C-84.86865697 108.7439936 -83.34240101 99.46372647 -82.06640625 90.3125 C-81.86638893 88.83716219 -81.66701446 87.36173711 -81.46824646 85.88623047 C-81.05355065 82.81979548 -80.63376922 79.75411972 -80.2097168 76.68896484 C-79.66688366 72.7648958 -79.13305516 68.83967046 -78.60249424 64.91392517 C-78.09350186 61.15053517 -77.58014045 57.38774513 -77.06640625 53.625 C-76.92091937 52.55543564 -76.92091937 52.55543564 -76.77249336 51.46426392 C-76.49730434 49.44719989 -76.21857994 47.43061915 -75.93969727 45.4140625 C-75.70320213 43.69630615 -75.70320213 43.69630615 -75.46192932 41.94384766 C-75.08986567 39.57270847 -74.63761523 37.31066343 -74 35 C-67.25 33.875 -67.25 33.875 -65 35 C-62.62876754 35.23029956 -60.25258057 35.41119942 -57.875 35.5625 C-56.59367187 35.64628906 -55.31234375 35.73007813 -53.9921875 35.81640625 C-52.51105469 35.90728516 -52.51105469 35.90728516 -51 36 C-50.90912109 34.02966797 -50.90912109 34.02966797 -50.81640625 32.01953125 C-50.73196744 30.28384459 -50.64732112 28.54816802 -50.5625 26.8125 C-50.52318359 25.94818359 -50.48386719 25.08386719 -50.44335938 24.19335938 C-50.23652984 20.04085878 -49.99896469 16.05462138 -49 12 C-47.83984375 11.95101562 -46.6796875 11.90203125 -45.484375 11.8515625 C-29.57131853 11.12055593 -13.13737296 10.13454485 0 0 Z " fill="#E4945D" transform="translate(170,113)"/>
<path d="M0 0 C1.86279633 0.54723097 3.70988102 1.14932718 5.54296875 1.7890625 C23.76894715 7.59556889 43.55575236 4.95196226 61.43359375 -0.7734375 C63.92297319 -1.28634694 65.27663694 -1.15006351 67.6328125 -0.2265625 C70.38479722 2.68267849 71.81343828 4.89175558 72.6328125 8.7734375 C57.29684879 20.13341062 41.07137968 21.14220884 22.6328125 20.7734375 C22.59522827 21.65080566 22.59522827 21.65080566 22.55688477 22.54589844 C22.44058288 25.20528221 22.31801183 27.86434153 22.1953125 30.5234375 C22.15599609 31.44382813 22.11667969 32.36421875 22.07617188 33.3125 C22.03427734 34.20195312 21.99238281 35.09140625 21.94921875 36.0078125 C21.91256104 36.82475586 21.87590332 37.64169922 21.83813477 38.48339844 C21.64146975 40.6768798 21.22980656 42.65740163 20.6328125 44.7734375 C18.42454872 44.80066267 16.21618612 44.81993479 14.0078125 44.8359375 C12.16316406 44.85333984 12.16316406 44.85333984 10.28125 44.87109375 C6.94688562 44.78184417 3.90187057 44.40012388 0.6328125 43.7734375 C-0.3778125 43.6290625 -1.3884375 43.4846875 -2.4296875 43.3359375 C-5.3671875 42.7734375 -5.3671875 42.7734375 -7.43359375 41.49609375 C-12.21538122 40.31815676 -15.88481659 42.677094 -20.2421875 44.6484375 C-30.99579393 49.46135146 -30.99579393 49.46135146 -37.3671875 48.7734375 C-40.82364696 47.35943136 -42.13381744 46.11571359 -44.2421875 43.0234375 C-45.63160954 39.00955161 -45.55201632 36.84628656 -44.3671875 32.7734375 C-40.57735637 28.49114244 -36.13890928 25.20402518 -31.5546875 21.8359375 C-30.54438477 21.08666992 -30.54438477 21.08666992 -29.51367188 20.32226562 C-28.15744855 19.31645406 -26.79922062 18.31333964 -25.43896484 17.31298828 C-23.99695055 16.24141838 -22.56568889 15.15528939 -21.14306641 14.05810547 C-20.42940918 13.50912598 -19.71575195 12.96014648 -18.98046875 12.39453125 C-18.33505127 11.89236084 -17.68963379 11.39019043 -17.0246582 10.87280273 C-15.3671875 9.7734375 -15.3671875 9.7734375 -13.3671875 9.7734375 C-13.1196875 8.7009375 -12.8721875 7.6284375 -12.6171875 6.5234375 C-10.05738554 -1.15596838 -7.43219928 -1.79397914 0 0 Z " fill="#18AB85" transform="translate(98.3671875,104.2265625)"/>
<path d="M0 0 C3.63 1.98 7.26 3.96 11 6 C7.06632796 10.72040645 3.00157156 14.98200436 -1.55859375 19.10546875 C-3.22520075 20.87791552 -3.22520075 20.87791552 -2.9140625 23.06640625 C-1.87386186 25.26683069 -0.86017513 26.27731267 1.0625 27.75 C2.031875 28.4925 3.00125 29.235 4 30 C0.67307385 33.68597966 -3.1999794 34.93552261 -7.75 36.6875 C-8.53632812 37.00783203 -9.32265625 37.32816406 -10.1328125 37.65820312 C-15.80300771 39.86694196 -20.86107433 41.28410596 -26.75 38.875 C-29.64446777 36.46294353 -30.76648839 34.56347797 -32 31 C-32 26.83493923 -31.70306999 24.79276748 -28.91796875 21.65234375 C-25.532088 18.5746824 -21.99214159 15.83860513 -18.3125 13.125 C-17.60931641 12.60196289 -16.90613281 12.07892578 -16.18164062 11.54003906 C-10.85477923 7.59249787 -5.4637578 3.75633349 0 0 Z " fill="#E2955E" transform="translate(85,113)"/>
<path d="M0 0 C3.69921875 0.98046875 3.69921875 0.98046875 6.44921875 1.98046875 C11.43081633 3.51326801 16.51602202 3.66176086 21.69921875 3.98046875 C21.56005185 7.39744113 21.4117229 10.81395632 21.26171875 14.23046875 C21.22240234 15.19855469 21.18308594 16.16664063 21.14257812 17.1640625 C21.07973633 18.56591797 21.07973633 18.56591797 21.015625 19.99609375 C20.97896729 20.85493164 20.94230957 21.71376953 20.90454102 22.59863281 C20.71218361 24.83007018 20.31075631 26.83029399 19.69921875 28.98046875 C17.49095497 29.00769392 15.28259237 29.02696604 13.07421875 29.04296875 C11.22957031 29.06037109 11.22957031 29.06037109 9.34765625 29.078125 C6.00174137 28.98856625 2.97935101 28.60923405 -0.30078125 27.98046875 C-1.29464844 27.88378906 -2.28851563 27.78710938 -3.3125 27.6875 C-7.0939586 26.79280195 -9.14337079 25.15034261 -12.11328125 22.66796875 C-13.06847656 21.88808594 -14.02367188 21.10820312 -15.0078125 20.3046875 C-17.3274222 17.95346473 -18.00968035 17.1735523 -18.30078125 13.98046875 C-16.62183869 11.15973538 -14.17919889 8.97922191 -11.86328125 6.66796875 C-10.95545898 5.68086914 -10.95545898 5.68086914 -10.02929688 4.67382812 C-6.79705784 1.40745773 -4.74650352 -0.54929863 0 0 Z " fill="#219075" transform="translate(99.30078125,120.01953125)"/>
<path d="M0 0 C4.6635196 2.79811176 6.63000734 4.93872679 10 9 C13.47286118 11.54676486 16.79149443 11.3628022 21 11 C26.0005553 9.26511347 28.56140707 6.50494727 31.703125 2.42578125 C32.13109375 1.95527344 32.5590625 1.48476562 33 1 C33.66 1 34.32 1 35 1 C35.495 6.94 35.495 6.94 36 13 C34.02 14.32 32.04 15.64 30 17 C32.31 16.34 34.62 15.68 37 15 C37.495 18.465 37.495 18.465 38 22 C30.05462602 27.40698178 22.72140252 30.1693861 13 29 C7.40613517 27.49395947 2.52393537 25.6717522 -2 22 C-1.67 19.69 -1.34 17.38 -1 15 C1.64 15.66 4.28 16.32 7 17 C3.535 15.02 3.535 15.02 0 13 C0 8.71 0 4.42 0 0 Z " fill="#FBF9F9" transform="translate(110,66)"/>
<path d="M0 0 C0.515625 0.309375 1.03125 0.61875 1.5625 0.9375 C4.1293925 2.18828017 4.1293925 2.18828017 7.6875 2.5 C9.3271875 2.7475 9.3271875 2.7475 11 3 C11.33 3.66 11.66 4.32 12 5 C14.02600175 5.22511131 16.05459276 5.4440878 18.08984375 5.55859375 C20 6 20 6 22 9 C25.55672179 10.2188121 25.55672179 10.2188121 29 11 C28.42919332 17.62135743 27.60122118 22.59387041 22.5 27.3125 C18.23383637 30.19216045 14.03781709 30.67871919 9 30 C4.19251507 27.59625754 1.26650174 24.88169605 -1 20 C-1.67017705 13.29822946 -1.02053631 6.63348599 0 0 Z " fill="#E4955E" transform="translate(87,211)"/>
<path d="M0 0 C0.66 0 1.32 0 2 0 C4.56 16.64 4.56 16.64 1.375 23.5 C-2.34297305 27.41365584 -5.46472529 30.19453947 -11 30.4375 C-16.12273442 30.14421368 -19.6173219 28.3826781 -23.25 24.75 C-25.86470999 20.64117001 -27.24904206 16.9508295 -26.625 12.0625 C-26.41875 11.381875 -26.2125 10.70125 -26 10 C-24.865625 9.71125 -23.73125 9.4225 -22.5625 9.125 C-21.386875 8.75375 -20.21125 8.3825 -19 8 C-18.67 7.34 -18.34 6.68 -18 6 C-16.88625 6.061875 -15.7725 6.12375 -14.625 6.1875 C-13.42875 6.125625 -12.2325 6.06375 -11 6 C-10.34 5.01 -9.68 4.02 -9 3 C-6.67284 2.62599214 -4.33882138 2.29235267 -2 2 C-1.34 1.34 -0.68 0.68 0 0 Z " fill="#E4945D" transform="translate(167,211)"/>
<path d="M0 0 C7.27242562 7.27242562 8.41416631 17.19761007 8.5 27 C8.35951558 40.27824188 4.39452121 51.37663841 -4.1953125 61.6171875 C-7.64020152 64.5439038 -10.62736836 65.55067119 -14.9375 66.6875 C-16.06140137 66.99820435 -16.06140137 66.99820435 -17.20800781 67.31518555 C-36.33415058 72.4169767 -59.4459609 73.38997385 -78 65 C-80.13791759 63.46245653 -81.36981593 62.1192393 -83 60 C-83 59.34 -83 58.68 -83 58 C-80.89396039 59.0530198 -78.78990514 60.10789617 -76.6953125 61.18359375 C-61.52553477 68.58404763 -45.17468647 70.37974099 -29.09765625 65.03515625 C-15.24739873 59.74104237 -5.95794542 51.65961753 0.375 38.25 C4.86620729 28.01785818 4.02337625 15.60459239 0.65625 5.20703125 C0 3 0 3 0 0 Z " fill="#BA6A54" transform="translate(172,39)"/>
<path d="M0 0 C10.75373721 5.90401259 10.75373721 5.90401259 13.375 10.3125 C14.21219504 13.91243865 13.89539601 16.41841597 13 20 C10.81383809 23.35211493 9.81940188 24.72686604 6 26 C-0.46372766 26.65956405 -5.23011326 24.60051233 -11 22 C-10.75 18.6875 -10.75 18.6875 -10 15 C-8.70264493 13.95374591 -7.36733028 12.95298777 -6 12 C-5.30899447 10.00827818 -4.64097297 8.00838196 -4 6 C-3.01 5.34 -2.02 4.68 -1 4 C-0.27617533 1.94074861 -0.27617533 1.94074861 0 0 Z " fill="#E3955E" transform="translate(189,127)"/>
<path d="M0 0 C0.2475 0.598125 0.495 1.19625 0.75 1.8125 C1.85558728 4.12577882 1.85558728 4.12577882 4.0625 5.375 C6 7 6 7 6.5 10.0625 C6.7475 11.5165625 6.7475 11.5165625 7 13 C7.66 13.309375 8.32 13.61875 9 13.9375 C9.66 14.288125 10.32 14.63875 11 15 C11.75 18.625 11.75 18.625 12 22 C1.22827619 26.85486144 1.22827619 26.85486144 -5 26 C-8.45645946 24.58599386 -9.76662994 23.34227609 -11.875 20.25 C-13.26442204 16.23611411 -13.18482882 14.07284906 -12 10 C-8.6340348 5.84204298 -4.37968033 3.00566297 0 0 Z " fill="#E4955E" transform="translate(66,127)"/>
<path d="M0 0 C-1.09957031 0.03738281 -2.19914062 0.07476563 -3.33203125 0.11328125 C-21.14638007 0.84822662 -35.36250971 4.6409921 -48 18 C-58.12959998 30.41202057 -60.38372395 44.4475864 -59 60 C-58.16491955 63.45611025 -57.14196886 66.57163705 -55.77734375 69.84765625 C-55.52082031 70.55792969 -55.26429687 71.26820312 -55 72 C-55.495 72.99 -55.495 72.99 -56 74 C-60.95149507 69.68694985 -62.54856651 63.14531325 -63.24072266 56.78955078 C-64.23774662 41.56831833 -61.68427045 28.21221821 -52 16 C-41.22055245 4.1743669 -15.94913329 -9.81184425 0 0 Z " fill="#EDA26D" transform="translate(139,17)"/>
<path d="M0 0 C0.99 2.97 1.98 5.94 3 9 C-6.01480218 12.9019293 -15.09378689 16 -25 16 C-25.66 12.37 -26.32 8.74 -27 5 C-25.85402344 4.80664062 -24.70804688 4.61328125 -23.52734375 4.4140625 C-21.99736117 4.15124341 -20.46741518 3.88821121 -18.9375 3.625 C-18.18533203 3.49867187 -17.43316406 3.37234375 -16.65820312 3.2421875 C-13.08429182 2.6233284 -9.60676077 1.93602946 -6.12890625 0.8984375 C-3 0 -3 0 0 0 Z " fill="#1AAB85" transform="translate(161,104)"/>
<path d="M0 0 C3.10414267 0.2140788 4.01669062 1.01764437 6.1875 3.3125 C7.83612547 5.75701363 8.40919398 7.20113108 9 10 C-3.67919286 19.39199471 -17.08416626 22.1207111 -32.625 22.25 C-33.4197876 22.2593457 -34.2145752 22.26869141 -35.03344727 22.27832031 C-40.75387606 22.24612394 -40.75387606 22.24612394 -43 20 C-42.505 18.515 -42.505 18.515 -42 17 C-40.68128906 16.97421875 -39.36257812 16.9484375 -38.00390625 16.921875 C-24.54985152 16.54045859 -11.50753514 15.36380834 1 10 C0.84402344 9.36191406 0.68804687 8.72382812 0.52734375 8.06640625 C0.33269531 7.24011719 0.13804687 6.41382812 -0.0625 5.5625 C-0.35833984 4.32693359 -0.35833984 4.32693359 -0.66015625 3.06640625 C-0.77230469 2.38449219 -0.88445312 1.70257813 -1 1 C-0.67 0.67 -0.34 0.34 0 0 Z " fill="#278E74" transform="translate(162,103)"/>
<path d="M0 0 C0.9075 0.33 1.815 0.66 2.75 1 C7.73159758 2.53279926 12.81680327 2.68129211 18 3 C18 4.98 18 6.96 18 9 C17.34402832 8.93941406 16.68805664 8.87882813 16.01220703 8.81640625 C13.04989024 8.54333326 10.08744766 8.27164948 7.125 8 C5.57619141 7.85691406 5.57619141 7.85691406 3.99609375 7.7109375 C3.00996094 7.62070313 2.02382812 7.53046875 1.0078125 7.4375 C0.09660645 7.35371094 -0.81459961 7.26992187 -1.75341797 7.18359375 C-3.95654726 6.97285005 -3.95654726 6.97285005 -6 7 C-6.2475 7.70125 -6.495 8.4025 -6.75 9.125 C-8.16088026 12.37002459 -9.97895398 15.10316737 -12 18 C-17.75 14.375 -17.75 14.375 -20 11 C-18.19297887 8.94903102 -16.36055124 6.93893433 -14.5 4.9375 C-13.9946875 4.35677734 -13.489375 3.77605469 -12.96875 3.17773438 C-8.58340286 -1.45428855 -6.14244936 -1.52286867 0 0 Z " fill="#20AB85" transform="translate(103,121)"/>
<path d="M0 0 C1.32 0.33 2.64 0.66 4 1 C4.35915493 7.34507042 4.35915493 7.34507042 2.9375 9.9375 C-0.01168691 11.55479605 -2.70867559 11.18630138 -6 11 C-6.66 12.32 -7.32 13.64 -8 15 C-10.31 14.67 -12.62 14.34 -15 14 C-15.2784375 14.9590625 -15.2784375 14.9590625 -15.5625 15.9375 C-17 18 -17 18 -20.625 18.75 C-22.295625 18.87375 -22.295625 18.87375 -24 19 C-26 13.375 -26 13.375 -26 10 C-24.88625 9.896875 -23.7725 9.79375 -22.625 9.6875 C-21.42875 9.460625 -20.2325 9.23375 -19 9 C-18.34 8.01 -17.68 7.02 -17 6 C-14.67284 5.62599214 -12.33882138 5.29235267 -10 5 C-9.34 4.34 -8.68 3.68 -8 3 C-6.2365625 2.7525 -6.2365625 2.7525 -4.4375 2.5 C-3.303125 2.335 -2.16875 2.17 -1 2 C-0.67 1.34 -0.34 0.68 0 0 Z " fill="#E19561" transform="translate(164,203)"/>
<path d="M0 0 C0.99 0 1.98 0 3 0 C3.33 0.66 3.66 1.32 4 2 C6.33247761 2.33926947 8.66585471 2.67240066 11 3 C11.66 3.66 12.32 4.32 13 5 C14.155 5.144375 15.31 5.28875 16.5 5.4375 C17.655 5.623125 18.81 5.80875 20 6 C20.99 7.485 20.99 7.485 22 9 C25.56769552 9.73606499 25.56769552 9.73606499 29 10 C28.4140625 16.15234375 28.4140625 16.15234375 28 18 C26 19 26 19 22.4375 18.25 C21.303125 17.8375 20.16875 17.425 19 17 C18.67 16.01 18.34 15.02 18 14 C15.36 14 12.72 14 10 14 C9.67 13.01 9.34 12.02 9 11 C7.906875 11.061875 6.81375 11.12375 5.6875 11.1875 C2 11 2 11 0.0625 9.9375 C-1.57183566 6.95724086 -1.24622562 4.32404589 -1 1 C-0.67 0.67 -0.34 0.34 0 0 Z " fill="#E19461" transform="translate(89,203)"/>
<path d="M0 0 C4.08556037 1.16843847 6.57320434 2.35980651 9 6 C9.3125 9.0625 9.3125 9.0625 9 12 C4.96568359 14.68954427 1.7408046 14.67956926 -3 14 C-6.18970398 12.26016146 -8.44695493 10.55304507 -11 8 C-11.35131571 5.25973747 -11.34419875 3.62386024 -10 1.1875 C-6.78907153 -0.71898878 -3.58122702 -0.49192679 0 0 Z " fill="#CB7A47" transform="translate(149,37)"/>
<path d="M0 0 C1.14662109 -0.02513672 1.14662109 -0.02513672 2.31640625 -0.05078125 C4.95934674 0.40187707 5.81717653 1.21413079 7.4375 3.3125 C8 5.6875 8 5.6875 7.4375 8.3125 C3.33289276 12.23864606 0.64331179 14.45366739 -5 14.5 C-6.17369141 14.52126953 -6.17369141 14.52126953 -7.37109375 14.54296875 C-9.5625 14.3125 -9.5625 14.3125 -12.5625 12.3125 C-13 9.4375 -13 9.4375 -12.5625 6.3125 C-9.18533545 1.9704313 -5.47128852 0.02777304 0 0 Z " fill="#CB7A47" transform="translate(110.5625,36.6875)"/>
<path d="M0 0 C6.76594019 -0.11381955 13.28837062 0.11978631 20 1 C20 3.97 20 6.94 20 10 C17.45805839 9.85811015 14.91652007 9.71160845 12.375 9.5625 C11.30572266 9.50352539 11.30572266 9.50352539 10.21484375 9.44335938 C6.08196318 9.19690319 2.07730976 8.76529947 -2 8 C-1.125 2.25 -1.125 2.25 0 0 Z " fill="#4AB493" transform="translate(100,135)"/>
<path d="M0 0 C1.32 0.33 2.64 0.66 4 1 C3.01 3.97 2.02 6.94 1 10 C6.87996058 12.1233191 12.93293525 13.52741147 19 15 C19 16.65 19 18.3 19 20 C10.51793715 19.0315755 3.25244913 16.57497995 -4 12 C-4.66 11.01 -5.32 10.02 -6 9 C-2.63671875 1.79296875 -2.63671875 1.79296875 0 0 Z " fill="#259077" transform="translate(91,103)"/>
<path d="M0 0 C2 2 2 2 3.3125 5.375 C5.09794827 9.2104074 6.49925963 10.72451876 10 13 C14.25397386 14.41799129 17.98249709 14.80770658 22.234375 13.10546875 C24.19229562 12.12303695 26.10682064 11.10148617 28 10 C26.64717831 14.42741644 24.76701112 16.36309221 21 19 C17.79821961 20.60089019 14.48231013 20.3573266 11 20 C6.30878525 18.2859023 3.68001877 16.21145807 1 12 C-0.65154923 7.59586873 -1.37710449 4.54444483 0 0 Z " fill="#BF6B54" transform="translate(141,221)"/>
<path d="M0 0 C0.66 0.33 1.32 0.66 2 1 C1.42919332 7.62135743 0.60122118 12.59387041 -4.5 17.3125 C-8.75798097 20.18663716 -12.96950897 20.69550349 -18 20 C-21.94398082 17.91638749 -24.58727648 15.75312548 -27 12 C-26.67 11.34 -26.34 10.68 -26 10 C-24.989375 10.66 -23.97875 11.32 -22.9375 12 C-19.1439904 14.14914556 -16.39502395 14.55936669 -12 14 C-7.31914021 12.25615027 -4.72202446 10.18025185 -2 6 C-0.74443113 2.82078213 -0.74443113 2.82078213 0 0 Z " fill="#BF6B54" transform="translate(114,221)"/>
<path d="M0 0 C4.62 0 9.24 0 14 0 C14.33 3.3 14.66 6.6 15 10 C8.07 10 1.14 10 -6 10 C-6 9.67 -6 9.34 -6 9 C-4.35 9 -2.7 9 -1 9 C-0.67 6.03 -0.34 3.06 0 0 Z " fill="#19AC86" transform="translate(121,110)"/>
<path d="M0 0 C0 4.29 0 8.58 0 13 C2.475 13.99 2.475 13.99 5 15 C7.5 16 7.5 16 10 17 C7.83032311 17.95465783 6.43671207 18.14401212 4.17578125 17.3984375 C2.4315257 16.64129615 0.71372869 15.82390802 -1 15 C-1.33 16.98 -1.66 18.96 -2 21 C-6.46957441 16.88328673 -8.56130566 14.00818976 -9.4375 8 C-8.61438427 2.35577782 -5.53206574 0 0 0 Z " fill="#551D25" transform="translate(110,66)"/>
<path d="M0 0 C3.16717839 0.99592914 4.22456864 2.89116126 6 5.62890625 C7.046875 8.75 7.046875 8.75 7.75 12.06640625 C8.11351562 13.70416016 8.11351562 13.70416016 8.484375 15.375 C8.98327959 18.52339034 9.09595994 21.44783412 9 24.62890625 C8.34 24.95890625 7.68 25.28890625 7 25.62890625 C6.81824219 24.5925 6.63648438 23.55609375 6.44921875 22.48828125 C6.19588163 21.11838421 5.9419437 19.74859819 5.6875 18.37890625 C5.56955078 17.69699219 5.45160156 17.01507813 5.33007812 16.3125 C4.59174488 12.41258596 3.88241711 9.44726965 1 6.62890625 C-2 5.96223958 -2 5.96223958 -5 6.62890625 C-7.95525443 9.68581562 -8.68999025 12.72308909 -9.5625 16.81640625 C-9.98020983 18.76807872 -10.44594725 20.71147763 -11 22.62890625 C-11.66 22.95890625 -12.32 23.28890625 -13 23.62890625 C-11.70613069 7.31934311 -11.70613069 7.31934311 -8.375 2.06640625 C-5.45860318 0.3012187 -3.35421094 0.11137029 0 0 Z " fill="#C06D55" transform="translate(130,185.37109375)"/>
<path d="M0 0 C6.05015674 1.21003135 6.05015674 1.21003135 8 4 C8.90266112 8.72473971 8.78553058 13.45711199 6.125 17.5625 C4 20 4 20 2 21 C1.67 19.02 1.34 17.04 1 15 C-0.051875 15.495 -1.10375 15.99 -2.1875 16.5 C-5.25452609 17.82779788 -7.62134936 18.30715006 -11 18 C-10.443125 17.731875 -9.88625 17.46375 -9.3125 17.1875 C-6.91066602 15.99300335 -6.91066602 15.99300335 -4.375 14.375 C-2 13 -2 13 0 13 C0 8.71 0 4.42 0 0 Z " fill="#541C24" transform="translate(146,66)"/>
<path d="M0 0 C0.33 0.66 0.66 1.32 1 2 C3.50580398 2.28696929 5.92355619 2.46732761 8.4375 2.5625 C15.76449644 2.88224822 15.76449644 2.88224822 18 4 C18 5.98 18 7.96 18 10 C11.26257354 10.11044961 4.70019789 9.70132913 -2 9 C-1.34 6.03 -0.68 3.06 0 0 Z " fill="#1BAC86" transform="translate(102,126)"/>
<path d="M0 0 C0.33 1.98 0.66 3.96 1 6 C-9.77172381 10.85486144 -9.77172381 10.85486144 -16 10 C-18.875 8.6875 -18.875 8.6875 -21 7 C-21.33 6.01 -21.66 5.02 -22 4 C-21.071875 4.0825 -20.14375 4.165 -19.1875 4.25 C-14.59313465 4.28750502 -10.75371034 2.58708427 -6.55078125 0.875 C-4 0 -4 0 0 0 Z " fill="#BF6C55" transform="translate(77,143)"/>
<path d="M0 0 C3.5435337 0.44294171 6.59972859 1.1902519 9.875 2.5625 C14.06926205 4.23048838 17.51674894 4.24017416 22 4 C21.06896676 6.32758311 20.34617872 7.74357132 18.3125 9.25 C11.18111018 11.56288319 5.47105221 8.91653058 -1 6 C-0.67 4.02 -0.34 2.04 0 0 Z " fill="#BE6B55" transform="translate(179,143)"/>
<path d="M0 0 C6.10737442 1.76463072 12.07433507 3.69557475 18 6 C18 7.98 18 9.96 18 12 C12.34714306 11.54166025 4.13078822 9.13078822 0 5 C-0.04063832 3.33382885 -0.042721 1.66611905 0 0 Z " fill="#BD6953" transform="translate(158,135)"/>
<path d="M0 0 C4 1 4 1 4 1 Z M-3 1 C-2.01 1.33 -1.02 1.66 0 2 C-0.65032 6.46270038 -1.30781933 10.92427195 -1.97143555 15.38500977 C-2.19532307 16.89645089 -2.41738823 18.40816331 -2.63745117 19.92016602 C-4.01932121 29.4043902 -5.66155621 38.69602222 -8 48 C-8.33 48 -8.66 48 -9 48 C-8.38077559 38.41933549 -7.297566 28.94828264 -6 19.4375 C-5.82003464 18.08532341 -5.64034597 16.73310997 -5.4609375 15.38085938 C-4.0191231 4.68022939 -4.0191231 4.68022939 -3 1 Z " fill="#EAA16B" transform="translate(99,147)"/>
<path d="M0 0 C0.99 0.66 1.98 1.32 3 2 C3.375 4.5 3.375 4.5 3 7 C-0.80529564 9.53686376 -3.53909062 9.59355135 -8 9 C-10.0625 7.8125 -10.0625 7.8125 -11 6 C-10.8125 3.375 -10.8125 3.375 -10 1 C-6.87293041 -0.5635348 -3.42017557 -0.39958487 0 0 Z " fill="#EEA471" transform="translate(167,62)"/>
<path d="M0 0 C2.0625 1.25 2.0625 1.25 3 3 C2.72963853 5.97397616 2.14553974 6.85446026 0 9 C-7.30434783 9.46376812 -7.30434783 9.46376812 -11 7 C-11.375 4.5 -11.375 4.5 -11 2 C-7.20034921 -0.53310053 -4.45613438 -0.60218032 0 0 Z " fill="#EEA471" transform="translate(97,62)"/>
<path d="M0 0 C0.33 3.63 0.66 7.26 1 11 C-3.455 11.495 -3.455 11.495 -8 12 C-8.66 8.37 -9.32 4.74 -10 1 C-6.56484998 0.37542727 -3.50935186 0 0 0 Z " fill="#49B393" transform="translate(144,108)"/>
<path d="M0 0 C5.94 0.66 11.88 1.32 18 2 C18 3.98 18 5.96 18 8 C12.06 7.34 6.12 6.68 0 6 C0 4.02 0 2.04 0 0 Z " fill="#48B291" transform="translate(103,122)"/>
<path d="M0 0 C0.66 0 1.32 0 2 0 C1.42655063 2.86724686 1.1385485 3.8614515 -1 6 C-4.625 6.125 -4.625 6.125 -8 6 C-8.66 7.32 -9.32 8.64 -10 10 C-12.31 9.67 -14.62 9.34 -17 9 C-17.2784375 9.9590625 -17.2784375 9.9590625 -17.5625 10.9375 C-19 13 -19 13 -22.625 13.75 C-23.73875 13.8325 -24.8525 13.915 -26 14 C-26.33 12.68 -26.66 11.36 -27 10 C-25.906875 9.896875 -24.81375 9.79375 -23.6875 9.6875 C-20.08001834 9.37456435 -20.08001834 9.37456435 -18.4375 7.4375 C-17.963125 6.963125 -17.48875 6.48875 -17 6 C-15 6 -13 6 -11 6 C-10.505 5.484375 -10.01 4.96875 -9.5 4.4375 C-9.005 3.963125 -8.51 3.48875 -8 3 C-4.8125 3.3125 -4.8125 3.3125 -2 4 C-1.34 2.68 -0.68 1.36 0 0 Z " fill="#CADBE2" transform="translate(166,208)"/>
<path d="M0 0 C0.99 2.97 1.98 5.94 3 9 C0.1875 10.5625 0.1875 10.5625 -3 12 C-6 11 -6 11 -7.16796875 8.93359375 C-7.50441406 8.10988281 -7.84085938 7.28617187 -8.1875 6.4375 C-8.53167969 5.61121094 -8.87585938 4.78492187 -9.23046875 3.93359375 C-9.48441406 3.29550781 -9.73835937 2.65742187 -10 2 C-3.375 0 -3.375 0 0 0 Z " fill="#49B393" transform="translate(161,104)"/>
<path d="M0 0 C0.7734375 0.433125 0.7734375 0.433125 1.5625 0.875 C4.12062051 2.13131347 4.12062051 2.13131347 7.5 3 C10.30326427 3.80093265 12.432882 4.716441 15 6 C16.299375 6.2475 16.299375 6.2475 17.625 6.5 C20 7 20 7 22 9 C24.32275177 9.40047444 26.65739357 9.7397104 29 10 C28.67 11.32 28.34 12.64 28 14 C24.625 13.75 24.625 13.75 21 13 C19.5625 10.9375 19.5625 10.9375 19 9 C16.36 9 13.72 9 11 9 C10.67 8.01 10.34 7.02 10 6 C8.906875 6.061875 7.81375 6.12375 6.6875 6.1875 C3 6 3 6 1.0625 4.6875 C0 3 0 3 0 0 Z " fill="#C8D8DF" transform="translate(88,208)"/>
<path d="M0 0 C14.78132118 0.96355353 14.78132118 0.96355353 21 2 C21 3.32 21 4.64 21 6 C12.99054432 6.30372936 6.30934715 6.50848663 -1 3 C-0.67 2.01 -0.34 1.02 0 0 Z " fill="#22A984" transform="translate(98,143)"/>
<path d="M0 0 C2.97 0.33 5.94 0.66 9 1 C8.67 4.3 8.34 7.6 8 11 C5.03 11 2.06 11 -1 11 C-0.67 7.37 -0.34 3.74 0 0 Z " fill="#48B494" transform="translate(112,108)"/>
<path d="M0 0 C3.875 0.875 3.875 0.875 5 2 C6.134375 2.12375 7.26875 2.2475 8.4375 2.375 C9.613125 2.58125 10.78875 2.7875 12 3 C12.99 4.485 12.99 4.485 14 6 C17.58357241 6.25015873 17.58357241 6.25015873 21 6 C21.66 7.32 22.32 8.64 23 10 C24.98 10 26.96 10 29 10 C29 10.99 29 11.98 29 13 C25.625 13.1875 25.625 13.1875 22 13 C21.34 12.01 20.68 11.02 20 10 C17.67284 9.62599214 15.33882138 9.29235267 13 9 C12.34 8.34 11.68 7.68 11 7 C8.67724823 6.59952556 6.34260643 6.2602896 4 6 C3.67 5.01 3.34 4.02 3 3 C2.01 3 1.02 3 0 3 C0 2.01 0 1.02 0 0 Z " fill="#CBDAE0" transform="translate(89,200)"/>
<path d="M0 0 C4.455 0.99 4.455 0.99 9 2 C8.43454163 5.95820859 7.19097652 8.6659053 5 12 C-0.75 10.125 -0.75 10.125 -3 9 C-2.01 6.03 -1.02 3.06 0 0 Z " fill="#48B494" transform="translate(95,104)"/>
<path d="M0 0 C0.99 0 1.98 0 3 0 C3 0.99 3 1.98 3 3 C2.01 3 1.02 3 0 3 C-0.33 3.99 -0.66 4.98 -1 6 C-2.11375 6.12375 -3.2275 6.2475 -4.375 6.375 C-8.03103677 6.6465813 -8.03103677 6.6465813 -10 9 C-11.155 9.144375 -12.31 9.28875 -13.5 9.4375 C-15.2325 9.7159375 -15.2325 9.7159375 -17 10 C-17.99 11.485 -17.99 11.485 -19 13 C-22.625 13.1875 -22.625 13.1875 -26 13 C-26 12.01 -26 11.02 -26 10 C-24.02 10 -22.04 10 -20 10 C-19.34 8.68 -18.68 7.36 -18 6 C-16.88625 6.061875 -15.7725 6.12375 -14.625 6.1875 C-13.42875 6.125625 -12.2325 6.06375 -11 6 C-10.34 5.01 -9.68 4.02 -9 3 C-7 3 -5 3 -3 3 C-1.31201173 1.56249809 -1.31201173 1.56249809 0 0 Z " fill="#CBE0E9" transform="translate(164,200)"/>
<path d="M0 0 C0.66 0.66 1.32 1.32 2 2 C-10.59433108 10.52889238 -23.39944204 13.18810145 -38.375 13.0625 C-39.39722656 13.05798828 -40.41945312 13.05347656 -41.47265625 13.04882812 C-43.98183194 13.037103 -46.4908849 13.02069176 -49 13 C-49 12.67 -49 12.34 -49 12 C-47.83984375 11.95101562 -46.6796875 11.90203125 -45.484375 11.8515625 C-29.57131853 11.12055593 -13.13737296 10.13454485 0 0 Z " fill="#B16A55" transform="translate(170,113)"/>
<path d="M0 0 C4.67692308 1.47692308 4.67692308 1.47692308 6.3125 4.125 C6.539375 4.74375 6.76625 5.3625 7 6 C5.02 8.97 5.02 8.97 3 12 C-2.75 8.375 -2.75 8.375 -5 5 C-3.35 3.35 -1.7 1.7 0 0 Z " fill="#49B594" transform="translate(88,127)"/>
<path d="M0 0 C5.28 0 10.56 0 16 0 C16.33 1.32 16.66 2.64 17 4 C11.74201496 4.89497618 6.3283621 5.64027162 1 5 C0.34 4.34 -0.32 3.68 -1 3 C-0.67 2.01 -0.34 1.02 0 0 Z " fill="#0D8A6A" transform="translate(120,120)"/>
<path d="M0 0 C0.99 0 1.98 0 3 0 C3 1.65 3 3.3 3 5 C4.32 5.33 5.64 5.66 7 6 C7.061875 6.928125 7.12375 7.85625 7.1875 8.8125 C7.455625 9.864375 7.72375 10.91625 8 12 C8.825 12.474375 9.65 12.94875 10.5 13.4375 C11.325 13.953125 12.15 14.46875 13 15 C13.8125 18.6875 13.8125 18.6875 14 22 C12.68 22 11.36 22 10 22 C9.87625 20.576875 9.87625 20.576875 9.75 19.125 C9.5025 18.09375 9.255 17.0625 9 16 C8.34 15.67 7.68 15.34 7 15 C6.34 14.67 5.68 14.34 5 14 C4.65977214 12.00116131 4.32670903 10.00109278 4 8 C2.67151309 6.99357052 1.33849671 5.99307821 0 5 C-0.25 2.3125 -0.25 2.3125 0 0 Z " fill="#CBDFE7" transform="translate(67,126)"/>
<path d="M0 0 C0.66 0.33 1.32 0.66 2 1 C2.25 3.3125 2.25 3.3125 2 6 C0.67732273 7.01405257 -0.65724831 8.01268258 -2 9 C-2.69100553 10.99172182 -3.35902703 12.99161804 -4 15 C-4.99 15.66 -5.98 16.32 -7 17 C-7.73343428 20.06556598 -7.73343428 20.06556598 -8 23 C-9.32 22.67 -10.64 22.34 -12 22 C-11.25 18.625 -11.25 18.625 -10 15 C-8.66666667 14.33333333 -7.33333333 13.66666667 -6 13 C-4.70079254 9.45411499 -4.70079254 9.45411499 -4 6 C-3.01 6 -2.02 6 -1 6 C-1.020625 5.195625 -1.04125 4.39125 -1.0625 3.5625 C-1 1 -1 1 0 0 Z " fill="#C9E4F0" transform="translate(187,125)"/>
<path d="M0 0 C-0.99 0 -1.98 0 -3 0 C-3 1.32 -3 2.64 -3 4 C-8.48675196 5.86783046 -13.22192976 6.2358396 -19 6 C-19 5.67 -19 5.34 -19 5 C-17.02 4.67 -15.04 4.34 -13 4 C-13 3.01 -13 2.02 -13 1 C-11.58622218 0.63447197 -10.16879424 0.28304505 -8.75 -0.0625 C-7.96109375 -0.25972656 -7.1721875 -0.45695312 -6.359375 -0.66015625 C-3.89605178 -1.01497267 -2.34395868 -0.76877544 0 0 Z " fill="#298C72" transform="translate(149,119)"/>
<path d="M0 0 C1.67542976 0.28604898 3.34385343 0.61781233 5 1 C5.33 2.65 5.66 4.3 6 6 C3.6875 7.125 3.6875 7.125 1 8 C0.01 7.34 -0.98 6.68 -2 6 C-1.125 1.125 -1.125 1.125 0 0 Z " fill="#B0D1DF" transform="translate(126,150)"/>
<path d="M0 0 C2.625 0.9375 2.625 0.9375 5 2 C4.67 3.65 4.34 5.3 4 7 C1.625 7.625 1.625 7.625 -1 8 C-1.66 7.34 -2.32 6.68 -3 6 C-2.75 3.4375 -2.75 3.4375 -2 1 C-1.34 0.67 -0.68 0.34 0 0 Z " fill="#AFD2E1" transform="translate(127,163)"/>
<path d="M0 0 C3.26296197 0.22503186 4.04203745 1.04787598 6.25 3.5625 C7.11625 4.7690625 7.11625 4.7690625 8 6 C6.1875 7.5625 6.1875 7.5625 4 9 C3.01 8.67 2.02 8.34 1 8 C-0.1875 4.4375 -0.1875 4.4375 -1 1 C-0.67 0.67 -0.34 0.34 0 0 Z " fill="#19AB85" transform="translate(162,103)"/>
<path d="M0 0 C0.33 1.32 0.66 2.64 1 4 C-2.82320557 5.42258812 -5.91281305 6.24042276 -10 6 C-10 4.68 -10 3.36 -10 2 C-6.5980513 -0.09350689 -3.94727588 -0.17942163 0 0 Z " fill="#0D8A6B" transform="translate(156,117)"/>
<path d="M0 0 C3.3 0.33 6.6 0.66 10 1 C10 2.65 10 4.3 10 6 C6.37 5.34 2.74 4.68 -1 4 C-0.67 2.68 -0.34 1.36 0 0 Z " fill="#058D6D" transform="translate(100,117)"/>
<path d="M0 0 C0.598125 0.226875 1.19625 0.45375 1.8125 0.6875 C1 4.125 1 4.125 -0.1875 7.6875 C-1.1775 8.0175 -2.1675 8.3475 -3.1875 8.6875 C-4.1775 8.0275 -5.1675 7.3675 -6.1875 6.6875 C-5.78066505 4.32785727 -5.28935661 2.82815912 -3.875 0.875 C-2.1875 -0.3125 -2.1875 -0.3125 0 0 Z " fill="#19AC85" transform="translate(93.1875,103.3125)"/>
<path d="M0 0 C0.66 0.99 1.32 1.98 2 3 C-3.625 6 -3.625 6 -7 6 C-7 4.02 -7 2.04 -7 0 C-4.27584084 -1.36207958 -2.87220643 -0.86166193 0 0 Z " fill="#BB6A54" transform="translate(87,141)"/>
<path d="M0 0 C2.625 0.375 2.625 0.375 5 1 C5.625 2.875 5.625 2.875 6 5 C4 7 4 7 1.375 7.125 C0.59125 7.08375 -0.1925 7.0425 -1 7 C-1.625 4.625 -1.625 4.625 -2 2 C-1.34 1.34 -0.68 0.68 0 0 Z " fill="#AFD6E7" transform="translate(126,137)"/>
<path d="M0 0 C3.3 0.33 6.6 0.66 10 1 C9.67 2.32 9.34 3.64 9 5 C5.7 5 2.4 5 -1 5 C-0.67 3.35 -0.34 1.7 0 0 Z " fill="#1D9479" transform="translate(110,119)"/>
<path d="M0 0 C2.95409701 1.37154504 5.44008376 2.98863724 8 5 C7.67 6.32 7.34 7.64 7 9 C1.00274725 6.89285714 1.00274725 6.89285714 -1 4 C-0.6875 1.8125 -0.6875 1.8125 0 0 Z " fill="#24AA84" transform="translate(82,133)"/>
<path d="M0 0 C1.32 0.33 2.64 0.66 4 1 C4 1.66 4 2.32 4 3 C3.01 3.33 2.02 3.66 1 4 C0.01 5.485 0.01 5.485 -1 7 C-4.625 7.1875 -4.625 7.1875 -8 7 C-8 6.01 -8 5.02 -8 4 C-6.02 4 -4.04 4 -2 4 C-1.34 2.68 -0.68 1.36 0 0 Z " fill="#C9DAE0" transform="translate(146,206)"/>
<path d="M0 0 C0.33 0.99 0.66 1.98 1 3 C1.66 3.33 2.32 3.66 3 4 C2.38454214 6.31543614 1.75821964 8.62692196 1.125 10.9375 C0.95097656 11.59685547 0.77695313 12.25621094 0.59765625 12.93554688 C0.12523763 14.641503 -0.43215028 16.32339261 -1 18 C-1.66 18.33 -2.32 18.66 -3 19 C-2.48446121 12.50149789 -1.53332291 6.33773468 0 0 Z " fill="#C67255" transform="translate(120,190)"/>
<path d="M0 0 C2.16874252 0.50603992 3.99967627 0.99983813 6 2 C6.72159424 3.64363134 7.39351421 5.31050386 8 7 C4.26512223 6.5020163 2.18762365 6.12508244 -1 4 C-0.67 2.68 -0.34 1.36 0 0 Z " fill="#088C6C" transform="translate(91,141)"/>
<path d="M0 0 C3.60396306 0.44259196 4.99265709 0.97045081 7.5625 3.4375 C7.2325 4.4275 6.9025 5.4175 6.5625 6.4375 C5.9025 5.7775 5.2425 5.1175 4.5625 4.4375 C1.89300591 4.19434344 1.89300591 4.19434344 -1.0625 4.3125 C-2.06539062 4.33054688 -3.06828125 4.34859375 -4.1015625 4.3671875 C-5.25785156 4.40199219 -5.25785156 4.40199219 -6.4375 4.4375 C-3.8671875 0.4921875 -3.8671875 0.4921875 0 0 Z " fill="#25180F" transform="translate(142.4375,54.5625)"/>
<path d="M0 0 C1.71875 2.0234375 1.71875 2.0234375 3 4 C2.24074219 3.97679687 1.48148438 3.95359375 0.69921875 3.9296875 C-0.79158203 3.90261719 -0.79158203 3.90261719 -2.3125 3.875 C-3.29863281 3.85179687 -4.28476563 3.82859375 -5.30078125 3.8046875 C-8.22406527 3.79317361 -8.22406527 3.79317361 -11 6 C-10.6875 4.125 -10.6875 4.125 -10 2 C-6.29584707 -0.46943529 -4.37855495 -0.46913089 0 0 Z " fill="#25180F" transform="translate(117,55)"/>
<path d="M0 0 C1.65 0.33 3.3 0.66 5 1 C4.67 2.65 4.34 4.3 4 6 C2.35 5.67 0.7 5.34 -1 5 C-0.67 3.35 -0.34 1.7 0 0 Z " fill="#CF7E46" transform="translate(145,128)"/>
<path d="M0 0 C1.65 0 3.3 0 5 0 C5 1.65 5 3.3 5 5 C3.125 5.625 3.125 5.625 1 6 C0.34 5.34 -0.32 4.68 -1 4 C-0.625 1.875 -0.625 1.875 0 0 Z " fill="#CF7E46" transform="translate(102,181)"/>
<path d="M0 0 C0.804375 0.4640625 0.804375 0.4640625 1.625 0.9375 C4.3984957 2.17827439 7.00042837 2.5909675 10 3 C9.67 3.99 9.34 4.98 9 6 C3.52173913 6.36521739 3.52173913 6.36521739 1.125 4.6875 C0 3 0 3 0 0 Z " fill="#CED8DB" transform="translate(88,208)"/>
<path d="M0 0 C0.66 0.33 1.32 0.66 2 1 C2.3125 3.3125 2.3125 3.3125 2 6 C-0.3832946 7.81883009 -1.95818337 9 -5 9 C-4.67 8.01 -4.34 7.02 -4 6 C-3.01 6 -2.02 6 -1 6 C-1.020625 5.195625 -1.04125 4.39125 -1.0625 3.5625 C-1 1 -1 1 0 0 Z " fill="#CDDBE0" transform="translate(187,125)"/>
<path d="M0 0 C2.33944736 0.28730055 4.6739143 0.61936779 7 1 C6.34 2.32 5.68 3.64 5 5 C3.125 4.6875 3.125 4.6875 1 4 C0.34 3.01 -0.32 2.02 -1 1 C-0.67 0.67 -0.34 0.34 0 0 Z " fill="#48B391" transform="translate(95,120)"/>
<path d="M0 0 C0.99 0.33 1.98 0.66 3 1 C2.67 2.98 2.34 4.96 2 7 C0.68 6.34 -0.64 5.68 -2 5 C-2 3.68 -2 2.36 -2 1 C-1.34 0.67 -0.68 0.34 0 0 Z " fill="#088D6D" transform="translate(99,127)"/>
<path d="M0 0 C3.25743085 3.5726661 4.78762164 6.11529769 5 11 C4.01 12.485 4.01 12.485 3 14 C2.49528803 12.23050388 1.99639315 10.45934777 1.5 8.6875 C1.2215625 7.70136719 0.943125 6.71523438 0.65625 5.69921875 C0 3 0 3 0 0 Z " fill="#CB7C51" transform="translate(172,39)"/>
<path d="M0 0 C1.65 0.99 3.3 1.98 5 3 C4.67 4.32 4.34 5.64 4 7 C0.125 5.25 0.125 5.25 -1 3 C-0.67 2.01 -0.34 1.02 0 0 Z " fill="#0E8F67" transform="translate(86,109)"/>
<path d="M0 0 C3.55780196 0.60990891 6.6828589 1.5783681 10 3 C10 3.66 10 4.32 10 5 C7.25 5.3125 7.25 5.3125 4 5 C1.625 2.5 1.625 2.5 0 0 Z " fill="#CAE4F0" transform="translate(95,212)"/>
<path d="M0 0 C0.33 0.99 0.66 1.98 1 3 C-1.475 4.485 -1.475 4.485 -4 6 C-4.33 4.68 -4.66 3.36 -5 2 C-2 0 -2 0 0 0 Z " fill="#0A8C6A" transform="translate(170,110)"/>
<path d="M0 0 C0.99 0.33 1.98 0.66 3 1 C3 2.98 3 4.96 3 7 C1.68 6.67 0.36 6.34 -1 6 C-0.67 4.02 -0.34 2.04 0 0 Z " fill="#B7D1DF" transform="translate(176,141)"/>
<path d="M0 0 C0.33 2.31 0.66 4.62 1 7 C-0.32 7 -1.64 7 -3 7 C-3 5.02 -3 3.04 -3 1 C-1 0 -1 0 0 0 Z " fill="#B7D1DF" transform="translate(80,141)"/>
<path d="M0 0 C1.32 0 2.64 0 4 0 C4.33 0.66 4.66 1.32 5 2 C5.99 2.33 6.98 2.66 8 3 C8 3.66 8 4.32 8 5 C6.35 4.67 4.7 4.34 3 4 C2.67 3.01 2.34 2.02 2 1 C1.34 0.67 0.68 0.34 0 0 Z " fill="#C9E6F3" transform="translate(98,204)"/>
<path d="M0 0 C-0.33 2.31 -0.66 4.62 -1 7 C-2.32 7 -3.64 7 -5 7 C-5 4 -5 4 -3.0625 1.8125 C-1 0 -1 0 0 0 Z " fill="#289577" transform="translate(103,121)"/>
</svg>
