<?xml version="1.0" encoding="UTF-8"?>
<svg version="1.1" xmlns="http://www.w3.org/2000/svg" width="256" height="256">
<path d="M0 0 C17.59455955 6.48666894 30.3998042 18.82524077 39.2421875 35.1953125 C40.79172153 38.72340463 41.83876937 41.31753032 41.2421875 45.1953125 C39.6796875 47.5078125 39.6796875 47.5078125 37.2421875 49.1953125 C33.27278082 49.54972381 30.05609922 49.14879043 26.2421875 48.1953125 C20.94235278 47.80273215 17.76967098 48.40175886 13.2421875 51.1953125 C12.25630361 52.10475084 11.27724675 53.02163851 10.3046875 53.9453125 C7.2421875 56.1953125 7.2421875 56.1953125 3.8046875 56.1953125 C1.16871664 55.45539086 -0.99152438 54.69234382 -3.4453125 53.5703125 C-6.54318846 51.96227721 -6.54318846 51.96227721 -9.1953125 52.5078125 C-9.96875 52.848125 -9.96875 52.848125 -10.7578125 53.1953125 C-10.2628125 53.9790625 -9.7678125 54.7628125 -9.2578125 55.5703125 C-7.7578125 58.1953125 -7.7578125 58.1953125 -7.7578125 60.1953125 C-7.0565625 60.20949219 -6.3553125 60.22367188 -5.6328125 60.23828125 C3.50991567 60.6979021 8.70944848 63.30723395 14.9921875 69.8828125 C18.58306471 74.20334285 20.55844876 78.87252551 22.2421875 84.1953125 C22.43554688 84.78570312 22.62890625 85.37609375 22.828125 85.984375 C25.28082884 99.08088794 23.03138258 111.64486934 16 122.86328125 C13.64224017 125.99124263 10.93976695 128.39494478 7.87890625 130.8203125 C5.0123338 133.22850702 4.9696617 135.65999687 4.53369141 139.23657227 C4.40330475 140.28849258 4.27291809 141.3404129 4.13858032 142.42420959 C4.00003632 143.56683762 3.86149231 144.70946564 3.71875 145.88671875 C3.41698452 148.30016997 3.11489059 150.71358015 2.8125 153.12695312 C2.33923886 156.93582343 1.86875222 160.74497703 1.40429688 164.55493164 C0.95479931 168.22909603 0.49379166 171.90167679 0.03125 175.57421875 C-0.10324554 176.70267715 -0.23774109 177.83113556 -0.37631226 178.99378967 C-2.62298954 196.64600575 -2.62298954 196.64600575 -9.7578125 202.1953125 C-30.08433668 213.97499799 -55.1645343 213.35585084 -77.8828125 213.4453125 C-78.72290863 213.4507608 -79.56300476 213.45620911 -80.42855835 213.46182251 C-96.18509953 213.53774051 -111.86592728 212.56787755 -127.3203125 209.3203125 C-128.15256348 209.14814209 -128.98481445 208.97597168 -129.84228516 208.79858398 C-138.4596705 206.94041274 -146.59308258 204.81112021 -152.7578125 198.1953125 C-155.34707145 192.30431394 -156.49093968 186.74396932 -157.29296875 180.38671875 C-157.41715683 179.4617308 -157.54134491 178.53674286 -157.66929626 177.58372498 C-158.06181843 174.64284721 -158.44114185 171.70043809 -158.8203125 168.7578125 C-159.07793753 166.81824781 -159.33639458 164.87879345 -159.59570312 162.93945312 C-161.64524011 147.48891492 -161.64524011 147.48891492 -162.27197266 141.1472168 C-162.35192978 140.36809433 -162.4318869 139.58897186 -162.51426697 138.78623962 C-162.65856225 137.34882033 -162.79158455 135.91020214 -162.91065979 134.47047424 C-163.44038012 129.24622887 -165.11563994 126.64462662 -168.87890625 123.140625 C-175.90771035 115.86340163 -178.63787983 105.15709931 -179.1328125 95.3203125 C-178.90440141 86.66756293 -175.71702935 79.21680043 -169.75390625 72.984375 C-164.90589589 68.63919155 -160.28281505 65.19123394 -153.7578125 64.1953125 C-153.4484375 62.926875 -153.4484375 62.926875 -153.1328125 61.6328125 C-149.99451316 53.78706414 -144.34079787 49.57157888 -136.7578125 46.1953125 C-135.6646875 45.9271875 -134.5715625 45.6590625 -133.4453125 45.3828125 C-129.80858633 43.77588698 -129.35856808 41.75632422 -127.81640625 38.23046875 C-125.2995065 33.39170577 -120.80748053 30.89845497 -115.7578125 29.1953125 C-109.27394731 28.36181115 -104.06614418 28.88170119 -98.4140625 32.22265625 C-96.60703544 33.36097596 -96.60703544 33.36097596 -93.7578125 34.1953125 C-92.85804687 33.88851562 -91.95828125 33.58171875 -91.03125 33.265625 C-87.3006938 32.04584887 -84.29602273 31.99647834 -80.3828125 32.0703125 C-79.13757813 32.08835938 -77.89234375 32.10640625 -76.609375 32.125 C-75.66835937 32.14820313 -74.72734375 32.17140625 -73.7578125 32.1953125 C-70.77323963 27.51948167 -69.20141749 23.69803224 -68.34765625 18.2109375 C-67.61937055 15.72222609 -66.87237689 14.69473089 -64.7578125 13.1953125 C-62.63671875 13.0859375 -62.63671875 13.0859375 -60.3203125 13.4453125 C-59.55847656 13.55359375 -58.79664063 13.661875 -58.01171875 13.7734375 C-55.7578125 14.1953125 -55.7578125 14.1953125 -53.85546875 14.72265625 C-45.31157612 16.64781642 -36.27622643 15.74296737 -28.7578125 11.1953125 C-25.56688563 8.46809175 -23.61095343 5.00402258 -21.5703125 1.3828125 C-17.06857792 -6.53403107 -7.06528551 -2.3333391 0 0 Z " fill="#6D2131" transform="translate(196.7578125,22.8046875)"/>
<path d="M0 0 C0 0.66 0 1.32 0 2 C-1.28197266 2.09087891 -1.28197266 2.09087891 -2.58984375 2.18359375 C-3.69457031 2.26738281 -4.79929688 2.35117188 -5.9375 2.4375 C-7.03964844 2.51871094 -8.14179688 2.59992188 -9.27734375 2.68359375 C-11.91109903 2.70418084 -11.91109903 2.70418084 -13 4 C-12.13117188 3.97679688 -11.26234375 3.95359375 -10.3671875 3.9296875 C-9.21476563 3.91164063 -8.06234375 3.89359375 -6.875 3.875 C-5.16957031 3.84019531 -5.16957031 3.84019531 -3.4296875 3.8046875 C0.79715144 4.04539587 4.22791069 5.11395535 8 7 C8.33 6.34 8.66 5.68 9 5 C13.09949571 9.30972626 14.63118644 11.85310727 15 18 C14.443125 18.27972656 13.88625 18.55945313 13.3125 18.84765625 C7.49327789 21.90471381 2.77008885 25.4898615 -2 30 C-1.29037109 29.41992188 -1.29037109 29.41992188 -0.56640625 28.828125 C7.96364651 22.1105006 16.90921724 17.87822235 28 19 C34.05510324 20.77477164 37.68182508 23.74538257 41 29 C42.27529882 31.94261558 43.20270571 34.89686178 44 38 C44.27457031 38.95132813 44.27457031 38.95132813 44.5546875 39.921875 C46.41935226 48.62364389 45.10109064 57.17064514 41 65 C36.80166174 71.04845343 31.47571963 76.58897488 24 78 C22.25113019 78.06624507 20.49997252 78.08552595 18.75 78.0625 C17.41195312 78.04896484 17.41195312 78.04896484 16.046875 78.03515625 C15.37140625 78.02355469 14.6959375 78.01195312 14 78 C15.32388348 74.94987629 16.58383635 73.33258862 19.25 71.375 C24.94949307 66.68901511 28.87903433 60.31234582 30 53 C29.75507813 53.60585937 29.51015625 54.21171875 29.2578125 54.8359375 C24.71400395 65.02033598 17.49558426 72.64674545 7.234375 77.171875 C4.4188868 78.21537762 2.00625503 78.81210906 -1 79 C-1.66773438 79.061875 -2.33546875 79.12375 -3.0234375 79.1875 C-14.89235462 79.81840589 -26.6354953 75.12540918 -37.82275391 71.70092773 C-39.13180293 71.30051058 -40.44088521 70.90020212 -41.75 70.5 C-42.40055359 70.30093048 -43.05110718 70.10186096 -43.72137451 69.89675903 C-61.24449031 64.55644042 -78.51731667 60.85938842 -96.875 60.6875 C-97.89980469 60.65849609 -98.92460938 60.62949219 -99.98046875 60.59960938 C-109.78144464 60.51866104 -117.38657351 62.91638792 -124.625 69.6328125 C-125.75189552 70.7533052 -126.87630133 71.87630133 -128 73 C-134.60606061 65.98989899 -134.60606061 65.98989899 -135 61 C-135.17789063 60.31550781 -135.35578125 59.63101563 -135.5390625 58.92578125 C-136.18338933 54.83594402 -135.84833653 50.92920308 -135.5625 46.8125 C-135.45935585 45.19402821 -135.35647837 43.57553939 -135.25390625 41.95703125 C-135.17011719 40.65121094 -135.08632812 39.34539062 -135 38 C-135 37.34 -135 36.68 -135 36 C-136.43023178 40.67209049 -137.40380045 45.13103697 -138 50 C-138.66 50 -139.32 50 -140 50 C-140.67225277 42.00766154 -139.95096348 36.45011018 -135 30 C-129.50686742 23.60799118 -122.16845589 20.70359387 -113.9296875 19.58203125 C-102.16074049 19.04707911 -90.43879178 23.01529408 -81 30 C-80.505 30.99 -80.505 30.99 -80 32 C-80.57443848 31.98428955 -81.14887695 31.9685791 -81.74072266 31.95239258 C-84.36871309 31.88964487 -86.99654537 31.85088494 -89.625 31.8125 C-90.52863281 31.78736328 -91.43226562 31.76222656 -92.36328125 31.73632812 C-97.71024149 31.67778476 -101.34014531 32.05082286 -106 35 C-103.10169247 34.11908489 -103.10169247 34.11908489 -100.9375 32.9375 C-85.5931535 28.04036814 -68.87296813 38.90540696 -55.6953125 45.66040039 C-38.9811795 54.17704502 -19.92865683 60.04032547 -1.125 54.75 C5.90250161 52.09461714 11.53403479 47.90233884 14.9765625 41.05859375 C15.6972358 39.39161578 16.35489232 37.6976518 17 36 C16.67 35.67 16.34 35.34 16 35 C15.90332031 35.7321875 15.80664062 36.464375 15.70703125 37.21875 C14.41170233 42.31418754 10.9235871 45.64733734 7 49 C-7.16927279 56.76197889 -21.73508745 56.33863524 -37 52 C-40.43362735 50.84078393 -43.71021682 49.45998038 -46.99365234 47.92822266 C-48.53520303 47.21503506 -50.08379109 46.51704325 -51.63525391 45.82568359 C-54.68313241 44.46663785 -57.71721143 43.07986581 -60.75 41.6875 C-61.73282959 41.24986328 -62.71565918 40.81222656 -63.72827148 40.36132812 C-69.64835328 37.58815533 -73.8645538 34.58247571 -78.31054688 29.79077148 C-87.78804422 19.74489822 -102.08196843 18.46404358 -115 17 C-114.12019065 11.21839569 -111.30229984 8.95346653 -106.9375 5.25 C-101.23451846 1.57065707 -93.46176656 2.34160572 -87 3 C-73.66188242 6.65450949 -64.27425706 19.07744023 -55.6328125 29.1953125 C-49.5636576 35.90332581 -42.99716889 42.31050513 -33.73828125 43.375 C-25.98900081 43.64308322 -19.8935608 42.55796686 -13 39 C-13 38.67 -13 38.34 -13 38 C-13.68964844 38.28875 -14.37929687 38.5775 -15.08984375 38.875 C-24.48133541 42.58521893 -31.16551187 43.4272742 -40.55859375 39.35546875 C-44.55008156 37.13939472 -47.77624824 34.20574198 -51 31 C-45.29293094 27.19528729 -40.43085547 25.51242714 -33.75 24.5625 C-21.63789958 22.84561139 -21.63789958 22.84561139 -12 16 C-12 15.01 -12 14.02 -12 13 C-14.46369532 11.76815234 -16.1894501 11.83267658 -18.9375 11.8125 C-20.25041016 11.79123047 -20.25041016 11.79123047 -21.58984375 11.76953125 C-24.26244335 11.83336651 -24.26244335 11.83336651 -27 14 C-26.01 13.67 -25.02 13.34 -24 13 C-22.43881572 12.93259135 -20.8749748 12.91485544 -19.3125 12.9375 C-18.10013672 12.95103516 -18.10013672 12.95103516 -16.86328125 12.96484375 C-15.94095703 12.98224609 -15.94095703 12.98224609 -15 13 C-15 14.32 -15 15.64 -15 17 C-22.71643408 20.64948279 -29.43405811 22.81451701 -38 23 C-37.72285156 22.43152344 -37.44570312 21.86304687 -37.16015625 21.27734375 C-36.79792969 20.50519531 -36.43570313 19.73304687 -36.0625 18.9375 C-35.70285156 18.18339844 -35.34320313 17.42929688 -34.97265625 16.65234375 C-33.80161394 13.45901954 -33.39183653 10.36979416 -33 7 C-21.73577327 2.29256196 -12.38744092 -1.27309752 0 0 Z " fill="#CCFBFC" transform="translate(167,73)"/>
<path d="M0 0 C17.59455955 6.48666894 30.3998042 18.82524077 39.2421875 35.1953125 C40.79172153 38.72340463 41.83876937 41.31753032 41.2421875 45.1953125 C39.6796875 47.5078125 39.6796875 47.5078125 37.2421875 49.1953125 C33.27278082 49.54972381 30.05609922 49.14879043 26.2421875 48.1953125 C20.94235278 47.80273215 17.76967098 48.40175886 13.2421875 51.1953125 C12.25630361 52.10475084 11.27724675 53.02163851 10.3046875 53.9453125 C7.2421875 56.1953125 7.2421875 56.1953125 3.8046875 56.1953125 C1.16871664 55.45539086 -0.99152438 54.69234382 -3.4453125 53.5703125 C-6.54318846 51.96227721 -6.54318846 51.96227721 -9.1953125 52.5078125 C-9.96875 52.848125 -9.96875 52.848125 -10.7578125 53.1953125 C-10.2628125 53.9790625 -9.7678125 54.7628125 -9.2578125 55.5703125 C-7.7578125 58.1953125 -7.7578125 58.1953125 -7.7578125 60.1953125 C-7.0565625 60.20949219 -6.3553125 60.22367188 -5.6328125 60.23828125 C3.50991567 60.6979021 8.70944848 63.30723395 14.9921875 69.8828125 C18.58306471 74.20334285 20.55844876 78.87252551 22.2421875 84.1953125 C22.43554688 84.78570312 22.62890625 85.37609375 22.828125 85.984375 C25.28082884 99.08088794 23.03138258 111.64486934 16 122.86328125 C13.64224017 125.99124263 10.93976695 128.39494478 7.87890625 130.8203125 C5.0123338 133.22850702 4.9696617 135.65999687 4.53369141 139.23657227 C4.40330475 140.28849258 4.27291809 141.3404129 4.13858032 142.42420959 C4.00003632 143.56683762 3.86149231 144.70946564 3.71875 145.88671875 C3.41698452 148.30016997 3.11489059 150.71358015 2.8125 153.12695312 C2.33923886 156.93582343 1.86875222 160.74497703 1.40429688 164.55493164 C0.95479931 168.22909603 0.49379166 171.90167679 0.03125 175.57421875 C-0.10324554 176.70267715 -0.23774109 177.83113556 -0.37631226 178.99378967 C-2.62298954 196.64600575 -2.62298954 196.64600575 -9.7578125 202.1953125 C-30.08433668 213.97499799 -55.1645343 213.35585084 -77.8828125 213.4453125 C-78.72290863 213.4507608 -79.56300476 213.45620911 -80.42855835 213.46182251 C-96.18509953 213.53774051 -111.86592728 212.56787755 -127.3203125 209.3203125 C-128.15256348 209.14814209 -128.98481445 208.97597168 -129.84228516 208.79858398 C-138.4596705 206.94041274 -146.59308258 204.81112021 -152.7578125 198.1953125 C-155.34707145 192.30431394 -156.49093968 186.74396932 -157.29296875 180.38671875 C-157.41715683 179.4617308 -157.54134491 178.53674286 -157.66929626 177.58372498 C-158.06181843 174.64284721 -158.44114185 171.70043809 -158.8203125 168.7578125 C-159.07793753 166.81824781 -159.33639458 164.87879345 -159.59570312 162.93945312 C-161.64524011 147.48891492 -161.64524011 147.48891492 -162.27197266 141.1472168 C-162.35192978 140.36809433 -162.4318869 139.58897186 -162.51426697 138.78623962 C-162.65856225 137.34882033 -162.79158455 135.91020214 -162.91065979 134.47047424 C-163.44038012 129.24622887 -165.11563994 126.64462662 -168.87890625 123.140625 C-175.90771035 115.86340163 -178.63787983 105.15709931 -179.1328125 95.3203125 C-178.90440141 86.66756293 -175.71702935 79.21680043 -169.75390625 72.984375 C-164.90589589 68.63919155 -160.28281505 65.19123394 -153.7578125 64.1953125 C-153.4484375 62.926875 -153.4484375 62.926875 -153.1328125 61.6328125 C-149.99451316 53.78706414 -144.34079787 49.57157888 -136.7578125 46.1953125 C-135.6646875 45.9271875 -134.5715625 45.6590625 -133.4453125 45.3828125 C-129.80858633 43.77588698 -129.35856808 41.75632422 -127.81640625 38.23046875 C-125.2995065 33.39170577 -120.80748053 30.89845497 -115.7578125 29.1953125 C-109.27394731 28.36181115 -104.06614418 28.88170119 -98.4140625 32.22265625 C-96.60703544 33.36097596 -96.60703544 33.36097596 -93.7578125 34.1953125 C-92.85804687 33.88851562 -91.95828125 33.58171875 -91.03125 33.265625 C-87.3006938 32.04584887 -84.29602273 31.99647834 -80.3828125 32.0703125 C-79.13757813 32.08835938 -77.89234375 32.10640625 -76.609375 32.125 C-75.66835937 32.14820313 -74.72734375 32.17140625 -73.7578125 32.1953125 C-70.77323963 27.51948167 -69.20141749 23.69803224 -68.34765625 18.2109375 C-67.61937055 15.72222609 -66.87237689 14.69473089 -64.7578125 13.1953125 C-62.63671875 13.0859375 -62.63671875 13.0859375 -60.3203125 13.4453125 C-59.55847656 13.55359375 -58.79664063 13.661875 -58.01171875 13.7734375 C-55.7578125 14.1953125 -55.7578125 14.1953125 -53.85546875 14.72265625 C-45.31157612 16.64781642 -36.27622643 15.74296737 -28.7578125 11.1953125 C-25.56688563 8.46809175 -23.61095343 5.00402258 -21.5703125 1.3828125 C-17.06857792 -6.53403107 -7.06528551 -2.3333391 0 0 Z M-20.97265625 10.64453125 C-24.76042205 16.05680929 -30.5073628 18.53777502 -36.7578125 20.1953125 C-39.90892505 20.44957888 -43.03593312 20.4297462 -46.1953125 20.3828125 C-47.01580078 20.38216797 -47.83628906 20.38152344 -48.68164062 20.38085938 C-53.4702654 20.34646383 -58.03554087 19.98977273 -62.7578125 19.1953125 C-62.97695312 20.05253906 -63.19609375 20.90976562 -63.421875 21.79296875 C-65.43550142 29.05348353 -67.34919292 33.90961609 -72.7578125 39.1953125 C-73.8096875 38.95554687 -73.8096875 38.95554687 -74.8828125 38.7109375 C-77.88643223 38.17224483 -80.70761099 37.99199926 -83.7578125 37.9453125 C-84.7684375 37.91953125 -85.7790625 37.89375 -86.8203125 37.8671875 C-90.17687739 38.24212294 -91.94809332 39.39177654 -94.7578125 41.1953125 C-95.7478125 41.1953125 -96.7378125 41.1953125 -97.7578125 41.1953125 C-99.42447917 39.52864583 -101.09114583 37.86197917 -102.7578125 36.1953125 C-106.60405517 33.84483087 -110.12264984 33.90335231 -114.47265625 34.53515625 C-118.50257498 35.69935499 -121.25277403 37.8576334 -123.7578125 41.1953125 C-124.85467131 43.92276945 -125.30231945 46.25991284 -125.7578125 49.1953125 C-127.0571875 49.4015625 -128.3565625 49.6078125 -129.6953125 49.8203125 C-138.49428866 51.82636839 -143.98670802 56.65203474 -148.76171875 64.14453125 C-149.97626448 66.26508462 -149.97626448 66.26508462 -149.7578125 69.1953125 C-150.5621875 69.2365625 -151.3665625 69.2778125 -152.1953125 69.3203125 C-159.88987365 71.21020471 -166.42152886 76.61269177 -170.7578125 83.1953125 C-174.18531426 90.18032471 -173.74102906 98.27561434 -171.8828125 105.68359375 C-168.99506672 113.76738211 -164.80800979 120.14511521 -158.7578125 126.1953125 C-158.3276863 128.58247555 -158.00756449 130.89388515 -157.7578125 133.30078125 C-157.59122701 134.76091421 -157.42455792 136.22103764 -157.2578125 137.68115234 C-157.1340625 138.8059903 -157.1340625 138.8059903 -157.0078125 139.95355225 C-156.62015839 143.42966256 -156.18822995 146.90006497 -155.7578125 150.37109375 C-155.59100531 151.72719626 -155.42433888 153.0833161 -155.2578125 154.43945312 C-155.1753125 155.10952393 -155.0928125 155.77959473 -155.0078125 156.4699707 C-154.84006386 157.83735142 -154.67341096 159.20486698 -154.5078125 160.57250977 C-153.59799158 168.07764387 -152.6136954 175.53909128 -151.16162109 182.9621582 C-150.79639583 184.98193779 -150.58052126 187.02732196 -150.3828125 189.0703125 C-149.58808587 193.04394567 -148.78137135 194.45971163 -145.7578125 197.1953125 C-131.14815555 206.655427 -109.43457429 207.34411312 -92.51171875 207.36328125 C-90.93583229 207.36827385 -90.93583229 207.36827385 -89.32810974 207.37336731 C-87.11368239 207.37840255 -84.89924753 207.3807767 -82.68481445 207.38061523 C-79.36070646 207.38278612 -76.03693943 207.40093576 -72.71289062 207.41992188 C-47.87360972 207.54320036 -47.87360972 207.54320036 -23.7578125 202.1953125 C-22.86449219 201.89625 -21.97117188 201.5971875 -21.05078125 201.2890625 C-15.96746504 199.44329029 -11.88959329 197.79511553 -8.7578125 193.1953125 C-7.66965156 189.5882605 -7.25426961 185.92302065 -6.7578125 182.1953125 C-6.42520672 180.25037989 -6.09256832 178.30545283 -5.75952148 176.3605957 C-4.66475842 169.88638119 -3.75014286 163.43271935 -3.1619873 156.89219666 C-2.88565285 153.82488833 -2.58406868 150.76017539 -2.28411865 147.69509888 C-2.14245075 146.16297847 -2.01406107 144.62956784 -1.8994751 143.09518433 C-0.96735798 130.6729766 -0.96735798 130.6729766 2.05615234 126.97924805 C4.18359375 125.40625 4.18359375 125.40625 6.25610352 124.28662109 C12.0241926 121.11718555 14.58382884 114.89608593 16.6171875 108.9453125 C19.97860179 96.71428403 18.47854694 86.93762458 12.4296875 75.8828125 C8.85600666 71.49229033 5.04818385 67.10647251 -0.7578125 66.1953125 C-2.67342504 66.12842659 -4.59116842 66.10999531 -6.5078125 66.1328125 C-7.98507813 66.14634766 -7.98507813 66.14634766 -9.4921875 66.16015625 C-10.23984375 66.17175781 -10.9875 66.18335938 -11.7578125 66.1953125 C-11.78875 64.9578125 -11.78875 64.9578125 -11.8203125 63.6953125 C-13.1514406 58.7257676 -16.22900233 55.82547231 -19.7578125 52.1953125 C-16.34707913 48.67088802 -14.56839701 47.04849545 -9.6328125 46.9453125 C-6.20060943 46.96189319 -3.61641327 47.4548649 -0.4453125 48.7578125 C3.52239957 50.34737251 3.52239957 50.34737251 7.2421875 49.1953125 C9.2589533 47.54897307 11.25958324 45.88263527 13.2421875 44.1953125 C16.06630515 43.25393995 17.77136782 43.07805868 20.69140625 43.09765625 C21.53896484 43.10087891 22.38652344 43.10410156 23.25976562 43.10742188 C24.14083984 43.11580078 25.02191406 43.12417969 25.9296875 43.1328125 C27.26870117 43.13958008 27.26870117 43.13958008 28.63476562 43.14648438 C30.83730737 43.15826267 33.03971349 43.17471086 35.2421875 43.1953125 C33.56901451 33.2085612 27.14733481 26.22919984 20.2421875 19.1953125 C19.62601563 18.55464844 19.00984375 17.91398437 18.375 17.25390625 C10.61594505 9.81120762 -2.74888251 2.29252717 -13.75390625 2.48046875 C-17.47947537 3.80947294 -18.96697653 7.41442747 -20.97265625 10.64453125 Z " fill="#FBF9F9" transform="translate(196.7578125,22.8046875)"/>
<path d="M0 0 C14.71208087 1.84798089 26.41458699 9.82745978 36 21 C42 29.00428266 42 29.00428266 42 32 C39.23723823 31.47731534 36.6739124 30.89130413 34 30 C35.32 30.99 36.64 31.98 38 33 C34.37 33 30.74 33 27 33 C27.495 34.98 27.495 34.98 28 37 C26.906875 37.598125 25.81375 38.19625 24.6875 38.8125 C22.5060135 40.0365806 21.05620046 40.93731487 19.375 42.8125 C18.694375 43.4003125 18.694375 43.4003125 18 44 C15.16633807 43.77024363 12.89902998 42.96098886 10.25 41.9375 C5.5803621 40.59048907 0.63441871 39.76090735 -3.91015625 41.8984375 C-5.74387183 43.08154985 -5.74387183 43.08154985 -8 45 C-7.59007812 45.53109375 -7.18015625 46.0621875 -6.7578125 46.609375 C-6.21898437 47.31578125 -5.68015625 48.0221875 -5.125 48.75 C-4.59132812 49.44609375 -4.05765625 50.1421875 -3.5078125 50.859375 C-1.26470221 54.04389427 0 56.05567463 0 60 C0.71285156 59.96519531 1.42570312 59.93039063 2.16015625 59.89453125 C9.04002924 59.70007993 14.46849148 59.80589675 19.83984375 64.6640625 C27.44831557 72.73901568 30.39750522 81.7020246 30.27734375 92.63671875 C29.35153426 103.86378881 24.91016428 112.25414181 17 120 C15.515 119.505 15.515 119.505 14 119 C14.53109375 118.40574219 15.0621875 117.81148438 15.609375 117.19921875 C22.99665701 108.53129478 26.77947091 100.51617873 26.31640625 88.984375 C25.41831688 80.51350738 23.29678972 73.03072819 17 67 C11.23895127 63.58604519 6.0056514 63.22220361 -0.4140625 64.46875 C-5.99961721 65.92134008 -10.33075898 68.21769055 -14.9921875 71.59765625 C-16.93024492 72.95128001 -18.86261198 73.99839889 -21 75 C-16.49210569 69.06856012 -11.70831226 65.29382958 -5 62 C-4.34 62 -3.68 62 -3 62 C-3.42594588 60.55903414 -3.86626633 59.12231288 -4.3125 57.6875 C-4.55613281 56.88699219 -4.79976562 56.08648437 -5.05078125 55.26171875 C-6.07265279 52.82688903 -6.87417385 51.5602857 -9 50 C-10.32 50 -11.64 50 -13 50 C-13.73605469 49.83628906 -14.47210938 49.67257813 -15.23046875 49.50390625 C-18.92789849 48.83117221 -22.57012239 48.89402287 -26.3125 48.9375 C-27.05306641 48.94201172 -27.79363281 48.94652344 -28.55664062 48.95117188 C-30.37112899 48.96287825 -32.18557534 48.98081102 -34 49 C-30.61416198 45.86892164 -28.28890538 45.66449222 -23.75 45.8125 C-22.13351563 45.85310547 -22.13351563 45.85310547 -20.484375 45.89453125 C-19.66453125 45.92933594 -18.8446875 45.96414062 -18 46 C-18 45.34 -18 44.68 -18 44 C-28.1553843 44.03218822 -36.19451102 46.10337189 -45.578125 49.72265625 C-49 51 -49 51 -51 51 C-51 53.31 -51 55.62 -51 58 C-51.33 58 -51.66 58 -52 58 C-52.144375 56.9275 -52.28875 55.855 -52.4375 54.75 C-52.83749442 52.08337051 -53.27591924 49.58600271 -54 47 C-53.34 47 -52.68 47 -52 47 C-52.66 45.35 -53.32 43.7 -54 42 C-47.81475738 37.95230446 -41.6894061 34.15538024 -35 31 C-37.31 31.66 -39.62 32.32 -42 33 C-42.04898438 32.34773438 -42.09796875 31.69546875 -42.1484375 31.0234375 C-42.57242229 26.06720147 -43.15665573 21.66980549 -45 17 C-44.17822266 17.23783203 -44.17822266 17.23783203 -43.33984375 17.48046875 C-33.17222323 19.73805394 -22.19804312 17.73147494 -13.3203125 12.38671875 C-8.89294627 9.11337093 -5.69151112 5.79791113 -3 1 C-0.45994615 4.81008078 -0.6389668 6.45098172 -1 11 C-2.8806857 20.04651004 -2.8806857 20.04651004 -6.109375 22.796875 C-6.73328125 23.19390625 -7.3571875 23.5909375 -8 24 C-6.68 24.33 -5.36 24.66 -4 25 C-3.87625 24.46375 -3.7525 23.9275 -3.625 23.375 C-3 21 -3 21 -2 18.34375 C-0.87781472 14.59144297 -0.55567754 11.00956701 -0.375 7.125 C-0.33632812 6.43664063 -0.29765625 5.74828125 -0.2578125 5.0390625 C-0.16451834 3.35976754 -0.08121762 1.67992233 0 0 Z " fill="#712D3D" transform="translate(185,29)"/>
<path d="M0 0 C15.7737175 1.7229296 29.48392133 12.16960601 39.5 23.8125 C41.7555928 27.03348652 43.71015422 30.3138816 45.5 33.8125 C46.07041016 34.85083984 46.07041016 34.85083984 46.65234375 35.91015625 C47.5 37.8125 47.5 37.8125 47.5 40.8125 C40.57 40.4825 33.64 40.1525 26.5 39.8125 C26.83 38.8225 27.16 37.8325 27.5 36.8125 C31.955 36.3175 31.955 36.3175 36.5 35.8125 C33.035 34.3275 33.035 34.3275 29.5 32.8125 C33.20781672 31.57656109 34.17510253 32.2446868 37.6875 33.75 C39.03908203 34.32041016 39.03908203 34.32041016 40.41796875 34.90234375 C41.10503906 35.20269531 41.79210937 35.50304688 42.5 35.8125 C32.3538148 18.35845151 19.54860862 9.39083748 0.5 3.8125 C0.54640625 4.77929688 0.5928125 5.74609375 0.640625 6.7421875 C0.87020712 15.0235426 0.45570096 21.30726381 -3.5 28.8125 C-6.14 28.8125 -8.78 28.8125 -11.5 28.8125 C-10.9225 28.565 -10.345 28.3175 -9.75 28.0625 C-6.52603944 26.2714108 -4.17715866 24.55865631 -2.8046875 21.01953125 C-1.47461772 16.17695324 -0.17429274 10.46391453 -2.5 5.8125 C-2.82871094 6.32039063 -3.15742188 6.82828125 -3.49609375 7.3515625 C-9.1428968 15.52335878 -15.91087197 20.04471812 -25.5859375 22.34765625 C-31.96174825 23.36470917 -38.76603092 24.21492609 -44.5 20.8125 C-44.005 21.59625 -43.51 22.38 -43 23.1875 C-41.00698672 28.00394876 -41.28960713 31.62280932 -41.5 36.8125 C-38.53 35.8225 -35.56 34.8325 -32.5 33.8125 C-34.3979193 37.6083386 -39.83260024 39.01946092 -43.59765625 40.80273438 C-44.30535156 41.14498047 -45.01304687 41.48722656 -45.7421875 41.83984375 C-46.3904248 42.14656006 -47.03866211 42.45327637 -47.70654297 42.76928711 C-49.67334321 43.91332978 -51.05407961 45.05568688 -52.5 46.8125 C-52.27242269 48.97549211 -52.27242269 48.97549211 -51.5 50.8125 C-52.16 50.8125 -52.82 50.8125 -53.5 50.8125 C-53.17644531 51.38226563 -52.85289062 51.95203125 -52.51953125 52.5390625 C-50.85995657 56.23972328 -51.02546602 59.83054097 -51.5 63.8125 C-53 67.375 -53 67.375 -54.5 69.8125 C-46.33952201 69.6139043 -39.85642804 67.23791581 -32.5 63.8125 C-32.5 63.1525 -32.5 62.4925 -32.5 61.8125 C-39.55651252 61.66274761 -39.55651252 61.66274761 -46.5 62.8125 C-44.14917984 60.35482438 -42.72849204 58.90310919 -39.22265625 58.64453125 C-37.90587891 58.63486328 -37.90587891 58.63486328 -36.5625 58.625 C-35.24958984 58.60373047 -35.24958984 58.60373047 -33.91015625 58.58203125 C-31.5 58.8125 -31.5 58.8125 -28.5 60.8125 C-28.79797688 63.59361753 -29.44380415 64.75255776 -31.375 66.8125 C-39.14303438 71.784042 -47.20957815 73.14960517 -56.23828125 74.2421875 C-60.61165202 75.00687269 -63.71387774 76.54082664 -67.5 78.8125 C-61.35011557 84.69499815 -54.7832536 88.84448102 -46.0625 89.3125 C-41.33951086 89.11044699 -37.22168572 87.46755055 -32.8828125 85.6875 C-30.5 84.8125 -30.5 84.8125 -27.5 84.8125 C-34.6756239 91.31540916 -41.68362808 92.47759516 -51.11328125 92.20703125 C-63.75671824 90.73415105 -73.60901471 78.00519032 -81.75 69.0625 C-91.85848433 57.96130486 -99.45663929 51.67264647 -114.97265625 50.890625 C-115.80667969 50.86484375 -116.64070313 50.8390625 -117.5 50.8125 C-117.17 49.8225 -116.84 48.8325 -116.5 47.8125 C-115.015 47.3175 -115.015 47.3175 -113.5 46.8125 C-113.2525 45.595625 -113.005 44.37875 -112.75 43.125 C-111.79252119 38.79688442 -110.0667049 36.608734 -106.5546875 33.94921875 C-102.92495465 31.94113461 -99.61471833 31.37566346 -95.5 31.8125 C-90.97415028 33.28495111 -88.16085128 34.82122308 -85.5 38.8125 C-83.36038014 38.35401003 -81.63234263 37.88933468 -79.73046875 36.78515625 C-76.88557266 35.54456233 -74.65709077 35.58207377 -71.5625 35.625 C-70.03302734 35.63466797 -70.03302734 35.63466797 -68.47265625 35.64453125 C-65.71625952 35.80028034 -63.18621605 36.19412614 -60.5 36.8125 C-54.46037968 30.91014378 -52.56958784 24.90824068 -50.5 16.8125 C-49.53707031 16.97105469 -48.57414062 17.12960938 -47.58203125 17.29296875 C-34.91139961 19.08577237 -21.85255554 19.42797846 -11.1875 11.5625 C-8.82354437 9.14356866 -7.67947021 7.40886009 -6.125 4.5 C-4.15196807 1.22402246 -3.9542351 0.91794743 0 0 Z " fill="#6F2436" transform="translate(184.5,25.1875)"/>
<path d="M0 0 C3.74421132 0.83204696 4.43872673 1.23613243 7.125 4.25 C9.38426075 9.16143642 9.82449054 13.64625233 10.10546875 19.01171875 C10.14689499 19.79012619 10.18832123 20.56853363 10.23100281 21.37052917 C10.72268525 31.51509938 10.82123087 41.66556084 10.85766602 51.82055664 C10.86934215 54.08852295 10.8900303 56.35645867 10.91918945 58.62426758 C10.96164602 61.94370698 10.97798399 65.26235507 10.98828125 68.58203125 C11.00578934 69.59344681 11.02329742 70.60486237 11.04133606 71.64692688 C11.02770409 76.03888466 10.99303684 78.64646515 8.72338867 82.48706055 C5.06844487 85.68033593 1.49853751 85.72412113 -3.1484375 85.6484375 C-6.82890334 85.20879141 -8.77964847 83.90320023 -11.4375 81.375 C-13.61811079 75.37632343 -14.23218144 69.19167948 -14.9375 62.875 C-15.06495605 61.75440186 -15.19241211 60.63380371 -15.32373047 59.47924805 C-16.71185976 46.71213453 -17.50863202 33.9095848 -18.20410156 21.08837891 C-18.36959959 18.45529844 -18.57084712 15.84505914 -18.81933594 13.22021484 C-18.87918671 12.53722824 -18.93903748 11.85424164 -19.0007019 11.15055847 C-19.17031374 9.24218675 -19.3559316 7.33525738 -19.54248047 5.4284668 C-19.4375 2.375 -19.4375 2.375 -18.1003418 0.47509766 C-13.39545586 -2.63754601 -5.31642792 -0.7651239 0 0 Z " fill="#A97F53" transform="translate(91.4375,136.625)"/>
<path d="M0 0 C17.34010152 5.01015228 17.34010152 5.01015228 20 9 C20.18273615 11.7875006 20.23189864 14.46296394 20.1875 17.25 C20.17887939 18.12591797 20.17025879 19.00183594 20.16137695 19.90429688 C20.13569809 21.99031653 20.10341127 24.0762599 20.06640625 26.16210938 C20.01699707 29.01766949 19.97559654 31.87277203 19.94140625 34.72851562 C19.8878466 39.09908803 19.81636618 43.46910249 19.73452759 47.8392334 C19.70324047 49.60942214 19.67650834 51.37969739 19.65438843 53.15002441 C19.62095242 55.6734231 19.56856256 58.19578358 19.51171875 60.71875 C19.50211121 61.85984222 19.50211121 61.85984222 19.49230957 63.02398682 C19.36786865 67.51184347 18.73384217 70.41018242 16 74 C12.6796353 76.90531912 10.05626445 77.90219774 5.625 78.3125 C1.40665686 77.94884973 -0.04884992 76.95115008 -3 74 C-7.74083578 64.51832843 -5.22079992 47.78668176 -5.24023438 37.35766602 C-5.25003438 34.17633823 -5.28119929 30.99563281 -5.3125 27.81445312 C-5.3190238 25.76562877 -5.32427671 23.71679988 -5.328125 21.66796875 C-5.3404718 20.73027145 -5.3528186 19.79257416 -5.36553955 18.82646179 C-5.34339285 12.22098585 -4.89533701 4.89533701 0 0 Z " fill="#A97F52" transform="translate(120,144)"/>
<path d="M0 0 C4.80945235 4.95195464 4.33513934 12.47179073 5 19 C5.09168457 19.8353125 5.18336914 20.670625 5.27783203 21.53125 C6.52750126 33.03412755 7.2132263 44.49060406 7.3125 56.0625 C7.33006348 57.16247314 7.34762695 58.26244629 7.36572266 59.39575195 C7.3613747 64.98678902 7.27069652 69.22761349 4 74 C1.23505499 76.24184731 -0.53888168 76.93412595 -4.0625 77.4375 C-7.82022073 76.87783947 -8.68179727 75.9813953 -11 73 C-11.6662435 70.37452078 -12.10460584 68.0333076 -12.4140625 65.3671875 C-12.56492813 64.24112595 -12.56492813 64.24112595 -12.71884155 63.09231567 C-13.03682689 60.68830675 -13.33106757 58.28205525 -13.625 55.875 C-13.82921153 54.31099901 -14.03492796 52.74719374 -14.2421875 51.18359375 C-15.64458957 40.47300414 -16.83609914 29.73869705 -18 19 C-18.12238037 17.93958496 -18.24476074 16.87916992 -18.37084961 15.78662109 C-18.75660132 12.03137821 -18.74415115 9.9603694 -16.38671875 6.91796875 C-11.73169405 2.61360505 -6.60275377 -1.04254007 0 0 Z " fill="#A97E52" transform="translate(60,137)"/>
<path d="M0 0 C14.71208087 1.84798089 26.41458699 9.82745978 36 21 C42 29.00428266 42 29.00428266 42 32 C39.23723823 31.47731534 36.6739124 30.89130413 34 30 C35.32 30.99 36.64 31.98 38 33 C34.37 33 30.74 33 27 33 C27.495 34.98 27.495 34.98 28 37 C26.906875 37.598125 25.81375 38.19625 24.6875 38.8125 C22.5060135 40.0365806 21.05620046 40.93731487 19.375 42.8125 C18.694375 43.4003125 18.694375 43.4003125 18 44 C15.16633807 43.77024363 12.89902998 42.96098886 10.25 41.9375 C6.15708498 40.75685144 2.23519683 40.45144117 -2 41 C-2.99 41.66 -3.98 42.32 -5 43 C-5.99 42.67 -6.98 42.34 -8 42 C-9.485 42.495 -9.485 42.495 -11 43 C-11.14695313 42.43152344 -11.29390625 41.86304688 -11.4453125 41.27734375 C-13.17887982 35.30948843 -15.63106305 31.39721485 -20 27 C-14.61972975 25.80911014 -9.54708616 24.7080481 -4 25 C-3.87625 24.46375 -3.7525 23.9275 -3.625 23.375 C-3 21 -3 21 -2 18.34375 C-0.87781472 14.59144297 -0.55567754 11.00956701 -0.375 7.125 C-0.33632812 6.43664063 -0.29765625 5.74828125 -0.2578125 5.0390625 C-0.16451834 3.35976754 -0.08121762 1.67992233 0 0 Z " fill="#6C2B3A" transform="translate(185,29)"/>
<path d="M0 0 C0.70253906 0.00386719 1.40507812 0.00773438 2.12890625 0.01171875 C2.83144531 0.00785156 3.53398437 0.00398437 4.2578125 0 C9.50229247 0.01010497 9.50229247 0.01010497 10.62890625 1.13671875 C10.74236339 3.44971888 10.78367705 5.76628775 10.796875 8.08203125 C10.80115509 8.79595032 10.80543518 9.50986938 10.80984497 10.24542236 C10.81991986 12.58424998 10.8198834 14.92287335 10.81640625 17.26171875 C10.81546967 18.05249817 10.81453308 18.84327759 10.81356812 19.65802002 C10.78788066 29.62196981 10.66688779 39.5700572 9.94140625 49.51171875 C9.88815186 50.42969238 9.83489746 51.34766602 9.7800293 52.29345703 C9.39900509 56.61228174 8.9859351 58.66707007 6.30078125 62.19921875 C2.2298256 65.15125677 0.55778472 64.91908041 -4.37109375 64.13671875 C-6.922922 61.97966244 -8.196427 60.23562752 -8.72698975 56.89761353 C-8.86861508 54.08995274 -8.8727222 51.31096904 -8.83203125 48.5 C-8.83111481 47.46538132 -8.83019836 46.43076263 -8.82925415 45.36479187 C-8.82321911 43.17682304 -8.80747614 40.98886243 -8.78271484 38.80102539 C-8.74641217 35.47836277 -8.74169439 32.15682387 -8.7421875 28.83398438 C-8.73234737 26.70181342 -8.7206865 24.56964994 -8.70703125 22.4375 C-8.7048056 21.45485672 -8.70257996 20.47221344 -8.70028687 19.45979309 C-8.43750415 0.01625723 -8.43750415 0.01625723 0 0 Z " fill="#A97F53" transform="translate(158.37109375,153.86328125)"/>
<path d="M0 0 C6.59831109 2.03803108 13.26011927 3.85232972 19.92010498 5.67596436 C22.09066819 6.27145077 24.25943404 6.87318606 26.42822266 7.47509766 C43.70402132 12.232262 63.32763204 16.95134113 80.265625 8.59765625 C85.28234048 5.72437663 89.8377038 2.31139661 94.265625 -1.40234375 C92.07720143 6.37871784 84.69539767 13.0151902 78.265625 17.59765625 C61.71936603 26.01592836 44.95813527 19.35399727 28.44287109 14.29858398 C27.13382207 13.89816683 25.82473979 13.49785837 24.515625 13.09765625 C23.86507141 12.89858673 23.21451782 12.69951721 22.54425049 12.49441528 C5.02113469 7.15409667 -12.25169167 3.45704467 -30.609375 3.28515625 C-31.63417969 3.25615234 -32.65898438 3.22714844 -33.71484375 3.19726562 C-43.51581964 3.11631729 -51.12094851 5.51404417 -58.359375 12.23046875 C-59.48627052 13.35096145 -60.61067633 14.47395758 -61.734375 15.59765625 C-63.054375 13.94765625 -64.374375 12.29765625 -65.734375 10.59765625 C-62.5581899 3.06822922 -58.67892001 -1.20133311 -51.296875 -4.71484375 C-35.6629701 -10.43796965 -15.25845355 -4.74830857 0 0 Z " fill="#A8C9D9" transform="translate(100.734375,130.40234375)"/>
<path d="M0 0 C4.81542691 2.75442419 8.77874457 6.20846617 10.5078125 11.609375 C11.39233273 17.06705304 10.55362468 21.63790621 7.8125 26.4375 C5.375 29.25 5.375 29.25 2.8125 31.4375 C2.214375 32.035625 1.61625 32.63375 1 33.25 C-2.354404 35.07096217 -5.52210551 35.21210046 -9.1875 34.4375 C-12.04866018 32.59070807 -14.21662248 30.25895817 -16.5 27.75 C-17.10650391 27.12416016 -17.71300781 26.49832031 -18.33789062 25.85351562 C-25.80450237 18.00905555 -25.80450237 18.00905555 -26.625 12.5 C-25.9427096 7.72396717 -24.08454843 4.8830509 -20.234375 1.94921875 C-13.48522644 -2.23950107 -7.37765497 -3.2259708 0 0 Z " fill="#FD5570" transform="translate(121.1875,65.5625)"/>
<path d="M0 0 C0.98226562 0.01546875 1.96453125 0.0309375 2.9765625 0.046875 C5.375 0.25 5.375 0.25 6.375 1.25 C6.03895503 16.52712114 3.60084204 32.15376487 1.375 47.25 C1.25640625 48.15878906 1.1378125 49.06757813 1.015625 50.00390625 C0.35636184 54.00563363 -0.43673702 56.55075249 -3.4375 59.375 C-6.625 61.25 -6.625 61.25 -9.375 61.25 C-11.625 60.25 -11.625 60.25 -13.625 57.25 C-14.461492 47.384315 -13.53361597 37.28735555 -12.8125 27.4375 C-12.74256836 26.41317871 -12.67263672 25.38885742 -12.60058594 24.33349609 C-11.16002219 6.46419239 -11.16002219 6.46419239 -7.19067383 1.43139648 C-4.83800209 -0.34383797 -2.89708477 -0.07644023 0 0 Z " fill="#A97E52" transform="translate(186.625,153.75)"/>
<path d="M0 0 C2.01822917 0.06510417 4.03645833 0.13020833 6.0546875 0.1953125 C5.91380203 0.92778198 5.77291656 1.66025146 5.62776184 2.41491699 C4.32935593 9.58233206 3.747108 16.45055622 3.75390625 23.7265625 C3.74962112 24.76550659 3.745336 25.80445068 3.74092102 26.87487793 C3.73522945 29.04613521 3.73463874 31.21741154 3.73901367 33.38867188 C3.74220656 36.71516736 3.71853706 40.04079943 3.69335938 43.3671875 C3.69108917 45.48697805 3.69038159 47.60677098 3.69140625 49.7265625 C3.6821965 50.71821411 3.67298676 51.70986572 3.66349792 52.73156738 C3.66972672 53.65352905 3.67595551 54.57549072 3.68237305 55.52539062 C3.68174362 56.33302856 3.6811142 57.1406665 3.6804657 57.97277832 C4.14781764 60.7484201 5.16265335 62.14115046 7.0546875 64.1953125 C8.99830752 64.71311805 8.99830752 64.71311805 11.0546875 64.5078125 C11.7353125 64.48332031 12.4159375 64.45882812 13.1171875 64.43359375 C15.26913893 64.23386357 15.26913893 64.23386357 18.0546875 63.1953125 C18.3846875 62.2053125 18.7146875 61.2153125 19.0546875 60.1953125 C19.3846875 60.1953125 19.7146875 60.1953125 20.0546875 60.1953125 C20.0546875 63.4953125 20.0546875 66.7953125 20.0546875 70.1953125 C16.29958326 71.85341047 12.79690449 72.70846299 8.7421875 73.3203125 C7.67355469 73.48789063 6.60492188 73.65546875 5.50390625 73.828125 C1.64298027 74.2391409 -2.06484504 74.25455628 -5.9453125 74.1953125 C-6.07391796 59.74863238 -5.88545387 45.32386891 -5.5078125 30.8828125 C-5.48816437 30.08735016 -5.46851624 29.29188782 -5.44827271 28.47232056 C-4.74640265 0.47654645 -4.74640265 0.47654645 0 0 Z " fill="#855328" transform="translate(146.9453125,152.8046875)"/>
<path d="M0 0 C3.3 0 6.6 0 10 0 C11.66162769 5.99051401 12.50158876 11.73350481 13 17.921875 C13.08121094 18.86194397 13.16242188 19.80201294 13.24609375 20.77056885 C13.50348973 23.76323024 13.75211822 26.75653697 14 29.75 C14.24864591 32.68858677 14.49916943 35.62700673 14.75045776 38.56536865 C14.91665848 40.5094922 15.08180137 42.45370647 15.24588013 44.39801025 C15.86893579 51.70903339 16.58081828 59.00870007 17.37963867 66.30267334 C18.14376505 73.54929329 18.19858044 80.71871724 18 88 C9.62866212 87.79627275 0.56953187 86.06392605 -5.87109375 80.3359375 C-7.25 78.6875 -7.25 78.6875 -9 76 C-8.505 75.01 -8.505 75.01 -8 74 C-7.5978125 74.495 -7.195625 74.99 -6.78125 75.5 C-5.10880291 77.18833734 -5.10880291 77.18833734 -2.84375 77.25 C2.27094238 76.83018708 2.27094238 76.83018708 6 73.5625 C6.33 72.716875 6.66 71.87125 7 71 C7.33 70.34 7.66 69.68 8 69 C9.13822527 54.34793651 7.92503894 39.42476664 6.6875 24.8125 C6.62864624 24.07507568 6.56979248 23.33765137 6.50915527 22.57788086 C6.33627096 20.45279019 6.14583595 18.33004411 5.94921875 16.20703125 C5.78425903 14.37362183 5.78425903 14.37362183 5.6159668 12.50317383 C4.77628824 7.72768925 3.50682133 3.50682133 0 0 Z " fill="#865626" transform="translate(58,136)"/>
<path d="M0 0 C15.7737175 1.7229296 29.48392133 12.16960601 39.5 23.8125 C41.7555928 27.03348652 43.71015422 30.3138816 45.5 33.8125 C45.88027344 34.50472656 46.26054687 35.19695313 46.65234375 35.91015625 C47.5 37.8125 47.5 37.8125 47.5 40.8125 C40.57 40.4825 33.64 40.1525 26.5 39.8125 C26.83 38.8225 27.16 37.8325 27.5 36.8125 C31.955 36.3175 31.955 36.3175 36.5 35.8125 C33.035 34.3275 33.035 34.3275 29.5 32.8125 C33.20781672 31.57656109 34.17510253 32.2446868 37.6875 33.75 C38.58855469 34.13027344 39.48960937 34.51054688 40.41796875 34.90234375 C41.10503906 35.20269531 41.79210937 35.50304688 42.5 35.8125 C32.3538148 18.35845151 19.54860862 9.39083748 0.5 3.8125 C0.54640625 4.77929688 0.5928125 5.74609375 0.640625 6.7421875 C0.87020712 15.0235426 0.45570096 21.30726381 -3.5 28.8125 C-6.14 28.8125 -8.78 28.8125 -11.5 28.8125 C-10.9225 28.565 -10.345 28.3175 -9.75 28.0625 C-6.52603944 26.2714108 -4.17715866 24.55865631 -2.8046875 21.01953125 C-1.47461772 16.17695324 -0.17429274 10.46391453 -2.5 5.8125 C-2.82871094 6.32039063 -3.15742188 6.82828125 -3.49609375 7.3515625 C-9.1428968 15.52335878 -15.91087197 20.04471812 -25.5859375 22.34765625 C-31.96174825 23.36470917 -38.76603092 24.21492609 -44.5 20.8125 C-43.984375 21.616875 -43.46875 22.42125 -42.9375 23.25 C-41.10339982 27.79537871 -41.09562172 31.13123907 -42.5 35.8125 C-45.75092885 40.11519995 -49.8135017 42.33141266 -54.5 44.8125 C-55.82 43.4925 -57.14 42.1725 -58.5 40.8125 C-56.97291037 37.37654834 -54.90072955 34.69337546 -52.5 31.8125 C-53.16 31.8125 -53.82 31.8125 -54.5 31.8125 C-54.29503906 31.14863281 -54.09007812 30.48476563 -53.87890625 29.80078125 C-53.60949219 28.91777344 -53.34007812 28.03476562 -53.0625 27.125 C-52.79566406 26.25488281 -52.52882812 25.38476562 -52.25390625 24.48828125 C-51.53655471 21.94224079 -50.982459 19.4121577 -50.5 16.8125 C-49.05560547 17.05033203 -49.05560547 17.05033203 -47.58203125 17.29296875 C-34.91139961 19.08577237 -21.85255554 19.42797846 -11.1875 11.5625 C-8.82354437 9.14356866 -7.67947021 7.40886009 -6.125 4.5 C-4.15196807 1.22402246 -3.9542351 0.91794743 0 0 Z " fill="#6D2838" transform="translate(184.5,25.1875)"/>
<path d="M0 0 C2.3828125 0.0234375 2.3828125 0.0234375 5.125 0.375 C6.03507812 0.48585937 6.94515625 0.59671875 7.8828125 0.7109375 C8.93082031 0.85402344 8.93082031 0.85402344 10 1 C9.566875 2.0209375 9.566875 2.0209375 9.125 3.0625 C6.416625 10.13436805 5.71235758 15.92945794 5.76953125 23.47265625 C5.76998947 24.4727623 5.77044769 25.47286835 5.7709198 26.50328064 C5.77393152 28.61539906 5.78178533 30.72751547 5.79418945 32.83959961 C5.81230351 36.02791473 5.81469973 39.21593591 5.81445312 42.40429688 C4.65756074 60.59672294 4.65756074 60.59672294 9.125 77.375 C12.79509409 79.44940101 14.83505535 79.58455364 19 79 C24.17063474 77.0736851 25.3488677 75.56391538 29 71 C29 75.62 29 80.24 29 85 C25.47717886 85.88070529 22.9376996 86.11668989 19.359375 86.09765625 C17.75449219 86.09282227 17.75449219 86.09282227 16.1171875 86.08789062 C15.00601563 86.07951172 13.89484375 86.07113281 12.75 86.0625 C11.06003906 86.05573242 11.06003906 86.05573242 9.3359375 86.04882812 C6.55723783 86.03705397 3.77864591 86.0206084 1 86 C0.60178853 78.44417201 0.2102804 70.88801939 -0.17345428 63.33144283 C-0.35197371 59.81983278 -0.53251234 56.30835478 -0.71826172 52.79711914 C-1.44235567 39.08061503 -2.13382016 25.36733598 -2.21875 11.62890625 C-2.22982788 10.67169174 -2.24090576 9.71447723 -2.25231934 8.72825623 C-2.25020447 7.42913048 -2.25020447 7.42913048 -2.24804688 6.10375977 C-2.24897339 5.35393326 -2.2498999 4.60410675 -2.25085449 3.83155823 C-2 2 -2 2 0 0 Z " fill="#875727" transform="translate(110,142)"/>
<path d="M0 0 C3.15236055 1.77320281 3.94405379 4.82381925 5 8.125 C5.58923515 11.1950411 5.87408727 14.26087393 6.125 17.375 C6.24174072 18.68718506 6.24174072 18.68718506 6.36083984 20.02587891 C6.59223366 22.72450328 6.80116258 25.42379371 7 28.125 C7.05929688 28.92583008 7.11859375 29.72666016 7.1796875 30.55175781 C7.84629222 40.02309993 8.12935873 49.50694227 8.25 59 C8.282146 60.40064697 8.282146 60.40064697 8.31494141 61.82958984 C8.35725586 70.37554136 8.35725586 70.37554136 5 74.125 C4.01 74.125 3.02 74.125 2 74.125 C-6.26198566 55.92726434 -5.06059782 30.64549116 -5.3125 11.0625 C-5.33014404 10.28970703 -5.34778809 9.51691406 -5.3659668 8.72070312 C-5.35956057 3.63765078 -5.35956057 3.63765078 -3.60546875 1.13671875 C-2 0.125 -2 0.125 0 0 Z " fill="#D2B786" transform="translate(85,141.875)"/>
<path d="M0 0 C14.71208087 1.84798089 26.41458699 9.82745978 36 21 C42 29.00428266 42 29.00428266 42 32 C37.81003613 31.29373715 33.99717888 29.98945899 30 28.5625 C19.22965387 24.86015226 8.32281403 23.77525574 -3 23 C-2.690625 21.989375 -2.38125 20.97875 -2.0625 19.9375 C-0.40619903 13.44151109 -0.32998523 6.66917508 0 0 Z " fill="#82DDC1" transform="translate(185,29)"/>
<path d="M0 0 C5.39643211 0.47968285 5.39643211 0.47968285 7.8125 2.5625 C11.48922764 10.10946726 10.40769415 20.31535611 10.75390625 28.59375 C10.81950285 30.11015829 10.88533851 31.62655626 10.95140076 33.14294434 C11.08868399 36.30989422 11.22378287 39.47692696 11.35717773 42.64404297 C11.52747558 46.68551396 11.70216155 50.72678007 11.87835789 54.76799774 C12.01442901 57.89591652 12.1487028 61.02391038 12.2823925 64.15193176 C12.34615917 65.64136056 12.41034636 67.13077143 12.47497749 68.62016296 C13.09131545 82.88313802 13.09131545 82.88313802 13 90 C-8.00917431 89.24770642 -8.00917431 89.24770642 -17 87 C-17.95261487 82.23692563 -18.08333357 77.8333472 -18 73 C-17.67 73 -17.34 73 -17 73 C-16.773125 74.093125 -16.54625 75.18625 -16.3125 76.3125 C-15.31731539 79.99767825 -15.31731539 79.99767825 -12.9375 81.9375 C-7.77636377 83.80429396 -3.01568248 83.92385447 2 81.625 C4.09716677 80.14913969 4.09716677 80.14913969 5 78 C5.09491453 76.49195157 5.12794529 74.97978168 5.12939453 73.46875 C5.13254669 72.52596191 5.13569885 71.58317383 5.13894653 70.61181641 C5.1369223 69.58491699 5.13489807 68.55801758 5.1328125 67.5 C5.13376923 66.43571777 5.13472595 65.37143555 5.13571167 64.27490234 C5.13639398 62.00846295 5.13453616 59.74202161 5.13037109 57.47558594 C5.12510758 54.06961424 5.13026993 50.6637796 5.13671875 47.2578125 C5.14156597 37.46139236 5.10514574 27.66352373 4.6796875 17.875 C4.65770294 17.1835791 4.63571838 16.4921582 4.61306763 15.77978516 C4.30269044 9.98249467 2.58553109 5.17106218 0 0 Z " fill="#865628" transform="translate(96,138)"/>
<path d="M0 0 C2.375 0.3125 2.375 0.3125 5 1 C7.47367882 4.71051823 7.24470589 6.59234034 7.23046875 11.01953125 C7.22978142 12.06206306 7.22978142 12.06206306 7.2290802 13.12565613 C7.22605804 14.60258686 7.21817275 16.0795144 7.20581055 17.55639648 C7.18787549 19.76623466 7.18529893 21.97564445 7.18554688 24.18554688 C7.12465331 49.59870035 7.12465331 49.59870035 3 60 C1.68 60 0.36 60 -1 60 C-4.98778018 53.08434964 -4.37936338 45.96600614 -4.25 38.1875 C-4.23607047 36.79256833 -4.22280871 35.39762983 -4.21020508 34.00268555 C-4.16682968 30.00102035 -4.08769897 26.00094127 -4 22 C-3.97921387 20.96391602 -3.95842773 19.92783203 -3.93701172 18.86035156 C-3.87685847 16.34282688 -3.79200899 13.82852701 -3.6875 11.3125 C-3.66526367 10.60826904 -3.64302734 9.90403809 -3.62011719 9.1784668 C-3.39957849 5.23112221 -2.73620811 2.89759304 0 0 Z " fill="#D1B685" transform="translate(127,154)"/>
<path d="M0 0 C10.13117939 2.99019985 18.55438017 9.31283949 27.01171875 15.42578125 C44.76432188 28.25180538 62.72085898 37.97127593 85.359375 35.09765625 C89.34605038 34.34930422 92.67332139 33.09504502 96.2734375 31.23046875 C97.4490625 30.63234375 98.6246875 30.03421875 99.8359375 29.41796875 C100.4959375 29.74796875 101.1559375 30.07796875 101.8359375 30.41796875 C93.68715365 38.02350034 83.17966203 39.74193153 72.4375 39.6328125 C62.7033192 39.05214011 53.64711345 36.4537378 44.84228516 32.34619141 C43.30073447 31.63300381 41.75214641 30.935012 40.20068359 30.24365234 C37.15280509 28.8846066 34.11872607 27.49783456 31.0859375 26.10546875 C30.10310791 25.66783203 29.12027832 25.23019531 28.10766602 24.77929688 C22.18758422 22.00612408 17.9713837 19.00044446 13.52539062 14.20874023 C4.58416795 4.73130262 -8.93378772 3.04739407 -21.1640625 1.41796875 C-15.36392089 -2.44879233 -6.6649841 -1.22602794 0 0 Z " fill="#A8C8D7" transform="translate(75.1640625,88.58203125)"/>
<path d="M0 0 C2.54005385 3.81008078 2.3610332 5.45098172 2 10 C0.16781313 18.81322007 0.16781313 18.81322007 -2.68359375 21.7109375 C-5.69327562 23.38580262 -8.41498956 23.81779381 -11.8125 24.375 C-18.75502876 25.60414648 -25.21043992 27.57874885 -31.85546875 29.9140625 C-34.2381399 30.736898 -36.54459278 31.45164603 -39 32 C-39.04898438 31.34773438 -39.09796875 30.69546875 -39.1484375 30.0234375 C-39.57242229 25.06720147 -40.15665573 20.66980549 -42 16 C-41.17822266 16.23783203 -41.17822266 16.23783203 -40.33984375 16.48046875 C-30.17222323 18.73805394 -19.19804312 16.73147494 -10.3203125 11.38671875 C-5.89294627 8.11337093 -2.69151112 4.79791113 0 0 Z " fill="#81DBBF" transform="translate(182,30)"/>
<path d="M0 0 C0.33 0 0.66 0 1 0 C1.16435547 0.99580078 1.16435547 0.99580078 1.33203125 2.01171875 C2.41895503 8.06491214 3.26410419 12.7331149 8.1875 16.8125 C13.05365198 18.8670975 17.36790079 18.36268871 22.375 17.25 C25.46494955 15.77859545 25.74248625 15.07874056 27 12 C27.42151885 10.42841122 27.7968834 8.84370918 28.125 7.25 C28.29257813 6.45078125 28.46015625 5.6515625 28.6328125 4.828125 C28.81457031 3.92320313 28.81457031 3.92320313 29 3 C32.40156394 5.91431289 32.72433948 8.25716213 33.0625 12.58984375 C32.92261642 17.98410425 31.05702417 21.78035673 27.5625 25.8125 C26.716875 26.534375 25.87125 27.25625 25 28 C24.401875 28.598125 23.80375 29.19625 23.1875 29.8125 C19.833096 31.63346217 16.66539449 31.77460046 13 31 C10.13883982 29.15320807 7.97087752 26.82145817 5.6875 24.3125 C5.08099609 23.68666016 4.47449219 23.06082031 3.84960938 22.41601562 C-3.61700237 14.57155555 -3.61700237 14.57155555 -4.4375 9.0625 C-3.88692093 5.20844649 -2.38368362 3.03377915 0 0 Z " fill="#DC3E57" transform="translate(99,69)"/>
<path d="M0 0 C2.375 0.1875 2.375 0.1875 5 1 C11.45385416 13.47132672 11.19466615 35.4739493 10 49 C9.34 49.99 8.68 50.98 8 52 C6.68 51.67 5.36 51.34 4 51 C0.53681541 38.14004121 -6.26927631 12.53855262 0 0 Z " fill="#D1B786" transform="translate(50,149)"/>
<path d="M0 0 C3.83914847 2.85495999 5.70133736 5.82668249 6.875 10.4375 C6.91625 11.283125 6.9575 12.12875 7 13 C6.21625 12.835 5.4325 12.67 4.625 12.5 C3.42875 12.335 2.2325 12.17 1 12 C0.34257812 11.90847656 -0.31484375 11.81695312 -0.9921875 11.72265625 C-8.83423512 11.16638644 -15.66673833 13.97950698 -22.92578125 16.58984375 C-25.92861915 17.66586639 -28.83840319 18.50146477 -32 19 C-32.66 17.02 -33.32 15.04 -34 13 C-10.12884664 -3.46622416 -10.12884664 -3.46622416 0 0 Z " fill="#89DFC3" transform="translate(165,58)"/>
<path d="M0 0 C1.32 0.66 2.64 1.32 4 2 C4.05008562 6.47996623 4.08603769 10.95977661 4.10986328 15.43994141 C4.11981384 16.95852504 4.13337916 18.47709007 4.15087891 19.99560547 C4.41327897 43.38008155 4.41327897 43.38008155 0 50 C-0.99 50 -1.98 50 -3 50 C-4.88585101 44.41728234 -5.31511869 39.49767804 -5.25 33.625 C-5.24468262 32.75738037 -5.23936523 31.88976074 -5.23388672 30.99584961 C-5.14971859 25.14936109 -4.78966609 19.37127104 -4.125 13.5625 C-4.04668945 12.87172363 -3.96837891 12.18094727 -3.88769531 11.46923828 C-2.7579307 2.7579307 -2.7579307 2.7579307 0 0 Z " fill="#D2B787" transform="translate(160,160)"/>
<path d="M0 0 C0.67289063 -0.03416016 1.34578125 -0.06832031 2.0390625 -0.10351562 C5.83609282 -0.13728368 8.2097882 0.43353934 11.1171875 2.7734375 C15.085367 6.78871706 16.75 9.76844526 16.75 15.4375 C15.986875 15.1075 15.22375 14.7775 14.4375 14.4375 C7.32967515 12.50995428 1.10944818 12.29227491 -5.4375 15.9375 C-6.72302374 16.74798782 -7.99996632 17.57327919 -9.25 18.4375 C-9.39695313 17.86902344 -9.54390625 17.30054687 -9.6953125 16.71484375 C-11.42887982 10.74698843 -13.88106305 6.83471485 -18.25 2.4375 C-12.20942823 0.81119222 -6.23266462 0.15524165 0 0 Z " fill="#80DABE" transform="translate(183.25,53.5625)"/>
<path d="M0 0 C2.05078125 0.03255208 4.1015625 0.06510417 6.15234375 0.09765625 C5.52690674 0.64446045 4.90146973 1.19126465 4.25708008 1.75463867 C-1.62756784 8.30549891 -1.4600529 19.86134975 -2.03515625 28.28515625 C-2.11411133 29.36361816 -2.19306641 30.44208008 -2.27441406 31.55322266 C-4.27643433 46.940519 -4.27643433 46.940519 -0.84765625 61.09765625 C3.27724416 60.66070102 3.27724416 60.66070102 6.96484375 58.91015625 C8.60521365 56.40643377 8.82556338 54.03867955 9.15234375 51.09765625 C9.48234375 51.09765625 9.81234375 51.09765625 10.15234375 51.09765625 C10.15234375 53.07765625 10.15234375 55.05765625 10.15234375 57.09765625 C10.81234375 57.09765625 11.47234375 57.09765625 12.15234375 57.09765625 C11.82234375 58.08765625 11.49234375 59.07765625 11.15234375 60.09765625 C10.65734375 59.60265625 10.65734375 59.60265625 10.15234375 59.09765625 C9.73984375 59.98453125 9.32734375 60.87140625 8.90234375 61.78515625 C5.66128745 66.76502743 -0.44408214 68.31747003 -5.84765625 70.09765625 C-6.50765625 70.09765625 -7.16765625 70.09765625 -7.84765625 70.09765625 C-7.54898758 61.76285771 -7.20652748 53.43006066 -6.84765625 45.09765625 C-6.81371765 44.30377502 -6.77977905 43.5098938 -6.74481201 42.69195557 C-6.51969263 37.45600016 -6.28268887 32.22074234 -6.03363037 26.98587036 C-5.9514847 25.23070196 -5.87241076 23.47538704 -5.79644775 21.71994019 C-5.6877933 19.2255797 -5.5678553 16.73199306 -5.4453125 14.23828125 C-5.41505478 13.49024734 -5.38479706 12.74221344 -5.35362244 11.97151184 C-4.73970748 0.25051308 -4.73970748 0.25051308 0 0 Z " fill="#865529" transform="translate(176.84765625,152.90234375)"/>
<path d="M0 0 C1.32 0.66 2.64 1.32 4 2 C4 2.66 4 3.32 4 4 C4.99 3.67 5.98 3.34 7 3 C7.48108275 4.41601714 7.95978141 5.83284437 8.4375 7.25 C8.70433594 8.03890625 8.97117188 8.8278125 9.24609375 9.640625 C12.14750772 18.72069772 11.9554683 27.58409176 8.33203125 36.45703125 C4.92918095 42.95338181 -0.67201564 49.28783589 -7.84765625 51.59375 C-10.35867302 52.06769872 -12.69613924 52.09610343 -15.25 52.0625 C-16.14203125 52.05347656 -17.0340625 52.04445312 -17.953125 52.03515625 C-18.62859375 52.02355469 -19.3040625 52.01195312 -20 52 C-18.64389915 48.87624531 -17.20543984 47.0689031 -14.5625 44.9375 C-12.24922526 43.0539048 -10.0784664 41.14202806 -8 39 C-7.34 39.99 -6.68 40.98 -6 42 C-3.26316383 41.91950482 -1.50656279 41.44704167 0.5625 39.62109375 C5.04224054 34.6149837 8 29.88876692 8 23 C7.34 23 6.68 23 6 23 C5.96261719 22.38253906 5.92523438 21.76507813 5.88671875 21.12890625 C5.29084404 13.45263793 3.54328236 6.84114256 0 0 Z " fill="#A8C8D8" transform="translate(201,99)"/>
<path d="M0 0 C2.98727243 2.63164476 3.36043772 3.43975851 3.625 7.3125 C2.62890625 9.98828125 2.62890625 9.98828125 1.1875 12.625 C0.71441406 13.50800781 0.24132812 14.39101562 -0.24609375 15.30078125 C-0.61863281 15.96464844 -0.99117187 16.62851563 -1.375 17.3125 C-2.25542969 16.96316406 -3.13585937 16.61382812 -4.04296875 16.25390625 C-5.20441406 15.79886719 -6.36585937 15.34382813 -7.5625 14.875 C-8.71105469 14.42253906 -9.85960938 13.97007813 -11.04296875 13.50390625 C-13.84623233 12.50156699 -16.44612576 11.79237205 -19.375 11.3125 C-18.92213369 6.44418719 -17.79178531 3.82690774 -14.375 0.3125 C-9.80135433 -2.99945031 -4.8559177 -2.42795885 0 0 Z " fill="#F8546E" transform="translate(93.375,61.6875)"/>
<path d="M0 0 C0 0.99 0 1.98 0 3 C-1.50390625 4.2890625 -1.50390625 4.2890625 -3.5625 5.625 C-7.73837947 8.57704268 -10.55004323 11.93819865 -13.5546875 16.046875 C-15 18 -15 18 -17 20 C-20 20.25 -20 20.25 -23 20 C-25 18 -25 18 -25.5 14.8125 C-24.82732325 9.68333978 -22.92363167 7.26834473 -19 4 C-12.86728223 0.02833516 -7.17300375 -0.5390984 0 0 Z " fill="#E7FFFB" transform="translate(60,97)"/>
<path d="M0 0 C0.99 0.33 1.98 0.66 3 1 C3.30954686 10.59595269 3.13815666 19.87548198 1.625 29.375 C1.43587036 30.57733276 1.43587036 30.57733276 1.24291992 31.80395508 C0.60802525 35.50598909 -0.00161336 38.75044955 -2 42 C-2.66 42 -3.32 42 -4 42 C-6.7756412 33.6730764 -5.06773107 23.07515679 -4.1875 14.4375 C-4.11748779 13.68847412 -4.04747559 12.93944824 -3.9753418 12.16772461 C-3.45468924 7.55037216 -2.35863015 4.09044626 0 0 Z " fill="#D0B584" transform="translate(183,163)"/>
<path d="M0 0 C-1.32 0.99 -2.64 1.98 -4 3 C-3.70540991 6.53508103 -3.25118587 7.76203444 -0.625 10.25 C3.44206466 12.96137644 6.40300503 13.11394618 11.1875 13.0625 C12.27417969 13.05347656 13.36085937 13.04445313 14.48046875 13.03515625 C15.31191406 13.02355469 16.14335937 13.01195313 17 13 C13.43350801 16.56649199 8.57097677 17.13255789 3.6875 17.375 C-5.72001364 17.10301406 -12.51690002 12.44688154 -19 6 C-12.75274544 1.83516363 -7.51186387 -0.21462468 0 0 Z " fill="#A8C7D6" transform="translate(135,98)"/>
<path d="M0 0 C0.66 0 1.32 0 2 0 C7.00963613 10.06400115 7.00963613 10.06400115 6 15 C2.66278173 19.24736871 -1.30785934 21.51592553 -6 24 C-7.32 22.68 -8.64 21.36 -10 20 C-8.64538046 17.05630755 -7.05973438 14.74227861 -5 12.25 C-1.92432424 8.25912316 -0.88042548 4.93038268 0 0 Z " fill="#7FD7BB" transform="translate(136,46)"/>
<path d="M0 0 C0.66 0.33 1.32 0.66 2 1 C1.67 1.99 1.34 2.98 1 4 C-6.82325873 7.62659591 -15.43965046 9.12395429 -24 8 C-26.33984375 6.9765625 -26.33984375 6.9765625 -28 6 C-27.505 6.928125 -27.01 7.85625 -26.5 8.8125 C-25 12 -25 12 -25 15 C-25.66 15 -26.32 15 -27 15 C-27.99 12.03 -28.98 9.06 -30 6 C-30.66 6 -31.32 6 -32 6 C-31.95875 6.9075 -31.9175 7.815 -31.875 8.75 C-31.99654256 11.91010647 -32.13626265 13.48395457 -34 16 C-36.078125 16.60546875 -36.078125 16.60546875 -38 17 C-37.69255859 16.00419922 -37.69255859 16.00419922 -37.37890625 14.98828125 C-37.10949219 14.10527344 -36.84007812 13.22226562 -36.5625 12.3125 C-36.29566406 11.44238281 -36.02882812 10.57226562 -35.75390625 9.67578125 C-35.03655471 7.12974079 -34.482459 4.5996577 -34 2 C-33.03964844 2.15984375 -32.07929688 2.3196875 -31.08984375 2.484375 C-26.58025755 3.12390395 -22.11176565 3.22109283 -17.5625 3.25 C-16.75490234 3.270625 -15.94730469 3.29125 -15.11523438 3.3125 C-9.37120512 3.34952839 -5.31051591 2.14067308 0 0 Z " fill="#723140" transform="translate(168,40)"/>
<path d="M0 0 C4.7374044 1.75650139 9.65284054 3.71832452 12.30078125 8.203125 C12.53152344 8.79609375 12.76226562 9.3890625 13 10 C11.56208484 9.85831863 10.1246763 9.71148957 8.6875 9.5625 C7.88699219 9.48128906 7.08648437 9.40007812 6.26171875 9.31640625 C4 9 4 9 1 8 C-2.5814804 7.72880617 -6.16264729 7.55453706 -9.75 7.37890625 C-13 7 -13 7 -16 5 C-15.625 3.0625 -15.625 3.0625 -15 1 C-10.500417 -1.2497915 -4.86620682 -0.57344067 0 0 Z " fill="#E7FFFB" transform="translate(79,78)"/>
<path d="M0 0 C7.07588593 0.14494366 13.44212834 1.19259306 20.125 3.4375 C20.77605713 3.65494873 21.42711426 3.87239746 22.09790039 4.09643555 C24.94324503 5.09702522 26.84128772 5.84128772 29 8 C27.948125 8.02126953 27.948125 8.02126953 26.875 8.04296875 C20.6720234 8.35480317 16.59457274 9.24556304 11.55859375 12.94140625 C10 14 10 14 8 14 C7.67386719 13.32453125 7.34773437 12.6490625 7.01171875 11.953125 C6.57472656 11.06109375 6.13773438 10.1690625 5.6875 9.25 C5.25824219 8.36828125 4.82898438 7.4865625 4.38671875 6.578125 C3.09896854 4.18399785 1.69084246 2.12223042 0 0 Z " fill="#81D9BD" transform="translate(194,54)"/>
<path d="M0 0 C30.60401954 2.31894864 30.60401954 2.31894864 42 12 C42.495 12.99 42.495 12.99 43 14 C41.824375 13.5875 40.64875 13.175 39.4375 12.75 C25.89724912 8.31367556 13.16158269 6.09267034 -1 5 C-0.67 3.35 -0.34 1.7 0 0 Z " fill="#40B187" transform="translate(183,47)"/>
<path d="M0 0 C0.804375 0.495 1.60875 0.99 2.4375 1.5 C2.4375 3.15 2.4375 4.8 2.4375 6.5 C-2.72060572 7.53162114 -5.6647139 7.23463258 -10.5625 5.5 C-14.74759244 5.27973198 -18.4908039 5.51292216 -22.5625 6.5 C-20.82120996 2.33490422 -18.85051518 1.09969209 -14.84765625 -0.73828125 C-9.54842388 -2.50469204 -5.10082081 -2.14771403 0 0 Z " fill="#E6FFFB" transform="translate(196.5625,98.5)"/>
<path d="M0 0 C0.33 0 0.66 0 1 0 C1.38829158 5.95380424 0.55199934 11.55319543 -2 17 C-5.17803445 20.22964986 -8.43391678 20.6568937 -12.8125 21.375 C-19.75502876 22.60414648 -26.21043992 24.57874885 -32.85546875 26.9140625 C-35.2381399 27.736898 -37.54459278 28.45164603 -40 29 C-40 27.02 -40 25.04 -40 23 C-39.34 23.66 -38.68 24.32 -38 25 C-37.46375 24.75765625 -36.9275 24.5153125 -36.375 24.265625 C-30.26902035 21.65451528 -24.17434696 19.92280715 -17.7109375 18.48339844 C-12.109102 17.19088007 -7.50421989 15.79670709 -3.75 11.3125 C-1.73705533 7.5022833 -0.87052488 4.20753691 0 0 Z " fill="#44B088" transform="translate(183,33)"/>
<path d="M0 0 C0.33 0 0.66 0 1 0 C1.58035475 4.72695855 2.14944176 9.45510293 2.70898438 14.18457031 C2.90004807 15.78681247 3.09396686 17.38871726 3.29101562 18.99023438 C4.5276766 29.06018803 5.295685 38.83788136 5 49 C4.67 49 4.34 49 4 49 C3.67 47.35 3.34 45.7 3 44 C2.34 44.66 1.68 45.32 1 46 C-0.57540812 30.50623711 -1.2088473 15.5353214 0 0 Z " fill="#8F5642" transform="translate(75,149)"/>
<path d="M0 0 C0.82242188 0.144375 1.64484375 0.28875 2.4921875 0.4375 C9.40441868 1.58687793 15.99449085 2.28464823 23 2 C21.72530598 4.54938804 20.50840774 4.74579613 18 6 C17.57847656 6.47179688 17.15695313 6.94359375 16.72265625 7.4296875 C14.45263563 9.498958 12.2086812 10.19939112 9.3125 11.1875 C8.31863281 11.53167969 7.32476562 11.87585937 6.30078125 12.23046875 C5.54152344 12.48441406 4.78226563 12.73835938 4 13 C3.32942113 11.2097939 2.6636531 9.41778511 2 7.625 C1.62875 6.62726562 1.2575 5.62953125 0.875 4.6015625 C0 2 0 2 0 0 Z " fill="#8BE0C5" transform="translate(140,46)"/>
<path d="M0 0 C3.0625 2.375 3.0625 2.375 5 5 C5 5.66 5 6.32 5 7 C4.01 6.67 3.02 6.34 2 6 C-9.93058216 4.96512918 -17.98842665 7.30287801 -28.5625 12.875 C-31 14 -31 14 -34 13 C-12.09286464 -2.11145256 -12.09286464 -2.11145256 0 0 Z " fill="#3FB288" transform="translate(165,58)"/>
<path d="M0 0 C0.99 0.66 1.98 1.32 3 2 C2.46515599 7.34844008 0.53309233 11.35796103 -2 16 C-2.88042969 15.65066406 -3.76085937 15.30132812 -4.66796875 14.94140625 C-5.82941406 14.48636719 -6.99085937 14.03132813 -8.1875 13.5625 C-9.33605469 13.11003906 -10.48460938 12.65757813 -11.66796875 12.19140625 C-14.47123233 11.18906699 -17.07112576 10.47987205 -20 10 C-19.67 8.02 -19.34 6.04 -19 4 C-17.453125 4.99 -17.453125 4.99 -15.875 6 C-12.41024159 7.95591201 -10.02882956 8.70066601 -6 8 C-3.06987122 6.17680876 -1.3717896 5.02957119 -0.1875 1.75 C-0.0946875 0.88375 -0.0946875 0.88375 0 0 Z " fill="#DA3E57" transform="translate(94,63)"/>
<path d="M0 0 C0 1.32 0 2.64 0 4 C-7.71643408 7.64948279 -14.43405811 9.81451701 -23 10 C-22.2265625 8.078125 -22.2265625 8.078125 -21 6 C-17.375 4.75 -17.375 4.75 -14 4 C-14.33 3.34 -14.66 2.68 -15 2 C-9.87080814 -0.10428384 -5.4389165 -0.21755666 0 0 Z " fill="#A9C9D8" transform="translate(152,86)"/>
<path d="M0 0 C2.27252249 1.4746635 3.88850666 2.65982581 5.11328125 5.109375 C7.09328125 4.779375 9.07328125 4.449375 11.11328125 4.109375 C10.92578125 5.984375 10.92578125 5.984375 10.11328125 8.109375 C8.46123669 8.81149394 6.79404356 9.47908913 5.11328125 10.109375 C4.78328125 11.099375 4.45328125 12.089375 4.11328125 13.109375 C3.45328125 12.779375 2.79328125 12.449375 2.11328125 12.109375 C2.23703125 11.201875 2.36078125 10.294375 2.48828125 9.359375 C2.44644514 5.9015525 2.44644514 5.9015525 -0.44921875 3.734375 C-4.3873627 1.87270695 -6.58077983 1.57113264 -10.88671875 2.109375 C-14.07034311 3.4093594 -14.07034311 3.4093594 -16.88671875 5.109375 C-18.22005208 5.77604167 -19.55338542 6.44270833 -20.88671875 7.109375 C-19.39193761 3.30447755 -17.19229661 1.44746665 -13.88671875 -0.890625 C-9.29066151 -2.42264408 -4.42460819 -2.08863492 0 0 Z " fill="#772A3C" transform="translate(93.88671875,58.890625)"/>
<path d="M0 0 C0.67289063 -0.03416016 1.34578125 -0.06832031 2.0390625 -0.10351562 C5.89737122 -0.13782865 8.2728085 0.47805523 11.234375 2.83984375 C13.75 5.4375 13.75 5.4375 13.75 7.4375 C13.23953125 7.2209375 12.7290625 7.004375 12.203125 6.78125 C3.02460987 3.26607399 -5.93402721 3.57104683 -15.25 6.4375 C-16.24 5.1175 -17.23 3.7975 -18.25 2.4375 C-12.20942823 0.81119222 -6.23266462 0.15524165 0 0 Z " fill="#3FB288" transform="translate(183.25,53.5625)"/>
<path d="M0 0 C1.98 0.99 1.98 0.99 4 2 C4 2.66 4 3.32 4 4 C4.99 3.67 5.98 3.34 7 3 C9.81552726 9.78743178 10.3689719 15.68889006 10 23 C8.68 23 7.36 23 6 23 C5.94392578 22.07380859 5.94392578 22.07380859 5.88671875 21.12890625 C5.29084404 13.45263793 3.54328236 6.84114256 0 0 Z " fill="#AAAEB5" transform="translate(201,99)"/>
<path d="M0 0 C0.99 1.485 0.99 1.485 2 3 C-4.93 3 -11.86 3 -19 3 C-16.69148936 -1.61702128 -16.69148936 -1.61702128 -12.875 -3 C-7.67966679 -4.5611179 -4.20353638 -3.28621789 0 0 Z " fill="#A7C3D2" transform="translate(85,102)"/>
<path d="M0 0 C7.07588593 0.14494366 13.44212834 1.19259306 20.125 3.4375 C20.77605713 3.65494873 21.42711426 3.87239746 22.09790039 4.09643555 C24.94324503 5.09702522 26.84128772 5.84128772 29 8 C23.46644667 8.36890356 19.02280484 7.29348466 13.72265625 5.71875 C11.26096562 5.06889193 9.03006859 4.74887706 6.5 4.5625 C3 4 3 4 1.28125 1.96484375 C0.8584375 1.31644531 0.435625 0.66804688 0 0 Z " fill="#44B28A" transform="translate(194,54)"/>
<path d="M0 0 C0.33 0.66 0.66 1.32 1 2 C0.67 2.99 0.34 3.98 0 5 C-0.34320584 8.1362044 -0.4650115 11.28713825 -0.625 14.4375 C-0.6765625 15.29666016 -0.728125 16.15582031 -0.78125 17.04101562 C-0.82507812 17.87181641 -0.86890625 18.70261719 -0.9140625 19.55859375 C-0.9548291 20.31454834 -0.9955957 21.07050293 -1.03759766 21.84936523 C-1.09264121 24.02877018 -1.09264121 24.02877018 -0.38037109 26.15258789 C-0.25484863 26.76223389 -0.12932617 27.37187988 0 28 C-0.66 28.66 -1.32 29.32 -2 30 C-2.67057887 28.2097939 -3.3363469 26.41778511 -4 24.625 C-4.37125 23.62726563 -4.7425 22.62953125 -5.125 21.6015625 C-6 19 -6 19 -6 17 C-5.34 17 -4.68 17 -4 17 C-4.061875 16.030625 -4.12375 15.06125 -4.1875 14.0625 C-4.20652033 9.41202914 -2.76621699 5.26454466 -1 1 C-0.67 0.67 -0.34 0.34 0 0 Z " fill="#9B8C96" transform="translate(33,106)"/>
<path d="M0 0 C2.60400816 3.90601223 3.32230403 7.31419532 3 12 C-0.10132828 16.36124289 -4.35406366 18.54038664 -9 21 C-9 18 -9 18 -6.6875 15.625 C-5.800625 14.75875 -4.91375 13.8925 -4 13 C-0.79978647 8.77114641 -0.43738235 5.16111172 0 0 Z " fill="#44AD86" transform="translate(139,49)"/>
<path d="M0 0 C0 0.66 0 1.32 0 2 C2.64 2.33 5.28 2.66 8 3 C5.03314185 4.52817287 2.02816356 5.86635873 -1.0625 7.125 C-1.91972656 7.47820312 -2.77695313 7.83140625 -3.66015625 8.1953125 C-6 9 -6 9 -9 9 C-9.33 7.35 -9.66 5.7 -10 4 C-8.71086513 3.32845067 -7.41859796 2.66291141 -6.125 2 C-5.40570313 1.62875 -4.68640625 1.2575 -3.9453125 0.875 C-2 0 -2 0 0 0 Z " fill="#81D9BE" transform="translate(142,68)"/>
<path d="M0 0 C-2.2093249 3.31398735 -3.62264642 3.69905857 -7.1875 5.125 C-11.13488845 7.0306358 -13.49173002 9.91085003 -15.3125 13.8125 C-15.539375 14.534375 -15.76625 15.25625 -16 16 C-16.66 15.34 -17.32 14.68 -18 14 C-18.99 14.495 -18.99 14.495 -20 15 C-17.41774169 7.46841326 -12.83309208 3.64805737 -6 0 C-3 -1 -3 -1 0 0 Z " fill="#763142" transform="translate(68,74)"/>
<path d="M0 0 C5.09882455 1.5280389 9.65665659 3.71036856 14.375 6.125 C15.11105469 6.49753906 15.84710938 6.87007813 16.60546875 7.25390625 C18.40550358 8.1656122 20.20301402 9.08229932 22 10 C22 10.99 22 11.98 22 13 C16.54406329 11.39323547 11.6697853 8.94969106 6.625 6.375 C5.79355469 5.95476562 4.96210937 5.53453125 4.10546875 5.1015625 C2.06843641 4.07133925 0.03337811 3.03741179 -2 2 C-1.34 1.34 -0.68 0.68 0 0 Z " fill="#743546" transform="translate(100,111)"/>
<path d="M0 0 C1.45823212 -0.0270043 2.91660675 -0.04639787 4.375 -0.0625 C5.18710938 -0.07410156 5.99921875 -0.08570312 6.8359375 -0.09765625 C9 0 9 0 11 1 C10.125 4.875 10.125 4.875 9 6 C1.54135338 6.36090226 1.54135338 6.36090226 -2 4 C-1.34 2.68 -0.68 1.36 0 0 Z " fill="#FF8F7E" transform="translate(110,69)"/>
<path d="M0 0 C0.66 0.33 1.32 0.66 2 1 C-1.35693497 9.02113788 -5.2727294 15.50988235 -13.515625 19.09375 C-15.66514993 19.82377733 -17.79493859 20.46404757 -20 21 C-18.98859902 18.33102518 -18.34596998 17.19725267 -15.828125 15.76171875 C-14.97734375 15.40722656 -14.1265625 15.05273438 -13.25 14.6875 C-7.1128521 11.80516898 -3.49515062 8.19418542 -0.625 2.0625 C-0.315625 1.0415625 -0.315625 1.0415625 0 0 Z " fill="#733344" transform="translate(183,108)"/>
<path d="M0 0 C5.75 1.75 5.75 1.75 8 4 C8 4.99 8 5.98 8 7 C7.01 6.67 6.02 6.34 5 6 C-1.81574013 4.24667555 -9.02040004 4.84753301 -16 5 C-12.61416198 1.86892164 -10.28890538 1.66449222 -5.75 1.8125 C-4.13351563 1.85310547 -4.13351563 1.85310547 -2.484375 1.89453125 C-1.25460938 1.94673828 -1.25460938 1.94673828 0 2 C0 1.34 0 0.68 0 0 Z " fill="#937B85" transform="translate(167,73)"/>
<path d="M0 0 C0 0.33 0 0.66 0 1 C-2.64 1.33 -5.28 1.66 -8 2 C-8.22988506 4.36278736 -8.22988506 4.36278736 -5.5 6.625 C-4.2625 7.800625 -4.2625 7.800625 -3 9 C-3.33 9.99 -3.66 10.98 -4 12 C-4.32871094 11.4946875 -4.65742188 10.989375 -4.99609375 10.46875 C-7.87985333 6.43716087 -7.87985333 6.43716087 -12.26171875 4.5 C-16.00877124 4.5 -19.38713196 5.01913085 -23 6 C-23 5.34 -23 4.68 -23 4 C-20.10767725 3.13200283 -17.21215302 2.2803444 -14.3125 1.4375 C-13.49587891 1.19064453 -12.67925781 0.94378906 -11.83789062 0.68945312 C-4.32355667 -1.47053761 -4.32355667 -1.47053761 0 0 Z " fill="#66323D" transform="translate(175,54)"/>
<path d="M0 0 C9.92295827 0.95340686 18.802002 6.21331617 26 13 C22.21807165 13 20.70514577 11.79041232 17.5 9.8125 C11.83555112 6.41383067 6.0699684 3.5928802 0 1 C0 0.67 0 0.34 0 0 Z " fill="#AAECD3" transform="translate(188,33)"/>
<path d="M0 0 C1.27230469 0.00902344 2.54460937 0.01804688 3.85546875 0.02734375 C5.31919922 0.04474609 5.31919922 0.04474609 6.8125 0.0625 C6.8125 1.3825 6.8125 2.7025 6.8125 4.0625 C6.31234375 3.89878906 5.8121875 3.73507813 5.296875 3.56640625 C1.8861532 2.8746089 -1.47485757 2.95745335 -4.9375 3 C-5.63488281 3.00451172 -6.33226562 3.00902344 -7.05078125 3.01367188 C-8.76305803 3.0253998 -10.47529033 3.04333347 -12.1875 3.0625 C-8.55002918 -0.57497082 -4.89839935 -0.04493944 0 0 Z " fill="#96E6CB" transform="translate(185.1875,57.9375)"/>
<path d="M0 0 C0.33 0 0.66 0 1 0 C1 1.65 1 3.3 1 5 C0.41992188 5.31453125 -0.16015625 5.6290625 -0.7578125 5.953125 C-5.32182927 8.45354343 -9.72116216 11.03772765 -14 14 C-11.71760867 8.39776673 -7.29084211 4.71691892 -2 2 C-1.34 2 -0.68 2 0 2 C0 1.34 0 0.68 0 0 Z " fill="#AACAD9" transform="translate(181,86)"/>
<path d="M0 0 C-0.33 0.66 -0.66 1.32 -1 2 C-4.76300374 3.25433458 -8.27210909 3.10695422 -12.1875 3.0625 C-12.93708984 3.05798828 -13.68667969 3.05347656 -14.45898438 3.04882812 C-16.30602383 3.03706354 -18.15302213 3.01912865 -20 3 C-20 2.34 -20 1.68 -20 1 C-17.04239121 0.63851448 -14.08419774 0.28550884 -11.125 -0.0625 C-9.86236328 -0.2181543 -9.86236328 -0.2181543 -8.57421875 -0.37695312 C-7.36572266 -0.51713867 -7.36572266 -0.51713867 -6.1328125 -0.66015625 C-5.01737061 -0.79369507 -5.01737061 -0.79369507 -3.87939453 -0.92993164 C-2 -1 -2 -1 0 0 Z " fill="#68182B" transform="translate(164,127)"/>
<path d="M0 0 C0.87527344 -0.01417969 1.75054687 -0.02835937 2.65234375 -0.04296875 C5.0625 0.1875 5.0625 0.1875 8.0625 2.1875 C8.0625 3.1775 8.0625 4.1675 8.0625 5.1875 C7.0725 5.1875 6.0825 5.1875 5.0625 5.1875 C4.7325 4.5275 4.4025 3.8675 4.0625 3.1875 C-2.99401252 3.03774761 -2.99401252 3.03774761 -9.9375 4.1875 C-6.64536508 0.74572259 -4.76691644 0.03499939 0 0 Z " fill="#753748" transform="translate(147.9375,83.8125)"/>
<path d="M0 0 C0.66 0.33 1.32 0.66 2 1 C2 1.66 2 2.32 2 3 C1.18015625 3.38671875 0.3603125 3.7734375 -0.484375 4.171875 C-2.10085937 4.95304687 -2.10085937 4.95304687 -3.75 5.75 C-4.81734375 6.26046875 -5.8846875 6.7709375 -6.984375 7.296875 C-9.86694755 8.92485639 -11.80426309 10.54844908 -14 13 C-14.66 12.67 -15.32 12.34 -16 12 C-14.46620188 10.55410731 -12.92256145 9.11865196 -11.375 7.6875 C-10.51648438 6.88699219 -9.65796875 6.08648437 -8.7734375 5.26171875 C-5.95390773 2.96241208 -3.36252798 1.37986092 0 0 Z " fill="#794050" transform="translate(180,91)"/>
<path d="M0 0 C-4.23513217 3.96189783 -8.547001 5.43181728 -14 7 C-14.33 6.01 -14.66 5.02 -15 4 C-13.06767179 3.13419713 -11.12892806 2.28270059 -9.1875 1.4375 C-8.10855469 0.96183594 -7.02960938 0.48617187 -5.91796875 -0.00390625 C-3 -1 -3 -1 0 0 Z " fill="#702B3C" transform="translate(155,90)"/>
<path d="M0 0 C0.99 0.33 1.98 0.66 3 1 C2.690625 2.010625 2.38125 3.02125 2.0625 4.0625 C1.02352081 7.6731369 0.45688819 11.26874647 0 15 C-0.66 15 -1.32 15 -2 15 C-2.05429959 13.25034642 -2.09292823 11.50020213 -2.125 9.75 C-2.15980469 8.28820312 -2.15980469 8.28820312 -2.1953125 6.796875 C-1.99862781 3.9803502 -1.44568916 2.39050964 0 0 Z " fill="#C5EBED" transform="translate(29,108)"/>
<path d="M0 0 C4.62 0 9.24 0 14 0 C14 0.66 14 1.32 14 2 C12.75283203 2.09087891 12.75283203 2.09087891 11.48046875 2.18359375 C9.85044922 2.30927734 9.85044922 2.30927734 8.1875 2.4375 C6.56908203 2.55931641 6.56908203 2.55931641 4.91796875 2.68359375 C1.94010095 2.90212461 1.94010095 2.90212461 -1 4 C-0.67 2.68 -0.34 1.36 0 0 Z " fill="#C0E1E3" transform="translate(153,73)"/>
<path d="M0 0 C6.625 -0.125 6.625 -0.125 10 1 C10.33 1.99 10.66 2.98 11 4 C3.85322896 4.16242661 3.85322896 4.16242661 1 3 C0.67 2.01 0.34 1.02 0 0 Z " fill="#8FE1C6" transform="translate(198,58)"/>
<path d="M0 0 C0.33 0 0.66 0 1 0 C1 3.3 1 6.6 1 10 C0.01 9.34 -0.98 8.68 -2 8 C-2.3125 5 -2.3125 5 -2 2 C-1.34 1.34 -0.68 0.68 0 0 Z " fill="#722834" transform="translate(190,188)"/>
<path d="M0 0 C0.33 0 0.66 0 1 0 C1.08131463 1.43655854 1.13933559 2.8744483 1.1875 4.3125 C1.22230469 5.11300781 1.25710937 5.91351563 1.29296875 6.73828125 C0.93801608 9.47851584 0.10633718 10.29171079 -2 12 C-3.40907283 9.18185434 -2.50872691 7.82722796 -1.5625 4.875 C-1.27503906 3.96492188 -0.98757812 3.05484375 -0.69140625 2.1171875 C-0.46324219 1.41851562 -0.23507813 0.71984375 0 0 Z " fill="#6C1A2D" transform="translate(132,80)"/>
<path d="M0 0 C1.65 0.33 3.3 0.66 5 1 C4.67 1.99 4.34 2.98 4 4 C2.35 4 0.7 4 -1 4 C-0.67 2.68 -0.34 1.36 0 0 Z " fill="#FF927F" transform="translate(83,63)"/>
<path d="M0 0 C0.99 0.33 1.98 0.66 3 1 C0.06171403 3.50298434 -2.17902761 4.46930939 -6 5 C-2.25 1.125 -2.25 1.125 0 0 Z " fill="#46B78E" transform="translate(137,67)"/>
<path d="M0 0 C-0.33 0.66 -0.66 1.32 -1 2 C-4.0625 2.625 -4.0625 2.625 -7 3 C-7 2.01 -7 1.02 -7 0 C-2.25 -1.125 -2.25 -1.125 0 0 Z " fill="#6C2235" transform="translate(164,127)"/>
<path d="M0 0 C0.33 0.66 0.66 1.32 1 2 C0.67 2.99 0.34 3.98 0 5 C-2.64 5 -5.28 5 -8 5 C-7.4225 4.731875 -6.845 4.46375 -6.25 4.1875 C-3.9674132 2.98280141 -2.0262058 1.59201885 0 0 Z " fill="#671E2F" transform="translate(181,49)"/>
</svg>
