<?xml version="1.0" encoding="UTF-8"?>
<svg version="1.1" xmlns="http://www.w3.org/2000/svg" width="256" height="256">
<path d="M0 0 C-0.10957031 0.92554687 -0.21914062 1.85109375 -0.33203125 2.8046875 C-0.58085502 4.90818481 -0.82844961 7.01180893 -1.07373047 9.11572266 C-1.63441405 13.9228313 -2.21082729 18.72763915 -2.80078125 23.53125 C-3.07565417 25.81248394 -3.3503941 28.0937339 -3.625 30.375 C-3.76010986 31.45507324 -3.89521973 32.53514648 -4.03442383 33.64794922 C-4.74708781 39.63249342 -5.07458391 45.43555575 -4.98095703 51.45996094 C-4.99821115 53.76139487 -5.1960435 55.90435346 -5.515625 58.1796875 C-6.38149031 65.12810309 -5.96333454 72.14339655 -5.75 79.125 C-5.7279953 79.89535583 -5.7059906 80.66571167 -5.68331909 81.45941162 C-5.3026224 94.37202184 -4.54129411 107.24472158 -3.5625 120.125 C-3.50114868 120.95211487 -3.43979736 121.77922974 -3.37658691 122.63140869 C-2.50127613 134.42588931 -2.50127613 134.42588931 -0.38256836 146.05029297 C0 148 0 148 0 152 C-43.86552624 152.56873521 -43.86552624 152.56873521 -56 142 C-69.25514244 127.79993652 -67.33364908 107.18238824 -67.26074219 88.93603516 C-67.2500619 85.7683579 -67.26067853 82.60125348 -67.2734375 79.43359375 C-67.28115967 66.1777208 -66.51605254 53.16790056 -65 40 C-64.08617302 40.31308357 -64.08617302 40.31308357 -63.15388489 40.63249207 C-62.35004868 40.9048317 -61.54621246 41.17717133 -60.71801758 41.45776367 C-59.92317459 41.72836105 -59.1283316 41.99895844 -58.30940247 42.27775574 C-52.25833528 44.17017104 -46.08908208 44.18240123 -39.8125 44.1875 C-38.65137695 44.20586914 -38.65137695 44.20586914 -37.46679688 44.22460938 C-30.83474076 44.24090435 -24.50673643 43.22972372 -18 42 C-18.89195068 42.01047363 -19.78390137 42.02094727 -20.70288086 42.03173828 C-24.05202891 42.0660796 -27.40098641 42.09102394 -30.75024414 42.10986328 C-32.19233171 42.11984313 -33.63439946 42.13343184 -35.07641602 42.15087891 C-56.89983603 42.40806999 -56.89983603 42.40806999 -66 35 C-70.66790978 29.71789157 -71.93526733 23.48093959 -72.03515625 16.56640625 C-71.67834631 11.40571616 -70.37080951 8.06479971 -67 4 C-62.14542766 0.76361844 -57.04532339 0.86683729 -51.328125 0.68359375 C-50.03519531 0.64161865 -48.74226563 0.59964355 -47.41015625 0.55639648 C-46.02344787 0.51640319 -44.63672881 0.47677857 -43.25 0.4375 C-42.5492334 0.41632111 -41.8484668 0.39514221 -41.12646484 0.37332153 C-27.41637726 -0.03864398 -13.71615565 -0.11584591 0 0 Z M-31 9 C-30 11 -30 11 -30 11 Z M-63 10 C-63.99 11.485 -63.99 11.485 -65 13 C-64.67 13.99 -64.34 14.98 -64 16 C-63.34 14.02 -62.68 12.04 -62 10 C-62.33 10 -62.66 10 -63 10 Z M-44 11 C-44 11.33 -44 11.66 -44 12 C-41.69 12 -39.38 12 -37 12 C-37 11.67 -37 11.34 -37 11 C-39.31 11 -41.62 11 -44 11 Z M-30 12 C-29 14 -29 14 -29 14 Z M-24 17 C-23 19 -23 19 -23 19 Z M-44 21 C-43 23 -43 23 -43 23 Z M-29 22 C-28 24 -28 24 -28 24 Z M-45 23 C-44 26 -44 26 -44 26 Z M-30 24 C-30 25.65 -30 27.3 -30 29 C-29.67 29 -29.34 29 -29 29 C-29 27.35 -29 25.7 -29 24 C-29.33 24 -29.66 24 -30 24 Z M-44 26 C-44 26.33 -44 26.66 -44 27 C-41.36 27 -38.72 27 -36 27 C-36 26.67 -36 26.34 -36 26 C-38.64 26 -41.28 26 -44 26 Z M-17 46 C-17 46.33 -17 46.66 -17 47 C-14.69 47 -12.38 47 -10 47 C-10 46.67 -10 46.34 -10 46 C-12.31 46 -14.62 46 -17 46 Z M-56 49 C-55 52 -55 52 -55 52 Z M-17 49 C-16 51 -16 51 -16 51 Z M-16 51 C-15 53 -15 53 -15 53 Z M-55 52 C-54 55 -54 55 -54 55 Z M-15 53 C-14 55 -14 55 -14 55 Z M-16 55 C-15 58 -15 58 -15 58 Z M-55 56 C-55.95261487 60.76307437 -56.08333357 65.1666528 -56 70 C-56.99 70.495 -56.99 70.495 -58 71 C-57.7221455 74.27216113 -57.42534437 77.5423326 -57.125 80.8125 C-57.04636719 81.74126953 -56.96773437 82.67003906 -56.88671875 83.62695312 C-56.80292969 84.51962891 -56.71914063 85.41230469 -56.6328125 86.33203125 C-56.55949707 87.15421143 -56.48618164 87.9763916 -56.41064453 88.82348633 C-56.09335737 91.28335387 -56.09335737 91.28335387 -54 94 C-54.00523682 93.30962646 -54.01047363 92.61925293 -54.01586914 91.90795898 C-54.03677867 88.75114874 -54.04970442 85.59435314 -54.0625 82.4375 C-54.07087891 81.35146484 -54.07925781 80.26542969 -54.08789062 79.14648438 C-54.10465515 73.63095422 -53.85900837 68.44038636 -53 63 C-53.2602896 60.65739357 -53.57420028 58.3182429 -54 56 C-54.33 56 -54.66 56 -55 56 Z M-49 58 C-48 60 -48 60 -48 60 Z M-17 58 C-16 61 -16 61 -16 61 Z M-16 61 C-12 62 -12 62 -12 62 Z M-27 85 C-25.02 85.99 -25.02 85.99 -23 87 C-23 86.34 -23 85.68 -23 85 C-24.32 85 -25.64 85 -27 85 Z M-23 88 C-22 91 -22 91 -22 91 Z M-37 89 C-37 89.33 -37 89.66 -37 90 C-34.69 90 -32.38 90 -30 90 C-30 89.67 -30 89.34 -30 89 C-32.31 89 -34.62 89 -37 89 Z M-38 90 C-37 93 -37 93 -37 93 Z M-54 94 C-53 98 -53 98 -53 98 Z M-53 99 C-52 101 -52 101 -52 101 Z M-22 100 C-21 104 -21 104 -21 104 Z M-56 119 C-55 121 -55 121 -55 121 Z M-55 122 C-54 124 -54 124 -54 124 Z M-49 127 C-48 130 -48 130 -48 130 Z M-54 133 C-53 135 -53 135 -53 135 Z M-55 136 C-54 139 -54 139 -54 139 Z M-13 141 C-13 141.33 -13 141.66 -13 142 C-10.69 142 -8.38 142 -6 142 C-6 141.67 -6 141.34 -6 141 C-8.31 141 -10.62 141 -13 141 Z M-14 145 C-13 147 -13 147 -13 147 Z " fill="#D372DA" transform="translate(113,86)"/>
<path d="M0 0 C13.0887336 -0.12367607 26.17065785 -0.02817498 39.25515747 0.31838989 C40.69801432 0.35581769 42.14095168 0.39027221 43.58395386 0.42160034 C63.81786256 0.87241599 63.81786256 0.87241599 68.5 5.4375 C72.18507923 11.73284369 71.5294548 18.94060271 71 26 C69.51531029 31.42234505 66.78700031 34.99420911 62 38 C55.06619332 41.40386874 49.07585458 42.12830342 41.4140625 42.09765625 C40.71227875 42.0962413 40.010495 42.09482635 39.28744507 42.09336853 C37.06658496 42.0878129 34.84582916 42.07526892 32.625 42.0625 C31.11067855 42.05747926 29.5963555 42.05291736 28.08203125 42.04882812 C24.38798748 42.03785807 20.69400394 42.02062449 17 42 C24.54146904 43.28273259 31.90406032 44.36599797 39.5625 44.3125 C40.36824463 44.31048584 41.17398926 44.30847168 42.00415039 44.30639648 C48.64944781 44.19540892 54.66844366 43.03326185 61 41 C62.33078741 40.65664338 63.66327243 40.31944998 65 40 C66.23394144 42.46788287 66.06522843 43.99409894 66 46.75 C65.95042343 50.90884604 66.12770917 54.9675176 66.4921875 59.109375 C67.12991473 67.67475025 67.15068335 76.2183643 67.13037109 84.80419922 C67.12500832 87.4958255 67.13035095 90.18728498 67.13671875 92.87890625 C67.14007944 102.63564857 66.88997753 112.2771475 66 122 C62.05025309 121.12227847 59.77196586 120.07996206 57 117 C56.5748571 113.95576688 56.70645904 111.05282597 57 108 C56.81824219 109.50240234 56.81824219 109.50240234 56.6328125 111.03515625 C56.46382849 112.3776403 56.29454142 113.72008623 56.125 115.0625 C56.04636719 115.71927734 55.96773437 116.37605469 55.88671875 117.05273438 C55.31422683 121.5225751 54.26308247 125.66412448 53 130 C53 133.01490557 53.51952735 134.86864114 54.5 137.6875 C54.7784375 138.49574219 55.056875 139.30398437 55.34375 140.13671875 C55.5603125 140.75160156 55.776875 141.36648437 56 142 C43.94323005 150.57885554 30.18840865 151.18270784 15.84375 150.9375 C13.09957473 150.66995894 13.09957473 150.66995894 12 152 C9.98035801 152.07244053 7.95832876 152.08377188 5.9375 152.0625 C4.83277344 152.05347656 3.72804687 152.04445312 2.58984375 152.03515625 C1.30787109 152.01775391 1.30787109 152.01775391 0 152 C0.14343968 150.31229485 0.28988569 148.62484514 0.4375 146.9375 C0.51871094 145.99777344 0.59992188 145.05804688 0.68359375 144.08984375 C0.90066485 141.97005065 1.16634362 139.85484106 1.47265625 137.74609375 C4.13743965 118.81626201 4.92876615 99.67491764 5.54855347 80.58969116 C5.59924043 79.03838682 5.65157003 77.48713522 5.70559692 75.9359436 C5.78110911 73.73348019 5.84866801 71.53090937 5.9140625 69.328125 C5.9548291 68.0380957 5.9955957 66.74806641 6.03759766 65.41894531 C6.00462074 62.42018759 5.65611096 59.90716857 5 57 C4.98070609 54.68748664 5.00575118 52.37439746 5.0625 50.0625 C5.13900772 43.29691393 4.41674974 36.88491826 3.33837891 30.19970703 C2.60869764 25.45625233 2.00057427 20.69557703 1.375 15.9375 C1.23989014 14.9371875 1.10478027 13.936875 0.96557617 12.90625 C0.84029541 11.95621094 0.71501465 11.00617188 0.5859375 10.02734375 C0.4729834 9.17906006 0.3600293 8.33077637 0.24365234 7.45678711 C-0.00452937 4.95432966 -0.0421031 2.51299395 0 0 Z M30 8 C31 10 31 10 31 10 Z M29 11 C30 13 30 13 30 13 Z M37 11 C37 11.33 37 11.66 37 12 C39.31 12 41.62 12 44 12 C44 11.67 44 11.34 44 11 C41.69 11 39.38 11 37 11 Z M44 12 C45 15 45 15 45 15 Z M23 17 C24 20 24 20 24 20 Z M42 18 C43 21 43 21 43 21 Z M64 18 C65 21 65 21 65 21 Z M63 21 C62.319375 21.78375 61.63875 22.5675 60.9375 23.375 C57.24472003 26.67493104 54.80325692 27.10447752 50 28 C50.33 28.66 50.66 29.32 51 30 C55.98243747 29.52548215 59.1102747 28.16605547 63 25 C63.95231597 22.87880872 63.95231597 22.87880872 64 21 C63.67 21 63.34 21 63 21 Z M43 22 C44 24 44 24 44 24 Z M28 23 C29 26 29 26 29 26 Z M35 26 C35 26.33 35 26.66 35 27 C37.97 27 40.94 27 44 27 C44 26.67 44 26.34 44 26 C41.03 26 38.06 26 35 26 Z M29 27 C30 29 30 29 30 29 Z M10 40 C14 41 14 41 14 41 Z M10 46 C10 46.33 10 46.66 10 47 C12.31 47 14.62 47 17 47 C17 46.67 17 46.34 17 46 C14.69 46 12.38 46 10 46 Z M17 47 C18 49 18 49 18 49 Z M55 50 C56 53 56 53 56 53 Z M15 52 C15 53.65 15 55.3 15 57 C15.33 57 15.66 57 16 57 C16 55.35 16 53.7 16 52 C15.67 52 15.34 52 15 52 Z M54 53 C55 55 55 55 55 55 Z M16 58 C17 61 17 61 17 61 Z M48 58 C49 60 49 60 49 60 Z M12 61 C16 62 16 62 16 62 Z M54 65 C55 69 55 69 55 69 Z M23 86 C24 88 24 88 24 88 Z M22 89 C23 91 23 91 23 91 Z M31 89 C31 89.33 31 89.66 31 90 C32.98 90 34.96 90 37 90 C37 89.67 37 89.34 37 89 C35.02 89 33.04 89 31 89 Z M37 90 C38 93 38 93 38 93 Z M16 94 C17 97 17 97 17 97 Z M35 96 C36 98 36 98 36 98 Z M36 99 C37 101 37 101 37 101 Z M21 100 C22 103 22 103 22 103 Z M22 103 C23 107 23 107 23 107 Z M48 128 C49 130 49 130 49 130 Z M6 141 C6 141.33 6 141.66 6 142 C8.31 142 10.62 142 13 142 C13 141.67 13 141.34 13 141 C10.69 141 8.38 141 6 141 Z M14 142 C15 145 15 145 15 145 Z " fill="#D374DA" transform="translate(143,86)"/>
<path d="M0 0 C9.24 0 18.48 0 28 0 C30.34050222 50.84323125 30.18955732 101.15144105 28 152 C18.76 152 9.52 152 0 152 C-3.63547318 101.62272879 -3.39124326 50.38418562 0 0 Z " fill="#FA9BDE" transform="translate(114,86)"/>
<path d="M0 0 C6.28323142 5.57744378 10.88338234 13.63632341 11.9375 21.9375 C12.24048495 29.68886507 10.16976252 35.20336741 4.9375 40.9375 C-7.69493048 52.27020388 -24.24881726 55.33378006 -40.6875 55.125 C-41.65945312 55.12435547 -42.63140625 55.12371094 -43.6328125 55.12304688 C-49.51558972 55.08746556 -55.22809511 54.6893563 -61.0625 53.9375 C-61.145 52.885625 -61.2275 51.83375 -61.3125 50.75 C-61.71469316 46.87401454 -61.71469316 46.87401454 -64.3125 44.625 C-66.0625 41.9375 -66.0625 41.9375 -65.9375 39.96875 C-61.38803108 22.90824154 -51.25720139 7.07542459 -36.0625 -2.0625 C-22.8730754 -8.52606745 -12.17576724 -8.20000651 0 0 Z M-30.0625 2.9375 C-27.2970407 4.16164816 -27.2970407 4.16164816 -25.375 3.5 C-18.76664817 1.89256307 -12.49959919 3.26862243 -6.0625 4.9375 C-9.66147881 0.96883757 -13.75579539 0.18289411 -19 -0.375 C-23.07313542 0.04062606 -26.28142621 1.37291774 -30.0625 2.9375 Z M-41.8125 21.875 C-45.07466792 26.74270918 -47.64306119 31.26357758 -48.5625 37.125 C-50.8228175 41.3630953 -54.29728731 41.87292118 -58.7265625 43.2734375 C-59.49742187 43.49257812 -60.26828125 43.71171875 -61.0625 43.9375 C-57.05518943 45.56861636 -53.80284776 44.18215336 -49.9375 42.8125 C-49.26807373 42.57950195 -48.59864746 42.34650391 -47.90893555 42.10644531 C-35.45117885 37.66570077 -21.21447451 30.59948828 -14.0625 18.9375 C-13.11757274 16.57981385 -12.57349502 14.44137562 -12.0625 11.9375 C-15.29693294 8.08326287 -15.29693294 8.08326287 -19.875 6.375 C-29.39818452 8.05556197 -36.29400853 14.25092059 -41.8125 21.875 Z M-40.0625 47.375 C-46.06226775 48.80255417 -51.91251516 49.58008605 -58.0625 49.9375 C-57.7325 50.5975 -57.4025 51.2575 -57.0625 51.9375 C-48.13694862 52.47066347 -38.1485326 51.93208208 -31.0625 45.9375 C-34.32008962 45.9375 -36.90448229 46.58169988 -40.0625 47.375 Z " fill="#FA9BDE" transform="translate(204.0625,24.0625)"/>
<path d="M0 0 C11.8959393 10.21830684 19.35824694 24.28551075 22.8125 39.4375 C22.19375 39.829375 21.575 40.22125 20.9375 40.625 C18.47430129 42.72596361 17.9016733 44.43982034 16.8125 47.4375 C6.59663191 48.14611513 -2.40572996 46.03360959 -12.1875 43.4375 C-2.57123452 47.58078072 6.41835425 48.51420956 16.8125 48.4375 C16.8125 49.4275 16.8125 50.4175 16.8125 51.4375 C-4.02802644 54.49213981 -27.45284701 53.92710423 -45.125 41.125 C-50.63560013 36.48449463 -54.10270001 31.78319992 -55.1875 24.5625 C-55.68309301 14.09109935 -51.06592561 6.07087476 -44.1875 -1.5625 C-30.45931655 -13.54476465 -13.93403956 -10.36951782 0 0 Z M-36.1875 0.4375 C-32.93246277 1.52251241 -32.32059362 1.29572077 -29.1875 0.4375 C-23.76364015 0.09662896 -18.53254505 0.5277051 -13.1875 1.4375 C-14.0548532 -0.82987432 -14.0548532 -0.82987432 -16.75 -1.6875 C-24.24695049 -3.59581467 -29.25460168 -2.53374214 -36.1875 0.4375 Z M-29.75 6.5 C-31.48244088 9.39294026 -31.48244088 9.39294026 -30.875 12.75 C-26.43775629 24.53164709 -13.0513358 31.99993464 -2.3203125 37.11328125 C7.49514293 41.73809733 7.49514293 41.73809733 17.8125 41.4375 C17.05324219 41.25316406 16.29398438 41.06882813 15.51171875 40.87890625 C7.49467474 38.53930197 7.49467474 38.53930197 5.625 35.51953125 C5.19579731 34.00390927 4.812605 32.4747341 4.46875 30.9375 C1.75321861 20.5926185 -6.43317884 12.2235382 -15.13671875 6.6015625 C-20.04717641 3.8142932 -25.16784404 2.81192325 -29.75 6.5 Z " fill="#FA9BDE" transform="translate(95.1875,26.5625)"/>
<path d="M0 0 C0.99 0 1.98 0 3 0 C5.99715097 6.99335227 4.51321311 13.71705175 3 21 C2.67 21.33 2.34 21.66 2 22 C2.04161121 23.42359083 2.15730059 24.84516679 2.3046875 26.26171875 C2.39363281 27.13376953 2.48257813 28.00582031 2.57421875 28.90429688 C2.67347656 29.82275391 2.77273437 30.74121094 2.875 31.6875 C2.96652344 32.58662109 3.05804688 33.48574219 3.15234375 34.41210938 C3.53460272 38.08125707 3.94512673 41.69641544 4.6015625 45.328125 C5.01334324 48.08947821 4.88434329 50.30658392 4.5 53.0625 C4.07566264 56.62371103 3.9534096 59.51136532 5 63 C1.02022924 63.8441938 -2.97007218 64.44687265 -7 65 C-7.87224466 61.98840473 -8.1264201 59.305786 -8.12939453 56.17480469 C-8.13254669 55.2199115 -8.13569885 54.26501831 -8.13894653 53.28118896 C-8.1369223 52.25511536 -8.13489807 51.22904175 -8.1328125 50.171875 C-8.13376923 49.10890198 -8.13472595 48.04592896 -8.13571167 46.95074463 C-8.13639201 44.70137472 -8.13454789 42.45200285 -8.13037109 40.20263672 C-8.12504196 36.77697271 -8.13031012 33.35144107 -8.13671875 29.92578125 C-8.13605753 27.73697888 -8.13477546 25.54817659 -8.1328125 23.359375 C-8.13483673 22.34139832 -8.13686096 21.32342163 -8.13894653 20.27459717 C-8.12096555 14.7556409 -7.81597298 9.45980729 -7 4 C-5.824375 3.566875 -5.824375 3.566875 -4.625 3.125 C-1.90328368 2.15087746 -1.90328368 2.15087746 0 0 Z " fill="#D475DA" transform="translate(54,135)"/>
<path d="M0 0 C0.73605469 0.226875 1.47210938 0.45375 2.23046875 0.6875 C2.23046875 1.3475 2.23046875 2.0075 2.23046875 2.6875 C3.55046875 2.6875 4.87046875 2.6875 6.23046875 2.6875 C6.91796875 4.9375 6.91796875 4.9375 7.23046875 7.6875 C5.75 9.859375 5.75 9.859375 4.23046875 11.6875 C5.27847656 11.85185547 5.27847656 11.85185547 6.34765625 12.01953125 C7.25773437 12.17808594 8.1678125 12.33664063 9.10546875 12.5 C10.01039063 12.65082031 10.9153125 12.80164063 11.84765625 12.95703125 C14.23046875 13.6875 14.23046875 13.6875 16.23046875 16.6875 C16.3125 18.625 16.3125 18.625 16.04296875 20.6875 C15.96691406 21.368125 15.89085937 22.04875 15.8125 22.75 C15.081731 25.18262701 14.24887566 26.15534567 12.23046875 27.6875 C7.93023356 28.98166602 4.21333031 29.02772131 -0.01953125 27.5625 C-6.74942917 22.97393324 -9.88194748 18.20610828 -11.45703125 10.1875 C-10.54866677 5.56309903 -8.47237267 3.90241228 -5.0078125 0.875 C-2.76953125 -0.3125 -2.76953125 -0.3125 0 0 Z " fill="#DC8EE1" transform="translate(175.76953125,137.3125)"/>
<path d="M0 0 C1.2065625 0.0309375 1.2065625 0.0309375 2.4375 0.0625 C2.69402344 0.74957031 2.95054688 1.43664062 3.21484375 2.14453125 C5.40178461 7.60322138 5.40178461 7.60322138 9.703125 11.32421875 C12.09146714 12.08928847 12.09146714 12.08928847 14.44921875 12.5625 C16.4375 13.0625 16.4375 13.0625 18.4375 15.0625 C18.99558445 19.28799657 18.87574097 21.37592248 16.5625 25 C12.79308815 27.48781182 10.45504513 27.85363892 6.00390625 27.6015625 C1.47341973 26.64995346 -1.51538056 24.49577513 -4.5625 21.0625 C-7.44104074 16.50074476 -9.67449423 11.49891623 -8.5625 6.0625 C-6.125 3.25 -6.125 3.25 -3.5625 1.0625 C-2.5625 0.0625 -2.5625 0.0625 0 0 Z " fill="#DB8DE1" transform="translate(75.5625,205.9375)"/>
<path d="M0 0 C4.08682693 4.20702772 5.61790755 8.32535285 6.4375 14.0625 C5.84229116 18.05890221 3.94158727 19.3385639 1 22 C-0.29519995 24.16620544 -0.29519995 24.16620544 -1 26 C-2.65 25.67 -4.3 25.34 -6 25 C-6.10957031 24.30132812 -6.21914062 23.60265625 -6.33203125 22.8828125 C-6.49058594 21.97273438 -6.64914063 21.06265625 -6.8125 20.125 C-6.96332031 19.22007812 -7.11414063 18.31515625 -7.26953125 17.3828125 C-7.83051301 14.65587522 -7.83051301 14.65587522 -11 13 C-12.155 12.855625 -13.31 12.71125 -14.5 12.5625 C-18 12 -18 12 -19.9375 10.9375 C-21.72273637 7.68206898 -21.23646908 4.66527068 -21 1 C-18.96428688 -1.03571312 -14.98900288 -0.45833141 -12.1875 -0.625 C-11.46240234 -0.6765625 -10.73730469 -0.728125 -9.99023438 -0.78125 C-2.98818668 -1.21687602 -2.98818668 -1.21687602 0 0 Z " fill="#DC8FE1" transform="translate(87,131)"/>
<path d="M0 0 C2.6875 0.3125 2.6875 0.3125 5 1 C5.061875 1.763125 5.12375 2.52625 5.1875 3.3125 C5.76935262 6.23051809 5.76935262 6.23051809 8.5625 7.8125 C9.366875 8.204375 10.17125 8.59625 11 9 C10.360625 9.7425 9.72125 10.485 9.0625 11.25 C7.15188513 13.79748649 6.59880844 15.00595782 6 18 C5.34 18.99 4.68 19.98 4 21 C3.2575 20.67 2.515 20.34 1.75 20 C-1.13883312 18.77217129 -1.13883312 18.77217129 -5 19 C-6.66666667 19 -8.33333333 19 -10 19 C-11.24876645 15.39245247 -10.6803106 12.70391329 -10 9 C-9.96377667 7.33372702 -9.95100158 5.66594626 -10 4 C-8.906875 3.896875 -7.81375 3.79375 -6.6875 3.6875 C-3.06553649 3.37186435 -3.06553649 3.37186435 -1.375 1.375 C-0.92125 0.92125 -0.4675 0.4675 0 0 Z " fill="#FA99DE" transform="translate(86,172)"/>
<path d="M0 0 C2.22118723 1.76163125 2.87204254 3.2057275 3.3203125 5.98828125 C3.66688688 12.67716679 1.55000845 17.32865232 -2.19921875 22.7265625 C-5.00726089 24.71229295 -7.66953012 24.18851716 -11 24 C-11.10829314 21.10315842 -11.18743954 18.21038981 -11.25 15.3125 C-11.28351563 14.49587891 -11.31703125 13.67925781 -11.3515625 12.83789062 C-11.41862016 8.69707993 -11.35846774 6.5725115 -9.109375 2.98046875 C-6.06144099 0.11879737 -4.15898318 -0.50719307 0 0 Z " fill="#DB8DE0" transform="translate(160,155)"/>
<path d="M0 0 C2.3125 0.8125 2.3125 0.8125 4.3125 1.8125 C5.63869981 6.51448114 5.0709462 10.70601482 4.50390625 15.46484375 C4.29022401 18.08572189 4.55675473 20.29334911 5.3125 22.8125 C1.33272924 23.6566938 -2.65757218 24.25937265 -6.6875 24.8125 C-7.83137723 20.6626198 -7.98252024 16.59505245 -8.0625 12.3125 C-8.09988281 11.55324219 -8.13726562 10.79398438 -8.17578125 10.01171875 C-8.2406327 5.89725453 -8.2297223 4.39788428 -5.33203125 1.26953125 C-2.6875 -0.1875 -2.6875 -0.1875 0 0 Z " fill="#DC8EE1" transform="translate(53.6875,175.1875)"/>
<path d="M0 0 C1.04929688 -0.01417969 2.09859375 -0.02835937 3.1796875 -0.04296875 C6.11882925 0.18701714 7.70216797 0.55236 10.125 2.1875 C12.56269218 5.84403827 12.36444439 7.87750101 12.125 12.1875 C11.125 13.1875 11.125 13.1875 8.0625 13.25 C7.093125 13.229375 6.12375 13.20875 5.125 13.1875 C4.465 11.8675 3.805 10.5475 3.125 9.1875 C3.125 10.5075 3.125 11.8275 3.125 13.1875 C1.475 13.1875 -0.175 13.1875 -1.875 13.1875 C-2.205 11.8675 -2.535 10.5475 -2.875 9.1875 C-3.205 10.5075 -3.535 11.8275 -3.875 13.1875 C-6.515 13.1875 -9.155 13.1875 -11.875 13.1875 C-12.36579755 5.82553681 -12.36579755 5.82553681 -10 2.75 C-6.4811681 0.1626236 -4.34741276 0.02657343 0 0 Z " fill="#FA9BDE" transform="translate(127.875,67.8125)"/>
<path d="M0 0 C0.515625 0.639375 1.03125 1.27875 1.5625 1.9375 C4.65935623 4.55791681 7.02067623 4.69389817 11 5 C10.85691406 5.88751953 10.85691406 5.88751953 10.7109375 6.79296875 C10.05845515 11.44380225 9.65462721 14.72314374 12 19 C11.30132812 19.04898438 10.60265625 19.09796875 9.8828125 19.1484375 C8.97273438 19.22320312 8.06265625 19.29796875 7.125 19.375 C5.76761719 19.47941406 5.76761719 19.47941406 4.3828125 19.5859375 C1.82058097 19.79568132 1.82058097 19.79568132 0 22 C-0.99 22 -1.98 22 -3 22 C-3.433125 20.88625 -3.86625 19.7725 -4.3125 18.625 C-5.69911119 14.82487666 -5.69911119 14.82487666 -9 13 C-8.67 11.68 -8.34 10.36 -8 9 C-6.68 8.67 -5.36 8.34 -4 8 C-3.566875 6.2984375 -3.566875 6.2984375 -3.125 4.5625 C-2.75375 3.386875 -2.3825 2.21125 -2 1 C-1.34 0.67 -0.68 0.34 0 0 Z " fill="#FA9ADD" transform="translate(176,93)"/>
<path d="M0 0 C2.1875 0.3125 2.1875 0.3125 4 1 C4.33 2.65 4.66 4.3 5 6 C6.32 6.33 7.64 6.66 9 7 C9.8125 8.6875 9.8125 8.6875 10 11 C8.35511706 12.68816933 6.68662458 14.35353315 5 16 C4.12761142 18.67790896 4.12761142 18.67790896 4 21 C-0.875 20.125 -0.875 20.125 -2 19 C-3.34747084 18.76924918 -4.70377565 18.58846937 -6.0625 18.4375 C-7.361875 18.293125 -8.66125 18.14875 -10 18 C-9.79375 16.96875 -9.5875 15.9375 -9.375 14.875 C-8.98805597 10.8765784 -9.48116924 8.66306243 -11 5 C-10 4 -10 4 -6.625 3.625 C-2.81645651 2.96835457 -2.46380131 2.58112518 0 0 Z " fill="#FA9ADE" transform="translate(79,94)"/>
<path d="M0 0 C2.96175123 0.61277612 4.38058783 1.25372522 7 3 C8.9896995 3.39013716 10.99019869 3.73202649 13 4 C12.814375 5.19625 12.62875 6.3925 12.4375 7.625 C11.9688803 11.28283707 12.18518987 14.37862166 13 18 C10.98177083 17.90234375 8.96354167 17.8046875 6.9453125 17.70703125 C5.98238281 17.85205078 5.98238281 17.85205078 5 18 C4.34 18.99 3.68 19.98 3 21 C1.68 21 0.36 21 -1 21 C-1.37125 19.3603125 -1.37125 19.3603125 -1.75 17.6875 C-3.06759999 13.80058004 -3.75641025 13.16239317 -7 11 C-7 10.01 -7 9.02 -7 8 C-6.34 8 -5.68 8 -5 8 C-4.67 7.34 -4.34 6.68 -4 6 C-3.34 5.67 -2.68 5.34 -2 5 C-1.27840576 3.35636866 -0.60648579 1.68949614 0 0 Z " fill="#FA9BDE" transform="translate(167,172)"/>
<path d="M0 0 C1.13953125 -0.03738281 2.2790625 -0.07476562 3.453125 -0.11328125 C7.39284576 0.39552155 8.95172332 1.55463165 11.75 4.3125 C13.88541873 8.09801502 13.70313751 10.17533064 12.75 14.3125 C11.64591797 14.29509766 11.64591797 14.29509766 10.51953125 14.27734375 C9.05580078 14.26380859 9.05580078 14.26380859 7.5625 14.25 C6.59957031 14.23839844 5.63664063 14.22679688 4.64453125 14.21484375 C1.89423487 14.30763378 -0.57479591 14.69138315 -3.25 15.3125 C-3.724375 14.178125 -4.19875 13.04375 -4.6875 11.875 C-5.88622083 8.55509834 -5.88622083 8.55509834 -7.25 7.3125 C-7.375 4.3125 -7.375 4.3125 -7.25 1.3125 C-5.39234332 -0.54515668 -2.49167111 0.05307371 0 0 Z " fill="#DC8EE1" transform="translate(200.25,87.6875)"/>
<path d="M0 0 C4.13266581 1.37343085 8.10582006 3.05291003 12 5 C12.33 4.01 12.66 3.02 13 2 C13.99 2.33 14.98 2.66 16 3 C16 3.66 16 4.32 16 5 C16.99 5 17.98 5 19 5 C19 5.99 19 6.98 19 8 C16.525 7.505 16.525 7.505 14 7 C14.33 8.32 14.66 9.64 15 11 C11.04180389 11.08678303 7.08385066 11.14031733 3.125 11.1875 C1.43310547 11.22520508 1.43310547 11.22520508 -0.29296875 11.26367188 C-1.90751953 11.27817383 -1.90751953 11.27817383 -3.5546875 11.29296875 C-5.04718018 11.31653442 -5.04718018 11.31653442 -6.56982422 11.34057617 C-7.37178223 11.22818604 -8.17374023 11.1157959 -9 11 C-11 8 -11 8 -10.8125 5.5 C-8.90061436 -0.38272505 -5.92292653 -0.65810295 0 0 Z " fill="#DB8CE0" transform="translate(175,117)"/>
<path d="M0 0 C3.63 0 7.26 0 11 0 C11.33 0.66 11.66 1.32 12 2 C13.84971696 3.05021103 13.84971696 3.05021103 16 4 C19.88888889 5.77777778 19.88888889 5.77777778 21 8 C21.25 11 21.25 11 21 14 C18 16 18 16 14.8125 15.9375 C8.66746104 14.42642484 4.49660966 11.78863106 0.4375 6.9375 C-1 4 -1 4 0 0 Z " fill="#DB8DE1" transform="translate(44,111)"/>
<path d="M0 0 C0.86625 0.309375 1.7325 0.61875 2.625 0.9375 C2.625 3.2475 2.625 5.5575 2.625 7.9375 C1.8825 8.185 1.14 8.4325 0.375 8.6875 C-2.47205494 9.74707478 -2.47205494 9.74707478 -4.1875 12.0625 C-6.64165227 14.16605909 -7.32422436 14.24432608 -10.4375 14.3125 C-14.375 13.9375 -14.375 13.9375 -17.375 11.9375 C-17.9375 9.25 -17.9375 9.25 -17.375 5.9375 C-12.24694938 -1.74673487 -8.84618543 -2.78491023 0 0 Z " fill="#DC8FE1" transform="translate(184.375,200.0625)"/>
<path d="M0 0 C0.86882812 0.01417969 1.73765625 0.02835937 2.6328125 0.04296875 C3.49648437 0.04941406 4.36015625 0.05585937 5.25 0.0625 C7.7578125 0.23046875 7.7578125 0.23046875 11.7578125 1.23046875 C11.4278125 6.18046875 11.0978125 11.13046875 10.7578125 16.23046875 C9.0665625 16.06546875 7.3753125 15.90046875 5.6328125 15.73046875 C1.65656597 15.36619326 -2.24553105 15.12245101 -6.2421875 15.23046875 C-6.2421875 13.91046875 -6.2421875 12.59046875 -6.2421875 11.23046875 C-5.2521875 11.23046875 -4.2621875 11.23046875 -3.2421875 11.23046875 C-3.5721875 10.57046875 -3.9021875 9.91046875 -4.2421875 9.23046875 C-4.4296875 5.73046875 -4.4296875 5.73046875 -4.2421875 2.23046875 C-2.2421875 0.23046875 -2.2421875 0.23046875 0 0 Z " fill="#DC90E1" transform="translate(98.2421875,104.76953125)"/>
<path d="M0 0 C2.86724686 0.57344937 3.8614515 0.8614515 6 3 C7.32 3.33 8.64 3.66 10 4 C10.495 10.93 10.495 10.93 11 18 C8.33333333 18.66666667 5.66666667 19.33333333 3 20 C2.25234375 20.18691406 1.5046875 20.37382812 0.734375 20.56640625 C0.16203125 20.70949219 -0.4103125 20.85257813 -1 21 C-1.37125 19.3603125 -1.37125 19.3603125 -1.75 17.6875 C-3.02002851 13.94091591 -3.65756352 12.89404734 -7 11 C-6.1875 9.0625 -6.1875 9.0625 -5 7 C-4.01 6.67 -3.02 6.34 -2 6 C-0.77479736 2.99152582 -0.77479736 2.99152582 0 0 Z " fill="#FA9BDE" transform="translate(199,135)"/>
<path d="M0 0 C-0.165 0.825 -0.33 1.65 -0.5 2.5 C-0.8909687 5.23678093 -0.98689632 7.4089712 -0.875 10.125 C-1 14 -1 14 -2 16.5 C-4.71224641 18.53418481 -6.78664361 18.62941304 -10.125 18.4453125 C-12 18 -12 18 -14 15.9375 C-15.24776118 12.27220154 -15.54069251 9.85243413 -15 6 C-13.19802483 2.68525555 -11.10373903 0.41390213 -7.5 -0.9375 C-4.83970262 -1.00400743 -2.57286841 -0.66159473 0 0 Z " fill="#DC8FE1" transform="translate(199,173)"/>
<path d="M0 0 C1.55950551 1.55950551 1.28196698 3.08877131 1.375 5.25 C1.35673874 9.09703937 1.24746873 9.72080451 -1.4375 12.75 C-2.7059375 13.86375 -2.7059375 13.86375 -4 15 C-4.87238858 17.67790896 -4.87238858 17.67790896 -5 20 C-6.32 19.67 -7.64 19.34 -9 19 C-8.67 17.68 -8.34 16.36 -8 15 C-8.78375 14.87625 -9.5675 14.7525 -10.375 14.625 C-13 14 -13 14 -15 12 C-15.06768328 8.48046934 -14.77918615 6.02720878 -12.61328125 3.171875 C-8.43154557 -0.85010898 -5.7939964 -1.73819892 0 0 Z " fill="#DC90E1" transform="translate(75,153)"/>
<path d="M0 0 C2.30441554 3.45662331 2.25860135 4.94857881 2 9 C1.67 9.66 1.34 10.32 1 11 C1.66 11 2.32 11 3 11 C3 11.99 3 12.98 3 14 C2.401875 13.79375 1.80375 13.5875 1.1875 13.375 C-1.28450846 12.69328085 -1.28450846 12.69328085 -4 15 C-7.5620149 15.55297409 -10.86676772 15.6181267 -14.0625 13.875 C-15.53939809 10.92120382 -14.9334935 9.11164502 -14 6 C-10.12087702 0.1144341 -6.97664706 -1.97166113 0 0 Z " fill="#DB8EE1" transform="translate(100,199)"/>
<path d="M0 0 C-0.20625 0.556875 -0.4125 1.11375 -0.625 1.6875 C-1.11046942 4.68122811 -0.12835436 6.212301 1 9 C1.125 12.3125 1.125 12.3125 1 15 C1.99 15.33 2.98 15.66 4 16 C4 17.65 4 19.3 4 21 C0.89377798 21.99842851 -0.89973077 21.93947552 -4 21 C-4.886875 20.835 -5.77375 20.67 -6.6875 20.5 C-9 20 -9 20 -10 19 C-10.41495875 13.33533054 -10.85152841 7.05498218 -8 2 C-5.20520208 0.71905095 -3.07491161 0 0 0 Z " fill="#DC8FE1" transform="translate(157,191)"/>
<path d="M0 0 C1.61588379 3.23176757 1.57451407 6.50615283 1 10 C-1.003201 13.00480151 -2.38111402 14.6724433 -6.0078125 15.40625 C-8.98636894 15.5381418 -11.3793544 15.34911315 -14 13.875 C-15.51152489 11.04089083 -15.4433302 9.1666443 -15 6 C-10.85720336 -0.51010901 -7.48136747 -1.69389452 0 0 Z " fill="#E09CE5" transform="translate(65,92)"/>
<path d="M0 0 C1.80959422 1.64508566 2.94112363 2.86654689 3.9375 5.125 C4.84645565 7.20721701 4.84645565 7.20721701 7.125 7.75 C7.74375 7.8325 8.3625 7.915 9 8 C8.6875 10.375 8.6875 10.375 8 13 C7.01 13.66 6.02 14.32 5 15 C3.92863949 17.30144109 2.92010283 19.6340213 2 22 C-2.20896473 20.59701176 -2.90700011 18.2225974 -4.92578125 14.43359375 C-6.34880372 11.20980103 -6.77646499 8.50204842 -7 5 C-5.68 4.67 -4.36 4.34 -3 4 C-3 3.34 -3 2.68 -3 2 C-2.01 1.34 -1.02 0.68 0 0 Z " fill="#FA9BDE" transform="translate(55,204)"/>
<path d="M0 0 C0.99 0 1.98 0 3 0 C6.02450584 7.05718029 4.32750754 13.63743897 3 21 C2.29875 20.690625 1.5975 20.38125 0.875 20.0625 C-2.44704186 18.7325501 -2.44704186 18.7325501 -8 18 C-7.67 13.38 -7.34 8.76 -7 4 C-5.35 3.34 -3.7 2.68 -2 2 C-1.34 1.34 -0.68 0.68 0 0 Z " fill="#FA9BDE" transform="translate(54,135)"/>
<path d="M0 0 C0 7.92 0 15.84 0 24 C-6 25 -6 25 -8.4375 23.625 C-10.46272069 20.22262924 -10.23863539 18.21314829 -9.61328125 14.37890625 C-8.58442877 10.38800715 -5.16179188 0 0 0 Z " fill="#DB8CE0" transform="translate(107,152)"/>
<path d="M0 0 C2.475 0.99 2.475 0.99 5 2 C5 2.66 5 3.32 5 4 C7.31 4 9.62 4 12 4 C12.33 4.99 12.66 5.98 13 7 C12.67 7.66 12.34 8.32 12 9 C11.34 9 10.68 9 10 9 C10 10.65 10 12.3 10 14 C10.66 14.33 11.32 14.66 12 15 C11.67 15.99 11.34 16.98 11 18 C9.35 18.33 7.7 18.66 6 19 C6 18.34 6 17.68 6 17 C4.35 17.66 2.7 18.32 1 19 C-0.00926479 14.84373632 -0.10239579 10.95634906 -0.0625 6.6875 C-0.05347656 5.43324219 -0.04445312 4.17898437 -0.03515625 2.88671875 C-0.01775391 1.45779297 -0.01775391 1.45779297 0 0 Z " fill="#FA95DF" transform="translate(148,129)"/>
<path d="M0 0 C-0.11517421 2.35500948 -0.24187978 4.70849073 -0.375 7.0625 C-0.44460937 8.37347656 -0.51421875 9.68445313 -0.5859375 11.03515625 C-0.99418675 14.94433543 -1.64609778 18.31130722 -3 22 C-6 24 -6 24 -8.125 23.75 C-10 23 -10 23 -11 21 C-12.09267747 13.81954808 -8.74324359 8.00194046 -5 2 C-2 0 -2 0 0 0 Z M-8 20 C-7 22 -7 22 -7 22 Z " fill="#DB8CE0" transform="translate(199,194)"/>
<path d="M0 0 C0.66 0.66 1.32 1.32 2 2 C1.9765625 4.1640625 1.9765625 4.1640625 1.625 6.625 C1.45871094 7.85089844 1.45871094 7.85089844 1.2890625 9.1015625 C1.14597656 10.04128906 1.14597656 10.04128906 1 11 C3.31 11 5.62 11 8 11 C5.375 16.75 5.375 16.75 2 19 C-0.9375 19 -0.9375 19 -4 18 C-7.07903112 14.68412033 -8 12.92392338 -8 8.375 C-6.91940196 4.72798162 -5.99093903 3.28718867 -3 1 C-2.01 0.67 -1.02 0.34 0 0 Z " fill="#DB8DE1" transform="translate(75,179)"/>
<path d="M0 0 C6.35466255 0.90780894 8.28575011 1.27245357 13 5 C15 8 15 8 14.875 10.5625 C14 13 14 13 12.4375 14.3125 C8.89342826 15.31210998 5.67781281 15.12259376 2 15 C1.34 10.05 0.68 5.1 0 0 Z " fill="#DB8CE1" transform="translate(144,96)"/>
<path d="M0 0 C0.33 0 0.66 0 1 0 C1.10655578 6.44070471 0.96205088 12.62641289 0 19 C-0.721875 18.835 -1.44375 18.67 -2.1875 18.5 C-4.86427545 18.02412881 -7.28949487 17.922557 -10 18 C-9.690625 16.205625 -9.690625 16.205625 -9.375 14.375 C-8.86418162 10.4423982 -9.43265283 7.6878757 -11 4 C-10.37351562 3.87882813 -9.74703125 3.75765625 -9.1015625 3.6328125 C-8.28429687 3.46523437 -7.46703125 3.29765625 -6.625 3.125 C-5.81289062 2.96257812 -5.00078125 2.80015625 -4.1640625 2.6328125 C-1.81326077 2.13341068 -1.81326077 2.13341068 0 0 Z " fill="#FA9CDE" transform="translate(107,129)"/>
<path d="M0 0 C2.71224618 1.61268692 5.37352812 3.24901874 8 5 C7.59683075 11.31631828 5.28767869 15.64993984 2 21 C0.68 21 -0.64 21 -2 21 C-3.409845 13.30993638 -2.23007556 7.4461845 0 0 Z " fill="#FA9BDE" transform="translate(200,204)"/>
<path d="M0 0 C0.495 0.495 0.99 0.99 1.5 1.5 C5.11630158 3.66978095 7.82231616 3.20888419 12 3 C12.24042276 7.08718695 11.42258812 10.17679443 10 14 C6.04 14 2.08 14 -2 14 C-1.125 3.375 -1.125 3.375 0 0 Z " fill="#FA9ADE" transform="translate(145,224)"/>
<path d="M0 0 C2.60739749 4.53644766 2.59301043 8.84479873 3 14 C-0.96 14 -4.92 14 -9 14 C-10 9 -10 9 -10 7 C-10.66 6.67 -11.32 6.34 -12 6 C-11.67 5.34 -11.34 4.68 -11 4 C-8.98304407 3.77227917 -6.96564452 3.5470785 -4.9453125 3.3515625 C-2.50388059 2.91033987 -1.40883499 2.0252003 0 0 Z " fill="#FA99DE" transform="translate(110,224)"/>
<path d="M0 0 C0.33 0 0.66 0 1 0 C1 7.26 1 14.52 1 22 C-0.65 22 -2.3 22 -4 22 C-6.44950621 19.55049379 -6.32271254 18.75276979 -6.375 15.375 C-6.26834179 9.24215279 -4.35059479 4.35059479 0 0 Z " fill="#DB8DE0" transform="translate(209,160)"/>
<path d="M0 0 C1.65 0.33 3.3 0.66 5 1 C5.43290439 5.41562483 5.50000327 7.34721796 2.75 10.9375 C0 13 0 13 -4 13 C-6 10 -6 10 -5.625 7.8125 C-5.41875 7.214375 -5.2125 6.61625 -5 6 C-3.68 5.67 -2.36 5.34 -1 5 C-0.67 3.35 -0.34 1.7 0 0 Z " fill="#DD92E2" transform="translate(89,220)"/>
<path d="M0 0 C2.125 0.375 2.125 0.375 4 1 C4 3.64 4 6.28 4 9 C2.34385343 9.38218767 0.67542976 9.71395102 -1 10 C-2 9 -2 9 -2.1875 5.5625 C-2 2 -2 2 0 0 Z " fill="#E3A5E7" transform="translate(198,93)"/>
<path d="M0 0 C2.0625 0.4375 2.0625 0.4375 4 1 C4 2.65 4 4.3 4 6 C2.125 6.625 2.125 6.625 0 7 C-0.66 6.34 -1.32 5.68 -2 5 C-1.46428571 1.46428571 -1.46428571 1.46428571 0 0 Z " fill="#F1D3F3" transform="translate(198,165)"/>
<path d="M0 0 C1.65 0.33 3.3 0.66 5 1 C4.67 2.65 4.34 4.3 4 6 C2.35 5.67 0.7 5.34 -1 5 C-0.67 3.35 -0.34 1.7 0 0 Z " fill="#F4DCF6" transform="translate(54,193)"/>
<path d="M0 0 C1.65 0.33 3.3 0.66 5 1 C4.67 2.65 4.34 4.3 4 6 C2.35 5.67 0.7 5.34 -1 5 C-0.67 3.35 -0.34 1.7 0 0 Z " fill="#F4DCF5" transform="translate(173,137)"/>
<path d="M0 0 C1.65 0.33 3.3 0.66 5 1 C4.67 2.65 4.34 4.3 4 6 C2.35 5.67 0.7 5.34 -1 5 C-0.67 3.35 -0.34 1.7 0 0 Z " fill="#F3DAF5" transform="translate(96,93)"/>
<path d="M0 0 C1.65 0 3.3 0 5 0 C5 1.65 5 3.3 5 5 C3.125 5.625 3.125 5.625 1 6 C0.34 5.34 -0.32 4.68 -1 4 C-0.625 1.875 -0.625 1.875 0 0 Z " fill="#DE97E3" transform="translate(159,214)"/>
<path d="M0 0 C1.65 0 3.3 0 5 0 C5 1.65 5 3.3 5 5 C3.125 5.625 3.125 5.625 1 6 C0.34 5.34 -0.32 4.68 -1 4 C-0.625 1.875 -0.625 1.875 0 0 Z " fill="#F3D9F5" transform="translate(156,207)"/>
<path d="M0 0 C1.65 0.33 3.3 0.66 5 1 C4.67 2.65 4.34 4.3 4 6 C2.35 5.67 0.7 5.34 -1 5 C-0.67 3.35 -0.34 1.7 0 0 Z " fill="#E1A0E5" transform="translate(194,172)"/>
<path d="M0 0 C1.65 0.33 3.3 0.66 5 1 C4.67 2.65 4.34 4.3 4 6 C2.35 5.67 0.7 5.34 -1 5 C-0.67 3.35 -0.34 1.7 0 0 Z " fill="#F4DDF6" transform="translate(82,151)"/>
<path d="M0 0 C1.32 0 2.64 0 4 0 C4.38218767 1.65614657 4.71395102 3.32457024 5 5 C4 6 4 6 1.4375 6.0625 C0.2309375 6.0315625 0.2309375 6.0315625 -1 6 C-0.67 4.02 -0.34 2.04 0 0 Z " fill="#DF9AE4" transform="translate(178,140)"/>
<path d="M0 0 C1.65 0.33 3.3 0.66 5 1 C4.67 2.65 4.34 4.3 4 6 C2.35 5.67 0.7 5.34 -1 5 C-0.67 3.35 -0.34 1.7 0 0 Z " fill="#F3DBF5" transform="translate(154,112)"/>
<path d="M0 0 C2.0625 0.4375 2.0625 0.4375 4 1 C3.67 2.65 3.34 4.3 3 6 C1.35 5.67 -0.3 5.34 -2 5 C-1.125 1.125 -1.125 1.125 0 0 Z " fill="#F6E2F7" transform="translate(85,225)"/>
<path d="M0 0 C1.67542976 0.28604898 3.34385343 0.61781233 5 1 C4.67 2.65 4.34 4.3 4 6 C2.68 5.67 1.36 5.34 0 5 C-0.5625 3.0625 -0.5625 3.0625 -1 1 C-0.67 0.67 -0.34 0.34 0 0 Z " fill="#F5E1F7" transform="translate(55,115)"/>
<path d="M0 0 C0.99 0.33 1.98 0.66 3 1 C3.33 2.98 3.66 4.96 4 7 C2.35 7 0.7 7 -1 7 C-1.625 4.625 -1.625 4.625 -2 2 C-1.34 1.34 -0.68 0.68 0 0 Z " fill="#DE97E3" transform="translate(92,92)"/>
<path d="M0 0 C1.32 0 2.64 0 4 0 C4 1.98 4 3.96 4 6 C2.35 6 0.7 6 -1 6 C-1.042721 4.33388095 -1.04063832 2.66617115 -1 1 C-0.67 0.67 -0.34 0.34 0 0 Z " fill="#E5ADE9" transform="translate(89,220)"/>
<path d="M0 0 C1.32 0.33 2.64 0.66 4 1 C3.67 2.65 3.34 4.3 3 6 C1.35 5.67 -0.3 5.34 -2 5 C-1.34 3.35 -0.68 1.7 0 0 Z " fill="#DF99E4" transform="translate(59,196)"/>
<path d="M0 0 C3.14624993 -0.26218749 4.61837017 -0.24754367 7.3125 1.5 C8.1478125 2.2425 8.1478125 2.2425 9 3 C4.56923077 5.09230769 4.56923077 5.09230769 1.6875 4.625 C1.130625 4.41875 0.57375 4.2125 0 4 C0 2.68 0 1.36 0 0 Z " fill="#E6B0EA" transform="translate(50,112)"/>
<path d="M0 0 C2.4375 0.8125 2.4375 0.8125 5 2 C5.33 2.99 5.66 3.98 6 5 C4.02 5.66 2.04 6.32 0 7 C0 4.69 0 2.38 0 0 Z " fill="#FAA1E1" transform="translate(59,142)"/>
<path d="M0 0 C2.0625 0.4375 2.0625 0.4375 4 1 C3.67 2.65 3.34 4.3 3 6 C1.68 6 0.36 6 -1 6 C-1.042721 4.33388095 -1.04063832 2.66617115 -1 1 C-0.67 0.67 -0.34 0.34 0 0 Z " fill="#F7E7F8" transform="translate(198,93)"/>
<path d="M0 0 C0.66 0.33 1.32 0.66 2 1 C1.67 3.97 1.34 6.94 1 10 C2.65 10 4.3 10 6 10 C5.67 10.66 5.34 11.32 5 12 C3.35 12 1.7 12 0 12 C-1.2423696 8.41093227 -0.71978657 5.67890913 0 2 C0 1.34 0 0.68 0 0 Z " fill="#FBEDF9" transform="translate(76,179)"/>
<path d="M0 0 C2.475 0.495 2.475 0.495 5 1 C5 2.32 5 3.64 5 5 C3.68 5 2.36 5 1 5 C0.67 5.66 0.34 6.32 0 7 C0 4.69 0 2.38 0 0 Z " fill="#E5AEE9" transform="translate(81,146)"/>
<path d="M0 0 C1.32 0 2.64 0 4 0 C3.67 1.98 3.34 3.96 3 6 C1.68 6 0.36 6 -1 6 C-0.67 4.02 -0.34 2.04 0 0 Z " fill="#E2A4E7" transform="translate(100,191)"/>
<path d="M0 0 C2.86724686 0.57344937 3.8614515 0.8614515 6 3 C6 3.99 6 4.98 6 6 C3.83125748 5.49396008 2.00032373 5.00016187 0 4 C0 2.68 0 1.36 0 0 Z " fill="#E8B6EB" transform="translate(155,161)"/>
<path d="M0 0 C0.99 0.33 1.98 0.66 3 1 C2.67 2.65 2.34 4.3 2 6 C0.68 6 -0.64 6 -2 6 C-2.33 5.01 -2.66 4.02 -3 3 C-2.01 2.01 -1.02 1.02 0 0 Z " fill="#DF9AE4" transform="translate(159,115)"/>
<path d="M0 0 C0.99 0 1.98 0 3 0 C3 2.31 3 4.62 3 7 C1.68 6.67 0.36 6.34 -1 6 C-0.67 4.02 -0.34 2.04 0 0 Z " fill="#E7B3EB" transform="translate(76,207)"/>
<path d="M0 0 C0.99 0.33 1.98 0.66 3 1 C3 1.66 3 2.32 3 3 C3.99 3 4.98 3 6 3 C6 3.99 6 4.98 6 6 C5.01 6 4.02 6 3 6 C3 5.34 3 4.68 3 4 C1.68 4 0.36 4 -1 4 C-0.67 2.68 -0.34 1.36 0 0 Z " fill="#E3A6E7" transform="translate(188,119)"/>
<path d="M0 0 C2.62386487 3.06117568 3 3.73173127 3 8 C1.68 8 0.36 8 -1 8 C-0.67 5.36 -0.34 2.72 0 0 Z " fill="#FBB2E6" transform="translate(78,181)"/>
<path d="M0 0 C-0.66 1.65 -1.32 3.3 -2 5 C-2.99 4.67 -3.98 4.34 -5 4 C-5 3.01 -5 2.02 -5 1 C-3 0 -3 0 0 0 Z " fill="#FB9FDC" transform="translate(197,212)"/>
</svg>
