<?xml version="1.0" encoding="UTF-8"?>
<svg version="1.1" xmlns="http://www.w3.org/2000/svg" width="256" height="256">
<path d="M0 0 C7.87797397 6.6577765 13.01808495 14.7252266 16.94140625 24.1953125 C18.17986121 27.00693998 19.56341175 29.71322229 20.97241211 32.44213867 C28.49303828 47.06010743 33.66672036 61.19099453 33.09765625 77.8203125 C34.08765625 78.1503125 35.07765625 78.4803125 36.09765625 78.8203125 C37.4140625 80.23828125 37.4140625 80.23828125 38.66015625 82.0078125 C39.07394531 82.57886719 39.48773438 83.14992188 39.9140625 83.73828125 C47.40579986 96.91681595 42.85434977 116.0265559 39.09765625 129.8203125 C33.26746764 149.86051348 25.79185051 172.11883681 7.28515625 183.7578125 C-1.40729265 188.40547749 -9.70430001 190.04699267 -19.46484375 190.1953125 C-20.15610352 190.20941162 -20.84736328 190.22351074 -21.55957031 190.23803711 C-24.44909941 190.20977153 -26.44244996 190.13300371 -28.8671875 188.484375 C-29.90234375 186.8203125 -29.90234375 186.8203125 -29.90234375 183.8203125 C-30.91296875 183.7790625 -31.92359375 183.7378125 -32.96484375 183.6953125 C-37.68755379 183.00558608 -40.94719843 180.49230001 -43.90234375 176.8203125 C-54.2506748 156.82318793 -42.07466968 125.6475124 -35.90234375 105.8203125 C-32.42625376 94.94118332 -28.6375131 84.16607129 -24.21484375 73.6328125 C-23.95380859 72.99142334 -23.69277344 72.35003418 -23.42382812 71.68920898 C-21.32243405 66.89491245 -18.56158409 64.14993267 -13.90234375 61.8203125 C-9.73969545 61.53725242 -5.70125211 61.68464882 -1.58984375 62.3828125 C1.14739186 62.82840899 2.47925725 62.49602837 5.09765625 61.8203125 C7.84765625 62.2578125 7.84765625 62.2578125 10.09765625 62.8203125 C10.63714548 55.67208015 8.89527155 50.3635722 6.09765625 43.8203125 C5.62392578 42.551875 5.62392578 42.551875 5.140625 41.2578125 C3.51266598 37.55069982 2.27541194 35.37064887 -1.46875 33.62109375 C-3.52739993 32.98497897 -5.59754195 32.38526737 -7.67578125 31.81640625 C-16.35717635 29.13631454 -23.90466604 23.18326953 -31.46484375 18.2578125 C-46.68847655 8.34959537 -58.62388424 2.30081345 -77.15234375 5.8203125 C-88.44661542 8.69715528 -98.02834553 15.17081267 -107.65234375 21.5078125 C-122.44016315 31.24399506 -122.44016315 31.24399506 -129.95703125 32.21484375 C-135.76648507 32.902669 -135.76648507 32.902669 -140.19140625 36.44628906 C-144.34971065 43.23036148 -148.09955555 50.98760448 -147.96484375 59.0703125 C-147.94421875 60.3078125 -147.92359375 61.5453125 -147.90234375 62.8203125 C-146.62359375 62.6346875 -145.34484375 62.4490625 -144.02734375 62.2578125 C-140.15234375 61.6953125 -140.15234375 61.6953125 -137.90234375 62.8203125 C-136.88140625 62.60375 -136.88140625 62.60375 -135.83984375 62.3828125 C-130.77372389 61.41270444 -125.90632835 60.97418567 -121.08984375 63.0078125 C-115.02503955 68.03293598 -112.85171905 74.31950536 -110.15234375 81.5078125 C-109.71768799 82.65612549 -109.28303223 83.80443848 -108.83520508 84.98754883 C-100.36556433 107.71418586 -93.31860823 131.0438318 -90.46484375 155.1953125 C-90.37154785 155.93773193 -90.27825195 156.68015137 -90.18212891 157.44506836 C-89.39038757 165.41774054 -90.76571379 172.50959569 -95.90234375 178.8203125 C-99.68809984 182.60606859 -102.60079217 183.40450453 -107.90234375 183.8203125 C-108.08796875 185.026875 -108.08796875 185.026875 -108.27734375 186.2578125 C-108.48359375 187.1034375 -108.68984375 187.9490625 -108.90234375 188.8203125 C-115.95961605 192.34894865 -128.82552899 190.0259156 -136.03125 187.9140625 C-151.84986739 181.88792254 -160.89610575 170.49275694 -167.75097656 155.53613281 C-175.20970552 137.94264238 -180.97868141 119.45223609 -181.27734375 100.2578125 C-181.29873413 99.14974243 -181.29873413 99.14974243 -181.32055664 98.01928711 C-181.24556705 89.90282109 -177.8912728 84.08845413 -172.90234375 77.8203125 C-172.24234375 77.8203125 -171.58234375 77.8203125 -170.90234375 77.8203125 C-170.94875 77.211875 -170.99515625 76.6034375 -171.04296875 75.9765625 C-171.74408111 58.94954799 -164.64504072 37.98206715 -153.90234375 24.8203125 C-152.41734375 24.3253125 -152.41734375 24.3253125 -150.90234375 23.8203125 C-150.76119141 22.74523437 -150.76119141 22.74523437 -150.6171875 21.6484375 C-147.36539622 8.7834272 -132.62529221 -1.55250715 -121.90234375 -8.1796875 C-81.14041618 -32.21657377 -37.52695904 -28.18309979 0 0 Z " fill="#E1222F" transform="translate(196.90234375,45.1796875)"/>
<path d="M0 0 C3.4089989 0.49558134 5.79501205 1.97256663 8.625 3.875 C9.40101562 4.38804688 10.17703125 4.90109375 10.9765625 5.4296875 C13 7 13 7 15 10 C14.44570313 10.92941406 13.89140625 11.85882813 13.3203125 12.81640625 C12.58813369 14.06486499 11.85638579 15.31357652 11.125 16.5625 C10.76019531 17.17158203 10.39539062 17.78066406 10.01953125 18.40820312 C6.90643116 23.75707509 4.65352622 29.12549737 4.875 35.4375 C4.91625 36.613125 4.9575 37.78875 5 39 C6.27875 38.814375 7.5575 38.62875 8.875 38.4375 C12.75 37.875 12.75 37.875 15 39 C15.680625 38.855625 16.36125 38.71125 17.0625 38.5625 C22.12861986 37.59239194 26.9960154 37.15387317 31.8125 39.1875 C37.8773042 44.21262348 40.0506247 50.49919286 42.75 57.6875 C43.18465576 58.83581299 43.61931152 59.98412598 44.06713867 61.16723633 C52.53677942 83.89387336 59.58373552 107.2235193 62.4375 131.375 C62.5307959 132.11741943 62.6240918 132.85983887 62.72021484 133.62475586 C63.51195618 141.59742804 62.13662996 148.68928319 57 155 C53.21424391 158.78575609 50.30155158 159.58419203 45 160 C44.814375 161.2065625 44.814375 161.2065625 44.625 162.4375 C44.41875 163.283125 44.2125 164.12875 44 165 C36.9427277 168.52863615 24.07681476 166.2056031 16.87109375 164.09375 C1.05247636 158.06761004 -7.993762 146.67244444 -14.84863281 131.71582031 C-22.30736177 114.12232988 -28.07633766 95.63192359 -28.375 76.4375 C-28.39639038 75.32942993 -28.39639038 75.32942993 -28.41821289 74.19897461 C-28.3432233 66.08250859 -24.98892905 60.26814163 -20 54 C-19.34 54 -18.68 54 -18 54 C-18.04640625 53.3915625 -18.0928125 52.783125 -18.140625 52.15625 C-18.87576825 34.30277098 -11.2525366 15.29141466 -1 1 C-0.67 0.67 -0.34 0.34 0 0 Z " fill="#F63043" transform="translate(44,69)"/>
<path d="M0 0 C7.77322404 6.569251 14.07061841 14.6851233 16.09765625 24.8203125 C15.37964844 24.913125 14.66164062 25.0059375 13.921875 25.1015625 C10.62310241 25.94108415 8.64010419 27.30485925 5.91015625 29.3203125 C1.18827114 32.77500506 1.18827114 32.77500506 -0.90234375 33.8203125 C-12.34688846 31.99648067 -21.98150949 24.43905416 -31.46484375 18.2578125 C-46.68814278 8.34930551 -58.62416315 2.30086643 -77.15234375 5.8203125 C-88.44678727 8.69719906 -98.02807423 15.1709987 -107.65234375 21.5078125 C-113.83643599 25.57724146 -119.86653349 29.37072825 -126.90234375 31.8203125 C-127.8253125 32.14386719 -128.74828125 32.46742187 -129.69921875 32.80078125 C-133.85507626 33.93158778 -136.54457892 34.53350291 -140.453125 32.48046875 C-142.74595166 30.70549819 -144.81247865 28.82741067 -146.90234375 26.8203125 C-148.22210725 25.80247063 -149.55145082 24.79646109 -150.90234375 23.8203125 C-149.39106838 12.30977684 -138.17693113 3.8053042 -129.640625 -2.9765625 C-88.94245155 -33.10288444 -39.64694283 -29.77522759 0 0 Z " fill="#CFDBED" transform="translate(196.90234375,45.1796875)"/>
<path d="M0 0 C6.0648042 5.02512348 8.2381247 11.31169286 10.9375 18.5 C11.37215576 19.64831299 11.80681152 20.79662598 12.25463867 21.97973633 C20.72427942 44.70637336 27.77123552 68.0360193 30.625 92.1875 C30.7182959 92.92991943 30.8115918 93.67233887 30.90771484 94.43725586 C31.69945618 102.40992804 30.32412996 109.50178319 25.1875 115.8125 C22.22117241 118.86122558 20.16275996 119.99055994 16.015625 120.41796875 C14.75234375 120.54816406 13.4890625 120.67835938 12.1875 120.8125 C-2.62892144 81.18950657 -14.44202608 43.18896912 -17.8125 0.8125 C-11.65883613 -1.30511068 -6.18934159 -2.61327756 0 0 Z " fill="#C6D1E2" transform="translate(75.8125,108.1875)"/>
<path d="M0 0 C0.74765625 -0.01417969 1.4953125 -0.02835937 2.265625 -0.04296875 C5.29850145 0.238383 7.89821278 1.14486681 10.75 2.1875 C10.59952269 13.93840967 9.46288657 25.34643989 7.5 36.9375 C7.30768799 38.10692139 7.11537598 39.27634277 6.91723633 40.48120117 C5.42867722 48.88707863 3.13731176 56.89526274 0.47247314 64.98419189 C-0.28878197 67.30577238 -1.03317941 69.63224717 -1.77392578 71.96044922 C-3.12232696 76.19732269 -4.48401991 80.42974836 -5.85180664 84.66040039 C-6.40929039 86.38789968 -6.96462705 88.11609333 -7.51782227 89.8449707 C-11.02811335 100.81268939 -14.79598423 111.56360186 -19.25 122.1875 C-28.16235961 121.20155719 -28.16235961 121.20155719 -31.0625 118.5625 C-31.60519531 118.09585938 -32.14789063 117.62921875 -32.70703125 117.1484375 C-39.15175104 108.95793285 -38.08809967 98.42728432 -36.95703125 88.65673828 C-33.27929319 62.4330818 -24.79243562 36.36414546 -14.5625 12 C-14.17094727 11.03791626 -14.17094727 11.03791626 -13.77148438 10.05639648 C-11.04540425 3.83688886 -6.83060015 0.05808333 0 0 Z " fill="#D0DAEC" transform="translate(187.25,106.8125)"/>
<path d="M0 0 C7.78838174 13.14289418 4.29249669 30.20831567 0.73193359 44.3125 C-4.98678233 65.31037355 -12.728878 89.25053382 -32.3125 101.0625 C-38.9728663 104.7627035 -38.9728663 104.7627035 -42 105 C-43.66796875 103.890625 -43.66796875 103.890625 -45.1875 102.25 C-45.69667969 101.71890625 -46.20585937 101.1878125 -46.73046875 100.640625 C-50.07414013 96.31957276 -49.79945901 90.45006612 -49.34667969 85.24560547 C-45.51804495 60.44575877 -30.72992177 18.48372036 -10.515625 2.09375 C-7.04516436 -0.41070613 -4.20511695 -0.07787254 0 0 Z " fill="#F62E42" transform="translate(236,128)"/>
<path d="M0 0 C3.4089989 0.49558134 5.79501205 1.97256663 8.625 3.875 C9.40101562 4.38804688 10.17703125 4.90109375 10.9765625 5.4296875 C13 7 13 7 15 10 C14.44570313 10.92941406 13.89140625 11.85882813 13.3203125 12.81640625 C12.58813369 14.06486499 11.85638579 15.31357652 11.125 16.5625 C10.76019531 17.17158203 10.39539062 17.78066406 10.01953125 18.40820312 C6.90643116 23.75707509 4.65352622 29.12549737 4.875 35.4375 C4.91625 36.613125 4.9575 37.78875 5 39 C6.299375 38.814375 7.59875 38.62875 8.9375 38.4375 C11.15234375 38.12109375 11.15234375 38.12109375 13 38 C14 39 14 39 14.09765625 41.06640625 C14.08605469 41.89011719 14.07445312 42.71382812 14.0625 43.5625 C14.05347656 44.38878906 14.04445312 45.21507812 14.03515625 46.06640625 C14.02355469 46.70449219 14.01195312 47.34257813 14 48 C13.443125 48.20753906 12.88625 48.41507813 12.3125 48.62890625 C1.56325477 52.96855086 -3.53621248 59.05766177 -8.5546875 69.3046875 C-15.11389069 86.07497457 -14.12715422 107.55590607 -7.15429688 123.99365234 C-1.49625722 136.79031209 4.81796786 148.8655552 18 155 C25.73835097 157.57945032 34.29580612 156.0544517 42 154 C45.05023923 159.24641148 45.05023923 159.24641148 44.8125 162.8125 C44 165 44 165 42 166 C26.01409838 166.99196526 12.14256883 164.66344421 -0.4375 153.91796875 C-18.95111004 135.05080019 -27.97477273 102.15929588 -28.375 76.4375 C-28.39639038 75.32942993 -28.39639038 75.32942993 -28.41821289 74.19897461 C-28.3432233 66.08250859 -24.98892905 60.26814163 -20 54 C-19.34 54 -18.68 54 -18 54 C-18.04640625 53.3915625 -18.0928125 52.783125 -18.140625 52.15625 C-18.87576825 34.30277098 -11.2525366 15.29141466 -1 1 C-0.67 0.67 -0.34 0.34 0 0 Z " fill="#E2212E" transform="translate(44,69)"/>
<path d="M0 0 C0.88131592 0.00563965 1.76263184 0.0112793 2.6706543 0.01708984 C9.25053165 0.13973774 14.95561077 0.93070387 21.125 3.3125 C22.29160156 3.73789062 23.45820313 4.16328125 24.66015625 4.6015625 C40.87239465 10.67646448 55.19003504 19.57313389 68.8125 30.1875 C69.42536865 30.66413086 70.0382373 31.14076172 70.66967773 31.63183594 C75.00008186 35.06266372 75.00008186 35.06266372 76.125 37.3125 C69.25828815 43.33331257 69.25828815 43.33331257 64.72265625 43.2890625 C54.44101617 40.4561957 45.40055957 33.51065132 36.5625 27.75 C21.33920097 17.84149301 9.4031806 11.79305393 -9.125 15.3125 C-20.41944352 18.18938656 -30.00073048 24.6631862 -39.625 31 C-58.73858227 43.5776528 -58.73858227 43.5776528 -69.875 43.3125 C-72.65694461 41.98597429 -73.81639745 40.70492999 -75.875 38.3125 C-75.875 37.9825 -75.875 37.6525 -75.875 37.3125 C-74.658125 37.02375 -73.44125 36.735 -72.1875 36.4375 C-65.70342912 34.27614304 -60.78889813 29.92931848 -55.56445312 25.68408203 C-38.91461827 12.16691842 -22.27462383 -0.15034458 0 0 Z " fill="#A5C0DD" transform="translate(128.875,35.6875)"/>
<path d="M0 0 C3.52827919 7.05655837 0.38491265 17.56923117 -1.1875 24.875 C-1.5280542 26.50683228 -1.5280542 26.50683228 -1.87548828 28.17163086 C-2.56766429 31.45145448 -3.27941469 34.72631073 -4 38 C-4.20286621 38.92731934 -4.40573242 39.85463867 -4.61474609 40.81005859 C-7.32176295 53.03347221 -10.64770214 65.03728585 -14.2421875 77.02734375 C-15.42350679 80.98250401 -16.52923436 84.94707911 -17.5703125 88.94140625 C-17.82240479 89.88822266 -18.07449707 90.83503906 -18.33422852 91.81054688 C-18.80318119 93.58260003 -19.25795395 95.35849772 -19.69506836 97.13867188 C-21.21591714 102.79647968 -23.47785203 107.13813437 -28 111 C-28.66 111 -29.32 111 -30 111 C-40.62937288 88.84838692 -24.27261182 51.07644109 -17 29.9375 C-14.60066698 23.12204544 -12.042608 16.38812609 -9.1875 9.75 C-8.77081055 8.7753479 -8.77081055 8.7753479 -8.34570312 7.78100586 C-4.86915098 0 -4.86915098 0 0 0 Z " fill="#EEF4FB" transform="translate(182,109)"/>
<path d="M0 0 C5.94542333 3.51656478 7.47420966 9.03683048 9.8125 15.1875 C10.24264404 16.29520752 10.67278809 17.40291504 11.1159668 18.54418945 C18.29971723 37.32970347 24.00108056 56.29195639 28 76 C28.24621094 77.134375 28.49242188 78.26875 28.74609375 79.4375 C30.2098785 86.8674695 32.49455031 100.01089937 29 107 C25.34618209 106.45605821 25.34618209 106.45605821 23.83081055 104.4597168 C23.51926025 103.79625244 23.20770996 103.13278809 22.88671875 102.44921875 C22.52940674 101.69866211 22.17209473 100.94810547 21.80395508 100.17480469 C21.4355249 99.35399414 21.06709473 98.53318359 20.6875 97.6875 C20.29651123 96.83446289 19.90552246 95.98142578 19.50268555 95.10253906 C9.51165725 72.84414874 3.10855859 49.17492578 0 25 C-0.13148437 24.0409375 -0.26296875 23.081875 -0.3984375 22.09375 C-1.23673657 15.11547669 -1.33176726 8.01590169 -1 1 C-0.67 0.67 -0.34 0.34 0 0 Z " fill="#EEF4FA" transform="translate(75,110)"/>
<path d="M0 0 C6.81804721 2.8933167 9.89115346 13.65454128 12.50732422 20.11352539 C16.5732591 30.6009832 19.9720842 41.47536038 18.98828125 52.84375 C15.17205914 52.39478269 12.94762228 51.18727836 9.875 48.9453125 C6.59500324 47.03028334 2.91378451 46.1203805 -0.71875 45.06640625 C-3.01171875 43.84375 -3.01171875 43.84375 -3.84765625 41.44140625 C-4.01171875 38.84375 -4.01171875 38.84375 -3.82421875 35.21875 C-3.73470202 25.67626641 -9.37115062 16.84099574 -14.01171875 8.84375 C-12.57523611 7.71745125 -11.1374929 6.5927601 -9.69921875 5.46875 C-8.89871094 4.84226562 -8.09820312 4.21578125 -7.2734375 3.5703125 C-2.35670858 -0.18304533 -2.35670858 -0.18304533 0 0 Z " fill="#1A3661" transform="translate(211.01171875,69.15625)"/>
<path d="M0 0 C3.4089989 0.49558134 5.79501205 1.97256663 8.625 3.875 C9.40101562 4.38804688 10.17703125 4.90109375 10.9765625 5.4296875 C13 7 13 7 15 10 C14.44570313 10.92941406 13.89140625 11.85882813 13.3203125 12.81640625 C12.58813369 14.06486499 11.85638579 15.31357652 11.125 16.5625 C10.76019531 17.17158203 10.39539063 17.78066406 10.01953125 18.40820312 C6.43275981 24.5709286 4.71312135 30.2339 4.875 37.4375 C4.90207031 39.01337891 4.90207031 39.01337891 4.9296875 40.62109375 C4.95289062 41.40613281 4.97609375 42.19117188 5 43 C4.443125 43.24234375 3.88625 43.4846875 3.3125 43.734375 C-6.12432264 47.8398232 -6.12432264 47.8398232 -15 53 C-15.99 53 -16.98 53 -18 53 C-19.54653092 35.12897604 -11.19504739 15.21127818 -1 1 C-0.67 0.67 -0.34 0.34 0 0 Z " fill="#193661" transform="translate(44,69)"/>
<path d="M0 0 C7.51467876 6.30112815 11.31926983 19.05944411 14 28.1875 C14.20737793 28.89342285 14.41475586 29.5993457 14.62841797 30.32666016 C15.62943523 33.95917257 16.23421748 37.23056245 16 41 C9.1679269 39.78540923 4.43465179 33.953031 0.625 28.5 C-3.9420049 21.11584805 -5.04651335 13.59114446 -4 5 C-2 1.75 -2 1.75 0 0 Z " fill="#095BA3" transform="translate(213,71)"/>
<path d="M0 0 C6.47776855 5.24390788 7.42684054 15.32383749 9.1875 22.9375 C9.79536801 25.51990016 10.40450457 28.10196486 11.015625 30.68359375 C11.17344955 31.35268768 11.33127411 32.02178162 11.49388123 32.71115112 C12.69239476 37.76926232 13.95062364 42.81055963 15.234375 47.84765625 C15.4187764 48.5733934 15.6031778 49.29913055 15.79316711 50.04685974 C16.5183765 52.8991981 17.24397877 55.75137352 17.9805603 58.60079956 C18.49092393 60.5763315 18.99409603 62.55357846 19.49609375 64.53125 C19.78669678 65.66111328 20.0772998 66.79097656 20.37670898 67.95507812 C20.94769301 70.74446815 21.12712672 73.16556937 21 76 C18 75 18 75 16.640625 72.68359375 C6.84086682 49.80831553 0.77592933 24.90733152 0 0 Z " fill="#A8C2DE" transform="translate(81,127)"/>
<path d="M0 0 C0.33 0 0.66 0 1 0 C0.55659013 24.79064246 -5.15998178 54.55293659 -18 76 C-18.66 76 -19.32 76 -20 76 C-19.43385546 69.91357072 -18.46660237 64.22698268 -16.890625 58.328125 C-16.6834787 57.53118225 -16.4763324 56.7342395 -16.26290894 55.91314697 C-15.59761525 53.35724279 -14.92402058 50.8036152 -14.25 48.25 C-13.33281921 44.74560133 -12.41968558 41.24015816 -11.5078125 37.734375 C-11.2858017 36.88270752 -11.06379089 36.03104004 -10.83505249 35.15356445 C-8.93757597 27.84033473 -7.17339233 20.49767605 -5.62207031 13.10253906 C-4.50946807 8.10804316 -2.7290108 4.33901299 0 0 Z " fill="#A8C2DE" transform="translate(174,127)"/>
<path d="M0 0 C2.64 1.98 5.28 3.96 8 6 C7.44570313 7.00160156 6.89140625 8.00320312 6.3203125 9.03515625 C5.58817672 10.37740517 4.85642638 11.71986438 4.125 13.0625 C3.76019531 13.71927734 3.39539063 14.37605469 3.01953125 15.05273438 C-0.19436001 20.98382461 -2.31276378 26.58412199 -2.125 33.4375 C-2.09792969 34.73494141 -2.09792969 34.73494141 -2.0703125 36.05859375 C-2.04710937 36.69925781 -2.02390625 37.33992188 -2 38 C-5.5631301 38.17935219 -6.69769151 38.20611943 -9.75 36.125 C-13.09807704 32.96292724 -13.22409834 31.00383429 -13.375 26.5 C-13.2428735 15.42779925 -6.95280195 8.10872684 0 0 Z " fill="#095CA3" transform="translate(51,72)"/>
<path d="M0 0 C2.4375 0.375 2.4375 0.375 5 1 C6.84142662 4.68285324 6.36956872 8.97170091 6 13 C4.5 16.625 4.5 16.625 3 19 C1.68 19 0.36 19 -1 19 C-2.4097034 16.1805932 -2.16984647 13.76732774 -2.1875 10.625 C-2.20167969 9.48289063 -2.21585938 8.34078125 -2.23046875 7.1640625 C-2.01170034 4.16063184 -1.57080637 2.52074066 0 0 Z " fill="#E2212E" transform="translate(213,177)"/>
<path d="M0 0 C3.0074041 0.32222187 4.00776762 1.00776762 6.1875 3.1875 C8.14856712 6.23053519 8.66761076 8.42681564 9 12 C7.02 12.99 7.02 12.99 5 14 C1.66988653 11.18221168 0.14734451 9.62095188 -0.875 5.3125 C-1 2 -1 2 0 0 Z " fill="#E3212F" transform="translate(49,182)"/>
<path d="M0 0 C3.532196 0.19623311 4.97883141 0.98268025 7.75 3.25 C10.0180963 6.02211769 10.69918829 7.49053006 11 11 C6.59124045 10.49614177 4.17449034 9.0886933 1 6 C-0.3125 3.25 -0.3125 3.25 -1 1 C-0.67 0.67 -0.34 0.34 0 0 Z " fill="#A8C2DE" transform="translate(177,41)"/>
<path d="M0 0 C1.98 0.495 1.98 0.495 4 1 C3.67 3.97 3.34 6.94 3 10 C1.68 10 0.36 10 -1 10 C-1.02689216 8.52093108 -1.04634621 7.04172517 -1.0625 5.5625 C-1.07410156 4.73878906 -1.08570313 3.91507813 -1.09765625 3.06640625 C-1 1 -1 1 0 0 Z " fill="#E3222F" transform="translate(222,157)"/>
<path d="M0 0 C1.98 0.99 1.98 0.99 4 2 C3.67 3.32 3.34 4.64 3 6 C2.01 5.34 1.02 4.68 0 4 C0 2.68 0 1.36 0 0 Z " fill="#E42230" transform="translate(51,169)"/>
</svg>
