<?xml version="1.0" encoding="UTF-8"?>
<svg version="1.1" xmlns="http://www.w3.org/2000/svg" width="256" height="256">
<path d="M0 0 C0.82242188 -0.02578125 1.64484375 -0.0515625 2.4921875 -0.078125 C7.32049966 0.5236231 10.32607924 2.36953071 13.57421875 5.94921875 C14.31285156 6.93535156 15.05148438 7.92148437 15.8125 8.9375 C17.96499806 11.89136909 17.96499806 11.89136909 20.125 14.25 C23.07851388 14.25 26.02745754 14.19795188 28.98046875 14.14453125 C61.14826365 13.70442185 89.27428273 20.55114107 113.125 43.25 C129.57459551 59.52433345 140.17892823 81.96840763 141.125 105.25 C141.16496094 106.20648438 141.20492187 107.16296875 141.24609375 108.1484375 C141.81169249 135.62988206 132.63275027 161.62667929 113.72265625 181.74169922 C96.66523756 199.1747047 72.70050984 210.1590898 48.23266602 210.49169922 C20.67666426 210.56838777 -3.22347179 202.85238432 -23.875 184.25 C-25.04482422 183.20392578 -25.04482422 183.20392578 -26.23828125 182.13671875 C-41.38884651 167.82349043 -52.66794677 146.37718923 -54.06787109 125.35351562 C-54.79617331 96.45095245 -49.82426647 73.38765276 -33.875 49.25 C-33.5145459 48.68958008 -33.1540918 48.12916016 -32.78271484 47.55175781 C-31.84027439 46.10008522 -30.8607174 44.67264139 -29.875 43.25 C-29.545 43.25 -29.215 43.25 -28.875 43.25 C-29.40202691 38.46210908 -29.40202691 38.46210908 -30.9375 33.9375 C-32.76401331 28.70149518 -32.55499128 23.28997385 -30.8125 18.0625 C-24.95443113 9.55885163 -16.66791215 3.78451722 -6.78515625 0.5703125 C-4.50443322 0.18785997 -2.31294202 0.04323256 0 0 Z M-6.875 8.25 C-7.205 8.91 -7.535 9.57 -7.875 10.25 C-7.08996094 10.20359375 -6.30492187 10.1571875 -5.49609375 10.109375 C1.37504061 9.87331149 5.52319012 10.17595645 11.125 14.25 C10.80277813 11.2425959 10.11723238 10.24223238 7.9375 8.0625 C2.34277751 4.45701218 -1.28285676 4.73865425 -6.875 8.25 Z M22.125 18.25 C23.125 20.25 23.125 20.25 23.125 20.25 Z M16.125 19.25 C15.795 19.91 15.465 20.57 15.125 21.25 C16.115 20.92 17.105 20.59 18.125 20.25 C17.465 19.92 16.805 19.59 16.125 19.25 Z M18.125 20.25 C22.125 21.25 22.125 21.25 22.125 21.25 Z M14.125 21.25 C15.125 23.25 15.125 23.25 15.125 23.25 Z M13.125 23.25 C14.125 25.25 14.125 25.25 14.125 25.25 Z M8.125 24.25 C7.465 24.91 6.805 25.57 6.125 26.25 C8.435 26.25 10.745 26.25 13.125 26.25 C10.74337991 24.83614089 10.74337991 24.83614089 8.125 24.25 Z M5.125 26.25 C6.125 28.25 6.125 28.25 6.125 28.25 Z M4.125 28.25 C5.125 30.25 5.125 30.25 5.125 30.25 Z M-2.875 30.25 C-2.875 30.58 -2.875 30.91 -2.875 31.25 C-0.565 31.25 1.745 31.25 4.125 31.25 C4.125 30.92 4.125 30.59 4.125 30.25 C1.815 30.25 -0.495 30.25 -2.875 30.25 Z M-4.875 33.25 C-3.875 35.25 -3.875 35.25 -3.875 35.25 Z M-11.875 35.25 C-11.875 35.58 -11.875 35.91 -11.875 36.25 C-9.895 36.25 -7.915 36.25 -5.875 36.25 C-5.875 35.92 -5.875 35.59 -5.875 35.25 C-7.855 35.25 -9.835 35.25 -11.875 35.25 Z M-20.875 40.25 C-20.875 40.58 -20.875 40.91 -20.875 41.25 C-18.895 41.25 -16.915 41.25 -14.875 41.25 C-14.875 40.92 -14.875 40.59 -14.875 40.25 C-16.855 40.25 -18.835 40.25 -20.875 40.25 Z M-22.875 42.25 C-21.875 44.25 -21.875 44.25 -21.875 44.25 Z " fill="#41B3B4" transform="translate(83.875,27.75)"/>
<path d="M0 0 C0.82242188 -0.02578125 1.64484375 -0.0515625 2.4921875 -0.078125 C7.32049966 0.5236231 10.32607924 2.36953071 13.57421875 5.94921875 C14.31285156 6.93535156 15.05148438 7.92148437 15.8125 8.9375 C17.96499806 11.89136909 17.96499806 11.89136909 20.125 14.25 C23.07851388 14.25 26.02745754 14.19795188 28.98046875 14.14453125 C61.14826365 13.70442185 89.27428273 20.55114107 113.125 43.25 C129.57459551 59.52433345 140.17892823 81.96840763 141.125 105.25 C141.16496094 106.20648438 141.20492187 107.16296875 141.24609375 108.1484375 C141.81169249 135.62988206 132.63275027 161.62667929 113.72265625 181.74169922 C96.66523756 199.1747047 72.70050984 210.1590898 48.23266602 210.49169922 C20.67666426 210.56838777 -3.22347179 202.85238432 -23.875 184.25 C-25.04482422 183.20392578 -25.04482422 183.20392578 -26.23828125 182.13671875 C-41.38884651 167.82349043 -52.66794677 146.37718923 -54.06787109 125.35351562 C-54.79617331 96.45095245 -49.82426647 73.38765276 -33.875 49.25 C-33.5145459 48.68958008 -33.1540918 48.12916016 -32.78271484 47.55175781 C-31.84027439 46.10008522 -30.8607174 44.67264139 -29.875 43.25 C-29.545 43.25 -29.215 43.25 -28.875 43.25 C-29.40202691 38.46210908 -29.40202691 38.46210908 -30.9375 33.9375 C-32.76401331 28.70149518 -32.55499128 23.28997385 -30.8125 18.0625 C-24.95443113 9.55885163 -16.66791215 3.78451722 -6.78515625 0.5703125 C-4.50443322 0.18785997 -2.31294202 0.04323256 0 0 Z M-6.875 8.25 C-7.205 8.91 -7.535 9.57 -7.875 10.25 C-7.08996094 10.20359375 -6.30492187 10.1571875 -5.49609375 10.109375 C1.37504061 9.87331149 5.52319012 10.17595645 11.125 14.25 C10.80277813 11.2425959 10.11723238 10.24223238 7.9375 8.0625 C2.34277751 4.45701218 -1.28285676 4.73865425 -6.875 8.25 Z M22.125 18.25 C23.125 20.25 23.125 20.25 23.125 20.25 Z M16.125 19.25 C15.795 19.91 15.465 20.57 15.125 21.25 C16.115 20.92 17.105 20.59 18.125 20.25 C17.465 19.92 16.805 19.59 16.125 19.25 Z M18.125 20.25 C22.125 21.25 22.125 21.25 22.125 21.25 Z M14.125 21.25 C15.125 23.25 15.125 23.25 15.125 23.25 Z M13.125 23.25 C14.125 25.25 14.125 25.25 14.125 25.25 Z M8.125 24.25 C7.465 24.91 6.805 25.57 6.125 26.25 C8.435 26.25 10.745 26.25 13.125 26.25 C10.74337991 24.83614089 10.74337991 24.83614089 8.125 24.25 Z M5.125 26.25 C6.125 28.25 6.125 28.25 6.125 28.25 Z M-24.6875 57.25 C-41.30752551 77.21823453 -45.74092458 100.89115623 -43.875 126.25 C-43.15346587 131.79584565 -41.70766459 136.9630038 -39.875 142.25 C-39.524375 143.28769531 -39.17375 144.32539063 -38.8125 145.39453125 C-30.42968409 167.60317202 -13.17808788 184.90161999 8.28515625 194.69140625 C27.2780729 202.42242336 48.34827521 204.19500333 68.125 198.25 C69.28128906 197.9096875 70.43757813 197.569375 71.62890625 197.21875 C84.7986371 192.9396717 95.2592445 185.85515063 105.125 176.25 C105.99125 175.445625 106.8575 174.64125 107.75 173.8125 C125.26933784 154.91005654 131.99861381 132.55072544 131.49609375 107.18359375 C130.48723116 84.94912392 119.39540137 63.44308147 103.40625 48.18359375 C63.72343897 14.5483344 9.87422121 19.77620472 -24.6875 57.25 Z M4.125 28.25 C5.125 30.25 5.125 30.25 5.125 30.25 Z M-2.875 30.25 C-2.875 30.58 -2.875 30.91 -2.875 31.25 C-0.565 31.25 1.745 31.25 4.125 31.25 C4.125 30.92 4.125 30.59 4.125 30.25 C1.815 30.25 -0.495 30.25 -2.875 30.25 Z M-4.875 33.25 C-3.875 35.25 -3.875 35.25 -3.875 35.25 Z M-11.875 35.25 C-11.875 35.58 -11.875 35.91 -11.875 36.25 C-9.895 36.25 -7.915 36.25 -5.875 36.25 C-5.875 35.92 -5.875 35.59 -5.875 35.25 C-7.855 35.25 -9.835 35.25 -11.875 35.25 Z M-20.875 40.25 C-20.875 40.58 -20.875 40.91 -20.875 41.25 C-18.895 41.25 -16.915 41.25 -14.875 41.25 C-14.875 40.92 -14.875 40.59 -14.875 40.25 C-16.855 40.25 -18.835 40.25 -20.875 40.25 Z M-22.875 42.25 C-21.875 44.25 -21.875 44.25 -21.875 44.25 Z " fill="#41D8D8" transform="translate(83.875,27.75)"/>
<path d="M0 0 C1.70149825 1.63109143 3.3777546 3.29006566 5 5 C3.88625 5.1959375 2.7725 5.391875 1.625 5.59375 C-18.50964657 9.4234202 -34.93893646 17.92509942 -47 35 C-47.41217773 35.8453833 -47.82435547 36.6907666 -48.24902344 37.56176758 C-50 40 -50 40 -52.59692383 40.94726562 C-54.136427 41.17446289 -54.136427 41.17446289 -55.70703125 41.40625 C-56.84422607 41.58961914 -57.9814209 41.77298828 -59.15307617 41.96191406 C-60.36068604 42.13948242 -61.5682959 42.31705078 -62.8125 42.5 C-81.41785796 45.61449964 -103.4213366 51.5561966 -116 67 C-116 67.99 -116 68.98 -116 70 C-114.84371094 69.02546875 -114.84371094 69.02546875 -113.6640625 68.03125 C-112.66117188 67.1959375 -111.65828125 66.360625 -110.625 65.5 C-109.62726563 64.6646875 -108.62953125 63.829375 -107.6015625 62.96875 C-105 61 -105 61 -103 61 C-103.62882096 67.53973799 -103.62882096 67.53973799 -105.5625 69.9375 C-107.87845368 73.26039006 -107.31698121 76.00603679 -107 80 C-106.34 80.99 -105.68 81.98 -105 83 C-104.52345299 86.73295155 -104.49949754 88.34416919 -106.8125 91.375 C-109 93 -109 93 -112 93 C-112 94.32 -112 95.64 -112 97 C-111.071875 96.505 -111.071875 96.505 -110.125 96 C-104.30347068 94.13711062 -99.00384043 93.99807978 -93.5 96.75 C-89.76447876 100.11196911 -89.76447876 100.11196911 -89 103 C-89.15763688 106.78328519 -89.55988662 108.49320277 -92.0625 111.375 C-92.701875 111.91125 -93.34125 112.4475 -94 113 C-92.35 113.33 -90.7 113.66 -89 114 C-88.67 115.32 -88.34 116.64 -88 118 C-91.3131396 119.04127245 -92.60198308 119.18574123 -95.8125 117.6875 C-96.534375 117.130625 -97.25625 116.57375 -98 116 C-98 115.34 -98 114.68 -98 114 C-98.99 114.33 -99.98 114.66 -101 115 C-106.69818352 115.53756448 -109.55134467 114.60129241 -114 111 C-115.44414385 108.11171229 -114.97280874 105.46958511 -114.83984375 102.2890625 C-115.0214824 99.69295882 -115.57118695 98.16735493 -117 96 C-119.51948778 95.26259783 -119.51948778 95.26259783 -122 95 C-123 94 -123 94 -123.1875 91.125 C-123 88 -123 88 -121 85 C-122.32 82.36 -123.64 79.72 -125 77 C-127.475 81.455 -127.475 81.455 -130 86 C-130.66 85.67 -131.32 85.34 -132 85 C-136.21555049 63.81345915 -131.50948737 41.14180494 -119.77001953 23.11083984 C-117.05769146 19.21650995 -114.10427511 15.58739077 -111 12 C-110.42765625 11.32710937 -109.8553125 10.65421875 -109.265625 9.9609375 C-81.61037404 -20.02173557 -32.65949465 -23.15673204 0 0 Z " fill="#42CDCE" transform="translate(176,72)"/>
<path d="M0 0 C1.35917857 0.96457834 2.69084721 1.96854629 4 3 C6.30002338 4.10261425 8.63281736 5.04402239 11 6 C11 6.66 11 7.32 11 8 C10.67 8.33 10.34 8.66 10 9 C11.36125 8.2575 11.36125 8.2575 12.75 7.5 C18.59778788 5.02091751 25.3003096 4.92295197 31.375 6.69140625 C36.13703586 8.846949 39.26404835 11.55407856 42 16 C42.72766232 20.16752056 42.9681478 22.36184264 40.8203125 25.99609375 C37.91368824 29.61807891 35.49580564 31.5992297 31 33 C25.38476343 33.55580216 18.95468948 33.88063342 14 31 C8.71566156 25.16900586 6.61357418 18.57247532 5 11 C4.505 11.721875 4.01 12.44375 3.5 13.1875 C-0.18681021 17.33516149 -4.35949363 20.72494725 -10 21.3125 C-10.66 21.209375 -11.32 21.10625 -12 21 C-11.979375 21.78375 -11.95875 22.5675 -11.9375 23.375 C-12 26 -12 26 -13 28 C-12.67240066 30.33414529 -12.33926947 32.66752239 -12 35 C-13 36 -13 36 -15.9375 36.25 C-16.948125 36.1675 -17.95875 36.085 -19 36 C-21 33 -21 33 -20.625 31 C-20.41875 30.34 -20.2125 29.68 -20 29 C-20 25.2977313 -20.77427376 22.49331978 -22 19 C-22.70125 18.34 -23.4025 17.68 -24.125 17 C-26 15 -26 15 -26.375 11.375 C-26 8 -26 8 -24 6 C-22.04660577 5.82630168 -20.08557296 5.73303898 -18.125 5.6875 C-13.19886908 5.47143572 -13.19886908 5.47143572 -9.375 2.5 C-8.92125 1.675 -8.4675 0.85 -8 0 C-5.05854616 -1.47072692 -3.14695372 -0.75526889 0 0 Z " fill="#5BBDBF" transform="translate(138,141)"/>
<path d="M0 0 C-0.57541531 4.93898141 -2.84372083 8.57201325 -5.25 12.8125 C-11.2646356 23.80233714 -15.66471429 35.32010412 -16 48 C-12.85468411 48 -11.36401994 45.97917948 -9 44 C-4.22222222 40 -4.22222222 40 -2 40 C-2.62882096 46.53973799 -2.62882096 46.53973799 -4.5625 48.9375 C-6.87845368 52.26039006 -6.31698121 55.00603679 -6 59 C-5.34 59.99 -4.68 60.98 -4 62 C-3.52345299 65.73295155 -3.49949754 67.34416919 -5.8125 70.375 C-8 72 -8 72 -11 72 C-11 73.32 -11 74.64 -11 76 C-10.071875 75.505 -10.071875 75.505 -9.125 75 C-3.30347068 73.13711062 1.99615957 72.99807978 7.5 75.75 C11.23552124 79.11196911 11.23552124 79.11196911 12 82 C11.84236312 85.78328519 11.44011338 87.49320277 8.9375 90.375 C8.298125 90.91125 7.65875 91.4475 7 92 C8.65 92.33 10.3 92.66 12 93 C12.33 94.32 12.66 95.64 13 97 C9.6868604 98.04127245 8.39801692 98.18574123 5.1875 96.6875 C4.465625 96.130625 3.74375 95.57375 3 95 C3 94.34 3 93.68 3 93 C1.515 93.495 1.515 93.495 0 94 C-5.69818352 94.53756448 -8.55134467 93.60129241 -13 90 C-14.44414385 87.11171229 -13.97280874 84.46958511 -13.83984375 81.2890625 C-14.0214824 78.69295882 -14.57118695 77.16735493 -16 75 C-18.51948778 74.26259783 -18.51948778 74.26259783 -21 74 C-22 73 -22 73 -22.1875 70.125 C-22 67 -22 67 -20 64 C-21.15627867 60.92332374 -21.15627867 60.92332374 -22.17578125 59.01171875 C-26.89231722 47.49979445 -24.2103643 33.06706926 -19.78125 21.9375 C-16.69998291 15.22718501 -8.67190946 0 0 0 Z " fill="#5ABCBE" transform="translate(75,93)"/>
<path d="M0 0 C-0.61277612 2.96175123 -1.25372522 4.38058783 -3 7 C-1.99582031 6.95359375 -0.99164063 6.9071875 0.04296875 6.859375 C8.93250939 6.57441183 17.98376914 6.58727986 26 11 C27.1875 13.40234375 27.1875 13.40234375 28 16 C28.84754647 17.30984455 29.72218859 18.60261667 30.625 19.875 C33.07098364 23.72905732 33.78495305 26.37749871 33 31 C31.5625 33.9375 31.5625 33.9375 29 36 C24.90519855 37.08102758 21.47840321 36.70094576 17.66015625 34.890625 C11.51783571 30.98473912 4.82543251 25.90661281 2 19 C2 18.01 2 17.02 2 16 C0.35 16.33 -1.3 16.66 -3 17 C-2.67 17.66 -2.34 18.32 -2 19 C-1.5625 21.8125 -1.5625 21.8125 -2 25 C-5.16750237 28.55378315 -6.77901647 29.75580329 -11.4375 30.6875 C-16.10458533 29.78683441 -19.01041929 27.68208246 -22 24 C-22.6953125 21.796875 -22.6953125 21.796875 -23 20 C-24.32 20.33 -25.64 20.66 -27 21 C-27.33 19.68 -27.66 18.36 -28 17 C-26.68 17 -25.36 17 -24 17 C-24.01160156 16.30132812 -24.02320313 15.60265625 -24.03515625 14.8828125 C-24.04417969 13.97273438 -24.05320313 13.06265625 -24.0625 12.125 C-24.07410156 11.22007813 -24.08570313 10.31515625 -24.09765625 9.3828125 C-24 7 -24 7 -23 5 C-20.39261125 4.21925648 -17.83498475 3.54667628 -15.1875 2.9375 C-14.46240234 2.76412109 -13.73730469 2.59074219 -12.99023438 2.41210938 C-10.99486023 1.93562936 -8.99749732 1.46749937 -7 1 C-5.98353394 0.72458374 -5.98353394 0.72458374 -4.9465332 0.44360352 C-3 0 -3 0 0 0 Z " fill="#5CBDBF" transform="translate(156,109)"/>
<path d="M0 0 C1.92392954 1.77593496 2.82298569 3.60715246 3.890625 5.9765625 C5.78391047 10.39736116 5.78391047 10.39736116 9.375 13.375 C10.24125 13.58125 11.1075 13.7875 12 14 C15.09059137 14.86536558 17.43096527 15.54110103 19.9375 17.5625 C21.62332251 21.42997517 21.09936557 24.98620891 20 29 C17.75410675 31.99452434 16.55130633 32.81623122 13 34 C13 35.65 13 37.3 13 39 C13.99 38.505 13.99 38.505 15 38 C16.91612086 37.922552 18.83296839 37.86257172 20.75 37.8125 C25.14619359 37.57768276 25.14619359 37.57768276 28.9140625 35.56640625 C29.39617187 35.00824219 29.87828125 34.45007813 30.375 33.875 C31.24125 32.92625 32.1075 31.9775 33 31 C36.45802685 30.93219555 38.13369491 31.19023697 40.67578125 33.56640625 C41.11277344 34.03949219 41.54976562 34.51257813 42 35 C35.1170593 41.84018951 26.26972095 47.91009302 17 51 C13 46.5 13 46.5 13 42 C11.35 41.67 9.7 41.34 8 41 C7.01 37.535 7.01 37.535 6 34 C5.29875 33.9175 4.5975 33.835 3.875 33.75 C-2.37513229 32.11953071 -6.2891077 28.11501371 -10 23 C-12.85155158 17.78854366 -14.17200611 12.87068513 -13 7 C-9.85160491 1.4145139 -6.35985295 -0.64896459 0 0 Z " fill="#5ABCBE" transform="translate(143,168)"/>
<path d="M0 0 C2 2 2 2 2.1953125 4.1640625 C2.17210938 4.97617188 2.14890625 5.78828125 2.125 6.625 C2.10695313 7.44226563 2.08890625 8.25953125 2.0703125 9.1015625 C2.04710938 9.72804687 2.02390625 10.35453125 2 11 C2.61875 11.28875 3.2375 11.5775 3.875 11.875 C6 13 6 13 8 15 C9.2065625 14.7215625 9.2065625 14.7215625 10.4375 14.4375 C11.7059375 14.2209375 11.7059375 14.2209375 13 14 C15.0179154 15.51343655 15.87469934 16.74939867 17 19 C17.763125 18.360625 18.52625 17.72125 19.3125 17.0625 C24.42611373 13.13809877 29.79665668 13.42351129 36 14 C42.84638689 15.71159672 47.5196498 18.57641818 52 24 C52 24.66 52 25.32 52 26 C44.60124528 28.97366218 37.3088987 29.32915461 29.4375 29.375 C27.95515869 29.39530273 27.95515869 29.39530273 26.44287109 29.41601562 C25.51168457 29.41021484 24.58049805 29.40441406 23.62109375 29.3984375 C22.35930298 29.39336182 22.35930298 29.39336182 21.07202148 29.38818359 C20.38825439 29.26008301 19.7044873 29.13198242 19 29 C17 26 17 26 17 22 C14.9837767 22.71563266 14.9837767 22.71563266 13 24 C12.34520448 26.03506426 12.34520448 26.03506426 12 28 C1.95271478 26.51069002 -7.05694022 22.71994822 -16 18 C-16.34378616 12.27023063 -16.40987104 7.88748183 -13 3 C-8.50906633 -0.9806003 -5.78803191 -1.55831628 0 0 Z " fill="#5ABCBE" transform="translate(100,196)"/>
<path d="M0 0 C2.4375 1.875 2.4375 1.875 4 4 C4 4.66 4 5.32 4 6 C6.475 6.495 6.475 6.495 9 7 C9 8.32 9 9.64 9 11 C8.01 11 7.02 11 6 11 C6.04640625 11.99 6.0928125 12.98 6.140625 14 C6.41646864 22.41376361 6.39548498 28.99337807 0.5390625 35.6640625 C-1 37 -1 37 -3.8125 37.625 C-7.95139627 36.81345171 -9.23055598 35.136176 -11.7421875 31.875 C-14.29867832 28.064082 -15 25.60440533 -15 21 C-15.99 20.67 -16.98 20.34 -18 20 C-17.01 19.67 -16.02 19.34 -15 19 C-15.05220703 18.12988281 -15.05220703 18.12988281 -15.10546875 17.2421875 C-15.28620827 12.02656133 -15.01116142 8.46482556 -12 4 C-8.21257777 0.00216542 -5.45523685 -0.793489 0 0 Z " fill="#5BBDBF" transform="translate(92,128)"/>
<path d="M0 0 C4.55555556 0.55555556 4.55555556 0.55555556 6 2 C6.04080783 3.99958364 6.04254356 6.00045254 6 8 C5.01 8.33 4.02 8.66 3 9 C3.24447876 9.84933105 3.24447876 9.84933105 3.49389648 10.71582031 C4.01684172 13.07601117 4.11396742 15.13282157 4.09765625 17.546875 C4.09443359 18.39121094 4.09121094 19.23554688 4.08789062 20.10546875 C4.07951172 20.97816406 4.07113281 21.85085937 4.0625 22.75 C4.05798828 23.63816406 4.05347656 24.52632812 4.04882812 25.44140625 C4.037074 27.62767329 4.02064249 29.81380179 4 32 C5.485 32.495 5.485 32.495 7 33 C6.67 33.99 6.34 34.98 6 36 C3.9375 36.6875 3.9375 36.6875 2 37 C1.690625 38.6396875 1.690625 38.6396875 1.375 40.3125 C-1.18524994 50.32396011 -7.32417046 59.17852366 -15 66 C-17.77734375 67.27734375 -17.77734375 67.27734375 -20 68 C-19.41819792 63.4653661 -17.48962798 60.0225145 -15.25 56.125 C-10.17373029 46.96903586 -6.50652131 37.41878419 -5 27 C-6.32 26.34 -7.64 25.68 -9 25 C-8.01 24.34 -7.02 23.68 -6 23 C-4.03581697 20.05372546 -3.71587832 19.17409049 -3.4375 15.83984375 C-3.36273438 15.04642578 -3.28796875 14.25300781 -3.2109375 13.43554688 C-3.06998499 11.76630366 -2.9293615 10.09703264 -2.7890625 8.42773438 C-2.71429688 7.63560547 -2.63953125 6.84347656 -2.5625 6.02734375 C-2.50191406 5.30281006 -2.44132812 4.57827637 -2.37890625 3.83178711 C-2 2 -2 2 0 0 Z " fill="#D6EEEF" transform="translate(199,124)"/>
<path d="M0 0 C-0.66666667 2.66666667 -1.33333333 5.33333333 -2 8 C-2.66 8 -3.32 8 -4 8 C-3.85892253 9.45880109 -3.71197585 10.91703551 -3.5625 12.375 C-3.44068359 13.59316406 -3.44068359 13.59316406 -3.31640625 14.8359375 C-3.10909886 17.04272805 -3.10909886 17.04272805 -2 19 C-1.5625 21.8125 -1.5625 21.8125 -2 25 C-5.16750237 28.55378315 -6.77901647 29.75580329 -11.4375 30.6875 C-16.10458533 29.78683441 -19.01041929 27.68208246 -22 24 C-22.6953125 21.796875 -22.6953125 21.796875 -23 20 C-24.32 20.33 -25.64 20.66 -27 21 C-27.33 19.68 -27.66 18.36 -28 17 C-26.68 17 -25.36 17 -24 17 C-24.01160156 16.30132812 -24.02320313 15.60265625 -24.03515625 14.8828125 C-24.04417969 13.97273438 -24.05320313 13.06265625 -24.0625 12.125 C-24.07410156 11.22007813 -24.08570313 10.31515625 -24.09765625 9.3828125 C-24 7 -24 7 -23 5 C-20.39261125 4.21925648 -17.83498475 3.54667628 -15.1875 2.9375 C-14.46240234 2.76412109 -13.73730469 2.59074219 -12.99023438 2.41210938 C-10.99486023 1.93562936 -8.99749732 1.46749937 -7 1 C-5.98353394 0.72458374 -5.98353394 0.72458374 -4.9465332 0.44360352 C-3 0 -3 0 0 0 Z " fill="#5CBDBF" transform="translate(156,109)"/>
<path d="M0 0 C4.06794935 3.12984783 6.29454005 7.68796334 7.125 12.6875 C7.26197728 15.85989389 6.98192472 17.03772233 5.5625 20 C2.84160176 22.1236279 0.68685901 23.09280487 -2.78515625 23.33203125 C-7.26910917 22.65983372 -10.53935177 19.76081399 -14 17 C-14.58136719 16.56945312 -15.16273437 16.13890625 -15.76171875 15.6953125 C-19.3430479 12.93489255 -21.74579317 9.90151182 -24 6 C-24 5.34 -24 4.68 -24 4 C-21.12666819 3.32533928 -18.25168518 2.6600766 -15.375 2 C-14.56675781 1.80921875 -13.75851563 1.6184375 -12.92578125 1.421875 C-4.25575532 -0.55178944 -4.25575532 -0.55178944 0 0 Z " fill="#5ABCBE" transform="translate(120,117)"/>
<path d="M0 0 C4.62813038 0.97290756 7.32286803 3.66500116 10.36328125 7.10546875 C12.46047184 11.38051112 12.94649213 14.74356612 11.98828125 19.41796875 C10.62461124 22.25556294 9.49031068 23.29668293 6.98828125 25.41796875 C2.27982212 26.30080484 -0.1264926 24.97403858 -4.01171875 22.41796875 C-6.20302409 21.72217421 -6.20302409 21.72217421 -8.01171875 21.41796875 C-8.01171875 20.75796875 -8.01171875 20.09796875 -8.01171875 19.41796875 C-9.66171875 19.41796875 -11.31171875 19.41796875 -13.01171875 19.41796875 C-12.68171875 18.75796875 -12.35171875 18.09796875 -12.01171875 17.41796875 C-11.35171875 17.41796875 -10.69171875 17.41796875 -10.01171875 17.41796875 C-10.25921875 16.67546875 -10.25921875 16.67546875 -10.51171875 15.91796875 C-11.22309915 12.36106675 -11.6215402 8.99889705 -11.01171875 5.41796875 C-8.04863614 0.97334483 -5.40965961 -0.37694427 0 0 Z " fill="#5ABDBE" transform="translate(117.01171875,178.58203125)"/>
<path d="M0 0 C-0.57559138 4.94049266 -2.84587547 8.56978525 -5.25 12.8125 C-14.18443431 29.33360797 -16.29272169 45.42617268 -18 64 C-18.99 63.67 -19.98 63.34 -21 63 C-26.5697999 49.9121163 -24.90398063 34.81000262 -19.78125 21.9375 C-16.69998291 15.22718501 -8.67190946 0 0 0 Z " fill="#D4F3F3" transform="translate(75,93)"/>
<path d="M0 0 C-0.62882096 6.53973799 -0.62882096 6.53973799 -2.5625 8.9375 C-4.87845368 12.26039006 -4.31698121 15.00603679 -4 19 C-3.34 19.99 -2.68 20.98 -2 22 C-1.52345299 25.73295155 -1.49949754 27.34416919 -3.8125 30.375 C-6 32 -6 32 -9 32 C-8.505 33.093125 -8.01 34.18625 -7.5 35.3125 C-6 39 -6 39 -6 42 C-9.78611227 41.45912682 -11.55400767 39.88277668 -14 37 C-14 36.34 -14 35.68 -14 35 C-14.804375 34.855625 -15.60875 34.71125 -16.4375 34.5625 C-19 34 -19 34 -20 33 C-20.04080783 31.00041636 -20.04254356 28.99954746 -20 27 C-18.68 26.34 -17.36 25.68 -16 25 C-16.01160156 24.443125 -16.02320313 23.88625 -16.03515625 23.3125 C-16.09676433 18.10221657 -15.74999344 13.1562049 -15 8 C-14.01 8 -13.02 8 -12 8 C-9.4993185 6.23053404 -9.4993185 6.23053404 -6.9375 4 C-2.20833333 0 -2.20833333 0 0 0 Z " fill="#5ABCBE" transform="translate(73,133)"/>
<path d="M0 0 C3.45929393 1.9801892 5.70000183 4.20859596 8.23828125 7.28125 C8.23828125 7.94125 8.23828125 8.60125 8.23828125 9.28125 C0.83952653 12.25491218 -6.45282005 12.61040461 -14.32421875 12.65625 C-15.80656006 12.67655273 -15.80656006 12.67655273 -17.31884766 12.69726562 C-18.25003418 12.69146484 -19.1812207 12.68566406 -20.140625 12.6796875 C-21.40241577 12.67461182 -21.40241577 12.67461182 -22.68969727 12.66943359 C-23.37346436 12.54133301 -24.05723145 12.41323242 -24.76171875 12.28125 C-26.76171875 9.28125 -26.76171875 9.28125 -26.76171875 5.28125 C-27.42171875 4.95125 -28.08171875 4.62125 -28.76171875 4.28125 C-28.10171875 4.28125 -27.44171875 4.28125 -26.76171875 4.28125 C-26.55546875 3.683125 -26.34921875 3.085 -26.13671875 2.46875 C-20.70069929 -6.17946277 -7.82359708 -3.49379136 0 0 Z " fill="#5ABCBE" transform="translate(143.76171875,212.71875)"/>
<path d="M0 0 C0.66 0.33 1.32 0.66 2 1 C1.43410156 1.96421875 0.86820313 2.9284375 0.28515625 3.921875 C-0.45598689 5.19776699 -1.19685807 6.47381699 -1.9375 7.75 C-2.31068359 8.38421875 -2.68386719 9.0184375 -3.06835938 9.671875 C-4.85536764 12.76291632 -6.24885273 15.51467668 -7 19 C-1.1154959 15.05708355 3.05708355 10.8845041 7 5 C9.31 6.32 11.62 7.64 14 9 C13.39170242 12.94925508 11.41996343 15.46182122 9.0625 18.625 C8.35222656 19.58664063 7.64195312 20.54828125 6.91015625 21.5390625 C5 24 5 24 3 26 C-3.6978577 25.4083559 -9.59624685 20.82253545 -14.0625 16 C-16.2823287 12.56284588 -16.78354655 11.00479347 -16 7 C-14.5625 4.6875 -14.5625 4.6875 -12 3 C-9.69300321 2.57941033 -7.4633881 2.37613506 -5.12109375 2.2734375 C-2.70058353 2.12088634 -2.70058353 2.12088634 0 0 Z " fill="#5BBDBF" transform="translate(186,173)"/>
<path d="M0 0 C4.54554279 1.54337034 6.52829122 5.09166465 9.125 8.875 C9.56714844 9.50019531 10.00929687 10.12539062 10.46484375 10.76953125 C16 18.67928625 16 18.67928625 16 23 C12.32259675 25.35353808 9.29550406 25.38885616 5 25 C1.98046875 23.1015625 1.98046875 23.1015625 -0.8125 20.625 C-1.74707031 19.81289062 -2.68164062 19.00078125 -3.64453125 18.1640625 C-5.12363572 16.80515059 -6.57971981 15.42028019 -8 14 C-7.68346697 10.26653346 -5.58368227 7.71563369 -3.4375 4.75 C-2.79683594 3.85796875 -2.15617188 2.9659375 -1.49609375 2.046875 C-0.75552734 1.03367187 -0.75552734 1.03367187 0 0 Z " fill="#5ABCBE" transform="translate(187,83)"/>
<path d="M0 0 C2.5625 1.5625 2.5625 1.5625 4 4 C4 10.38210684 1.44896232 14.38214373 -2.8125 18.9375 C-6.1788457 20.5725822 -8.46146818 19.96505413 -12 19 C-14.99851868 15.95244012 -15.43794725 13.44248615 -15.6875 9.25 C-15.75324219 8.26515625 -15.81898437 7.2803125 -15.88671875 6.265625 C-15.92410156 5.51796875 -15.96148437 4.7703125 -16 4 C-15.236875 3.71125 -14.47375 3.4225 -13.6875 3.125 C-4.51225629 -0.71579969 -4.51225629 -0.71579969 0 0 Z " fill="#5DBDBF" transform="translate(110,161)"/>
<path d="M0 0 C1.6875 0.875 1.6875 0.875 3.6875 2.875 C6.25811311 3.52267793 6.25811311 3.52267793 8.6875 3.875 C8.3575 5.195 8.0275 6.515 7.6875 7.875 C6.3675 7.545 5.0475 7.215 3.6875 6.875 C3.15962891 7.67164062 3.15962891 7.67164062 2.62109375 8.484375 C-0.87153969 13.48166775 -3.61789426 16.55855021 -9.3125 18.875 C-13.64847561 19.51437267 -17.04276411 19.61826003 -20.875 17.375 C-21.349375 16.88 -21.82375 16.385 -22.3125 15.875 C-19.83131006 9.44972201 -7.18327668 -0.38828523 0 0 Z " fill="#5EBEC0" transform="translate(160.3125,85.125)"/>
<path d="M0 0 C3.36450247 1.81110452 5.99255569 3.87682031 7.8359375 7.23828125 C7.8359375 8.22828125 7.8359375 9.21828125 7.8359375 10.23828125 C5.1484375 11.05078125 5.1484375 11.05078125 1.8359375 11.23828125 C0.16927083 9.57161458 -1.49739583 7.90494792 -3.1640625 6.23828125 C-7.36094911 5.56378162 -9.36604181 5.7698778 -13.0390625 7.92578125 C-15.45543267 10.55536055 -16.07960653 11.6911305 -16.1640625 15.23828125 C-15.6071875 16.75421875 -15.6071875 16.75421875 -15.0390625 18.30078125 C-14.7503125 19.27015625 -14.4615625 20.23953125 -14.1640625 21.23828125 C-15.5390625 23.61328125 -15.5390625 23.61328125 -17.1640625 25.23828125 C-20.1640625 24.23828125 -20.1640625 24.23828125 -21.328125 22.5078125 C-23.10928234 17.67205355 -23.06904742 11.95323601 -21.44140625 7.0703125 C-17.04695251 -1.27381222 -8.63225874 -3.03843042 0 0 Z " fill="#42D9D9" transform="translate(73.1640625,16.76171875)"/>
<path d="M0 0 C0.68887907 13.49054848 -1.47942339 24.59847546 -7 37 C-9.31 36.34 -11.62 35.68 -14 35 C-14 31.72507428 -13.31844327 29.52365728 -12.25 26.4375 C-11.76273438 24.98150391 -11.76273438 24.98150391 -11.265625 23.49609375 C-9.84337619 20.69110303 -8.91112785 20.0335727 -6 19 C-6 18.34 -6 17.68 -6 17 C-6.66 16.67 -7.32 16.34 -8 16 C-8 11.05 -8 6.1 -8 1 C-5.29120665 -0.35439668 -2.99066732 -0.06501451 0 0 Z " fill="#5BBDBF" transform="translate(211,140)"/>
<path d="M0 0 C1.2065625 0.495 1.2065625 0.495 2.4375 1 C6.73804795 2.20717135 10.56966181 2.17721353 15 2 C15.508783 3.55966218 16.00663469 5.12289241 16.5 6.6875 C16.7784375 7.55761719 17.056875 8.42773438 17.34375 9.32421875 C17.99850805 11.99391677 18.11831495 14.26396684 18 17 C17.360625 17.103125 16.72125 17.20625 16.0625 17.3125 C15.381875 17.539375 14.70125 17.76625 14 18 C13.67 18.99 13.34 19.98 13 21 C12.34 19.02 11.68 17.04 11 15 C9.9275 15.2475 8.855 15.495 7.75 15.75 C4 16 4 16 1.78125 14.40625 C-0.50680544 11.31536809 -0.41526031 9.55098709 -0.25 5.75 C-0.21390625 4.67234375 -0.1778125 3.5946875 -0.140625 2.484375 C-0.09421875 1.66453125 -0.0478125 0.8446875 0 0 Z " fill="#5BBDBF" transform="translate(192,110)"/>
<path d="M0 0 C7.4387744 0.31654359 12.68174824 3.64018349 17.87109375 8.89453125 C21.66588363 13.50834053 22.78771101 17.05590819 23 23 C19.5222507 21.43988817 16.72775973 19.36827674 13.75 17 C12.85796875 16.29875 11.9659375 15.5975 11.046875 14.875 C10.37140625 14.25625 9.6959375 13.6375 9 13 C9 12.34 9 11.68 9 11 C8.34 11 7.68 11 7 11 C5.2734375 9.1015625 5.2734375 9.1015625 3.375 6.625 C2.42753906 5.40683594 2.42753906 5.40683594 1.4609375 4.1640625 C0 2 0 2 0 0 Z " fill="#59BCBE" transform="translate(58,188)"/>
<path d="M0 0 C3 0.125 3 0.125 4 1.125 C4.23529412 6.65441176 4.23529412 6.65441176 3 9.125 C3.32759934 11.45914529 3.66073053 13.79252239 4 16.125 C3 17.125 3 17.125 0.0625 17.375 C-0.948125 17.2925 -1.95875 17.21 -3 17.125 C-5 14.125 -5 14.125 -4.625 12.125 C-4.41875 11.465 -4.2125 10.805 -4 10.125 C-4 8.08322704 -4.02167271 6.04136472 -4.0625 4 C-3.97683425 0.05937536 -3.95254492 0.16468937 0 0 Z " fill="#66C2C3" transform="translate(122,159.875)"/>
<path d="M0 0 C2.75 0.5625 2.75 0.5625 4.0859375 2.171875 C5.38503671 4.2661804 6.57765329 6.39506863 7.75 8.5625 C8.348125 9.490625 8.94625 10.41875 9.5625 11.375 C10.75 13.5625 10.75 13.5625 10.75 16.5625 C6.96388773 16.02162682 5.19599233 14.44527668 2.75 11.5625 C2.75 10.9025 2.75 10.2425 2.75 9.5625 C1.945625 9.418125 1.14125 9.27375 0.3125 9.125 C-2.25 8.5625 -2.25 8.5625 -3.25 7.5625 C-3.375 4.5625 -3.375 4.5625 -3.25 1.5625 C-2.25 0.5625 -2.25 0.5625 0 0 Z " fill="#D5EEEE" transform="translate(56.25,158.4375)"/>
<path d="M0 0 C1.32 0.33 2.64 0.66 4 1 C4.9375 3.5 4.9375 3.5 5 7 C2.13107864 11.40288221 -1.63632318 15.08184759 -6 18 C-6.66 18 -7.32 18 -8 18 C-7.39733215 13.49272353 -5.63400206 10.1412037 -3.4375 6.1875 C-2.9434668 5.2912793 -2.9434668 5.2912793 -2.43945312 4.37695312 C-1.63226733 2.91466002 -0.81695083 1.4568601 0 0 Z " fill="#D4EEEE" transform="translate(187,174)"/>
<path d="M0 0 C1.875 1.5 1.875 1.5 3 3 C2 5 1 7 0 9 C-4.87362847 8.54663921 -7.39042389 7.2910841 -11 4 C-10.67 3.01 -10.34 2.02 -10 1 C-6.77348426 -0.31450641 -3.4359298 -0.29241956 0 0 Z " fill="#58BCBE" transform="translate(184,78)"/>
<path d="M0 0 C0.66 0.33 1.32 0.66 2 1 C-0.31 5.29 -2.62 9.58 -5 14 C-7.475 13.01 -7.475 13.01 -10 12 C-10.04254356 10.00045254 -10.04080783 7.99958364 -10 6 C-9 5 -9 5 -5.9375 4.9375 C-4.4834375 4.9684375 -4.4834375 4.9684375 -3 5 C-2.814375 4.0409375 -2.814375 4.0409375 -2.625 3.0625 C-2.41875 2.381875 -2.2125 1.70125 -2 1 C-1.34 0.67 -0.68 0.34 0 0 Z " fill="#7CCACC" transform="translate(186,173)"/>
<path d="M0 0 C0.33 0.99 0.66 1.98 1 3 C1.78375 2.95875 2.5675 2.9175 3.375 2.875 C6 3 6 3 8 5 C8.125 7.625 8.125 7.625 8 10 C4.88228073 11.60339848 3.60988311 12.18974141 0.1875 11.125 C-0.534375 10.75375 -1.25625 10.3825 -2 10 C-1.34 9.67 -0.68 9.34 0 9 C0 6.03 0 3.06 0 0 Z " fill="#7FCBCD" transform="translate(57,149)"/>
<path d="M0 0 C0.625 2.875 0.625 2.875 1 6 C-1 8 -1 8 -3.5 8.3125 C-4.7375 8.1578125 -4.7375 8.1578125 -6 8 C-8 5 -8 5 -7.75 2.375 C-7.5025 1.59125 -7.255 0.8075 -7 0 C-4.3333581 -1.33332095 -2.83319697 -0.67102033 0 0 Z " fill="#A5DBDC" transform="translate(115,211)"/>
<path d="M0 0 C2 0.6875 2 0.6875 4 2.6875 C3.44444444 7.24305556 3.44444444 7.24305556 2 8.6875 C-0.4375 8.9375 -0.4375 8.9375 -3 8.6875 C-5 5.6875 -5 5.6875 -4.75 3.0625 C-4.5025 2.27875 -4.255 1.495 -4 0.6875 C-2 -0.3125 -2 -0.3125 0 0 Z " fill="#A9DCDD" transform="translate(156,116.3125)"/>
<path d="M0 0 C3 0.125 3 0.125 4 1.125 C4.04080783 3.12458364 4.04254356 5.12545254 4 7.125 C1.6875 8.25 1.6875 8.25 -1 9.125 C-1.99 8.465 -2.98 7.805 -4 7.125 C-4.25 4.0625 -4.25 4.0625 -4 1.125 C-3 0.125 -3 0.125 0 0 Z " fill="#A7DBDC" transform="translate(122,159.875)"/>
<path d="M0 0 C1.32 0.66 2.64 1.32 4 2 C3.67 3.32 3.34 4.64 3 6 C2.2575 5.95875 1.515 5.9175 0.75 5.875 C-2.08758952 6.00398134 -3.58773938 6.57051222 -6 8 C-6.66 7.34 -7.32 6.68 -8 6 C-7.625 3.875 -7.625 3.875 -7 2 C-6.21625 2.04125 -5.4325 2.0825 -4.625 2.125 C-1.83883881 2.28728734 -1.83883881 2.28728734 0 0 Z " fill="#6DC4C6" transform="translate(173,151)"/>
<path d="M0 0 C3.16115776 1.36983503 3.9927092 1.9890638 6 5 C6.25760279 7.69452521 6.08900053 10.28548375 6 13 C5.01 13 4.02 13 3 13 C-0.42857143 4.57142857 -0.42857143 4.57142857 0 0 Z " fill="#D6EEEE" transform="translate(192,110)"/>
<path d="M0 0 C1.32 0.33 2.64 0.66 4 1 C5.125 6.75 5.125 6.75 4 9 C1.69 8.67 -0.62 8.34 -3 8 C-1.125 2.25 -1.125 2.25 0 0 Z " fill="#EAF6F7" transform="translate(187,174)"/>
<path d="M0 0 C2.375 -0.1875 2.375 -0.1875 5 0 C7 3 7 3 6.625 5.6875 C6.41875 6.450625 6.2125 7.21375 6 8 C1.25 9.125 1.25 9.125 -1 8 C-0.67 5.36 -0.34 2.72 0 0 Z " fill="#79C9CB" transform="translate(159,118)"/>
<path d="M0 0 C1.65 0.33 3.3 0.66 5 1 C4.6875 2.9375 4.6875 2.9375 4 5 C3.01 5.33 2.02 5.66 1 6 C0.67 7.65 0.34 9.3 0 11 C-1.32 10.67 -2.64 10.34 -4 10 C-3.67 8.35 -3.34 6.7 -3 5 C-2.01 5 -1.02 5 0 5 C0 3.35 0 1.7 0 0 Z " fill="#58D2D3" transform="translate(101,69)"/>
<path d="M0 0 C4.875 0.875 4.875 0.875 6 2 C6.04080783 3.99958364 6.04254356 6.00045254 6 8 C5.01 8.33 4.02 8.66 3 9 C2.67 9.66 2.34 10.32 2 11 C1.71125 10.030625 1.4225 9.06125 1.125 8.0625 C0.35785318 4.89335797 0.35785318 4.89335797 -2 4 C-1.34 2.68 -0.68 1.36 0 0 Z " fill="#AADDDE" transform="translate(199,124)"/>
<path d="M0 0 C1.2065625 0.0309375 1.2065625 0.0309375 2.4375 0.0625 C3.0975 1.3825 3.7575 2.7025 4.4375 4.0625 C3.7775 4.0625 3.1175 4.0625 2.4375 4.0625 C2.4375 5.7125 2.4375 7.3625 2.4375 9.0625 C-2.4375 8.1875 -2.4375 8.1875 -3.5625 7.0625 C-3.6875 4.0625 -3.6875 4.0625 -3.5625 1.0625 C-2.5625 0.0625 -2.5625 0.0625 0 0 Z " fill="#AADDDE" transform="translate(56.5625,158.9375)"/>
<path d="M0 0 C2 3 2 3 3 6 C3.66 6.66 4.32 7.32 5 8 C4.01 8.66 3.02 9.32 2 10 C0.80767387 12.05003955 0.80767387 12.05003955 0 14 C-3.05397727 7.64772727 -3.05397727 7.64772727 -2.8125 4.75 C-2 3 -2 3 0 0 Z " fill="#5FBEC0" transform="translate(52,150)"/>
<path d="M0 0 C0.99 0 1.98 0 3 0 C5.10770759 2.88834003 6 4.38462395 6 8 C4.02 8 2.04 8 0 8 C-0.38063221 5.6739143 -0.71269945 3.33944736 -1 1 C-0.67 0.67 -0.34 0.34 0 0 Z " fill="#79C9CB" transform="translate(99,208)"/>
<path d="M0 0 C3.465 1.485 3.465 1.485 7 3 C7 3.66 7 4.32 7 5 C6.01 5.495 6.01 5.495 5 6 C4.67 6.99 4.34 7.98 4 9 C1.69 8.34 -0.62 7.68 -3 7 C-3 6.34 -3 5.68 -3 5 C-2.34 4.67 -1.68 4.34 -1 4 C-0.34786708 1.97536745 -0.34786708 1.97536745 0 0 Z " fill="#B0DFE0" transform="translate(142,144)"/>
<path d="M0 0 C0.66 0 1.32 0 2 0 C2.33 0.66 2.66 1.32 3 2 C5.02463255 2.65213292 5.02463255 2.65213292 7 3 C7 3.66 7 4.32 7 5 C6.01 5.495 6.01 5.495 5 6 C3.86649466 8.01669827 3.86649466 8.01669827 3 10 C2.34 9.34 1.68 8.68 1 8 C-0.31747324 7.30251417 -1.64914193 6.63040043 -3 6 C-2.01 5.67 -1.02 5.34 0 5 C0 3.35 0 1.7 0 0 Z " fill="#B3E0E1" transform="translate(77,142)"/>
<path d="M0 0 C0.66 0.33 1.32 0.66 2 1 C2 1.66 2 2.32 2 3 C3.65 3 5.3 3 7 3 C6.54625 3.4125 6.0925 3.825 5.625 4.25 C3.94049626 6.06408095 3.00734029 7.75285627 2 10 C1.67 9.01 1.34 8.02 1 7 C-0.65 7 -2.3 7 -4 7 C-3.525625 6.5875 -3.05125 6.175 -2.5625 5.75 C-0.83733482 3.817815 -0.43415125 2.51807725 0 0 Z " fill="#B5E1E2" transform="translate(108,191)"/>
<path d="M0 0 C1.98 0.495 1.98 0.495 4 1 C4.33 2.32 4.66 3.64 5 5 C3.125 5.625 3.125 5.625 1 6 C0.34 5.34 -0.32 4.68 -1 4 C-0.625 1.875 -0.625 1.875 0 0 Z " fill="#91D3D4" transform="translate(191,95)"/>
<path d="M0 0 C0.99 0 1.98 0 3 0 C3.33 1.65 3.66 3.3 4 5 C2.68 5.33 1.36 5.66 0 6 C-0.66 4.68 -1.32 3.36 -2 2 C-1.34 1.34 -0.68 0.68 0 0 Z " fill="#58D2D3" transform="translate(104,100)"/>
<path d="M0 0 C1.98 0.495 1.98 0.495 4 1 C3.67 2.65 3.34 4.3 3 6 C1.68 5.67 0.36 5.34 -1 5 C-0.67 3.35 -0.34 1.7 0 0 Z " fill="#8CD1D2" transform="translate(152,204)"/>
<path d="M0 0 C0.99 0.33 1.98 0.66 3 1 C3 2.65 3 4.3 3 6 C1.35 5.67 -0.3 5.34 -2 5 C-1.125 1.125 -1.125 1.125 0 0 Z " fill="#94D4D5" transform="translate(92,133)"/>
<path d="M0 0 C2 3 2 3 2.9375 5.625 C3.288125 6.40875 3.63875 7.1925 4 8 C4.99 8.33 5.98 8.66 7 9 C6.67 9.66 6.34 10.32 6 11 C1.125 9.25 1.125 9.25 0 7 C-0.04022391 4.6670134 -0.04320247 2.33293334 0 0 Z " fill="#65C1C3" transform="translate(192,115)"/>
<path d="M0 0 C1.67542976 0.28604898 3.34385343 0.61781233 5 1 C4.67 2.32 4.34 3.64 4 5 C2.68 5 1.36 5 0 5 C-0.5625 3.0625 -0.5625 3.0625 -1 1 C-0.67 0.67 -0.34 0.34 0 0 Z " fill="#8CDCDD" transform="translate(153,68)"/>
<path d="M0 0 C1.98 0.495 1.98 0.495 4 1 C3.67 2.65 3.34 4.3 3 6 C1.68 5.34 0.36 4.68 -1 4 C-0.67 2.68 -0.34 1.36 0 0 Z " fill="#96D5D6" transform="translate(166,153)"/>
<path d="M0 0 C0.33 0 0.66 0 1 0 C1.25 2.25 1.25 2.25 1 5 C-0.875 7.3125 -0.875 7.3125 -3 9 C-3.66 9 -4.32 9 -5 9 C-4.42680151 5.13091017 -2.56186024 2.88209277 0 0 Z " fill="#EFF9F9" transform="translate(57,140)"/>
<path d="M0 0 C1.98 0.495 1.98 0.495 4 1 C4 2.32 4 3.64 4 5 C2.35 4.67 0.7 4.34 -1 4 C-0.67 2.68 -0.34 1.36 0 0 Z " fill="#6CC4C5" transform="translate(191,102)"/>
<path d="M0 0 C2.475 0.495 2.475 0.495 5 1 C5 2.32 5 3.64 5 5 C3.35 5 1.7 5 0 5 C0 3.35 0 1.7 0 0 Z " fill="#5AD2D3" transform="translate(125,85)"/>
<path d="M0 0 C1.65 0 3.3 0 5 0 C4.67 1.65 4.34 3.3 4 5 C2.68 4.67 1.36 4.34 0 4 C0 2.68 0 1.36 0 0 Z " fill="#E8F7F7" transform="translate(54,128)"/>
<path d="M0 0 C1.32 0 2.64 0 4 0 C4 1.65 4 3.3 4 5 C2.35 4.67 0.7 4.34 -1 4 C-0.67 2.68 -0.34 1.36 0 0 Z " fill="#6EC5C6" transform="translate(158,88)"/>
<path d="M0 0 C2.475 0.495 2.475 0.495 5 1 C4.67 2.32 4.34 3.64 4 5 C2.68 5 1.36 5 0 5 C0 3.35 0 1.7 0 0 Z " fill="#8CDCDD" transform="translate(101,69)"/>
<path d="M0 0 C2.97 0.495 2.97 0.495 6 1 C5.01 1.66 4.02 2.32 3 3 C3 3.99 3 4.98 3 6 C1.68 5.67 0.36 5.34 -1 5 C-0.67 3.35 -0.34 1.7 0 0 Z " fill="#5AD2D3" transform="translate(150,66)"/>
<path d="M0 0 C4.875 0.875 4.875 0.875 6 2 C6.04080783 3.99958364 6.04254356 6.00045254 6 8 C4 6.1875 4 6.1875 2 4 C2 3.01 2 2.02 2 1 C1.34 0.67 0.68 0.34 0 0 Z " fill="#66C2C3" transform="translate(100,207)"/>
<path d="M0 0 C2.475 0.495 2.475 0.495 5 1 C4.67 2.32 4.34 3.64 4 5 C2.68 4.67 1.36 4.34 0 4 C0 2.68 0 1.36 0 0 Z " fill="#90D2D3" transform="translate(79,185)"/>
<path d="M0 0 C2.475 0.495 2.475 0.495 5 1 C4.67 2.32 4.34 3.64 4 5 C2.68 4.67 1.36 4.34 0 4 C0 2.68 0 1.36 0 0 Z " fill="#8ED2D3" transform="translate(164,88)"/>
<path d="M0 0 C0.33 0.99 0.66 1.98 1 3 C1.99 3.33 2.98 3.66 4 4 C3.67 4.99 3.34 5.98 3 7 C0.9375 7.6875 0.9375 7.6875 -1 8 C-0.67 5.36 -0.34 2.72 0 0 Z " fill="#A1D9DA" transform="translate(202,153)"/>
<path d="M0 0 C1.65 0 3.3 0 5 0 C5 0.66 5 1.32 5 2 C4.01 2.495 4.01 2.495 3 3 C1.86649466 5.01669827 1.86649466 5.01669827 1 7 C0 6 0 6 -0.0625 2.9375 C-0.041875 1.968125 -0.02125 0.99875 0 0 Z " fill="#ECF7F7" transform="translate(195,146)"/>
<path d="M0 0 C0.66 0.33 1.32 0.66 2 1 C1.01 2.98 0.02 4.96 -1 7 C-1.66 7 -2.32 7 -3 7 C-3.1875 4.625 -3.1875 4.625 -3 2 C-2.01 1.34 -1.02 0.68 0 0 Z " fill="#A9DCDD" transform="translate(186,173)"/>
</svg>
