<?xml version="1.0" encoding="UTF-8"?>
<svg version="1.1" xmlns="http://www.w3.org/2000/svg" width="256" height="256">
<path d="M0 0 C3.54913097 2.02807484 5.69845872 4.09537617 7 8 C7.02723757 9.66644409 7.03019823 11.33360694 7 13 C7.83660156 12.61328125 8.67320313 12.2265625 9.53515625 11.828125 C33.04545319 1.30967543 57.8826131 -1.21101553 82.98046875 5.0859375 C86.2893046 5.90643677 89.2673709 6.11316858 92.6875 6.0625 C100.23969136 6.48864246 106.37859816 12.260761 112.18212891 16.66650391 C113.90321786 17.92900563 115.66380751 19.04965487 117.48046875 20.16796875 C118.31191406 20.77253906 119.14335937 21.37710937 120 22 C120 22.99 120 23.98 120 25 C121.60003683 26.66558623 121.60003683 26.66558623 123.6875 28.25 C131.82915779 35.11143245 135.66945753 42.55726603 136.875 53.125 C137.81239092 71.2270602 128.83061179 86.4998476 119 101 C119.99 101 120.98 101 122 101 C122.99 113.375 122.99 113.375 124 126 C127.3 126.99 130.6 127.98 134 129 C136.34958521 129.96119395 138.69067419 130.94574256 141 132 C141.16725586 131.40719238 141.33451172 130.81438477 141.50683594 130.20361328 C142.85528837 125.5546199 144.32984504 121.00724079 146.078125 116.4921875 C146.61179688 115.10580078 146.61179688 115.10580078 147.15625 113.69140625 C147.89011301 111.801709 148.63506851 109.91628491 149.390625 108.03515625 C152.72446558 99.27156797 152.05221846 93.87859171 148.4375 85.125 C146 79.17280453 146 79.17280453 146 77 C148.31 76.01 150.62 75.02 153 74 C153.48198463 75.24891614 153.96045677 76.49918808 154.4375 77.75 C154.70433594 78.44609375 154.97117188 79.1421875 155.24609375 79.859375 C156 82 156 82 157 86 C160.465 77.09 160.465 77.09 164 68 C166.64 68.99 169.28 69.98 172 71 C171.55934629 76.43472908 169.3922929 80.77008951 167.05859375 85.609375 C165.86503651 87.86903526 165.86503651 87.86903526 166 90 C167.35544922 89.13375 167.35544922 89.13375 168.73828125 88.25 C169.92946562 87.49964764 171.12088415 86.74966693 172.3125 86 C172.90740234 85.6184375 173.50230469 85.236875 174.11523438 84.84375 C178.66015625 82 178.66015625 82 182 82 C182.33 84.31 182.66 86.62 183 89 C182.4423999 89.08934814 181.8847998 89.17869629 181.31030273 89.27075195 C173.64992937 90.77764615 165.46300479 93.14056067 160.72796631 99.78497314 C157.66888205 104.90842658 155.34418551 110.34646524 153.125 115.875 C152.63626907 117.08755966 152.63626907 117.08755966 152.13766479 118.32461548 C148.0661266 127.03286614 148.0661266 127.03286614 148 136 C150.3145989 137.66376603 150.3145989 137.66376603 153.125 139.25 C158.16501061 142.34451429 162.01943944 145.67100841 166 150 C167.2065625 151.11375 167.2065625 151.11375 168.4375 152.25 C178.93281439 163.51326422 185.41949864 176.48040172 185.2109375 192.0390625 C184.29389249 204.91165729 178.16147634 215.84190348 168.88671875 224.58984375 C140.18115414 248.55646536 97.8023377 256.42090501 61.29101562 256.31567383 C59.00082214 256.31250114 56.71191175 256.33614945 54.421875 256.36132812 C31.7567769 256.45991489 9.670138 251.08389487 -7.3125 235.3125 C-15.226653 227.08329314 -19.50840535 217.4156543 -19.328125 206.04296875 C-18.14172884 195.04055678 -9.82921465 180.82921465 -2 173 C-8.69803528 168.43429805 -15.51857714 164.11913123 -22.5 160 C-23.48097656 159.39027344 -24.46195313 158.78054687 -25.47265625 158.15234375 C-31.7483864 154.40997366 -31.7483864 154.40997366 -38.80859375 154.5234375 C-40.21541221 154.9872238 -41.61380871 155.47778394 -43 156 C-44.15628906 156.28101563 -45.31257813 156.56203125 -46.50390625 156.8515625 C-47.51324219 157.10679687 -48.52257812 157.36203125 -49.5625 157.625 C-50.59503906 157.88539063 -51.62757812 158.14578125 -52.69140625 158.4140625 C-53.45324219 158.60742188 -54.21507812 158.80078125 -55 159 C-56.49821059 155.62902617 -57 153.79557881 -57 150 C-52.71 149.67 -48.42 149.34 -44 149 C-44 148.34 -44 147.68 -44 147 C-44.86882813 146.74476563 -45.73765625 146.48953125 -46.6328125 146.2265625 C-50.09304519 144.96610651 -52.80561413 143.39630289 -55.875 141.375 C-56.84179688 140.74335938 -57.80859375 140.11171875 -58.8046875 139.4609375 C-59.52914062 138.97882813 -60.25359375 138.49671875 -61 138 C-60.01 135.03 -59.02 132.06 -58 129 C-53.78345644 130.48635116 -50.37521395 132.61249159 -46.6875 135.125 C-45.61886719 135.84945312 -44.55023438 136.57390625 -43.44921875 137.3203125 C-42.23685547 138.15175781 -42.23685547 138.15175781 -41 139 C-42.485 134.545 -42.485 134.545 -44 130 C-41.36 130 -38.72 130 -36 130 C-35.66048381 131.56116819 -35.32867456 133.12401338 -35 134.6875 C-34.814375 135.55761719 -34.62875 136.42773438 -34.4375 137.32421875 C-34.01027953 139.93712964 -33.92383799 142.35813038 -34 145 C-33.34128906 145.21398437 -32.68257812 145.42796875 -32.00390625 145.6484375 C-27.93221695 147.48043295 -24.54045462 150.00862138 -20.9375 152.625 C-19.42798092 153.70698253 -17.91755792 154.78770503 -16.40625 155.8671875 C-15.66375 156.39795898 -14.92125 156.92873047 -14.15625 157.47558594 C-9.51106981 160.75961052 -4.75828187 163.88282113 0 167 C3.12197478 165.6910428 3.12197478 165.6910428 5 163 C4.34 163 3.68 163 3 163 C4.35364507 158.94618923 6.0783954 156.54010485 9.125 153.5625 C9.92164062 152.7684375 10.71828125 151.974375 11.5390625 151.15625 C13.80276048 149.17281939 15.86863084 147.96843009 18.5 146.5625 C20.83635638 144.96174889 21.83214603 143.79472921 22.42138672 141.00488281 C22.87640085 136.94280134 22.96484375 132.90877353 22.96484375 128.82421875 C23 125 23 125 24 124 C23.23816406 123.64808594 22.47632812 123.29617187 21.69140625 122.93359375 C11.93822783 118.27008896 2.93805961 112.455063 -4 104 C-4 103.34 -4 102.68 -4 102 C-4.99 102.33 -5.98 102.66 -7 103 C-8.70613262 100.44829726 -10.38951837 97.88580106 -12.0625 95.3125 C-12.54783203 94.59126953 -13.03316406 93.87003906 -13.53320312 93.12695312 C-17.01754231 87.71510716 -17.01754231 87.71510716 -16.93359375 84.29296875 C-16.31115666 82.7642216 -15.6358182 81.25597267 -14.91015625 79.7734375 C-13.56237285 75.66645805 -14.09659448 71.89034865 -14.4375 67.625 C-15.1127892 57.33107202 -15.2366093 47.14055913 -13 37 C-13.60328125 36.91363281 -14.2065625 36.82726563 -14.828125 36.73828125 C-21.42074364 35.57925636 -21.42074364 35.57925636 -24.5 32.5 C-27.59202118 27.34663136 -27.57924171 22.95331759 -27 17 C-24.84253466 10.01168835 -20.01866689 5.01244459 -14 1 C-9.37939044 -0.54020319 -4.82536624 -0.51574193 0 0 Z " fill="#E3F1F6" transform="translate(66,0)"/>
<path d="M0 0 C2.64 0.99 5.28 1.98 8 3 C7.55934629 8.43472908 5.3922929 12.77008951 3.05859375 17.609375 C1.86503651 19.86903526 1.86503651 19.86903526 2 22 C3.35544922 21.13375 3.35544922 21.13375 4.73828125 20.25 C5.92946562 19.49964764 7.12088415 18.74966693 8.3125 18 C8.90740234 17.6184375 9.50230469 17.236875 10.11523438 16.84375 C14.66015625 14 14.66015625 14 18 14 C18.33 16.31 18.66 18.62 19 21 C18.4423999 21.08934814 17.8847998 21.17869629 17.31030273 21.27075195 C9.64992937 22.77764615 1.46300479 25.14056067 -3.27203369 31.78497314 C-6.33111795 36.90842658 -8.65581449 42.34646524 -10.875 47.875 C-11.36373093 49.08755966 -11.36373093 49.08755966 -11.86233521 50.32461548 C-15.9338734 59.03286614 -15.9338734 59.03286614 -16 68 C-13.6854011 69.66376603 -13.6854011 69.66376603 -10.875 71.25 C-5.83498939 74.34451429 -1.98056056 77.67100841 2 82 C2.804375 82.7425 3.60875 83.485 4.4375 84.25 C14.93281439 95.51326422 21.41949864 108.48040172 21.2109375 124.0390625 C20.29389249 136.91165729 14.16147634 147.84190348 4.88671875 156.58984375 C-23.81884586 180.55646536 -66.1976623 188.42090501 -102.70898438 188.31567383 C-104.99917786 188.31250114 -107.28808825 188.33614945 -109.578125 188.36132812 C-132.2432231 188.45991489 -154.329862 183.08389487 -171.3125 167.3125 C-179.226653 159.08329314 -183.50840535 149.4156543 -183.328125 138.04296875 C-182.14172884 127.04055678 -173.82921465 112.82921465 -166 105 C-172.69803528 100.43429805 -179.51857714 96.11913123 -186.5 92 C-187.48097656 91.39027344 -188.46195313 90.78054687 -189.47265625 90.15234375 C-195.7483864 86.40997366 -195.7483864 86.40997366 -202.80859375 86.5234375 C-204.21541221 86.9872238 -205.61380871 87.47778394 -207 88 C-208.15628906 88.28101563 -209.31257813 88.56203125 -210.50390625 88.8515625 C-211.51324219 89.10679687 -212.52257812 89.36203125 -213.5625 89.625 C-215.11130859 90.01558594 -215.11130859 90.01558594 -216.69140625 90.4140625 C-217.45324219 90.60742188 -218.21507812 90.80078125 -219 91 C-220.49821059 87.62902617 -221 85.79557881 -221 82 C-214.565 81.505 -214.565 81.505 -208 81 C-208 80.34 -208 79.68 -208 79 C-209.30324219 78.61714844 -209.30324219 78.61714844 -210.6328125 78.2265625 C-214.09304519 76.96610651 -216.80561413 75.39630289 -219.875 73.375 C-221.32519531 72.42753906 -221.32519531 72.42753906 -222.8046875 71.4609375 C-223.52914062 70.97882813 -224.25359375 70.49671875 -225 70 C-224.01 67.03 -223.02 64.06 -222 61 C-217.78345644 62.48635116 -214.37521395 64.61249159 -210.6875 67.125 C-209.61886719 67.84945312 -208.55023438 68.57390625 -207.44921875 69.3203125 C-206.64097656 69.87460938 -205.83273438 70.42890625 -205 71 C-206.485 66.545 -206.485 66.545 -208 62 C-205.36 62 -202.72 62 -200 62 C-199.66048381 63.56116819 -199.32867456 65.12401338 -199 66.6875 C-198.814375 67.55761719 -198.62875 68.42773438 -198.4375 69.32421875 C-198.01027953 71.93712964 -197.92383799 74.35813038 -198 77 C-197.34128906 77.21398437 -196.68257812 77.42796875 -196.00390625 77.6484375 C-191.93221695 79.48043295 -188.54045462 82.00862138 -184.9375 84.625 C-183.42798092 85.70698253 -181.91755792 86.78770503 -180.40625 87.8671875 C-179.66375 88.39795898 -178.92125 88.92873047 -178.15625 89.47558594 C-173.51106981 92.75961052 -168.75828187 95.88282113 -164 99 C-163.4225 98.690625 -162.845 98.38125 -162.25 98.0625 C-158.16216216 96.13213213 -158.16216216 96.13213213 -156 96 C-153.203125 97.65234375 -153.203125 97.65234375 -150.25 99.9375 C-149.26515625 100.68902344 -148.2803125 101.44054687 -147.265625 102.21484375 C-146.51796875 102.80394531 -145.7703125 103.39304687 -145 104 C-145.24758057 104.49927002 -145.49516113 104.99854004 -145.75024414 105.51293945 C-146.86462193 107.77455589 -147.96366796 110.04329261 -149.0625 112.3125 C-149.45244141 113.09818359 -149.84238281 113.88386719 -150.24414062 114.69335938 C-150.60830078 115.45068359 -150.97246094 116.20800781 -151.34765625 116.98828125 C-151.68804932 117.68477783 -152.02844238 118.38127441 -152.37915039 119.09887695 C-153.26901951 121.18479044 -153.26901951 121.18479044 -152 124 C-149.78455344 125.43078425 -149.78455344 125.43078425 -147.125 126.625 C-146.24070312 127.05039063 -145.35640625 127.47578125 -144.4453125 127.9140625 C-140.56052027 129.63925777 -137.67597565 130.11997871 -133.45703125 130.09765625 C-132.38388672 130.09443359 -131.31074219 130.09121094 -130.20507812 130.08789062 C-128.52575195 130.07532227 -128.52575195 130.07532227 -126.8125 130.0625 C-125.68134766 130.05798828 -124.55019531 130.05347656 -123.38476562 130.04882812 C-120.58979073 130.03703498 -117.7949218 130.0205765 -115 130 C-115.02247803 129.32517578 -115.04495605 128.65035156 -115.06811523 127.95507812 C-115.21696442 119.7402493 -114.42121804 111.76643102 -113.34594727 103.64257812 C-113.05935162 101.47620138 -112.78368901 99.30863728 -112.50976562 97.140625 C-111.04478367 85.72149738 -111.04478367 85.72149738 -110 82 C-108.82195801 81.88724731 -108.82195801 81.88724731 -107.62011719 81.7722168 C-103.99577195 81.41995344 -100.37295201 81.0538045 -96.75 80.6875 C-94.89761719 80.51057617 -94.89761719 80.51057617 -93.0078125 80.33007812 C-81.98293295 79.19857733 -71.66902596 77.42168137 -61.8125 72.1875 C-61.13469482 71.8378418 -60.45688965 71.48818359 -59.75854492 71.12792969 C-53.57020871 67.88377498 -47.41003461 64.53362612 -42.5625 59.4375 C-40 58 -40 58 -37.72265625 58.3203125 C-32.64894552 59.76994414 -27.79513323 61.81091744 -23 64 C-22.83274414 63.40719238 -22.66548828 62.81438477 -22.49316406 62.20361328 C-21.14471163 57.5546199 -19.67015496 53.00724079 -17.921875 48.4921875 C-17.38820312 47.10580078 -17.38820312 47.10580078 -16.84375 45.69140625 C-16.10988699 43.801709 -15.36493149 41.91628491 -14.609375 40.03515625 C-11.27553442 31.27156797 -11.94778154 25.87859171 -15.5625 17.125 C-18 11.17280453 -18 11.17280453 -18 9 C-15.69 8.01 -13.38 7.02 -11 6 C-10.51801537 7.24891614 -10.03954323 8.49918808 -9.5625 9.75 C-9.29566406 10.44609375 -9.02882812 11.1421875 -8.75390625 11.859375 C-8 14 -8 14 -7 18 C-3.535 9.09 -3.535 9.09 0 0 Z " fill="#E3F2F6" transform="translate(230,68)"/>
<path d="M0 0 C3.54913097 2.02807484 5.69845872 4.09537617 7 8 C7.02723757 9.66644409 7.03019823 11.33360694 7 13 C8.25490234 12.41992188 8.25490234 12.41992188 9.53515625 11.828125 C33.04545319 1.30967543 57.8826131 -1.21101553 82.98046875 5.0859375 C86.2893046 5.90643677 89.2673709 6.11316858 92.6875 6.0625 C100.24918043 6.48917789 106.35615374 12.26829308 112.18212891 16.65478516 C114.72593 18.5371843 117.3503744 20.27055445 120 22 C119 24 119 24 116.76171875 24.7890625 C115.74722656 25.06492187 114.73273438 25.34078125 113.6875 25.625 C72.63357684 37.80239051 34.29376229 60.85642796 3.875 90.875 C3.07582153 91.66003906 3.07582153 91.66003906 2.26049805 92.4609375 C-0.99032735 95.73946731 -3.55531629 99.08148783 -6 103 C-8.7766173 99.60156819 -11.37670452 96.15112922 -13.8125 92.5 C-14.43769531 91.5821875 -15.06289063 90.664375 -15.70703125 89.71875 C-17.24710222 86.48041346 -17.11843909 85.35001662 -16 82 C-15.64035156 81.26523438 -15.28070313 80.53046875 -14.91015625 79.7734375 C-13.56237285 75.66645805 -14.09659448 71.89034865 -14.4375 67.625 C-15.1127892 57.33107202 -15.2366093 47.14055913 -13 37 C-13.60328125 36.91363281 -14.2065625 36.82726563 -14.828125 36.73828125 C-21.42074364 35.57925636 -21.42074364 35.57925636 -24.5 32.5 C-27.59202118 27.34663136 -27.57924171 22.95331759 -27 17 C-24.84253466 10.01168835 -20.01866689 5.01244459 -14 1 C-9.37939044 -0.54020319 -4.82536624 -0.51574193 0 0 Z " fill="#429EF4" transform="translate(66,0)"/>
<path d="M0 0 C3.6799821 22.07749054 3.6799821 22.07749054 1.14257812 28.00195312 C-1.75062524 31.60776815 -5.84610746 33.23828454 -10 35 C-11.18555621 35.62459526 -12.36405612 36.2627659 -13.53515625 36.9140625 C-16.94929383 38.78264917 -20.44734063 40.40857481 -24 42 C-24.84433594 42.40089844 -25.68867188 42.80179688 -26.55859375 43.21484375 C-39.18601378 48.56886984 -54.44715575 49.29491199 -68 49 C-69.69335683 64.99724161 -71.34837204 80.99840603 -73 97 C-77.56022735 98.2847259 -81.97694384 98.26073565 -86.6875 98.3125 C-87.54794922 98.34150391 -88.40839844 98.37050781 -89.29492188 98.40039062 C-98.25475955 98.48816598 -104.84661876 95.13576089 -112 90 C-110.60121198 85.53202662 -108.86369228 81.36177921 -106.875 77.125 C-106.33617188 75.97257812 -105.79734375 74.82015625 -105.2421875 73.6328125 C-104.83226563 72.76398438 -104.42234375 71.89515625 -104 71 C-105.55789683 69.86863414 -107.12153857 68.74517679 -108.6875 67.625 C-109.55761719 66.99851562 -110.42773438 66.37203125 -111.32421875 65.7265625 C-113.83596952 64.10584157 -116.19299187 63.00141912 -119 62 C-117.64635493 57.94618923 -115.9216046 55.54010485 -112.875 52.5625 C-112.07835938 51.7684375 -111.28171875 50.974375 -110.4609375 50.15625 C-108.19723952 48.17281939 -106.13136916 46.96843009 -103.5 45.5625 C-101.15716483 43.95877354 -100.16958788 42.77961216 -99.5625 39.98876953 C-98.92793705 34.66438975 -98.91018809 29.35503511 -99 24 C-98.12456543 23.83781982 -97.24913086 23.67563965 -96.34716797 23.50854492 C-86.95147549 21.70603316 -77.7444084 19.45017037 -68.51034546 16.95632935 C-53.59436663 12.93035279 -38.63648026 9.13378842 -23.59619141 5.60083008 C-17.56298961 4.16993254 -11.65378021 2.71137917 -5.84301758 0.53100586 C-4 0 -4 0 0 0 Z " fill="#FDB8E2" transform="translate(188,101)"/>
<path d="M0 0 C3.54913097 2.02807484 5.69845872 4.09537617 7 8 C7.02723757 9.66644409 7.03019823 11.33360694 7 13 C8.25490234 12.41992188 8.25490234 12.41992188 9.53515625 11.828125 C34.04685702 0.8616498 61.04949705 -1.77947244 87 6 C87.99 6.66 88.98 7.32 90 8 C89.30140869 8.20044922 88.60281738 8.40089844 87.88305664 8.60742188 C48.14887197 20.11946947 15.62810563 39.74269973 -8.7421875 73.8671875 C-11 77 -11 77 -13 79 C-14.72882882 75.54234236 -14.43796523 71.62920007 -14.625 67.8125 C-14.66931152 66.91716553 -14.71362305 66.02183105 -14.75927734 65.09936523 C-15.15691493 55.68441459 -15.03824438 46.24119272 -13 37 C-13.60328125 36.91363281 -14.2065625 36.82726563 -14.828125 36.73828125 C-21.42074364 35.57925636 -21.42074364 35.57925636 -24.5 32.5 C-27.59202118 27.34663136 -27.57924171 22.95331759 -27 17 C-24.84253466 10.01168835 -20.01866689 5.01244459 -14 1 C-9.37939044 -0.54020319 -4.82536624 -0.51574193 0 0 Z " fill="#FDAE74" transform="translate(66,0)"/>
<path d="M0 0 C1.1034375 0.15339844 2.206875 0.30679688 3.34375 0.46484375 C8.3851341 1.09501676 13.42686479 1.33760084 18.5 1.5625 C19.4178125 1.60568359 20.335625 1.64886719 21.28125 1.69335938 C23.52072061 1.79833456 25.76028092 1.90049248 28 2 C28 2.33 28 2.66 28 3 C24.37 3 20.74 3 17 3 C15.30664317 18.99724161 13.65162796 34.99840603 12 51 C11.67 50.34 11.34 49.68 11 49 C10.01 49.33 9.02 49.66 8 50 C-2.17287004 50.94265475 -12.85804269 51.06039657 -22 46 C-22.66 45.34 -23.32 44.68 -24 44 C-23.7789892 38.40672666 -21.21384214 33.94966035 -18.625 29.125 C-17.96757813 27.88556641 -17.96757813 27.88556641 -17.296875 26.62109375 C-12.79575478 18.31817989 -7.51125113 10.65451546 -2 3 C-1.34 2.01 -0.68 1.02 0 0 Z " fill="#FCB8E3" transform="translate(103,147)"/>
<path d="M0 0 C2.16446678 1.58125182 4.04709388 3.15265637 6 5 C6 5.66 6 6.32 6 7 C2.77509592 5.54806355 0.32613716 3.70740298 -2.375 1.4375 C-5.86898215 -1.33577626 -8.381544 -3 -13 -3 C-14.22109334 -1.99850555 -14.22109334 -1.99850555 -14.1328125 0.00390625 C-14.11624524 5.42968519 -13.79527078 10.63192227 -13 16 C-13.639375 15.34 -14.27875 14.68 -14.9375 14 C-17.42642298 11.52529944 -19.97628871 9.12282752 -22.5625 6.75 C-23.67818359 5.72132812 -23.67818359 5.72132812 -24.81640625 4.671875 C-26.96702962 3.02524387 -28.35532825 2.40779519 -31 2 C-31.13794954 9.06608191 -30.74805717 15.97360585 -30 23 C-32.51877329 20.55119263 -34.89017149 18.13978175 -37.0625 15.375 C-38.93971004 13.07390382 -40.43083239 11.47921772 -43 10 C-45.66761764 9.74875174 -45.66761764 9.74875174 -48 10 C-48.13292199 17.70947565 -47.61205763 25.3164908 -47 33 C-50.39272016 29.86587131 -52.72486875 26.09509733 -55.28125 22.27734375 C-56.96634245 19.78412071 -56.96634245 19.78412071 -60 18 C-62.62531524 17.83286431 -62.62531524 17.83286431 -65 18 C-65.26442904 25.59498961 -64.60881575 32.57359158 -63 40 C-63.63615234 39.41992188 -63.63615234 39.41992188 -64.28515625 38.828125 C-71.24683631 32.41906903 -71.24683631 32.41906903 -80 30 C-79.5748339 36.48378304 -78.19701754 41.69627769 -75.7421875 47.71484375 C-75 50 -75 50 -76 52 C-76.43570313 51.60167969 -76.87140625 51.20335937 -77.3203125 50.79296875 C-82.18454493 46.46569704 -86.21957009 43 -93 43 C-92.46048934 49.68993219 -91.11293829 55.63460728 -89 62 C-89.58007812 61.57847656 -90.16015625 61.15695313 -90.7578125 60.72265625 C-96.81444492 56.46953991 -96.81444492 56.46953991 -104 55 C-102.56115528 63.63846539 -102.56115528 63.63846539 -100 72 C-104.03520597 70.41037341 -108.01811282 68.71767682 -112 67 C-111.73445313 67.51949219 -111.46890625 68.03898437 -111.1953125 68.57421875 C-109.29301903 72.33020694 -107.48040295 76.05225879 -106 80 C-111.6933523 74.61439647 -114.22670973 70.8875608 -115 63 C-114.34 63 -113.68 63 -113 63 C-112.78601563 62.32582031 -112.57203125 61.65164062 -112.3515625 60.95703125 C-110.56087675 57.03925926 -108.09960544 54.00266631 -105.375 50.6875 C-104.80378418 49.99180908 -104.23256836 49.29611816 -103.64404297 48.5793457 C-80.51975084 20.90667506 -51.82413777 2.28132306 -17 -7 C-16.22140625 -7.22945312 -15.4428125 -7.45890625 -14.640625 -7.6953125 C-10.09656036 -8.53921022 -3.63652951 -2.41923834 0 0 Z " fill="#469FF2" transform="translate(167,16)"/>
<path d="M0 0 C3.67209629 2.09834073 5.45284894 4.11477761 7 8 C7.31937359 14.85588634 6.11528318 21.42673078 2 27 C-3.20619297 32.51115825 -7.8145456 35.95717464 -15.5 36.375 C-18.84123579 36.29716755 -19.95982513 36.02393397 -22.9375 34.25 C-27.12218045 29.68489406 -27.43730557 25.86527866 -27.31640625 19.8203125 C-26.43709272 11.98248083 -21.78130745 7.1140179 -15.875 2.25 C-11.13373951 -0.91084033 -5.47718599 -0.58540934 0 0 Z " fill="#439FF4" transform="translate(66,0)"/>
<path d="M0 0 C2.64 0.99 5.28 1.98 8 3 C7.55934629 8.43472908 5.3922929 12.77008951 3.05859375 17.609375 C1.86503651 19.86903526 1.86503651 19.86903526 2 22 C2.90363281 21.4225 3.80726563 20.845 4.73828125 20.25 C5.92946562 19.49964764 7.12088415 18.74966693 8.3125 18 C8.90740234 17.6184375 9.50230469 17.236875 10.11523438 16.84375 C14.66015625 14 14.66015625 14 18 14 C18.495 17.465 18.495 17.465 19 21 C18.4423999 21.08934814 17.8847998 21.17869629 17.31030273 21.27075195 C9.71398923 22.76504475 1.45331397 25.12568136 -3.22918701 31.73498535 C-8.21892602 40.20993479 -11.47163326 49.67424368 -14.760849 58.90699768 C-16.76105837 64.51023585 -19.16807628 69.76446147 -22 75 C-22.67086345 76.33122667 -23.33881137 77.66394169 -24 79 C-24.99 78.67 -25.98 78.34 -27 78 C-25.6976685 71.61602208 -23.96186464 65.622733 -21.75 59.5 C-21.44642578 58.63922852 -21.14285156 57.77845703 -20.83007812 56.89160156 C-19.32759908 52.64186612 -17.78482353 48.41218591 -16.171875 44.203125 C-15.88989258 43.45095703 -15.60791016 42.69878906 -15.31738281 41.92382812 C-14.78991188 40.52102013 -14.24854082 39.12332368 -13.69042969 37.73242188 C-10.86791984 30.16244282 -12.56557665 24.3825067 -15.5625 17.125 C-18 11.17280453 -18 11.17280453 -18 9 C-15.69 8.01 -13.38 7.02 -11 6 C-10.51801537 7.24891614 -10.03954323 8.49918808 -9.5625 9.75 C-9.29566406 10.44609375 -9.02882812 11.1421875 -8.75390625 11.859375 C-8 14 -8 14 -7 18 C-4.69 12.06 -2.38 6.12 0 0 Z " fill="#FE7942" transform="translate(230,68)"/>
<path d="M0 0 C-7.62567462 9.58656238 -16.70604146 17.76580277 -26.875 24.5625 C-27.48077881 24.96766846 -28.08655762 25.37283691 -28.71069336 25.7902832 C-35.25353627 30.01798011 -41.0629722 32.91080647 -49 32 C-51.94272807 29.83167405 -53.78313757 27.44777688 -55 24 C-55.02992184 22.00022384 -55.03269318 19.99973277 -55 18 C-17.38671848 -0.57955728 -17.38671848 -0.57955728 0 0 Z " fill="#FE824B" transform="translate(183,56)"/>
<path d="M0 0 C4.21654356 1.48635116 7.62478605 3.61249159 11.3125 6.125 C12.38113281 6.84945312 13.44976563 7.57390625 14.55078125 8.3203125 C15.76314453 9.15175781 15.76314453 9.15175781 17 10 C15.515 5.545 15.515 5.545 14 1 C16.64 1 19.28 1 22 1 C22.33951619 2.56116819 22.67132544 4.12401338 23 5.6875 C23.185625 6.55761719 23.37125 7.42773438 23.5625 8.32421875 C23.98972047 10.93712964 24.07616201 13.35813038 24 16 C24.66128906 16.21527344 25.32257812 16.43054688 26.00390625 16.65234375 C30.0341007 18.46514308 33.37627915 20.96674783 36.9375 23.5625 C43.48808624 28.28306767 50.13704663 32.69181728 57.046875 36.8671875 C60.40065449 39.28936158 62.48823768 41.73470898 65 45 C62 46 62 46 59.2421875 44.91796875 C58.13101563 44.34691406 57.01984375 43.77585938 55.875 43.1875 C55.26970459 42.87707764 54.66440918 42.56665527 54.04077148 42.24682617 C47.52564432 38.85103791 41.21226521 35.10439918 34.91015625 31.33203125 C34.256521 30.94426514 33.60288574 30.55649902 32.92944336 30.15698242 C31.6396113 29.38354017 30.35904415 28.59444053 29.08813477 27.7902832 C25.66722299 25.64703042 25.66722299 25.64703042 21.76953125 24.94140625 C21.12371094 25.14636719 20.47789063 25.35132813 19.8125 25.5625 C19.06742188 25.77777344 18.32234375 25.99304688 17.5546875 26.21484375 C16.29011719 26.60349609 16.29011719 26.60349609 15 27 C12.81465243 27.55028632 10.62707295 28.09177459 8.4375 28.625 C6.62470361 29.08215964 4.81209723 29.54007684 3 30 C1.50178941 26.62902617 1 24.79557881 1 21 C7.435 20.505 7.435 20.505 14 20 C14 19.34 14 18.68 14 18 C12.69675781 17.61714844 12.69675781 17.61714844 11.3671875 17.2265625 C7.90695481 15.96610651 5.19438587 14.39630289 2.125 12.375 C1.15820312 11.74335938 0.19140625 11.11171875 -0.8046875 10.4609375 C-1.52914063 9.97882813 -2.25359375 9.49671875 -3 9 C-2.01 6.03 -1.02 3.06 0 0 Z " fill="#FE7841" transform="translate(8,129)"/>
<path d="M0 0 C4.71320756 0.51518074 7.74398212 1.76798818 11.6875 4.375 C12.61949219 4.98085937 13.55148438 5.58671875 14.51171875 6.2109375 C16.5867465 7.70287268 18.36547984 9.04294911 20 11 C20 11.66 20 12.32 20 13 C16.77509592 11.54806355 14.32613716 9.70740298 11.625 7.4375 C8.13101785 4.66422374 5.618456 3 1 3 C-0.22109334 4.00149445 -0.22109334 4.00149445 -0.1328125 6.00390625 C-0.11624524 11.42968519 0.20472922 16.63192227 1 22 C0.360625 21.34 -0.27875 20.68 -0.9375 20 C-3.42642298 17.52529944 -5.97628871 15.12282752 -8.5625 12.75 C-9.67818359 11.72132812 -9.67818359 11.72132812 -10.81640625 10.671875 C-12.96702962 9.02524387 -14.35532825 8.40779519 -17 8 C-17.13794954 15.06608191 -16.74805717 21.97360585 -16 29 C-18.51877329 26.55119263 -20.89017149 24.13978175 -23.0625 21.375 C-24.93971004 19.07390382 -26.43083239 17.47921772 -29 16 C-31.66761764 15.74875174 -31.66761764 15.74875174 -34 16 C-34.13292199 23.70947565 -33.61205763 31.3164908 -33 39 C-36.39272016 35.86587131 -38.72486875 32.09509733 -41.28125 28.27734375 C-42.96634245 25.78412071 -42.96634245 25.78412071 -46 24 C-48.62531524 23.83286431 -48.62531524 23.83286431 -51 24 C-51.26442904 31.59498961 -50.60881575 38.57359158 -49 46 C-49.63615234 45.41992188 -49.63615234 45.41992188 -50.28515625 44.828125 C-57.24683631 38.41906903 -57.24683631 38.41906903 -66 36 C-65.5748339 42.48378304 -64.19701754 47.69627769 -61.7421875 53.71484375 C-61 56 -61 56 -62 58 C-62.43570313 57.60167969 -62.87140625 57.20335937 -63.3203125 56.79296875 C-68.18454493 52.46569704 -72.21957009 49 -79 49 C-78.46048934 55.68993219 -77.11293829 61.63460728 -75 68 C-75.58007812 67.57847656 -76.16015625 67.15695313 -76.7578125 66.72265625 C-82.81444492 62.46953991 -82.81444492 62.46953991 -90 61 C-88.56115528 69.63846539 -88.56115528 69.63846539 -86 78 C-90.03520597 76.41037341 -94.01811282 74.71767682 -98 73 C-97.73445313 73.51949219 -97.46890625 74.03898437 -97.1953125 74.57421875 C-95.29301903 78.33020694 -93.48040295 82.05225879 -92 86 C-95.25537019 82.92059576 -98.14619454 80.1195677 -100 76 C-99.6875 73.1875 -99.6875 73.1875 -99 71 C-98.05125 71.165 -97.1025 71.33 -96.125 71.5 C-93.19831099 72.0526635 -93.19831099 72.0526635 -91 72 C-91.165 71.484375 -91.33 70.96875 -91.5 70.4375 C-92.15934906 67.22317332 -92.18175217 64.27153915 -92 61 C-91.34 60.34 -90.68 59.68 -90 59 C-85.90823045 59.30309404 -82.53834904 59.87699058 -79 62 C-79.33 61.360625 -79.66 60.72125 -80 60.0625 C-81.3058649 56.06328874 -81.55830623 52.1790863 -81 48 C-80.34 47.34 -79.68 46.68 -79 46 C-73.77636459 46.24295979 -70.33455057 48.31257865 -66 51 C-66.495 49.824375 -66.495 49.824375 -67 48.625 C-68.26231893 44.04909387 -68.38257801 39.72439351 -68 35 C-67 34 -67 34 -63.875 33.5625 C-58.74722509 34.14144233 -56.5137462 36.41149325 -53 40 C-53.165 39.175 -53.33 38.35 -53.5 37.5 C-54.86746988 27.92771084 -54.86746988 27.92771084 -52.875 23.5 C-51 22 -51 22 -48.25 21.375 C-43.71541838 22.24703493 -41.11764682 24.68481633 -38 28 C-37.505 28.99 -37.505 28.99 -37 30 C-36.95101562 28.94039062 -36.90203125 27.88078125 -36.8515625 26.7890625 C-36.77653291 25.40101503 -36.70098515 24.01299549 -36.625 22.625 C-36.57859375 21.57699219 -36.57859375 21.57699219 -36.53125 20.5078125 C-36.2265625 15.2265625 -36.2265625 15.2265625 -34 13 C-30.62601275 12.45562559 -29.35393131 12.74791538 -26.54296875 14.75 C-25.76566406 15.4925 -24.98835938 16.235 -24.1875 17 C-23.39730469 17.7425 -22.60710937 18.485 -21.79296875 19.25 C-21.20128906 19.8275 -20.60960937 20.405 -20 21 C-19.92652344 19.62714844 -19.92652344 19.62714844 -19.8515625 18.2265625 C-19.77679688 17.03804687 -19.70203125 15.84953125 -19.625 14.625 C-19.55539063 13.44164062 -19.48578125 12.25828125 -19.4140625 11.0390625 C-19 8 -19 8 -17 6 C-12.86102231 6.27410448 -10.73443116 7.7206061 -7.75 10.5 C-7.06421875 11.1290625 -6.3784375 11.758125 -5.671875 12.40625 C-4.77343369 13.26270808 -3.87770076 14.12229924 -3 15 C-3.05220703 13.87851562 -3.05220703 13.87851562 -3.10546875 12.734375 C-3.13253906 11.74953125 -3.15960938 10.7646875 -3.1875 9.75 C-3.23970703 8.28820312 -3.23970703 8.28820312 -3.29296875 6.796875 C-2.96075202 3.62531258 -2.11327721 2.32959693 0 0 Z " fill="#80C6ED" transform="translate(153,10)"/>
<path d="M0 0 C-0.5979303 2.91785198 -1.45672757 4.97865855 -3.14453125 7.42578125 C-3.57443359 8.05806641 -4.00433594 8.69035156 -4.44726562 9.34179688 C-4.89779297 9.99212891 -5.34832031 10.64246094 -5.8125 11.3125 C-9.10541813 16.10439701 -12.17737258 20.914007 -15 26 C-19.00456691 24.66514436 -21.94002534 22.65718033 -25.28515625 20.17578125 C-27.40274607 18.72385748 -29.56995328 17.81001557 -32 17 C-29.93165563 10.80585291 -25.68552588 7.34434682 -21 3 C-20.36835937 2.33355469 -19.73671875 1.66710937 -19.0859375 0.98046875 C-13.0092329 -4.74714856 -7.36701789 -2.49310666 0 0 Z " fill="#FCB7E2" transform="translate(101,146)"/>
<path d="M0 0 C2.49172753 1.78893259 4.06315899 3.00131799 5.4375 5.75 C5.625 8.1875 5.625 8.1875 4.4375 10.75 C0.33179579 14.8333906 -3.91349684 16.11159285 -9.625 16.3125 C-15.03869223 16.08635843 -18.2557539 15.00398594 -22.5625 11.75 C-23.99985246 8.87529507 -23.94422649 6.93105412 -23.5625 3.75 C-17.27255269 -2.53994731 -8.13898462 -2.85578408 0 0 Z " fill="#A070E6" transform="translate(171.5625,179.25)"/>
<path d="M0 0 C-2.42187795 7.26563386 -12.55254362 11.45163202 -19 14.75 C-34.20604668 22.01382426 -47.96548358 24.35523904 -64.8125 24.25 C-66.06998047 24.25773437 -67.32746094 24.26546875 -68.62304688 24.2734375 C-75.09764047 24.2597996 -80.81395122 23.95594014 -87 22 C-87.28359375 22.589021 -87.5671875 23.17804199 -87.859375 23.78491211 C-88.88710052 25.7807498 -89.99182141 27.58585495 -91.25 29.44140625 C-96.43188057 37.1933171 -101.32034561 45.04093767 -105.75 53.25 C-106.19214844 54.04736572 -106.63429688 54.84473145 -107.08984375 55.66625977 C-108.80570764 58.91716936 -109.99236781 61.18989792 -110.02734375 64.90234375 C-108.67224916 67.66920988 -107.68160869 68.2040844 -104.8125 69.3125 C-95.65702829 72.34403252 -85.5177438 71.32745976 -76 71 C-76 71.66 -76 72.32 -76 73 C-80.21096652 74.40365551 -84.21275873 74.26447125 -88.625 74.3125 C-89.48996094 74.34150391 -90.35492188 74.37050781 -91.24609375 74.40039062 C-100.23210668 74.48796047 -106.82484095 71.15139624 -114 66 C-112.52466668 61.10250176 -110.50909825 56.74967672 -108.125 52.25 C-107.74077881 51.52208252 -107.35655762 50.79416504 -106.96069336 50.04418945 C-102.58464054 41.94879376 -97.43811528 34.38293392 -92.18579102 26.83666992 C-90.96732773 24.94939398 -89.96717645 23.02589173 -89 21 C-90.2375 20.855625 -91.475 20.71125 -92.75 20.5625 C-95.56504499 20.21311498 -98.2701497 19.79620634 -101 19 C-101 18.34 -101 17.68 -101 17 C-100.40574219 17.12117188 -99.81148437 17.24234375 -99.19921875 17.3671875 C-98.37035156 17.53476563 -97.54148437 17.70234375 -96.6875 17.875 C-95.88699219 18.03742188 -95.08648437 18.19984375 -94.26171875 18.3671875 C-92.64716797 18.68042969 -92.64716797 18.68042969 -91 19 C-90.24960449 19.16685303 -89.49920898 19.33370605 -88.72607422 19.50561523 C-80.72007708 21.1661569 -72.90733153 21.33243483 -64.75 21.3125 C-63.44675781 21.32861328 -62.14351562 21.34472656 -60.80078125 21.36132812 C-40.28607721 21.37149398 -18.69805929 15.86175342 -3.55859375 1.3203125 C-2 0 -2 0 0 0 Z " fill="#374D62" transform="translate(190,125)"/>
<path d="M0 0 C0.66 0 1.32 0 2 0 C2.33 2.31 2.66 4.62 3 7 C4.65 5.68 6.3 4.36 8 3 C7.45276317 6.37462715 6.9451 8.08235 5 11 C6.65 11 8.3 11 10 11 C10 11.66 10 12.32 10 13 C8.02 13.99 8.02 13.99 6 15 C6.99 16.485 6.99 16.485 8 18 C8 18.99 8 19.98 8 21 C4.125 20.125 4.125 20.125 3 19 C2.67 21.31 2.34 23.62 2 26 C1.34 26 0.68 26 0 26 C-0.66 24.35 -1.32 22.7 -2 21 C-2.99 22.98 -3.98 24.96 -5 27 C-5.93065133 24.39417629 -6.14917407 23.35801776 -5.0625 20.75 C-4.711875 20.1725 -4.36125 19.595 -4 19 C-5.051875 19.495 -6.10375 19.99 -7.1875 20.5 C-10.25452609 21.82779788 -12.62134936 22.30715006 -16 22 C-16 21.34 -16 20.68 -16 20 C-14.68 19.34 -13.36 18.68 -12 18 C-12.99 17.34 -13.98 16.68 -15 16 C-15 15.01 -15 14.02 -15 13 C-13.02 13 -11.04 13 -9 13 C-9.495 12.38125 -9.99 11.7625 -10.5 11.125 C-12 9 -12 9 -12 7 C-9.525 7.99 -9.525 7.99 -7 9 C-5.64381501 7.87465895 -5.64381501 7.87465895 -5.9375 4.9375 C-5.958125 3.968125 -5.97875 2.99875 -6 2 C-3 3 -3 3 -2 5 C-1.34 3.35 -0.68 1.7 0 0 Z " fill="#88CBEC" transform="translate(59,4)"/>
<path d="M0 0 C3 1.5625 3 1.5625 5 4 C5.5625 7.5625 5.5625 7.5625 5 11 C2.00807469 13.98501555 -0.34617599 14.4317942 -4.5 14.4375 C-8.01942701 14.32942681 -9.64006152 14.21763722 -12.6875 12.375 C-14.43516122 9.21256541 -14.74038068 7.55382726 -14 4 C-9.48482636 -0.28941496 -5.92136326 -0.75191914 0 0 Z " fill="#A271E8" transform="translate(170,207)"/>
<path d="M0 0 C3.7483731 1.4967462 3.7483731 1.4967462 5 4 C5.45693563 9.36899365 5.45693563 9.36899365 3.6875 11.8125 C-0.12495631 14.49533962 -4.50969282 14.62025644 -9 14 C-12 12.375 -12 12.375 -14 10 C-14.66713166 6.44196446 -14.43667679 4.75425992 -12.625 1.625 C-8.62785688 -0.84942193 -4.58693094 -0.63217317 0 0 Z " fill="#A16FE8" transform="translate(160,153)"/>
<path d="M0 0 C-5.30172829 2.45167904 -10.48074847 4.01378377 -16.16015625 5.33984375 C-17.02708603 5.54807266 -17.89401581 5.75630157 -18.78721619 5.97084045 C-21.54428088 6.63226425 -24.30320421 7.28545227 -27.0625 7.9375 C-30.6793414 8.79681706 -34.29522208 9.66003851 -37.91015625 10.52734375 C-38.78985077 10.73827667 -39.66954529 10.94920959 -40.57589722 11.16653442 C-46.65683745 12.63881169 -52.65584849 14.29039528 -58.65991211 16.05102539 C-64.81110379 17.79868141 -71.03143152 19.26392158 -77.25 20.75 C-78.56645803 21.06879667 -79.88286449 21.38780637 -81.19921875 21.70703125 C-90.7383658 24 -90.7383658 24 -93 24 C-93 23.34 -93 22.68 -93 22 C-89.81124569 21.16908739 -86.62243111 20.33840633 -83.43359375 19.5078125 C-82.42834152 19.24597168 -81.42308929 18.98413086 -80.38737488 18.71435547 C-74.79775937 17.25887425 -69.20764896 15.80532857 -63.61669922 14.35498047 C-61.91117889 13.91253494 -61.91117889 13.91253494 -60.17120361 13.46115112 C-57.85119026 12.85930965 -55.53116246 12.25752385 -53.21112061 11.65579224 C-46.78992403 9.98892979 -40.37177454 8.311178 -33.95735168 6.61843872 C-30.35584984 5.66918514 -26.75249086 4.72712811 -23.14871216 3.78656006 C-21.47112144 3.34680031 -19.79441251 2.90366237 -18.11862183 2.45709229 C-15.80260919 1.84032158 -13.48384328 1.23522826 -11.1640625 0.6328125 C-10.49030075 0.45016846 -9.816539 0.26752441 -9.12236023 0.0793457 C-5.76770035 -0.77855929 -3.28579254 -1.27442032 0 0 Z " fill="#3C4A63" transform="translate(185,106)"/>
<path d="M0 0 C-2.42187795 7.26563386 -12.55254362 11.45163202 -19 14.75 C-34.42592496 22.1188586 -48.22392111 24.34973599 -65.3125 24.125 C-66.65038379 24.11493218 -67.98827507 24.10581316 -69.32617188 24.09765625 C-72.55097962 24.07437244 -75.77538654 24.0416741 -79 24 C-79 23.67 -79 23.34 -79 23 C-75.47748888 22.20634043 -72.17776749 21.85750682 -68.5703125 21.7890625 C-45.16124898 21.19891804 -21.27947361 18.34119919 -3.55859375 1.3203125 C-2 0 -2 0 0 0 Z " fill="#445169" transform="translate(190,125)"/>
<path d="M0 0 C0.66 0.33 1.32 0.66 2 1 C1.67 4.3 1.34 7.6 1 11 C0.67 10.34 0.34 9.68 0 9 C-0.66 9 -1.32 9 -2 9 C-0.90931332 12.77545388 -0.0916909 15.47043472 3 18 C2 19 2 19 -0.8125 19.3125 C-4 19 -4 19 -6.25 17.25 C-9.54778735 13.00998769 -10.24691629 10.43215843 -10 5 C-8.38007835 4.13624104 -6.75388139 3.28424146 -5.125 2.4375 C-4.22007812 1.96183594 -3.31515625 1.48617187 -2.3828125 0.99609375 C-1.20332031 0.50302734 -1.20332031 0.50302734 0 0 Z " fill="#FE7C46" transform="translate(138,69)"/>
<path d="M0 0 C5.37583893 0.59731544 5.37583893 0.59731544 7.9375 2.25 C9 4 9 4 9 6.4375 C7.71179042 9.73853706 5.87256119 11.01130379 3 13 C3.433125 13.49628906 3.86625 13.99257812 4.3125 14.50390625 C7.16668621 17.98574915 8.87209914 20.23259483 9.625 24.75 C8.89031793 28.57034677 8.11561316 29.72644445 5 32 C0.97593845 34.1751684 -2.47687214 34.17737756 -7 34 C-6.34 34.99 -5.68 35.98 -5 37 C-5.1875 39.5625 -5.1875 39.5625 -6 42 C-6.99 42.66 -7.98 43.32 -9 44 C-8.67 41.03 -8.34 38.06 -8 35 C-8.99 34.67 -9.98 34.34 -11 34 C-11 33.67 -11 33.34 -11 33 C-10.19175781 32.89042969 -9.38351563 32.78085938 -8.55078125 32.66796875 C-7.48214844 32.50941406 -6.41351563 32.35085937 -5.3125 32.1875 C-4.25675781 32.03667969 -3.20101562 31.88585937 -2.11328125 31.73046875 C1.15809965 30.9629051 3.32818772 30.02940933 6 28 C6.67224516 24.50432519 6.64578116 22.2013429 4.9375 19.0234375 C2.49398163 15.43275994 2.49398163 15.43275994 -1 13 C-1 12.34 -1 11.68 -1 11 C-0.030625 10.5875 0.93875 10.175 1.9375 9.75 C5.12260099 8.35100832 5.12260099 8.35100832 5.875 5.8125 C5.91625 5.214375 5.9575 4.61625 6 4 C4.02 3.01 2.04 2.02 0 1 C0 0.67 0 0.34 0 0 Z " fill="#9AD4ED" transform="translate(223,180)"/>
<path d="M0 0 C0.66 0 1.32 0 2 0 C2.06058594 0.71027344 2.12117188 1.42054688 2.18359375 2.15234375 C2.26738281 3.07144531 2.35117188 3.99054688 2.4375 4.9375 C2.51871094 5.85402344 2.59992188 6.77054688 2.68359375 7.71484375 C2.76044976 9.96159732 2.76044976 9.96159732 4 11 C5.34747084 11.23075082 6.70377565 11.41153063 8.0625 11.5625 C9.361875 11.706875 10.66125 11.85125 12 12 C12.33 13.32 12.66 14.64 13 16 C13.928125 16.020625 14.85625 16.04125 15.8125 16.0625 C17.3903125 16.5265625 17.3903125 16.5265625 19 17 C20.75 20.5 20.75 20.5 22 24 C25.60639579 25.80319789 29.42778318 25.47193943 33.23828125 24.328125 C35.17683351 23.59815505 37.09089266 22.80383467 39 22 C38 25 38 25 36.36328125 25.94921875 C32.14928914 27.46625591 28.52857667 28.70444526 24 28 C20.72415631 26.03449378 19.27941311 24.94570593 18.1875 21.25 C18.125625 20.5075 18.06375 19.765 18 19 C16.02 19 14.04 19 12 19 C11.34 17.35 10.68 15.7 10 14 C9.0925 14.103125 8.185 14.20625 7.25 14.3125 C4 14 4 14 1.625 12.0625 C-0.55752445 7.94928084 -0.35766296 4.56020278 0 0 Z " fill="#9DD5EE" transform="translate(66,218)"/>
<path d="M0 0 C0.78697266 0.16435547 0.78697266 0.16435547 1.58984375 0.33203125 C10.02940695 2.05926299 18.51385384 3.52329243 27 5 C27 5.33 27 5.66 27 6 C25.39592672 6.02708567 23.7917215 6.04643483 22.1875 6.0625 C20.84751953 6.07990234 20.84751953 6.07990234 19.48046875 6.09765625 C17 6 17 6 14 5 C13.72075684 5.57959473 13.44151367 6.15918945 13.15380859 6.75634766 C12.05264502 8.89762849 10.85154836 10.88118108 9.5390625 12.8984375 C9.06726563 13.62546875 8.59546875 14.3525 8.109375 15.1015625 C7.37460938 16.22691406 7.37460938 16.22691406 6.625 17.375 C5.90183594 18.48875 5.90183594 18.48875 5.1640625 19.625 C2.47002472 23.76854724 -0.24946753 27.89375484 -3 32 C-3.33 31.34 -3.66 30.68 -4 30 C-2.72186076 27.53995788 -1.39597734 25.22514768 0.0625 22.875 C0.475 22.19791992 0.8875 21.52083984 1.3125 20.82324219 C3.95480732 16.53669534 6.73149804 12.43115242 9.90625 8.515625 C11.20991129 6.86814368 11.20991129 6.86814368 12 4 C10.7625 3.855625 9.525 3.71125 8.25 3.5625 C5.43495501 3.21311498 2.7298503 2.79620634 0 2 C0 1.34 0 0.68 0 0 Z " fill="#293F56" transform="translate(89,142)"/>
<path d="M0 0 C2.0625 0.25 2.0625 0.25 4 1 C5.58493084 4.16986168 5.2940042 7.54032261 5 11 C4 13.5 4 13.5 3 15 C1.68 15 0.36 15 -1 15 C-2.30089831 12.39820337 -2.16840078 10.4030812 -2.1875 7.5 C-2.20167969 6.5203125 -2.21585937 5.540625 -2.23046875 4.53125 C-2 2 -2 2 0 0 Z " fill="#082F42" transform="translate(120,59)"/>
<path d="M0 0 C2.875 0.1875 2.875 0.1875 6 1 C7.375 3.5625 7.375 3.5625 8 6 C8.53625 5.649375 9.0725 5.29875 9.625 4.9375 C12.73274763 3.71075751 14.79431703 4.27143569 18 5 C18.33 6.65 18.66 8.3 19 10 C19.515625 9.649375 20.03125 9.29875 20.5625 8.9375 C24.02765382 7.60474853 26.43042427 8.1562821 30 9 C31.9375 10.4375 31.9375 10.4375 33 12 C33 12.66 33 13.32 33 14 C32.34 14 31.68 14 31 14 C30.34 13.01 29.68 12.02 29 11 C23.99388969 10.43327053 21.06965968 11.04024751 17 14 C16.67 11.69 16.34 9.38 16 7 C11.545 7.495 11.545 7.495 7 8 C6.608125 7.195625 6.21625 6.39125 5.8125 5.5625 C4.23051809 2.76935262 4.23051809 2.76935262 1.3125 2.1875 C0.1678125 2.0946875 0.1678125 2.0946875 -1 2 C-0.67 1.34 -0.34 0.68 0 0 Z " fill="#9BD3EB" transform="translate(188,142)"/>
<path d="M0 0 C1.65 0.33 3.3 0.66 5 1 C5 4.63 5 8.26 5 12 C3.02 12.99 3.02 12.99 1 14 C-1.105184 10.842224 -1.25289344 10.04602866 -1.1875 6.4375 C-1.18105469 5.65246094 -1.17460937 4.86742187 -1.16796875 4.05859375 C-1 2 -1 2 0 0 Z " fill="#0A3143" transform="translate(134,55)"/>
<path d="M0 0 C0.12117188 0.75925781 0.24234375 1.51851563 0.3671875 2.30078125 C0.53476563 3.29464844 0.70234375 4.28851563 0.875 5.3125 C1.11863281 6.79169922 1.11863281 6.79169922 1.3671875 8.30078125 C1.88085454 11.20059827 1.88085454 11.20059827 4 14 C9.50740673 14.54171214 12.39505474 14.25054959 17 11 C17.66 11 18.32 11 19 11 C18 14 18 14 14.875 15.6875 C11.14133218 17.12883378 8.01302113 17.53002166 4 17 C-0.61115775 14.05398255 -1.58685184 9.01025256 -3 4 C-3.99 4.66 -4.98 5.32 -6 6 C-6.99 5.67 -7.98 5.34 -9 5 C-7.87926138 4.16094435 -6.75325453 3.32892169 -5.625 2.5 C-4.99851562 2.0359375 -4.37203125 1.571875 -3.7265625 1.09375 C-2 0 -2 0 0 0 Z " fill="#2B4E5E" transform="translate(122,83)"/>
<path d="M0 0 C0.33 0 0.66 0 1 0 C1.66 2.64 2.32 5.28 3 8 C7.82360189 8.19294408 11.49646738 7.75747614 16 6 C16.66 7.98 17.32 9.96 18 12 C21.54518884 10.60240095 21.54518884 10.60240095 25 9 C23.63016497 12.16115776 23.0109362 12.9927092 20 15 C17.8125 14.625 17.8125 14.625 16 14 C15.67 12.35 15.34 10.7 15 9 C14.319375 9.33 13.63875 9.66 12.9375 10 C9.40800482 11.20153027 6.7065973 11.34320345 3 11 C1.0625 10 1.0625 10 0 8 C-0.23595284 5.28117977 -0.13477523 2.74042978 0 0 Z " fill="#9BD5ED" transform="translate(83,221)"/>
<path d="M0 0 C-2.43483813 7.30451438 -12.56092511 11.54697246 -19.1875 14.9375 C-24.26018286 17.39292405 -28.37141425 18.88742829 -34 19 C-31.14581362 17.09720908 -28.61757564 15.99383663 -25.4375 14.75 C-17.9169335 11.65276187 -11.13573626 8.0016761 -5 2.625 C-2 0 -2 0 0 0 Z " fill="#2D475B" transform="translate(190,125)"/>
<path d="M0 0 C-2.44015354 2.44015354 -4.04245663 2.69053029 -7.375 3.5078125 C-8.44234375 3.77207031 -9.5096875 4.03632812 -10.609375 4.30859375 C-11.72828125 4.57800781 -12.8471875 4.84742187 -14 5.125 C-15.11890625 5.40214844 -16.2378125 5.67929688 -17.390625 5.96484375 C-25.6916564 8 -25.6916564 8 -28 8 C-28 7.34 -28 6.68 -28 6 C-24.46183998 4.98730157 -20.91897623 3.99213458 -17.375 3 C-16.37597656 2.71382813 -15.37695312 2.42765625 -14.34765625 2.1328125 C-9.47094001 0.77637487 -5.11653101 -0.41910152 0 0 Z " fill="#2F435A" transform="translate(120,122)"/>
<path d="M0 0 C0.66 0.33 1.32 0.66 2 1 C2.1875 3.375 2.1875 3.375 2 6 C-1 8 -1 8 -4 8 C-3.67 8.66 -3.34 9.32 -3 10 C-2.75 13.5 -2.75 13.5 -3 17 C-6 19 -6 19 -8.1875 18.625 C-9.0846875 18.315625 -9.0846875 18.315625 -10 18 C-8.35 17.01 -6.7 16.02 -5 15 C-5.48578543 11.87709365 -5.9986012 9.00419641 -7 6 C-5.02 5.67 -3.04 5.34 -1 5 C-0.67 3.35 -0.34 1.7 0 0 Z " fill="#9CD5ED" transform="translate(211,199)"/>
<path d="M0 0 C0.66 0 1.32 0 2 0 C2.680625 1.670625 2.680625 1.670625 3.375 3.375 C4.72465986 6.96199008 4.72465986 6.96199008 7 9 C9.20250992 9.46006346 9.20250992 9.46006346 11.625 9.625 C12.85089844 9.73714844 12.85089844 9.73714844 14.1015625 9.8515625 C14.72804687 9.90054688 15.35453125 9.94953125 16 10 C16 10.66 16 11.32 16 12 C8.02124577 12.78223081 8.02124577 12.78223081 4.0625 9.75 C0 4.33333333 0 4.33333333 0 0 Z " fill="#A4D8EE" transform="translate(151,214)"/>
<path d="M0 0 C0 0.66 0 1.32 0 2 C-0.99 2.33 -1.98 2.66 -3 3 C-4.22520264 6.00847418 -4.22520264 6.00847418 -5 9 C-6.98 9 -8.96 9 -11 9 C-11.66 10.32 -12.32 11.64 -13 13 C-12.125 8.125 -12.125 8.125 -11 7 C-9.33382885 6.95936168 -7.66611905 6.957279 -6 7 C-6.33 6.01 -6.66 5.02 -7 4 C-3.375 0 -3.375 0 0 0 Z " fill="#9ED3E9" transform="translate(78,171)"/>
<path d="M0 0 C-3.53834904 2.12300942 -6.90823045 2.69690596 -11 3 C-11.66 2.34 -12.32 1.68 -13 1 C-4.57142857 -1.42857143 -4.57142857 -1.42857143 0 0 Z " fill="#535772" transform="translate(131,120)"/>
<path d="M0 0 C-2.26568725 2.26568725 -3.43233985 2.55280451 -6.5 3.25 C-7.2940625 3.44078125 -8.088125 3.6315625 -8.90625 3.828125 C-9.5971875 3.88484375 -10.288125 3.9415625 -11 4 C-11.66 3.34 -12.32 2.68 -13 2 C-8.46298506 0.54815522 -4.81938524 -0.23509196 0 0 Z " fill="#3D4B63" transform="translate(120,122)"/>
<path d="M0 0 C-0.33 2.64 -0.66 5.28 -1 8 C-1.66 6.68 -2.32 5.36 -3 4 C-4.32 4.99 -5.64 5.98 -7 7 C-3.86206897 0 -3.86206897 0 0 0 Z " fill="#51A1EC" transform="translate(73,56)"/>
<path d="M0 0 C0 0.33 0 0.66 0 1 C-1.62171239 1.38897161 -3.24754925 1.76078298 -4.875 2.125 C-5.77992188 2.33382812 -6.68484375 2.54265625 -7.6171875 2.7578125 C-8.40351563 2.83773437 -9.18984375 2.91765625 -10 3 C-10.66 2.34 -11.32 1.68 -12 1 C-8.0186217 -0.3271261 -4.14954773 -0.06915913 0 0 Z " fill="#445A6E" transform="translate(160,144)"/>
<path d="M0 0 C2 2 2 2 2.125 4.625 C2.08375 5.40875 2.0425 6.1925 2 7 C1.01 7 0.02 7 -1 7 C-2 4 -2 4 -1.0625 1.8125 C-0.5365625 0.9153125 -0.5365625 0.9153125 0 0 Z " fill="#42596D" transform="translate(78,185)"/>
</svg>
