<?xml version="1.0" encoding="UTF-8"?>
<svg version="1.1" xmlns="http://www.w3.org/2000/svg" width="256" height="256">
<path d="M0 0 C2.36160553 0.6404354 4.5411921 0.97256394 6.97265625 1.1875 C10.53515625 1.6875 10.53515625 1.6875 12.47265625 2.8125 C14.07778777 5.64508503 14.23297551 8.48438421 14.53515625 11.6875 C15.53933594 11.65140625 16.54351562 11.6153125 17.578125 11.578125 C21.63068612 11.69014051 24.94562328 12.36619211 28.84765625 13.4375 C29.49847168 13.61434326 30.14928711 13.79118652 30.81982422 13.97338867 C35.52912178 15.29289919 39.96776341 16.96534443 44.38671875 19.05078125 C47.1251622 19.86235631 48.81881025 19.49036089 51.53515625 18.6875 C52.33953125 18.171875 53.14390625 17.65625 53.97265625 17.125 C57.15670995 15.33882353 58.9183836 15.34969434 62.53515625 15.6875 C64.95703125 17.078125 64.95703125 17.078125 67.28515625 18.9375 C71.52239343 22.12184794 75.49255836 24.08460324 80.50390625 25.765625 C82.53515625 26.6875 82.53515625 26.6875 84.53515625 29.6875 C85.24879558 35.75343428 83.50050608 39.59080498 80.53515625 44.6875 C81.15390625 45.32751953 81.15390625 45.32751953 81.78515625 45.98046875 C89.55336159 54.39024462 102.53515625 71.37643581 102.53515625 83.6875 C103.17839844 83.72488281 103.82164062 83.76226562 104.484375 83.80078125 C123.32931182 85.17181089 123.32931182 85.17181089 128.189044 88.98533821 C130.67343408 92.12685473 129.85471644 95.86786774 129.53515625 99.6875 C129.13998898 102.59694598 128.56234307 105.44261327 127.93041992 108.30908203 C127.75967453 109.11845215 127.58892914 109.92782227 127.41300964 110.76171875 C126.85213762 113.40828262 126.27805803 116.05177066 125.703125 118.6953125 C125.30614888 120.54885262 124.90978131 122.40252317 124.51399231 124.25631714 C123.68503046 128.12903514 122.8496665 132.00029857 122.00952148 135.87060547 C120.9358078 140.81875057 119.87674306 145.76989198 118.82227612 150.72216988 C118.00662075 154.54612494 117.18393193 158.36854001 116.3590641 162.19051743 C115.96597933 164.01525055 115.57488885 165.84041452 115.18587303 167.66601944 C114.64028748 170.22049199 114.08542166 172.77277811 113.52807617 175.32470703 C113.37054871 176.07086273 113.21302124 176.81701843 113.05072021 177.58578491 C112.02035368 182.24429422 110.67411861 186.40974513 108.53515625 190.6875 C103.33419997 193.80964269 98.51194851 192.19196799 92.97265625 190.8125 C85.82283707 188.8049658 85.82283707 188.8049658 78.53515625 188.6875 C76.65922633 190.10771025 76.65922633 190.10771025 75.03515625 192.125 C68.25650969 199.36670401 59.35506528 205.1795465 50.53515625 209.6875 C49.87515625 209.6875 49.21515625 209.6875 48.53515625 209.6875 C48.45265625 210.698125 48.37015625 211.70875 48.28515625 212.75 C47.78287154 216.4211103 46.39140252 218.83152281 44.4375 221.92578125 C43.29188485 223.91074613 43.29188485 223.91074613 43.09765625 227.375 C42.53515625 230.6875 42.53515625 230.6875 40.41015625 233.1875 C36.59928698 235.17577962 34.66406341 234.70161755 30.53515625 233.6875 C29.60703125 233.3575 28.67890625 233.0275 27.72265625 232.6875 C24.07338639 231.54263102 20.70746011 231.3126424 16.90234375 231.12890625 C13.94972477 230.57833538 12.64973419 229.82476654 10.53515625 227.6875 C9.28515625 224.5 9.28515625 224.5 8.53515625 221.6875 C7.87620361 221.64262451 7.21725098 221.59774902 6.53833008 221.55151367 C-16.49691583 219.9364519 -16.49691583 219.9364519 -26.07421875 217.17578125 C-28.66701359 216.64620714 -29.97909896 216.89287667 -32.46484375 217.6875 C-39.2111698 218.47457137 -39.2111698 218.47457137 -42.375 216.48828125 C-43.67571916 215.4279414 -44.96569105 214.35431687 -46.24609375 213.26953125 C-49.55790798 210.90811442 -53.16254758 209.94104236 -57.046875 208.83984375 C-60.20568905 207.33443156 -61.01621179 205.83610384 -62.46484375 202.6875 C-62.61695313 201.83027344 -62.7690625 200.97304687 -62.92578125 200.08984375 C-63.6084228 197.04763684 -64.6866295 196.18463387 -67.08984375 194.25 C-67.80398437 193.6621875 -68.518125 193.074375 -69.25390625 192.46875 C-69.98351562 191.8809375 -70.713125 191.293125 -71.46484375 190.6875 C-72.80176718 189.54585752 -74.13541579 188.40036216 -75.46484375 187.25 C-76.45484375 186.404375 -77.44484375 185.55875 -78.46484375 184.6875 C-79.31046875 185.203125 -80.15609375 185.71875 -81.02734375 186.25 C-85.14986115 187.97396182 -87.20679314 187.97294924 -91.46484375 186.6875 C-93.70718962 183.47693762 -95.26475386 180.06055712 -96.78979492 176.46435547 C-97.22422409 175.44493866 -97.65865326 174.42552185 -98.10624695 173.37521362 C-98.56876358 172.27944 -99.03128021 171.18366638 -99.5078125 170.0546875 C-99.9951033 168.90823761 -100.4823941 167.76178772 -100.98445129 166.58059692 C-102.28111896 163.52795047 -103.57455176 160.4739745 -104.86645508 157.41931152 C-106.15231651 154.38121923 -107.44262937 151.34501878 -108.73242188 148.30859375 C-116.36576456 130.32661956 -116.36576456 130.32661956 -119.95166016 121.74316406 C-120.51183586 120.4041655 -120.51183586 120.4041655 -121.08332825 119.03811646 C-121.76906634 117.39702014 -122.45269822 115.75504152 -123.13383484 114.11203003 C-124.39193189 110.64835275 -124.39193189 110.64835275 -126.46484375 107.6875 C-126.93896465 100.33862604 -126.93896465 100.33862604 -125.29296875 98.078125 C-122.9771146 96.31649236 -120.67416002 95.37483717 -117.96484375 94.3125 C-112.7741828 92.23497268 -107.70197565 89.98759836 -102.64453125 87.60546875 C-100.46484375 86.6875 -100.46484375 86.6875 -98.46484375 86.6875 C-98.35269531 86.09066406 -98.24054688 85.49382812 -98.125 84.87890625 C-92.78088428 61.37178285 -75.14660072 40.01919249 -55.19946289 27.08691406 C-46.54173106 21.71429875 -37.5207376 17.49592688 -27.71484375 14.6875 C-23.17388572 13.27783582 -23.17388572 13.27783582 -20.33984375 9.375 C-20.05109375 8.158125 -19.76234375 6.94125 -19.46484375 5.6875 C-17.81795948 -1.00982938 -17.81795948 -1.00982938 -15.71484375 -2.8125 C-10.34270872 -4.00630778 -5.09205358 -1.597507 0 0 Z " fill="#F4DAD5" transform="translate(126.46484375,12.3125)"/>
<path d="M0 0 C1.11375 0.474375 2.2275 0.94875 3.375 1.4375 C8.17683359 3.26185255 12.90272966 3.69708844 18 4 C18.06832031 4.60328125 18.13664062 5.2065625 18.20703125 5.828125 C18.99541925 8.98167701 19.76415859 10.59699288 22 13 C25.62489635 14.45724972 29.45438564 14.97668438 33.29321289 15.60131836 C39.84403177 16.6723695 45.59540476 18.47055861 51.65917969 21.15893555 C56.17472782 23.05611809 59.254446 23.13070962 64 22 C65.051875 21.443125 66.10375 20.88625 67.1875 20.3125 C68.115625 19.879375 69.04375 19.44625 70 19 C71.796875 19.69921875 71.796875 19.69921875 74 21 C75.44052734 21.81984375 75.44052734 21.81984375 76.91015625 22.65625 C77.95042969 23.2646875 78.99070313 23.873125 80.0625 24.5 C81.10535156 25.1084375 82.14820313 25.716875 83.22265625 26.34375 C85.18006052 27.51103468 87.1037311 28.73582073 89 30 C88.71125 30.50789063 88.4225 31.01578125 88.125 31.5390625 C87.75375 32.22742187 87.3825 32.91578125 87 33.625 C86.443125 34.63433594 86.443125 34.63433594 85.875 35.6640625 C84.74436814 38.68244577 84.6044181 40.79786864 85 44 C86.62961266 46.34948635 86.62961266 46.34948635 88.9375 48.4375 C97.33890828 57.24905577 108 72.35475672 108 85 C99.5612781 83.75547405 91.18223112 82.33097041 82.8125 80.6875 C80.51953836 80.2421509 78.22656941 79.79683944 75.93359375 79.3515625 C74.77843262 79.12629883 73.62327148 78.90103516 72.43310547 78.66894531 C67.08179406 77.62623494 61.72859513 76.59341195 56.375 75.5625 C55.33569336 75.36197021 54.29638672 75.16144043 53.22558594 74.95483398 C46.93920369 73.74544024 40.6490716 72.55782682 34.35546875 71.38671875 C33.62390564 71.25040543 32.89234253 71.1140921 32.13861084 70.97364807 C28.53286248 70.30196122 24.92671249 69.63257964 21.31982422 68.96704102 C20.00617003 68.72289898 18.69253 68.47868076 17.37890625 68.234375 C16.2194751 68.02006836 15.06004395 67.80576172 13.86547852 67.58496094 C11 67 11 67 8 66 C7.96406738 66.62366455 7.92813477 67.2473291 7.89111328 67.88989258 C7.30078199 76.00657986 5.67935686 83.76666698 3.875 91.6875 C3.56274753 93.08235653 3.25123904 94.47737979 2.94042969 95.87255859 C2.29290097 98.77652918 1.64218403 101.67975797 0.98925781 104.58251953 C-0.46846141 111.07588192 -1.88533911 117.5781699 -3.3036499 124.08023071 C-3.73548375 126.05849979 -4.16874253 128.03645765 -4.60205078 130.0144043 C-6.42495445 138.33798438 -8.22152819 146.66681811 -10 155 C-9.4332959 155.03738281 -8.8665918 155.07476562 -8.28271484 155.11328125 C-0.87692619 155.71626704 6.15630107 157.2863792 13.375 159 C28.78486687 162.59168993 44.2726037 165.76460325 59.78271484 168.890625 C69.22259493 170.79649085 78.63473561 172.75025586 88 175 C80.38992567 188.15299561 64.83174583 197.4459399 51 203 C50.01 203 49.02 203 48 203 C48.680625 203.556875 49.36125 204.11375 50.0625 204.6875 C52 207 52 207 51.9375 209.375 C50.86085204 212.38961428 49.4308344 215.13833119 48 218 C47.30092586 220.73572585 47.30092586 220.73572585 47 223 C46.0925 222.690625 45.185 222.38125 44.25 222.0625 C38.95493464 220.52310987 33.47774637 220.34179698 28 220 C27.71125 218.906875 27.4225 217.81375 27.125 216.6875 C26.18106796 212.95986155 26.18106796 212.95986155 24 210 C21.6653037 209.55558563 21.6653037 209.55558563 18.93359375 209.62890625 C17.8981543 209.6139209 16.86271484 209.59893555 15.79589844 209.58349609 C14.68762695 209.57656738 13.57935547 209.56963867 12.4375 209.5625 C3.68615264 209.38827524 -4.36584199 208.73222354 -12.78344727 206.28344727 C-16.62732791 205.18171703 -19.14295157 204.96358222 -23 206 C-27.35090574 206 -27.99479861 205.58823123 -31.3125 203.125 C-35.20034497 200.39578433 -38.37352053 198.98435733 -43 198 C-42.01 195.03 -42.01 195.03 -41 192 C-41.55042969 191.75507813 -42.10085937 191.51015625 -42.66796875 191.2578125 C-50.09185827 187.25363758 -58.57899663 180.29135631 -63 173 C-62 170 -62 170 -58.95581055 168.36181641 C-57.60430031 167.76397003 -56.24747748 167.17804831 -54.88671875 166.6015625 C-54.16192825 166.28472504 -53.43713776 165.96788757 -52.69038391 165.64144897 C-50.36032687 164.62586752 -48.02410698 163.62540575 -45.6875 162.625 C-44.15518076 161.95929512 -42.6232746 161.29263854 -41.09179688 160.625 C-39.58607573 159.9710358 -38.08021765 159.3173868 -36.57421875 158.6640625 C-35.8370311 158.34361969 -35.09984344 158.02317688 -34.34031677 157.69302368 C-31.01451721 156.25752652 -27.69405813 154.88471873 -24.30297852 153.60693359 C-23.22846436 153.20039551 -22.1539502 152.79385742 -21.046875 152.375 C-20.12100586 152.045 -19.19513672 151.715 -18.24121094 151.375 C-15.22397131 149.52390048 -14.65647684 147.68416762 -13.5625 144.375 C-13.1669707 142.6132802 -12.77471085 140.85031912 -12.43164062 139.07763672 C-11.76049577 135.84718269 -10.86964193 132.67990195 -10.00561523 129.49658203 C-8.61076953 124.34660927 -7.28909255 119.17738409 -6 114 C-7.98 113.01 -7.98 113.01 -10 112 C-8.35 112 -6.7 112 -5 112 C-4.86948242 111.4423999 -4.73896484 110.8847998 -4.60449219 110.31030273 C-2.44260694 101.09578745 -0.28095617 91.8879453 2.1875 82.75 C2.49816406 81.56148438 2.80882813 80.37296875 3.12890625 79.1484375 C4 76 4 76 4.90234375 73.5390625 C6.70569691 68.13875088 5.48548091 65.10940274 3.125 59.9375 C2.10748171 57.9458106 1.07352702 55.96206775 0 54 C-0.99 54.66 -1.98 55.32 -3 56 C-3 54.68 -3 53.36 -3 52 C-3.79656006 52.37584229 -4.59312012 52.75168457 -5.41381836 53.13891602 C-21.15160839 60.55753506 -36.91413366 67.91776306 -52.75 75.125 C-53.43134003 75.43583527 -54.11268005 75.74667053 -54.81466675 76.06692505 C-63.14738678 79.8659858 -71.51907767 83.54062425 -80 87 C-79.59322683 79.81367399 -77.22628515 74.38281277 -74 68 C-73.54367188 67.07703125 -73.08734375 66.1540625 -72.6171875 65.203125 C-61.02492039 42.77873944 -40.63047409 26.30259901 -17 18 C-13.99333239 17.38200135 -11.09785965 16.91071447 -8.0390625 16.6796875 C-5.7420307 16.18031174 -5.7420307 16.18031174 -4.80859375 13.6328125 C-4.54175781 12.76398437 -4.27492188 11.89515625 -4 11 C-3.484375 10.01 -2.96875 9.02 -2.4375 8 C-1.1228515 5.25638574 -0.43974973 2.99029816 0 0 Z " fill="#F47760" transform="translate(116,16)"/>
<path d="M0 0 C22.79183678 3.26826339 45.38064303 7.9539482 67.97265625 12.359375 C69.11831055 12.58181885 70.26396484 12.8042627 71.44433594 13.03344727 C73.60817094 13.45363529 75.77161804 13.87582854 77.93457031 14.30053711 C84.43183736 15.56062905 90.92343307 16.5921491 97.48706055 17.44848633 C98.31633057 17.63048584 99.14560059 17.81248535 100 18 C100.495 18.99 100.495 18.99 101 20 C101.96035156 19.95875 102.92070312 19.9175 103.91015625 19.875 C108.57697688 19.875 112.91801628 20.92202483 117.4375 22 C118.67790039 22.28617188 118.67790039 22.28617188 119.94335938 22.578125 C121.96382366 23.04528437 123.98214547 23.52169374 126 24 C125.39952199 30.02938067 124.53081194 35.88385133 123.29296875 41.8125 C123.12630203 42.62509277 122.95963531 43.43768555 122.78791809 44.27490234 C122.43599525 45.98624071 122.08210162 47.69717488 121.72631836 49.40771484 C121.19480862 51.96483784 120.67012194 54.52328601 120.14648438 57.08203125 C118.20574181 66.51277376 116.13444714 75.90186838 113.88647461 85.26416016 C111.62730682 94.78489425 109.67244617 104.35883971 108 114 C103.30416322 115.42236635 99.31322833 114.47438917 94.66015625 113.41015625 C93.83839905 113.23076004 93.01664185 113.05136383 92.16998291 112.86653137 C89.46542011 112.27418744 86.76408599 111.66826227 84.0625 111.0625 C82.16910699 110.64554186 80.27546708 110.22970347 78.3815918 109.81494141 C75.4658307 109.17624252 72.55025033 108.53681887 69.63545227 107.89373779 C60.99141344 105.98763372 52.3307025 104.16759663 43.66464233 102.36477661 C29.73354073 99.46396247 15.8360396 96.43778049 1.96606445 93.25732422 C-4.67166244 91.73654998 -11.31249708 90.28576346 -18 89 C-17.27639705 80.64145828 -15.58764547 72.51232124 -13.875 64.3125 C-13.72204468 63.5730011 -13.56908936 62.8335022 -13.41149902 62.07159424 C-10.92233247 50.04406272 -8.2010665 38.08254709 -5.3605957 26.13354492 C-3.30805067 17.46114367 -1.4743529 8.78995156 0 0 Z " fill="#FEE6DF" transform="translate(124,82)"/>
<path d="M0 0 C0.33 0 0.66 0 1 0 C1.1233275 4.74454772 0.76034588 8.9332544 -0.28515625 13.55859375 C-0.56520508 14.81623535 -0.84525391 16.07387695 -1.13378906 17.36962891 C-1.44328983 18.72560181 -1.75286195 20.08155844 -2.0625 21.4375 C-2.37936283 22.85057355 -2.69542987 24.26382576 -3.01074219 25.67724609 C-3.66896167 28.62488682 -4.33062423 31.57172374 -4.99462891 34.51806641 C-6.46003237 41.03382446 -7.88178363 47.55910814 -9.30465698 54.08425903 C-9.73600615 56.06087454 -10.16888087 58.03715694 -10.60180664 60.01342773 C-12.42484629 68.33732147 -14.22145819 76.66649013 -16 85 C-15.4332959 85.03738281 -14.8665918 85.07476562 -14.28271484 85.11328125 C-6.87692619 85.71626704 0.15630107 87.2863792 7.375 89 C22.78486687 92.59168993 38.2726037 95.76460325 53.78271484 98.890625 C63.22259493 100.79649085 72.63473561 102.75025586 82 105 C74.38992567 118.15299561 58.83174583 127.4459399 45 133 C44.01 133 43.02 133 42 133 C42.680625 133.556875 43.36125 134.11375 44.0625 134.6875 C46 137 46 137 45.9375 139.375 C44.86085204 142.38961428 43.4308344 145.13833119 42 148 C41.30092586 150.73572585 41.30092586 150.73572585 41 153 C40.0925 152.690625 39.185 152.38125 38.25 152.0625 C32.95493464 150.52310987 27.47774637 150.34179698 22 150 C21.71125 148.906875 21.4225 147.81375 21.125 146.6875 C20.18106796 142.95986155 20.18106796 142.95986155 18 140 C15.6653037 139.55558563 15.6653037 139.55558563 12.93359375 139.62890625 C11.8981543 139.6139209 10.86271484 139.59893555 9.79589844 139.58349609 C8.68762695 139.57656738 7.57935547 139.56963867 6.4375 139.5625 C-2.31384736 139.38827524 -10.36584199 138.73222354 -18.78344727 136.28344727 C-22.62732791 135.18171703 -25.14295157 134.96358222 -29 136 C-33.35090574 136 -33.99479861 135.58823123 -37.3125 133.125 C-41.20034497 130.39578433 -44.37352053 128.98435733 -49 128 C-48.34 126.02 -47.68 124.04 -47 122 C-47.82564453 121.63261719 -47.82564453 121.63261719 -48.66796875 121.2578125 C-56.09185827 117.25363758 -64.57899663 110.29135631 -69 103 C-68 100 -68 100 -64.95581055 98.36181641 C-63.60430031 97.76397003 -62.24747748 97.17804831 -60.88671875 96.6015625 C-59.799533 96.1263063 -59.799533 96.1263063 -58.69038391 95.64144897 C-56.36032687 94.62586752 -54.02410698 93.62540575 -51.6875 92.625 C-50.15518076 91.95929512 -48.6232746 91.29263854 -47.09179688 90.625 C-45.58607573 89.9710358 -44.08021765 89.3173868 -42.57421875 88.6640625 C-41.46843727 88.18339828 -41.46843727 88.18339828 -40.34031677 87.69302368 C-37.01451721 86.25752652 -33.69405813 84.88471873 -30.30297852 83.60693359 C-28.69120728 82.99712646 -28.69120728 82.99712646 -27.046875 82.375 C-25.65807129 81.88 -25.65807129 81.88 -24.24121094 81.375 C-21.22397131 79.52390048 -20.65647684 77.68416762 -19.5625 74.375 C-19.1669707 72.6132802 -18.77471085 70.85031912 -18.43164062 69.07763672 C-17.76049577 65.84718269 -16.86964193 62.67990195 -16.00561523 59.49658203 C-14.61076953 54.34660927 -13.28909255 49.17738409 -12 44 C-13.32 43.34 -14.64 42.68 -16 42 C-14.35 42 -12.7 42 -11 42 C-10.80422363 41.16359985 -10.80422363 41.16359985 -10.60449219 40.31030273 C-3.64412489 10.64341323 -3.64412489 10.64341323 0 0 Z " fill="#F37760" transform="translate(122,86)"/>
<path d="M0 0 C2.36160553 0.6404354 4.5411921 0.97256394 6.97265625 1.1875 C10.53515625 1.6875 10.53515625 1.6875 12.47265625 2.8125 C14.07778777 5.64508503 14.23297551 8.48438421 14.53515625 11.6875 C15.53933594 11.65140625 16.54351562 11.6153125 17.578125 11.578125 C21.63068612 11.69014051 24.94562328 12.36619211 28.84765625 13.4375 C29.49847168 13.61434326 30.14928711 13.79118652 30.81982422 13.97338867 C35.52912178 15.29289919 39.96776341 16.96534443 44.38671875 19.05078125 C47.1251622 19.86235631 48.81881025 19.49036089 51.53515625 18.6875 C52.33953125 18.171875 53.14390625 17.65625 53.97265625 17.125 C57.15670995 15.33882353 58.9183836 15.34969434 62.53515625 15.6875 C64.95703125 17.078125 64.95703125 17.078125 67.28515625 18.9375 C71.52239343 22.12184794 75.49255836 24.08460324 80.50390625 25.765625 C82.53515625 26.6875 82.53515625 26.6875 84.53515625 29.6875 C85.24879558 35.75343428 83.50050608 39.59080498 80.53515625 44.6875 C81.15390625 45.32751953 81.15390625 45.32751953 81.78515625 45.98046875 C89.55336159 54.39024462 102.53515625 71.37643581 102.53515625 83.6875 C103.17839844 83.72488281 103.82164062 83.76226562 104.484375 83.80078125 C123.32931182 85.17181089 123.32931182 85.17181089 128.189044 88.98533821 C130.67343408 92.12685473 129.85471644 95.86786774 129.53515625 99.6875 C129.13998898 102.59694598 128.56234307 105.44261327 127.93041992 108.30908203 C127.75967453 109.11845215 127.58892914 109.92782227 127.41300964 110.76171875 C126.85213762 113.40828262 126.27805803 116.05177066 125.703125 118.6953125 C125.30614888 120.54885262 124.90978131 122.40252317 124.51399231 124.25631714 C123.68503046 128.12903514 122.8496665 132.00029857 122.00952148 135.87060547 C120.9358078 140.81875057 119.87674306 145.76989198 118.82227612 150.72216988 C118.00662075 154.54612494 117.18393193 158.36854001 116.3590641 162.19051743 C115.96597933 164.01525055 115.57488885 165.84041452 115.18587303 167.66601944 C114.64028748 170.22049199 114.08542166 172.77277811 113.52807617 175.32470703 C113.37054871 176.07086273 113.21302124 176.81701843 113.05072021 177.58578491 C112.02035368 182.24429422 110.67411861 186.40974513 108.53515625 190.6875 C103.33419997 193.80964269 98.51194851 192.19196799 92.97265625 190.8125 C85.82283707 188.8049658 85.82283707 188.8049658 78.53515625 188.6875 C76.65922633 190.10771025 76.65922633 190.10771025 75.03515625 192.125 C68.25650969 199.36670401 59.35506528 205.1795465 50.53515625 209.6875 C49.87515625 209.6875 49.21515625 209.6875 48.53515625 209.6875 C48.45265625 210.698125 48.37015625 211.70875 48.28515625 212.75 C47.78287154 216.4211103 46.39140252 218.83152281 44.4375 221.92578125 C43.29188485 223.91074613 43.29188485 223.91074613 43.09765625 227.375 C42.53515625 230.6875 42.53515625 230.6875 40.41015625 233.1875 C36.59928698 235.17577962 34.66406341 234.70161755 30.53515625 233.6875 C29.60703125 233.3575 28.67890625 233.0275 27.72265625 232.6875 C24.07338639 231.54263102 20.70746011 231.3126424 16.90234375 231.12890625 C13.94972477 230.57833538 12.64973419 229.82476654 10.53515625 227.6875 C9.28515625 224.5 9.28515625 224.5 8.53515625 221.6875 C7.87620361 221.64262451 7.21725098 221.59774902 6.53833008 221.55151367 C-16.49691583 219.9364519 -16.49691583 219.9364519 -26.07421875 217.17578125 C-28.66701359 216.64620714 -29.97909896 216.89287667 -32.46484375 217.6875 C-39.2111698 218.47457137 -39.2111698 218.47457137 -42.375 216.48828125 C-43.67571916 215.4279414 -44.96569105 214.35431687 -46.24609375 213.26953125 C-49.55790798 210.90811442 -53.16254758 209.94104236 -57.046875 208.83984375 C-60.20568905 207.33443156 -61.01621179 205.83610384 -62.46484375 202.6875 C-62.61695313 201.83027344 -62.7690625 200.97304687 -62.92578125 200.08984375 C-63.6084228 197.04763684 -64.6866295 196.18463387 -67.08984375 194.25 C-67.80398437 193.6621875 -68.518125 193.074375 -69.25390625 192.46875 C-69.98351562 191.8809375 -70.713125 191.293125 -71.46484375 190.6875 C-72.80176718 189.54585752 -74.13541579 188.40036216 -75.46484375 187.25 C-76.45484375 186.404375 -77.44484375 185.55875 -78.46484375 184.6875 C-79.31046875 185.203125 -80.15609375 185.71875 -81.02734375 186.25 C-85.14986115 187.97396182 -87.20679314 187.97294924 -91.46484375 186.6875 C-93.70718962 183.47693762 -95.26475386 180.06055712 -96.78979492 176.46435547 C-97.22422409 175.44493866 -97.65865326 174.42552185 -98.10624695 173.37521362 C-98.56876358 172.27944 -99.03128021 171.18366638 -99.5078125 170.0546875 C-99.9951033 168.90823761 -100.4823941 167.76178772 -100.98445129 166.58059692 C-102.28111896 163.52795047 -103.57455176 160.4739745 -104.86645508 157.41931152 C-106.15231651 154.38121923 -107.44262937 151.34501878 -108.73242188 148.30859375 C-116.36576456 130.32661956 -116.36576456 130.32661956 -119.95166016 121.74316406 C-120.51183586 120.4041655 -120.51183586 120.4041655 -121.08332825 119.03811646 C-121.76906634 117.39702014 -122.45269822 115.75504152 -123.13383484 114.11203003 C-124.39193189 110.64835275 -124.39193189 110.64835275 -126.46484375 107.6875 C-126.93896465 100.33862604 -126.93896465 100.33862604 -125.29296875 98.078125 C-122.9771146 96.31649236 -120.67416002 95.37483717 -117.96484375 94.3125 C-112.7741828 92.23497268 -107.70197565 89.98759836 -102.64453125 87.60546875 C-100.46484375 86.6875 -100.46484375 86.6875 -98.46484375 86.6875 C-98.35269531 86.09066406 -98.24054688 85.49382812 -98.125 84.87890625 C-92.78088428 61.37178285 -75.14660072 40.01919249 -55.19946289 27.08691406 C-46.54173106 21.71429875 -37.5207376 17.49592688 -27.71484375 14.6875 C-23.17388572 13.27783582 -23.17388572 13.27783582 -20.33984375 9.375 C-20.05109375 8.158125 -19.76234375 6.94125 -19.46484375 5.6875 C-17.81795948 -1.00982938 -17.81795948 -1.00982938 -15.71484375 -2.8125 C-10.34270872 -4.00630778 -5.09205358 -1.597507 0 0 Z M-10.46484375 3.6875 C-10.64660156 4.27917969 -10.82835938 4.87085938 -11.015625 5.48046875 C-12.43055364 9.92842391 -13.94464733 13.72719135 -16.46484375 17.6875 C-16.46484375 18.3475 -16.46484375 19.0075 -16.46484375 19.6875 C-17.07328125 19.75066406 -17.68171875 19.81382813 -18.30859375 19.87890625 C-36.74900954 22.45514081 -52.26881883 33.07398212 -65.46484375 45.6875 C-66.15191406 46.29980469 -66.83898437 46.91210938 -67.546875 47.54296875 C-78.59904054 57.76676686 -87.93110402 74.08757534 -91.46484375 88.6875 C-91.46484375 89.6775 -91.46484375 90.6675 -91.46484375 91.6875 C-92.64046875 92.038125 -93.81609375 92.38875 -95.02734375 92.75 C-100.32819311 94.50004117 -105.29647747 96.85508694 -110.32250977 99.26196289 C-113.01680953 100.55169441 -115.62707415 101.7415768 -118.46484375 102.6875 C-116.39836765 109.30467038 -113.87356262 115.62102783 -111.078125 121.9609375 C-110.447071 123.40577011 -110.447071 123.40577011 -109.80326843 124.87979126 C-108.46495575 127.94231227 -107.12144267 131.00251467 -105.77734375 134.0625 C-95.54858355 157.40654909 -95.54858355 157.40654909 -90.8828125 168.4140625 C-90.54937332 169.19566742 -90.21593414 169.97727234 -89.87239075 170.78256226 C-89.56798569 171.50480988 -89.26358063 172.2270575 -88.94995117 172.97119141 C-88.68566818 173.59587311 -88.42138519 174.22055481 -88.14909363 174.86416626 C-87.42923206 176.78239514 -86.92441242 178.69233305 -86.46484375 180.6875 C-85.80484375 180.6875 -85.14484375 180.6875 -84.46484375 180.6875 C-84.46484375 180.0275 -84.46484375 179.3675 -84.46484375 178.6875 C-82.80008689 178.34475594 -81.13289052 178.01385698 -79.46484375 177.6875 C-78.50191406 177.42066406 -77.53898437 177.15382812 -76.546875 176.87890625 C-73.46484375 176.6875 -73.46484375 176.6875 -71.296875 178.4609375 C-70.63042969 179.31945312 -69.96398437 180.17796875 -69.27734375 181.0625 C-64.59826104 186.69649755 -59.45061048 191.45141893 -53.46484375 195.6875 C-52.80484375 195.6875 -52.14484375 195.6875 -51.46484375 195.6875 C-52.45484375 198.6575 -52.45484375 198.6575 -53.46484375 201.6875 C-52.74039063 201.91824219 -52.0159375 202.14898437 -51.26953125 202.38671875 C-45.32415968 204.39229076 -40.97345579 206.30074234 -36.46484375 210.6875 C-35.53671875 210.130625 -35.53671875 210.130625 -34.58984375 209.5625 C-29.36693112 208.10008446 -24.52914026 209.93909699 -19.35864258 211.2019043 C-11.30156204 213.01578497 -3.35605744 213.01386764 4.87304688 212.99023438 C5.94619141 213.01021484 7.01933594 213.03019531 8.125 213.05078125 C9.09300537 213.05376221 10.06101074 213.05674316 11.05834961 213.05981445 C13.53515625 213.6875 13.53515625 213.6875 15.33032227 216.05151367 C16.5085689 218.62933109 17.13548647 220.88981153 17.53515625 223.6875 C18.71271484 223.76097656 18.71271484 223.76097656 19.9140625 223.8359375 C25.72537928 224.2495036 31.01409925 224.80532148 36.53515625 226.6875 C36.72851562 226.08421875 36.921875 225.4809375 37.12109375 224.859375 C37.38148438 224.06015625 37.641875 223.2609375 37.91015625 222.4375 C38.16539062 221.64859375 38.420625 220.8596875 38.68359375 220.046875 C39.53515625 217.6875 39.53515625 217.6875 40.63671875 215.578125 C41.74976078 213.58477071 41.74976078 213.58477071 41.53515625 210.6875 C39.59765565 208.49972534 39.59765565 208.49972534 37.53515625 206.6875 C38.54835937 206.55214844 38.54835937 206.55214844 39.58203125 206.4140625 C43.29103515 205.50152979 46.45120235 203.87065347 49.78515625 202.0625 C50.45119873 201.702771 51.11724121 201.34304199 51.8034668 200.97241211 C57.15289759 198.01914147 61.92486082 194.70888908 66.53515625 190.6875 C67.4478125 189.90632812 68.36046875 189.12515625 69.30078125 188.3203125 C73.00749517 185.0986661 73.00749517 185.0986661 76.53515625 181.6875 C76.53515625 181.0275 76.53515625 180.3675 76.53515625 179.6875 C77.23600342 179.84420166 77.93685059 180.00090332 78.65893555 180.16235352 C81.84465442 180.86856294 85.03351529 181.55941635 88.22265625 182.25 C89.32544922 182.49685547 90.42824219 182.74371094 91.56445312 182.99804688 C92.63115234 183.22685547 93.69785156 183.45566406 94.796875 183.69140625 C95.77615967 183.90611572 96.75544434 184.1208252 97.7644043 184.34204102 C100.64254851 184.70088973 102.74593219 184.41986609 105.53515625 183.6875 C105.74084229 182.66841553 105.94652832 181.64933105 106.15844727 180.59936523 C110.22061048 160.50284711 114.39911056 140.44716787 118.9921875 120.46484375 C119.50737902 118.20592709 120.02169146 115.94680978 120.53515625 113.6875 C120.82052246 112.44500488 121.10588867 111.20250977 121.39990234 109.92236328 C121.67527832 108.69114746 121.9506543 107.45993164 122.234375 106.19140625 C122.48405029 105.08740479 122.73372559 103.98340332 122.9909668 102.84594727 C123.52876873 99.72457281 123.6342178 96.8476526 123.53515625 93.6875 C120.6829324 93.01141731 117.82884332 92.34644885 114.97265625 91.6875 C113.77286133 91.40132812 113.77286133 91.40132812 112.54882812 91.109375 C107.75170093 90.01288878 103.45499591 89.47617803 98.53515625 89.6875 C98.41140625 89.15125 98.28765625 88.615 98.16015625 88.0625 C94.51972636 74.22886643 86.95708758 59.31217449 76.265625 49.6328125 C74.53515625 47.6875 74.53515625 47.6875 74.2578125 45.5390625 C74.36996094 44.80429687 74.48210937 44.06953125 74.59765625 43.3125 C74.69175781 42.58289062 74.78585938 41.85328125 74.8828125 41.1015625 C75.70417791 38.06201865 77.06073936 35.46052256 78.53515625 32.6875 C77.72691406 32.30078125 76.91867188 31.9140625 76.0859375 31.515625 C75.01730469 30.99484375 73.94867188 30.4740625 72.84765625 29.9375 C71.79191406 29.42703125 70.73617187 28.9165625 69.6484375 28.390625 C66.63512542 26.74218828 64.14227977 24.91250338 61.53515625 22.6875 C60.81328125 22.97625 60.09140625 23.265 59.34765625 23.5625 C58.41953125 23.93375 57.49140625 24.305 56.53515625 24.6875 C55.35953125 25.2753125 55.35953125 25.2753125 54.16015625 25.875 C48.06130678 27.76273912 41.79457959 24.88411333 36.03515625 22.8125 C30.0714676 20.69637233 24.4178795 19.25706027 18.16015625 18.375 C14.45703125 17.734375 14.45703125 17.734375 11.53515625 16.6875 C10.05426731 14.38956888 9.46794823 12.33386225 8.7421875 9.7109375 C7.64529153 7.36924365 7.64529153 7.36924365 4.609375 6.7265625 C2.32344607 6.41634745 0.02732205 6.17186436 -2.2734375 6.00390625 C-5.38333718 5.69558082 -7.64462406 4.98954535 -10.46484375 3.6875 Z " fill="#FDFCFC" transform="translate(126.46484375,12.3125)"/>
<path d="M0 0 C1 2 1 2 0.50419617 3.78065491 C0.21236954 4.50022873 -0.07945709 5.21980255 -0.38012695 5.96118164 C-0.87285347 7.1924881 -0.87285347 7.1924881 -1.37553406 8.44866943 C-1.74274063 9.34346008 -2.1099472 10.23825073 -2.48828125 11.16015625 C-2.86269852 12.08983215 -3.23711578 13.01950806 -3.62287903 13.97735596 C-4.84559207 17.00868738 -6.07898773 20.03554894 -7.3125 23.0625 C-8.14577442 25.1229859 -8.97829439 27.18377706 -9.81005859 29.24487305 C-11.45097916 33.30860221 -13.09561855 37.37079117 -14.74365234 41.43164062 C-17.56277648 48.381871 -20.34689535 55.34578686 -23.125 62.3125 C-23.89819968 64.24618886 -24.67160576 66.17979522 -25.4453125 68.11328125 C-25.96355618 69.40884836 -26.48178813 70.70442016 -27 72 C-33.70051469 70.60859431 -40.15634879 68.80619408 -46.67578125 66.734375 C-47.68102341 66.41849426 -48.68626556 66.10261353 -49.7219696 65.77716064 C-52.91993864 64.77164055 -56.11629479 63.76111118 -59.3125 62.75 C-63.49550262 61.43041028 -67.67919617 60.11302822 -71.86328125 58.796875 C-72.87987823 58.47682495 -73.89647522 58.1567749 -74.94387817 57.82702637 C-84.60244015 54.79439616 -94.29445348 51.87821985 -104 49 C-101.2270271 46.79233274 -98.53478765 45.18959353 -95.3046875 43.73828125 C-94.42425781 43.34189453 -93.54382813 42.94550781 -92.63671875 42.53710938 C-91.26966797 41.93092773 -91.26966797 41.93092773 -89.875 41.3125 C-88.95589844 40.89677734 -88.03679687 40.48105469 -87.08984375 40.05273438 C-80.26254618 37 -80.26254618 37 -78 37 C-77.67 36.01 -77.34 35.02 -77 34 C-76.01 34 -75.02 34 -74 34 C-71.76502876 33.09894587 -69.60208205 32.15222068 -67.421875 31.1328125 C-66.75430679 30.82616669 -66.08673859 30.51952087 -65.39894104 30.20358276 C-63.18011126 29.18275179 -60.96509757 28.15390129 -58.75 27.125 C-57.20490444 26.41225463 -55.65957159 25.70002347 -54.11401367 24.98828125 C-50.81913139 23.46970944 -47.52589915 21.94763457 -44.23388672 20.42285156 C-38.82686338 17.91867745 -33.41564214 15.42365752 -28.00390625 12.9296875 C-18.66657248 8.62562346 -9.33238317 4.31478657 0 0 Z " fill="#FEE6DF" transform="translate(113,67)"/>
<path d="M0 0 C11.95478748 2.66899834 23.57449263 6.51959558 35.25 10.1875 C37.3631836 10.84861949 39.47646407 11.50942943 41.58984375 12.16992188 C46.72768551 13.77637843 51.86431553 15.38666094 57 17 C56.43116357 21.96082727 54.81376268 26.01742466 52.6484375 30.4609375 C52.31131744 31.16916656 51.97419739 31.87739563 51.62686157 32.60708618 C50.54997024 34.86651571 49.4630827 37.12094163 48.375 39.375 C46.96243427 42.31854628 45.55471293 45.26438175 44.1484375 48.2109375 C43.80174011 48.93400085 43.45504272 49.65706421 43.09783936 50.40203857 C40.31572476 56.23932384 37.71592044 62.1466655 35.23861694 68.11972046 C33.21516022 72.89241989 33.21516022 72.89241989 31 74 C28.13805152 67.41836063 25.27732217 60.83619268 22.41801453 54.25340557 C21.08929769 51.19448929 19.76009256 48.13578751 18.43017578 45.07739258 C13.33703123 33.36412198 8.24458937 21.65025085 3.25 9.89453125 C2.91460205 9.1116423 2.5792041 8.32875336 2.23364258 7.5221405 C0 2.2336123 0 2.2336123 0 0 Z " fill="#FEE6DF" transform="translate(9,117)"/>
<path d="M0 0 C2.04004257 1.43298537 3.57475952 2.94248185 5.2421875 4.79296875 C8.55804239 8.2380128 11.43645858 9.79659341 15.9296875 11.35546875 C15.4553125 12.48984375 14.9809375 13.62421875 14.4921875 14.79296875 C12.7948641 19.26845827 12.24874645 23.60259061 11.9296875 28.35546875 C11.09566406 28.3090625 10.26164062 28.26265625 9.40234375 28.21484375 C2.71535161 28.00036978 -2.2584477 28.21378533 -8.16796875 31.48046875 C-10.0703125 32.35546875 -10.0703125 32.35546875 -14.0703125 32.35546875 C-16.18359375 31.11328125 -16.18359375 31.11328125 -18.3828125 29.48046875 C-22.27065747 26.75125308 -25.44383303 25.33982608 -30.0703125 24.35546875 C-29.7815625 23.65421875 -29.4928125 22.95296875 -29.1953125 22.23046875 C-27.1191065 16.92460898 -25.75153593 12.03233068 -25.0703125 6.35546875 C-24.24789062 6.26910156 -23.42546875 6.18273437 -22.578125 6.09375 C-15.58537248 5.21359986 -10.22154332 3.88506069 -4.19140625 0.18359375 C-2.0703125 -0.64453125 -2.0703125 -0.64453125 0 0 Z " fill="#2A565B" transform="translate(103.0703125,189.64453125)"/>
<path d="M0 0 C1.828125 0.6640625 1.828125 0.6640625 4 2 C5.44052734 2.81984375 5.44052734 2.81984375 6.91015625 3.65625 C7.95042969 4.2646875 8.99070313 4.873125 10.0625 5.5 C11.10535156 6.1084375 12.14820313 6.716875 13.22265625 7.34375 C15.18006052 8.51103468 17.1037311 9.73582073 19 11 C18.72285156 11.49628906 18.44570312 11.99257813 18.16015625 12.50390625 C15.7348101 17.05250917 14.53012594 20.80476575 14 26 C12.2127643 27.7872357 9.42422054 27.51227824 7 27.8125 C1.74261944 28.56272994 -2.44141798 29.76376447 -7.09765625 32.29296875 C-9.53501872 33.19884679 -10.62066438 33.0135101 -13 32 C-14.421875 30.51171875 -14.421875 30.51171875 -15.75 28.6875 C-18.98399831 24.65744056 -22.28854246 23.03080066 -27 21 C-25.125 15.25 -25.125 15.25 -24 13 C-23.77532169 11.46331135 -23.59203195 9.92031946 -23.4375 8.375 C-23.35371094 7.55773438 -23.26992187 6.74046875 -23.18359375 5.8984375 C-23.12300781 5.27195312 -23.06242188 4.64546875 -23 4 C-21.515 4.06960937 -21.515 4.06960937 -20 4.140625 C-11.36335582 4.59704478 -11.36335582 4.59704478 -3.3125 1.875 C-1.6728125 0.946875 -1.6728125 0.946875 0 0 Z " fill="#29565B" transform="translate(186,35)"/>
<path d="M0 0 C0.33 0.66 0.66 1.32 1 2 C1.99 2.33 2.98 2.66 4 3 C3.67 2.01 3.34 1.02 3 0 C6.65316671 1.24976756 7.78065836 1.67098753 10 5 C10.30891093 9.2475253 10.33046701 12.3586453 8 16 C9.051875 15.7525 10.10375 15.505 11.1875 15.25 C15 15 15 15 17.875 16.75 C20 19 20 19 21 22 C20.01 22 19.02 22 18 22 C18 23.32 18 24.64 18 26 C18.99 26 19.98 26 21 26 C20.48964169 30.3890815 19.47785723 33.33708062 17 37 C17.969375 37.61875 18.93875 38.2375 19.9375 38.875 C23 41 23 41 24 43 C9.93785796 43.46169427 -3.56675249 43.68283692 -17 39 C-17.66 38.34 -18.32 37.68 -19 37 C-12.944416 34.45028042 -6.26124037 33.91291988 0 36 C-0.05220703 35.14728516 -0.05220703 35.14728516 -0.10546875 34.27734375 C-0.30230592 28.66279774 0.44504683 25.00344995 3 20 C2.44570312 19.66226563 1.89140625 19.32453125 1.3203125 18.9765625 C0.59585938 18.53054687 -0.12859375 18.08453125 -0.875 17.625 C-1.59429687 17.18414062 -2.31359375 16.74328125 -3.0546875 16.2890625 C-5 15 -5 15 -7 13 C-7.80180859 6.01281085 -7.80180859 6.01281085 -4.625 2 C-2 0 -2 0 0 0 Z " fill="#ED755F" transform="translate(115,182)"/>
<path d="M0 0 C1.41152344 0.10828125 1.41152344 0.10828125 2.8515625 0.21875 C4.71941406 0.35796875 4.71941406 0.35796875 6.625 0.5 C8.46964844 0.63921875 8.46964844 0.63921875 10.3515625 0.78125 C13.58037857 0.97484069 16.76678675 1.03979339 20 1 C20.37511719 1.80824219 20.75023437 2.61648437 21.13671875 3.44921875 C24.1879028 10.28914111 24.1879028 10.28914111 28.9375 15.9375 C29.618125 16.618125 30.29875 17.29875 31 18 C31 22.13748248 28.81982529 25.36034942 27 29 C26.30092586 31.73572585 26.30092586 31.73572585 26 34 C25.0925 33.690625 24.185 33.38125 23.25 33.0625 C17.95493464 31.52310987 12.47774637 31.34179698 7 31 C6.79375 29.989375 6.5875 28.97875 6.375 27.9375 C4.66504896 22.000839 0.90246033 18.09215315 -4.375 15.0625 C-5.24125 14.711875 -6.1075 14.36125 -7 14 C-6.21625 12.989375 -5.4325 11.97875 -4.625 10.9375 C-2.05758573 7.37366716 -0.95732243 4.26443627 0 0 Z " fill="#2A565C" transform="translate(137,205)"/>
<path d="M0 0 C1.670625 0.7115625 1.670625 0.7115625 3.375 1.4375 C6.82791873 2.80887198 9.43275691 3.02700892 13.125 2.9375 C15.67578125 3.1015625 15.67578125 3.1015625 18 4 C20.00997183 6.89891361 21.28157736 9.73241328 22.55078125 13.01953125 C24.21266679 16.43737132 25.85941021 17.91114261 29 20 C29.99 20.33 30.98 20.66 32 21 C32 21.66 32 22.32 32 23 C31.236875 23.721875 30.47375 24.44375 29.6875 25.1875 C26.6044309 28.41396766 25.53938569 30.86796474 24 35 C23.15179688 34.83628906 22.30359375 34.67257813 21.4296875 34.50390625 C17.9354469 33.99051555 14.65372426 33.90149261 11.125 33.9375 C9.97257812 33.94652344 8.82015625 33.95554688 7.6328125 33.96484375 C6.76398438 33.97644531 5.89515625 33.98804688 5 34 C4.56300781 32.83984375 4.56300781 32.83984375 4.1171875 31.65625 C1.49652443 24.99745829 -1.33954025 19.4452107 -6 14 C-5.65066406 13.40832031 -5.30132812 12.81664062 -4.94140625 12.20703125 C-4.48636719 11.41683594 -4.03132813 10.62664063 -3.5625 9.8125 C-2.88380859 8.64654297 -2.88380859 8.64654297 -2.19140625 7.45703125 C-0.97608501 4.95068023 -0.42373425 2.74209635 0 0 Z " fill="#2A565B" transform="translate(116,16)"/>
<path d="M0 0 C5.65318706 0.67299846 11.26354539 1.47764592 16.875 2.4375 C18.01195312 2.62022461 18.01195312 2.62022461 19.171875 2.80664062 C24.76744596 3.76744596 24.76744596 3.76744596 27 6 C26.76806641 8.52197266 26.76806641 8.52197266 26.1015625 11.6640625 C25.86953125 12.78554687 25.6375 13.90703125 25.3984375 15.0625 C25.01558594 16.8259375 25.01558594 16.8259375 24.625 18.625 C24.3775 19.80835938 24.13 20.99171875 23.875 22.2109375 C23.26022419 25.1429452 22.63481376 28.07227684 22 31 C15.94696895 31.26570232 10.47088194 30.25909363 4.5625 29 C3.64017578 28.80921875 2.71785156 28.6184375 1.76757812 28.421875 C-0.48963929 27.95405792 -2.7453418 27.47997253 -5 27 C-3.7144018 17.89493982 -2.01705777 8.96918357 0 0 Z " fill="#F9523F" transform="translate(210,110)"/>
<path d="M0 0 C6.5439951 0.31161881 12.43294785 1.52902662 18.6875 3.375 C19.39962646 3.58406982 20.11175293 3.79313965 20.84545898 4.00854492 C25.38137984 5.38821866 29.67373614 7.06083586 34 9 C34 9.33 34 9.66 34 10 C27.375 10.125 27.375 10.125 24 9 C24.05220703 9.87011719 24.05220703 9.87011719 24.10546875 10.7578125 C24.28744524 16.009134 23.83377711 19.39511219 21 24 C20.34 24 19.68 24 19 24 C18.71125 24.639375 18.4225 25.27875 18.125 25.9375 C17 28 17 28 15 29 C11.33031947 29.27182819 8.84083732 29.45275856 5.5625 27.6875 C4 26 4 26 4 23 C4.66 23 5.32 23 6 23 C5.34 21.68 4.68 20.36 4 19 C3.67 19 3.34 19 3 19 C2.5974063 15.47730515 2.86627205 14.20059192 4.875 11.1875 C5.57625 10.465625 6.2775 9.74375 7 9 C7.66 9 8.32 9 9 9 C9 8.34 9 7.68 9 7 C8.443125 6.9175 7.88625 6.835 7.3125 6.75 C4.26322081 5.76104459 2.34810037 4.15242534 0 2 C0 1.34 0 0.68 0 0 Z " fill="#EE745E" transform="translate(139,30)"/>
<path d="M0 0 C9.08009321 -0.4490156 17.19421143 0.81157917 26 3 C25.39952199 9.02938067 24.53081194 14.88385133 23.29296875 20.8125 C23.12630203 21.62509277 22.95963531 22.43768555 22.78791809 23.27490234 C22.43599525 24.98624071 22.08210162 26.69717488 21.72631836 28.40771484 C21.19480862 30.96483784 20.67012194 33.52328601 20.14648438 36.08203125 C18.20574181 45.51277376 16.13444714 54.90186838 13.88647461 64.26416016 C11.62730682 73.78489425 9.67244617 83.35883971 8 93 C2.20679747 94.4813312 -2.47671756 93.08460506 -8.1875 91.75 C-9.7024707 91.42322266 -9.7024707 91.42322266 -11.24804688 91.08984375 C-12.6934082 90.75919922 -12.6934082 90.75919922 -14.16796875 90.421875 C-15.04735107 90.22174805 -15.9267334 90.02162109 -16.83276367 89.81542969 C-19 89 -19 89 -21 86 C-12.10968231 86.64656856 -3.62806252 88.87022567 5 91 C5.09152344 89.87005615 5.18304688 88.7401123 5.27734375 87.57592773 C6.13774327 79.88461064 7.93533736 72.34270124 9.5625 64.78515625 C9.91770474 63.12135734 10.27259877 61.45749207 10.62719727 59.79356384 C11.36752189 56.32426266 12.11083241 52.85561957 12.85644531 49.38745117 C13.81299682 44.93745166 14.76315393 40.48611639 15.71125793 36.03431034 C16.44175085 32.60673436 17.17499641 29.17975206 17.90914917 25.7529583 C18.26072791 24.11081695 18.61158113 22.4685201 18.96170044 20.82606697 C19.44961655 18.53978308 19.94108871 16.25429325 20.43359375 13.96899414 C20.57803925 13.28901871 20.72248474 12.60904327 20.87130737 11.90846252 C21.8855976 7.22880479 21.8855976 7.22880479 23 5 C21.80375 4.896875 20.6075 4.79375 19.375 4.6875 C12.81876379 3.9741815 6.42471808 2.45310124 0 1 C0 0.67 0 0.34 0 0 Z " fill="#FFECE6" transform="translate(224,103)"/>
<path d="M0 0 C0.33 0 0.66 0 1 0 C1.1233275 4.74454772 0.76034588 8.9332544 -0.28515625 13.55859375 C-0.70535034 15.44602295 -0.70535034 15.44602295 -1.1340332 17.37158203 C-1.44337252 18.72692218 -1.75286518 20.08222733 -2.0625 21.4375 C-2.3785886 22.84472324 -2.69392439 24.25211577 -3.00854492 25.65966797 C-3.49929422 27.85391167 -3.99078498 30.04796944 -4.48518372 32.24139404 C-5.66833276 37.49244679 -6.81951676 42.74976335 -7.953125 48.01171875 C-8.26813185 49.47013691 -8.58315441 50.92855167 -8.89819336 52.38696289 C-9.35229486 54.48993429 -9.80565435 56.59304875 -10.25637817 58.69674683 C-10.67431579 60.64485592 -11.09683641 62.59198007 -11.51953125 64.5390625 C-11.75776611 65.64459473 -11.99600098 66.75012695 -12.24145508 67.88916016 C-13.00503457 71.02064709 -13.80347891 74.00501692 -15 77 C-17.625 78.375 -17.625 78.375 -20 79 C-19.34958768 72.20319124 -17.77794039 65.83341134 -16 59.25 C-15.45830892 57.21354816 -14.9166413 55.17709008 -14.375 53.140625 C-14.01535156 51.80306152 -14.01535156 51.80306152 -13.6484375 50.43847656 C-13.07891543 48.29676481 -12.53070511 46.15160868 -12 44 C-13.32 43.34 -14.64 42.68 -16 42 C-14.35 42 -12.7 42 -11 42 C-10.86948242 41.4423999 -10.73896484 40.8847998 -10.60449219 40.31030273 C-3.64412489 10.64341323 -3.64412489 10.64341323 0 0 Z " fill="#6C3D50" transform="translate(122,86)"/>
<path d="M0 0 C3.93966421 0.56280917 5.20267948 0.84547658 7.9375 3.5625 C8.546875 6.04296875 8.546875 6.04296875 8.6875 8.75 C8.74421875 9.65105469 8.8009375 10.55210937 8.859375 11.48046875 C8.88515625 12.16753906 8.9109375 12.85460937 8.9375 13.5625 C8.2775 13.5625 7.6175 13.5625 6.9375 13.5625 C6.81375 14.201875 6.69 14.84125 6.5625 15.5 C6.35625 16.180625 6.15 16.86125 5.9375 17.5625 C2.83701072 19.11274464 0.35855782 18.85242015 -3.0625 18.5625 C-5.81579021 16.76687595 -7.58877461 15.50995078 -9.0625 12.5625 C-9.62131444 8.46452743 -9.1995529 6.79377677 -7.0625 3.1875 C-3.58025231 0.14053327 -3.58025231 0.14053327 0 0 Z " fill="#FECF80" transform="translate(221.0625,118.4375)"/>
<path d="M0 0 C3.21715188 1.14611036 4.37090018 2.6597691 5.875 5.66796875 C5.875 9.60454503 5.4743618 11.82442251 3.1875 15.04296875 C0.40921025 16.99528046 -1.77377744 17.36331215 -5.125 17.66796875 C-4.135 17.33796875 -3.145 17.00796875 -2.125 16.66796875 C-2.455 16.00796875 -2.785 15.34796875 -3.125 14.66796875 C-4.115 14.33796875 -5.105 14.00796875 -6.125 13.66796875 C-6.125 14.65796875 -6.125 15.64796875 -6.125 16.66796875 C-8.45528092 15.73585638 -9.88391532 14.97793477 -11.4375 12.98046875 C-12.46768246 9.51530957 -12.05495212 7.13978999 -11.125 3.66796875 C-7.78209076 -0.38404245 -4.94477786 -0.94587607 0 0 Z " fill="#F74B3B" transform="translate(138.125,53.33203125)"/>
<path d="M0 0 C2.4375 1 2.4375 1 4 3 C5.79821894 9.45243267 5.79821894 9.45243267 4.04296875 12.85546875 C2.75 14.5 2.75 14.5 0 17 C-0.99 17 -1.98 17 -3 17 C-3 16.01 -3 15.02 -3 14 C-4.32 14 -5.64 14 -7 14 C-6.67 14.99 -6.34 15.98 -6 17 C-9.36370321 15.60812281 -11.21906331 14.20568604 -13 11 C-13.68543938 6.97304363 -13.34966143 5.50263831 -11 2.125 C-6.87076758 -0.79987296 -4.98906907 -0.63353258 0 0 Z " fill="#F84B3A" transform="translate(165,58)"/>
<path d="M0 0 C0.33 0.66 0.66 1.32 1 2 C1.99 2.33 2.98 2.66 4 3 C3.67 2.01 3.34 1.02 3 0 C6.65316671 1.24976756 7.78065836 1.67098753 10 5 C10.56045628 9.32351988 10.4786058 11.29704773 8 14.9375 C3.84919686 17.79117716 1.9698922 17.7099846 -3 17 C-5.5 15.5 -5.5 15.5 -7 13 C-7.45495638 9.81530534 -7.71048915 8.01510101 -7 5 C-3.04166667 0 -3.04166667 0 0 0 Z " fill="#F84B3A" transform="translate(115,182)"/>
<path d="M0 0 C2.4375 2.5625 2.4375 2.5625 4 5 C3.01 5.33 2.02 5.66 1 6 C1 7.32 1 8.64 1 10 C1.99 10 2.98 10 4 10 C2.60812281 13.36370321 1.20568604 15.21906331 -2 17 C-4.9375 17.5 -4.9375 17.5 -8 17 C-10.875 14.9375 -10.875 14.9375 -13 12 C-13.69151325 7.69725091 -13.51557405 5.79054688 -11.125 2.125 C-7.36988536 -1.63011464 -5.09635523 -1.23015471 0 0 Z " fill="#F84B3A" transform="translate(132,198)"/>
<path d="M0 0 C0.33 0.66 0.66 1.32 1 2 C1.99 2.33 2.98 2.66 4 3 C4 2.01 4 1.02 4 0 C6.46800047 1.15173355 8.04783565 2.04783565 10 4 C10.55980872 8.87833311 10.74549961 10.91563693 7.9375 15 C4.22192774 17.52975133 2.4117517 17.7878128 -2 17 C-5.69186542 14.40783917 -6.82883761 12.95850936 -7.625 8.5 C-6.88568253 4.35982217 -4.77392108 0 0 0 Z " fill="#F84B3A" transform="translate(141,186)"/>
<path d="M0 0 C3.69186542 2.59216083 4.82883761 4.04149064 5.625 8.5 C4.82883761 12.95850936 3.69186542 14.40783917 0 17 C-3.83109975 17.53769821 -6.01859594 17.52844834 -9.4375 15.6875 C-11 14 -11 14 -11 11 C-10.34 11 -9.68 11 -9 11 C-9.309375 10.401875 -9.61875 9.80375 -9.9375 9.1875 C-11 7 -11 7 -12 4 C-8.04979727 0.16950039 -5.49056422 -0.88241211 0 0 Z " fill="#F84B3A" transform="translate(154,42)"/>
<path d="M0 0 C1.875 0.3125 1.875 0.3125 4 1 C6.67927341 5.01891012 6.15601248 7.24161923 6 12 C5.34 12 4.68 12 4 12 C3.8453125 12.928125 3.8453125 12.928125 3.6875 13.875 C3 16 3 16 0 18 C-4.2475253 18.30891093 -7.3586453 18.33046701 -11 16 C-9.68096443 11.38337552 -7.99907078 7.77026041 -5 4 C-2.25 2.625 -2.25 2.625 0 2 C0 1.34 0 0.68 0 0 Z " fill="#EB755F" transform="translate(54,68)"/>
<path d="M0 0 C1.91015625 0.1328125 1.91015625 0.1328125 3.91015625 1.1328125 C4.35827484 9.94581136 4.35827484 9.94581136 0.91015625 14.1328125 C-2.10220417 16.00255345 -4.32191503 16.36128099 -7.83984375 16.2578125 C-8.6390625 16.23976562 -9.43828125 16.22171875 -10.26171875 16.203125 C-10.865 16.17992187 -11.46828125 16.15671875 -12.08984375 16.1328125 C-12.08984375 15.4728125 -12.08984375 14.8128125 -12.08984375 14.1328125 C-10.76984375 14.1328125 -9.44984375 14.1328125 -8.08984375 14.1328125 C-7.58616618 12.67574524 -7.08701819 11.21711154 -6.58984375 9.7578125 C-6.31140625 8.94570312 -6.03296875 8.13359375 -5.74609375 7.296875 C-4.9931107 5.19072008 -4.9931107 5.19072008 -5.08984375 3.1328125 C-6.07984375 3.7928125 -7.06984375 4.4528125 -8.08984375 5.1328125 C-6.84373713 -0.38565967 -5.7003276 0.02069084 0 0 Z " fill="#E0C5C2" transform="translate(163.08984375,124.8671875)"/>
<path d="M0 0 C0.33 0 0.66 0 1 0 C1.66 2.64 2.32 5.28 3 8 C3.99 7.01 4.98 6.02 6 5 C6.66 5.33 7.32 5.66 8 6 C7.01 7.32 6.02 8.64 5 10 C7.31 10 9.62 10 12 10 C12 10.66 12 11.32 12 12 C9.36 12 6.72 12 4 12 C4.66 12.61875 5.32 13.2375 6 13.875 C8 16 8 16 8 18 C6.68 17.34 5.36 16.68 4 16 C3.67 18.97 3.34 21.94 3 25 C2.67 25 2.34 25 2 25 C1.34 21.7 0.68 18.4 0 15 C-0.99 16.32 -1.98 17.64 -3 19 C-3.66 19 -4.32 19 -5 19 C-4.34 17.68 -3.68 16.36 -3 15 C-5.97 14.505 -5.97 14.505 -9 14 C-9 13.34 -9 12.68 -9 12 C-5.535 11.505 -5.535 11.505 -2 11 C-3.32 9.35 -4.64 7.7 -6 6 C-3.525 6.99 -3.525 6.99 -1 8 C-0.67 5.36 -0.34 2.72 0 0 Z " fill="#FDD3C9" transform="translate(89,45)"/>
<path d="M0 0 C0.33 0.66 0.66 1.32 1 2 C2.98 1.67 4.96 1.34 7 1 C7.33 1.99 7.66 2.98 8 4 C11.465 3.505 11.465 3.505 15 3 C15.33 3.66 15.66 4.32 16 5 C19.465 4.505 19.465 4.505 23 4 C23 5.32 23 6.64 23 8 C22.01 8.495 22.01 8.495 21 9 C20.34786708 11.02463255 20.34786708 11.02463255 20 13 C20.66 13 21.32 13 22 13 C22 13.99 22 14.98 22 16 C20.68 16.33 19.36 16.66 18 17 C18 14.36 18 11.72 18 9 C12.84167445 7.14460228 7.69207303 6.09774761 2.30273438 5.14453125 C-1.05948508 4.51474996 -3.10695977 3.92869349 -6 2 C-3 0 -3 0 0 0 Z " fill="#FEF2F0" transform="translate(218,107)"/>
<path d="M0 0 C0.66 0.66 1.32 1.32 2 2 C1.608125 2.721875 1.21625 3.44375 0.8125 4.1875 C-0.35911051 7.06293369 -0.35911051 7.06293369 1.375 9.8125 C1.91125 10.534375 2.4475 11.25625 3 12 C3.94875 11.175 4.8975 10.35 5.875 9.5 C8.75 7 8.75 7 11 7 C10.67 8.98 10.34 10.96 10 13 C10.66 12.67 11.32 12.34 12 12 C11.67 12.99 11.34 13.98 11 15 C10.31292969 15.04898438 9.62585938 15.09796875 8.91796875 15.1484375 C8.01691406 15.22320312 7.11585938 15.29796875 6.1875 15.375 C5.29417969 15.44460937 4.40085938 15.51421875 3.48046875 15.5859375 C0.75601501 15.86645036 0.75601501 15.86645036 -2 18 C-2.99 18 -3.98 18 -5 18 C-5 17.01 -5 16.02 -5 15 C-3.35 14.67 -1.7 14.34 0 14 C-0.34227572 11.02934491 -0.34227572 11.02934491 -1 8 C-1.66 7.67 -2.32 7.34 -3 7 C-2.25 2.25 -2.25 2.25 0 0 Z " fill="#A8878C" transform="translate(160,142)"/>
<path d="M0 0 C-0.33 2.64 -0.66 5.28 -1 8 C-2.2375 8.12375 -3.475 8.2475 -4.75 8.375 C-7.8762197 8.75746305 -10.28879237 9.30549523 -13 11 C-13.6875 8.75 -13.6875 8.75 -14 6 C-12.75 3.6875 -12.75 3.6875 -11 2 C-10.01 2 -9.02 2 -8 2 C-7.67 2.66 -7.34 3.32 -7 4 C-6.21625 3.34 -5.4325 2.68 -4.625 2 C-2 0 -2 0 0 0 Z " fill="#D0B3B3" transform="translate(181,129)"/>
<path d="M0 0 C2 3 2 3 3 5 C4.32 3.68 5.64 2.36 7 1 C7.33 3.97 7.66 6.94 8 10 C7.34 10 6.68 10 6 10 C5.67 10.99 5.34 11.98 5 13 C3 10 3 10 3 8 C1.35 9.32 -0.3 10.64 -2 12 C-3.35384615 4.61538462 -3.35384615 4.61538462 -1.5625 1.5 C-1.046875 1.005 -0.53125 0.51 0 0 Z " fill="#FEE4D3" transform="translate(222,122)"/>
<path d="M0 0 C0.99 0.33 1.98 0.66 3 1 C2.67 1.33 2.34 1.66 2 2 C1.36995508 7.75521805 1.91022179 11.97911041 5 17 C1.98200506 16.66466723 0.19118187 16.13434402 -2.3125 14.375 C-4.68157218 11.04075027 -4.5624931 9.00776335 -4 5 C-2 2.0625 -2 2.0625 0 0 Z " fill="#D5443C" transform="translate(123,198)"/>
<path d="M0 0 C2.4375 1.125 2.4375 1.125 4 3 C4.75 6.1875 4.75 6.1875 5 9 C4.30519531 8.50886719 3.61039063 8.01773438 2.89453125 7.51171875 C-0.47539763 5.75171541 -2.54310384 5.68823419 -6.3125 5.8125 C-7.38113281 5.83957031 -8.44976562 5.86664063 -9.55078125 5.89453125 C-10.35902344 5.92933594 -11.16726562 5.96414062 -12 6 C-11.6875 4.125 -11.6875 4.125 -11 2 C-7.29436769 -0.47042154 -4.29636774 -0.545708 0 0 Z " fill="#D4443D" transform="translate(165,58)"/>
<path d="M0 0 C1.2684375 0.495 1.2684375 0.495 2.5625 1 C7.47439037 2.42891356 12.09864619 2.56843322 17 1 C15.75023244 4.65316671 15.32901247 5.78065836 12 8 C8.625 8.4375 8.625 8.4375 5 8 C2.0625 5.6875 2.0625 5.6875 0 3 C0 2.01 0 1.02 0 0 Z " fill="#D5443D" transform="translate(134,195)"/>
<path d="M0 0 C0.55558594 0.32613281 1.11117187 0.65226563 1.68359375 0.98828125 C4.33582971 2.14667773 6.18180918 2.23529427 9.0625 2.1875 C9.91972656 2.18105469 10.77695313 2.17460937 11.66015625 2.16796875 C14.15477968 2.08590034 14.15477968 2.08590034 17 1 C15.75023244 4.65316671 15.32901247 5.78065836 12 8 C4.95808383 8.67065868 4.95808383 8.67065868 1.5 6.25 C0 4 0 4 0 0 Z " fill="#D4443C" transform="translate(108,191)"/>
<path d="M0 0 C0.33 0.66 0.66 1.32 1 2 C0.67 2.66 0.34 3.32 0 4 C0.66 4.33 1.32 4.66 2 5 C1.01 5.33 0.02 5.66 -1 6 C-1 7.98 -1 9.96 -1 12 C-1.5775 11.79375 -2.155 11.5875 -2.75 11.375 C-5.51967567 10.91338739 -6.64561267 11.57055055 -9 13 C-9 12.01 -9 11.02 -9 10 C-9.66 10 -10.32 10 -11 10 C-12.63676257 11.9600281 -12.63676257 11.9600281 -14 14 C-14.33 13.34 -14.66 12.68 -15 12 C-15.66 11.67 -16.32 11.34 -17 11 C-15.4375 8.5625 -15.4375 8.5625 -13 6 C-9.25 5.1875 -9.25 5.1875 -6 5 C-6 6.32 -6 7.64 -6 9 C-5.54625 8.175 -5.0925 7.35 -4.625 6.5 C-4.08875 5.675 -3.5525 4.85 -3 4 C-2.34 4 -1.68 4 -1 4 C-0.67 2.68 -0.34 1.36 0 0 Z " fill="#B08F94" transform="translate(189,142)"/>
<path d="M0 0 C0.33 0 0.66 0 1 0 C1.37322228 6.5780426 -0.03250849 12.54796264 -1.5 18.9375 C-1.73847656 20.00291016 -1.97695312 21.06832031 -2.22265625 22.16601562 C-2.80850659 24.77890813 -3.40111458 27.39007007 -4 30 C-4.99 29.67 -5.98 29.34 -7 29 C-6.18982085 19.07530538 -3.22023065 9.38632251 0 0 Z " fill="#805463" transform="translate(122,86)"/>
<path d="M0 0 C2.93167219 0.31693753 4.58982661 0.63225834 6.8125 2.625 C8.50860361 6.01720722 8.52560443 8.25506845 8 12 C5.5 14.9375 5.5 14.9375 3 17 C2.34 16.67 1.68 16.34 1 16 C1.33 15.34 1.66 14.68 2 14 C2.12148305 12.37834248 2.17543652 10.75115673 2.1875 9.125 C2.20167969 8.26132812 2.21585938 7.39765625 2.23046875 6.5078125 C1.98859252 3.8758712 1.32983541 2.26019456 0 0 Z " fill="#D4433C" transform="translate(151,42)"/>
<path d="M0 0 C2.0625 1.3125 2.0625 1.3125 3 3 C2.6875 5.1875 2.6875 5.1875 2 7 C1.505 6.67 1.01 6.34 0.5 6 C-3.93573202 4.22570719 -8.47258828 4.49086276 -13 6 C-12.6484916 3.45156411 -12.13170979 2.15278336 -10.4375 0.1875 C-6.82874964 -1.57060915 -3.80370519 -1.05568936 0 0 Z " fill="#D4433C" transform="translate(140,54)"/>
<path d="M0 0 C0.33 0 0.66 0 1 0 C1.33 2.31 1.66 4.62 2 7 C3.98 6.34 5.96 5.68 8 5 C8.33 5.99 8.66 6.98 9 8 C9.66 7.01 10.32 6.02 11 5 C11.66 5 12.32 5 13 5 C13.66 6.98 14.32 8.96 15 11 C11.89951072 12.55024464 9.42105782 12.28992015 6 12 C3.24670979 10.20437595 1.47372539 8.94745078 0 6 C-0.039992 4.00039988 -0.04346799 1.99952758 0 0 Z " fill="#FEC97C" transform="translate(212,125)"/>
<path d="M0 0 C0.66 0 1.32 0 2 0 C1.34941146 7.17143004 0.01874321 14.04213448 -1.5625 21.0625 C-1.79646484 22.11888672 -2.03042969 23.17527344 -2.27148438 24.26367188 C-2.84346312 26.84341273 -3.41971273 29.42211775 -4 32 C-4.66 32 -5.32 32 -6 32 C-5.34941146 24.82856996 -4.01874321 17.95786552 -2.4375 10.9375 C-2.20353516 9.88111328 -1.96957031 8.82472656 -1.72851562 7.73632812 C-1.15653688 5.15658727 -0.58028727 2.57788225 0 0 Z " fill="#F8DDD7" transform="translate(112,139)"/>
<path d="M0 0 C1.4374197 -0.02373099 2.87495301 -0.04064448 4.3125 -0.0546875 C5.51326172 -0.06991455 5.51326172 -0.06991455 6.73828125 -0.08544922 C9.75683655 0.02859378 12.18011068 0.94254151 15 2 C17.98688719 2.7294708 20.99042923 3.37133411 24 4 C24 4.33 24 4.66 24 5 C16.1177798 4.48400816 8.65541695 2.9078547 1 1 C0.9175 2.134375 0.835 3.26875 0.75 4.4375 C-0.07398844 12.08706433 -2.15973715 19.54479563 -4 27 C-5.17629657 23.52474084 -4.81182496 21.12508519 -4.00390625 17.578125 C-3.77509766 16.55332031 -3.54628906 15.52851562 -3.31054688 14.47265625 C-2.94026367 12.87744141 -2.94026367 12.87744141 -2.5625 11.25 C-2.31951172 10.17105469 -2.07652344 9.09210938 -1.82617188 7.98046875 C-1.22543705 5.31838893 -0.61644487 2.65847791 0 0 Z " fill="#FEF1ED" transform="translate(126,84)"/>
<path d="M0 0 C0.99 0.33 1.98 0.66 3 1 C4.35384615 7.4 4.35384615 7.4 2.5625 10.4375 C2.046875 10.953125 1.53125 11.46875 1 12 C-0.32 11.34 -1.64 10.68 -3 10 C-2.25 3.375 -2.25 3.375 0 0 Z " fill="#3F5A5C" transform="translate(171,197)"/>
<path d="M0 0 C0.80824219 0.11085938 1.61648437 0.22171875 2.44921875 0.3359375 C3.37154297 0.47902344 3.37154297 0.47902344 4.3125 0.625 C2.5625 4.5 2.5625 4.5 0.3125 5.625 C-6.22083333 5.85833333 -6.22083333 5.85833333 -8.6875 4.625 C-7.05790438 -0.26378686 -4.67497252 -0.67753225 0 0 Z " fill="#39595C" transform="translate(53.6875,80.375)"/>
<path d="M0 0 C0.33 0 0.66 0 1 0 C1 1.65 1 3.3 1 5 C3.31 5.33 5.62 5.66 8 6 C8 6.33 8 6.66 8 7 C6.35 7 4.7 7 3 7 C2.67 9.31 2.34 11.62 2 14 C1.34 14 0.68 14 0 14 C-0.2475 13.195625 -0.495 12.39125 -0.75 11.5625 C-1.72238859 8.828919 -1.72238859 8.828919 -4.125 8.1875 C-4.74375 8.125625 -5.3625 8.06375 -6 8 C-6 7.34 -6 6.68 -6 6 C-5.01 5.67 -4.02 5.34 -3 5 C-3.66 4.67 -4.32 4.34 -5 4 C-5 3.34 -5 2.68 -5 2 C-3.68 2.66 -2.36 3.32 -1 4 C-0.67 2.68 -0.34 1.36 0 0 Z " fill="#FCC8BD" transform="translate(190,71)"/>
<path d="M0 0 C3.61115845 0.01296646 3.96154543 0.14904543 6.6875 2.875 C7.1825 3.7 7.6775 4.525 8.1875 5.375 C5.29888291 6.81930855 3.39102299 6.75188506 0.1875 6.375 C-2.6875 3.875 -2.6875 3.875 -4.8125 1.375 C-3.8125 0.375 -3.8125 0.375 0 0 Z " fill="#30585C" transform="translate(178.8125,193.625)"/>
<path d="M0 0 C1.875 0.3125 1.875 0.3125 4 1 C6.29013653 4.4352048 6.17842973 5.985331 6 10 C4.68 10 3.36 10 2 10 C0 8 0 8 -0.1953125 6.0546875 C-0.13020833 4.03645833 -0.06510417 2.01822917 0 0 Z " fill="#2D585C" transform="translate(54,68)"/>
<path d="M0 0 C0.33 0 0.66 0 1 0 C0.47411821 8.08817747 -1.17222155 15.7568804 -3.0625 23.625 C-3.34416016 24.81996094 -3.62582031 26.01492187 -3.91601562 27.24609375 C-4.60498675 30.16546291 -5.2997536 33.08331873 -6 36 C-6.98363729 32.89587359 -6.96923016 30.85501623 -6.22265625 27.69921875 C-5.94711914 26.48008789 -5.94711914 26.48008789 -5.66601562 25.23632812 C-5.46685547 24.39521484 -5.26769531 23.55410156 -5.0625 22.6875 C-3.71224906 16.95227572 -2.99233996 11.92121012 -3 6 C-2.34 5.34 -1.68 4.68 -1 4 C-0.3574765 1.93125966 -0.3574765 1.93125966 0 0 Z " fill="#FFF1EC" transform="translate(116,130)"/>
<path d="M0 0 C2.31 0.33 4.62 0.66 7 1 C7 1.33 7 1.66 7 2 C5.35 2 3.7 2 2 2 C1.814375 3.9490625 1.814375 3.9490625 1.625 5.9375 C1.24213379 9.2982145 0.7718619 12.61694225 0.125 15.9375 C-0.08769531 17.03384766 -0.08769531 17.03384766 -0.3046875 18.15234375 C-1 20 -1 20 -4 22 C-2.68 14.74 -1.36 7.48 0 0 Z " fill="#FADCD5" transform="translate(124,82)"/>
<path d="M0 0 C1.32 0.66 2.64 1.32 4 2 C4 2.66 4 3.32 4 4 C5.32 3.67 6.64 3.34 8 3 C7.67 3.99 7.34 4.98 7 6 C7.33 6.66 7.66 7.32 8 8 C6.68 7.67 5.36 7.34 4 7 C4.33 8.32 4.66 9.64 5 11 C3.68 10.67 2.36 10.34 1 10 C1 9.01 1 8.02 1 7 C-0.32 7.33 -1.64 7.66 -3 8 C-2.67 7.01 -2.34 6.02 -2 5 C-2.33 4.34 -2.66 3.68 -3 3 C-1.68 3.33 -0.36 3.66 1 4 C0.67 2.68 0.34 1.36 0 0 Z " fill="#FBC0B3" transform="translate(88,176)"/>
<path d="M0 0 C0.66 0 1.32 0 2 0 C3.38550197 2.77100394 3.1877467 4.9334706 3 8 C2.01 9.485 2.01 9.485 1 11 C0.34 11 -0.32 11 -1 11 C-2.50662097 7.98675805 -2.17770373 5.31713623 -2 2 C-1.34 1.34 -0.68 0.68 0 0 Z " fill="#FEE0CA" transform="translate(215,121)"/>
<path d="M0 0 C0.33 0 0.66 0 1 0 C0.67 2.64 0.34 5.28 0 8 C0.66 8 1.32 8 2 8 C1.67 8.99 1.34 9.98 1 11 C0.67 10.67 0.34 10.34 0 10 C-1.32 15.94 -2.64 21.88 -4 28 C-5.32 27.67 -6.64 27.34 -8 27 C-7.01 27 -6.02 27 -5 27 C-4.87753906 25.71222656 -4.75507813 24.42445313 -4.62890625 23.09765625 C-4.07569747 18.11877721 -3.0728482 13.31187479 -1.9375 8.4375 C-1.75123047 7.61958984 -1.56496094 6.80167969 -1.37304688 5.95898438 C-0.91979313 3.97164104 -0.46053788 1.98566799 0 0 Z " fill="#FFF2EE" transform="translate(234,167)"/>
<path d="M0 0 C0.66 0 1.32 0 2 0 C1.55362118 4.68697765 1.02562915 9.31427034 0.125 13.9375 C-0.01679687 14.66839844 -0.15859375 15.39929688 -0.3046875 16.15234375 C-1 18 -1 18 -4 20 C-3.52233101 17.41638159 -3.04292208 14.83310662 -2.5625 12.25 C-2.42779297 11.52039063 -2.29308594 10.79078125 -2.15429688 10.0390625 C-1.52540733 6.66453325 -0.85677827 3.32365306 0 0 Z " fill="#F5DBD6" transform="translate(117,116)"/>
<path d="M0 0 C0.05391993 1.79133978 0.09275571 3.58313899 0.125 5.375 C0.14820313 6.37273437 0.17140625 7.37046875 0.1953125 8.3984375 C0 11 0 11 -2 13 C-3.32 13 -4.64 13 -6 13 C-5.625 11.0625 -5.625 11.0625 -5 9 C-4.34 8.67 -3.68 8.34 -3 8 C-3.33 6.02 -3.66 4.04 -4 2 C-1 0 -1 0 0 0 Z " fill="#FEF8F7" transform="translate(206,127)"/>
<path d="M0 0 C1.5 1.3125 1.5 1.3125 3 3 C3 3.99 3 4.98 3 6 C2.01 6 1.02 6 0 6 C0.66 8.31 1.32 10.62 2 13 C0.68 13.33 -0.64 13.66 -2 14 C-2.1799928 8.78020872 -1.97094808 4.92737019 0 0 Z " fill="#FEEFED" transform="translate(235,125)"/>
<path d="M0 0 C1.58409994 0.11487748 3.16728963 0.24234508 4.75 0.375 C6.07257813 0.47941406 6.07257813 0.47941406 7.421875 0.5859375 C9.99066382 0.99850055 11.75841015 1.71160957 14 3 C12.625 4.5 12.625 4.5 11 6 C10.34 6 9.68 6 9 6 C8.67 5.01 8.34 4.02 8 3 C5.69 3.33 3.38 3.66 1 4 C0.67 2.68 0.34 1.36 0 0 Z " fill="#FEF8F7" transform="translate(215,139)"/>
<path d="M0 0 C-0.33 1.98 -0.66 3.96 -1 6 C-0.34 5.67 0.32 5.34 1 5 C0.67 5.99 0.34 6.98 0 8 C-1.98 8 -3.96 8 -6 8 C-5.6875 5.125 -5.6875 5.125 -5 2 C-2 0 -2 0 0 0 Z " fill="#C4A6A7" transform="translate(171,149)"/>
<path d="M0 0 C2.125 0.375 2.125 0.375 4 1 C4 2.65 4 4.3 4 6 C2.35 6.33 0.7 6.66 -1 7 C-1.625 4.625 -1.625 4.625 -2 2 C-1.34 1.34 -0.68 0.68 0 0 Z " fill="#FDDBD2" transform="translate(150,76)"/>
<path d="M0 0 C5.81737344 -0.20694214 10.50187162 -0.10566619 16 2 C18.98661951 2.73061105 21.9904223 3.37133266 25 4 C25 4.33 25 4.66 25 5 C16.50430168 4.42029353 8.31124051 2.76198299 0 1 C0 0.67 0 0.34 0 0 Z " fill="#FEF0EC" transform="translate(177,94)"/>
<path d="M0 0 C5.81737344 -0.20694214 10.50187162 -0.10566619 16 2 C18.98661951 2.73061105 21.9904223 3.37133266 25 4 C25 4.33 25 4.66 25 5 C16.50430168 4.42029353 8.31124051 2.76198299 0 1 C0 0.67 0 0.34 0 0 Z " fill="#FEF0EC" transform="translate(151,89)"/>
<path d="M0 0 C1.2065625 0.0309375 1.2065625 0.0309375 2.4375 0.0625 C2.4375 1.7125 2.4375 3.3625 2.4375 5.0625 C0.7875 5.3925 -0.8625 5.7225 -2.5625 6.0625 C-2.94468767 4.40635343 -3.27645102 2.73792976 -3.5625 1.0625 C-2.5625 0.0625 -2.5625 0.0625 0 0 Z " fill="#FEDFD6" transform="translate(66.5625,186.9375)"/>
<path d="M0 0 C1.65 0 3.3 0 5 0 C5.33 1.65 5.66 3.3 6 5 C4.34385343 5.38218767 2.67542976 5.71395102 1 6 C0 5 0 5 -0.0625 2.4375 C-0.041875 1.633125 -0.02125 0.82875 0 0 Z " fill="#FEE0D8" transform="translate(207,85)"/>
<path d="M0 0 C1.65 0.33 3.3 0.66 5 1 C4.67 2.65 4.34 4.3 4 6 C2.35 5.67 0.7 5.34 -1 5 C-0.67 3.35 -0.34 1.7 0 0 Z " fill="#FEE2DB" transform="translate(108,43)"/>
<path d="M0 0 C0 3 0 3 -2 6 C-2.38499891 7.65549531 -2.72793135 9.3222433 -3 11 C-3.99 11.33 -4.98 11.66 -6 12 C-5.835 11.236875 -5.67 10.47375 -5.5 9.6875 C-4.90854604 6.96403764 -4.90854604 6.96403764 -5 4 C-5.99 3.34 -6.98 2.68 -8 2 C-5.36 1.34 -2.72 0.68 0 0 Z " fill="#E06A57" transform="translate(122,197)"/>
<path d="M0 0 C2.0625 0.4375 2.0625 0.4375 4 1 C3.67 2.65 3.34 4.3 3 6 C1.35 5.67 -0.3 5.34 -2 5 C-1.125 1.125 -1.125 1.125 0 0 Z " fill="#FDE3DE" transform="translate(169,190)"/>
<path d="M0 0 C2.0625 0.4375 2.0625 0.4375 4 1 C3.67 2.65 3.34 4.3 3 6 C1.35 5.67 -0.3 5.34 -2 5 C-1.125 1.125 -1.125 1.125 0 0 Z " fill="#FEE5E0" transform="translate(61,79)"/>
<path d="M0 0 C0.99 0.33 1.98 0.66 3 1 C3 1.66 3 2.32 3 3 C3.66 3 4.32 3 5 3 C5 3.66 5 4.32 5 5 C4.34 5 3.68 5 3 5 C3 5.66 3 6.32 3 7 C1.68 7.33 0.36 7.66 -1 8 C-0.67 6.35 -0.34 4.7 0 3 C-0.99 3.495 -0.99 3.495 -2 4 C-1.34 2.68 -0.68 1.36 0 0 Z " fill="#BA9A9D" transform="translate(186,128)"/>
<path d="M0 0 C2.05078125 0.03255208 4.1015625 0.06510417 6.15234375 0.09765625 C5.55421875 0.67515625 4.95609375 1.25265625 4.33984375 1.84765625 C2.40407535 3.83873232 0.76325092 5.84238622 -0.84765625 8.09765625 C-0.51765625 6.44765625 -0.18765625 4.79765625 0.15234375 3.09765625 C-1.82765625 4.08765625 -1.82765625 4.08765625 -3.84765625 5.09765625 C-2.72914438 0.14424653 -2.72914438 0.14424653 0 0 Z " fill="#B7979A" transform="translate(158.84765625,124.90234375)"/>
<path d="M0 0 C0.33 0 0.66 0 1 0 C1.33 1.98 1.66 3.96 2 6 C1.34 6 0.68 6 0 6 C0 6.66 0 7.32 0 8 C-1.98 8 -3.96 8 -6 8 C-6 7.34 -6 6.68 -6 6 C-5.01 5.67 -4.02 5.34 -3 5 C-3.66 4.67 -4.32 4.34 -5 4 C-5 3.34 -5 2.68 -5 2 C-3.68 2.66 -2.36 3.32 -1 4 C-0.67 2.68 -0.34 1.36 0 0 Z " fill="#FBBFB2" transform="translate(190,71)"/>
<path d="M0 0 C-0.33 2.64 -0.66 5.28 -1 8 C-3.31 8.33 -5.62 8.66 -8 9 C-8 8.01 -8 7.02 -8 6 C-7.67 6.66 -7.34 7.32 -7 8 C-5.68 6.68 -4.36 5.36 -3 4 C-3.66 3.34 -4.32 2.68 -5 2 C-2 0 -2 0 0 0 Z " fill="#A58388" transform="translate(181,129)"/>
<path d="M0 0 C0.66 0.33 1.32 0.66 2 1 C2 2.32 2 3.64 2 5 C1.34 5 0.68 5 0 5 C-0.33 5.99 -0.66 6.98 -1 8 C-1.99 7.34 -2.98 6.68 -4 6 C-4 5.34 -4 4.68 -4 4 C-3.34 4 -2.68 4 -2 4 C-2 3.34 -2 2.68 -2 2 C-1.34 2 -0.68 2 0 2 C0 1.34 0 0.68 0 0 Z " fill="#F89585" transform="translate(143,48)"/>
<path d="M0 0 C0.99 0 1.98 0 3 0 C2.61402985 2.79828356 2.19863427 3.8205884 0.0625 5.75 C-2 7 -2 7 -4 7 C-2.79618552 4.50638429 -1.54571278 2.31856917 0 0 Z " fill="#DEC3C0" transform="translate(195,145)"/>
<path d="M0 0 C0.33 0.66 0.66 1.32 1 2 C1.66 2 2.32 2 3 2 C2.67 4.31 2.34 6.62 2 9 C1.01 8.67 0.02 8.34 -1 8 C-0.67 5.36 -0.34 2.72 0 0 Z " fill="#815665" transform="translate(116,107)"/>
<path d="M0 0 C0.33 0.66 0.66 1.32 1 2 C1.99 2.66 2.98 3.32 4 4 C-2.625 4.25 -2.625 4.25 -6 2 C-3 0 -3 0 0 0 Z " fill="#FEF9F9" transform="translate(218,107)"/>
<path d="M0 0 C0.33 0 0.66 0 1 0 C1.125 7.75 1.125 7.75 0 10 C-0.66 10 -1.32 10 -2 10 C-1.85950482 8.52031676 -1.71245174 7.04125484 -1.5625 5.5625 C-1.48128906 4.73878906 -1.40007812 3.91507812 -1.31640625 3.06640625 C-1 1 -1 1 0 0 Z " fill="#6E4052" transform="translate(119,99)"/>
<path d="M0 0 C0.99 0.33 1.98 0.66 3 1 C3 2.32 3 3.64 3 5 C1.35 5 -0.3 5 -2 5 C-1.34 3.35 -0.68 1.7 0 0 Z " fill="#B2403E" transform="translate(223,114)"/>
<path d="M0 0 C1.5 1.3125 1.5 1.3125 3 3 C3 3.99 3 4.98 3 6 C1.68 6 0.36 6 -1 6 C-1.33 4.68 -1.66 3.36 -2 2 C-1.34 2 -0.68 2 0 2 C0 1.34 0 0.68 0 0 Z " fill="#FFFDFD" transform="translate(232,140)"/>
<path d="M0 0 C-0.33 1.98 -0.66 3.96 -1 6 C-1.33 5.01 -1.66 4.02 -2 3 C-4.31 3 -6.62 3 -9 3 C-9 2.67 -9 2.34 -9 2 C-2.25 0 -2.25 0 0 0 Z " fill="#FEE5DE" transform="translate(92,55)"/>
<path d="M0 0 C-0.33 2.64 -0.66 5.28 -1 8 C-4 4.25 -4 4.25 -4 2 C-1 0 -1 0 0 0 Z " fill="#FEFCFC" transform="translate(209,112)"/>
<path d="M0 0 C0.99 0 1.98 0 3 0 C3.625 1.875 3.625 1.875 4 4 C3.34 4.66 2.68 5.32 2 6 C1.34 5.34 0.68 4.68 0 4 C0 2.68 0 1.36 0 0 Z " fill="#FFFDFC" transform="translate(207,105)"/>
<path d="M0 0 C0.33 0.66 0.66 1.32 1 2 C3.01669827 3.13350534 3.01669827 3.13350534 5 4 C2.36 4.66 -0.28 5.32 -3 6 C-3.33 5.34 -3.66 4.68 -4 4 C-2.68 2.68 -1.36 1.36 0 0 Z " fill="#E66956" transform="translate(158,54)"/>
</svg>
