<?xml version="1.0" encoding="UTF-8"?>
<svg version="1.1" xmlns="http://www.w3.org/2000/svg" width="256" height="256">
<path d="M0 0 C2.5625 2.3125 2.5625 2.3125 5 5 C6.03253906 6.07894531 6.03253906 6.07894531 7.0859375 7.1796875 C21.94046879 23.02123084 28.74965075 43.48536982 30 65 C30.77601563 65.27714844 31.55203125 65.55429688 32.3515625 65.83984375 C36.14818776 67.5029672 37.23793367 69.27255199 39 73 C39.44713378 77.97984289 38.72985265 81.10171982 35.5625 85 C31.47587965 88.18955734 28.10941356 88.6103731 23 88 C21.32665961 87.01120795 19.65848177 86.01351664 18 85 C15.98567734 85.50256112 15.98567734 85.50256112 14 87 C7.43396226 91 7.43396226 91 4 91 C3.82984375 91.56847656 3.6596875 92.13695312 3.484375 92.72265625 C1.84932263 97.9322114 -0.13309172 102.35363141 -3 107 C-2.3709375 107.63164062 -1.741875 108.26328125 -1.09375 108.9140625 C11.04227655 121.5984035 19.4141741 136.20848281 19.21875 154.1875 C18.58492844 162.33663438 15.09631709 168.74886705 9.5 174.625 C6.59615373 176.95251037 3.60314 177.86337326 0.0625 178.9375 C-3.86277183 180.12858371 -6.60189531 181.14666359 -9.5625 184 C-18.56035536 192.56526616 -34.29894817 193.53027637 -46.140625 193.25 C-53.42722972 192.61291981 -61.19593604 191.86541374 -67.0625 187.1875 C-68.031875 186.465625 -69.00125 185.74375 -70 185 C-72.69464365 185.42776606 -72.69464365 185.42776606 -75 187 C-81.23969039 189.90688648 -88.0105179 190.09179614 -94.640625 188.27734375 C-100.33051517 185.9505178 -103.36883846 183.09920692 -106.25 177.625 C-107.18679508 174.34621723 -107.13301665 171.39192456 -107 168 C-107.66 168.33 -108.32 168.66 -109 169 C-121.18063461 170.19250968 -121.18063461 170.19250968 -126.125 166.875 C-130.95109715 162.6461921 -132.63292126 157.33331973 -133.16015625 151.109375 C-133.88355112 133.62209023 -124.19790921 121.22069758 -113 109 C-111.35715214 107.30634811 -109.68688666 105.65028153 -108 104 C-108.2165625 103.41734375 -108.433125 102.8346875 -108.65625 102.234375 C-111.75307739 93.11593878 -112.31989176 84.12970235 -109 75 C-109.763125 74.443125 -110.52625 73.88625 -111.3125 73.3125 C-115.20631059 69.96201181 -116.8226377 67.6553815 -117.375 62.5 C-116.9769332 58.78470987 -116.30933519 56.90805172 -114 54 C-112.515 53.505 -112.515 53.505 -111 53 C-110.90203125 52.154375 -110.8040625 51.30875 -110.703125 50.4375 C-109.63616733 42.34333836 -107.83302298 36.54512088 -103.55859375 29.6875 C-101.82753959 26.70262466 -100.43851489 23.63596247 -99 20.5 C-91.34633478 4.71680485 -79.27516999 -5.59541922 -63 -12 C-41.68645706 -19.22492981 -17.3421791 -13.82861493 0 0 Z M16 66 C16.33 66.99 16.66 67.98 17 69 C17 68.01 17 67.02 17 66 C16.67 66 16.34 66 16 66 Z " fill="#CCD4E2" transform="translate(175,39)"/>
<path d="M0 0 C3.45455529 1.42202599 4.92325697 2.99605912 7 6.0625 C13.96337231 15.24822518 22.15925824 20.18231777 33.1953125 23.02734375 C37.29341481 24.44855193 38.77002925 26.3659736 41 30 C41.47308594 29.6390625 41.94617188 29.278125 42.43359375 28.90625 C47.76401311 25.16560484 51.57357979 24.25889717 58 25 C59.63582031 25.33257812 59.63582031 25.33257812 61.3046875 25.671875 C65.57860457 26.05137715 68.66198358 25.18540005 72.5625 23.625 C73.25214844 23.35606934 73.94179687 23.08713867 74.65234375 22.81005859 C85.57332392 18.3421576 95.18701768 11.90485873 103 3 C113.76368914 7.66744042 120.80987631 22.06071872 124.9375 32.5 C127.94214027 42.39763854 128.3486398 52.46285434 124 62 C119.99236526 69.18610367 115.7820103 72.59562609 108.0625 74.9375 C104.13722817 76.12858371 101.39810469 77.14666359 98.4375 80 C89.43964464 88.56526616 73.70105183 89.53027637 61.859375 89.25 C54.57277028 88.61291981 46.80406396 87.86541374 40.9375 83.1875 C39.968125 82.465625 38.99875 81.74375 38 81 C35.30535635 81.42776606 35.30535635 81.42776606 33 83 C26.76030961 85.90688648 19.9894821 86.09179614 13.359375 84.27734375 C7.66948483 81.9505178 4.63116154 79.09920692 1.75 73.625 C0.81320492 70.34621723 0.86698335 67.39192456 1 64 C0.01 64.495 0.01 64.495 -1 65 C-13.18063461 66.19250968 -13.18063461 66.19250968 -18.125 62.875 C-22.95109715 58.6461921 -24.63292126 53.33331973 -25.16015625 47.109375 C-25.88355112 29.62209023 -16.19790921 17.22069758 -5 5 C-3.35715214 3.30634811 -1.68688666 1.65028153 0 0 Z " fill="#F6343E" transform="translate(67,143)"/>
<path d="M0 0 C-0.37671908 4.83786607 -0.76626317 9.51454698 -2.125 14.1875 C-3.06757769 18.29444565 -3.01767549 20.92929804 -2 25 C-0.57324827 27.38028291 -0.57324827 27.38028291 1 29 C5.09319216 28.48034256 7.0963352 27.39893194 10.0625 24.5625 C12.57656768 22.17786947 14.75674142 20.2906163 18 19 C20.25 19.375 20.25 19.375 22 20 C21.855625 21.051875 21.71125 22.10375 21.5625 23.1875 C21.59271355 26.91219944 21.59271355 26.91219944 23.55859375 28.578125 C25.33079245 29.81902067 27.10772592 30.95249113 29 32 C27.7508258 35.45925163 26.32472205 38.14693203 24 41 C25.89755144 43.34973818 25.89755144 43.34973818 29.125 43.125 C30.07375 43.08375 31.0225 43.0425 32 43 C31.855625 42.484375 31.71125 41.96875 31.5625 41.4375 C30.84190099 38.31490429 30.42733561 35.17449308 30 32 C31.093125 31.731875 32.18625 31.46375 33.3125 31.1875 C37.37767186 29.97073397 37.37767186 29.97073397 40 27 C40.72197162 24.39388923 40.72197162 24.39388923 41 22 C45.13481423 22.4956113 46.87112267 23.41330553 49.5 26.625 C50.08910156 27.33914062 50.67820312 28.05328125 51.28515625 28.7890625 C53.62067551 31.80023312 55.84097523 34.85960033 58 38 C66.14541552 35.80478163 73.86956075 32.48208418 78.9375 25.4375 C81.95490597 20.09981289 82.38659066 14.00591832 83 8 C87.91484479 10.34515437 92.6462636 12.70815053 97 16 C99.99186473 24.9755942 98.80744151 37.83781792 94.91796875 46.375 C86.85391126 61.24818961 73.02729135 70.49200647 57.625 76.5625 C56.97120361 76.82651611 56.31740723 77.09053223 55.64379883 77.36254883 C51.03217238 79.05557303 47.7658461 78.96779874 43 78 C36.59845121 77.37520884 33.27749058 77.9790548 28 82 C27.01 82 26.02 82 25 82 C24.38125 81.21625 23.7625 80.4325 23.125 79.625 C19.95863155 75.71360368 17.12157014 75.20562119 12.25 74.3125 C6.82934264 73.02381542 3.1590162 69.53710724 -1 66 C-2.010625 65.2575 -3.02125 64.515 -4.0625 63.75 C-11.32502419 57.60322673 -17.37646445 48.64510745 -18.2734375 39.0859375 C-18.47218641 32.92472127 -17.87464736 28.54396276 -15 23 C-12.84238956 18.07304282 -10.99455493 13.45858038 -10.1875 8.125 C-9.68203601 5.50493437 -9.39120735 4.35313364 -7.39453125 2.55078125 C-4.97277096 1.12768499 -2.85290186 0 0 0 Z " fill="#E0E6E7" transform="translate(82,91)"/>
<path d="M0 0 C2.5625 2.3125 2.5625 2.3125 5 5 C5.68835938 5.71929687 6.37671875 6.43859375 7.0859375 7.1796875 C21.94046879 23.02123084 28.74965075 43.48536982 30 65 C28.58461283 65.33872513 27.16762037 65.67074624 25.75 66 C24.96109375 66.185625 24.1721875 66.37125 23.359375 66.5625 C21 67 21 67 17 67 C15.24609375 65.015625 15.24609375 65.015625 13.4375 62.25 C9.55834742 56.62667621 5.25788239 51.75103309 0.6015625 46.78515625 C-1.55148232 44.48016983 -3.6354153 42.14409882 -5.6875 39.75 C-6.23664063 39.13125 -6.78578125 38.5125 -7.3515625 37.875 C-8.50122095 36.56733162 -9.61897927 35.2312221 -10.7109375 33.875 C-16.38733241 27.36031893 -22.70758361 25.69713081 -31 24 C-31.75249023 23.82267334 -32.50498047 23.64534668 -33.28027344 23.46264648 C-41.28443871 21.740183 -49.14398016 21.7281992 -57.2890625 21.79418945 C-59.62771491 21.81252128 -61.96597039 21.81469786 -64.3046875 21.81445312 C-78.26822317 21.67252999 -78.26822317 21.67252999 -91.75 24.875 C-93.07257813 25.36613281 -93.07257813 25.36613281 -94.421875 25.8671875 C-97.10269582 27.04512392 -99.52404806 28.44139716 -102 30 C-99.80450084 16.53427185 -89.83048684 3.95040515 -79 -4 C-54.26921395 -19.84500283 -22.98913671 -18.33148634 0 0 Z " fill="#F6343E" transform="translate(175,39)"/>
<path d="M0 0 C16.88958886 0.22049072 16.88958886 0.22049072 22.25 4.6875 C22.91 5.5125 23.57 6.3375 24.25 7.1875 C28.56029139 9.6338816 32.41222851 9.42158572 37.25 9.1875 C38.24 8.8575 39.23 8.5275 40.25 8.1875 C43.1328125 9.1484375 43.1328125 9.1484375 46.375 10.5625 C47.45007813 11.02398437 48.52515625 11.48546875 49.6328125 11.9609375 C52.25 13.1875 52.25 13.1875 53.25 14.1875 C53.87533329 22.06669948 52.74959882 28.94680966 47.58984375 35.19921875 C42.76520012 39.76628387 36.71064133 43.51214736 30.25 45.1875 C26.1754623 44.13057105 24.53061999 41.10411495 22.25 37.75 C19.07197099 33.08847698 16.68292936 29.99847645 11.25 28.1875 C11.37375 28.909375 11.4975 29.63125 11.625 30.375 C11.25 33.1875 11.25 33.1875 8.5625 36 C5.2700178 38.1742807 4.05792253 38.74748861 0.25 38.1875 C0.47816406 38.71859375 0.70632812 39.2496875 0.94140625 39.796875 C1.22886719 40.50328125 1.51632813 41.2096875 1.8125 41.9375 C2.10253906 42.63359375 2.39257812 43.3296875 2.69140625 44.046875 C3.32831803 46.48762784 3.05248831 47.8278655 2.25 50.1875 C-0.5625 50.4375 -0.5625 50.4375 -3.75 50.1875 C-5.625 48.1875 -5.625 48.1875 -6.75 46.1875 C-5.44791667 44.69010417 -4.14583333 43.19270833 -2.84375 41.6953125 C-1.55427542 40.22813579 -1.55427542 40.22813579 -1.75 38.1875 C-3.71722008 36.80626037 -5.71868328 35.47261874 -7.75 34.1875 C-8.75 33.1875 -8.75 33.1875 -8.8125 29.625 C-8.791875 28.490625 -8.77125 27.35625 -8.75 26.1875 C-12.90448646 26.72427436 -15.20962335 27.98899207 -18.4375 30.625 C-19.20449219 31.24246094 -19.97148438 31.85992187 -20.76171875 32.49609375 C-22.80142278 34.18531071 -22.80142278 34.18531071 -24.75 36.1875 C-27.125 36.25 -27.125 36.25 -29.75 35.1875 C-32.95093142 31.22845324 -34.08953764 28.58700692 -33.6875 23.5 C-32.80514982 17.69787912 -31.7904013 11.69832745 -29.75 6.1875 C-26.05462498 3.72391665 -24.37738921 4.06682599 -20 4.25 C-14.3285356 4.34384016 -10.64199311 4.03168204 -5.75 1.1875 C-4.10836961 -0.45413039 -2.26204021 0.01634422 0 0 Z " fill="#FDC7A9" transform="translate(111.75,84.8125)"/>
<path d="M0 0 C4.70966633 1.75458157 7.61952477 4.32124754 11 8 C11.78375 7.360625 12.5675 6.72125 13.375 6.0625 C17.85158391 2.54518407 21.42180775 2.33212201 27 3 C31.8836963 5.39577555 34.37087801 8.2857123 37 13 C37.53753906 13.86238281 37.53753906 13.86238281 38.0859375 14.7421875 C39.85150674 18.14620499 40.21437811 20.16581368 39.24609375 23.93359375 C37.3604595 28.66836816 35.2448268 32.90111392 32.125 36.9375 C29.68075548 39.78305999 29.68075548 39.78305999 30.1875 42.9375 C30.455625 43.618125 30.72375 44.29875 31 45 C27.7 45 24.4 45 21 45 C21.33 42.03 21.66 39.06 22 36 C19.03 35.505 19.03 35.505 16 35 C16 36.98 16 38.96 16 41 C13.87506859 41.02693575 11.75004088 41.04636628 9.625 41.0625 C7.84996094 41.07990234 7.84996094 41.07990234 6.0390625 41.09765625 C3 41 3 41 1 40 C1 38.02 1 36.04 1 34 C-0.98 33.67 -2.96 33.34 -5 33 C-5 35.64 -5 38.28 -5 41 C-9.54805635 41.17835515 -12.8794254 40.99785435 -17 39 C-16.7525 38.195625 -16.505 37.39125 -16.25 36.5625 C-15.99124108 32.87518535 -16.30877581 31.92188567 -17.875 28.75 C-20.1818031 23.85826861 -21.89287922 19.46279742 -21 14 C-16.38426913 5.17444423 -10.61777635 -1.52578282 0 0 Z " fill="#565158" transform="translate(98,165)"/>
<path d="M0 0 C1.1668634 -0.00442612 1.1668634 -0.00442612 2.3572998 -0.00894165 C36.56027528 -0.03847105 36.56027528 -0.03847105 47.625 10.38671875 C48.80306918 11.57999522 49.96949105 12.78486429 51.125 14 C51.732229 14.62559814 52.33945801 15.25119629 52.96508789 15.89575195 C54.69723682 17.69016995 56.41269765 19.49916605 58.125 21.3125 C58.94871094 22.1684375 59.77242188 23.024375 60.62109375 23.90625 C64.16000782 27.72286557 64.16000782 27.72286557 65.125 29.3125 C64.63 30.7975 64.63 30.7975 64.125 32.3125 C57.10430425 32.85504512 52.59795345 31.10741947 46.3125 28.125 C26.13598759 19.21545845 9.02802055 17.67502047 -12.86328125 18.0390625 C-13.58135452 18.04983322 -14.2994278 18.06060394 -15.03926086 18.07170105 C-19.07441011 18.16560013 -22.91005103 18.57154766 -26.875 19.3125 C-35.64089595 20.1058526 -35.64089595 20.1058526 -39.5 17.625 C-41.18135825 14.79726112 -41.50614119 13.5470986 -40.875 10.3125 C-38.2575915 5.2023215 -34.14408688 3.94010937 -29.01953125 2.109375 C-19.57028036 -0.28521777 -9.68799445 0.03223895 0 0 Z " fill="#E7EBEA" transform="translate(114.875,59.6875)"/>
<path d="M0 0 C3.45455529 1.42202599 4.92325697 2.99605912 7 6.0625 C10.76755842 11.13516036 15.33596139 14.53135521 20.42578125 18.15234375 C23 20 23 20 25 22 C24.23816406 22.38478516 24.23816406 22.38478516 23.4609375 22.77734375 C17.47681865 26.10558963 14.38564858 30.11358827 11 36 C10.01 35.505 10.01 35.505 9 35 C5.5 34.75 5.5 34.75 2 35 C-0.43835668 36.99103192 -0.43835668 36.99103192 -0.1953125 40.9140625 C-0.18200376 42.48449351 -0.15813602 44.05486221 -0.125 45.625 C-0.11597656 46.42679688 -0.10695313 47.22859375 -0.09765625 48.0546875 C-0.07406223 50.03658523 -0.03819065 52.01832981 0 54 C-7.29035718 57.36478024 -15.22350709 58.5921643 -23 56 C-26.69550113 46.66399715 -25.20850816 37.30712292 -22 28 C-17.15168951 17.31392789 -8.31919713 8.13867206 0 0 Z " fill="#F6343E" transform="translate(67,143)"/>
<path d="M0 0 C5.84230497 0.54347023 11.10797904 2.23582955 16.6875 4.01171875 C21.07539147 5.32084203 25.49052781 6.22636594 30 7 C30 6.34 30 5.68 30 5 C34.95 5 39.9 5 45 5 C45 6.32 45 7.64 45 9 C46.42094971 8.93099487 46.42094971 8.93099487 47.87060547 8.8605957 C51.42970542 8.69236279 54.98945305 8.54695282 58.54980469 8.40795898 C60.08229363 8.34504391 61.6145514 8.27617423 63.14648438 8.20092773 C71.06321723 7.81594301 78.35076755 7.48229151 85.92529297 10.24536133 C88.93008597 11.33830263 91.9671128 11.75077092 95.125 12.1875 C96.24132812 12.34605469 97.35765625 12.50460938 98.5078125 12.66796875 C99.33023438 12.77753906 100.15265625 12.88710937 101 13 C94.74050782 21.33681815 85.69344384 23.65072823 75.68359375 25.40625 C73.45279663 25.69357986 71.24558789 25.87375741 69 26 C68.17113281 26.05285156 67.34226562 26.10570312 66.48828125 26.16015625 C57.64884096 26.45695498 47.07805637 25.88127698 39.9375 20.1875 C38.4834375 19.1046875 38.4834375 19.1046875 37 18 C34.30535635 18.42776606 34.30535635 18.42776606 32 20 C25.76030961 22.90688648 18.9894821 23.09179614 12.359375 21.27734375 C6.68300371 18.95604622 3.68040859 16.10875589 0.75 10.6875 C-0.27302173 7.02167213 -0.12885445 3.80120622 0 0 Z " fill="#E8E6E5" transform="translate(68,206)"/>
<path d="M0 0 C2.31 0 4.62 0 7 0 C7.33 1.32 7.66 2.64 8 4 C7.360625 4.185625 6.72125 4.37125 6.0625 4.5625 C3.63772948 5.93371463 3.63772948 5.93371463 3 9.375 C2.65538587 12.96030996 2.65538587 12.96030996 4.5625 15.25 C7.03154922 17.12492481 7.03154922 17.12492481 10.1875 18.5625 C13 20 13 20 14 23 C14.66 22.54625 15.32 22.0925 16 21.625 C18.5808837 20.22702133 20.38768476 19.5749807 23.1875 18.9375 C26.99507525 18.35012654 26.99507525 18.35012654 29 16 C29.50031206 12.58428147 29.50031206 12.58428147 29 9 C27.14579161 6.55901182 27.14579161 6.55901182 25 5 C27 3 27 3 30.625 2.875 C32.295625 2.936875 32.295625 2.936875 34 3 C34.04125 4.27875 34.0825 5.5575 34.125 6.875 C34.65639718 12.04999099 36.8232026 15.5016678 39.72265625 19.73828125 C41 22 41 22 41 26 C40.319375 26.969375 39.63875 27.93875 38.9375 28.9375 C36.69052762 31.80474526 36.69052762 31.80474526 37.25 34.875 C37.4975 35.57625 37.745 36.2775 38 37 C34.7 37 31.4 37 28 37 C28.33 34.03 28.66 31.06 29 28 C27.02 27.67 25.04 27.34 23 27 C23 28.98 23 30.96 23 33 C20.87506859 33.02693575 18.75004088 33.04636628 16.625 33.0625 C14.84996094 33.07990234 14.84996094 33.07990234 13.0390625 33.09765625 C10 33 10 33 8 32 C8 30.02 8 28.04 8 26 C6.02 25.67 4.04 25.34 2 25 C2 27.64 2 30.28 2 33 C-2.54805635 33.17835515 -5.8794254 32.99785435 -10 31 C-9.690625 29.63875 -9.690625 29.63875 -9.375 28.25 C-8.97173163 24.75500747 -9.33908272 23.93103049 -11 21 C-11 17 -11 17 -8.6875 14.5 C-7.800625 13.675 -6.91375 12.85 -6 12 C-5.443125 11.236875 -4.88625 10.47375 -4.3125 9.6875 C-3.879375 9.130625 -3.44625 8.57375 -3 8 C-2.34 8 -1.68 8 -1 8 C-0.67 5.36 -0.34 2.72 0 0 Z " fill="#454145" transform="translate(91,173)"/>
<path d="M0 0 C0.268125 0.94875 0.53625 1.8975 0.8125 2.875 C1.20743187 4.25025919 1.60338368 5.62522565 2 7 C2.24105469 7.84175781 2.48210937 8.68351563 2.73046875 9.55078125 C2.98441406 10.42089844 3.23835938 11.29101562 3.5 12.1875 C3.7371875 13.00605469 3.974375 13.82460937 4.21875 14.66796875 C4.93313891 17.0137952 4.93313891 17.0137952 6.1171875 19.09765625 C7.42024901 21.90558084 6.6681209 24.06026803 6 27 C9.63 27.66 13.26 28.32 17 29 C17 26.36 17 23.72 17 21 C18.98 21.33 20.96 21.66 23 22 C23 23.98 23 25.96 23 28 C27.95 28.33 32.9 28.66 38 29 C38 27.02 38 25.04 38 23 C39.98 23.33 41.96 23.66 44 24 C44.35324826 30.12296984 44.35324826 30.12296984 43.09375 33.25 C40.09443539 35.75688982 37.77477549 35.25564647 33.98242188 34.99609375 C33.10134766 34.91488281 32.22027344 34.83367187 31.3125 34.75 C29.97348633 34.65138672 29.97348633 34.65138672 28.60742188 34.55078125 C26.40281015 34.3857301 24.20153098 34.20149283 22 34 C22 34.66 22 35.32 22 36 C14.30799164 35.80091272 7.73235542 33.68227314 0.61328125 30.9609375 C-3.43204362 29.88509975 -5.92468746 30.20616789 -10 31 C-22.37807097 32.03150591 -22.37807097 32.03150591 -27.25 28.75 C-29.91180221 26.08819779 -30.38140114 25.44647936 -31 22 C-30.0821875 22.02320313 -29.164375 22.04640625 -28.21875 22.0703125 C-21.43176184 22.17012115 -15.4806715 22.07381488 -9 20 C-9.33 19.34 -9.66 18.68 -10 18 C-10.15029677 15.50565168 -10.23122109 13.05774702 -10.25 10.5625 C-10.270625 9.88123047 -10.29125 9.19996094 -10.3125 8.49804688 C-10.33530513 5.58754234 -10.33625776 3.51307416 -8.71484375 1.0390625 C-5.92276452 -0.65272127 -3.17109258 -0.17949581 0 0 Z " fill="#C41F37" transform="translate(76,177)"/>
<path d="M0 0 C4.09801397 0.4973658 5.83479348 1.37309225 8.4375 4.5625 C9.03046875 5.27792969 9.6234375 5.99335937 10.234375 6.73046875 C12.42092527 9.5410566 14.51817459 12.40669638 16.54296875 15.3359375 C18.1899678 17.21696054 19.71520604 18.0312865 22 19 C21.11993222 22.25625077 20.33342036 23.74554762 17.625 25.8125 C11.73970084 27.74044283 5.4610029 28.36087978 -0.4140625 26.05078125 C-4.3766454 23.69846144 -7.62275855 20.99376563 -10 17 C-10.75 13.1875 -10.75 13.1875 -11 10 C-9.906875 9.731875 -8.81375 9.46375 -7.6875 9.1875 C-3.62232814 7.97073397 -3.62232814 7.97073397 -1 5 C-0.27802838 2.39388923 -0.27802838 2.39388923 0 0 Z " fill="#E7ECEB" transform="translate(123,113)"/>
<path d="M0 0 C5.71521338 1.42880334 9.50785535 4.37555331 14 8 C15.010625 8.78375 16.02125 9.5675 17.0625 10.375 C19.42912093 12.48985274 21.38863372 14.53804994 23.4375 16.9375 C28.7427406 23.62673652 28.7427406 23.62673652 36.04296875 27.4375 C40.30499568 27.56544077 42.98712076 26.6051517 47 25 C47.66 30.28 48.32 35.56 49 41 C40.5 43 40.5 43 36 43 C34.24609375 41.015625 34.24609375 41.015625 32.4375 38.25 C28.55726469 32.62510665 24.25547162 27.74834496 19.59765625 22.78125 C17.46563827 20.49854804 15.40435451 18.18557349 13.375 15.8125 C10.07051609 11.97865702 6.47428288 8.47960987 2.8203125 4.98046875 C1 3 1 3 0 0 Z " fill="#C82138" transform="translate(156,63)"/>
<path d="M0 0 C0.639375 0.268125 1.27875 0.53625 1.9375 0.8125 C2.948125 1.204375 3.95875 1.59625 5 2 C5.93005859 2.37789673 5.93005859 2.37789673 6.87890625 2.76342773 C13.03841361 5.07253403 18.52818939 5.39370992 25.0625 5.25 C26.00416016 5.24484375 26.94582031 5.2396875 27.91601562 5.234375 C33.35511196 5.17381443 38.61831355 4.78601781 44 4 C40.40640086 9.39039871 35.77898867 12.07947712 29.5625 13.59375 C20.42506659 15.04236749 10.36402946 14.18201473 2 10 C-0.48099734 9.91350549 -2.93344928 9.88434946 -5.4140625 9.90234375 C-6.50852188 9.90446617 -6.50852188 9.90446617 -7.62509155 9.90663147 C-9.95843585 9.91223469 -12.29168464 9.92478765 -14.625 9.9375 C-16.20572778 9.94251459 -17.78645707 9.94707757 -19.3671875 9.95117188 C-23.24482854 9.96220516 -27.12239807 9.97947189 -31 10 C-31 9.01 -31 8.02 -31 7 C-27.12310085 5.18695844 -24.07843864 4.75420767 -19.8125 4.8125 C-18.24435547 4.82216797 -18.24435547 4.82216797 -16.64453125 4.83203125 C-14 5 -14 5 -12 6 C-9.17018409 6.58528777 -9.17018409 6.58528777 -6 6 C-3.67035624 4.19215427 -1.95809961 2.23782813 0 0 Z " fill="#C52038" transform="translate(144,205)"/>
<path d="M0 0 C-0.144375 1.051875 -0.28875 2.10375 -0.4375 3.1875 C-0.40728645 6.91219944 -0.40728645 6.91219944 1.55859375 8.578125 C3.33079245 9.81902067 5.10772592 10.95249113 7 12 C5.56179187 17.03372844 3.09754485 18.98955889 -1 22 C-6.44481645 23.81493882 -12.00145847 23.74020057 -17.375 21.75 C-19.99450671 20.0036622 -22.04932578 18.47585574 -24 16 C-24 14.68 -24 13.36 -24 12 C-23.030625 11.67 -22.06125 11.34 -21.0625 11 C-16.65095353 9.14392252 -13.54368995 6.11183215 -10.11328125 2.83984375 C-6.64874732 -0.17641407 -4.46658419 -1.59520864 0 0 Z " fill="#E8ECEC" transform="translate(104,111)"/>
<path d="M0 0 C3.60229744 2.14604954 5.43861353 4.1528 7 8 C7.34050529 12.88057582 6.66327491 16.18366164 3.5625 20 C-0.0508945 22.82021034 -2.26141599 23.33969764 -6.89453125 23.2890625 C-10.31129539 22.81997058 -12.42587567 21.1974232 -15 19 C-15.92350727 16.22947819 -16.16329585 14.43311242 -16.1875 11.5625 C-16.20167969 10.80066406 -16.21585938 10.03882812 -16.23046875 9.25390625 C-15.86004897 5.63132633 -14.69715317 3.5915239 -11.9375 1.25 C-7.88499426 -0.47447053 -4.34155459 -0.71702626 0 0 Z " fill="#CED7E4" transform="translate(207,104)"/>
<path d="M0 0 C3.45455529 1.42202599 4.92325697 2.99605912 7 6.0625 C10.76755842 11.13516036 15.33596139 14.53135521 20.42578125 18.15234375 C23 20 23 20 25 22 C24.23816406 22.38478516 24.23816406 22.38478516 23.4609375 22.77734375 C17.47681865 26.10558963 14.38564858 30.11358827 11 36 C10.34 35.67 9.68 35.34 9 35 C5.54187831 34.66661404 5.54187831 34.66661404 2 35 C1.525625 35.495 1.05125 35.99 0.5625 36.5 C-1.46352076 38.44497993 -2.43218429 38.20195096 -5.1875 38.1875 C-7.0746875 38.0946875 -7.0746875 38.0946875 -9 38 C-8.44183594 37.75765625 -7.88367187 37.5153125 -7.30859375 37.265625 C-0.48055694 33.52233578 5.28559932 27.12872089 10 21 C9.34 20.401875 8.68 19.80375 8 19.1875 C3.73832938 14.96267379 0.44874925 9.88644124 -3 5 C-1.125 1.125 -1.125 1.125 0 0 Z " fill="#C82239" transform="translate(67,143)"/>
<path d="M0 0 C0.99 0.66 1.98 1.32 3 2 C4.11375 2 5.2275 2 6.375 2 C9.95756831 2 11.76212231 2.68734688 15 4 C15.70125 3.814375 16.4025 3.62875 17.125 3.4375 C19 3 19 3 20.75 4 C22.71181684 7.13890695 22.50671624 9.38964677 22 13 C18.36156067 17.20694547 14.23421753 17.90250278 9 19 C8.01 19.33 7.02 19.66 6 20 C5.34 19.01 4.68 18.02 4 17 C2.11683841 15.89163577 2.11683841 15.89163577 0 15 C-3.23688458 13.57196269 -3.92989732 13.10515402 -6 10 C-5.9375 6.5 -5.9375 6.5 -5 3 C-2.4375 1.0625 -2.4375 1.0625 0 0 Z " fill="#C42135" transform="translate(99,176)"/>
<path d="M0 0 C2.9416894 0.25579908 5.28861123 0.5968797 7.875 2.0625 C9.75577316 5.30160934 9.53724784 8.42035987 9 12 C7.16484125 18.7289154 4.58966368 23.7518556 -1 28 C-4.0625 28.625 -4.0625 28.625 -7 28 C-9.875 26 -9.875 26 -12 24 C-11.44781317 20.19456786 -10.44935362 17.84215431 -8.1875 14.75 C-5.50404673 10.90543715 -3.5429006 7.0789483 -1.76171875 2.75 C-1 1 -1 1 0 0 Z " fill="#E6E7E6" transform="translate(139,184)"/>
<path d="M0 0 C0.268125 0.94875 0.53625 1.8975 0.8125 2.875 C1.20743187 4.25025919 1.60338368 5.62522565 2 7 C2.24105469 7.84175781 2.48210937 8.68351563 2.73046875 9.55078125 C2.98441406 10.42089844 3.23835938 11.29101562 3.5 12.1875 C3.7371875 13.00605469 3.974375 13.82460937 4.21875 14.66796875 C4.93858303 17.01668283 4.93858303 17.01668283 6.109375 19.13671875 C7.35721084 21.74732268 6.8545397 23.29395762 6 26 C4 28 4 28 0.125 28.4375 C-3.23304188 28.35233227 -3.77677087 28.20560578 -6.375 25.8125 C-9.4400907 20.50753533 -10.29422612 16.5515712 -10.3125 10.375 C-10.32925781 9.06273437 -10.34601563 7.75046875 -10.36328125 6.3984375 C-10 3 -10 3 -8.7109375 1.05078125 C-5.92485571 -0.66030551 -3.17417929 -0.17967053 0 0 Z " fill="#E7EAE9" transform="translate(76,177)"/>
<path d="M0 0 C3.4375 1.5625 3.4375 1.5625 6 4 C7.25 7.4375 7.25 7.4375 7 11 C4.17568368 14.16054445 2.39878388 15.84795827 -1.875 16.3125 C-2.57625 16.209375 -3.2775 16.10625 -4 16 C-3.77183594 16.53109375 -3.54367188 17.0621875 -3.30859375 17.609375 C-3.02113281 18.31578125 -2.73367187 19.0221875 -2.4375 19.75 C-2.14746094 20.44609375 -1.85742188 21.1421875 -1.55859375 21.859375 C-0.92168197 24.30012784 -1.19751169 25.6403655 -2 28 C-4.8125 28.25 -4.8125 28.25 -8 28 C-9.875 26 -9.875 26 -11 24 C-9.69791667 22.50260417 -8.39583333 21.00520833 -7.09375 19.5078125 C-5.80427542 18.04063579 -5.80427542 18.04063579 -6 16 C-7.96722008 14.61876037 -9.96868328 13.28511874 -12 12 C-13 11 -13 11 -13.375 7.6875 C-13 4 -13 4 -11 1.5625 C-7.23023793 -0.40091775 -4.11913409 -0.78038283 0 0 Z " fill="#FB8383" transform="translate(116,107)"/>
<path d="M0 0 C1.32 0.66 2.64 1.32 4 2 C4 6 4 6 2.7421875 7.82421875 C-8.76122112 19.30356167 -21.79815149 24.95972827 -37 30 C-38.32 28.02 -39.64 26.04 -41 24 C-39.79085937 23.59910156 -38.58171875 23.19820312 -37.3359375 22.78515625 C-22.75568934 17.78856275 -10.34939919 11.79574379 0 0 Z " fill="#C72239" transform="translate(170,146)"/>
<path d="M0 0 C0.99 0.33 1.98 0.66 3 1 C3.16276553 3.56506424 3.28113984 6.11975422 3.375 8.6875 C3.45041016 9.7693457 3.45041016 9.7693457 3.52734375 10.87304688 C3.67242987 16.16869022 3.67242987 16.16869022 1.71459961 18.58911133 C-1.94626052 21.67173528 -5.1880473 24 -10 24 C-10 16.41 -10 8.82 -10 1 C-6.85658007 -0.57170996 -3.44228549 -0.23175783 0 0 Z " fill="#FDC8AA" transform="translate(189,106)"/>
<path d="M0 0 C4.09801397 0.4973658 5.83479348 1.37309225 8.4375 4.5625 C9.02917969 5.27921875 9.62085938 5.9959375 10.23046875 6.734375 C12.41692417 9.53381019 14.56107447 12.35845425 16.640625 15.23828125 C17.98162675 16.97618869 19.41482009 18.4847545 21 20 C5.96460903 20.60230795 5.96460903 20.60230795 0.50390625 15.640625 C-1.71090581 13.31177112 -3.01953081 11.78123258 -2.9375 8.5 C-2.628125 7.675 -2.31875 6.85 -2 6 C-1.649375 4.906875 -1.29875 3.81375 -0.9375 2.6875 C-0.4734375 1.3571875 -0.4734375 1.3571875 0 0 Z " fill="#FEFDFD" transform="translate(123,113)"/>
<path d="M0 0 C0.80824219 0.28746094 1.61648437 0.57492188 2.44921875 0.87109375 C3.06410156 1.09925781 3.67898437 1.32742187 4.3125 1.5625 C3.8589821 8.59202752 2.19190913 14.1474443 -0.6875 20.5625 C-4.97133193 18.58956248 -8.53587867 15.86574265 -10.6875 11.5625 C-11.06203505 6.59991054 -10.82892028 3.51836258 -7.6875 -0.4375 C-4.20878379 -1.59707207 -3.34530355 -1.21206651 0 0 Z " fill="#FEC7A8" transform="translate(68.6875,93.4375)"/>
<path d="M0 0 C0.556875 0.226875 1.11375 0.45375 1.6875 0.6875 C1.6875 4.35416667 1.6875 8.02083333 1.6875 11.6875 C-2.44369095 15.4925443 -6.28396946 16.4185894 -11.83203125 16.8046875 C-15.56293521 16.62842432 -18.04983987 15.46068485 -21.3125 13.6875 C-20.3225 13.0275 -19.3325 12.3675 -18.3125 11.6875 C-15.55705358 9.43963581 -12.82967042 7.15984497 -10.1015625 4.87890625 C-3.32088574 -0.44876834 -3.32088574 -0.44876834 0 0 Z " fill="#FEFCFC" transform="translate(102.3125,110.3125)"/>
<path d="M0 0 C2.97 0.495 2.97 0.495 6 1 C6 2.98 6 4.96 6 7 C10.95 7.33 15.9 7.66 21 8 C21 6.02 21 4.04 21 2 C23.97 2.495 23.97 2.495 27 3 C27.35433575 9.14181974 27.35433575 9.14181974 26.07421875 12.2421875 C23.14488622 14.7246727 20.95872474 14.31534713 17.2265625 14.09375 C16.36804688 14.0215625 15.50953125 13.949375 14.625 13.875 C13.77421875 13.82601562 12.9234375 13.77703125 12.046875 13.7265625 C7.37954449 13.40668315 4.49661713 12.79864685 0 11 C0 7.37 0 3.74 0 0 Z " fill="#FCC504" transform="translate(93,198)"/>
<path d="M0 0 C3.0625 2.5 3.0625 2.5 5 5 C1.375 10.75 1.375 10.75 -2 13 C-5.37128339 13.48402399 -8.62749995 13.47468904 -12 13 C-14.625 11 -14.625 11 -16 9 C-15.17209495 5.6131157 -14.54949495 3.49954087 -11.9375 1.125 C-7.88827974 -0.42576521 -4.27501973 -0.86582678 0 0 Z " fill="#E7EAE9" transform="translate(207,104)"/>
<path d="M0 0 C5.14910772 1.4867142 10.47010931 2.09422499 15.7734375 2.80078125 C13.55415556 5.70880586 11.84374607 7.75390887 8.7734375 9.80078125 C7.7834375 9.80078125 6.7934375 9.80078125 5.7734375 9.80078125 C5.7734375 9.14078125 5.7734375 8.48078125 5.7734375 7.80078125 C4.5565625 7.73890625 3.3396875 7.67703125 2.0859375 7.61328125 C-3.32350975 7.03582063 -7.91229796 5.05172122 -12.91796875 3.01171875 C-17.59892718 1.29849902 -22.29970766 0.46230284 -27.2265625 -0.19921875 C-27.2265625 -0.52921875 -27.2265625 -0.85921875 -27.2265625 -1.19921875 C-9.25550332 -3.08030158 -9.25550332 -3.08030158 0 0 Z " fill="#CCCEDC" transform="translate(153.2265625,216.19921875)"/>
<path d="M0 0 C2.203125 0.23046875 2.203125 0.23046875 7.203125 2.23046875 C7.203125 5.86046875 7.203125 9.49046875 7.203125 13.23046875 C5.26570159 13.25750256 3.32817021 13.27688 1.390625 13.29296875 C0.31167969 13.30457031 -0.76726562 13.31617188 -1.87890625 13.328125 C-4.796875 13.23046875 -4.796875 13.23046875 -7.796875 12.23046875 C-7.65649979 10.41753786 -7.50942611 8.60512445 -7.359375 6.79296875 C-7.27816406 5.78363281 -7.19695312 4.77429688 -7.11328125 3.734375 C-6.52504998 -0.92064033 -4.23529336 0.08890883 0 0 Z " fill="#CBCFDE" transform="translate(106.796875,177.76953125)"/>
<path d="M0 0 C3.05164319 6.22535211 3.05164319 6.22535211 2.8125 9.8125 C2 12 2 12 0 14 C-3.00495928 14.3392696 -5.10027677 14.55232823 -8 14 C-11.88763711 10.62389409 -12.8600898 6.84461834 -14 2 C-12.04200486 1.66468585 -10.08359226 1.33180857 -8.125 1 C-6.48917969 0.7215625 -6.48917969 0.7215625 -4.8203125 0.4375 C-2 0 -2 0 0 0 Z " fill="#CBD1E0" transform="translate(80,191)"/>
<path d="M0 0 C0.53109375 0.34933594 1.0621875 0.69867188 1.609375 1.05859375 C2.31578125 1.51363281 3.0221875 1.96867188 3.75 2.4375 C4.44609375 2.88996094 5.1421875 3.34242188 5.859375 3.80859375 C7.92957014 4.9608009 9.68696324 5.54676982 12 6 C10.60551748 10.43698984 8.64584413 13.09989671 5 16 C2 16.5625 2 16.5625 -1 16 C-3.875 14 -3.875 14 -6 12 C-5.54300722 6.97307937 -3.00758252 3.85103739 0 0 Z " fill="#CAD0DF" transform="translate(133,196)"/>
<path d="M0 0 C2.5625 1.5 2.5625 1.5 4 3 C3.9375 4.8125 3.9375 4.8125 3 7 C-2.37947978 10.20479647 -7.79449152 10.87353593 -14 10 C-14.66 9.34 -15.32 8.68 -16 8 C-16 6.125 -16 6.125 -15 4 C-10.33406337 -0.19934297 -6.04153305 -0.99736883 0 0 Z " fill="#FDFBFB" transform="translate(103,80)"/>
<path d="M0 0 C3.64553172 1.2808625 5.16671013 2.16671013 8 5 C5.69 8.3 3.38 11.6 1 15 C0.34 14.67 -0.32 14.34 -1 14 C-4.45812169 13.66661404 -4.45812169 13.66661404 -8 14 C-8.474375 14.495 -8.94875 14.99 -9.4375 15.5 C-11.46352076 17.44497993 -12.43218429 17.20195096 -15.1875 17.1875 C-17.0746875 17.0946875 -17.0746875 17.0946875 -19 17 C-18.16275391 16.63648438 -18.16275391 16.63648438 -17.30859375 16.265625 C-10.48055694 12.52233578 -4.71440068 6.12872089 0 0 Z " fill="#F03641" transform="translate(77,164)"/>
<path d="M0 0 C0.78375 0.825 1.5675 1.65 2.375 2.5 C5.97138822 5.52267867 9.07236699 5.49185321 13.6328125 5.37109375 C16.10695402 4.98323328 17.83879445 4.23995434 20 3 C19.67278832 6.05397571 18.96883223 7.03116777 16.75 9.25 C13.79010327 11.13357065 12.42491198 11.39141851 9 11 C9.22816406 11.53109375 9.45632812 12.0621875 9.69140625 12.609375 C9.97886719 13.31578125 10.26632813 14.0221875 10.5625 14.75 C10.85253906 15.44609375 11.14257812 16.1421875 11.44140625 16.859375 C12.07831803 19.30012784 11.80248831 20.6403655 11 23 C8.1875 23.25 8.1875 23.25 5 23 C3.125 21 3.125 21 2 19 C3.30208333 17.50260417 4.60416667 16.00520833 5.90625 14.5078125 C7.19572458 13.04063579 7.19572458 13.04063579 7 11 C5.03277992 9.61876037 3.03131672 8.28511874 1 7 C0 6 0 6 -0.0625 2.9375 C-0.041875 1.968125 -0.02125 0.99875 0 0 Z " fill="#D97171" transform="translate(103,112)"/>
<path d="M0 0 C3.03766277 1.26002879 5.57411164 2.77325173 8 5 C9.0625 7.75 9.0625 7.75 9 10 C8 11 8 11 4.4375 11.3125 C-1.2029761 11.2616849 -6.03302627 8.96697373 -10 5 C-10 3.68 -10 2.36 -10 1 C-6.74320988 -0.62839506 -3.51855114 -0.54651143 0 0 Z " fill="#FDFCFC" transform="translate(141,84)"/>
<path d="M0 0 C1.56814453 0.00966797 1.56814453 0.00966797 3.16796875 0.01953125 C5.8125 0.1875 5.8125 0.1875 7.8125 1.1875 C8.92625 1.14625 10.04 1.105 11.1875 1.0625 C14.98800316 1.19355183 16.13761434 1.61960977 18.8125 4.1875 C14.81158596 4.93734705 11.04500483 5.3070296 6.9765625 5.28515625 C5.91308594 5.28193359 4.84960938 5.27871094 3.75390625 5.27539062 C2.65949219 5.26701172 1.56507812 5.25863281 0.4375 5.25 C-0.68011719 5.24548828 -1.79773438 5.24097656 -2.94921875 5.23632812 C-5.69536804 5.22459244 -8.44140586 5.20817363 -11.1875 5.1875 C-11.1875 4.1975 -11.1875 3.2075 -11.1875 2.1875 C-7.31060085 0.37445844 -4.26593864 -0.05829233 0 0 Z " fill="#C62139" transform="translate(124.1875,209.8125)"/>
<path d="M0 0 C1.91015625 0.23046875 1.91015625 0.23046875 3.91015625 2.23046875 C3.35460069 6.78602431 3.35460069 6.78602431 1.91015625 8.23046875 C-4.3481219 8.69404491 -4.3481219 8.69404491 -7.08984375 6.98046875 C-8.08984375 5.23046875 -8.08984375 5.23046875 -7.83984375 3.10546875 C-6.27847187 -0.79796096 -3.90640082 0.07798622 0 0 Z " fill="#FC8684" transform="translate(145.08984375,111.76953125)"/>
<path d="M0 0 C0.33 0.66 0.66 1.32 1 2 C-2.61846184 7.21484206 -6.49572653 10.1780969 -12.125 13.0625 C-12.7348877 13.38549072 -13.34477539 13.70848145 -13.97314453 14.04125977 C-18.4061452 16.19954285 -18.4061452 16.19954285 -21.4296875 15.18359375 C-21.94789063 14.79300781 -22.46609375 14.40242187 -23 14 C-23 13.34 -23 12.68 -23 12 C-22.154375 11.78085938 -21.30875 11.56171875 -20.4375 11.3359375 C-12.04761518 8.99058333 -6.14528451 6.14528451 0 0 Z " fill="#F4A487" transform="translate(161,114)"/>
<path d="M0 0 C3.125 0.1875 3.125 0.1875 6.125 2.1875 C6.3125 4.8125 6.3125 4.8125 6.125 7.1875 C3.07516004 8.71241998 0.4826631 8.42312548 -2.875 8.1875 C-4.8125 6.6875 -4.8125 6.6875 -5.875 5.1875 C-3.47456553 0.2266021 -3.47456553 0.2266021 0 0 Z " fill="#FC8584" transform="translate(86.875,104.8125)"/>
<path d="M0 0 C0.33 0.66 0.66 1.32 1 2 C3.64 2 6.28 2 9 2 C9 3.65 9 5.3 9 7 C6.87506859 7.02693575 4.75004088 7.04636628 2.625 7.0625 C1.44164063 7.07410156 0.25828125 7.08570313 -0.9609375 7.09765625 C-4 7 -4 7 -6 6 C-6 4.35 -6 2.7 -6 1 C-4.7934375 1.0309375 -4.7934375 1.0309375 -3.5625 1.0625 C-1.06645115 1.29633621 -1.06645115 1.29633621 0 0 Z " fill="#393737" transform="translate(105,199)"/>
<path d="M0 0 C0.66 0.33 1.32 0.66 2 1 C1.34 5.29 0.68 9.58 0 14 C-4 13 -4 13 -6 10 C-5.9375 6.5 -5.9375 6.5 -5 3 C-2.5625 1 -2.5625 1 0 0 Z " fill="#C32037" transform="translate(99,176)"/>
<path d="M0 0 C0.66 0.33 1.32 0.66 2 1 C3.17169312 4.98375661 3.08089427 8.87439224 3 13 C4.32 13.33 5.64 13.66 7 14 C3.53777385 15.06723961 0.35960734 15.10173486 -3.25 15.0625 C-4.32765625 15.05347656 -5.4053125 15.04445312 -6.515625 15.03515625 C-7.33546875 15.02355469 -8.1553125 15.01195312 -9 15 C-9 14.34 -9 13.68 -9 13 C-7.02 13 -5.04 13 -3 13 C-1.41744803 8.67435795 -0.54855348 4.571279 0 0 Z " fill="#C01E36" transform="translate(157,175)"/>
<path d="M0 0 C1 2 1 2 0.43359375 4.27734375 C-2.28736964 11.54391657 -2.28736964 11.54391657 -6.125 14 C-7.548125 14.495 -7.548125 14.495 -9 15 C-9.66 15.66 -10.32 16.32 -11 17 C-13.68839385 17.26991906 -16.29141936 17.08737357 -19 17 C-18.16275391 16.63648438 -18.16275391 16.63648438 -17.30859375 16.265625 C-10.48055694 12.52233578 -4.71440068 6.12872089 0 0 Z " fill="#C11E36" transform="translate(77,164)"/>
<path d="M0 0 C1.98 0 3.96 0 6 0 C7 1 7 1 7.4375 3.75 C6.95778497 7.31359736 6.66818561 7.69320583 4.0625 9.875 C1 12 1 12 0 12 C0 8.04 0 4.08 0 0 Z " fill="#F4A182" transform="translate(180,112)"/>
<path d="M0 0 C2.97 0.495 2.97 0.495 6 1 C6 3.31 6 5.62 6 8 C2.67941827 9.10686058 2.20623075 8.84788239 -1 8 C-4.39812547 7.73860573 -7.79577222 7.55683949 -11.19921875 7.37890625 C-12.12347656 7.25386719 -13.04773438 7.12882813 -14 7 C-14.33 6.34 -14.66 5.68 -15 5 C-10.05 5.33 -5.1 5.66 0 6 C0 4.02 0 2.04 0 0 Z " fill="#ECA104" transform="translate(114,200)"/>
<path d="M0 0 C1.36125 0.12375 1.36125 0.12375 2.75 0.25 C3.08 1.24 3.41 2.23 3.75 3.25 C5.76508358 3.98323796 5.76508358 3.98323796 7.75 4.25 C7.75 5.24 7.75 6.23 7.75 7.25 C-2.80808656 6.47095672 -2.80808656 6.47095672 -7.25 4.25 C-4.83923194 1.28290085 -3.90322061 0.30024774 0 0 Z " fill="#F33F43" transform="translate(90.25,205.75)"/>
<path d="M0 0 C3.375 0.5625 3.375 0.5625 7 2 C8.4375 5.625 8.4375 5.625 9 9 C5.7 9 2.4 9 -1 9 C-0.67 6.03 -0.34 3.06 0 0 Z " fill="#3D3639" transform="translate(120,201)"/>
<path d="M0 0 C2.00720923 0.28674418 4.0085944 0.61866701 6 1 C5.67 3.97 5.34 6.94 5 10 C2 10 2 10 0.3125 8.875 C-1.55219419 6.21115115 -1.27580792 4.17179104 -1 1 C-0.67 0.67 -0.34 0.34 0 0 Z " fill="#F4A182" transform="translate(66,98)"/>
<path d="M0 0 C4.86896303 0.59619955 9.32790951 1.56976822 14 3 C12 5 12 5 9.3984375 5.1953125 C8.40070313 5.17210937 7.40296875 5.14890625 6.375 5.125 C4.87066406 5.09792969 4.87066406 5.09792969 3.3359375 5.0703125 C2.56507812 5.04710937 1.79421875 5.02390625 1 5 C0.67 5.99 0.34 6.98 0 8 C0 5.36 0 2.72 0 0 Z " fill="#CDCBD8" transform="translate(68,206)"/>
<path d="M0 0 C0.33 0.99 0.66 1.98 1 3 C1.66 3.33 2.32 3.66 3 4 C-0.96 4 -4.92 4 -9 4 C-9 3.01 -9 2.02 -9 1 C-3.47033898 -1.61122881 -3.47033898 -1.61122881 0 0 Z " fill="#F43B41" transform="translate(122,211)"/>
<path d="M0 0 C5.28 0.33 10.56 0.66 16 1 C16 1.66 16 2.32 16 3 C11.545 4.485 11.545 4.485 7 6 C6.34 5.01 5.68 4.02 5 3 C2.44816596 1.79549696 2.44816596 1.79549696 0 1 C0 0.67 0 0.34 0 0 Z " fill="#ECA71A" transform="translate(98,190)"/>
<path d="M0 0 C2.97 0.495 2.97 0.495 6 1 C6 2.98 6 4.96 6 7 C3.03 6.505 3.03 6.505 0 6 C0 4.02 0 2.04 0 0 Z " fill="#EFA303" transform="translate(93,198)"/>
<path d="M0 0 C5.02254631 -0.2954439 7.89542386 0.01485372 12 3 C11.34 3.66 10.68 4.32 10 5 C9.34 4.67 8.68 4.34 8 4 C6.46331135 3.77532169 4.92031946 3.59203195 3.375 3.4375 C2.55773437 3.35371094 1.74046875 3.26992187 0.8984375 3.18359375 C0.27195312 3.12300781 -0.35453125 3.06242187 -1 3 C-0.67 2.01 -0.34 1.02 0 0 Z " fill="#664342" transform="translate(92,98)"/>
<path d="M0 0 C1 1 2 2 3 3 C3.86625 3.825 4.7325 4.65 5.625 5.5 C8 8 8 8 9 11 C6.75 10.9375 6.75 10.9375 4 10 C1.52994022 6.9301813 0 4.00503984 0 0 Z " fill="#F3A88C" transform="translate(78,110)"/>
<path d="M0 0 C3.3 0 6.6 0 10 0 C9.67 1.32 9.34 2.64 9 4 C6.1875 4.25 6.1875 4.25 3 4 C2.01 2.68 1.02 1.36 0 0 Z " fill="#ED8081" transform="translate(105,131)"/>
<path d="M0 0 C1.4370809 -0.05422947 2.87475462 -0.09289723 4.3125 -0.125 C5.11300781 -0.14820312 5.91351563 -0.17140625 6.73828125 -0.1953125 C9 0 9 0 12 2 C12 2.66 12 3.32 12 4 C10.3954444 3.85851011 8.79136233 3.71164314 7.1875 3.5625 C6.29417969 3.48128906 5.40085938 3.40007812 4.48046875 3.31640625 C2 3 2 3 -1 2 C-0.67 1.34 -0.34 0.68 0 0 Z " fill="#5B393B" transform="translate(129,103)"/>
<path d="M0 0 C1.9451 2.91765 2.45276317 4.62537285 3 8 C0.36 7.67 -2.28 7.34 -5 7 C-3.35 4.69 -1.7 2.38 0 0 Z " fill="#5C3A3E" transform="translate(111,124)"/>
</svg>
