<?xml version="1.0" encoding="UTF-8"?>
<svg version="1.1" xmlns="http://www.w3.org/2000/svg" width="256" height="256">
<path d="M0 0 C3.72074252 2.69160097 5.21827263 5.68654526 7.25 9.75 C10.73939369 14.66099852 16.34805713 15.61489683 21.9375 17 C31.49075744 19.69347385 31.49075744 19.69347385 34.9375 24.125 C36.39699535 28.70713655 36.34005663 32.07068501 34.625 36.5625 C32.9375 39.125 32.9375 39.125 30.9375 41.125 C31.75992188 41.59808594 32.58234375 42.07117188 33.4296875 42.55859375 C41.06986523 47.08447271 47.49024431 51.9722356 53.9375 58.125 C55.59935837 59.6303254 57.26605941 61.1303214 58.9375 62.625 C61.421298 64.84653361 63.88524358 67.07516606 66.296875 69.375 C74.68715441 77.27173356 84.22997067 82.92623788 94.078125 88.78125 C95.17503662 89.43464355 96.27194824 90.08803711 97.40209961 90.76123047 C99.5863649 92.05876019 101.77452097 93.3497689 103.96704102 94.63330078 C122.5743299 105.64396236 122.5743299 105.64396236 125.9375 114.125 C127.34779552 122.06719054 124.63777771 129.18809068 120.171875 135.69921875 C113.09921007 144.79065615 105.35249361 151.94675083 95.6875 158.1875 C94.76670654 158.79094238 93.84591309 159.39438477 92.8972168 160.01611328 C74.305514 172.125 74.305514 172.125 70.9375 172.125 C70.80214844 172.681875 70.66679687 173.23875 70.52734375 173.8125 C68.52250796 180.91946279 65.14983188 186.45074893 58.80859375 190.4765625 C53.09665961 193.40090447 48.16254064 194.33088966 41.75 194.375 C40.65461914 194.4059375 40.65461914 194.4059375 39.53710938 194.4375 C35.56925051 194.46561592 32.62428143 194.13438208 28.98828125 192.5 C24.12786595 190.4798693 20.26825037 191.61542944 15.3125 192.875 C13.54038803 193.2728776 11.76692677 193.66479171 9.9921875 194.05078125 C9.13077148 194.23979004 8.26935547 194.42879883 7.38183594 194.62353516 C-3.4615295 196.84809295 -14.26961175 197.00665043 -24.125 191.375 C-27.52092903 187.43134048 -29.08113869 183.7857069 -29.0234375 178.64453125 C-28.73339844 176.80955078 -28.73339844 176.80955078 -28.4375 174.9375 C-28.33775879 174.26041992 -28.23801758 173.58333984 -28.13525391 172.88574219 C-27.79843702 170.62840663 -27.43278126 168.3770768 -27.0625 166.125 C-23.32750905 142.94901852 -23.98465771 128.09659218 -35.0625 107.125 C-35.660625 107.599375 -36.25875 108.07375 -36.875 108.5625 C-40.84451902 111.39787073 -44.29340223 111.52916083 -49.0625 111.125 C-54.67395119 108.60557294 -56.85849183 104.58368184 -59.66796875 99.3671875 C-61.56849011 96.31144727 -63.37155501 95.29312023 -66.83984375 94.44921875 C-68.40412109 94.13404297 -68.40412109 94.13404297 -70 93.8125 C-73.82255438 92.88917769 -75.73650126 92.40551054 -78.75 89.8125 C-81.00046726 85.20440038 -81.54220893 81.94081515 -79.9375 77.0625 C-77.16982804 70.55105748 -72.01957487 67.25691976 -66.24609375 63.5546875 C-64.11415194 62.15881862 -62.08448863 60.67473278 -60.0625 59.125 C-60.413125 58.031875 -60.76375 56.93875 -61.125 55.8125 C-63.15583321 47.4684244 -61.68940493 39.81524047 -57.5859375 32.35546875 C-54.14841773 27.32258723 -49.89902046 23.93291794 -44.0625 22.125 C-40.36328125 21.89453125 -40.36328125 21.89453125 -36.375 21.9375 C-35.36083008 21.9384668 -35.36083008 21.9384668 -34.32617188 21.93945312 C-29.3443674 21.9840663 -29.3443674 21.9840663 -27.0625 23.125 C-26.97613281 22.568125 -26.88976562 22.01125 -26.80078125 21.4375 C-25.19108782 12.69494486 -21.52575554 6.91236376 -14.7109375 1.25390625 C-10.17629733 -1.85157007 -5.08219012 -1.45205432 0 0 Z M-47.0625 37.125 C-50.79159136 42.22142486 -50.7997535 48.02590288 -50.0625 54.125 C-49.4025 55.115 -48.7425 56.105 -48.0625 57.125 C-44.47892759 57.37515873 -44.47892759 57.37515873 -41.0625 57.125 C-40.670625 56.2175 -40.27875 55.31 -39.875 54.375 C-37.15842447 49.50389905 -33.99221453 47.58985727 -29.0625 45.125 C-29.0625 41.495 -29.0625 37.865 -29.0625 34.125 C-35.7995548 31.87931507 -41.64999279 32.22796966 -47.0625 37.125 Z " fill="#FBC839" transform="translate(112.0625,24.875)"/>
<path d="M0 0 C3.72074252 2.69160097 5.21827263 5.68654526 7.25 9.75 C10.73939369 14.66099852 16.34805713 15.61489683 21.9375 17 C31.49075744 19.69347385 31.49075744 19.69347385 34.9375 24.125 C36.32793356 28.49031467 36.26498244 31.98972756 35 36.375 C27.15976321 46.82864905 9.50216268 50.83941399 -2.8359375 52.69140625 C-11.50057211 53.87717932 -11.50057211 53.87717932 -18.1875 59.125 C-18.68894531 59.82625 -19.19039062 60.5275 -19.70703125 61.25 C-21.45216792 63.6640219 -23.37192865 64.89502453 -26.0625 66.125 C-26.7225 66.125 -27.3825 66.125 -28.0625 66.125 C-27.57716797 67.07632813 -27.57716797 67.07632813 -27.08203125 68.046875 C-25.70391332 72.20762952 -25.73296497 76.02084519 -25.75 80.375 C-25.73388672 81.18324219 -25.71777344 81.99148437 -25.70117188 82.82421875 C-25.69452265 91.13574672 -27.59124282 98.0617009 -32.9375 104.5625 C-33.92363281 105.79806641 -33.92363281 105.79806641 -34.9296875 107.05859375 C-38.19702067 110.22419676 -41.0348868 111.01289674 -45.5 111.5 C-49.98519144 111.02787459 -51.68949544 110.13917429 -55.0625 107.125 C-56.73396203 104.59742328 -58.23120531 102.03489702 -59.66796875 99.3671875 C-61.56849011 96.31144727 -63.37155501 95.29312023 -66.83984375 94.44921875 C-68.40412109 94.13404297 -68.40412109 94.13404297 -70 93.8125 C-73.82255438 92.88917769 -75.73650126 92.40551054 -78.75 89.8125 C-81.00046726 85.20440038 -81.54220893 81.94081515 -79.9375 77.0625 C-77.16982804 70.55105748 -72.01957487 67.25691976 -66.24609375 63.5546875 C-64.11415194 62.15881862 -62.08448863 60.67473278 -60.0625 59.125 C-60.413125 58.031875 -60.76375 56.93875 -61.125 55.8125 C-63.15583321 47.4684244 -61.68940493 39.81524047 -57.5859375 32.35546875 C-54.14841773 27.32258723 -49.89902046 23.93291794 -44.0625 22.125 C-40.36328125 21.89453125 -40.36328125 21.89453125 -36.375 21.9375 C-35.36083008 21.9384668 -35.36083008 21.9384668 -34.32617188 21.93945312 C-29.3443674 21.9840663 -29.3443674 21.9840663 -27.0625 23.125 C-26.97613281 22.568125 -26.88976562 22.01125 -26.80078125 21.4375 C-25.19108782 12.69494486 -21.52575554 6.91236376 -14.7109375 1.25390625 C-10.17629733 -1.85157007 -5.08219012 -1.45205432 0 0 Z M-47.0625 37.125 C-50.79159136 42.22142486 -50.7997535 48.02590288 -50.0625 54.125 C-49.4025 55.115 -48.7425 56.105 -48.0625 57.125 C-44.47892759 57.37515873 -44.47892759 57.37515873 -41.0625 57.125 C-40.670625 56.2175 -40.27875 55.31 -39.875 54.375 C-37.15842447 49.50389905 -33.99221453 47.58985727 -29.0625 45.125 C-29.0625 41.495 -29.0625 37.865 -29.0625 34.125 C-35.7995548 31.87931507 -41.64999279 32.22796966 -47.0625 37.125 Z " fill="#FD4D58" transform="translate(112.0625,24.875)"/>
<path d="M0 0 C6.64451472 11.9601265 3.44036377 30.3160928 0 43 C-6.42481398 62.07429197 -20.12986791 76.03510358 -35 89 C-37.69225161 91.44546188 -40.37991674 93.89586785 -43.06640625 96.34765625 C-45 98 -45 98 -46 98 C-46.12375 96.97003906 -46.2475 95.94007813 -46.375 94.87890625 C-47.66270717 85.60126177 -49.94094588 77.89871383 -54.39453125 69.62329102 C-55.92418151 66.71321606 -57.02383885 64.59597134 -56.890625 61.265625 C-55.6888825 58.20856074 -54.01947939 55.7490168 -52.15625 53.0625 C-49.302392 47.97183438 -49.84895363 42.16942574 -49.875 36.5 C-49.87113281 35.65824219 -49.86726563 34.81648438 -49.86328125 33.94921875 C-49.8697567 29.83731013 -49.96468013 26.00981028 -51 22 C-50.40832031 21.63648437 -49.81664063 21.27296875 -49.20703125 20.8984375 C-48.41683594 20.39570312 -47.62664062 19.89296875 -46.8125 19.375 C-45.64654297 18.64410156 -45.64654297 18.64410156 -44.45703125 17.8984375 C-41.80088105 16.03238103 -41.80088105 16.03238103 -39.77734375 12.9140625 C-36.55373239 8.89593861 -32.6351197 8.67657324 -27.75 8 C-18.02523932 6.38100145 -9.17035584 3.56360978 0 0 Z " fill="#FECF4D" transform="translate(135,69)"/>
<path d="M0 0 C1.16208984 -0.020625 2.32417969 -0.04125 3.52148438 -0.0625 C5.20274414 -0.07023438 5.20274414 -0.07023438 6.91796875 -0.078125 C7.93012451 -0.0874707 8.94228027 -0.09681641 9.98510742 -0.10644531 C14.07631651 0.40932753 16.66803061 2.21997755 19.6875 4.9375 C21.46071493 8.58244181 21.01822194 11.52663068 19.8125 15.25 C10.38373218 34.16485337 -10.26495528 51.00543828 -30.1875 58.25 C-30.33445313 57.693125 -30.48140625 57.13625 -30.6328125 56.5625 C-32.51862749 50.14639384 -35.08555248 43.6594773 -41.109375 40.12109375 C-44.44641987 38.78239552 -47.41063026 38.22439489 -51 37.8125 C-54.1875 37.25 -54.1875 37.25 -55.75 35.76171875 C-57.79887702 32.18175156 -58.52047474 28.50995123 -59.375 24.5 C-59.55224609 23.70722656 -59.72949219 22.91445312 -59.91210938 22.09765625 C-60.34613654 20.15039924 -60.76802679 18.20044396 -61.1875 16.25 C-41.98776823 5.05336283 -22.12046299 0.09913933 0 0 Z " fill="#F4B503" transform="translate(213.1875,134.75)"/>
<path d="M0 0 C0.66 0 1.32 0 2 0 C5.95777596 11.70041535 5.95777596 11.70041535 7.1875 16.1875 C7.72040641 18.88143219 7.72040641 18.88143219 9 20 C10.72490129 20.29678881 12.4552189 20.56235954 14.1875 20.8125 C20.07813201 21.87798899 23.9296075 23.26063634 27.65625 28.19140625 C32.35078762 35.08927639 33.94156658 39.54779765 33 48 C30.23720897 56.93388503 24.54403812 62.43881488 16.5625 66.9375 C12.28723634 68.3086503 7.89003592 68.31060875 3.4375 68.375 C2.71699463 68.38909912 1.99648926 68.40319824 1.25415039 68.41772461 C-3.85373898 68.37153905 -7.42590786 67.27201948 -12 65 C-12 64.34 -12 63.68 -12 63 C-12.86625 62.7215625 -12.86625 62.7215625 -13.75 62.4375 C-17.07482657 60.31330525 -18.68392815 57.62754831 -20 54 C-21.1354182 47.59374136 -20.12807132 43.09990433 -16.45703125 37.7890625 C-15 36 -15 36 -13.44921875 34.5234375 C-11.73595639 32.97832452 -11.73595639 32.97832452 -10 30 C-10.39148147 26.43384845 -11.67691223 23.3151525 -13 20 C-13.57177553 18.29474876 -14.1349441 16.58657559 -14.6875 14.875 C-15.12363645 13.58287229 -15.56090112 12.29112401 -16 11 C-14.92878906 10.28972656 -13.85757813 9.57945312 -12.75390625 8.84765625 C-11.35673055 7.91933146 -9.95959733 6.99094274 -8.5625 6.0625 C-7.85544922 5.59392578 -7.14839844 5.12535156 -6.41992188 4.64257812 C-5.74638672 4.19462891 -5.07285156 3.74667969 -4.37890625 3.28515625 C-3.44413452 2.66459351 -3.44413452 2.66459351 -2.49047852 2.03149414 C-1.01980114 1.0794855 -1.01980114 1.0794855 0 0 Z " fill="#FEE7CA" transform="translate(150,151)"/>
<path d="M0 0 C1.01416992 0.0009668 1.01416992 0.0009668 2.04882812 0.00195312 C7.0306326 0.0465663 7.0306326 0.0465663 9.3125 1.1875 C8.9825 4.8175 8.6525 8.4475 8.3125 12.1875 C7.43207031 12.15269531 6.55164063 12.11789063 5.64453125 12.08203125 C3.90236328 12.04142578 3.90236328 12.04142578 2.125 12 C0.97644531 11.96519531 -0.17210937 11.93039063 -1.35546875 11.89453125 C-5.00959966 12.2158206 -6.78059179 13.00212793 -9.6875 15.1875 C-13.45878087 20.38926672 -13.21249383 26.00872643 -12.6875 32.1875 C-12.3575 32.8475 -12.0275 33.5075 -11.6875 34.1875 C-9.79216658 34.65273063 -9.79216658 34.65273063 -7.625 34.8125 C-6.325625 34.93625 -5.02625 35.06 -3.6875 35.1875 C-3.6875 36.1775 -3.6875 37.1675 -3.6875 38.1875 C-5.31945312 38.51621094 -5.31945312 38.51621094 -6.984375 38.8515625 C-21.41206024 41.63849912 -21.41206024 41.63849912 -33.6875 49.1875 C-29.40750646 51.32749677 -24.19701645 50.28071611 -19.6875 49.1875 C-18.6875 52.1875 -18.6875 52.1875 -20.125 55.375 C-20.640625 56.303125 -21.15625 57.23125 -21.6875 58.1875 C-17.96316618 56.9749262 -14.30947194 55.67890021 -10.6875 54.1875 C-11.02681872 58.34415428 -11.5105991 61.20494133 -13.75 64.75 C-15.77591141 68.34435895 -16.08123753 70.15169027 -15.6875 74.1875 C-15.0275 74.5175 -14.3675 74.8475 -13.6875 75.1875 C-13.33365234 74.19169922 -13.33365234 74.19169922 -12.97265625 73.17578125 C-11.33468757 69.36713066 -9.27011497 65.91630355 -7.125 62.375 C-6.71314453 61.68212891 -6.30128906 60.98925781 -5.87695312 60.27539062 C-4.84463173 58.56048683 -3.76979765 56.87130945 -2.6875 55.1875 C-2.3575 55.1875 -2.0275 55.1875 -1.6875 55.1875 C-1.50443868 59.85556362 -1.97522802 62.90682005 -3.6875 67.1875 C-3.76396165 69.5195802 -3.77893299 71.85595878 -3.6875 74.1875 C-3.0275 74.1875 -2.3675 74.1875 -1.6875 74.1875 C-0.94786163 71.73683154 -0.2113145 69.28533975 0.51953125 66.83203125 C1.12259439 64.82083055 1.74449881 62.8152685 2.375 60.8125 C3.70715758 55.6614907 4.50139561 50.44242099 5.3125 45.1875 C4.3225 44.6925 4.3225 44.6925 3.3125 44.1875 C4.9625 44.1875 6.6125 44.1875 8.3125 44.1875 C10.71674905 48.90021129 10.64520581 53.27289516 10.625 58.4375 C10.64111328 59.24574219 10.65722656 60.05398437 10.67382812 60.88671875 C10.68047735 69.19824672 8.78375718 76.1242009 3.4375 82.625 C2.45136719 83.86056641 2.45136719 83.86056641 1.4453125 85.12109375 C-1.82202067 88.28669676 -4.6598868 89.07539674 -9.125 89.5625 C-13.61019144 89.09037459 -15.31449544 88.20167429 -18.6875 85.1875 C-20.35896203 82.65992328 -21.85620531 80.09739702 -23.29296875 77.4296875 C-25.19349011 74.37394727 -26.99655501 73.35562023 -30.46484375 72.51171875 C-32.02912109 72.19654297 -32.02912109 72.19654297 -33.625 71.875 C-37.44755438 70.95167769 -39.36150126 70.46801054 -42.375 67.875 C-44.62546726 63.26690038 -45.16720893 60.00331515 -43.5625 55.125 C-40.79482804 48.61355748 -35.64457487 45.31941976 -29.87109375 41.6171875 C-27.73915194 40.22131862 -25.70948863 38.73723278 -23.6875 37.1875 C-24.038125 36.094375 -24.38875 35.00125 -24.75 33.875 C-26.78083321 25.5309244 -25.31440493 17.87774047 -21.2109375 10.41796875 C-15.81548999 2.51848022 -9.42863295 -0.10158175 0 0 Z " fill="#FD4D58" transform="translate(75.6875,46.8125)"/>
<path d="M0 0 C1.06300631 2.55541912 2.10028574 5.11676487 3.125 7.6875 C3.42792969 8.40873047 3.73085937 9.12996094 4.04296875 9.87304688 C6.16412674 15.27460035 6.16412674 15.27460035 5.3671875 18.796875 C4.04548816 20.92669908 2.70366353 22.72680254 1 24.5625 C-3.49528407 29.42864501 -4.37555152 33.03976986 -4.26953125 39.59375 C-3.92820371 42.640964 -2.78758204 44.54207469 -1 47 C-1 47.99 -1 48.98 -1 50 C-8.64308969 51.63553132 -15.94038607 52.33835965 -23.75 52.3125 C-24.73871094 52.32861328 -25.72742188 52.34472656 -26.74609375 52.36132812 C-32.61322914 52.36524477 -36.83909597 51.86026006 -42 49 C-44.88609555 45.74150502 -45.67400432 42.53583862 -45.4609375 38.16796875 C-42.87891003 26.02368701 -11.86673887 0 0 0 Z " fill="#F4B503" transform="translate(135,163)"/>
<path d="M0 0 C2.5625 2.375 2.5625 2.375 5 5 C6.31122758 5.70915757 7.64182617 6.38551966 9 7 C8.63453007 17.14179047 6.8415706 26.96819116 2 36 C1.34 36 0.68 36 0 36 C-0.95514336 31.12876884 -0.96249138 28.5021861 1 24 C1 22.02 1 20.04 1 18 C-2.63 24.27 -6.26 30.54 -10 37 C-11.485 36.505 -11.485 36.505 -13 36 C-13.68659748 30.64453965 -11.938152 27.63619165 -9.19140625 23.24609375 C-7.90616679 20.82310132 -7.41265778 18.69887675 -7 16 C-7.92232422 16.55880859 -7.92232422 16.55880859 -8.86328125 17.12890625 C-9.67152344 17.60199219 -10.47976562 18.07507813 -11.3125 18.5625 C-12.11300781 19.03816406 -12.91351563 19.51382813 -13.73828125 20.00390625 C-16 21 -16 21 -19 20 C-18.505 19.05125 -18.01 18.1025 -17.5 17.125 C-15.85575631 14.27721834 -15.85575631 14.27721834 -16 12 C-16.680625 12.165 -17.36125 12.33 -18.0625 12.5 C-21.48119943 13.08190629 -24.53820789 13.25642905 -28 13 C-29.7109375 11.484375 -29.7109375 11.484375 -31 10 C-10.65266349 -0.98635773 -10.65266349 -0.98635773 0 0 Z " fill="#EA273A" transform="translate(72,85)"/>
<path d="M0 0 C1.44414528 -0.0049926 1.44414528 -0.0049926 2.91746521 -0.01008606 C4.94179818 -0.01511125 6.96613931 -0.01749576 8.99047852 -0.01733398 C12.0270007 -0.01950862 15.06315173 -0.03767969 18.09960938 -0.05664062 C46.57764338 -0.13818137 46.57764338 -0.13818137 56.49609375 3.16796875 C56.49609375 4.15796875 56.49609375 5.14796875 56.49609375 6.16796875 C42.35601133 9.52379476 27.88162005 9.36956523 13.43359375 9.35546875 C12.15023132 9.35605789 12.15023132 9.35605789 10.84094238 9.35665894 C-20.99032445 9.33916268 -20.99032445 9.33916268 -30.50390625 6.16796875 C-30.50390625 5.17796875 -30.50390625 4.18796875 -30.50390625 3.16796875 C-20.3790668 0.67825413 -10.40375716 0.01296546 0 0 Z " fill="#D6D3D1" transform="translate(154.50390625,222.83203125)"/>
<path d="M0 0 C0.33 0 0.66 0 1 0 C1.66 4.29 2.32 8.58 3 13 C4.32 13.33 5.64 13.66 7 14 C9.0461031 12.80885788 9.0461031 12.80885788 10.9375 11.0625 C13.40674461 8.90743363 14.43745992 8.03909853 17.75390625 7.80859375 C18.49511719 7.87175781 19.23632812 7.93492188 20 8 C20.99 10.64 21.98 13.28 23 16 C25.97 16.33 28.94 16.66 32 17 C32.495 18.98 32.495 18.98 33 21 C31.54462432 21.83848804 30.08559627 22.67063934 28.625 23.5 C27.81289062 23.9640625 27.00078125 24.428125 26.1640625 24.90625 C24 26 24 26 22 26 C22.33 27.32 22.66 28.64 23 30 C18.59913433 33.12319499 14.20540698 34.03603575 9 35 C8.731875 34.05125 8.46375 33.1025 8.1875 32.125 C7.25013412 28.74732727 7.25013412 28.74732727 4 27 C1.9507906 26.54860541 1.9507906 26.54860541 -0.1875 26.375 C-1.445625 26.25125 -2.70375 26.1275 -4 26 C-4.42324766 16.52395508 -4.63162582 8.60159081 0 0 Z " fill="#EA2639" transform="translate(89,43)"/>
<path d="M0 0 C0.68513672 -0.00386719 1.37027344 -0.00773437 2.07617188 -0.01171875 C7.1841133 -0.00169335 7.1841133 -0.00169335 9.4375 1.125 C9.1075 4.755 8.7775 8.385 8.4375 12.125 C7.55707031 12.09019531 6.67664063 12.05539063 5.76953125 12.01953125 C4.02736328 11.97892578 4.02736328 11.97892578 2.25 11.9375 C1.10144531 11.90269531 -0.04710938 11.86789063 -1.23046875 11.83203125 C-4.88459966 12.1533206 -6.65559179 12.93962793 -9.5625 15.125 C-13.35246257 20.35253457 -13.04938968 25.92651982 -12.5625 32.125 C-12.26625891 33.46706189 -11.94660944 34.80539823 -11.5625 36.125 C-15.31794871 37.52237627 -18.53646822 38.68417108 -22.5625 38.125 C-26.02276147 32.93460779 -26.05281445 26.48509608 -25.1640625 20.39453125 C-23.26349906 13.18356998 -19.56935605 6.986568 -13.375 2.6875 C-8.82713821 0.16091012 -5.076901 -0.02881874 0 0 Z " fill="#F4B403" transform="translate(75.5625,46.875)"/>
<path d="M0 0 C4.78047289 0.97560671 6.74694922 3.7202307 9.44921875 7.6328125 C12.97598234 13.10990667 14.41373519 16.95153135 14.0625 23.625 C13.20705592 26.26261924 12.56002294 27.26962647 10.3125 28.875 C7.27182719 29.8885576 5.25852338 30.07244327 2.0625 29.625 C-2.9020588 26.607327 -4.91128303 23.67000878 -6.46484375 18.09765625 C-7.53784611 12.4843464 -7.99532212 7.6592733 -5.3125 2.5 C-2.9375 0.625 -2.9375 0.625 0 0 Z " fill="#FFE08C" transform="translate(93.9375,112.375)"/>
<path d="M0 0 C1.44430855 2.88861709 1.37688506 4.79647701 1 8 C-2.13345996 12.05506584 -4.9691124 14.05077592 -10 15 C-16.3809548 15.0832751 -21.00390253 14.24668285 -26 10 C-28 7 -28 7 -28 3.5625 C-27 0 -27 0 -24.3125 -2.375 C-15.98266479 -6.46133425 -7.16989831 -5.9151661 0 0 Z " fill="#FFEFDE" transform="translate(163,198)"/>
<path d="M0 0 C1.24652344 -0.02578125 2.49304688 -0.0515625 3.77734375 -0.078125 C7.0625 0.25 7.0625 0.25 8.96484375 1.56640625 C10.9650426 4.6343269 10.64660628 6.68695166 10.0625 10.25 C7.10962291 14.7578936 3.16302772 19.30694182 -1.9375 21.25 C-5.05277616 21.75209579 -7.83193043 21.85198541 -10.9375 21.25 C-14.06291875 18.97104883 -15.52103173 17.36058206 -16.875 13.75 C-16.95402797 10.58888129 -16.52171196 9.00515123 -14.9375 6.25 C-10.06433834 1.41756114 -6.8136238 0.08437924 0 0 Z " fill="#FE717E" transform="translate(87.9375,69.75)"/>
<path d="M0 0 C0.66 0 1.32 0 2 0 C2.72873466 1.88808526 3.43226247 3.78591254 4.125 5.6875 C4.51945312 6.74324219 4.91390625 7.79898438 5.3203125 8.88671875 C6.12137326 12.55594532 5.84811415 13.77618291 4 17 C1.9765625 19.5703125 1.9765625 19.5703125 -0.375 22.125 C-1.14585937 22.97320312 -1.91671875 23.82140625 -2.7109375 24.6953125 C-5 27 -5 27 -9 30 C-11.31 24.06 -13.62 18.12 -16 12 C-12.7367225 8.7367225 -10.16256084 6.68216361 -6.3125 4.3125 C-2.97781689 2.39067278 -2.97781689 2.39067278 0 0 Z " fill="#F9D1A2" transform="translate(150,151)"/>
<path d="M0 0 C8.46204771 -0.30221599 16.63745983 0.85079203 25 2 C25 2.99 25 3.98 25 5 C18.565 5.495 18.565 5.495 12 6 C12.99 7.65 13.98 9.3 15 11 C15 11.99 15 12.98 15 14 C13.42466914 14.86883706 11.83935491 15.71959068 10.25 16.5625 C9.36828125 17.03816406 8.4865625 17.51382813 7.578125 18.00390625 C5 19 5 19 2.81640625 18.83203125 C-0.28668951 17.41061319 -1.42632074 14.91422084 -3 12 C-2.67 11.01 -2.34 10.02 -2 9 C-0.35 9 1.3 9 3 9 C2.01 6.03 1.02 3.06 0 0 Z " fill="#559AE1" transform="translate(55,165)"/>
<path d="M0 0 C3.15204981 1.39347376 5.26171773 3.02485079 7.671875 5.4765625 C8.66767578 6.48203125 8.66767578 6.48203125 9.68359375 7.5078125 C10.36550781 8.20648438 11.04742187 8.90515625 11.75 9.625 C12.44738281 10.33140625 13.14476563 11.0378125 13.86328125 11.765625 C15.58012488 13.50598703 17.29211832 15.25084981 19 17 C18.34 17.66 17.68 18.32 17 19 C13.37 17.02 9.74 15.04 6 13 C5.67 14.98 5.34 16.96 5 19 C0.02906176 18.58846263 -4.44508386 18.20399168 -9 16 C-9 12.7 -9 9.4 -9 6 C-8.34 5.67 -7.68 5.34 -7 5 C-4.96855359 5.93446535 -2.96466413 6.93224776 -1 8 C-0.67 5.36 -0.34 2.72 0 0 Z " fill="#84E291" transform="translate(24,61)"/>
<path d="M0 0 C-0.66 2.31 -1.32 4.62 -2 7 C0.97 7 3.94 7 7 7 C5.31482029 11.82704018 2.73995663 15.98916094 0.0625 20.3125 C-0.38029297 21.05306641 -0.82308594 21.79363281 -1.27929688 22.55664062 C-1.71177734 23.25595703 -2.14425781 23.95527344 -2.58984375 24.67578125 C-2.98034912 25.31427002 -3.37085449 25.95275879 -3.77319336 26.6105957 C-4.38046265 27.29835083 -4.38046265 27.29835083 -5 28 C-5.99 28 -6.98 28 -8 28 C-7.52188823 26.22888156 -7.0424722 24.45811517 -6.5625 22.6875 C-6.29566406 21.70136719 -6.02882812 20.71523437 -5.75390625 19.69921875 C-5.21920575 17.78482474 -4.62855462 15.88566385 -4 14 C-6.31 14.33 -8.62 14.66 -11 15 C-11 10.38 -11 5.76 -11 1 C-3.375 -1.125 -3.375 -1.125 0 0 Z " fill="#1FD6FE" transform="translate(185,44)"/>
<path d="M0 0 C12.7880713 0.25576143 23.37405534 8.26098116 32 17 C32.75023437 17.66644531 33.50046875 18.33289063 34.2734375 19.01953125 C36 21 36 21 36 25 C32.71286869 23.60243441 31.00511388 22.04355249 28.8125 19.25 C21.22224513 10.33829948 10.65864495 6.21744944 0 2 C0 1.34 0 0.68 0 0 Z " fill="#FFD14D" transform="translate(205,103)"/>
<path d="M0 0 C2.875 0.8125 2.875 0.8125 4.875 2.8125 C4.75 5.3125 4.75 5.3125 3.875 7.8125 C2.1875 9.1875 2.1875 9.1875 -0.125 9.8125 C-3.375 9.4375 -3.375 9.4375 -6.125 8.8125 C-6.455 6.8325 -6.785 4.8525 -7.125 2.8125 C-4.57630895 0.36183553 -3.6094771 -0.21656863 0 0 Z " fill="#FFEFDD" transform="translate(174.125,195.1875)"/>
<path d="M0 0 C3.46464111 0.27173656 4.68165104 0.93690865 7.1875 3.25 C6.61405063 6.11724686 6.3260485 7.1114515 4.1875 9.25 C1.3125 9.625 1.3125 9.625 -1.8125 9.25 C-4.1875 7.25 -4.1875 7.25 -5.8125 5.25 C-3.41924157 0.30393258 -3.41924157 0.30393258 0 0 Z " fill="#FF919C" transform="translate(85.8125,71.75)"/>
<path d="M0 0 C3.11396875 0.18317463 4.73999513 0.2838851 7.1875 2.1875 C7.9375 4.8125 7.9375 4.8125 8.1875 7.1875 C5.1875 9.1875 5.1875 9.1875 1.6875 9 C-1.8125 8.1875 -1.8125 8.1875 -3.8125 6.875 C-4.8125 5.1875 -4.8125 5.1875 -4.5625 3.0625 C-3.39629115 0.14697787 -3.29667482 0.21977832 0 0 Z " fill="#FE8991" transform="translate(100.8125,30.8125)"/>
<path d="M0 0 C5.61925626 0.40137545 8.08656763 2.17974459 12 6 C12 6.66 12 7.32 12 8 C8.83548038 7.36567062 6.48312221 6.26817072 3.75 4.5625 C3.04359375 4.13066406 2.3371875 3.69882813 1.609375 3.25390625 C1.07828125 2.84011719 0.5471875 2.42632812 0 2 C0 1.34 0 0.68 0 0 Z " fill="#FFD14E" transform="translate(220,100)"/>
<path d="M0 0 C1.98 0 3.96 0 6 0 C6.33 1.32 6.66 2.64 7 4 C5.02 4 3.04 4 1 4 C0.67 2.68 0.34 1.36 0 0 Z " fill="#FE8890" transform="translate(112,41)"/>
</svg>
