<?xml version="1.0" encoding="UTF-8"?>
<svg version="1.1" xmlns="http://www.w3.org/2000/svg" width="256" height="256">
<path d="M0 0 C4.6253676 3.02064823 4.6253676 3.02064823 5.64794922 5.69384766 C6.12746049 8.83494576 5.82942583 11.73227985 5.5703125 14.8984375 C3.90516565 30.47123502 3.90516565 30.47123502 8.703125 44.59375 C11.72051446 47.60186556 15.17281837 49.96145463 18.70605469 52.32421875 C23.08181969 55.52081847 26.73002439 59.5015871 30.5 63.375 C31.24040527 64.11347168 31.98081055 64.85194336 32.74365234 65.61279297 C36.79695689 69.66243682 40.65783832 73.81905409 44.39648438 78.16015625 C45.84299076 79.81985054 47.32313868 81.42794373 48.84375 83.01953125 C64.07921648 99.03917615 64.07921648 99.03917615 63.953125 105.34375 C62.61300533 109.07850974 60.63983971 112.23416991 58.5 115.5625 C58.0551123 116.26415283 57.61022461 116.96580566 57.15185547 117.6887207 C51.92078561 125.83736743 46.06334528 133.45480576 40 141 C40.433125 142.051875 40.433125 142.051875 40.875 143.125 C41.24625 144.07375 41.6175 145.0225 42 146 C42.37125 146.886875 42.7425 147.77375 43.125 148.6875 C44.8509906 155.22160726 44.78791525 161.8434299 42.1171875 168.11328125 C39.77870979 172.06252858 36.35308466 176.10467719 31.99291992 177.76367188 C29.19451201 179.49969266 29.06039763 181.06835526 28.296875 184.2265625 C28.0390625 185.2578125 27.78125 186.2890625 27.515625 187.3515625 C27.13664062 188.97191406 27.13664062 188.97191406 26.75 190.625 C26.481875 191.71296875 26.21375 192.8009375 25.9375 193.921875 C25.2769239 196.6113634 24.63183078 199.30363997 24 202 C24.67184326 202.18320801 25.34368652 202.36641602 26.03588867 202.55517578 C27.36970581 202.93391846 27.36970581 202.93391846 28.73046875 203.3203125 C29.60856201 203.56539551 30.48665527 203.81047852 31.39135742 204.06298828 C35.58555271 205.56952282 38.66718334 208.11057359 42 211 C42.99 211.763125 43.98 212.52625 45 213.3125 C47.46285815 216.62196564 47.59318574 218.69295005 47.6640625 222.71875 C46.66065174 226.16576108 44.71418953 227.71436671 42 230 C24.1804825 239.37869342 0.16215708 241.23125041 -19.625 241.25 C-20.37840668 241.25100708 -21.13181335 241.25201416 -21.90805054 241.25305176 C-59.8351628 241.22006027 -97.82230472 238.40110876 -135.66939926 236.06526184 C-137.73406768 235.93847834 -139.79885414 235.81379932 -141.86367798 235.6895752 C-145.71699173 235.45694733 -149.56944938 235.21176363 -153.421875 234.96484375 C-154.55145126 234.89718307 -155.68102753 234.8295224 -156.84483337 234.7598114 C-173.10429227 233.68355101 -173.10429227 233.68355101 -178.6875 230.4375 C-180.41576326 227.22786822 -180.44275004 225.15021898 -179.875 221.578125 C-177.80929416 215.4916703 -173.49756123 209.72718671 -168.2265625 206.08203125 C-165.6799401 204.15871354 -165.6799401 204.15871354 -165.6953125 200.96875 C-165.83710938 199.8240625 -165.97890625 198.679375 -166.125 197.5 C-166.26035156 196.27023438 -166.39570313 195.04046875 -166.53515625 193.7734375 C-166.68855469 192.52820313 -166.84195313 191.28296875 -167 190 C-167.19714349 187.70914278 -167.38552526 185.4175035 -167.5625 183.125 C-167.70746925 181.41659312 -167.85295461 179.70822943 -168 178 C-168.72960937 178.15726563 -169.45921875 178.31453125 -170.2109375 178.4765625 C-172.71592778 178.94668673 -175.08157659 179.26137627 -177.625 179.375 C-178.38039062 179.42398438 -179.13578125 179.47296875 -179.9140625 179.5234375 C-182 179 -182 179 -183.66796875 177.09765625 C-185.5021374 172.83227286 -186.07686088 168.64396178 -186.6875 164.0625 C-186.81705078 163.18142578 -186.94660156 162.30035156 -187.08007812 161.39257812 C-188.41644207 151.95318199 -188.41644207 151.95318199 -188 148 C-185.88119351 145.30535493 -184.21316048 144.5597241 -180.8671875 144.05078125 C-180.06023437 143.92509766 -179.25328125 143.79941406 -178.421875 143.66992188 C-177.16117188 143.49299805 -177.16117188 143.49299805 -175.875 143.3125 C-175.05773437 143.18294922 -174.24046875 143.05339844 -173.3984375 142.91992188 C-168.04144865 142.11891642 -162.40481328 141.28173067 -157 142 C-153.45533458 145.54466542 -153.59328007 150.93565932 -152.8125 155.75 C-152.62236328 156.83539063 -152.43222656 157.92078125 -152.23632812 159.0390625 C-152.06166016 160.09351563 -151.88699219 161.14796875 -151.70703125 162.234375 C-151.5469458 163.19569336 -151.38686035 164.15701172 -151.22192383 165.14746094 C-150.97543053 168.31580824 -151.25309575 170.91428539 -152 174 C-154 176 -154 176 -164 177 C-163.01 185.25 -162.02 193.5 -161 202 C-156.05 201.01 -156.05 201.01 -151 200 C-149.35 200 -147.7 200 -146 200 C-146.1546875 199.34257812 -146.309375 198.68515625 -146.46875 198.0078125 C-147.12253523 194.30623433 -147.31867759 190.62232971 -147.5 186.875 C-147.78391811 181.1966379 -148.20024696 175.54748306 -148.73242188 169.88671875 C-149.00579803 166.93744903 -149.25593578 163.98698812 -149.5 161.03515625 C-149.5825 160.05095703 -149.665 159.06675781 -149.75 158.05273438 C-149.91893699 156.03208957 -150.08554365 154.01124879 -150.25 151.99023438 C-150.3325 151.01505859 -150.415 150.03988281 -150.5 149.03515625 C-150.60828125 147.72623413 -150.60828125 147.72623413 -150.71875 146.39086914 C-150.97840519 144.18357465 -151.40520127 142.13848731 -152 140 C-152.763125 139.979375 -153.52625 139.95875 -154.3125 139.9375 C-157 139 -157 139 -158.8125 136.25 C-161.89172689 127.69854704 -160.60910802 118.14573456 -157 110 C-155.18454265 106.91727435 -153.13412496 104.05619695 -151 101.1875 C-150.46632812 100.45080078 -149.93265625 99.71410156 -149.3828125 98.95507812 C-145.41085936 93.4862322 -145.41085936 93.4862322 -143.31518555 91.00610352 C-141.17746369 87.74535347 -142.20894602 84.40359952 -142.8125 80.75 C-142.97588867 79.63238281 -142.97588867 79.63238281 -143.14257812 78.4921875 C-143.41284115 76.65909913 -143.70435567 74.82916635 -144 73 C-144.64066406 73.03480469 -145.28132813 73.06960937 -145.94140625 73.10546875 C-154.81706218 73.38324636 -160.68473081 71.07175575 -167.19921875 65 C-172.69341403 58.89798702 -173.72744321 52.26887968 -173.4453125 44.21875 C-172.41111773 36.74351763 -168.87820182 30.74382848 -162.87109375 26.18359375 C-155.70550497 21.65087266 -148.07310618 20.72592178 -139.765625 22.46875 C-132.70557825 24.76736987 -127.75350715 29.17581347 -124.0625 35.5625 C-120.70454613 42.94555088 -120.60669035 51.21125188 -123.4375 58.8125 C-126.07443007 63.9074256 -130.24342849 67.85568966 -135 71 C-137.475 71.495 -137.475 71.495 -140 72 C-139.01 75.3 -138.02 78.6 -137 82 C-127.37560008 69.64871957 -127.37560008 69.64871957 -117.8125 57.25 C-109.87900677 46.926122 -101.83829395 36.69644261 -93.56640625 26.64086914 C-90.11377157 22.4324519 -86.85143821 18.15262461 -83.85546875 13.6015625 C-79.23673421 9.61486532 -72.0391015 9.7511659 -66.24609375 9.76953125 C-65.18927147 9.77021858 -65.18927147 9.77021858 -64.11109924 9.7709198 C-62.63467708 9.77391623 -61.15825734 9.7817231 -59.68188477 9.79418945 C-57.43950021 9.81248368 -55.19752972 9.81469834 -52.95507812 9.81445312 C-46.54001517 9.83628078 -40.33721208 9.97407265 -34 11 C-34 8.03 -34 5.06 -34 2 C-32.06374902 1.01836578 -30.12595461 0.03977546 -28.1875 -0.9375 C-27.10855469 -1.48277344 -26.02960938 -2.02804688 -24.91796875 -2.58984375 C-16.26885689 -6.76966889 -8.28812052 -4.09343474 0 0 Z " fill="#FEB2BA" transform="translate(190,10)"/>
<path d="M0 0 C4.6253676 3.02064823 4.6253676 3.02064823 5.64794922 5.69384766 C6.12746049 8.83494576 5.82942583 11.73227985 5.5703125 14.8984375 C3.90516565 30.47123502 3.90516565 30.47123502 8.703125 44.59375 C11.72051446 47.60186556 15.17281837 49.96145463 18.70605469 52.32421875 C23.08181969 55.52081847 26.73002439 59.5015871 30.5 63.375 C31.24040527 64.11347168 31.98081055 64.85194336 32.74365234 65.61279297 C36.79695689 69.66243682 40.65783832 73.81905409 44.39648438 78.16015625 C45.84299076 79.81985054 47.32313868 81.42794373 48.84375 83.01953125 C64.07921648 99.03917615 64.07921648 99.03917615 63.953125 105.34375 C62.61301519 109.07848226 60.6399294 112.23425137 58.5 115.5625 C58.05438721 116.26487793 57.60877441 116.96725586 57.1496582 117.69091797 C51.67102858 126.22141468 45.61675498 134.31602648 39 142 C36.42090014 140.76203207 33.96031405 139.39252444 31.5 137.9375 C26.17506529 134.90273848 21.10968749 133.99046361 14.98046875 135.49609375 C8.75754665 137.60213048 4.49961504 141.25040635 0 146 C0.165 144.948125 0.33 143.89625 0.5 142.8125 C1.22831835 136.93317653 1.49353252 130.90566038 1 125 C0.34 124.34 -0.32 123.68 -1 123 C-4.44165321 123.35299007 -6.06872538 124.04581692 -9 126 C-10.9896995 126.39013716 -12.99019869 126.73202649 -15 127 C-18.0017506 119.92444501 -18.34855655 113.62951555 -18 106 C-18.88751953 106.21269531 -18.88751953 106.21269531 -19.79296875 106.4296875 C-22.28985107 106.89403429 -24.46213544 107.16181016 -27 107 C-33.51782237 101.45291713 -34.14663256 94.0967164 -34.8515625 85.94140625 C-34.90054688 85.30074219 -34.94953125 84.66007812 -35 84 C-35.99 84.66 -36.98 85.32 -38 86 C-41.4375 86.5 -41.4375 86.5 -45 86 C-48.80971214 81.47904771 -49.87997603 77.28527356 -50.75 71.625 C-50.87503906 70.88894531 -51.00007813 70.15289062 -51.12890625 69.39453125 C-51.43213588 67.59847885 -51.71789448 65.79949129 -52 64 C-52.99 64.66 -53.98 65.32 -55 66 C-57.5625 65.9375 -57.5625 65.9375 -60 65 C-62.00874153 61.15108266 -62.33237026 57.60662302 -62.5625 53.3125 C-62.67605851 48.99806245 -62.67605851 48.99806245 -64 45 C-65.11375 44.62875 -65.11375 44.62875 -66.25 44.25 C-73.96487123 40.74324035 -76.18730454 32.39679061 -79 25 C-80.485 25.495 -80.485 25.495 -82 26 C-82.91276631 28.25325403 -83.45781522 30.51709989 -84.05859375 32.87109375 C-85 35 -85 35 -86.96875 36.265625 C-89 37 -89 37 -91.0625 37.3125 C-94.11058075 38.39407704 -94.58848129 40.10730322 -96 43 C-96.84877993 46.3018673 -97.42554231 49.64088298 -98 53 C-99.89633721 64.08875148 -99.89633721 64.08875148 -103 68 C-106.31972498 69.16190374 -107.62848454 69.12383849 -111 68 C-114.13278927 72.49033128 -115.30257055 75.98486974 -116 81.4375 C-116.76513854 87.15625097 -117.69620366 91.22784974 -121 96 C-124.1875 97.0625 -124.1875 97.0625 -127 97 C-127.33 96.67 -127.66 96.34 -128 96 C-128.03738281 97.05058594 -128.07476562 98.10117188 -128.11328125 99.18359375 C-128.93263069 117.93263069 -128.93263069 117.93263069 -134 123 C-136.375 123.4375 -136.375 123.4375 -139 123 C-143 118.89189189 -143 118.89189189 -143 116 C-144.65 116 -146.3 116 -148 116 C-148 120.62 -148 125.24 -148 130 C-147.01 129.67 -146.02 129.34 -145 129 C-145.50213335 133.39366678 -146.87182342 135.87182342 -150 139 C-152.5 140.0625 -152.5 140.0625 -155 140 C-158.14680648 137.63989514 -159.31214741 135.7964172 -160 132 C-160.14334455 129.94080039 -160.22040902 127.8764707 -160.25 125.8125 C-160.27578125 124.74644531 -160.3015625 123.68039063 -160.328125 122.58203125 C-159.54858654 114.07206976 -156.02502419 107.94215209 -151 101.1875 C-150.46632813 100.45080078 -149.93265625 99.71410156 -149.3828125 98.95507812 C-145.41085936 93.4862322 -145.41085936 93.4862322 -143.31518555 91.00610352 C-141.17746369 87.74535347 -142.20894602 84.40359952 -142.8125 80.75 C-142.97588867 79.63238281 -142.97588867 79.63238281 -143.14257812 78.4921875 C-143.41284115 76.65909913 -143.70435567 74.82916635 -144 73 C-144.64066406 73.03480469 -145.28132813 73.06960937 -145.94140625 73.10546875 C-154.81706218 73.38324636 -160.68473081 71.07175575 -167.19921875 65 C-172.69341403 58.89798702 -173.72744321 52.26887968 -173.4453125 44.21875 C-172.41111773 36.74351763 -168.87820182 30.74382848 -162.87109375 26.18359375 C-155.70550497 21.65087266 -148.07310618 20.72592178 -139.765625 22.46875 C-132.70557825 24.76736987 -127.75350715 29.17581347 -124.0625 35.5625 C-120.70454613 42.94555088 -120.60669035 51.21125188 -123.4375 58.8125 C-126.07443007 63.9074256 -130.24342849 67.85568966 -135 71 C-137.475 71.495 -137.475 71.495 -140 72 C-139.01 75.3 -138.02 78.6 -137 82 C-127.37560008 69.64871957 -127.37560008 69.64871957 -117.8125 57.25 C-109.87900677 46.926122 -101.83829395 36.69644261 -93.56640625 26.64086914 C-90.11377157 22.4324519 -86.85143821 18.15262461 -83.85546875 13.6015625 C-79.23673421 9.61486532 -72.0391015 9.7511659 -66.24609375 9.76953125 C-65.18927147 9.77021858 -65.18927147 9.77021858 -64.11109924 9.7709198 C-62.63467708 9.77391623 -61.15825734 9.7817231 -59.68188477 9.79418945 C-57.43950021 9.81248368 -55.19752972 9.81469834 -52.95507812 9.81445312 C-46.54001517 9.83628078 -40.33721208 9.97407265 -34 11 C-34 8.03 -34 5.06 -34 2 C-32.06374902 1.01836578 -30.12595461 0.03977546 -28.1875 -0.9375 C-27.10855469 -1.48277344 -26.02960938 -2.02804688 -24.91796875 -2.58984375 C-16.26885689 -6.76966889 -8.28812052 -4.09343474 0 0 Z " fill="#EDF6FC" transform="translate(190,10)"/>
<path d="M0 0 C3.54466542 3.54466542 3.40671993 8.93565932 4.1875 13.75 C4.37763672 14.83539063 4.56777344 15.92078125 4.76367188 17.0390625 C4.93833984 18.09351563 5.11300781 19.14796875 5.29296875 20.234375 C5.4530542 21.19569336 5.61313965 22.15701172 5.77807617 23.14746094 C6.02456947 26.31580824 5.74690425 28.91428539 5 32 C3 34 3 34 -7 35 C-6.01 43.25 -5.02 51.5 -4 60 C-0.7 59.34 2.6 58.68 6 58 C7.65 58 9.3 58 11 58 C11.04125 57.443125 11.0825 56.88625 11.125 56.3125 C12.46930374 52.75969726 15.00974189 51.29041047 18 49 C17.60711127 52.33955422 17.05005368 53.93629531 14.9375 56.625 C12.19887771 61.39550334 12.65552416 65.62234932 13 71 C14.24136719 70.98839844 15.48273437 70.97679687 16.76171875 70.96484375 C18.40364432 70.95546132 20.04557153 70.9463616 21.6875 70.9375 C22.91243164 70.92493164 22.91243164 70.92493164 24.16210938 70.91210938 C28.29126791 70.89539213 31.95074289 71.16761794 36 72 C39.24692346 72.20363844 42.49841027 72.27651048 45.75 72.375 C52.69193868 72.62178122 59.47605453 73.13885919 66.34936523 74.14160156 C81.18583504 76.29445687 95.84525616 76.23425406 110.80761719 76.06469727 C111.69961319 76.05558823 112.59160919 76.04647919 113.51063538 76.03709412 C115.19221674 76.01811817 116.87375 75.99384358 118.55516052 75.96327209 C122.84124762 75.90899269 126.77164338 76.18608007 131 77 C142.53660871 77.65996001 151.03380053 76.55550165 160.98046875 70.76953125 C163 70 163 70 169 70 C169 73.96 169 77.92 169 82 C169.66 82.33 170.32 82.66 171 83 C171.33 79.37 171.66 75.74 172 72 C173.65 72.66 175.3 73.32 177 74 C178.06841082 66.881552 178.22060674 62.44121348 175 56 C174.8125 53.0625 174.8125 53.0625 175 51 C177.0245738 52.93254772 178.42105792 54.63158688 180 57 C180 57.99 180 58.98 180 60 C181.299375 60.20625 182.59875 60.4125 183.9375 60.625 C189.52637504 61.87283059 193.53031152 64.50962529 198 68 C198.62648437 68.46535156 199.25296875 68.93070312 199.8984375 69.41015625 C202.3675421 71.4909275 203.76163931 73.02583022 204.5390625 76.203125 C204.80788526 80.47599205 204.65029165 82.21941736 201.81640625 85.62109375 C186.62099273 98.45605468 156.40391476 99.23196889 137.375 99.25 C136.62159332 99.25100708 135.86818665 99.25201416 135.09194946 99.25305176 C97.1648372 99.22006027 59.17769528 96.40110876 21.33060074 94.06526184 C19.26593232 93.93847834 17.20114586 93.81379932 15.13632202 93.6895752 C11.28300827 93.45694733 7.43055062 93.21176363 3.578125 92.96484375 C1.8837606 92.86335274 1.8837606 92.86335274 0.15516663 92.7598114 C-16.10429227 91.68355101 -16.10429227 91.68355101 -21.6875 88.4375 C-23.41576326 85.22786822 -23.44275004 83.15021898 -22.875 79.578125 C-20.80929416 73.4916703 -16.49756123 67.72718671 -11.2265625 64.08203125 C-8.6799401 62.15871354 -8.6799401 62.15871354 -8.6953125 58.96875 C-8.90800781 57.25171875 -8.90800781 57.25171875 -9.125 55.5 C-9.26035156 54.27023438 -9.39570313 53.04046875 -9.53515625 51.7734375 C-9.68855469 50.52820313 -9.84195312 49.28296875 -10 48 C-10.19714349 45.70914278 -10.38552526 43.4175035 -10.5625 41.125 C-10.70746925 39.41659312 -10.85295461 37.70822943 -11 36 C-11.72960937 36.15726563 -12.45921875 36.31453125 -13.2109375 36.4765625 C-15.71592778 36.94668673 -18.08157659 37.26137627 -20.625 37.375 C-21.38039063 37.42398438 -22.13578125 37.47296875 -22.9140625 37.5234375 C-25 37 -25 37 -26.66796875 35.09765625 C-28.5021374 30.83227286 -29.07686088 26.64396178 -29.6875 22.0625 C-29.81705078 21.18142578 -29.94660156 20.30035156 -30.08007812 19.39257812 C-31.41644207 9.95318199 -31.41644207 9.95318199 -31 6 C-28.88119351 3.30535493 -27.21316048 2.5597241 -23.8671875 2.05078125 C-23.06023438 1.92509766 -22.25328125 1.79941406 -21.421875 1.66992188 C-20.58140625 1.55197266 -19.7409375 1.43402344 -18.875 1.3125 C-18.05773438 1.18294922 -17.24046875 1.05339844 -16.3984375 0.91992188 C-11.04144865 0.11891642 -5.40481328 -0.71826933 0 0 Z " fill="#ECF6FB" transform="translate(33,152)"/>
<path d="M0 0 C3.29714793 0.32971479 4.6226839 0.6226839 7 3 C7.55017167 9.66733461 7.22325484 16.42500524 6 23 C7.0209375 21.63875 7.0209375 21.63875 8.0625 20.25 C12.59221427 14.80662177 18.17889368 12.38211063 25.125 11.6875 C32.79116917 12.30573945 39.74595859 15.37066991 45 21 C49.27583048 27.73443301 50.13137431 34.4037378 48.5625 42.1640625 C46.86417084 47.66240317 43.46009892 51.45110409 39 55 C38.33766357 55.25201172 37.67532715 55.50402344 36.99291992 55.76367188 C34.19451201 57.49969266 34.06039763 59.06835526 33.296875 62.2265625 C33.0390625 63.2578125 32.78125 64.2890625 32.515625 65.3515625 C32.13664062 66.97191406 32.13664062 66.97191406 31.75 68.625 C31.481875 69.71296875 31.21375 70.8009375 30.9375 71.921875 C30.2769239 74.6113634 29.63183078 77.30363997 29 80 C27.01776932 77.41495396 25.37405423 74.95950142 24 72 C24.42380122 75.03724209 24.83426268 77.64090246 26.125 80.4375 C27.66763976 84.95523074 26.25798872 89.50718316 25 94 C23.35 93.34 21.7 92.68 20 92 C19.67 95.63 19.34 99.26 19 103 C18.01 102.67 17.02 102.34 16 102 C16.33 98.04 16.66 94.08 17 90 C11.0633739 91.23212995 5.97754205 93.24938332 0.515625 95.87890625 C-4.28441113 98.01805278 -8.28852099 98.13531081 -13.5625 98.125 C-14.23474609 98.12886719 -14.90699219 98.13273437 -15.59960938 98.13671875 C-18.67499752 98.13061073 -21.06026313 97.97991229 -24 97 C-24.31654676 88.92805755 -24.31654676 88.92805755 -22 85 C-20.28151391 83.40988275 -18.51589159 81.94965437 -16.65625 80.52734375 C-14.6199898 78.83056352 -14.6199898 78.83056352 -13 75 C-15.97 76.98 -18.94 78.96 -22 81 C-20.95653316 75.78266581 -20.78635091 75.33320309 -16.9375 72.3125 C-15.59334373 71.2470967 -14.27214144 70.15043315 -13 69 C-13 68.34 -13 67.68 -13 67 C-15.31 68.32 -17.62 69.64 -20 71 C-20.19189837 66.20254065 -20.16803225 62.33606449 -18 58 C-16.26072591 56.55197228 -14.49434942 55.34689331 -12.55859375 54.17578125 C-10.68214838 52.99128629 -10.68214838 52.99128629 -10 50 C-10.78375 50.495 -11.5675 50.99 -12.375 51.5 C-15 53 -15 53 -17 53 C-16.70100785 49.41209425 -16.23013399 48.21833224 -13.5625 45.6875 C-11 44 -11 44 -9 44 C-9 43.01 -9 42.02 -9 41 C-11.31 41.99 -13.62 42.98 -16 44 C-16.11980727 34.38118735 -16.11980727 34.38118735 -13.41015625 31.0390625 C-11.5 29.5 -11.5 29.5 -9.59375 28.21875 C-7.68707994 26.99707551 -7.68707994 26.99707551 -7 24 C-9.31 25.32 -11.62 26.64 -14 28 C-12.77897748 21.77278516 -11.00726077 19.80987232 -6 16 C-6 15.34 -6 14.68 -6 14 C-7.98 14.99 -9.96 15.98 -12 17 C-11.88610125 15.20759337 -11.75852313 13.41605165 -11.625 11.625 C-11.52058594 10.12839844 -11.52058594 10.12839844 -11.4140625 8.6015625 C-11 6 -11 6 -9 4 C-6.66666667 3.33333333 -4.33333333 2.66666667 -2 2 C-1.34 1.34 -0.68 0.68 0 0 Z " fill="#FDB0B8" transform="translate(185,132)"/>
<path d="M0 0 C0.81952148 0.01345459 1.63904297 0.02690918 2.48339844 0.04077148 C3.38960937 0.04786133 4.29582031 0.05495117 5.22949219 0.06225586 C6.174375 0.09512695 7.11925781 0.12799805 8.09277344 0.16186523 C9.48689453 0.17056641 9.48689453 0.17056641 10.90917969 0.17944336 C16.1907831 0.2728239 20.93481214 0.56736539 25.84277344 2.59936523 C28.20518002 5.96898702 28.0851884 9.08664556 28.06982422 13.11206055 C28.07011627 13.75638031 28.07040833 14.40070007 28.07070923 15.06454468 C28.06932038 17.18566545 28.0537806 19.30643113 28.03808594 21.42749023 C28.03435422 22.90150765 28.03150799 24.37552755 28.0295105 25.84954834 C28.02188655 29.72280771 28.00224879 33.59591628 27.98010254 37.46911621 C27.95961737 41.42397014 27.95050308 45.37884851 27.94042969 49.33374023 C27.91900165 57.08901719 27.88488076 64.84417006 27.84277344 72.59936523 C9.72827849 71.62691376 9.72827849 71.62691376 2.34277344 70.59936523 C1.11558594 70.43436523 -0.11160156 70.26936523 -1.37597656 70.09936523 C-4.15722656 69.59936523 -4.15722656 69.59936523 -5.15722656 68.59936523 C-5.26697891 66.66260114 -5.30633891 64.7218165 -5.31835938 62.78198242 C-5.32796692 61.53688904 -5.33757446 60.29179565 -5.34747314 59.00897217 C-5.35232182 57.63806338 -5.35660048 56.26715247 -5.36035156 54.89624023 C-5.36610201 53.49717201 -5.37185975 52.09810381 -5.37762451 50.69903564 C-5.38814608 47.76004671 -5.39398052 44.82108521 -5.39746094 41.88208008 C-5.40293474 38.12147737 -5.42693351 34.36123875 -5.45543289 30.60074997 C-5.47409036 27.70791582 -5.47926661 24.81516859 -5.48079681 21.92227936 C-5.48381911 20.53643055 -5.49183344 19.15058312 -5.50498199 17.7647934 C-5.52209823 15.82137754 -5.51830937 13.87781187 -5.51367188 11.93432617 C-5.5173175 10.8292572 -5.52096313 9.72418823 -5.52471924 8.58563232 C-5.04501436 4.68752229 -4.05550541 1.12678427 0 0 Z " fill="#CC699B" transform="translate(95.1572265625,156.400634765625)"/>
<path d="M0 0 C6.00710807 4.56023473 9.54002398 10.55992388 10.57421875 18.03515625 C10.86614095 26.36466973 9.73869299 32.86315099 4.03515625 39.109375 C0.18275281 42.73705491 -2.50428751 45.13490704 -7.87109375 45.81640625 C-7.37609375 47.33234375 -7.37609375 47.33234375 -6.87109375 48.87890625 C-5.81898302 52.60292407 -5.49051309 55.93448349 -5.87109375 59.81640625 C-6.86109375 60.47640625 -7.85109375 61.13640625 -8.87109375 61.81640625 C-9.37545069 59.88003585 -9.87443249 57.94226479 -10.37109375 56.00390625 C-10.78875 54.38548828 -10.78875 54.38548828 -11.21484375 52.734375 C-11.87109375 49.81640625 -11.87109375 49.81640625 -11.87109375 46.81640625 C-12.51175781 46.85121094 -13.15242188 46.88601562 -13.8125 46.921875 C-22.68815593 47.19965261 -28.55582456 44.888162 -35.0703125 38.81640625 C-40.56450778 32.71439327 -41.59853696 26.08528593 -41.31640625 18.03515625 C-40.28221148 10.55992388 -36.74929557 4.56023473 -30.7421875 0 C-21.13713973 -6.07584442 -9.60504777 -6.07584442 0 0 Z " fill="#81B8E4" transform="translate(57.87109375,36.18359375)"/>
<path d="M0 0 C4.5119572 3.28973082 6.69434285 7.69239086 8.16796875 12.9375 C9.03973449 19.26514796 8.45926675 25.37911911 5.16796875 30.9375 C2.61575003 34.06304322 -0.00263466 37.24143473 -3.83911133 38.70117188 C-6.63751924 40.43719266 -6.77163362 42.00585526 -7.53515625 45.1640625 C-7.79296875 46.1953125 -8.05078125 47.2265625 -8.31640625 48.2890625 C-8.5690625 49.36929688 -8.82171875 50.44953125 -9.08203125 51.5625 C-9.35015625 52.65046875 -9.61828125 53.7384375 -9.89453125 54.859375 C-10.55510735 57.5488634 -11.20020047 60.24113997 -11.83203125 62.9375 C-13.81426193 60.35245396 -15.45797702 57.89700142 -16.83203125 54.9375 C-16.40823003 57.97474209 -15.99776857 60.57840246 -14.70703125 63.375 C-13.16439149 67.89273074 -14.57404253 72.44468316 -15.83203125 76.9375 C-17.48203125 76.2775 -19.13203125 75.6175 -20.83203125 74.9375 C-21.16203125 78.5675 -21.49203125 82.1975 -21.83203125 85.9375 C-22.82203125 85.6075 -23.81203125 85.2775 -24.83203125 84.9375 C-23.18203125 70.0875 -21.53203125 55.2375 -19.83203125 39.9375 C-21.81203125 39.6075 -23.79203125 39.2775 -25.83203125 38.9375 C-31.52699286 35.44148264 -36.00332621 30.41179735 -37.83203125 23.9375 C-39.0833773 16.00039075 -37.56353849 9.44759792 -32.83203125 2.9375 C-22.87303678 -6.93969574 -11.72074315 -6.79753121 0 0 Z " fill="#76BB4A" transform="translate(225.83203125,149.0625)"/>
<path d="M0 0 C0.50403768 1.29009643 1.00309926 2.58213789 1.5 3.875 C1.7784375 4.59429688 2.056875 5.31359375 2.34375 6.0546875 C3 8 3 8 3 10 C6.39914975 8.86695008 7.05254451 7.87481525 9 5 C11.99324263 6.0975223 12.84610901 6.67682892 14.25 9.625 C14.4975 10.40875 14.745 11.1925 15 12 C16.32 12 17.64 12 19 12 C19.66 10.02 20.32 8.04 21 6 C21.99 6 22.98 6 24 6 C24.33 7.98 24.66 9.96 25 12 C26.65 11.67 28.3 11.34 30 11 C30.3007039 16.01250271 30.51614735 21.01958096 30.65917969 26.0390625 C30.71887896 27.738887 30.80028587 29.43811298 30.90527344 31.13574219 C31.44357792 40.07581851 31.57330892 47.04625562 25.70245361 54.23324585 C23.23787414 56.94016331 20.64657651 59.47084675 18 62 C17.67 62.66 17.34 63.32 17 64 C7.58105381 59.59719655 -2.63368355 51.61116863 -7 42 C-8.72320212 35.64904523 -8.66416697 29.09541213 -8.5 22.5625 C-8.48199341 21.73414642 -8.46398682 20.90579285 -8.44543457 20.05233765 C-8.37041512 17.65660388 -8.24838886 15.27074472 -8.09375 12.87890625 C-8.05082825 12.15875336 -8.00790649 11.43860046 -7.96368408 10.69662476 C-7.46289287 5.35546143 -6.08143503 0 0 0 Z " fill="#FBD06B" transform="translate(165,18)"/>
<path d="M0 0 C3.54466542 3.54466542 3.40671993 8.93565932 4.1875 13.75 C4.37763672 14.83539063 4.56777344 15.92078125 4.76367188 17.0390625 C4.93833984 18.09351563 5.11300781 19.14796875 5.29296875 20.234375 C5.4530542 21.19569336 5.61313965 22.15701172 5.77807617 23.14746094 C6.02456947 26.31580824 5.74690425 28.91428539 5 32 C2.50494038 34.49505962 1.32671112 34.35948376 -2.125 34.625 C-3.03507812 34.69976562 -3.94515625 34.77453125 -4.8828125 34.8515625 C-5.58148437 34.90054688 -6.28015625 34.94953125 -7 35 C-6.91959473 35.57105469 -6.83918945 36.14210937 -6.75634766 36.73046875 C-4.65835716 51.79050897 -3.12178922 66.83671262 -2 82 C-2.99 82 -3.98 82 -5 82 C-5.69879231 77.37834549 -6.39231185 72.75593895 -7.08129883 68.1328125 C-7.31558578 66.56554677 -7.5512248 64.99848246 -7.78833008 63.43164062 C-9.16904529 54.30082206 -10.40690455 45.22392855 -11 36 C-11.77649902 36.15936035 -12.55299805 36.3187207 -13.35302734 36.48291016 C-15.81005974 36.9628949 -18.12617781 37.26336877 -20.625 37.375 C-21.38039063 37.42398438 -22.13578125 37.47296875 -22.9140625 37.5234375 C-25 37 -25 37 -26.66796875 35.09765625 C-28.5021374 30.83227286 -29.07686088 26.64396178 -29.6875 22.0625 C-29.81705078 21.18142578 -29.94660156 20.30035156 -30.08007812 19.39257812 C-31.41644207 9.95318199 -31.41644207 9.95318199 -31 6 C-28.88119351 3.30535493 -27.21316048 2.5597241 -23.8671875 2.05078125 C-23.06023438 1.92509766 -22.25328125 1.79941406 -21.421875 1.66992188 C-20.58140625 1.55197266 -19.7409375 1.43402344 -18.875 1.3125 C-18.05773438 1.18294922 -17.24046875 1.05339844 -16.3984375 0.91992188 C-11.04144865 0.11891642 -5.40481328 -0.71826933 0 0 Z " fill="#72410B" transform="translate(33,152)"/>
<path d="M0 0 C4.38041467 0.8556724 7.22013448 2.15780047 9.9296875 5.73828125 C12.86746155 12.05449546 13.4670438 17.24421886 13.3671875 24.11328125 C13.36654297 24.96728516 13.36589844 25.82128906 13.36523438 26.70117188 C13.34006537 30.26118811 13.31517202 33.0193277 12.1796875 36.42578125 C2.9396875 36.42578125 -6.3003125 36.42578125 -15.8203125 36.42578125 C-15.913125 31.75421875 -15.913125 31.75421875 -16.0078125 26.98828125 C-16.03512451 26.02607666 -16.06243652 25.06387207 -16.09057617 24.07250977 C-16.1702443 15.67651721 -14.48442171 7.96180381 -8.625 1.6796875 C-5.78527651 -0.29336713 -3.37658735 -0.28990901 0 0 Z " fill="#F9CB6A" transform="translate(145.8203125,154.57421875)"/>
<path d="M0 0 C4.98741742 2.14165572 8.47358156 4.56881795 10.546875 9.68359375 C11.67826021 14.76674588 11.70063322 19.98211766 11.09375 25.140625 C10.43375 26.130625 9.77375 27.120625 9.09375 28.140625 C9.01898438 27.5115625 8.94421875 26.8825 8.8671875 26.234375 C7.83964967 19.54530523 5.85173509 15.00382352 1.09375 10.140625 C-1.48828721 8.20367917 -1.48828721 8.20367917 -3.90625 7.140625 C-4.56625 6.810625 -5.22625 6.480625 -5.90625 6.140625 C-13.54924749 5.37758612 -13.54924749 5.37758612 -20.53125 8.015625 C-22.94198562 10.17259898 -23.81052842 10.98751386 -24.07421875 14.1640625 C-24.08388672 15.32808594 -24.08388672 15.32808594 -24.09375 16.515625 C-24.11501953 17.67191406 -24.11501953 17.67191406 -24.13671875 18.8515625 C-23.87694605 21.43167781 -23.35720784 22.99263839 -21.90625 25.140625 C-17.86101326 26.28550332 -15.78395731 26.57014135 -11.96875 24.703125 C-11.288125 24.1875 -10.6075 23.671875 -9.90625 23.140625 C-10.23625 20.830625 -10.56625 18.520625 -10.90625 16.140625 C-12.22625 15.810625 -13.54625 15.480625 -14.90625 15.140625 C-14.24625 16.130625 -13.58625 17.120625 -12.90625 18.140625 C-13.28125 20.328125 -13.28125 20.328125 -13.90625 22.140625 C-16.63330554 22.36173761 -18.37045662 22.44424125 -20.78125 21.078125 C-21.90625 19.140625 -21.90625 19.140625 -21.84375 15.640625 C-20.90625 12.140625 -20.90625 12.140625 -19.28125 10.203125 C-15.83428623 8.66106226 -13.66427392 8.63955514 -9.90625 9.140625 C-5.87320596 10.94215019 -2.7523109 13.13592768 0.09375 16.515625 C1.42306911 20.00508766 1.54956076 22.42902311 1.09375 26.140625 C-1.35581225 30.94553557 -3.97467704 33.92991988 -8.90625 36.140625 C-15.0731783 36.858391 -20.74479576 37.03501986 -26.53125 34.640625 C-30.69883504 30.25369338 -33.06220859 25.80066334 -33.53125 19.703125 C-33.21092488 14.06346155 -30.7035612 10.19550576 -26.90625 6.140625 C-18.75714133 -1.08971162 -10.51686109 -3.10982452 0 0 Z " fill="#B6DDF1" transform="translate(56.90625,38.859375)"/>
<path d="M0 0 C4.59819043 1.83927617 6.57625346 4.75844355 9 9 C10.03487015 12.17790155 10.11615683 15.09177011 10.09765625 18.421875 C10.09515869 19.34581055 10.09266113 20.26974609 10.09008789 21.22167969 C10.08098389 22.38602539 10.07187988 23.55037109 10.0625 24.75 C10.041875 28.4625 10.02125 32.175 10 36 C0.76 36 -8.48 36 -18 36 C-18.103125 32.41125 -18.20625 28.8225 -18.3125 25.125 C-18.35802002 24.01527832 -18.40354004 22.90555664 -18.45043945 21.76220703 C-18.5493854 14.56021857 -17.24886319 8.92376717 -13 3 C-8.76992053 -0.64318895 -5.41359768 -0.69852873 0 0 Z " fill="#FACE6B" transform="translate(74,155)"/>
<path d="M0 0 C2.44370814 1.0785502 4.32110743 2.26113248 6.4140625 3.90625 C8.0905194 5.28386648 8.0905194 5.28386648 11 5 C13.83601689 11.73554012 14.0600487 18.6776161 11.625 25.5625 C10 29 10 29 8 30 C7.97421875 29.05898437 7.9484375 28.11796875 7.921875 27.1484375 C7.54118492 18.79055981 7.32327477 14.03505645 1.125 8.25 C-4.16710227 5.13699866 -8.00324543 4.75539056 -14 6 C-14.99 6.33 -15.98 6.66 -17 7 C-17.9738963 9.92168889 -18.19605823 12.01029474 -18.25 15.0625 C-18.27578125 15.94035156 -18.3015625 16.81820312 -18.328125 17.72265625 C-18.21984375 18.47417969 -18.1115625 19.22570312 -18 20 C-15.09414313 22.38798682 -15.09414313 22.38798682 -11.375 21.6875 C-8.17495688 21.35886877 -8.17495688 21.35886877 -7 20 C-6.95936168 18.33382885 -6.957279 16.66611905 -7 15 C-7.66 15 -8.32 15 -9 15 C-9.33 16.32 -9.66 17.64 -10 19 C-14.875 18.125 -14.875 18.125 -16 17 C-16.26077823 14.00105039 -16.43731576 11.81996705 -15 9.125 C-12.42550501 7.67684657 -10.08427845 7.28005584 -7.140625 7.39453125 C-2.71139368 8.64732478 -0.18366258 12.11572747 2 16 C2.98911131 19.92060787 2.37833163 23.05417094 0.875 26.8125 C-2.51806693 30.77107808 -5.75436176 31.85936342 -10.875 32.4375 C-16.3984929 32.21486401 -21.1676027 29.95061648 -24.9375 25.9375 C-27.41746607 21.41520893 -27.59550612 17.03159522 -27 12 C-21.99708566 1.16035226 -10.86183416 -1.19277151 0 0 Z " fill="#A9D882" transform="translate(221,151)"/>
<path d="M0 0 C7.77438419 0.03186223 12.25764102 1.7548844 18 7 C16.66666667 8 15.33333333 9 14 10 C13.36578125 10.58394531 12.7315625 11.16789062 12.078125 11.76953125 C10 13 10 13 7.421875 12.63671875 C4.94791667 11.7578125 2.47395833 10.87890625 0 10 C0 14.95 0 19.9 0 25 C1.63710937 24.98839844 3.27421875 24.97679688 4.9609375 24.96484375 C7.0989572 24.95546647 9.23697812 24.9463662 11.375 24.9375 C12.45523438 24.92912109 13.53546875 24.92074219 14.6484375 24.91210938 C16.1953125 24.90727539 16.1953125 24.90727539 17.7734375 24.90234375 C18.72653809 24.89710693 19.67963867 24.89187012 20.66162109 24.88647461 C23 25 23 25 25 26 C24.40546697 36.55808656 24.40546697 36.55808656 21 41 C15.50660793 35.69603524 15.50660793 35.69603524 14 33 C14.33 31.02 14.66 29.04 15 27 C10.05 27 5.1 27 0 27 C0 31.62 0 36.24 0 41 C0.66 41 1.32 41 2 41 C1.67 44.63 1.34 48.26 1 52 C-5.75479274 52.7342166 -10.18524285 50.27591952 -16 47 C-16 44 -16 44 -14.71484375 42.54296875 C-12.83596589 41.1100663 -11.17346085 39.93987496 -9 39 C-5.0625 39.6875 -5.0625 39.6875 -2 41 C-2 36.38 -2 31.76 -2 27 C-3.39734375 27.09539062 -4.7946875 27.19078125 -6.234375 27.2890625 C-8.0728811 27.4016241 -9.91142489 27.51357121 -11.75 27.625 C-12.67039062 27.68945312 -13.59078125 27.75390625 -14.5390625 27.8203125 C-15.87324219 27.89765625 -15.87324219 27.89765625 -17.234375 27.9765625 C-18.45979004 28.05511475 -18.45979004 28.05511475 -19.70996094 28.13525391 C-22.26840268 27.98414765 -23.80868168 27.28926961 -26 26 C-26.54330269 19.34454208 -25.77304004 15.54165256 -22 10 C-19.05479617 12.65068345 -16.90637855 15.52766764 -15 19 C-15.33 20.98 -15.66 22.96 -16 25 C-11.38 25 -6.76 25 -2 25 C-2.02320312 23.53046875 -2.04640625 22.0609375 -2.0703125 20.546875 C-2.08907256 18.61458841 -2.10727251 16.68229633 -2.125 14.75 C-2.14175781 13.78191406 -2.15851563 12.81382813 -2.17578125 11.81640625 C-2.18222656 10.88183594 -2.18867187 9.94726562 -2.1953125 8.984375 C-2.20578613 8.12553711 -2.21625977 7.26669922 -2.22705078 6.38183594 C-1.98293323 3.82096404 -1.28990512 2.20488971 0 0 Z " fill="#EBF3F8" transform="translate(110,87)"/>
<path d="M0 0 C0.99 0 1.98 0 3 0 C3.33 1.98 3.66 3.96 4 6 C5.65 5.67 7.3 5.34 9 5 C9.3007039 10.01250271 9.51614735 15.01958096 9.65917969 20.0390625 C9.71887896 21.738887 9.80028587 23.43811298 9.90527344 25.13574219 C10.44249513 34.05783576 10.55341923 41.06854872 4.75128174 48.28207397 C-1.49152071 55.24576036 -1.49152071 55.24576036 -5 57 C-5 40.5 -5 24 -5 7 C-4.01 6.67 -3.02 6.34 -2 6 C-0.77479736 2.99152582 -0.77479736 2.99152582 0 0 Z " fill="#D1AF5E" transform="translate(186,24)"/>
<path d="M0 0 C1.8871875 0.0309375 1.8871875 0.0309375 3.8125 0.0625 C4.96135111 4.81108459 5.97712602 9.53034233 6.625 14.375 C6.73457031 15.17550781 6.84414063 15.97601563 6.95703125 16.80078125 C6.76491129 19.80719899 5.87810855 20.89409721 3.8125 23.0625 C1.33203125 23.671875 1.33203125 23.671875 -1.375 23.8125 C-2.27605469 23.86921875 -3.17710938 23.9259375 -4.10546875 23.984375 C-4.79253906 24.01015625 -5.47960938 24.0359375 -6.1875 24.0625 C-6.10709473 24.63355469 -6.02668945 25.20460937 -5.94384766 25.79296875 C-3.84585716 40.85300897 -2.30928922 55.89921262 -1.1875 71.0625 C-2.1775 71.0625 -3.1675 71.0625 -4.1875 71.0625 C-4.88629231 66.44084549 -5.57981185 61.81843895 -6.26879883 57.1953125 C-6.50308578 55.62804677 -6.7387248 54.06098246 -6.97583008 52.49414062 C-8.35654529 43.36332206 -9.59440455 34.28642855 -10.1875 25.0625 C-11.8375 25.0625 -13.4875 25.0625 -15.1875 25.0625 C-15.5175 21.4325 -15.8475 17.8025 -16.1875 14.0625 C-13.2175 13.4025 -10.2475 12.7425 -7.1875 12.0625 C-7.1875 8.4325 -7.1875 4.8025 -7.1875 1.0625 C-4.43671116 0.14557039 -2.82801087 -0.04636083 0 0 Z " fill="#F8CC67" transform="translate(32.1875,162.9375)"/>
<path d="M0 0 C0.66 0 1.32 0 2 0 C2.14695313 0.96099609 2.14695313 0.96099609 2.296875 1.94140625 C3.05520563 6.3279567 3.76827457 10.02879794 6.1875 13.8125 C8 17 8 17 7.75 19.9375 C7.5025 20.618125 7.255 21.29875 7 22 C4.98863724 19.44008376 3.37154504 16.95409701 2 14 C2.42380122 17.03724209 2.83426268 19.64090246 4.125 22.4375 C5.66763976 26.95523074 4.25798872 31.50718316 3 36 C1.35 35.34 -0.3 34.68 -2 34 C-2.33 37.63 -2.66 41.26 -3 45 C-3.99 44.67 -4.98 44.34 -6 44 C-5.47416579 39.01873499 -4.94086346 34.03834473 -4.40087891 29.05859375 C-4.21852727 27.36740335 -4.03815356 25.67599838 -3.85986328 23.984375 C-3.60199019 21.54106347 -3.33681397 19.09863367 -3.0703125 16.65625 C-2.99313995 15.91008423 -2.91596741 15.16391846 -2.8364563 14.3951416 C-2.28790967 9.45303853 -1.29543676 4.80213187 0 0 Z " fill="#784518" transform="translate(207,190)"/>
<path d="M0 0 C6.29470673 1.04911779 9.07346752 2.14104557 13 7 C14.11095578 9.72600164 14.54389484 12.06065565 15 15 C10.05 15 5.1 15 0 15 C0 10.05 0 5.1 0 0 Z " fill="#714313" transform="translate(110,97)"/>
<path d="M0 0 C0.27088361 8.56669405 0.27088361 8.56669405 -2.7421875 11.96484375 C-5.75935456 14.22495607 -8.41390767 15.80463589 -12 17 C-15.85987261 10.0843949 -15.85987261 10.0843949 -15 6 C-10.24452805 1.3766245 -6.59316051 -0.29968911 0 0 Z " fill="#ECF1F7" transform="translate(107,87)"/>
<path d="M0 0 C0 4.95 0 9.9 0 15 C-4.62 15 -9.24 15 -14 15 C-12.86814891 8.20889349 -12.86814891 8.20889349 -10.1875 5.25 C-9.68605469 4.67765625 -9.18460937 4.1053125 -8.66796875 3.515625 C-5.84769278 0.95293864 -3.82525573 0 0 0 Z " fill="#714313" transform="translate(108,97)"/>
<path d="M0 0 C4.95 0 9.9 0 15 0 C12.72986577 7.9454698 12.72986577 7.9454698 9.75 10.375 C9.18796875 10.85710937 8.6259375 11.33921875 8.046875 11.8359375 C6 13 6 13 0 14 C0 9.38 0 4.76 0 0 Z " fill="#6D3D0C" transform="translate(110,114)"/>
<path d="M0 0 C1.32 0 2.64 0 4 0 C6.20149006 15.63543238 7.83508059 31.25371949 9 47 C8.01 47 7.02 47 6 47 C5.3002093 42.39680379 4.60675562 37.79270925 3.91870117 33.18774414 C3.68468657 31.62727257 3.449059 30.06704187 3.21166992 28.50708008 C1.76768092 19.00972325 0.55687539 9.59791108 0 0 Z " fill="#693906" transform="translate(22,187)"/>
<path d="M0 0 C2.93281691 2.36517492 3.95251049 3.84356398 5.0625 7.5 C5 11 5 11 2.875 13.3125 C-0.85903463 15.50421598 -3.63164719 17 -8 17 C-8.34699465 13.27302038 -8.53590944 9.71385242 -8 6 C-5.125 3.4375 -5.125 3.4375 -2 2 C-1.34 1.34 -0.68 0.68 0 0 Z " fill="#ECF3F8" transform="translate(122,121)"/>
<path d="M0 0 C4.62 0 9.24 0 14 0 C14 4.62 14 9.24 14 14 C5.70921199 12.3418424 5.70921199 12.3418424 2.796875 8.3515625 C1.04735975 5.43159691 0 3.4423253 0 0 Z " fill="#6D3C0B" transform="translate(94,114)"/>
<path d="M0 0 C9.78135335 -0.11805082 9.78135335 -0.11805082 12.65625 2.51953125 C13.75 4.375 13.75 4.375 15 8 C14 11 14 11 12.25 12.1875 C9.48647087 13.18544108 7.90750443 13.58150089 5 13 C1.4033106 8.90377041 0.42970565 5.3713206 0 0 Z " fill="#ECF2F8" transform="translate(84,116)"/>
<path d="M0 0 C-0.14053872 2.62538284 -0.28718947 5.25017427 -0.4375 7.875 C-0.47681641 8.62136719 -0.51613281 9.36773437 -0.55664062 10.13671875 C-0.88671875 15.7734375 -0.88671875 15.7734375 -2 18 C-4.64 18 -7.28 18 -10 18 C-10.31654676 9.92805755 -10.31654676 9.92805755 -8 6 C-1.94285714 0 -1.94285714 0 0 0 Z " fill="#E60618" transform="translate(171,211)"/>
<path d="M0 0 C1.31602709 7.17832957 1.31602709 7.17832957 0.0625 10.4375 C-3.11919265 12.84787322 -6.05041372 12.74101074 -10 13 C-11.3271261 9.0186217 -11.06915913 5.14954773 -11 1 C-7.32589215 -0.17571451 -3.83070817 -0.07366746 0 0 Z " fill="#6B3B07" transform="translate(38,174)"/>
<path d="M0 0 C1.20462891 -0.02126953 1.20462891 -0.02126953 2.43359375 -0.04296875 C4.5625 0.1875 4.5625 0.1875 6.5625 2.1875 C6.9765625 4.3515625 6.9765625 4.3515625 7.1875 6.8125 C7.26226562 7.62976563 7.33703125 8.44703125 7.4140625 9.2890625 C7.48753906 10.22878906 7.48753906 10.22878906 7.5625 11.1875 C5.75068595 11.38151633 3.93801468 11.56754375 2.125 11.75 C0.61099609 11.90662109 0.61099609 11.90662109 -0.93359375 12.06640625 C-2.17302734 12.12634766 -2.17302734 12.12634766 -3.4375 12.1875 C-5.09356367 10.53143633 -4.83665554 8.45884998 -5.0625 6.1875 C-5.15789063 5.28 -5.25328125 4.3725 -5.3515625 3.4375 C-5.37992188 2.695 -5.40828125 1.9525 -5.4375 1.1875 C-3.84855928 -0.40144072 -2.18948576 0.01751589 0 0 Z " fill="#6C3B07" transform="translate(28.4375,151.8125)"/>
<path d="M0 0 C1.3271261 3.9813783 1.06915913 7.85045227 1 12 C-2.05073847 12.28780552 -4.95821528 12.42606559 -8 12 C-10.70484537 9.21318962 -10.96927128 7.54287411 -11.1875 3.6875 C-11.125625 2.800625 -11.06375 1.91375 -11 1 C-7.27569643 0.30710631 -3.78916254 -0.11144596 0 0 Z " fill="#6D3C08" transform="translate(16,177)"/>
<path d="M0 0 C1.17571451 3.67410785 1.07366746 7.16929183 1 11 C-2.67410785 12.17571451 -6.16929183 12.07366746 -10 12 C-10.33 8.37 -10.66 4.74 -11 1 C-7.0526448 0.21052896 -3.95712151 -0.09202608 0 0 Z " fill="#F8CC67" transform="translate(14,166)"/>
<path d="M0 0 C0.33 3.96 0.66 7.92 1 12 C-2.63 12.33 -6.26 12.66 -10 13 C-11.07421875 6.26171875 -11.07421875 6.26171875 -11 4 C-9.07953826 1.3928277 -8.17688482 1.03970884 -4.9375 0.3125 C-2 0 -2 0 0 0 Z " fill="#6D3D08" transform="translate(13,154)"/>
<path d="M0 0 C0.67934107 1.22220737 1.34291523 2.45318451 2 3.6875 C2.37125 4.37199219 2.7425 5.05648437 3.125 5.76171875 C4.1232653 8.31531704 4.15233386 10.28179271 4 13 C0.5748189 12.98692679 -2.66504214 12.81416812 -6 12 C-8.6875 9.125 -8.6875 9.125 -10 6 C-9 3 -9 3 -6.125 1.3125 C-3 0 -3 0 0 0 Z " fill="#EDF4FA" transform="translate(131,97)"/>
<path d="M0 0 C0.33910994 2.04071515 0.67102704 4.08262621 1 6.125 C1.185625 7.26195312 1.37125 8.39890625 1.5625 9.5703125 C1.96956049 12.76137602 2.07809902 15.78817791 2 19 C-0.64 19 -3.28 19 -6 19 C-7.8673805 9.76495462 -7.8673805 9.76495462 -5.765625 5.48828125 C-1.62724417 0 -1.62724417 0 0 0 Z " fill="#E71324" transform="translate(52,204)"/>
<path d="M0 0 C0.66 3.3 1.32 6.6 2 10 C-1.90432869 11.95216435 -4.72213252 12.50639991 -9 13 C-9.98248524 8.9472484 -10.08159574 5.16138263 -10 1 C-6.46315341 0.19157792 -3.72159473 0 0 0 Z " fill="#F9CD68" transform="translate(23,153)"/>
<path d="M0 0 C3.3 0 6.6 0 10 0 C10.07329796 4.39787789 10.07396066 7.70415737 9 12 C6.03 12 3.06 12 0 12 C0 8.04 0 4.08 0 0 Z " fill="#77470F" transform="translate(145,176)"/>
<path d="M0 0 C4.6205109 1.15512773 5.33984027 2.23908452 8 6 C9.4783226 8.95664519 9.06032783 11.74229737 9 15 C6.03 15 3.06 15 0 15 C0 10.05 0 5.1 0 0 Z " fill="#76460E" transform="translate(145,158)"/>
<path d="M0 0 C6.19354839 2.47741935 6.19354839 2.47741935 8 6 C8.53586482 9.01228863 8.77496883 11.93957613 9 15 C6.03 15 3.06 15 0 15 C0 10.05 0 5.1 0 0 Z " fill="#71410B" transform="translate(71,158)"/>
<path d="M0 0 C2.97 0 5.94 0 9 0 C9 3.96 9 7.92 9 12 C6.03 12 3.06 12 0 12 C0 8.04 0 4.08 0 0 Z " fill="#6F3E09" transform="translate(71,176)"/>
<path d="M0 0 C0.16815168 4.15670955 0.0775163 7.96701042 -1 12 C-3.66364041 14.74405219 -6.54216594 16.40730067 -10 18 C-10.19189837 13.20254065 -10.16803225 9.33606449 -8 5 C-2.42105263 0 -2.42105263 0 0 0 Z " fill="#E70F20" transform="translate(175,185)"/>
<path d="M0 0 C2.64 0 5.28 0 8 0 C8 3.96 8 7.92 8 12 C5.36 12 2.72 12 0 12 C0 8.04 0 4.08 0 0 Z " fill="#72410B" transform="translate(134,176)"/>
<path d="M0 0 C2.64 0 5.28 0 8 0 C8 3.96 8 7.92 8 12 C5.36 12 2.72 12 0 12 C0 8.04 0 4.08 0 0 Z " fill="#71400A" transform="translate(60,176)"/>
<path d="M0 0 C1.29544538 3.88633613 1.71076466 7.96718315 1 12 C-0.41960699 14.51079744 -1.87082891 15.97221801 -4 18 C-4.66 18 -5.32 18 -6 18 C-7.70833691 7.54700781 -7.70833691 7.54700781 -6.0234375 3.8671875 C-2.82880435 0 -2.82880435 0 0 0 Z " fill="#E60516" transform="translate(49,180)"/>
<path d="M0 0 C0.66 0 1.32 0 2 0 C2 4.95 2 9.9 2 15 C-0.64 15 -3.28 15 -6 15 C-5.57429438 8.82726847 -4.57782148 4.57782148 0 0 Z " fill="#784810" transform="translate(66,158)"/>
<path d="M0 0 C0.33 0 0.66 0 1 0 C3.02780269 11.48520179 3.02780269 11.48520179 0.5078125 15.19921875 C-1.26336865 16.66808986 -2.98231804 17.89807394 -5 19 C-6.60579333 9.19069724 -6.60579333 9.19069724 -4.1875 4.4375 C-2.82911464 2.9238706 -1.43810374 1.43810374 0 0 Z " fill="#E70C1D" transform="translate(46,152)"/>
<path d="M0 0 C0.10531732 4.12712234 0.00799515 7.9836877 -1 12 C-3.36337468 14.4433197 -5.85250255 15.76681193 -9 17 C-9.11889673 7.45429084 -9.11889673 7.45429084 -6.41015625 3.93359375 C-1.7751506 0 -1.7751506 0 0 0 Z " fill="#E70B1C" transform="translate(178,159)"/>
<path d="M0 0 C0.33 0 0.66 0 1 0 C1 4.95 1 9.9 1 15 C-1.31 15 -3.62 15 -6 15 C-6.45826062 9.2717423 -5.55825861 6.5001506 -2 2 C-1.34 1.34 -0.68 0.68 0 0 Z " fill="#6F3F0A" transform="translate(141,158)"/>
<path d="M0 0 C3 0.25 3 0.25 5 2.25 C4.43181818 7.81818182 4.43181818 7.81818182 3 9.25 C0.0625 9.4375 0.0625 9.4375 -3 9.25 C-5 7.25 -5 7.25 -5.25 4.75 C-4.86630891 0.91308908 -3.76694968 0.31391247 0 0 Z " fill="#8C426B" transform="translate(115,190.75)"/>
<path d="M0 0 C2.91699203 2.91699203 3.94677041 4.13815816 5 8 C4.66963891 11.76611644 4.01898814 15.36075664 3 19 C1.68 18.34 0.36 17.68 -1 17 C-0.67 11.39 -0.34 5.78 0 0 Z " fill="#E40C1C" transform="translate(207,207)"/>
<path d="M0 0 C0.78375 0.04125 1.5675 0.0825 2.375 0.125 C2.42183582 3.25630907 2.28628148 6.11673557 1.375 9.125 C-0.85110045 11.16380834 -2.78828604 11.9387378 -5.625 13.125 C-5.51110125 11.33259337 -5.38352313 9.54105165 -5.25 7.75 C-5.18039063 6.75226563 -5.11078125 5.75453125 -5.0390625 4.7265625 C-4.46748065 1.13530293 -3.67326523 0.17491739 0 0 Z " fill="#E71223" transform="translate(178.625,135.875)"/>
<path d="M0 0 C-0.28346278 1.91789713 -0.5771028 3.83429183 -0.875 5.75 C-1.03742188 6.81734375 -1.19984375 7.8846875 -1.3671875 8.984375 C-1.93223882 11.67708871 -2.63422914 13.63572439 -4 16 C-4.433125 14.6078125 -4.433125 14.6078125 -4.875 13.1875 C-5.8875 9.90208333 -5.8875 9.90208333 -8 7 C-8.125 3.8125 -8.125 3.8125 -8 1 C-5.23735711 0.40267181 -2.83967231 0 0 0 Z " fill="#E70A1A" transform="translate(219,189)"/>
<path d="M0 0 C1.57116277 4.811686 2.5029999 8.86940098 2 14 C1.01 14.66 0.02 15.32 -1 16 C-1.50435694 14.0636296 -2.00333874 12.12585854 -2.5 10.1875 C-2.7784375 9.10855469 -3.056875 8.02960938 -3.34375 6.91796875 C-4 4 -4 4 -4 1 C-2 0 -2 0 0 0 Z " fill="#683907" transform="translate(50,82)"/>
<path d="M0 0 C0.33 0 0.66 0 1 0 C1.66 6.93 2.32 13.86 3 21 C2.01 21 1.02 21 0 21 C-0.66 15.39 -1.32 9.78 -2 4 C-1.34 4 -0.68 4 0 4 C0 2.68 0 1.36 0 0 Z " fill="#794F23" transform="translate(28,213)"/>
<path d="M0 0 C0.4375 2.125 0.4375 2.125 0 5 C-2.12689146 7.276147 -4.5023433 9.1458722 -7 11 C-7.35475877 7.18634321 -7.2619932 5.41557542 -5.1875 2.125 C-3 0 -3 0 0 0 Z " fill="#E91F2F" transform="translate(49,170)"/>
<path d="M0 0 C-0.48901099 6.35714286 -0.48901099 6.35714286 -2.9375 9.4375 C-5 11 -5 11 -7 11 C-6.51098901 4.64285714 -6.51098901 4.64285714 -4.0625 1.5625 C-2 0 -2 0 0 0 Z " fill="#E71222" transform="translate(46,143)"/>
<path d="M0 0 C0 2.6875 0 2.6875 -1 6 C-3.48019208 8.02924807 -6.15618752 9.5359872 -9 11 C-8.13350722 6.90385231 -7.53809513 4.52464275 -4.5 1.5625 C-2 0 -2 0 0 0 Z " fill="#E81525" transform="translate(180,149)"/>
<path d="M0 0 C0.375 2.25 0.375 2.25 0 5 C-4.97297297 9 -4.97297297 9 -8 9 C-7.70100785 5.41209425 -7.23013399 4.21833224 -4.5625 1.6875 C-2 0 -2 0 0 0 Z " fill="#E70D1E" transform="translate(176,176)"/>
<path d="M0 0 C-1.32632714 5.63689034 -5.46631765 7.93185683 -10 11 C-9.91563067 8.13144287 -9.41307819 6.44317685 -7.4453125 4.33203125 C-2.48559976 0 -2.48559976 0 0 0 Z " fill="#E71021" transform="translate(173,202)"/>
<path d="M0 0 C3.33576209 2.99068325 5.3746531 5.80831589 7 10 C6.6875 12.875 6.6875 12.875 6 15 C2.07323928 9.95130764 -0.46128034 6.6116849 0 0 Z " fill="#E52330" transform="translate(208,197)"/>
<path d="M0 0 C3.63 0.66 7.26 1.32 11 2 C11.33 1.34 11.66 0.68 12 0 C12 2.97 12 5.94 12 9 C11.67 7.68 11.34 6.36 11 5 C7.7 4.67 4.4 4.34 1 4 C0.67 2.68 0.34 1.36 0 0 Z " fill="#F7BDC4" transform="translate(124,108)"/>
<path d="M0 0 C0.66 0 1.32 0 2 0 C1.36747553 3.19137349 0.24396936 5.51237368 -1.5 8.25 C-1.9434375 8.95640625 -2.386875 9.6628125 -2.84375 10.390625 C-3.2253125 10.92171875 -3.606875 11.4528125 -4 12 C-4.33 12 -4.66 12 -5 12 C-5 9.69 -5 7.38 -5 5 C-4.34 5 -3.68 5 -3 5 C-2.5359375 4.0409375 -2.5359375 4.0409375 -2.0625 3.0625 C-1 1 -1 1 0 0 Z " fill="#FDECED" transform="translate(48,193)"/>
<path d="M0 0 C6 6 6 6 6.0625 9.5625 C6.041875 10.696875 6.02125 11.83125 6 13 C3.49387834 11.74693917 3.11615658 10.66521628 1.875 8.1875 C1.52179688 7.50042969 1.16859375 6.81335938 0.8046875 6.10546875 C0 4 0 4 0 0 Z " fill="#FCE0E2" transform="translate(209,194)"/>
<path d="M0 0 C0.66 0 1.32 0 2 0 C2.4375 2.125 2.4375 2.125 2 5 C-0.12689146 7.276147 -2.5023433 9.1458722 -5 11 C-4.46968862 6.4923533 -2.74778884 3.58045212 0 0 Z " fill="#E71323" transform="translate(49,196)"/>
<path d="M0 0 C0.66 0 1.32 0 2 0 C2.27585566 1.93398808 2.51987415 3.87253909 2.75 5.8125 C2.88921875 6.89144531 3.0284375 7.97039062 3.171875 9.08203125 C3.11515625 10.04496094 3.0584375 11.00789062 3 12 C1.68 12.99 0.36 13.98 -1 15 C-0.67 10.05 -0.34 5.1 0 0 Z " fill="#E81526" transform="translate(42,126)"/>
<path d="M0 0 C0.64453125 1.765625 0.64453125 1.765625 1 4 C0.07421875 5.921875 0.07421875 5.921875 -1.3125 7.75 C-1.98732422 8.67039063 -1.98732422 8.67039063 -2.67578125 9.609375 C-3.11277344 10.06828125 -3.54976562 10.5271875 -4 11 C-4.66 11 -5.32 11 -6 11 C-6.375 8.875 -6.375 8.875 -6 6 C-4.20659643 3.76086748 -2.16547337 1.87545461 0 0 Z " fill="#FDF0F1" transform="translate(50,201)"/>
<path d="M0 0 C0.66 0.33 1.32 0.66 2 1 C0.50164772 5.66154042 -2.88463591 6.86610751 -7 9 C-7.99 7.68 -8.98 6.36 -10 5 C-9.36191406 4.80664062 -8.72382812 4.61328125 -8.06640625 4.4140625 C-7.24011719 4.15367187 -6.41382812 3.89328125 -5.5625 3.625 C-4.32693359 3.24214844 -4.32693359 3.24214844 -3.06640625 2.8515625 C-0.82201984 2.19117773 -0.82201984 2.19117773 0 0 Z " fill="#F9BAC0" transform="translate(99,124)"/>
<path d="M0 0 C0.33 0 0.66 0 1 0 C1.33 1.98 1.66 3.96 2 6 C6.455 6.99 6.455 6.99 11 8 C11 8.66 11 9.32 11 10 C4.375 10.125 4.375 10.125 1 9 C0.67 9.66 0.34 10.32 0 11 C0 7.37 0 3.74 0 0 Z " fill="#FBBDC5" transform="translate(83,107)"/>
<path d="M0 0 C-1.36157378 5.29500913 -4.60343955 7.23745533 -9 10 C-8.84759391 7.33289346 -8.50635081 5.5494129 -6.66796875 3.5546875 C-2.49375 0 -2.49375 0 0 0 Z " fill="#FDEEEF" transform="translate(172,207)"/>
<path d="M0 0 C3.2475161 3.09990173 4.96634513 5.00718143 5.125 9.6875 C5.08375 10.780625 5.0425 11.87375 5 13 C1.68774552 11.34387276 1.23017425 8.35502069 0 5 C-0.1875 2.0625 -0.1875 2.0625 0 0 Z " fill="#FCE6E8" transform="translate(208,203)"/>
<path d="M0 0 C0.66 0 1.32 0 2 0 C1.49477778 4.37859255 -1.17827222 6.81651224 -4 10 C-4.66 8.68 -5.32 7.36 -6 6 C-4 4 -2 2 0 0 Z " fill="#FDF0F1" transform="translate(47,176)"/>
<path d="M0 0 C-0.70369913 4.74996912 -3.70531276 7.70531276 -7 11 C-7.3125 8.3125 -7.3125 8.3125 -7 5 C-2.86956522 0 -2.86956522 0 0 0 Z " fill="#FDEBEC" transform="translate(48,166)"/>
<path d="M0 0 C0.61328125 1.8359375 0.61328125 1.8359375 1 4 C-0.80447147 6.61337248 -2.7582981 8.7582981 -5 11 C-5.875 8.875 -5.875 8.875 -6 6 C-4.2531134 3.70485976 -2.19996058 1.85561893 0 0 Z " fill="#FDEDEF" transform="translate(45,149)"/>
<path d="M0 0 C0.33 0.99 0.66 1.98 1 3 C-1.64 4.98 -4.28 6.96 -7 9 C-6.875 6.75 -6.875 6.75 -6 4 C-2.9375 1.6875 -2.9375 1.6875 0 0 Z " fill="#FDF0F1" transform="translate(172,198)"/>
<path d="M0 0 C0.66 0.33 1.32 0.66 2 1 C1.67 4.96 1.34 8.92 1 13 C-2 9 -2 9 -2.109375 6.89453125 C-1.11111111 1.11111111 -1.11111111 1.11111111 0 0 Z " fill="#7C360D" transform="translate(205,211)"/>
<path d="M0 0 C0.66 0 1.32 0 2 0 C2.08159574 4.16138263 1.98248524 7.9472484 1 12 C0.34 12 -0.32 12 -1 12 C-1.14285714 3.42857143 -1.14285714 3.42857143 0 0 Z " fill="#6D3B0A" transform="translate(207,190)"/>
<path d="M0 0 C-0.0625 1.75 -0.0625 1.75 -1 4 C-3.24164322 5.59501537 -5.53566643 6.74543018 -8 8 C-6.65580512 3.85539913 -4.87800266 0 0 0 Z " fill="#FDF0F1" transform="translate(175,182)"/>
<path d="M0 0 C0.66 0.33 1.32 0.66 2 1 C-1.3 4.3 -4.6 7.6 -8 11 C-8 6.67750434 -5.85084926 5.11604454 -3 2 C-2.01 1.34 -1.02 0.68 0 0 Z " fill="#8CC0E7" transform="translate(29,35)"/>
<path d="M0 0 C0 0.99 0 1.98 0 3 C-4.22222222 6 -4.22222222 6 -7 6 C-6.6875 4.125 -6.6875 4.125 -6 2 C-3 0 -3 0 0 0 Z " fill="#FDF0F1" transform="translate(176,173)"/>
<path d="M0 0 C-0.125 1.75 -0.125 1.75 -1 4 C-4.0625 6.25 -4.0625 6.25 -7 8 C-6.65930765 4.84859577 -6.41923159 3.39218439 -4.0625 1.1875 C-2 0 -2 0 0 0 Z " fill="#FDECEE" transform="translate(178,156)"/>
<path d="M0 0 C0.33 0.99 0.66 1.98 1 3 C-1.31 4.65 -3.62 6.3 -6 8 C-5.8125 5.6875 -5.8125 5.6875 -5 3 C-2.4375 1.1875 -2.4375 1.1875 0 0 Z " fill="#FDEFF0" transform="translate(179,145)"/>
<path d="M0 0 C-0.3125 2.375 -0.3125 2.375 -1 5 C-1.99 5.66 -2.98 6.32 -4 7 C-4.6875 5.1875 -4.6875 5.1875 -5 3 C-3.38441968 0.84589291 -2.74502455 0 0 0 Z " fill="#FBE2E4" transform="translate(45,139)"/>
<path d="M0 0 C3.29279709 0.31865778 4.86535088 1.54515351 7 4 C6.67 4.66 6.34 5.32 6 6 C3.36 4.68 0.72 3.36 -2 2 C-1.34 1.34 -0.68 0.68 0 0 Z " fill="#8EC2E6" transform="translate(56,37)"/>
<path d="M0 0 C0.66 0 1.32 0 2 0 C2.33 2.64 2.66 5.28 3 8 C2.01 8 1.02 8 0 8 C0 5.36 0 2.72 0 0 Z " fill="#704111" transform="translate(28,226)"/>
<path d="M0 0 C0.66 0.33 1.32 0.66 2 1 C-0.20979308 3.81939117 -2.40062046 6.53058944 -5 9 C-4.5206753 4.68607774 -3.2542015 2.83430453 0 0 Z " fill="#EC3746" transform="translate(168,204)"/>
<path d="M0 0 C0.33 0 0.66 0 1 0 C1 2.64 1 5.28 1 8 C0.01 7.67 -0.98 7.34 -2 7 C-1.34 4.69 -0.68 2.38 0 0 Z " fill="#744718" transform="translate(203,227)"/>
</svg>
