<?xml version="1.0" encoding="UTF-8"?>
<svg version="1.1" xmlns="http://www.w3.org/2000/svg" width="256" height="256">
<path d="M0 0 C3.02518729 2.21383438 5.96084257 4.50070097 8.87109375 6.86328125 C9.74765625 7.57355469 10.62421875 8.28382812 11.52734375 9.015625 C27.27310657 22.45298123 35.70447483 39.74275052 37.55859375 60.23828125 C38.26135039 72.37158986 37.82829035 84.47674163 37.43359375 96.61328125 C37.37486084 98.46083008 37.37486084 98.46083008 37.31494141 100.34570312 C37.06186782 107.54811907 36.61970693 114.6949656 35.87109375 121.86328125 C36.64453125 122.16105469 37.41796875 122.45882812 38.21484375 122.765625 C45.01406775 125.57530433 47.81536784 130.48151521 50.87109375 136.86328125 C53.16847338 143.75542014 52.897343 151.62724682 49.87109375 158.23828125 C46.07063263 164.82217869 40.485246 170.1284279 33.12890625 172.421875 C25.15031631 173.98170314 18.2528917 173.53495564 11.12890625 169.48046875 C5.15767859 165.20349945 1.12596317 159.87843055 -1.12890625 152.86328125 C-1.54676998 150.20335819 -1.82475977 147.53977025 -2.12890625 144.86328125 C-2.62519531 145.98605469 -3.12148437 147.10882813 -3.6328125 148.265625 C-11.08374638 164.81812138 -11.08374638 164.81812138 -17.12890625 170.86328125 C-17.72445312 171.47945312 -18.32 172.095625 -18.93359375 172.73046875 C-25.5377725 178.30675976 -33.54577375 177.76340105 -41.70410156 177.11425781 C-82.01477812 172.94194856 -124.25406087 149.34707569 -153.12890625 121.86328125 C-153.77472656 121.2703125 -154.42054688 120.67734375 -155.0859375 120.06640625 C-158.92775035 116.43152945 -162.19257387 112.3987817 -165.44140625 108.23828125 C-165.87469238 107.68736816 -166.30797852 107.13645508 -166.75439453 106.56884766 C-171.8566586 99.89263073 -173.17177858 94.1547428 -172.12890625 85.86328125 C-170.92134391 82.22143744 -169.21064392 79.00424101 -167.31640625 75.67578125 C-166.57741089 74.32492432 -166.57741089 74.32492432 -165.82348633 72.94677734 C-148.75070753 42.323615 -148.75070753 42.323615 -133.8515625 36.60546875 C-129.6601665 34.81920825 -126.46200211 32.15853274 -123.00390625 29.23828125 C-87.94408318 0.47369433 -43.31484302 -29.57954948 0 0 Z M-0.12890625 79.86328125 C-0.12366943 80.44706543 -0.11843262 81.03084961 -0.11303711 81.63232422 C-0.09196544 84.33429849 -0.07915166 87.03625536 -0.06640625 89.73828125 C-0.05802734 90.65609375 -0.04964844 91.57390625 -0.04101562 92.51953125 C-0.02474968 97.13906022 -0.17412855 101.59836519 -0.7578125 106.18359375 C-1.22599263 110.30976167 -0.6305157 112.95483679 0.87109375 116.86328125 C1.15457396 119.51087947 1.37273628 122.08609568 1.49609375 124.73828125 C1.53476563 125.42664063 1.5734375 126.115 1.61328125 126.82421875 C1.70657541 128.50351371 1.78987613 130.18335892 1.87109375 131.86328125 C2.59683594 131.10660156 3.32257813 130.34992188 4.0703125 129.5703125 C6.5217711 127.20091109 8.82814066 125.38338547 11.68359375 123.55078125 C12.47378906 123.03902344 13.26398438 122.52726562 14.078125 122 C14.66980469 121.62488281 15.26148438 121.24976563 15.87109375 120.86328125 C11.1725375 99.46916167 11.1725375 99.46916167 1.87109375 79.86328125 C1.21109375 79.86328125 0.55109375 79.86328125 -0.12890625 79.86328125 Z M0.87109375 131.86328125 C1.87109375 133.86328125 1.87109375 133.86328125 1.87109375 133.86328125 Z " fill="#D0DBED" transform="translate(188.12890625,46.13671875)"/>
<path d="M0 0 C3.02518729 2.21383438 5.96084257 4.50070097 8.87109375 6.86328125 C9.74765625 7.57355469 10.62421875 8.28382812 11.52734375 9.015625 C27.27310657 22.45298123 35.70447483 39.74275052 37.55859375 60.23828125 C38.26135039 72.37158986 37.82829035 84.47674163 37.43359375 96.61328125 C37.37486084 98.46083008 37.37486084 98.46083008 37.31494141 100.34570312 C37.06186782 107.54811907 36.61970693 114.6949656 35.87109375 121.86328125 C35.03320312 121.69957031 34.1953125 121.53585938 33.33203125 121.3671875 C29.66592068 120.83340842 26.1986999 120.765851 22.49609375 120.80078125 C21.25085938 120.80980469 20.005625 120.81882813 18.72265625 120.828125 C17.78164062 120.83972656 16.840625 120.85132813 15.87109375 120.86328125 C15.36306549 119.23759082 14.85510246 117.61187998 14.34741211 115.98608398 C13.90007909 114.55557256 13.4516512 113.12540311 13.00219727 111.69555664 C11.83143398 107.96565886 10.6778738 104.23240597 9.56640625 100.484375 C9.3552417 99.78248047 9.14407715 99.08058594 8.92651367 98.35742188 C8.33881316 96.40136137 7.75903374 94.44292613 7.1796875 92.484375 C6.17326085 89.69942723 5.19406883 87.53725617 3.71875 85.0234375 C1.87109375 81.86328125 1.87109375 81.86328125 1.87109375 79.86328125 C1.21109375 79.86328125 0.55109375 79.86328125 -0.12890625 79.86328125 C0.11279297 80.85908203 0.11279297 80.85908203 0.359375 81.875 C0.97781006 85.4864719 1.06201042 89.02336111 1.05859375 92.67578125 C1.05923828 93.38412109 1.05988281 94.09246094 1.06054688 94.82226562 C1.00977844 99.83911024 0.45190357 104.12085178 -1.12890625 108.86328125 C-6.12890625 103.86328125 -6.12890625 103.86328125 -8.50390625 101.42578125 C-14.82679284 95.25343957 -21.73437327 90.18435095 -29.00390625 85.17578125 C-30.02403809 84.47098633 -31.04416992 83.76619141 -32.09521484 83.04003906 C-61.93490495 62.50388955 -94.25668821 40.72334158 -131.12890625 36.86328125 C-98.14862801 3.17628277 -44.45880802 -30.36075904 0 0 Z " fill="#F62E42" transform="translate(188.12890625,46.13671875)"/>
<path d="M0 0 C17.30489507 8.66094699 33.14017897 19.43415847 48.98242188 30.49267578 C50.68800538 31.67387572 52.39372407 32.8548805 54.09960938 34.03564453 C55.60295239 35.08276164 57.10561033 36.13086336 58.60742188 37.18017578 C59.26323242 37.63650391 59.91904297 38.09283203 60.59472656 38.56298828 C69.58682673 44.91256975 76.40651634 51.48986077 81.48242188 61.43017578 C83.05416365 71.05709414 80.34502364 79.27484546 75.16992188 87.30517578 C69.92306291 92.55203474 66.16866737 93.79347225 58.79492188 94.11767578 C46.00417822 93.71521384 37.20416531 86.56668856 27.64013672 78.83251953 C22.4719834 74.65537293 17.22390615 70.57709673 11.98242188 66.49267578 C10.8623877 65.61554932 10.8623877 65.61554932 9.71972656 64.72070312 C-8.44285544 50.55772997 -27.378071 38.42005306 -49.45507812 31.36767578 C-56.51930251 29.10904622 -64.29584311 26.31585665 -68.01757812 19.49267578 C-69.39690943 15.41147787 -69.63116826 12.10495446 -68.08398438 8.03955078 C-50.38725169 -23.84464749 -26.85270268 -13.10869318 0 0 Z " fill="#F1F7FC" transform="translate(108.017578125,98.50732421875)"/>
<path d="M0 0 C6.58241871 0.5523708 12.22008419 2.78137365 18.3125 5.25 C19.40046875 5.68965088 20.4884375 6.12930176 21.609375 6.58227539 C39.62598286 14.01051456 57.09310362 22.60309044 73.13476562 33.71240234 C75.04993257 35.03446916 76.98326835 36.32587988 78.921875 37.61328125 C85.57106795 42.07797551 85.57106795 42.07797551 88 44 C88 44.66 88 45.32 88 46 C88.84498047 46.38478516 88.84498047 46.38478516 89.70703125 46.77734375 C97.38111655 50.86931768 105.87250556 57.98759115 111 65 C110.73828125 67.265625 110.73828125 67.265625 110 69 C82.30907739 71.26974776 45.59346398 53.46115145 24.1875 36.625 C15.50447469 29.19532805 8.38429035 21.09332317 3 11 C2.38125 9.906875 1.7625 8.81375 1.125 7.6875 C-0.04662719 4.88861283 -0.26477066 3.00073417 0 0 Z " fill="#D0DBED" transform="translate(36,143)"/>
<path d="M0 0 C11.27974853 7.62185688 22.30018629 15.71167437 31.4375 25.875 C32.25734375 26.78185547 32.25734375 26.78185547 33.09375 27.70703125 C36.75837396 32.21655462 36.92392719 35.32973005 36.4375 40.875 C25.07426776 46.55661612 5.51887425 40.75922942 -5.92089844 37.12597656 C-17.51059605 33.2596197 -28.558342 28.14483604 -39.5625 22.875 C-40.46628891 22.44468475 -40.46628891 22.44468475 -41.38833618 22.00567627 C-53.18306688 16.36285244 -64.35093068 9.89045093 -74.75 1.9375 C-75.42216553 1.42735352 -76.09433105 0.91720703 -76.78686523 0.39160156 C-85.17536174 -6.04202981 -92.91957446 -12.87514647 -99.5625 -21.125 C-100.78259766 -22.62353516 -100.78259766 -22.62353516 -102.02734375 -24.15234375 C-102.87446534 -25.22493126 -103.71952877 -26.29914757 -104.5625 -27.375 C-105.34625 -28.37015625 -106.13 -29.3653125 -106.9375 -30.390625 C-108.5625 -33.125 -108.5625 -33.125 -108.48828125 -35.34765625 C-106.936438 -38.32693338 -104.4191061 -39.50065535 -101.5625 -41.125 C-71.56513396 -50.32258919 -23.44824556 -15.53544043 0 0 Z M-91.5625 -36.125 C-90.95871945 -22.53993753 -79.87194829 -11.102482 -70.625 -2.125 C-49.98126527 15.98858339 -13.3254663 33.14807762 14.625 33.1875 C15.883125 33.084375 17.14125 32.98125 18.4375 32.875 C19.43181151 31.19223015 19.43181151 31.19223015 19.4375 28.875 C17.70878815 26.70952879 16.06722941 24.9410079 14.0625 23.0625 C13.51609863 22.53495117 12.96969727 22.00740234 12.40673828 21.46386719 C5.29789578 13.74981181 5.29789578 13.74981181 -3.5625 9.875 C-3.5625 9.215 -3.5625 8.555 -3.5625 7.875 C-5.12288685 6.5057777 -5.12288685 6.5057777 -7.19140625 5.15234375 C-7.9707251 4.61867187 -8.75004395 4.085 -9.55297852 3.53515625 C-10.40174561 2.96667969 -11.2505127 2.39820313 -12.125 1.8125 C-12.99761475 1.2246875 -13.87022949 0.636875 -14.76928711 0.03125 C-17.35840645 -1.70098905 -19.95702274 -3.41748187 -22.5625 -5.125 C-23.20703125 -5.54765137 -23.8515625 -5.97030273 -24.515625 -6.40576172 C-40.71287925 -16.88016854 -58.46515555 -25.36115219 -76.375 -32.4375 C-77.32890625 -32.81648437 -78.2828125 -33.19546875 -79.265625 -33.5859375 C-83.58824057 -35.23593445 -86.88555966 -36.32475454 -91.5625 -36.125 Z " fill="#EFF4FA" transform="translate(127.5625,179.125)"/>
<path d="M0 0 C6.78229418 7.2554775 9.13245359 14.64867249 9.0234375 24.44921875 C8.31653646 31.65796541 5.08029557 36.89467637 -0.125 41.8125 C-6.74288662 47.03779595 -12.86194333 48.536177 -21.28515625 48.28125 C-29.23732882 47.21411974 -35.01668601 43.11027415 -39.90625 36.89453125 C-44.77524096 29.90211923 -45.21907777 23.18529625 -44.3125 14.875 C-42.31255352 7.63863451 -38.25253698 1.45290674 -31.75 -2.4375 C-21.57458221 -7.4327051 -9.4415389 -6.05683628 0 0 Z " fill="#CEDAEC" transform="translate(231.3125,171.125)"/>
<path d="M0 0 C0 3 0 3 -1.4375 5.0625 C-3.96328081 9.81096792 -4.78724293 14.90646792 -3.4453125 20.1796875 C0.70504205 29.61898944 10.36674954 34.71292596 18.9375 39.5625 C19.97583984 40.1603833 21.01417969 40.7582666 22.08398438 41.37426758 C27.55069684 44.5105766 33.04820934 47.58811954 38.56640625 50.6328125 C54.29191504 59.31292323 69.28769051 68.32566678 83 80 C83.71285156 80.53625 84.42570312 81.0725 85.16015625 81.625 C88.30409997 84.22516021 89.80938403 85.86080691 90.49609375 89.96484375 C90.59651457 94.83820692 90.51642604 98.73124489 88 103 C87.64550781 102.46632813 87.29101562 101.93265625 86.92578125 101.3828125 C77.03963767 87.54699896 60.7172916 79.0124248 46.75976562 69.83007812 C44.45270887 68.30020397 42.16516602 66.74941673 39.890625 65.171875 C16.71130199 49.13483455 -12.21052986 32.35479859 -41 31 C-32.26983969 22.08276483 -22.33385676 14.93809768 -12 8 C-11.42411133 7.61328125 -10.84822266 7.2265625 -10.25488281 6.828125 C-6.84428336 4.54041156 -3.42558297 2.26520531 0 0 Z " fill="#DF202D" transform="translate(98,52)"/>
<path d="M0 0 C4.0008534 0.9066852 6.77186003 2.25534301 10.29345703 4.34375 C10.89640594 4.69832275 11.49935486 5.05289551 12.12057495 5.41821289 C13.39269758 6.16935733 14.66155504 6.92605646 15.92724609 7.68798828 C17.81557214 8.82415192 19.7133669 9.94277462 21.61376953 11.05859375 C51.71396147 28.85593918 51.71396147 28.85593918 56.34814453 41.62890625 C57.60052722 49.02579152 56.07544227 54.89574967 53.84814453 61.90625 C51.22449055 70.55116694 49.52497463 78.84389832 48.72314453 87.84375 C48.06314453 87.84375 47.40314453 87.84375 46.72314453 87.84375 C42.34077297 81.52109179 41.06320761 75.88081685 40.17626953 68.30078125 C39.5776159 63.73346694 38.85466719 58.97037787 36.72314453 54.84375 C36.11599609 54.54210937 35.50884766 54.24046875 34.88330078 53.9296875 C31.77452818 52.36686872 30.52479233 50.05636615 28.53564453 47.21875 C24.31832851 41.44721288 19.54434628 36.61041006 14.28564453 31.78125 C-4.895909 14.16648563 -4.895909 14.16648563 -7.27685547 7.84375 C-7.08935547 4.71875 -7.08935547 4.71875 -6.27685547 1.84375 C-3.27685547 -0.15625 -3.27685547 -0.15625 0 0 Z " fill="#DF202D" transform="translate(147.27685546875,47.15625)"/>
<path d="M0 0 C6.29145768 4.03602945 9.67336684 10.02010052 12 17 C12.1199261 19.16424777 12.17529542 21.33246644 12.1875 23.5 C12.20167969 24.6446875 12.21585938 25.789375 12.23046875 26.96875 C12 30 12 30 10 33 C10 32.34 10 31.68 10 31 C8.081875 30.94392578 8.081875 30.94392578 6.125 30.88671875 C4.4166396 30.82101258 2.70830753 30.75456689 1 30.6875 C0.16082031 30.66494141 -0.67835938 30.64238281 -1.54296875 30.61914062 C-9.6296154 30.27436112 -16.41080489 28.41698997 -22.4609375 22.78125 C-28.16507102 16.17951171 -28.71516536 8.41686356 -29 0 C-19.34320299 -4.37288921 -9.76087914 -4.24460765 0 0 Z " fill="#F1F6FB" transform="translate(228,169)"/>
<path d="M0 0 C11.19884902 0.86144992 19.7525299 9.26511667 26.9765625 17.16015625 C39.62714051 32.51361106 41.54553798 48.86576064 41 68 C40.01 67.67 39.02 67.34 38 67 C37.91363281 66.12859375 37.82726562 65.2571875 37.73828125 64.359375 C35.18472819 42.71274176 22.85438199 27.32373531 7.59765625 12.72265625 C7.03925049 12.18326416 6.48084473 11.64387207 5.90551758 11.08813477 C4.82211268 10.04882657 3.72719518 9.02135601 2.61987305 8.00756836 C1.140625 6.59375 1.140625 6.59375 -1 4 C-0.828125 1.65625 -0.828125 1.65625 0 0 Z " fill="#080101" transform="translate(151,59)"/>
<path d="M0 0 C9.48038672 2.20849918 18.76938214 4.92183837 28 8 C28.83885742 8.27972656 29.67771484 8.55945313 30.54199219 8.84765625 C63.85083492 20.10904325 91.58965886 37.87116021 117 62 C118.37285156 63.25876953 118.37285156 63.25876953 119.7734375 64.54296875 C121.03027344 65.72826172 121.03027344 65.72826172 122.3125 66.9375 C123.05113281 67.62714844 123.78976563 68.31679687 124.55078125 69.02734375 C126 71 126 71 125.73046875 73.25390625 C125.36888672 74.11822266 125.36888672 74.11822266 125 75 C124.71769531 74.53851563 124.43539062 74.07703125 124.14453125 73.6015625 C115.01181651 60.04979224 98.11083257 51.61344886 84.75976562 42.83007812 C82.45270887 41.30020397 80.16516602 39.74941673 77.890625 38.171875 C54.71130199 22.13483455 25.78947014 5.35479859 -3 4 C-2.01 2.68 -1.02 1.36 0 0 Z " fill="#0D0708" transform="translate(60,79)"/>
<path d="M0 0 C21.80954037 6.87800641 41.86013683 20.32653943 60 34 C56.0971144 35.30096187 53.79766739 34.16117713 50.125 32.75 C49.43390137 32.48622559 48.74280273 32.22245117 48.03076172 31.95068359 C34.4922453 26.5775942 20.75919551 19.93907535 10 10 C9.07316406 9.18917969 8.14632812 8.37835938 7.19140625 7.54296875 C2.28494299 3.22174244 2.28494299 3.22174244 0 1 C0 0.67 0 0.34 0 0 Z " fill="#E12C39" transform="translate(62,152)"/>
<path d="M0 0 C3.87548189 1.50046312 5.44161246 3.67145963 7.75 7.0625 C13.624177 15.38425075 20.09021851 22.58085645 28 29 C28.93457031 29.76054687 29.86914062 30.52109375 30.83203125 31.3046875 C56.17910637 51.55036391 88.14039453 67.63608383 120 74 C120.77980225 74.1757959 121.55960449 74.3515918 122.36303711 74.53271484 C125.07098174 75.01257838 127.55290266 75.11372572 130.30078125 75.09765625 C131.27724609 75.09443359 132.25371094 75.09121094 133.25976562 75.08789062 C134.77086914 75.07532227 134.77086914 75.07532227 136.3125 75.0625 C137.33923828 75.05798828 138.36597656 75.05347656 139.42382812 75.04882812 C141.94924388 75.03708201 144.47462952 75.01914771 147 75 C146.67 71.7 146.34 68.4 146 65 C146.763125 65.78375 147.52625 66.5675 148.3125 67.375 C150.90891805 70.07257717 150.90891805 70.07257717 154 72 C148.84095007 77.06854028 143.76866287 78.63114641 136.625 78.625 C94.11339851 77.60126204 48.02709352 51.58053281 18 23 C17.03126953 22.11054688 17.03126953 22.11054688 16.04296875 21.203125 C12.16527518 17.53430017 8.89256347 13.45775317 5.625 9.25 C5.18333496 8.6823291 4.74166992 8.1146582 4.28662109 7.52978516 C2.38138769 5.0265098 1.00246322 3.00738965 0 0 Z " fill="#1A1B1B" transform="translate(17,145)"/>
<path d="M0 0 C1.07314453 0.68835938 1.07314453 0.68835938 2.16796875 1.390625 C9.53988092 5.93012072 16.62956849 8.82638795 25 11 C25 13.97 25 16.94 25 20 C24.16210938 19.83628906 23.32421875 19.67257813 22.4609375 19.50390625 C18.79482693 18.97012717 15.32760615 18.90256975 11.625 18.9375 C10.37976563 18.94652344 9.13453125 18.95554688 7.8515625 18.96484375 C6.91054687 18.97644531 5.96953125 18.98804688 5 19 C4.16142312 16.39741676 3.32896656 13.79314353 2.5 11.1875 C2.14228516 10.08051758 2.14228516 10.08051758 1.77734375 8.95117188 C0.80059864 5.86744804 0 3.25504191 0 0 Z " fill="#E32330" transform="translate(199,148)"/>
<path d="M0 0 C0.33 0 0.66 0 1 0 C1.08636719 1.03898438 1.17273438 2.07796875 1.26171875 3.1484375 C2.23299644 13.32547289 3.56348765 22.32492025 11.5625 29.5 C16.0155497 33.03775773 19.54161797 34.25271422 25.25 34.625 C26.32765625 34.69976562 27.4053125 34.77453125 28.515625 34.8515625 C29.33546875 34.90054688 30.1553125 34.94953125 31 35 C30.505 35.99 30.505 35.99 30 37 C21.48799981 37.65814434 15.06254608 37.05864027 8 32 C2.42916451 26.97573705 -1.65896591 21.48844862 -2.2421875 13.8125 C-2.43942536 3.99443754 -2.43942536 3.99443754 0 0 Z " fill="#27292B" transform="translate(189,182)"/>
<path d="M0 0 C5.47391575 1.73623079 10.79411214 3.6907909 16.09155273 5.90600586 C25.60047804 9.87549597 34.9132378 12.87710237 45 15 C45.78342773 15.17724609 46.56685547 15.35449219 47.37402344 15.53710938 C50.07706145 16.01358391 52.55820699 16.1136947 55.30078125 16.09765625 C56.27724609 16.09443359 57.25371094 16.09121094 58.25976562 16.08789062 C59.77086914 16.07532227 59.77086914 16.07532227 61.3125 16.0625 C62.33923828 16.05798828 63.36597656 16.05347656 64.42382812 16.04882812 C66.94924388 16.03708201 69.47462952 16.01914771 72 16 C71.67 12.7 71.34 9.4 71 6 C71.763125 6.78375 72.52625 7.5675 73.3125 8.375 C75.90891805 11.07257717 75.90891805 11.07257717 79 13 C73.84095007 18.06854028 68.76866287 19.63114641 61.625 19.625 C40.17348358 19.10841791 19.05450092 11.48166553 0 2 C0 1.34 0 0.68 0 0 Z " fill="#121313" transform="translate(92,204)"/>
<path d="M0 0 C2.36328125 -0.140625 2.36328125 -0.140625 5 0 C8.567645 3.66957771 10.87946235 6.9910391 11.1875 12.125 C11 15 11 15 10 17 C7.8125 17.4375 7.8125 17.4375 5 17 C1.81162885 14.33727923 0.16632344 11.43246064 -0.3125 7.30859375 C-0.3125 4.85199581 -0.22146081 2.44591159 0 0 Z " fill="#E2212E" transform="translate(131,69)"/>
<path d="M0 0 C6.01696699 0.23595949 6.01696699 0.23595949 8.578125 2.2265625 C10.79871711 4.71515711 11.95048846 6.54449381 12.3125 9.875 C12.1578125 10.926875 12.1578125 10.926875 12 12 C9.8125 12.75 9.8125 12.75 7 13 C3.60966459 10.87118474 1.27910149 8.83730448 0 5 C-0.125 2.25 -0.125 2.25 0 0 Z " fill="#D1DDEE" transform="translate(141,151)"/>
<path d="M0 0 C0.763125 0.78375 1.52625 1.5675 2.3125 2.375 C4.90891805 5.07257717 4.90891805 5.07257717 8 7 C2.17025909 11.8365258 -2.10575758 13.66309679 -9.71484375 13.40625 C-12 13 -12 13 -14 11 C-9.05 10.67 -4.1 10.34 1 10 C0.67 6.7 0.34 3.4 0 0 Z " fill="#323436" transform="translate(163,210)"/>
<path d="M0 0 C7.69733104 1.89410764 15.36174657 3.8799336 23 6 C20.48361968 7.65174727 19.3579721 8.05721255 16.3359375 7.57421875 C14.87027344 7.13529297 14.87027344 7.13529297 13.375 6.6875 C7.90074386 5.16762053 2.66068656 4.36318564 -3 4 C-2.01 2.68 -1.02 1.36 0 0 Z " fill="#291416" transform="translate(60,79)"/>
<path d="M0 0 C2.66753731 0.36793618 3.81998328 0.81998328 5.75 2.75 C7.21079991 5.37943983 7.24687966 7.0374441 7 10 C3.64084842 8.56036361 1.28375062 6.87583411 -1 4 C-0.75 1.75 -0.75 1.75 0 0 Z " fill="#D2DDEE" transform="translate(218,183)"/>
<path d="M0 0 C4.00999606 1.52977276 5.82653233 4.01531782 8.3125 7.4375 C9.03050781 8.40558594 9.74851562 9.37367188 10.48828125 10.37109375 C11.23658203 11.67240234 11.23658203 11.67240234 12 13 C11.67 13.99 11.34 14.98 11 16 C9.34908416 13.89965153 7.70418762 11.79504167 6.0625 9.6875 C5.59392578 9.09259766 5.12535156 8.49769531 4.64257812 7.88476562 C2.61444041 5.27299116 1.05369199 3.16107597 0 0 Z " fill="#121213" transform="translate(17,145)"/>
<path d="M0 0 C1.9375 0.625 1.9375 0.625 4 2 C4.75 5.125 4.75 5.125 5 8 C4.01 8 3.02 8 2 8 C0 6 0 6 -0.125 2.875 C-0.08375 1.92625 -0.0425 0.9775 0 0 Z " fill="#E3212F" transform="translate(117,60)"/>
<path d="M0 0 C2.4375 0.6875 2.4375 0.6875 5 2 C5.8125 4.625 5.8125 4.625 6 7 C1.125 6.125 1.125 6.125 0 5 C-0.04063832 3.33382885 -0.042721 1.66611905 0 0 Z " fill="#D2DDEE" transform="translate(140,135)"/>
<path d="M0 0 C2.35171131 0.59861742 4.6859378 1.26924352 7 2 C7.33 2.66 7.66 3.32 8 4 C4.37 4 0.74 4 -3 4 C-2.01 2.68 -1.02 1.36 0 0 Z " fill="#270709" transform="translate(60,79)"/>
<path d="M0 0 C4.51478398 0.53115106 7.34666857 2.36620292 11 5 C10.67 5.66 10.34 6.32 10 7 C8.33073546 6.02526874 6.66464358 5.04510211 5 4.0625 C4.071875 3.51722656 3.14375 2.97195312 2.1875 2.41015625 C1.465625 1.94480469 0.74375 1.47945312 0 1 C0 0.67 0 0.34 0 0 Z " fill="#0E0F0F" transform="translate(59,187)"/>
</svg>
