<svg xmlns="http://www.w3.org/2000/svg" width="256" height="256"><path fill="#f4dad5" d="M126.465 12.313c2.361.64 4.541.972 6.972 1.187 3.563.5 3.563.5 5.5 1.625 1.606 2.833 1.76 5.672 2.063 8.875l3.043-.11c4.053.113 7.367.789 11.27 1.86l1.972.536a85.6 85.6 0 0 1 13.567 5.077c2.738.812 4.432.44 7.148-.363l2.438-1.562c3.184-1.787 4.945-1.776 8.562-1.438 2.422 1.39 2.422 1.39 4.75 3.25 4.237 3.184 8.207 5.147 13.219 6.828C209 39 209 39 211 42c.714 6.066-1.035 9.903-4 15l1.25 1.293C216.018 66.703 229 83.689 229 96l1.95.113c18.844 1.371 18.844 1.371 23.704 5.185 2.484 3.141 1.666 6.882 1.346 10.702-.395 2.91-.973 5.755-1.605 8.622l-.517 2.452c-.561 2.647-1.135 5.29-1.71 7.934l-1.19 5.56q-1.242 5.81-2.504 11.615c-1.073 4.948-2.132 9.9-3.187 14.852q-1.225 5.736-2.463 11.468-.59 2.737-1.173 5.476-.82 3.83-1.658 7.658l-.477 2.261c-1.03 4.659-2.377 8.824-4.516 13.102-5.201 3.122-10.023 1.504-15.562.125-7.15-2.008-7.15-2.008-14.438-2.125-1.876 1.42-1.876 1.42-3.5 3.438-6.779 7.241-15.68 13.054-24.5 17.562h-2l-.25 3.063c-.502 3.67-1.894 6.081-3.848 9.175-1.145 1.985-1.145 1.985-1.34 5.45C169 243 169 243 166.876 245.5c-3.81 1.988-5.746 1.514-9.875.5l-2.812-1c-3.65-1.145-7.016-1.375-10.82-1.559-2.953-.55-4.253-1.304-6.368-3.441-1.25-3.187-1.25-3.187-2-6l-1.997-.136c-23.035-1.615-23.035-1.615-32.612-4.376-2.593-.53-3.905-.283-6.391.512-6.746.787-6.746.787-9.91-1.2a266 266 0 0 1-3.871-3.218c-3.312-2.361-6.917-3.328-10.801-4.43-3.159-1.505-3.97-3.003-5.418-6.152l-.46-2.598c-.684-3.042-1.762-3.905-4.165-5.84l-2.164-1.78L55 203a806 806 0 0 1-4-3.437L48 197l-2.562 1.563c-4.123 1.723-6.18 1.722-10.438.437-2.242-3.21-3.8-6.627-5.325-10.223l-1.316-3.09-1.402-3.32-1.477-3.474q-1.944-4.58-3.882-9.161-1.93-4.557-3.866-9.11C10.1 142.638 10.1 142.638 6.513 134.055l-1.131-2.705a1904 1904 0 0 1-2.051-4.926C2.073 122.96 2.073 122.96 0 120c-.474-7.349-.474-7.349 1.172-9.61 2.316-1.761 4.619-2.703 7.328-3.765 5.19-2.078 10.263-4.325 15.32-6.707C26 99 26 99 28 99l.34-1.809c5.344-23.507 22.978-44.86 42.925-57.792C79.923 34.027 88.945 29.81 98.75 27c4.541-1.41 4.541-1.41 7.375-5.312L107 18c1.647-6.697 1.647-6.697 3.75-8.5 5.372-1.194 10.623 1.215 15.715 2.813"/><path fill="#f47760" d="m116 16 3.375 1.438c4.802 1.824 9.528 2.26 14.625 2.562l.207 1.828c.788 3.154 1.557 4.769 3.793 7.172 3.625 1.457 7.454 1.977 11.293 2.601 6.551 1.071 12.302 2.87 18.366 5.558 4.516 1.897 7.595 1.972 12.341.841l3.188-1.687L186 35c1.797.7 1.797.7 4 2l2.91 1.656 3.153 1.844 3.16 1.844A136 136 0 0 1 205 46l-.875 1.54L203 49.624l-1.125 2.04c-1.13 3.017-1.27 5.133-.875 8.335 1.63 2.35 1.63 2.35 3.938 4.438C213.338 73.249 224 88.355 224 101a538 538 0 0 1-25.187-4.312l-6.88-1.336-3.5-.683a7420 7420 0 0 0-16.058-3.106l-3.15-.608a3155 3155 0 0 0-18.87-3.568l-2.216-.413a6454 6454 0 0 0-10.82-2.007l-3.94-.733-3.514-.649C127 83 127 83 124 82l-.109 1.89c-.59 8.117-2.212 15.877-4.016 23.798l-.935 4.185q-.971 4.356-1.95 8.71c-1.458 6.493-2.875 12.995-4.294 19.497q-.647 2.967-1.298 5.934A4791 4791 0 0 0 106 171l1.717.113c7.406.603 14.44 2.173 21.658 3.887 15.41 3.592 30.898 6.765 46.408 9.89 9.44 1.906 18.852 3.86 28.217 6.11-7.61 13.153-23.168 22.446-37 28h-3l2.063 1.688C168 223 168 223 167.938 225.375c-1.077 3.015-2.507 5.763-3.938 8.625-.7 2.736-.7 2.736-1 5l-2.75-.937c-5.295-1.54-10.772-1.721-16.25-2.063l-.875-3.312c-.944-3.728-.944-3.728-3.125-6.688-2.335-.444-2.335-.444-5.066-.371l-3.138-.046-3.358-.02c-8.752-.175-16.804-.83-25.221-3.28-3.844-1.101-6.36-1.32-10.217-.283-4.35 0-4.995-.412-8.312-2.875-3.888-2.73-7.062-4.14-11.688-5.125l2-6-1.668-.742C65.908 203.254 57.421 196.29 53 189c1-3 1-3 4.044-4.638a282 282 0 0 1 4.07-1.76l2.196-.96c2.33-1.016 4.666-2.017 7.002-3.017q2.3-.999 4.596-2l4.518-1.96 2.234-.972c3.325-1.435 6.646-2.808 10.037-4.086l3.256-1.232 2.806-1c3.017-1.851 3.585-3.69 4.679-7a185 185 0 0 0 1.13-5.297c.672-3.23 1.562-6.398 2.426-9.581A782 782 0 0 0 110 130l-4-2h5l.396-1.69c2.161-9.214 4.323-18.422 6.791-27.56l.942-3.602C120 92 120 92 120.902 89.54c1.804-5.4.583-8.43-1.777-13.602A237 237 0 0 0 116 70l-3 2v-4l-2.414 1.139c-15.738 7.419-31.5 14.779-47.336 21.986l-2.065.942C52.853 95.866 44.481 99.54 36 103c.407-7.186 2.774-12.617 6-19l1.383-2.797C54.975 58.78 75.37 42.303 99 34c3.007-.618 5.902-1.09 8.96-1.32 2.298-.5 2.298-.5 3.231-3.047L112 27l1.563-3c1.314-2.744 1.997-5.01 2.437-8"/><path fill="#fee6df" d="M124 82c22.792 3.268 45.38 7.954 67.973 12.36l3.471.673q3.247.63 6.49 1.268a320 320 0 0 0 19.553 3.147L224 100l1 2 2.91-.125c4.667 0 9.008 1.047 13.528 2.125l2.505.578c2.02.467 4.04.944 6.057 1.422-.6 6.03-1.47 11.884-2.707 17.813l-.505 2.462q-.528 2.567-1.062 5.133-.795 3.836-1.58 7.674a883 883 0 0 1-6.26 28.182A479 479 0 0 0 232 196c-4.696 1.422-8.687.474-13.34-.59l-2.49-.543c-2.705-.593-5.406-1.199-8.107-1.804l-5.681-1.248q-4.374-.957-8.747-1.921c-8.644-1.906-17.304-3.726-25.97-5.53a2122 2122 0 0 1-41.699-9.107c-6.638-1.52-13.278-2.971-19.966-4.257.724-8.359 2.412-16.488 4.125-24.687l.464-2.241c2.489-12.028 5.21-23.99 8.05-35.938C120.692 99.46 122.526 90.79 124 82"/><path fill="#f37760" d="M122 86h1c.123 4.745-.24 8.933-1.285 13.559l-.849 3.81-.928 4.069-.949 4.24q-.987 4.42-1.984 8.84c-1.465 6.516-2.887 13.041-4.31 19.566q-.647 2.965-1.297 5.93A4785 4785 0 0 0 106 171l1.717.113c7.406.603 14.44 2.173 21.658 3.887 15.41 3.592 30.898 6.765 46.408 9.89 9.44 1.906 18.852 3.86 28.217 6.11-7.61 13.153-23.168 22.446-37 28h-3l2.063 1.688C168 223 168 223 167.938 225.375c-1.077 3.015-2.507 5.763-3.938 8.625-.7 2.736-.7 2.736-1 5l-2.75-.937c-5.295-1.54-10.772-1.721-16.25-2.063l-.875-3.312c-.944-3.728-.944-3.728-3.125-6.688-2.335-.444-2.335-.444-5.066-.371l-3.138-.046-3.358-.02c-8.752-.175-16.804-.83-25.221-3.28-3.844-1.101-6.36-1.32-10.217-.283-4.35 0-4.995-.412-8.312-2.875-3.888-2.73-7.062-4.14-11.688-5.125l2-6-1.668-.742C65.908 203.254 57.421 196.29 53 189c1-3 1-3 4.044-4.638a282 282 0 0 1 4.07-1.76c1.086-.476 1.086-.476 2.196-.96 2.33-1.016 4.666-2.017 7.002-3.017q2.3-.999 4.596-2l4.518-1.96 2.234-.972c3.325-1.435 6.646-2.808 10.037-4.086l3.256-1.232 2.806-1c3.017-1.851 3.585-3.69 4.679-7a185 185 0 0 0 1.13-5.297c.672-3.23 1.562-6.398 2.426-9.581A782 782 0 0 0 110 130l-4-2h5l.396-1.69c6.96-29.667 6.96-29.667 10.604-40.31"/><path fill="#fdfcfc" d="M126.465 12.313c2.361.64 4.541.972 6.972 1.187 3.563.5 3.563.5 5.5 1.625 1.606 2.833 1.76 5.672 2.063 8.875l3.043-.11c4.053.113 7.367.789 11.27 1.86l1.972.536a85.6 85.6 0 0 1 13.567 5.077c2.738.812 4.432.44 7.148-.363l2.438-1.562c3.184-1.787 4.945-1.776 8.562-1.438 2.422 1.39 2.422 1.39 4.75 3.25 4.237 3.184 8.207 5.147 13.219 6.828C209 39 209 39 211 42c.714 6.066-1.035 9.903-4 15l1.25 1.293C216.018 66.703 229 83.689 229 96l1.95.113c18.844 1.371 18.844 1.371 23.704 5.185 2.484 3.141 1.666 6.882 1.346 10.702-.395 2.91-.973 5.755-1.605 8.622l-.517 2.452c-.561 2.647-1.135 5.29-1.71 7.934l-1.19 5.56q-1.242 5.81-2.504 11.615c-1.073 4.948-2.132 9.9-3.187 14.852q-1.225 5.736-2.463 11.468-.59 2.737-1.173 5.476-.82 3.83-1.658 7.658l-.477 2.261c-1.03 4.659-2.377 8.824-4.516 13.102-5.201 3.122-10.023 1.504-15.562.125-7.15-2.008-7.15-2.008-14.438-2.125-1.876 1.42-1.876 1.42-3.5 3.438-6.779 7.241-15.68 13.054-24.5 17.562h-2l-.25 3.063c-.502 3.67-1.894 6.081-3.848 9.175-1.145 1.985-1.145 1.985-1.34 5.45C169 243 169 243 166.876 245.5c-3.81 1.988-5.746 1.514-9.875.5l-2.812-1c-3.65-1.145-7.016-1.375-10.82-1.559-2.953-.55-4.253-1.304-6.368-3.441-1.25-3.187-1.25-3.187-2-6l-1.997-.136c-23.035-1.615-23.035-1.615-32.612-4.376-2.593-.53-3.905-.283-6.391.512-6.746.787-6.746.787-9.91-1.2a266 266 0 0 1-3.871-3.218c-3.312-2.361-6.917-3.328-10.801-4.43-3.159-1.505-3.97-3.003-5.418-6.152l-.46-2.598c-.684-3.042-1.762-3.905-4.165-5.84l-2.164-1.78L55 203a806 806 0 0 1-4-3.437L48 197l-2.562 1.563c-4.123 1.723-6.18 1.722-10.438.437-2.242-3.21-3.8-6.627-5.325-10.223l-1.316-3.09-1.402-3.32-1.477-3.474q-1.944-4.58-3.882-9.161-1.93-4.557-3.866-9.11C10.1 142.638 10.1 142.638 6.513 134.055l-1.131-2.705a1904 1904 0 0 1-2.051-4.926C2.073 122.96 2.073 122.96 0 120c-.474-7.349-.474-7.349 1.172-9.61 2.316-1.761 4.619-2.703 7.328-3.765 5.19-2.078 10.263-4.325 15.32-6.707C26 99 26 99 28 99l.34-1.809c5.344-23.507 22.978-44.86 42.925-57.792C79.923 34.027 88.945 29.81 98.75 27c4.541-1.41 4.541-1.41 7.375-5.312L107 18c1.647-6.697 1.647-6.697 3.75-8.5 5.372-1.194 10.623 1.215 15.715 2.813M116 16c-.182.592-.364 1.183-.55 1.793-1.416 4.448-2.93 8.247-5.45 12.207v2l-1.844.191C89.716 34.768 74.196 45.386 61 58l-2.082 1.855C47.866 70.08 38.534 86.4 35 101v3l-3.562 1.063c-5.301 1.75-10.27 4.105-15.296 6.511-2.694 1.29-5.304 2.48-8.142 3.426 2.066 6.617 4.591 12.934 7.387 19.273l1.275 2.92q2.008 4.593 4.026 9.182c10.228 23.344 10.228 23.344 14.894 34.352l1.01 2.368.923 2.189.8 1.893c.72 1.918 1.225 3.828 1.685 5.823h2v-2q2.498-.513 5-1l2.918-.809C53 189 53 189 55.168 190.773l2.02 2.602C61.867 199.009 67.014 203.764 73 208h2l-2 6c.724.23 1.449.461 2.195.7 5.946 2.005 10.296 3.913 14.805 8.3l1.875-1.125c5.223-1.462 10.06.377 15.231 1.64 8.057 1.813 16.003 1.811 24.232 1.788l3.252.06 2.933.01c2.477.627 2.477.627 4.272 2.991 1.178 2.578 1.805 4.838 2.205 7.636l2.379.148c5.811.414 11.1.97 16.621 2.852l.586-1.828.789-2.422.773-2.39c.852-2.36.852-2.36 1.954-4.47 1.113-1.993 1.113-1.993.898-4.89-1.938-2.188-1.938-2.188-4-4l2.047-.273c3.709-.913 6.869-2.544 10.203-4.352l2.018-1.09c5.35-2.953 10.122-6.264 14.732-10.285l2.766-2.367c3.706-3.222 3.706-3.222 7.234-6.633v-2l2.124.475c3.185.706 6.374 1.397 9.564 2.088l3.341.748 3.233.693c.979.215 1.958.43 2.967.65 2.878.36 4.982.078 7.771-.654l.623-3.088c4.062-20.097 8.241-40.152 12.834-60.135Q246.23 129.39 247 126l.865-3.765.834-3.731.757-3.346c.538-3.12.643-5.998.544-9.158q-4.278-1.013-8.562-2l-2.424-.578c-4.797-1.097-9.094-1.633-14.014-1.422l-.375-1.625c-3.64-13.834-11.203-28.75-21.895-38.43C201 60 201 60 200.723 57.852l.34-2.227.285-2.21c.821-3.04 2.178-5.642 3.652-8.415l-2.45-1.172-3.238-1.578-3.199-1.547C193.1 39.055 190.607 37.225 188 35l-2.187.875L183 37l-2.375 1.188c-6.099 1.887-12.366-.991-18.125-3.063-5.964-2.116-11.617-3.555-17.875-4.437-3.703-.641-3.703-.641-6.625-1.688-1.48-2.298-2.067-4.354-2.793-6.977-1.097-2.341-1.097-2.341-4.133-2.984a112 112 0 0 0-6.883-.723c-3.11-.308-5.37-1.014-8.191-2.316"/><path fill="#fee6df" d="M113 67c1 2 1 2 .504 3.78l-.884 2.181-.996 2.488-1.112 2.711-1.135 2.817a2750 2750 0 0 1-3.69 9.085l-2.497 6.183q-2.462 6.096-4.934 12.187a3834 3834 0 0 0-8.381 20.88L86 139c-6.7-1.391-13.156-3.194-19.676-5.266l-3.046-.957a16019 16019 0 0 0-25.222-7.95C28.398 121.794 18.706 118.878 9 116c2.773-2.208 5.465-3.81 8.695-5.262l2.668-1.2 2.762-1.225 2.785-1.26C32.737 104 32.737 104 35 104l1-3h3a132 132 0 0 0 6.578-2.867l2.023-.93c2.219-1.02 4.434-2.05 6.649-3.078l4.636-2.137q4.942-2.277 9.88-4.565 8.111-3.755 16.23-7.493Q99.002 73.473 113 67M9 117c11.955 2.669 23.574 6.52 35.25 10.188l6.34 1.982Q58.296 131.58 66 134c-.569 4.96-2.186 9.017-4.352 13.46l-1.021 2.147a1514 1514 0 0 1-3.252 6.768q-2.118 4.416-4.227 8.836l-1.05 2.191c-2.782 5.837-5.382 11.745-7.86 17.718-2.023 4.772-2.023 4.772-4.238 5.88q-4.293-9.873-8.582-19.747l-3.988-9.176c-5.093-11.713-10.185-23.427-15.18-35.182l-1.016-2.373C9 119.234 9 119.234 9 117"/><path fill="#2a565b" d="M103.07 189.645c2.04 1.433 3.575 2.942 5.243 4.792 3.315 3.446 6.194 5.004 10.687 6.563l-1.437 3.438c-1.698 4.475-2.244 8.81-2.563 13.562l-2.527-.14c-6.687-.215-11.661-.002-17.57 3.265C93 222 93 222 89 222c-2.113-1.242-2.113-1.242-4.312-2.875-3.888-2.73-7.062-4.14-11.688-5.125l.875-2.125C75.951 206.569 77.319 201.677 78 196l2.492-.262c6.993-.88 12.357-2.208 18.387-5.91C101 189 101 189 103.07 189.645"/><path fill="#29565b" d="M186 35c1.828.664 1.828.664 4 2l2.91 1.656 3.153 1.844 3.16 1.844A136 136 0 0 1 205 46l-.84 1.504c-2.425 4.549-3.63 8.3-4.16 13.496-1.787 1.787-4.576 1.512-7 1.813-5.257.75-9.441 1.95-14.098 4.48-2.437.906-3.523.72-5.902-.293-1.422-1.488-1.422-1.488-2.75-3.312-3.234-4.03-6.539-5.657-11.25-7.688 1.875-5.75 1.875-5.75 3-8 .225-1.537.408-3.08.563-4.625l.253-2.477L163 39l3 .14c8.637.457 8.637.457 16.688-2.265z"/><path fill="#ed755f" d="m115 182 1 2 3 1-1-3c3.653 1.25 4.78 1.671 7 5 .309 4.248.33 7.359-2 11l3.188-.75c3.812-.25 3.812-.25 6.687 1.5C135 201 135 201 136 204h-3v4h3c-.51 4.39-1.522 7.337-4 11l2.938 1.875C138 223 138 223 139 225c-14.062.462-27.567.683-41-4l-2-2c6.056-2.55 12.739-3.087 19-1l-.105-1.723c-.197-5.614.55-9.274 3.105-14.277l-1.68-1.023-2.195-1.352c-.72-.44-1.439-.882-2.18-1.336C110 197 110 197 108 195c-.802-6.987-.802-6.987 2.375-11 2.625-2 2.625-2 4.625-2"/><path fill="#2a565c" d="m137 205 2.852.219 3.773.281 3.727.281c3.228.194 6.415.259 9.648.219l1.137 2.45c3.05 6.84 3.05 6.84 7.8 12.488L168 223c0 4.137-2.18 7.36-4 11-.7 2.736-.7 2.736-1 5l-2.75-.937c-5.295-1.54-10.772-1.721-16.25-2.063l-.625-3.062c-1.71-5.937-5.473-9.846-10.75-12.875L130 219l2.375-3.062c2.567-3.564 3.668-6.674 4.625-10.938"/><path fill="#2a565b" d="m116 16 3.375 1.438c3.453 1.37 6.058 1.589 9.75 1.5 2.55.164 2.55.164 4.875 1.062 2.01 2.899 3.282 5.732 4.55 9.02 1.663 3.417 3.31 4.891 6.45 6.98l3 1v2l-2.312 2.188c-3.084 3.226-4.149 5.68-5.688 9.812l-2.57-.496c-3.495-.513-6.776-.603-10.305-.566l-3.492.027L121 50l-.883-2.344C117.497 40.997 114.66 35.446 110 30l1.059-1.793 1.379-2.395 1.37-2.355c1.216-2.506 1.768-4.715 2.192-7.457"/><path fill="#f9523f" d="M210 110a334 334 0 0 1 16.875 2.438l2.297.369c5.595.96 5.595.96 7.828 3.193-.232 2.522-.232 2.522-.898 5.664l-.704 3.398-.773 3.563-.75 3.586q-.923 4.397-1.875 8.789c-6.053.266-11.53-.74-17.437-2l-2.795-.578Q208.382 137.72 205 137c1.286-9.105 2.983-18.03 5-27"/><path fill="#ee745e" d="M139 30c6.544.312 12.433 1.529 18.688 3.375l2.157.634c4.536 1.38 8.829 3.052 13.155 4.991v1c-6.625.125-6.625.125-10-1l.105 1.758c.182 5.251-.271 8.637-3.105 13.242h-2l-.875 1.938C156 58 156 58 154 59c-3.67.272-6.16.453-9.437-1.312C143 56 143 56 143 53h2l-2-4h-1c-.403-3.523-.134-4.8 1.875-7.812L146 39h2v-2l-1.687-.25c-3.05-.989-4.965-2.598-7.313-4.75z"/><path fill="#ffece6" d="M224 103c9.08-.449 17.194.812 26 3-.6 6.03-1.47 11.884-2.707 17.813l-.505 2.462q-.528 2.567-1.062 5.133-.795 3.835-1.58 7.674a883 883 0 0 1-6.26 28.182A479 479 0 0 0 232 196c-5.793 1.481-10.477.085-16.187-1.25l-3.061-.66-2.92-.668-2.665-.607C205 192 205 192 203 189c8.89.647 17.372 2.87 26 5l.277-3.424c.86-7.691 2.658-15.233 4.286-22.79l1.064-4.992q1.11-5.204 2.23-10.407 1.433-6.674 2.854-13.353 1.096-5.14 2.198-10.281.528-2.463 1.053-4.927.733-3.43 1.472-6.857l.437-2.06c1.015-4.68 1.015-4.68 2.129-6.909l-3.625-.312c-6.556-.714-12.95-2.235-19.375-3.688z"/><path fill="#6c3d50" d="M122 86h1c.123 4.745-.24 8.933-1.285 13.559l-.849 3.813-.928 4.066q-.475 2.11-.947 4.222-.735 3.291-1.476 6.581a1713 1713 0 0 0-3.468 15.77l-.945 4.376q-.682 3.154-1.358 6.31-.628 2.922-1.264 5.842l-.721 3.35c-.764 3.132-1.562 6.116-2.759 9.111-2.625 1.375-2.625 1.375-5 2 .65-6.797 2.222-13.167 4-19.75l1.625-6.11.727-2.702q.853-3.21 1.648-6.438l-4-2h5l.396-1.69c6.96-29.667 6.96-29.667 10.604-40.31"/><path fill="#fecf80" d="M221.063 118.438c3.94.562 5.202.845 7.937 3.562.61 2.48.61 2.48.75 5.188l.172 2.73L230 132h-2l-.375 1.938L227 136c-3.1 1.55-5.579 1.29-9 1-2.753-1.796-4.526-3.053-6-6-.559-4.098-.137-5.769 2-9.375 3.482-3.047 3.482-3.047 7.063-3.187"/><path fill="#f74b3b" d="M138.125 53.332c3.217 1.146 4.37 2.66 5.875 5.668 0 3.937-.4 6.156-2.687 9.375-2.779 1.952-4.962 2.32-8.313 2.625l3-1-1-2-3-1v3c-2.33-.932-3.759-1.69-5.312-3.687-1.03-3.466-.618-5.841.312-9.313 3.343-4.052 6.18-4.614 11.125-3.668"/><path fill="#f84b3a" d="M165 58c2.438 1 2.438 1 4 3 1.798 6.452 1.798 6.452.043 9.855C167.75 72.5 167.75 72.5 165 75h-3v-3h-4l1 3c-3.364-1.392-5.22-2.794-7-6-.685-4.027-.35-5.497 2-8.875 4.13-2.925 6.01-2.759 11-2.125m-50 124 1 2 3 1-1-3c3.653 1.25 4.78 1.671 7 5 .56 4.324.479 6.297-2 9.938-4.15 2.853-6.03 2.772-11 2.062-2.5-1.5-2.5-1.5-4-4-.455-3.185-.71-4.985 0-8 3.958-5 3.958-5 7-5m17 16c2.438 2.563 2.438 2.563 4 5l-3 1v4h3c-1.392 3.364-2.794 5.22-6 7-2.937.5-2.937.5-6 0-2.875-2.062-2.875-2.062-5-5-.692-4.303-.516-6.21 1.875-9.875 3.755-3.755 6.029-3.355 11.125-2.125m9-12 1 2 3 1v-3c2.468 1.152 4.048 2.048 6 4 .56 4.878.745 6.916-2.062 11-3.716 2.53-5.526 2.788-9.938 2-3.692-2.592-4.829-4.041-5.625-8.5.74-4.14 2.851-8.5 7.625-8.5m13-144c3.692 2.592 4.829 4.041 5.625 8.5-.796 4.459-1.933 5.908-5.625 8.5-3.831.538-6.019.528-9.437-1.312C143 56 143 56 143 53h2l-.937-1.812C143 49 143 49 142 46c3.95-3.83 6.51-4.882 12-4"/><path fill="#eb755f" d="M54 68c1.875.313 1.875.313 4 1 2.68 4.019 2.156 6.242 2 11h-2l-.312 1.875C57 84 57 84 54 86c-4.248.309-7.359.33-11-2 1.319-4.617 3-8.23 6-12 2.75-1.375 2.75-1.375 5-2z"/><path fill="#e0c5c2" d="M163.09 124.867C165 125 165 125 167 126c.448 8.813.448 8.813-3 13-3.012 1.87-5.232 2.228-8.75 2.125l-2.422-.055L151 141v-2h4q.755-2.186 1.5-4.375l.844-2.46c.753-2.107.753-2.107.656-4.165l-3 2c1.246-5.518 2.39-5.112 8.09-5.133"/><path fill="#fdd3c9" d="M89 45h1l2 8 3-3 2 1-3 4h7v2h-8l2 1.875C97 61 97 61 97 63l-4-2-1 9h-1l-2-10-3 4h-2l2-4-6-1v-2l7-1-4-5 5 2z"/><path fill="#fef2f0" d="m218 107 1 2 6-1 1 3 7-1 1 2 7-1v4l-2 1c-.652 2.025-.652 2.025-1 4h2v3l-4 1v-8c-5.158-1.855-10.308-2.902-15.697-3.855-3.362-.63-5.41-1.216-8.303-3.145 3-2 3-2 6-2"/><path fill="#a8878c" d="m160 142 2 2-1.187 2.188c-1.172 2.875-1.172 2.875.562 5.625L163 154l2.875-2.5c2.875-2.5 2.875-2.5 5.125-2.5l-1 6 2-1-1 3-2.082.148-2.73.227c-.894.07-1.787.14-2.708.21-2.724.281-2.724.281-5.48 2.415h-3v-3l5-1c-.342-2.97-.342-2.97-1-6l-2-1c.75-4.75.75-4.75 3-7"/><path fill="#d0b3b3" d="m181 129-1 8-3.75.375c-3.126.382-5.539.93-8.25 2.625-.687-2.25-.687-2.25-1-5 1.25-2.312 1.25-2.312 3-4h3l1 2 2.375-2c2.625-2 2.625-2 4.625-2"/><path fill="#fee4d3" d="M222 122c2 3 2 3 3 5l4-4 1 9h-2l-1 3c-2-3-2-3-2-5l-5 4c-1.354-7.385-1.354-7.385.438-10.5z"/><path fill="#d5443c" d="m123 198 3 1-1 1c-.63 5.755-.09 9.98 3 15-3.018-.335-4.809-.866-7.312-2.625-2.37-3.334-2.25-5.367-1.688-9.375 2-2.937 2-2.937 4-5"/><path fill="#d4443d" d="M165 58c2.438 1.125 2.438 1.125 4 3 .75 3.188.75 3.188 1 6l-2.105-1.488c-3.37-1.76-5.438-1.824-9.208-1.7l-3.238.083L153 64c.313-1.875.313-1.875 1-4 3.706-2.47 6.704-2.546 11-2"/><path fill="#d5443d" d="m134 195 2.563 1c4.911 1.429 9.536 1.568 14.437 0-1.25 3.653-1.671 4.78-5 7-3.375.438-3.375.438-7 0-2.937-2.312-2.937-2.312-5-5z"/><path fill="#d4443c" d="m108 191 1.684.988c2.652 1.159 4.498 1.247 7.379 1.2l2.597-.02c2.495-.082 2.495-.082 5.34-1.168-1.25 3.653-1.671 4.78-5 7-7.042.67-7.042.67-10.5-1.75C108 195 108 195 108 191"/><path fill="#b08f94" d="m189 142 1 2-1 2 2 1-3 1v6l-1.75-.625c-2.77-.462-3.896.196-6.25 1.625v-3h-2c-1.637 1.96-1.637 1.96-3 4l-1-2-2-1c1.563-2.437 1.563-2.437 4-5 3.75-.812 3.75-.812 7-1v4l1.375-2.5L186 146h2z"/><path fill="#805463" d="M122 86h1c.373 6.578-1.033 12.548-2.5 18.938l-.723 3.228q-.879 3.92-1.777 7.834l-3-1c.81-9.925 3.78-19.614 7-29"/><path fill="#d4433c" d="M151 42c2.932.317 4.59.632 6.813 2.625 1.696 3.392 1.713 5.63 1.187 9.375-2.5 2.938-2.5 2.938-5 5l-2-1 1-2a73 73 0 0 0 .188-4.875l.042-2.617c-.241-2.632-.9-4.248-2.23-6.508m-11 12c2.063 1.313 2.063 1.313 3 3-.312 2.188-.312 2.188-1 4l-1.5-1c-4.436-1.774-8.973-1.51-13.5 0 .352-2.548.868-3.847 2.563-5.812 3.608-1.759 6.633-1.244 10.437-.188"/><path fill="#fec97c" d="M212 125h1l1 7 6-2 1 3 2-3h2l2 6c-3.1 1.55-5.579 1.29-9 1-2.753-1.796-4.526-3.053-6-6-.04-2-.043-4 0-6"/><path fill="#f8ddd7" d="M112 139h2c-.65 7.171-1.981 14.042-3.562 21.063l-.71 3.2q-.857 3.87-1.728 7.737h-2c.65-7.171 1.981-14.042 3.563-21.062l.708-3.202q.859-3.87 1.729-7.736"/><path fill="#fef1ed" d="M126 84q2.156-.034 4.313-.055l2.425-.03c3.019.114 5.442 1.028 8.262 2.085 2.987.73 5.99 1.371 9 2v1c-7.882-.516-15.345-2.092-23-4l-.25 3.438c-.824 7.65-2.91 15.107-4.75 22.562-1.176-3.475-.812-5.875-.004-9.422l.693-3.105.749-3.223.736-3.27q.901-3.993 1.826-7.98"/><path fill="#3f5a5c" d="m171 197 3 1c1.354 6.4 1.354 6.4-.437 9.438L172 209l-4-2c.75-6.625.75-6.625 3-10"/><path fill="#39595c" d="m53.688 80.375 2.449.336L58 81c-1.75 3.875-1.75 3.875-4 5-6.533.233-6.533.233-9-1 1.63-4.889 4.013-5.303 8.688-4.625"/><path fill="#fcc8bd" d="M190 71h1v5l7 1v1h-5l-1 7h-2l-.75-2.437c-.972-2.734-.972-2.734-3.375-3.376L184 79v-2l3-1-2-1v-2l4 2z"/><path fill="#30585c" d="M178.813 193.625c3.61.013 3.961.149 6.687 2.875l1.5 2.5c-2.889 1.444-4.796 1.377-8 1-2.875-2.5-2.875-2.5-5-5 1-1 1-1 4.813-1.375"/><path fill="#2d585c" d="M54 68c1.875.313 1.875.313 4 1 2.29 3.435 2.178 4.985 2 9h-4c-2-2-2-2-2.195-3.945z"/><path fill="#fff1ec" d="M116 130h1c-.526 8.088-2.172 15.757-4.062 23.625l-.854 3.621A2329 2329 0 0 1 110 166c-.984-3.104-.97-5.145-.223-8.3l.557-2.464c.2-.84.398-1.682.603-2.548 1.35-5.736 2.07-10.767 2.063-16.688l2-2c.643-2.069.643-2.069 1-4"/><path fill="#fadcd5" d="m124 82 7 1v1h-5l-.375 3.938c-.383 3.36-.853 6.679-1.5 10l-.43 2.214C123 102 123 102 120 104z"/><path fill="#fbc0b3" d="m88 176 4 2v2l4-1-1 3 1 2-4-1 1 4-4-1v-3l-4 1 1-3-1-2 4 1z"/><path fill="#fee0ca" d="M215 121h2c1.386 2.771 1.188 4.933 1 8l-2 3h-2c-1.507-3.013-1.178-5.683-1-9z"/><path fill="#fff2ee" d="M234 167h1l-1 8h2l-1 3-1-1-4 18-4-1h3l.371-3.902c.553-4.98 1.556-9.786 2.691-14.66l.565-2.479q.68-2.98 1.373-5.959"/><path fill="#f5dbd6" d="M117 116h2c-.446 4.687-.974 9.314-1.875 13.938l-.43 2.214C116 134 116 134 113 136q.717-3.876 1.438-7.75l.408-2.21c.629-3.375 1.297-6.716 2.154-10.04"/><path fill="#fef8f7" d="M206 127c.054 1.791.093 3.583.125 5.375l.07 3.023C206 138 206 138 204 140h-4c.375-1.937.375-1.937 1-4l2-1-1-6c3-2 3-2 4-2"/><path fill="#feefed" d="M235 125c1.5 1.313 1.5 1.313 3 3v3h-3l2 7-4 1c-.18-5.22.03-9.073 2-14"/><path fill="#fef8f7" d="M215 139a424 424 0 0 1 4.75.375l2.672.21c2.569.414 4.336 1.127 6.578 2.415-1.375 1.5-1.375 1.5-3 3h-2l-1-3-7 1z"/><path fill="#c4a6a7" d="m171 149-1 6 2-1-1 3h-6c.313-2.875.313-2.875 1-6 3-2 3-2 5-2"/><path fill="#fddbd2" d="M150 76c2.125.375 2.125.375 4 1v5l-5 1c-.625-2.375-.625-2.375-1-5z"/><path fill="#fef0ec" d="M177 94c5.817-.207 10.502-.106 16 2 2.987.73 5.99 1.371 9 2v1c-8.496-.58-16.689-2.238-25-4zm-26-5c5.817-.207 10.502-.106 16 2 2.987.73 5.99 1.371 9 2v1c-8.496-.58-16.689-2.238-25-4z"/><path fill="#fedfd6" d="M66.563 186.938 69 187v5l-5 1a88 88 0 0 1-1-5c1-1 1-1 3.563-1.062"/><path fill="#fee0d8" d="M207 85h5l1 5a88 88 0 0 1-5 1c-1-1-1-1-1.062-3.562z"/><path fill="#fee2db" d="m108 43 5 1-1 5-5-1z"/><path fill="#e06a57" d="M122 197c0 3 0 3-2 6a75 75 0 0 0-1 5l-3 1 .5-2.312c.591-2.724.591-2.724.5-5.688l-3-2z"/><path fill="#fde3de" d="M169 190c2.063.438 2.063.438 4 1l-1 5-5-1c.875-3.875.875-3.875 2-5"/><path fill="#fee5e0" d="M61 79c2.063.438 2.063.438 4 1l-1 5-5-1c.875-3.875.875-3.875 2-5"/><path fill="#ba9a9d" d="m186 128 3 1v2h2v2h-2v2l-4 1 1-5-2 1z"/><path fill="#b7979a" d="M158.848 124.902 165 125l-1.812 1.75c-1.936 1.991-3.577 3.995-5.188 6.25l1-5-4 2c1.119-4.953 1.119-4.953 3.848-5.098"/><path fill="#fbbfb2" d="M190 71h1l1 6h-2v2h-6v-2l3-1-2-1v-2l4 2z"/><path fill="#a58388" d="m181 129-1 8-7 1v-3l1 2 4-4-2-2c3-2 3-2 5-2"/><path fill="#f89585" d="m143 48 2 1v4h-2l-1 3-3-2v-2h2v-2h2z"/><path fill="#dec3c0" d="M195 145h3c-.386 2.798-.801 3.82-2.937 5.75C193 152 193 152 191 152a56.5 56.5 0 0 1 4-7"/><path fill="#815665" d="m116 107 1 2h2l-1 7-3-1z"/><path fill="#fef9f9" d="m218 107 1 2 3 2c-6.625.25-6.625.25-10-2 3-2 3-2 6-2"/><path fill="#6e4052" d="M119 99h1c.125 7.75.125 7.75-1 10h-2q.212-2.22.438-4.437c.08-.824.162-1.648.246-2.497C118 100 118 100 119 99"/><path fill="#b2403e" d="m223 114 3 1v4h-5z"/><path fill="#fffdfd" d="M232 140c1.5 1.313 1.5 1.313 3 3v3h-4l-1-4h2z"/><path fill="#fee5de" d="m92 55-1 6-1-3h-7v-1c6.75-2 6.75-2 9-2"/><path fill="#fefcfc" d="m209 112-1 8c-3-3.75-3-3.75-3-6 3-2 3-2 4-2"/><path fill="#fffdfc" d="M207 105h3c.625 1.875.625 1.875 1 4l-2 2-2-2z"/><path fill="#e66956" d="m158 54 1 2c2.017 1.134 2.017 1.134 4 2l-8 2-1-2z"/></svg>