<svg xmlns="http://www.w3.org/2000/svg" width="256" height="256"><path fill="#e3945d" d="M161.695 25.934C170.623 33.374 178.45 44.245 180 56c1.232 15.717-.525 28.925-10 42a119 119 0 0 1-4 4l.813 1.625L168 106l1.625 3.125C171 112 171 112 171 114l1.594.715c3.16 1.688 6.01 3.75 8.906 5.847l1.849 1.337q1.892 1.371 3.782 2.747a537 537 0 0 0 5.385 3.838l3.234 2.328 2.922 2.083c2.543 2.3 3.44 3.82 4.328 7.105-.189 5.28-1.252 8.252-5 12-6.103 2.034-10.976.96-16.809-1.406l-1.853-.74a700 700 0 0 1-5.775-2.354q-1.975-.796-3.952-1.59c-3.209-1.29-6.411-2.596-9.611-3.91 1.487 12.815 3.048 25.616 4.824 38.395l.463 3.346c.624 4.504 1.25 9.008 1.887 13.51q.709 5.04 1.4 10.081l.436 3.021c2.395 17.62 2.395 17.62-.635 24.147-3.718 3.914-6.84 6.695-12.375 6.938-4.943-.283-8.455-1.93-12.012-5.403-2.779-4.242-3.547-8.484-4.55-13.41l-.64-2.955a507 507 0 0 1-2.677-13.31l-.39-2.066a460 460 0 0 1-.958-5.396c-.801-3.004-1.603-4.686-3.773-6.898-3-.667-3-.667-6 0-3.327 3.275-3.913 7.192-4.719 11.617l-.436 2.227a990 990 0 0 0-1.345 7.031q-.661 3.507-1.345 7.01-.425 2.174-.825 4.354c-1.357 6.952-3.373 11.74-9.33 15.761-3.73 1.244-7.126 1.522-11 1-4.807-2.404-7.733-5.118-10-10-.874-9.261.673-18.535 1.969-27.687l.605-4.427q.79-5.768 1.598-11.535c.862-6.18 1.71-12.361 2.558-18.543q.446-3.224.898-6.447l.546-3.947.484-3.47c.419-3.112.419-3.112.342-6.944-1.888-2.17-1.888-2.17-5-3-3.177.522-6.036 1.77-9 3-16.085 6.602-16.085 6.602-22.75 3.875-2.894-2.412-4.016-4.312-5.25-7.875 0-4.159.296-6.205 3.074-9.344 3.424-3.108 7.015-5.858 10.739-8.594l2.04-1.513q2.035-1.51 4.075-3.01a301 301 0 0 0 4.296-3.254l2.163-1.664 1.956-1.522C83 114 83 114 85 114l.813-3.312c1.064-3.305 1.534-4.638 4.187-6.688-1.466-3.178-3.285-5.823-5.375-8.625C76.124 83.403 74.945 71.278 76 57c2.37-13.722 9.846-24.814 21-33 20.546-12.706 44.976-12.213 64.695 1.934"/><path fill="#e4945d" d="M170 113c5.336 2.9 10.12 6.186 14.938 9.875l2.013 1.527q2.007 1.522 4.008 3.052a332 332 0 0 0 4.272 3.18l2.175 1.596 1.975 1.435c2.32 1.914 3.113 3.373 3.619 6.335-.189 5.28-1.252 8.252-5 12-6.103 2.034-10.976.96-16.809-1.406l-1.853-.74a700 700 0 0 1-5.775-2.354q-1.975-.796-3.952-1.59c-3.209-1.29-6.411-2.596-9.611-3.91 1.487 12.815 3.048 25.616 4.824 38.395l.463 3.346c.624 4.504 1.25 9.008 1.887 13.51q.709 5.04 1.4 10.081l.436 3.021c2.395 17.62 2.395 17.62-.635 24.147-3.718 3.914-6.84 6.695-12.375 6.938-4.943-.283-8.455-1.93-12.012-5.403-2.779-4.242-3.547-8.484-4.55-13.41l-.64-2.955a507 507 0 0 1-2.677-13.31l-.39-2.066a460 460 0 0 1-.958-5.396c-.801-3.004-1.603-4.686-3.773-6.898-3-.667-3-.667-6 0-3.327 3.275-3.913 7.192-4.719 11.617l-.436 2.227a990 990 0 0 0-1.345 7.031q-.661 3.507-1.345 7.01-.425 2.174-.825 4.354c-1.357 6.952-3.373 11.74-9.33 15.761-3.73 1.244-7.126 1.522-11 1-4.807-2.404-7.733-5.118-10-10-.869-9.256.658-18.536 1.934-27.687l.598-4.427q.621-4.6 1.258-9.197.813-5.887 1.608-11.775.764-5.644 1.536-11.289l.294-2.16q.413-3.026.832-6.05l.478-3.471c.372-2.371.824-4.633 1.462-6.944 6.75-1.125 6.75-1.125 9 0 2.371.23 4.747.411 7.125.563l3.883.253L119 149c.09-1.97.09-1.97.184-3.98l.254-5.208.119-2.619c.206-4.152.444-8.138 1.443-12.193l3.516-.148c15.913-.731 32.347-1.717 45.484-11.852"/><path fill="#18ab85" d="M98.367 104.227c1.863.547 3.71 1.149 5.543 1.789 18.226 5.806 38.013 3.163 55.89-2.563 2.49-.513 3.844-.377 6.2.547 2.752 2.91 4.18 5.118 5 9-15.336 11.36-31.561 12.369-50 12l-.076 1.772q-.176 3.99-.362 7.978l-.119 2.79-.127 2.694-.11 2.476c-.197 2.193-.609 4.174-1.206 6.29q-3.312.039-6.625.063l-3.727.035c-3.334-.09-6.379-.471-9.648-1.098l-3.062-.437C93 147 93 147 90.934 145.723c-4.782-1.178-8.452 1.18-12.809 3.152C67.371 153.688 67.371 153.688 61 153c-3.456-1.414-4.767-2.658-6.875-5.75-1.39-4.014-1.31-6.177-.125-10.25 3.79-4.282 8.228-7.57 12.813-10.937l2.04-1.514q2.035-1.51 4.075-3.01a301 301 0 0 0 4.296-3.254l2.163-1.664 1.956-1.522C83 114 83 114 85 114l.75-3.25c2.56-7.68 5.185-8.317 12.617-6.523"/><path fill="#e2955e" d="m85 113 11 6c-3.934 4.72-7.998 8.982-12.559 13.105-1.666 1.773-1.666 1.773-1.355 3.961 1.04 2.2 2.054 3.211 3.977 4.684L89 143c-3.327 3.686-7.2 4.936-11.75 6.688l-2.383.97c-5.67 2.209-10.728 3.626-16.617 1.217-2.894-2.412-4.016-4.312-5.25-7.875 0-4.165.297-6.207 3.082-9.348 3.386-3.077 6.926-5.813 10.606-8.527l2.13-1.585A560 560 0 0 1 85 113"/><path fill="#219075" d="M99.3 120.02c3.7.98 3.7.98 6.45 1.98 4.982 1.533 10.067 1.681 15.25 2q-.211 5.125-.437 10.25l-.12 2.934-.127 2.832-.11 2.602c-.193 2.232-.594 4.232-1.206 6.382q-3.312.039-6.625.063l-3.727.035c-3.345-.09-6.368-.47-9.648-1.098l-3.012-.293c-3.781-.895-5.83-2.537-8.8-5.02l-2.895-2.363c-2.32-2.351-3.002-3.13-3.293-6.324 1.679-2.82 4.122-5.001 6.438-7.312l1.833-1.995c3.233-3.266 5.283-5.223 10.03-4.673"/><path fill="#fbf9f9" d="M110 66c4.664 2.798 6.63 4.939 10 9 3.473 2.547 6.791 2.363 11 2 5-1.735 7.561-4.495 10.703-8.574L143 67h2l1 12-6 4 7-2 1 7c-7.945 5.407-15.279 8.17-25 7-5.594-1.506-10.476-3.328-15-7l1-7 8 2-7-4z"/><path fill="#e4955e" d="m87 211 1.563.938c2.566 1.25 2.566 1.25 6.124 1.562L98 214l1 2c2.026.225 4.055.444 6.09.559C107 217 107 217 109 220c3.557 1.219 3.557 1.219 7 2-.57 6.621-1.399 11.594-6.5 16.313-4.266 2.88-8.462 3.366-13.5 2.687-4.807-2.404-7.733-5.118-10-10-.67-6.702-.02-13.367 1-20"/><path fill="#e4945d" d="M167 211h2c2.56 16.64 2.56 16.64-.625 23.5-3.718 3.914-6.84 6.695-12.375 6.938-5.123-.294-8.617-2.055-12.25-5.688-2.615-4.109-3.999-7.8-3.375-12.687L141 221l3.438-.875L148 219l1-2 3.375.188L156 217l2-3q3.491-.561 7-1z"/><path fill="#ba6a54" d="M172 39c7.272 7.272 8.414 17.198 8.5 27-.14 13.278-4.105 24.377-12.695 34.617-3.445 2.927-6.432 3.934-10.743 5.07l-2.27.628C135.666 111.417 112.554 112.39 94 104c-2.138-1.538-3.37-2.88-5-5v-2a655 655 0 0 1 6.305 3.184c15.17 7.4 31.52 9.196 47.597 3.851 13.85-5.294 23.14-13.375 29.473-26.785 4.491-10.232 3.648-22.645.281-33.043C172 42 172 42 172 39"/><path fill="#e3955e" d="M189 127c10.754 5.904 10.754 5.904 13.375 10.313.837 3.6.52 6.105-.375 9.687-2.186 3.352-3.18 4.727-7 6-6.464.66-11.23-1.4-17-4 .25-3.312.25-3.312 1-7a72 72 0 0 1 4-3 253 253 0 0 0 2-6l3-2c.724-2.06.724-2.06 1-4"/><path fill="#e4955e" d="m66 127 .75 1.813c1.106 2.313 1.106 2.313 3.313 3.562C72 134 72 134 72.5 137.063L73 140l2 .938L77 142c.75 3.625.75 3.625 1 7-10.772 4.855-10.772 4.855-17 4-3.456-1.414-4.767-2.658-6.875-5.75-1.39-4.014-1.31-6.177-.125-10.25 3.366-4.158 7.62-6.994 12-10"/><path fill="#eda26d" d="m139 17-3.332.113C117.854 17.848 103.638 21.641 91 35 80.87 47.412 78.616 61.448 80 77a64 64 0 0 0 3.223 9.848L84 89l-1 2c-4.951-4.313-6.549-10.855-7.24-17.21C74.761 58.568 77.315 45.212 87 33c10.78-11.826 36.05-25.812 52-16"/><path fill="#1aab85" d="m161 104 3 9c-9.015 3.902-18.094 7-28 7l-2-11 3.473-.586 4.59-.789 2.279-.383c3.574-.619 7.051-1.306 10.53-2.344C158 104 158 104 161 104"/><path fill="#278e74" d="M162 103c3.104.214 4.017 1.018 6.188 3.313 1.648 2.444 2.221 3.888 2.812 6.687-12.68 9.392-26.084 12.12-41.625 12.25l-2.408.028c-5.72-.032-5.72-.032-7.967-2.278l1-3 3.996-.078c13.454-.382 26.496-1.558 39.004-6.922l-.473-1.934-.59-2.504-.597-2.496L161 104z"/><path fill="#20ab85" d="m103 121 2.75 1c4.982 1.533 10.067 1.681 15.25 2v6l-1.988-.184-8.887-.816-3.129-.29-2.988-.273-2.761-.253c-2.204-.211-2.204-.211-4.247-.184l-.75 2.125c-1.41 3.245-3.229 5.978-5.25 8.875-5.75-3.625-5.75-3.625-8-7a306 306 0 0 1 5.5-6.062l1.531-1.76c4.386-4.632 6.827-4.7 12.969-3.178"/><path fill="#e19561" d="m164 203 4 1c.36 6.345.36 6.345-1.062 8.938-2.95 1.617-5.647 1.248-8.938 1.062l-2 4-7-1-.562 1.938C147 221 147 221 143.375 221.75L140 222c-2-5.625-2-5.625-2-9l3.375-.312L145 212l2-3q3.491-.561 7-1l2-2 3.563-.5L163 205z"/><path fill="#e19461" d="M89 203h3l1 2q3.498.509 7 1l2 2 3.5.438 3.5.562 2 3c3.568.736 3.568.736 7 1-.586 6.152-.586 6.152-1 8-2 1-2 1-5.562.25L108 220l-1-3h-8l-1-3-3.312.188C91 214 91 214 89.062 212.938c-1.634-2.98-1.308-5.614-1.062-8.938z"/><path fill="#cb7a47" d="M149 37c4.086 1.168 6.573 2.36 9 6 .313 3.063.313 3.063 0 6-4.034 2.69-7.26 2.68-12 2-3.19-1.74-5.447-3.447-8-6-.351-2.74-.344-4.376 1-6.812 3.21-1.907 6.419-1.68 10-1.188m-38.437-.312 2.316-.051c2.643.452 3.5 1.265 5.121 3.363.563 2.375.563 2.375 0 5-4.105 3.926-6.794 6.141-12.437 6.188l-2.372.042C101 51 101 51 98 49c-.437-2.875-.437-2.875 0-6 3.377-4.342 7.091-6.285 12.563-6.312"/><path fill="#4ab493" d="M100 135c6.766-.114 13.288.12 20 1v9a2689 2689 0 0 1-7.625-.437l-2.16-.12c-4.133-.246-8.138-.678-12.215-1.443.875-5.75.875-5.75 2-8"/><path fill="#259077" d="m91 103 4 1-3 9c5.88 2.123 11.933 3.527 18 5v5c-8.482-.968-15.748-3.425-23-8l-2-3c3.363-7.207 3.363-7.207 6-9"/><path fill="#bf6b54" d="M141 221c2 2 2 2 3.313 5.375 1.785 3.835 3.186 5.35 6.687 7.625 4.254 1.418 7.982 1.808 12.234.105A106 106 0 0 0 169 231c-1.353 4.427-3.233 6.363-7 9-3.202 1.6-6.518 1.357-10 1-4.691-1.714-7.32-3.789-10-8-1.652-4.404-2.377-7.456-1-12m-27 0 2 1c-.57 6.621-1.399 11.594-6.5 16.313-4.258 2.874-8.47 3.383-13.5 2.687-3.944-2.084-6.587-4.247-9-8l1-2 3.063 2c3.793 2.15 6.542 2.56 10.937 2 4.68-1.744 7.278-3.82 10-8 1.256-3.18 1.256-3.18 2-6"/><path fill="#19ac86" d="M121 110h14l1 10h-21v-1h5z"/><path fill="#551d25" d="M110 66v13l5 2 5 2c-2.17.955-3.563 1.144-5.824.398-1.744-.757-3.462-1.574-5.176-2.398l-1 6c-4.47-4.117-6.561-6.992-7.437-13 .823-5.644 3.905-8 9.437-8"/><path fill="#c06d55" d="M130 185.371c3.167.996 4.225 2.891 6 5.629 1.047 3.121 1.047 3.121 1.75 6.438l.734 3.308c.5 3.148.612 6.073.516 9.254l-2 1-.55-3.14-.762-4.11-.358-2.066c-.738-3.9-1.448-6.866-4.33-9.684-3-.667-3-.667-6 0-2.955 3.057-3.69 6.094-4.562 10.188A85 85 0 0 1 119 208l-2 1c1.294-16.31 1.294-16.31 4.625-21.562 2.916-1.766 5.02-1.956 8.375-2.067"/><path fill="#541c24" d="M146 66c6.05 1.21 6.05 1.21 8 4 .903 4.725.786 9.457-1.875 13.563C150 86 150 86 148 87l-1-6-3.187 1.5c-3.068 1.328-5.434 1.807-8.813 1.5l1.688-.812c2.401-1.195 2.401-1.195 4.937-2.813C144 79 144 79 146 79z"/><path fill="#1bac86" d="m102 126 1 2a97 97 0 0 0 7.438.563c7.326.32 7.326.32 9.562 1.437v6c-6.737.11-13.3-.299-20-1z"/><path fill="#bf6c55" d="m77 143 1 6c-10.772 4.855-10.772 4.855-17 4-2.875-1.312-2.875-1.312-5-3l-1-3 2.813.25c4.594.038 8.433-1.663 12.636-3.375C73 143 73 143 77 143"/><path fill="#be6b55" d="M179 143c3.544.443 6.6 1.19 9.875 2.563 4.194 1.667 7.642 1.677 12.125 1.437-.931 2.328-1.654 3.744-3.687 5.25-7.132 2.313-12.842-.333-19.313-3.25z"/><path fill="#bd6953" d="M158 135c6.107 1.765 12.074 3.696 18 6v6c-5.653-.458-13.87-2.87-18-7a100 100 0 0 1 0-5"/><path fill="#eaa16b" d="m99 147 4 1Zm-3 1 3 1q-.976 6.694-1.971 13.385-.336 2.267-.666 4.535C94.98 176.404 93.338 185.696 91 195h-1c.62-9.58 1.702-19.052 3-28.562l.54-4.057c1.44-10.7 1.44-10.7 2.46-14.381"/><path fill="#eea471" d="m167 62 3 2c.375 2.5.375 2.5 0 5-3.805 2.537-6.54 2.594-11 2-2.062-1.187-2.062-1.187-3-3 .188-2.625.188-2.625 1-5 3.127-1.564 6.58-1.4 10-1m-70 0c2.063 1.25 2.063 1.25 3 3-.27 2.974-.854 3.854-3 6-7.304.464-7.304.464-11-2-.375-2.5-.375-2.5 0-5 3.8-2.533 6.544-2.602 11-2"/><path fill="#49b393" d="m144 108 1 11-9 1-2-11c3.435-.625 6.49-1 10-1"/><path fill="#48b291" d="m103 122 18 2v6l-18-2z"/><path fill="#cadbe2" d="M166 208h2c-.573 2.867-.861 3.861-3 6-3.625.125-3.625.125-7 0l-2 4-7-1-.562 1.938C147 221 147 221 143.375 221.75L140 222l-1-4 3.313-.312c3.607-.313 3.607-.313 5.25-2.25L149 214h6l1.5-1.562L158 211c3.188.313 3.188.313 6 1z"/><path fill="#49b393" d="m161 104 3 9c-2.812 1.563-2.812 1.563-6 3-3-1-3-1-4.168-3.066l-1.02-2.496-1.042-2.504L151 106c6.625-2 6.625-2 10-2"/><path fill="#c8d8df" d="m88 208 1.563.875c2.558 1.256 2.558 1.256 5.937 2.125 2.803.8 4.933 1.716 7.5 3l2.625.5C108 215 108 215 110 217c2.323.4 4.657.74 7 1l-1 4c-3.375-.25-3.375-.25-7-1-1.437-2.062-1.437-2.062-2-4h-8l-1-3-3.312.188C91 214 91 214 89.062 212.688 88 211 88 211 88 208"/><path fill="#22a984" d="M98 143c14.781.964 14.781.964 21 2v4c-8.01.304-14.69.508-22-3z"/><path fill="#48b494" d="m112 108 9 1-1 10h-9z"/><path fill="#cbdae0" d="M89 200c3.875.875 3.875.875 5 2l3.438.375L101 203l2 3c3.584.25 3.584.25 7 0l2 4h6v3c-3.375.188-3.375.188-7 0l-2-3a202 202 0 0 0-7-1l-2-2c-2.323-.4-4.657-.74-7-1l-1-3h-3z"/><path fill="#48b494" d="m95 104 9 2c-.565 3.958-1.809 6.666-4 10-5.75-1.875-5.75-1.875-8-3z"/><path fill="#cbe0e9" d="M164 200h3v3h-3l-1 3-3.375.375c-3.656.272-3.656.272-5.625 2.625l-3.5.438-3.5.562-2 3c-3.625.188-3.625.188-7 0v-3h6l2-4 3.375.188L153 206l2-3h6c1.688-1.438 1.688-1.438 3-3"/><path fill="#b16a55" d="m170 113 2 2c-12.594 8.529-25.4 11.188-40.375 11.063l-3.098-.014q-3.763-.018-7.527-.049v-1l3.516-.148c15.913-.731 32.347-1.717 45.484-11.852"/><path fill="#49b594" d="M88 127c4.677 1.477 4.677 1.477 6.313 4.125L95 133l-4 6c-5.75-3.625-5.75-3.625-8-7z"/><path fill="#0d8a6a" d="M120 120h16l1 4c-5.258.895-10.672 1.64-16 1l-2-2z"/><path fill="#cbdfe7" d="M67 126h3v5l4 1 .188 2.813L75 138l2.5 1.438L80 141c.813 3.688.813 3.688 1 7h-4l-.25-2.875L76 142l-2-1-2-1q-.51-2.998-1-6a499 499 0 0 0-4-3c-.25-2.687-.25-2.687 0-5"/><path fill="#c9e4f0" d="m187 125 2 1c.25 2.313.25 2.313 0 5a249 249 0 0 1-4 3 253 253 0 0 0-2 6l-3 2c-.733 3.066-.733 3.066-1 6l-4-1c.75-3.375.75-3.375 2-7l4-2c1.3-3.546 1.3-3.546 2-7h3l-.062-2.437C186 126 186 126 187 125"/><path fill="#298c72" d="M149 119h-3v4c-5.487 1.868-10.222 2.236-16 2v-1l6-1v-3a311 311 0 0 1 4.25-1.062l2.39-.598c2.464-.355 4.016-.109 6.36.66"/><path fill="#b0d1df" d="M126 150q2.514.428 5 1l1 5c-2.312 1.125-2.312 1.125-5 2l-3-2c.875-4.875.875-4.875 2-6"/><path fill="#afd2e1" d="M127 163c2.625.938 2.625.938 5 2l-1 5c-2.375.625-2.375.625-5 1l-2-2c.25-2.562.25-2.562 1-5z"/><path fill="#19ab85" d="M162 103c3.263.225 4.042 1.048 6.25 3.563L170 109c-1.812 1.563-1.812 1.563-4 3l-3-1c-1.187-3.562-1.187-3.562-2-7z"/><path fill="#0d8a6b" d="m156 117 1 4c-3.823 1.423-6.913 2.24-11 2v-4c3.402-2.094 6.053-2.18 10-2"/><path fill="#058d6d" d="m100 117 10 1v5l-11-2z"/><path fill="#19ac85" d="M93.188 103.313 95 104c-.812 3.438-.812 3.438-2 7l-3 1-3-2c.407-2.36.898-3.86 2.313-5.812C91 103 91 103 93.187 103.312"/><path fill="#bb6a54" d="m87 141 2 3c-5.625 3-5.625 3-9 3v-6c2.724-1.362 4.128-.862 7 0"/><path fill="#afd6e7" d="M126 137c2.625.375 2.625.375 5 1 .625 1.875.625 1.875 1 4-2 2-2 2-4.625 2.125L125 144c-.625-2.375-.625-2.375-1-5z"/><path fill="#1d9479" d="m110 119 10 1-1 4h-10z"/><path fill="#24aa84" d="M82 133c2.954 1.372 5.44 2.989 8 5l-1 4c-5.997-2.107-5.997-2.107-8-5 .313-2.187.313-2.187 1-4"/><path fill="#c9dae0" d="m146 206 4 1v2l-3 1-2 3c-3.625.188-3.625.188-7 0v-3h6z"/><path fill="#c67255" d="m120 190 1 3 2 1a935 935 0 0 1-1.875 6.938l-.527 1.998c-.473 1.706-1.03 3.387-1.598 5.064l-2 1c.516-6.499 1.467-12.662 3-19"/><path fill="#088c6c" d="M91 141c2.169.506 4 1 6 2a78 78 0 0 1 2 5c-3.735-.498-5.812-.875-9-3z"/><path fill="#25180f" d="M142.438 54.563c3.603.442 4.992.97 7.562 3.437l-1 3-2-2c-2.67-.243-2.67-.243-5.625-.125l-3.04.055L136 59c2.57-3.945 2.57-3.945 6.438-4.437M117 55c1.719 2.023 1.719 2.023 3 4l-2.3-.07-3.013-.055-2.988-.07c-2.923-.012-2.923-.012-5.699 2.195.313-1.875.313-1.875 1-4 3.704-2.47 5.621-2.47 10-2"/><path fill="#cf7e46" d="m145 128 5 1-1 5-5-1zm-43 53h5v5c-1.875.625-1.875.625-4 1l-2-2c.375-2.125.375-2.125 1-4"/><path fill="#ced8db" d="m88 208 1.625.938C92.398 210.178 95 210.59 98 211l-1 3c-5.478.365-5.478.365-7.875-1.312C88 211 88 211 88 208"/><path fill="#cddbe0" d="m187 125 2 1c.313 2.313.313 2.313 0 5-2.383 1.819-3.958 3-7 3l1-3h3l-.062-2.437C186 126 186 126 187 125"/><path fill="#48b391" d="M95 120q3.51.43 7 1l-2 4c-1.875-.312-1.875-.312-4-1l-2-3z"/><path fill="#088d6d" d="m99 127 3 1-1 6-4-2v-4z"/><path fill="#cb7c51" d="M172 39c3.257 3.573 4.788 6.115 5 11l-2 3q-.757-2.654-1.5-5.312l-.844-2.989C172 42 172 42 172 39"/><path fill="#0e8f67" d="m86 109 5 3-1 4c-3.875-1.75-3.875-1.75-5-4z"/><path fill="#cae4f0" d="M95 212c3.558.61 6.683 1.578 10 3v2c-2.75.313-2.75.313-6 0-2.375-2.5-2.375-2.5-4-5"/><path fill="#0a8c6a" d="m170 110 1 3-5 3-1-4c3-2 3-2 5-2"/><path fill="#b7d1df" d="m176 141 3 1v6l-4-1zm-96 0 1 7h-4v-6c2-1 2-1 3-1"/><path fill="#c9e6f3" d="M98 204h4l1 2 3 1v2l-5-1-1-3z"/><path fill="#289577" d="m103 121-1 7h-4c0-3 0-3 1.938-5.187C102 121 102 121 103 121"/></svg>