<svg xmlns="http://www.w3.org/2000/svg" width="256" height="256"><path fill="#e3f1f6" d="M66 0c3.55 2.028 5.698 4.095 7 8a145 145 0 0 1 0 5l2.535-1.172C99.045 1.31 123.883-1.21 148.98 5.086c3.31.82 6.287 1.027 9.708.976 7.552.427 13.69 6.199 19.494 10.605 1.721 1.262 3.482 2.383 5.298 3.501L186 22v3c1.6 1.666 1.6 1.666 3.688 3.25 8.141 6.861 11.981 14.307 13.187 24.875C203.812 71.227 194.831 86.5 185 101h3l2 25 10 3c2.35.961 4.69 1.946 7 3l.507-1.796c1.348-4.65 2.823-9.197 4.571-13.712l1.078-2.8q1.102-2.835 2.235-5.657c3.333-8.763 2.661-14.156-.953-22.91C212 79.173 212 79.173 212 77l7-3q.722 1.874 1.438 3.75l.808 2.11C222 82 222 82 223 86l7-18 8 3c-.44 5.435-2.608 9.77-4.941 14.61-1.194 2.259-1.194 2.259-1.059 4.39l2.738-1.75 3.575-2.25 1.802-1.156C244.66 82 244.66 82 248 82l1 7-1.69.27c-7.66 1.508-15.847 3.87-20.582 10.515-3.06 5.123-5.384 10.561-7.603 16.09l-.987 2.45c-4.072 8.708-4.072 8.708-4.138 17.675 2.315 1.664 2.315 1.664 5.125 3.25 5.04 3.095 8.894 6.421 12.875 10.75l2.438 2.25c10.495 11.263 16.981 24.23 16.773 39.79-.917 12.872-7.05 23.802-16.324 32.55-28.706 23.966-71.085 31.83-107.596 31.726-2.29-.003-4.58.02-6.87.045-22.664.099-44.75-5.277-61.734-21.048-7.914-8.23-12.195-17.897-12.015-29.27C47.858 195.041 56.17 180.829 64 173a372 372 0 0 0-20.5-13l-2.973-1.848c-6.275-3.742-6.275-3.742-13.336-3.629q-2.11.695-4.191 1.477l-3.504.852-3.058.773c-1.033.26-2.066.52-3.13.79L11 159c-1.498-3.371-2-5.204-2-9l13-1v-2l-2.633-.773c-3.46-1.26-6.173-2.83-9.242-4.852l-2.93-1.914L5 138l3-9c4.217 1.486 7.625 3.612 11.313 6.125l3.238 2.195L25 139l-3-9h8q.508 2.342 1 4.688l.563 2.636c.427 2.613.513 5.034.437 7.676l1.996.648c4.072 1.832 7.464 4.36 11.066 6.977q2.264 1.623 4.532 3.242l2.25 1.609C56.489 160.76 61.242 163.883 66 167c3.122-1.309 3.122-1.309 5-4h-2c1.354-4.054 3.078-6.46 6.125-9.437l2.414-2.407c2.264-1.983 4.33-3.188 6.961-4.594 2.336-1.6 3.332-2.767 3.921-5.557.455-4.062.544-8.096.544-12.18C89 125 89 125 90 124l-2.309-1.066C77.938 118.27 68.938 112.455 62 104v-2l-3 1a714 714 0 0 1-5.062-7.687l-1.471-2.186c-3.485-5.412-3.485-5.412-3.4-8.834a72 72 0 0 1 2.023-4.52c1.348-4.107.813-7.883.472-12.148C50.888 57.331 50.764 47.141 53 37l-1.828-.262C44.579 35.58 44.579 35.58 41.5 32.5c-3.092-5.153-3.08-9.547-2.5-15.5 2.157-6.988 6.981-11.988 13-16 4.62-1.54 9.175-1.516 14-1"/><path fill="#e3f2f6" d="m230 68 8 3c-.44 5.435-2.608 9.77-4.941 14.61-1.194 2.259-1.194 2.259-1.059 4.39l2.738-1.75 3.575-2.25 1.802-1.156C244.66 82 244.66 82 248 82l1 7-1.69.27c-7.66 1.508-15.847 3.87-20.582 10.515-3.06 5.123-5.384 10.561-7.603 16.09l-.987 2.45c-4.072 8.708-4.072 8.708-4.138 17.675 2.315 1.664 2.315 1.664 5.125 3.25 5.04 3.095 8.894 6.421 12.875 10.75l2.438 2.25c10.495 11.263 16.981 24.23 16.773 39.79-.917 12.872-7.05 23.802-16.324 32.55-28.706 23.966-71.085 31.83-107.596 31.726-2.29-.003-4.58.02-6.87.045-22.664.099-44.75-5.277-61.734-21.048-7.914-8.23-12.195-17.897-12.015-29.27C47.858 195.041 56.17 180.829 64 173a372 372 0 0 0-20.5-13l-2.973-1.848c-6.275-3.742-6.275-3.742-13.336-3.629q-2.11.695-4.191 1.477l-3.504.852-3.058.773c-1.55.39-1.55.39-3.13.79L11 159c-1.498-3.371-2-5.204-2-9l13-1v-2l-2.633-.773c-3.46-1.26-6.173-2.83-9.242-4.852l-2.93-1.914L5 138l3-9c4.217 1.486 7.625 3.612 11.313 6.125l3.238 2.195L25 139l-3-9h8q.508 2.342 1 4.688l.563 2.636c.427 2.613.513 5.034.437 7.676l1.996.648c4.072 1.832 7.464 4.36 11.066 6.977q2.264 1.623 4.532 3.242l2.25 1.609C56.489 160.76 61.242 163.883 66 167l1.75-.937c4.088-1.93 4.088-1.93 6.25-2.063 2.797 1.652 2.797 1.652 5.75 3.938l2.984 2.277L85 172l-.75 1.513c-1.115 2.262-2.214 4.53-3.312 6.8l-1.182 2.38-1.104 2.295-1.031 2.11c-.89 2.087-.89 2.087.379 4.902 2.215 1.43 2.215 1.43 4.875 2.625.884.425 1.769.85 2.68 1.29 3.884 1.724 6.769 2.205 10.988 2.183l3.252-.01 3.392-.025 3.428-.014q4.193-.018 8.385-.049l-.068-2.045c-.149-8.215.647-16.189 1.722-24.312.287-2.167.562-4.334.836-6.502 1.465-11.42 1.465-11.42 2.51-15.141l2.38-.228c3.624-.352 7.247-.718 10.87-1.084l3.742-.358c11.025-1.131 21.339-2.908 31.196-8.143l2.053-1.06c6.189-3.243 12.349-6.593 17.196-11.69C190 126 190 126 192.278 126.32c5.074 1.45 9.928 3.49 14.723 5.68l.507-1.796c1.348-4.65 2.823-9.197 4.571-13.712l1.078-2.8q1.102-2.835 2.235-5.657c3.333-8.763 2.661-14.156-.953-22.91C212 79.173 212 79.173 212 77l7-3q.722 1.874 1.438 3.75l.808 2.11C222 82 222 82 223 86z"/><path fill="#429ef4" d="M66 0c3.55 2.028 5.698 4.095 7 8a145 145 0 0 1 0 5l2.535-1.172C99.045 1.31 123.883-1.21 148.98 5.086c3.31.82 6.287 1.027 9.708.976 7.561.427 13.668 6.206 19.494 10.593C180.726 18.537 183.35 20.27 186 22c-1 2-1 2-3.238 2.79-1.015.275-2.03.55-3.075.835-41.053 12.177-79.393 35.231-109.812 65.25l-1.615 1.586C65.01 95.739 62.445 99.08 60 103c-2.777-3.398-5.377-6.849-7.812-10.5l-1.895-2.781C48.753 86.48 48.882 85.35 50 82l1.09-2.227c1.348-4.107.813-7.883.472-12.148C50.888 57.331 50.764 47.141 53 37l-1.828-.262C44.579 35.58 44.579 35.58 41.5 32.5c-3.092-5.153-3.08-9.547-2.5-15.5 2.157-6.988 6.981-11.988 13-16 4.62-1.54 9.175-1.516 14-1"/><path fill="#fdb8e2" d="M188 101c3.68 22.077 3.68 22.077 1.143 28.002-2.894 3.606-6.99 5.236-11.143 6.998a177 177 0 0 0-3.535 1.914c-3.414 1.869-6.912 3.495-10.465 5.086l-2.559 1.215c-12.627 5.354-27.888 6.08-41.441 5.785a18504 18504 0 0 0-5 48c-4.56 1.285-8.977 1.26-13.687 1.313l-2.608.087c-8.96.088-15.552-3.264-22.705-8.4 1.399-4.468 3.136-8.638 5.125-12.875l1.633-3.492L84 172a806 806 0 0 0-4.687-3.375l-2.637-1.898C74.164 165.106 71.807 164 69 163c1.354-4.054 3.078-6.46 6.125-9.437l2.414-2.407c2.264-1.983 4.33-3.188 6.961-4.594 2.343-1.603 3.33-2.782 3.938-5.573.634-5.325.652-10.634.562-15.989l2.653-.491c9.396-1.803 18.603-4.059 27.837-6.553a1407 1407 0 0 1 44.914-11.355c6.033-1.431 11.942-2.89 17.753-5.07C184 101 184 101 188 101"/><path fill="#fdae74" d="M66 0c3.55 2.028 5.698 4.095 7 8a145 145 0 0 1 0 5l2.535-1.172C100.047.862 127.05-1.779 153 6l3 2-2.117.607C114.15 20.12 81.628 39.743 57.258 73.867 55 77 55 77 53 79c-1.729-3.458-1.438-7.37-1.625-11.187l-.134-2.714C50.843 55.684 50.96 46.241 53 37l-1.828-.262C44.579 35.58 44.579 35.58 41.5 32.5c-3.092-5.153-3.08-9.547-2.5-15.5 2.157-6.988 6.981-11.988 13-16 4.62-1.54 9.175-1.516 14-1"/><path fill="#fcb8e3" d="m103 147 3.344.465c5.041.63 10.083.873 15.156 1.097l2.781.131q3.36.157 6.719.307v1h-11a18504 18504 0 0 0-5 48l-1-2-3 1c-10.173.943-20.858 1.06-30-4l-2-2c.221-5.593 2.786-10.05 5.375-14.875l1.328-2.504C90.204 165.318 95.49 157.655 101 150z"/><path fill="#469ff2" d="M167 16a60 60 0 0 1 6 5v2c-3.225-1.452-5.674-3.293-8.375-5.562C161.131 14.664 158.618 13 154 13c-1.221 1.001-1.221 1.001-1.133 3.004.017 5.426.338 10.628 1.133 15.996l-1.937-2a262 262 0 0 0-7.625-7.25l-2.254-2.078c-2.151-1.647-3.54-2.264-6.184-2.672-.138 7.066.252 13.974 1 21-2.519-2.449-4.89-4.86-7.062-7.625-1.878-2.301-3.369-3.896-5.938-5.375-2.668-.251-2.668-.251-5 0-.133 7.71.388 15.316 1 23-3.393-3.134-5.725-6.905-8.281-10.723-1.685-2.493-1.685-2.493-4.719-4.277-2.625-.167-2.625-.167-5 0-.264 7.595.391 14.574 2 22l-1.285-1.172C95.753 48.42 95.753 48.42 87 46c.425 6.484 1.803 11.696 4.258 17.715C92 66 92 66 91 68l-1.32-1.207C84.815 62.466 80.78 59 74 59c.54 6.69 1.887 12.635 4 19l-1.758-1.277C70.186 72.47 70.186 72.47 63 71c1.439 8.638 1.439 8.638 4 17-4.035-1.59-8.018-3.282-12-5l.805 1.574C57.707 88.33 59.52 92.052 61 96c-5.693-5.386-8.227-9.112-9-17h2l.648-2.043c1.791-3.918 4.252-6.954 6.977-10.27l1.731-2.108C86.48 36.907 115.176 18.281 150 9l2.36-.695C156.902 7.46 163.362 13.58 167 16"/><path fill="#439ff4" d="M66 0c3.672 2.098 5.453 4.115 7 8 .32 6.856-.885 13.427-5 19-5.206 5.511-9.815 8.957-17.5 9.375-3.341-.078-4.46-.351-7.437-2.125-4.185-4.565-4.5-8.385-4.38-14.43.88-7.838 5.536-12.706 11.442-17.57C54.866-.91 60.523-.585 66 0"/><path fill="#fe7942" d="m230 68 8 3c-.44 5.435-2.608 9.77-4.941 14.61-1.194 2.259-1.194 2.259-1.059 4.39l2.738-1.75 3.575-2.25 1.802-1.156C244.66 82 244.66 82 248 82l1 7-1.69.27c-7.596 1.495-15.857 3.856-20.54 10.465-4.989 8.475-8.242 17.94-11.53 27.172-2.001 5.603-4.408 10.857-7.24 16.093a617 617 0 0 0-2 4l-3-1c1.302-6.384 3.038-12.377 5.25-18.5l.92-2.608c1.502-4.25 3.045-8.48 4.658-12.689l.855-2.28a205 205 0 0 1 1.627-4.19c2.822-7.57 1.124-13.35-1.873-20.608C212 79.173 212 79.173 212 77l7-3q.722 1.874 1.438 3.75l.808 2.11C222 82 222 82 223 86z"/><path fill="#fe824b" d="M183 56c-7.626 9.587-16.706 17.766-26.875 24.563l-1.836 1.227C147.746 86.018 141.937 88.91 134 88c-2.943-2.168-4.783-4.552-6-8-.03-2-.033-4 0-6 37.613-18.58 37.613-18.58 55-18"/><path fill="#fe7841" d="M8 129c4.217 1.486 7.625 3.612 11.313 6.125l3.238 2.195L25 139l-3-9h8q.508 2.342 1 4.688l.563 2.636c.427 2.613.513 5.034.437 7.676l2.004.652c4.03 1.813 7.372 4.315 10.934 6.91a297 297 0 0 0 20.109 13.305C68.4 168.29 70.488 170.735 73 174c-3 1-3 1-5.758-.082l-3.367-1.73-1.834-.941c-6.515-3.396-12.829-7.143-19.13-10.915l-1.982-1.175a188 188 0 0 1-3.84-2.367c-3.422-2.143-3.422-2.143-7.32-2.849l-1.956.621-2.258.653L23 156q-3.278.825-6.562 1.625-2.72.685-5.438 1.375c-1.498-3.371-2-5.204-2-9l13-1v-2l-2.633-.773c-3.46-1.26-6.173-2.83-9.242-4.852l-2.93-1.914L5 138z"/><path fill="#80c6ed" d="M153 10c4.713.515 7.744 1.768 11.688 4.375l2.824 1.836c2.075 1.492 3.853 2.832 5.488 4.789v2c-3.225-1.452-5.674-3.293-8.375-5.562C161.131 14.664 158.618 13 154 13c-1.221 1.001-1.221 1.001-1.133 3.004.017 5.426.338 10.628 1.133 15.996l-1.937-2a262 262 0 0 0-7.625-7.25l-2.254-2.078c-2.151-1.647-3.54-2.264-6.184-2.672-.138 7.066.252 13.974 1 21-2.519-2.449-4.89-4.86-7.062-7.625-1.878-2.301-3.369-3.896-5.938-5.375-2.668-.251-2.668-.251-5 0-.133 7.71.388 15.316 1 23-3.393-3.134-5.725-6.905-8.281-10.723-1.685-2.493-1.685-2.493-4.719-4.277-2.625-.167-2.625-.167-5 0-.264 7.595.391 14.574 2 22l-1.285-1.172C95.753 48.42 95.753 48.42 87 46c.425 6.484 1.803 11.696 4.258 17.715C92 66 92 66 91 68l-1.32-1.207C84.815 62.466 80.78 59 74 59c.54 6.69 1.887 12.635 4 19l-1.758-1.277C70.186 72.47 70.186 72.47 63 71c1.439 8.638 1.439 8.638 4 17-4.035-1.59-8.018-3.282-12-5l.805 1.574C57.707 88.33 59.52 92.052 61 96c-3.255-3.08-6.146-5.88-8-10 .313-2.812.313-2.812 1-5l2.875.5c2.927.553 2.927.553 5.125.5l-.5-1.562c-.66-3.215-.682-6.166-.5-9.438l2-2c4.092.303 7.462.877 11 3l-1-1.937c-1.306-4-1.558-7.884-1-12.063l2-2c5.224.243 8.665 2.313 13 5l-1-2.375c-1.262-4.576-1.383-8.9-1-13.625 1-1 1-1 4.125-1.437C94.253 44.14 96.486 46.41 100 50l-.5-2.5c-1.367-9.572-1.367-9.572.625-14C102 32 102 32 104.75 31.375c4.535.872 7.132 3.31 10.25 6.625l1 2 .148-3.21.227-4.165.094-2.117c.304-5.281.304-5.281 2.531-7.508 3.374-.544 4.646-.252 7.457 1.75l2.356 2.25 2.394 2.25L133 31l.148-2.773.227-3.602c.07-1.183.14-2.367.21-3.586C134 18 134 18 136 16c4.139.274 6.266 1.72 9.25 4.5l2.078 1.906A156 156 0 0 1 150 25l-.105-2.266-.083-2.984-.105-2.953c.332-3.172 1.18-4.467 3.293-6.797"/><path fill="#fcb7e2" d="M101 146c-.598 2.918-1.457 4.979-3.145 7.426l-1.302 1.916-1.365 1.97C91.895 162.105 88.823 166.915 86 172c-4.005-1.335-6.94-3.343-10.285-5.824C73.597 164.724 71.43 163.81 69 163c2.068-6.194 6.314-9.656 11-14l1.914-2.02c6.077-5.727 11.719-3.473 19.086-.98"/><path fill="#a070e6" d="M171.563 179.25c2.491 1.789 4.063 3.001 5.437 5.75.188 2.438.188 2.438-1 5-4.106 4.083-8.351 5.362-14.062 5.563-5.414-.227-8.631-1.309-12.938-4.563-1.437-2.875-1.382-4.819-1-8 6.29-6.29 15.424-6.606 23.563-3.75"/><path fill="#374d62" d="M190 125c-2.422 7.266-12.553 11.452-19 14.75-15.206 7.264-28.965 9.605-45.812 9.5l-3.811.023c-6.475-.013-12.191-.317-18.377-2.273l-.86 1.785c-1.027 1.996-2.132 3.8-3.39 5.656-5.182 7.752-10.07 15.6-14.5 23.809l-1.34 2.416c-1.716 3.251-2.902 5.524-2.937 9.236 1.355 2.767 2.345 3.302 5.215 4.41 9.155 3.032 19.294 2.015 28.812 1.688v2c-4.211 1.404-8.213 1.264-12.625 1.313l-2.621.087c-8.986.088-15.579-3.249-22.754-8.4 1.475-4.897 3.49-9.25 5.875-13.75l1.164-2.206c4.376-8.095 9.523-15.661 14.775-23.207 1.219-1.888 2.219-3.811 3.186-5.837l-3.75-.437c-2.815-.35-5.52-.767-8.25-1.563v-2l1.8.367 2.513.508 2.425.492L99 144l2.274.506c8.006 1.66 15.819 1.826 23.976 1.806l3.95.05c20.514.01 42.102-5.5 57.241-20.042C188 125 188 125 190 125"/><path fill="#88cbec" d="M59 4h2l1 7 5-4c-.547 3.375-1.055 5.082-3 8h5v2l-4 2 2 3v3c-3.875-.875-3.875-.875-5-2l-1 7h-2l-2-5-3 6c-.93-2.606-1.15-3.642-.062-6.25L55 23l-3.187 1.5C48.745 25.828 46.379 26.307 43 26v-2l4-2-3-2v-3h6l-1.5-1.875C47 13 47 13 47 11l5 2c1.356-1.125 1.356-1.125 1.063-4.062L53 6c3 1 3 1 4 3z"/><path fill="#a271e8" d="M170 207c3 1.563 3 1.563 5 4 .563 3.563.563 3.563 0 7-2.992 2.985-5.346 3.432-9.5 3.438-3.52-.109-5.14-.22-8.187-2.063-1.748-3.162-2.053-4.821-1.313-8.375 4.515-4.29 8.079-4.752 14-4"/><path fill="#a16fe8" d="M160 153c3.748 1.497 3.748 1.497 5 4 .457 5.369.457 5.369-1.312 7.813-3.813 2.682-8.198 2.807-12.688 2.187-3-1.625-3-1.625-5-4-.667-3.558-.437-5.246 1.375-8.375 3.997-2.474 8.038-2.257 12.625-1.625"/><path fill="#3c4a63" d="M185 106c-5.302 2.452-10.48 4.014-16.16 5.34l-2.627.63c-2.757.662-5.516 1.315-8.275 1.968q-5.425 1.288-10.848 2.59l-2.666.639c-6.08 1.472-12.08 3.123-18.084 4.884-6.151 1.748-12.371 3.213-18.59 4.699l-3.95.957C94.263 130 94.263 130 92 130v-2l9.566-2.492 3.047-.794q8.385-2.183 16.77-4.359l3.446-.894 6.96-1.805a4936 4936 0 0 0 19.254-5.038q5.403-1.421 10.808-2.831 2.517-.66 5.03-1.33c2.316-.617 4.635-1.222 6.955-1.824l2.042-.554c3.354-.858 5.836-1.353 9.122-.079"/><path fill="#445169" d="M190 125c-2.422 7.266-12.553 11.452-19 14.75-15.426 7.369-29.224 9.6-46.312 9.375q-2.007-.016-4.014-.027-4.838-.036-9.674-.098v-1c3.523-.794 6.822-1.142 10.43-1.21 23.409-.591 47.29-3.449 65.011-20.47C188 125 188 125 190 125"/><path fill="#fe7c46" d="m138 69 2 1-1 10-1-2h-2c1.09 3.775 1.908 6.47 5 9-1 1-1 1-3.812 1.313C134 88 134 88 131.75 86.25c-3.298-4.24-3.997-6.818-3.75-12.25q2.43-1.294 4.875-2.562l2.742-1.442z"/><path fill="#9ad4ed" d="M223 180c5.376.597 5.376.597 7.938 2.25C232 184 232 184 232 186.438c-1.288 3.3-3.127 4.573-6 6.562l1.313 1.504c2.854 3.482 4.56 5.729 5.312 10.246-.735 3.82-1.51 4.976-4.625 7.25-4.024 2.175-7.477 2.177-12 2l2 3c-.187 2.563-.187 2.563-1 5l-3 2 1-9-3-1v-1c.808-.11 1.616-.22 2.45-.332l3.238-.48 3.199-.458c3.271-.767 5.441-1.7 8.113-3.73.672-3.496.646-5.799-1.062-8.977-2.444-3.59-2.444-3.59-5.938-6.023v-2l2.938-1.25c3.185-1.399 3.185-1.399 3.937-3.937L229 184l-6-3z"/><path fill="#9dd5ee" d="M66 218h2l.184 2.152.254 2.786c.08.916.162 1.833.246 2.777.076 2.247.076 2.247 1.316 3.285 1.347.23 2.704.412 4.063.563L78 230l1 4 2.813.063L85 235c1.75 3.5 1.75 3.5 3 7 3.606 1.803 7.428 1.472 11.238.328 1.939-.73 3.853-1.524 5.762-2.328-1 3-1 3-2.637 3.95C98.15 245.465 94.53 246.703 90 246c-3.276-1.966-4.72-3.054-5.812-6.75L84 237h-6l-2-5-2.75.313C70 232 70 232 67.625 230.063 65.442 225.949 65.642 222.56 66 218"/><path fill="#293f56" d="m89 142 1.59.332c8.44 1.727 16.924 3.191 25.41 4.668v1q-2.406.039-4.812.063l-2.708.035C106 148 106 148 103 147l-.846 1.756c-1.101 2.142-2.302 4.125-3.615 6.142l-1.43 2.204-1.484 2.273-1.46 2.25A1082 1082 0 0 1 86 174l-1-2a106 106 0 0 1 4.063-7.125l1.25-2.052c2.642-4.286 5.418-8.392 8.593-12.307 1.304-1.648 1.304-1.648 2.094-4.516l-3.75-.437c-2.815-.35-5.52-.767-8.25-1.563z"/><path fill="#082f42" d="M120 59c2.063.25 2.063.25 4 1 1.585 3.17 1.294 6.54 1 10-1 2.5-1 2.5-2 4h-4c-1.3-2.602-1.168-4.597-1.187-7.5l-.043-2.969C118 61 118 61 120 59"/><path fill="#9bd3eb" d="M188 142c2.875.188 2.875.188 6 1 1.375 2.563 1.375 2.563 2 5l1.625-1.062c3.108-1.227 5.17-.667 8.375.062l1 5 1.563-1.062c3.465-1.333 5.867-.782 9.437.062 1.938 1.438 1.938 1.438 3 3v2h-2l-2-3c-5.006-.567-7.93.04-12 3l-1-7-9 1-1.187-2.437c-1.582-2.794-1.582-2.794-4.5-3.375L187 144z"/><path fill="#0a3143" d="m134 55 5 1v11l-4 2c-2.105-3.158-2.253-3.954-2.187-7.562l.019-2.38C133 57 133 57 134 55"/><path fill="#2b4e5e" d="m122 83 .367 2.3.508 3.013.492 2.988c.514 2.9.514 2.9 2.633 5.699 5.507.542 8.395.25 13-3h2c-1 3-1 3-4.125 4.688-3.734 1.44-6.862 1.842-10.875 1.312-4.611-2.946-5.587-7.99-7-13l-3 2-3-1a466 466 0 0 1 3.375-2.5l1.898-1.406C120 83 120 83 122 83"/><path fill="#9bd5ed" d="M83 221h1l2 8c4.824.193 8.496-.243 13-2l2 6c3.545-1.398 3.545-1.398 7-3-1.37 3.161-1.99 3.993-5 6-2.187-.375-2.187-.375-4-1l-1-5-2.062 1c-3.53 1.202-6.231 1.343-9.938 1-1.937-1-1.937-1-3-3-.236-2.719-.135-5.26 0-8"/><path fill="#2d475b" d="M190 125c-2.435 7.305-12.56 11.547-19.187 14.938-5.073 2.455-9.184 3.95-14.813 4.062 2.854-1.903 5.382-3.006 8.563-4.25 7.52-3.097 14.301-6.748 20.437-12.125 3-2.625 3-2.625 5-2.625"/><path fill="#2f435a" d="M120 122c-2.44 2.44-4.042 2.69-7.375 3.508l-3.234.8-3.391.817-3.39.84C94.307 130 94.307 130 92 130v-2c3.538-1.013 7.081-2.008 10.625-3l3.027-.867c4.877-1.357 9.231-2.552 14.348-2.133"/><path fill="#9cd5ed" d="m211 199 2 1c.188 2.375.188 2.375 0 5-3 2-3 2-6 2l1 2c.25 3.5.25 3.5 0 7-3 2-3 2-5.187 1.625L201 217l5-3c-.486-3.123-.999-5.996-2-9l6-1z"/><path fill="#a4d8ee" d="M151 214h2l1.375 3.375c1.35 3.587 1.35 3.587 3.625 5.625 2.203.46 2.203.46 4.625.625l2.477.227L167 224v2c-7.979.782-7.979.782-11.937-2.25C151 218.333 151 218.333 151 214"/><path fill="#9ed3e9" d="M78 171v2l-3 1c-1.225 3.008-1.225 3.008-2 6h-6l-2 4c.875-4.875.875-4.875 2-6a100 100 0 0 1 5 0l-1-3c3.625-4 3.625-4 7-4"/><path fill="#535772" d="M131 120c-3.538 2.123-6.908 2.697-11 3l-2-2c8.429-2.429 8.429-2.429 13-1"/><path fill="#3d4b63" d="M120 122c-2.266 2.266-3.432 2.553-6.5 3.25l-2.406.578L109 126l-2-2c4.537-1.452 8.18-2.235 13-2"/><path fill="#51a1ec" d="m73 56-1 8-2-4-4 3c3.138-7 3.138-7 7-7"/><path fill="#445a6e" d="M160 144v1c-1.622.389-3.248.76-4.875 1.125l-2.742.633L150 147l-2-2c3.981-1.327 7.85-1.07 12-1"/><path fill="#42596d" d="M78 185c2 2 2 2 2.125 4.625L80 192h-3c-1-3-1-3-.062-5.187z"/></svg>