<svg xmlns="http://www.w3.org/2000/svg" width="256" height="256"><path fill="#ccd4e2" d="M175 39c2.563 2.313 2.563 2.313 5 5l2.086 2.18C196.94 62.02 203.75 82.485 205 104l2.352.84c3.796 1.663 4.886 3.433 6.648 7.16.447 4.98-.27 8.102-3.437 12-4.087 3.19-7.454 3.61-12.563 3a393 393 0 0 1-5-3c-2.014.503-2.014.503-4 2-6.566 4-6.566 4-10 4l-.516 1.723c-1.635 5.21-3.617 9.63-6.484 14.277l1.906 1.914c12.136 12.684 20.508 27.294 20.313 45.274-.634 8.149-4.123 14.56-9.719 20.437-2.904 2.328-5.897 3.238-9.437 4.313-3.926 1.19-6.665 2.209-9.625 5.062-8.998 8.565-24.737 9.53-36.579 9.25-7.286-.637-15.055-1.385-20.922-6.062L105 224c-2.695.428-2.695.428-5 2-6.24 2.907-13.01 3.092-19.64 1.277-5.69-2.326-8.729-5.178-11.61-10.652-.937-3.279-.883-6.233-.75-9.625l-2 1c-12.18 1.193-12.18 1.193-17.125-2.125-4.826-4.229-6.508-9.542-7.035-15.766C41.116 172.622 50.802 160.221 62 148a270 270 0 0 1 5-5l-.656-1.766C63.247 132.116 62.68 123.13 66 114l-2.312-1.687c-3.894-3.351-5.51-5.658-6.063-10.813.398-3.715 1.066-5.592 3.375-8.5l3-1 .297-2.562c1.067-8.095 2.87-13.893 7.144-20.75 1.731-2.985 3.12-6.052 4.559-9.188 7.654-15.783 19.725-26.095 36-32.5 21.314-7.225 45.658-1.829 63 12m16 66 1 3v-3z"/><path fill="#f6343e" d="M67 143c3.455 1.422 4.923 2.996 7 6.063 6.963 9.185 15.16 14.12 26.195 16.964 4.098 1.422 5.575 3.339 7.805 6.973l1.434-1.094c5.33-3.74 9.14-4.647 15.566-3.906l3.305.672c4.274.38 7.357-.487 11.257-2.047l2.09-.815c10.921-4.468 20.535-10.905 28.348-19.81 10.764 4.667 17.81 19.06 21.938 29.5 3.004 9.898 3.41 19.963-.938 29.5-4.008 7.186-8.218 10.596-15.937 12.938-3.926 1.19-6.665 2.209-9.625 5.062-8.998 8.565-24.737 9.53-36.579 9.25-7.286-.637-15.055-1.385-20.922-6.062L105 224c-2.695.428-2.695.428-5 2-6.24 2.907-13.01 3.092-19.64 1.277-5.69-2.326-8.729-5.178-11.61-10.652-.937-3.279-.883-6.233-.75-9.625l-2 1c-12.18 1.193-12.18 1.193-17.125-2.125-4.826-4.229-6.508-9.542-7.035-15.766C41.116 172.622 50.802 160.221 62 148a270 270 0 0 1 5-5"/><path fill="#e0e6e7" d="M82 91c-.377 4.838-.766 9.515-2.125 14.188-.943 4.106-.893 6.741.125 10.812 1.427 2.38 1.427 2.38 3 4 4.093-.52 6.096-1.601 9.063-4.437 2.514-2.385 4.694-4.272 7.937-5.563 2.25.375 2.25.375 4 1l-.437 3.188c.03 3.724.03 3.724 1.996 5.39A61 61 0 0 0 111 123c-1.25 3.46-2.675 6.147-5 9 1.898 2.35 1.898 2.35 5.125 2.125L114 134l-.437-1.562c-.721-3.123-1.136-6.264-1.563-9.438l3.313-.812c4.065-1.217 4.065-1.217 6.687-4.188.722-2.606.722-2.606 1-5 4.135.496 5.871 1.413 8.5 4.625l1.785 2.164A198 198 0 0 1 140 129c8.145-2.195 15.87-5.518 20.938-12.562C163.955 111.1 164.387 105.006 165 99c4.915 2.345 9.646 4.708 14 8 2.992 8.976 1.807 21.838-2.082 30.375-8.064 14.873-21.89 24.117-37.293 30.188l-1.981.8c-4.612 1.693-7.878 1.605-12.644.637-6.402-.625-9.723-.02-15 4h-3l-1.875-2.375c-3.166-3.911-6.003-4.42-10.875-5.312-5.42-1.29-9.091-4.776-13.25-8.313l-3.062-2.25c-7.263-6.147-13.314-15.105-14.211-24.664-.2-6.161.398-10.542 3.273-16.086 2.158-4.927 4.005-9.541 4.813-14.875.505-2.62.796-3.772 2.792-5.574C77.027 92.128 79.147 91 82 91"/><path fill="#f6343e" d="M175 39c2.563 2.313 2.563 2.313 5 5l2.086 2.18C196.94 62.02 203.75 82.485 205 104q-2.123.507-4.25 1l-2.39.563C196 106 196 106 192 106c-1.754-1.984-1.754-1.984-3.562-4.75-3.88-5.623-8.18-10.499-12.836-15.465a221 221 0 0 1-6.29-7.035l-1.664-1.875a121 121 0 0 1-3.359-4C158.613 66.36 152.292 64.697 144 63l-2.28-.537c-8.004-1.723-15.864-1.735-24.01-1.669-2.338.019-4.676.02-7.015.02-13.963-.141-13.963-.141-27.445 3.061l-2.672.992C77.898 66.045 75.476 67.441 73 69c2.195-13.466 12.17-26.05 23-34 24.73-15.845 56.01-14.331 79 4"/><path fill="#fdc7a9" d="M111.75 84.813c16.89.22 16.89.22 22.25 4.687l2 2.5c4.31 2.446 8.162 2.234 13 2l3-1c2.883.96 2.883.96 6.125 2.375l3.258 1.398C164 98 164 98 165 99c.625 7.88-.5 14.76-5.66 21.012-4.825 4.567-10.88 8.313-17.34 9.988-4.075-1.057-5.72-4.083-8-7.437-3.178-4.662-5.567-7.752-11-9.563l.375 2.188C123 118 123 118 120.313 120.812c-3.293 2.175-4.505 2.748-8.313 2.188l.691 1.61.871 2.14.88 2.11c.636 2.44.36 3.78-.442 6.14-2.812.25-2.812.25-6 0-1.875-2-1.875-2-3-4l3.906-4.492c1.29-1.467 1.29-1.467 1.094-3.508a150 150 0 0 0-6-4c-1-1-1-1-1.062-4.562L103 111c-4.154.537-6.46 1.801-9.687 4.438l-2.325 1.87c-2.04 1.69-2.04 1.69-3.988 3.692-2.375.063-2.375.063-5-1-3.2-3.959-4.34-6.6-3.937-11.687C78.945 102.51 79.96 96.51 82 91c3.695-2.464 5.373-2.12 9.75-1.937 5.671.093 9.358-.219 14.25-3.063 1.642-1.642 3.488-1.171 5.75-1.187"/><path fill="#565158" d="M98 165c4.71 1.755 7.62 4.321 11 8l2.375-1.937c4.477-3.518 8.047-3.73 13.625-3.063 4.884 2.396 7.37 5.286 10 10l1.086 1.742c1.766 3.404 2.128 5.424 1.16 9.192-1.886 4.734-4.001 8.967-7.121 13.004-2.444 2.845-2.444 2.845-1.937 6L129 210h-10l1-9-6-1v6q-3.187.039-6.375.063l-3.586.035C101 206 101 206 99 205v-6l-6-1v8c-4.548.178-7.88-.002-12-2l.75-2.437c.259-3.688-.059-4.641-1.625-7.813-2.307-4.892-4.018-9.287-3.125-14.75 4.616-8.826 10.382-15.526 21-14"/><path fill="#e7ebea" d="m114.875 59.688 2.357-.01c34.203-.029 34.203-.029 45.268 10.396a269 269 0 0 1 3.5 3.614l1.84 1.895A680 680 0 0 1 173 81l2.496 2.594C179.035 87.41 179.035 87.41 180 89l-1 3c-7.02.543-11.527-1.205-17.812-4.187-20.177-8.91-37.285-10.45-59.176-10.086l-2.176.032A73 73 0 0 0 88 79c-8.766.793-8.766.793-12.625-1.687C73.694 74.485 73.369 73.235 74 70c2.617-5.11 6.73-6.372 11.855-8.203 9.45-2.395 19.332-2.077 29.02-2.11"/><path fill="#f6343e" d="M67 143c3.455 1.422 4.923 2.996 7 6.063 3.768 5.072 8.336 8.468 13.426 12.09C90 163 90 163 92 165l-1.54.777C84.478 169.106 81.387 173.114 78 179l-2-1c-3.5-.25-3.5-.25-7 0-2.438 1.991-2.438 1.991-2.195 5.914q.02 2.355.07 4.711l.027 2.43c.024 1.982.06 3.963.098 5.945-7.29 3.365-15.224 4.592-23 2-3.696-9.336-2.209-18.693 1-28 4.848-10.686 13.68-19.861 22-28"/><path fill="#e8e6e5" d="M68 206c5.842.543 11.108 2.236 16.688 4.012C89.075 211.32 93.49 212.226 98 213v-2h15v4l2.87-.14c3.56-.168 7.12-.313 10.68-.452q2.299-.095 4.596-.207c7.917-.385 15.205-.719 22.78 2.044 3.004 1.093 6.041 1.506 9.199 1.942 1.116.16 2.233.318 3.383.481L169 219c-6.26 8.337-15.307 10.65-25.316 12.406A92 92 0 0 1 137 232l-2.512.16c-8.84.297-19.41-.279-26.55-5.972L105 224c-2.695.428-2.695.428-5 2-6.24 2.907-13.01 3.092-19.64 1.277-5.677-2.321-8.68-5.168-11.61-10.59-1.023-3.665-.879-6.886-.75-10.687"/><path fill="#454145" d="M91 173h7l1 4-1.937.563c-2.425 1.37-2.425 1.37-3.063 4.812-.345 3.585-.345 3.585 1.563 5.875 2.469 1.875 2.469 1.875 5.624 3.313C104 193 104 193 105 196l2-1.375c2.58-1.398 4.388-2.05 7.188-2.687 3.807-.588 3.807-.588 5.812-2.938.5-3.416.5-3.416 0-7-1.854-2.441-1.854-2.441-4-4 2-2 2-2 5.625-2.125L125 176l.125 3.875c.531 5.175 2.698 8.627 5.598 12.863C132 195 132 195 132 199l-2.062 2.938c-2.247 2.867-2.247 2.867-1.688 5.937L129 210h-10l1-9-6-1v6q-3.187.039-6.375.063l-3.586.035C101 206 101 206 99 205v-6l-6-1v8c-4.548.178-7.88-.002-12-2l.625-2.75c.403-3.495.036-4.319-1.625-7.25 0-4 0-4 2.313-6.5L85 185l1.688-2.312L88 181h2z"/><path fill="#c41f37" d="m76 177 .813 2.875Q77.404 181.938 78 184l.73 2.55.77 2.637.719 2.481c.714 2.346.714 2.346 1.898 4.43 1.303 2.808.551 4.962-.117 7.902l11 2v-8l6 1v6l15 1v-6l6 1c.353 6.123.353 6.123-.906 9.25-3 2.507-5.32 2.006-9.112 1.746l-2.67-.246-2.705-.2q-3.305-.247-6.607-.55v2c-7.692-.2-14.268-2.318-21.387-5.04-4.045-1.075-6.538-.754-10.613.04-12.378 1.032-12.378 1.032-17.25-2.25-2.662-2.662-3.131-3.304-3.75-6.75l2.781.07c6.787.1 12.738.004 19.219-2.07l-1-2a140 140 0 0 1-.25-7.437l-.062-2.065c-.023-2.91-.024-4.985 1.597-7.459 2.792-1.692 5.544-1.218 8.715-1.039"/><path fill="#e7eceb" d="M123 113c4.098.497 5.835 1.373 8.438 4.563l1.796 2.167a189 189 0 0 1 6.309 8.606c1.647 1.881 3.172 2.695 5.457 3.664-.88 3.256-1.667 4.746-4.375 6.813-5.885 1.927-12.164 2.548-18.04.238-3.962-2.353-7.208-5.057-9.585-9.051-.75-3.812-.75-3.812-1-7l3.313-.812c4.065-1.217 4.065-1.217 6.687-4.188.722-2.606.722-2.606 1-5"/><path fill="#c82138" d="M156 63c5.715 1.429 9.508 4.376 14 8l3.063 2.375c2.366 2.115 4.326 4.163 6.375 6.563 5.305 6.689 5.305 6.689 12.605 10.5 4.262.127 6.944-.833 10.957-2.438l2 16c-8.5 2-8.5 2-13 2-1.754-1.984-1.754-1.984-3.562-4.75-3.88-5.625-8.183-10.502-12.84-15.469a213 213 0 0 1-6.223-6.969c-3.304-3.833-6.9-7.332-10.555-10.832C157 66 157 66 156 63"/><path fill="#c52038" d="m144 205 1.938.813L149 207l1.879.763c6.16 2.31 11.65 2.63 18.184 2.487l2.853-.016c5.44-.06 10.702-.448 16.084-1.234-3.594 5.39-8.221 8.08-14.437 9.594-9.138 1.448-19.199.588-27.563-3.594a175 175 0 0 0-7.414-.098l-2.211.005c-2.333.005-4.667.018-7 .03q-2.37.008-4.742.014-5.817.017-11.633.049v-3c3.877-1.813 6.922-2.246 11.188-2.187l3.167.019C130 210 130 210 132 211c2.83.585 2.83.585 6 0 2.33-1.808 4.042-3.762 6-6"/><path fill="#e8ecec" d="m104 111-.437 3.188c.03 3.724.03 3.724 1.996 5.39A61 61 0 0 0 111 123c-1.438 5.034-3.902 6.99-8 10-5.445 1.815-11.001 1.74-16.375-.25-2.62-1.746-4.674-3.274-6.625-5.75v-4l2.938-1c4.411-1.856 7.518-4.888 10.949-8.16 3.464-3.016 5.646-4.435 10.113-2.84"/><path fill="#ced7e4" d="M207 104c3.602 2.146 5.439 4.153 7 8 .34 4.88-.337 8.184-3.437 12-3.614 2.82-5.824 3.34-10.458 3.29-3.416-.47-5.53-2.093-8.105-4.29-.924-2.77-1.163-4.567-1.187-7.437l-.043-2.31c.37-3.622 1.533-5.661 4.292-8.003 4.053-1.724 7.596-1.967 11.938-1.25"/><path fill="#c82239" d="M67 143c3.455 1.422 4.923 2.996 7 6.063 3.768 5.072 8.336 8.468 13.426 12.09C90 163 90 163 92 165l-1.54.777C84.478 169.106 81.387 173.114 78 179l-2-1c-3.458-.333-3.458-.333-7 0l-1.437 1.5c-2.027 1.945-2.995 1.702-5.75 1.688L58 181l1.691-.734C66.52 176.522 72.286 170.129 77 164l-2-1.812c-4.262-4.225-7.551-9.302-11-14.188 1.875-3.875 1.875-3.875 3-5"/><path fill="#c42135" d="m99 176 3 2h3.375c3.583 0 5.387.687 8.625 2l2.125-.562C118 179 118 179 119.75 180c1.962 3.139 1.757 5.39 1.25 9-3.638 4.207-7.766 4.903-13 6l-3 1-2-3c-1.883-1.108-1.883-1.108-4-2-3.237-1.428-3.93-1.895-6-5 .063-3.5.063-3.5 1-7 2.563-1.937 2.563-1.937 5-3"/><path fill="#e6e7e6" d="M139 184c2.942.256 5.289.597 7.875 2.063 1.88 3.239 1.662 6.357 1.125 9.937-1.835 6.729-4.41 11.752-10 16-3.062.625-3.062.625-6 0-2.875-2-2.875-2-5-4 .552-3.805 1.55-6.158 3.813-9.25 2.683-3.845 4.644-7.671 6.425-12C138 185 138 185 139 184"/><path fill="#e7eae9" d="m76 177 .813 2.875Q77.404 181.938 78 184l.73 2.55.77 2.637.719 2.481c.72 2.349.72 2.349 1.89 4.469 1.248 2.61.746 4.157-.109 6.863-2 2-2 2-5.875 2.438-3.358-.086-3.902-.232-6.5-2.625-3.065-5.305-3.92-9.261-3.937-15.438l-.051-3.977C66 180 66 180 67.289 178.051c2.786-1.711 5.537-1.23 8.711-1.051"/><path fill="#fb8383" d="M116 107c3.438 1.563 3.438 1.563 6 4 1.25 3.438 1.25 3.438 1 7-2.824 3.16-4.601 4.848-8.875 5.313L112 123l.691 1.61.871 2.14.88 2.11c.636 2.44.36 3.78-.442 6.14-2.812.25-2.812.25-6 0-1.875-2-1.875-2-3-4l3.906-4.492c1.29-1.467 1.29-1.467 1.094-3.508a150 150 0 0 0-6-4c-1-1-1-1-1.375-4.312C103 111 103 111 105 108.562c3.77-1.963 6.88-2.342 11-1.562"/><path fill="#c72239" d="m170 146 4 2c0 4 0 4-1.258 5.824C161.24 165.304 148.202 170.96 133 176l-4-6c1.21-.4 2.418-.802 3.664-1.215 14.58-4.996 26.987-10.99 37.336-22.785"/><path fill="#fdc8aa" d="m189 106 3 1c.163 2.565.281 5.12.375 7.688l.152 2.185c.145 5.296.145 5.296-1.812 7.716C187.054 127.672 183.812 130 179 130v-23c3.143-1.572 6.558-1.232 10-1"/><path fill="#fefdfd" d="M123 113c4.098.497 5.835 1.373 8.438 4.563l1.792 2.171a283 283 0 0 1 6.41 8.504c1.342 1.738 2.775 3.247 4.36 4.762-15.035.602-15.035.602-20.496-4.36-2.215-2.328-3.524-3.859-3.442-7.14L121 119l1.063-3.312z"/><path fill="#fec7a8" d="m68.688 93.438 2.449.87L73 95c-.454 7.03-2.12 12.585-5 19-4.284-1.973-7.848-4.697-10-9-.375-4.963-.141-8.044 3-12 3.479-1.16 4.342-.775 7.688.438"/><path fill="#fefcfc" d="M102.313 110.313 104 111v11c-4.131 3.805-7.971 4.731-13.52 5.117-3.73-.176-6.217-1.344-9.48-3.117l3-2a884 884 0 0 0 8.21-6.809c6.782-5.327 6.782-5.327 10.103-4.879"/><path fill="#fcc504" d="m93 198 6 1v6l15 1v-6l6 1c.354 6.142.354 6.142-.926 9.242-2.93 2.483-5.115 2.073-8.847 1.852l-2.602-.219-2.578-.148c-4.667-.32-7.55-.928-12.047-2.727z"/><path fill="#e7eae9" d="M207 104c3.063 2.5 3.063 2.5 5 5-3.625 5.75-3.625 5.75-7 8a35 35 0 0 1-10 0c-2.625-2-2.625-2-4-4 .828-3.387 1.45-5.5 4.063-7.875 4.049-1.55 7.662-1.99 11.937-1.125"/><path fill="#cccedc" d="M153.227 216.2c5.149 1.486 10.47 2.093 15.773 2.8-2.22 2.908-3.93 4.953-7 7h-3v-2l-3.687-.187c-5.41-.578-9.999-2.562-15.004-4.602-4.681-1.713-9.382-2.55-14.309-3.211v-1c17.971-1.881 17.971-1.881 27.227 1.2"/><path fill="#cbcfde" d="M106.797 177.77C109 178 109 178 114 180v11q-2.906.039-5.812.063l-3.27.035C102 191 102 191 99 190q.21-2.72.438-5.437c.08-1.01.162-2.02.246-3.06.588-4.654 2.878-3.645 7.113-3.733"/><path fill="#cbd1e0" d="M80 191c3.052 6.225 3.052 6.225 2.813 9.813C82 203 82 203 80 205c-3.005.34-5.1.552-8 0-3.888-3.376-4.86-7.155-6-12q2.937-.502 5.875-1l3.305-.562C78 191 78 191 80 191"/><path fill="#cad0df" d="m133 196 1.61 1.059 2.14 1.379 2.11 1.37c2.07 1.153 3.827 1.739 6.14 2.192-1.394 4.437-3.354 7.1-7 10-3 .563-3 .563-6 0-2.875-2-2.875-2-5-4 .457-5.027 2.992-8.149 6-12"/><path fill="#fdfbfb" d="M103 80c2.563 1.5 2.563 1.5 4 3-.062 1.813-.062 1.813-1 4-5.38 3.205-10.794 3.874-17 3l-2-2c0-1.875 0-1.875 1-4 4.666-4.2 8.958-4.997 15-4"/><path fill="#f03641" d="M77 164c3.646 1.28 5.167 2.167 8 5l-7 10-2-1c-3.458-.333-3.458-.333-7 0l-1.437 1.5c-2.027 1.945-2.995 1.702-5.75 1.688L58 181l1.691-.734C66.52 176.522 72.286 170.129 77 164"/><path fill="#d97171" d="m103 112 2.375 2.5c3.596 3.023 6.697 2.992 11.258 2.871 2.474-.388 4.206-1.131 6.367-2.371-.327 3.054-1.031 4.031-3.25 6.25-2.96 1.884-4.325 2.141-7.75 1.75l.691 1.61.871 2.14.88 2.11c.636 2.44.36 3.78-.442 6.14-2.812.25-2.812.25-6 0-1.875-2-1.875-2-3-4l3.906-4.492c1.29-1.467 1.29-1.467 1.094-3.508a150 150 0 0 0-6-4c-1-1-1-1-1.062-4.062z"/><path fill="#fdfcfc" d="M141 84c3.038 1.26 5.574 2.773 8 5 1.063 2.75 1.063 2.75 1 5-1 1-1 1-4.562 1.313-5.641-.051-10.471-2.346-14.438-6.313v-4c3.257-1.628 6.481-1.547 10-1"/><path fill="#c62139" d="m124.188 209.813 3.167.019C130 210 130 210 132 211l3.375-.125c3.8.131 4.95.557 7.625 3.125-4 .75-7.767 1.12-11.836 1.098l-3.223-.01-3.316-.025-3.387-.014A2531 2531 0 0 1 113 215v-3c3.877-1.813 6.922-2.246 11.188-2.187"/><path fill="#fc8684" d="M145.09 111.77C147 112 147 112 149 114c-.556 4.556-.556 4.556-2 6-6.258.464-6.258.464-9-1.25-1-1.75-1-1.75-.75-3.875 1.561-3.903 3.933-3.027 7.84-3.105"/><path fill="#f4a487" d="m161 114 1 2c-3.618 5.215-7.496 8.178-13.125 11.063l-1.848.978c-4.433 2.159-4.433 2.159-7.457 1.143L138 128v-2l2.563-.664c8.39-2.345 14.292-5.19 20.437-11.336"/><path fill="#fc8584" d="M86.875 104.813C90 105 90 105 93 107c.188 2.625.188 2.625 0 5-3.05 1.525-5.642 1.236-9 1-1.937-1.5-1.937-1.5-3-3 2.4-4.96 2.4-4.96 5.875-5.187"/><path fill="#393737" d="m105 199 1 2h8v5q-3.187.039-6.375.063l-3.586.035C101 206 101 206 99 205v-5c1.207.03 1.207.03 2.438.063 2.496.233 2.496.233 3.562-1.063"/><path fill="#c32037" d="m99 176 2 1-2 13c-4-1-4-1-6-4 .063-3.5.063-3.5 1-7 2.438-2 2.438-2 5-3"/><path fill="#c01e36" d="m157 175 2 1c1.172 3.984 1.08 7.874 1 12l4 1c-3.462 1.067-6.64 1.102-10.25 1.063l-3.266-.028L148 190v-2h6c1.583-4.326 2.451-8.429 3-13"/><path fill="#c11e36" d="M77 164c1 2 1 2 .434 4.277-2.721 7.267-2.721 7.267-6.559 9.723L68 179l-2 2c-2.688.27-5.291.087-8 0l1.691-.734C66.52 176.522 72.286 170.129 77 164"/><path fill="#f4a182" d="M180 112h6c1 1 1 1 1.438 3.75-.48 3.564-.77 3.943-3.375 6.125C181 124 181 124 180 124z"/><path fill="#eca104" d="m114 200 6 1v7c-3.32 1.107-3.794.848-7 0-3.398-.261-6.796-.443-10.2-.621L100 207l-1-2 15 1z"/><path fill="#f33f43" d="M90.25 205.75 93 206l1 3c2.015.733 2.015.733 4 1v3c-10.558-.779-10.558-.779-15-3 2.41-2.967 3.347-3.95 7.25-4.25"/><path fill="#3d3639" d="M120 201c3.375.563 3.375.563 7 2 1.438 3.625 1.438 3.625 2 7h-10z"/><path fill="#f4a182" d="M66 98q3.012.43 6 1l-1 9c-3 0-3 0-4.687-1.125-1.865-2.664-1.589-4.703-1.313-7.875z"/><path fill="#cdcbd8" d="M68 206c4.869.596 9.328 1.57 14 3-2 2-2 2-4.602 2.195l-3.023-.07-3.04-.055L69 211l-1 3z"/><path fill="#f43b41" d="m122 211 1 3 2 1h-12v-3c5.53-2.611 5.53-2.611 9-1"/><path fill="#eca71a" d="m98 190 16 1v2l-9 3-2-3c-2.552-1.205-2.552-1.205-5-2z"/><path fill="#efa303" d="m93 198 6 1v6l-6-1z"/><path fill="#664342" d="M92 98c5.023-.295 7.895.015 12 3l-2 2-2-1c-1.537-.225-3.08-.408-4.625-.562l-2.477-.254L91 101z"/><path fill="#f3a88c" d="m78 110 3 3 2.625 2.5C86 118 86 118 87 121c-2.25-.062-2.25-.062-5-1-2.47-3.07-4-5.995-4-10"/><path fill="#ed8081" d="M105 131h10l-1 4c-2.812.25-2.812.25-6 0z"/><path fill="#5b393b" d="M129 103c1.437-.054 2.875-.093 4.313-.125l2.425-.07C138 103 138 103 141 105v2a1013 1013 0 0 1-4.812-.437l-2.708-.247C131 106 131 106 128 105z"/><path fill="#5c3a3e" d="M111 124c1.945 2.918 2.453 4.625 3 8l-8-1z"/></svg>