<svg xmlns="http://www.w3.org/2000/svg" width="256" height="256"><path fill="#fbc839" d="M112.063 24.875c3.72 2.692 5.218 5.687 7.25 9.75 3.489 4.911 9.098 5.865 14.687 7.25 9.553 2.693 9.553 2.693 13 7.125 1.46 4.582 1.403 7.946-.312 12.438C145 64 145 64 143 66l2.492 1.434c7.64 4.525 14.06 9.413 20.508 15.566q2.493 2.257 5 4.5c2.484 2.222 4.948 4.45 7.36 6.75 8.39 7.897 17.932 13.551 27.78 19.406l3.325 1.98a1192 1192 0 0 0 6.565 3.872C234.637 130.52 234.637 130.52 238 139c1.41 7.942-1.3 15.063-5.766 21.574-7.072 9.092-14.819 16.248-24.484 22.488l-2.79 1.83C186.368 197 186.368 197 183 197l-.41 1.688c-2.005 7.106-5.378 12.638-11.719 16.664-5.712 2.924-10.646 3.854-17.059 3.898-1.095.03-1.095.03-2.212.063-3.968.028-6.913-.304-10.55-1.938-4.86-2.02-8.72-.885-13.675.375q-2.659.597-5.32 1.176l-2.61.573c-10.844 2.224-21.652 2.383-31.507-3.249-3.396-3.944-4.957-7.59-4.899-12.73l.586-3.708.302-2.051c.337-2.258.703-4.509 1.073-6.761 3.735-23.176 3.078-38.028-8-59l-1.812 1.438c-3.97 2.835-7.419 2.966-12.188 2.562-5.611-2.52-7.796-6.541-10.605-11.758-1.901-3.056-3.704-4.074-7.172-4.918l-3.16-.636c-3.823-.924-5.737-1.407-8.75-4-2.251-4.609-2.793-7.872-1.188-12.75 2.768-6.512 7.918-9.806 13.691-13.508C47.948 87.034 49.978 85.55 52 84l-1.062-3.312c-2.031-8.345-.565-15.998 3.539-23.458C57.914 52.198 62.163 48.808 68 47c3.7-.23 3.7-.23 7.688-.187l2.048.001c4.982.045 4.982.045 7.264 1.186l.262-1.687c1.61-8.743 5.275-14.526 12.09-20.184 4.534-3.106 9.628-2.706 14.71-1.254M65 62c-3.73 5.096-3.737 10.9-3 17l2 3c3.584.25 3.584.25 7 0l1.188-2.75C74.904 74.379 78.07 72.465 83 70V59c-6.737-2.246-12.587-1.897-18 3"/><path fill="#fd4d58" d="M112.063 24.875c3.72 2.692 5.218 5.687 7.25 9.75 3.489 4.911 9.098 5.865 14.687 7.25 9.553 2.693 9.553 2.693 13 7.125 1.39 4.365 1.327 7.865.063 12.25-7.84 10.454-25.498 14.464-37.836 16.316-8.665 1.186-8.665 1.186-15.352 6.434l-1.52 2.125C90.61 88.539 88.691 89.77 86 91h-2l.98 1.922c1.379 4.16 1.35 7.974 1.332 12.328l.05 2.45c.006 8.31-1.89 15.237-7.237 21.737l-1.992 2.497c-3.268 3.165-6.105 3.954-10.57 4.441-4.486-.472-6.19-1.36-9.563-4.375-1.671-2.528-3.169-5.09-4.605-7.758-1.901-3.056-3.704-4.074-7.172-4.918l-3.16-.636c-3.823-.924-5.737-1.407-8.75-4-2.251-4.609-2.793-7.872-1.188-12.75 2.768-6.512 7.918-9.806 13.691-13.508C47.948 87.034 49.978 85.55 52 84l-1.062-3.312c-2.031-8.345-.565-15.998 3.539-23.458C57.914 52.198 62.163 48.808 68 47c3.7-.23 3.7-.23 7.688-.187l2.048.001c4.982.045 4.982.045 7.264 1.186l.262-1.687c1.61-8.743 5.275-14.526 12.09-20.184 4.534-3.106 9.628-2.706 14.71-1.254M65 62c-3.73 5.096-3.737 10.9-3 17l2 3c3.584.25 3.584.25 7 0l1.188-2.75C74.904 74.379 78.07 72.465 83 70V59c-6.737-2.246-12.587-1.897-18 3"/><path fill="#fecf4d" d="M135 69c6.645 11.96 3.44 30.316 0 43-6.425 19.074-20.13 33.035-35 46q-4.037 3.669-8.066 7.348C90 167 90 167 89 167l-.375-3.121c-1.288-9.278-3.566-16.98-8.02-25.256-1.53-2.91-2.629-5.027-2.496-8.357 1.202-3.057 2.872-5.517 4.735-8.203 2.854-5.091 2.307-10.894 2.281-16.563l.012-2.55C85.13 98.836 85.035 95.01 84 91l1.793-1.102 2.394-1.523 2.356-1.477c2.656-1.866 2.656-1.866 4.68-4.984 3.223-4.018 7.142-4.237 12.027-4.914 9.725-1.619 18.58-4.436 27.75-8"/><path fill="#f4b503" d="m213.188 134.75 3.521-.062 3.396-.016 3.068-.028c4.09.515 6.683 2.326 9.702 5.043 1.773 3.645 1.33 6.59.125 10.313-9.429 18.915-30.077 35.755-50 43l-.445-1.687c-1.886-6.417-4.453-12.904-10.477-16.442-3.337-1.339-6.301-1.897-9.89-2.309-3.188-.562-3.188-.562-4.75-2.05-2.05-3.58-2.771-7.252-3.625-11.262l-.538-2.402A802 802 0 0 1 152 151c19.2-11.197 39.067-16.15 61.188-16.25"/><path fill="#fee7ca" d="M150 151h2c3.958 11.7 3.958 11.7 5.188 16.188.532 2.693.532 2.693 1.812 3.812 1.725.297 3.455.562 5.188.813 5.89 1.065 9.742 2.448 13.468 7.378 4.695 6.898 6.286 11.357 5.344 19.809-2.763 8.934-8.456 14.439-16.437 18.938-4.276 1.37-8.673 1.373-13.125 1.437l-2.184.043c-5.108-.046-8.68-1.146-13.254-3.418v-2l-1.75-.562c-3.325-2.125-4.934-4.81-6.25-8.438-1.135-6.406-.128-10.9 3.543-16.21C135 187 135 187 136.551 185.522c1.713-1.545 1.713-1.545 3.449-4.523-.391-3.566-1.677-6.685-3-10a480 480 0 0 1-1.687-5.125q-.655-1.938-1.313-3.875l3.246-2.152 4.191-2.786 2.143-1.42 2.041-1.357 1.889-1.254c1.47-.952 1.47-.952 2.49-2.031"/><path fill="#fd4d58" d="m75.688 46.813 2.048.001c4.982.045 4.982.045 7.264 1.186l-1 11-2.668-.105-3.52-.083-3.48-.105C70.678 59.028 68.907 59.815 66 62c-3.771 5.202-3.525 10.821-3 17l1 2c1.895.465 1.895.465 4.063.625L72 82v3l-3.297.664C54.275 88.451 54.275 88.451 42 96c4.28 2.14 9.49 1.093 14 0 1 3 1 3-.437 6.188L54 105c3.724-1.213 7.378-2.509 11-4-.34 4.157-.823 7.017-3.062 10.563-2.026 3.594-2.332 5.401-1.938 9.437l2 1 .715-2.012c1.638-3.808 3.702-7.26 5.847-10.8l1.249-2.1A204 204 0 0 1 73 102h1c.183 4.668-.288 7.72-2 12a97 97 0 0 0 0 7h2q1.11-3.675 2.207-7.355a461 461 0 0 1 1.856-6.02C79.395 102.474 80.189 97.255 81 92l-2-1h5c2.404 4.713 2.333 9.085 2.313 14.25l.048 2.45c.007 8.31-1.89 15.237-7.236 21.737l-1.992 2.497c-3.268 3.165-6.105 3.954-10.57 4.441-4.486-.472-6.19-1.36-9.563-4.375-1.671-2.528-3.169-5.09-4.605-7.758-1.901-3.056-3.704-4.074-7.172-4.918l-3.16-.636c-3.823-.924-5.737-1.407-8.75-4-2.251-4.609-2.793-7.872-1.188-12.75 2.768-6.512 7.918-9.806 13.691-13.508C47.948 87.034 49.978 85.55 52 84l-1.062-3.312c-2.031-8.345-.565-15.998 3.539-23.458 5.395-7.899 11.782-10.52 21.21-10.417"/><path fill="#f4b503" d="M135 163a557 557 0 0 1 3.125 7.688l.918 2.185c2.121 5.402 2.121 5.402 1.324 8.924-1.322 2.13-2.663 3.93-4.367 5.766-4.495 4.866-5.376 8.477-5.27 15.03.342 3.048 1.482 4.95 3.27 7.407v3c-7.643 1.636-14.94 2.338-22.75 2.313l-2.996.048c-5.867.004-10.093-.5-15.254-3.361-2.886-3.258-3.674-6.464-3.46-10.832C92.12 189.024 123.132 163 135 163"/><path fill="#ea273a" d="M72 85c2.563 2.375 2.563 2.375 5 5a63 63 0 0 0 4 2c-.365 10.142-2.158 19.968-7 29h-2c-.955-4.871-.962-7.498 1-12v-6l-11 19-3-1c-.687-5.355 1.062-8.364 3.809-12.754C64.094 105.823 64.587 103.7 65 101l-1.863 1.129-2.45 1.433-2.425 1.442C56 106 56 106 53 105l1.5-2.875c1.644-2.848 1.644-2.848 1.5-5.125l-2.062.5c-3.42.582-6.476.756-9.938.5-1.71-1.516-1.71-1.516-3-3 20.347-10.986 20.347-10.986 31-10"/><path fill="#d6d3d1" d="m154.504 222.832 2.917-.01q3.037-.007 6.073-.007c3.037-.002 6.073-.02 9.11-.04 28.478-.081 28.478-.081 38.396 3.225v3c-14.14 3.356-28.614 3.202-43.062 3.188h-2.593c-31.831-.017-31.831-.017-41.345-3.188v-3c10.125-2.49 20.1-3.155 30.504-3.168"/><path fill="#ea2639" d="M89 43h1l2 13 4 1c2.046-1.191 2.046-1.191 3.938-2.937 2.469-2.156 3.5-3.024 6.816-3.254L109 51l3 8 9 1 1 4a805 805 0 0 1-4.375 2.5l-2.46 1.406C113 69 113 69 111 69l1 4c-4.4 3.123-8.795 4.036-14 5l-.812-2.875C96.25 71.747 96.25 71.747 93 70c-2.05-.451-2.05-.451-4.187-.625L85 69c-.423-9.476-.632-17.398 4-26"/><path fill="#f4b403" d="m75.563 46.875 2.076-.012c5.108.01 5.108.01 7.361 1.137l-1 11-2.668-.105-3.52-.083-3.48-.105C70.678 59.028 68.907 59.815 66 62c-3.79 5.228-3.487 10.802-3 17a63 63 0 0 0 1 4c-3.755 1.397-6.974 2.56-11 2-3.46-5.19-3.49-11.64-2.602-17.73 1.901-7.211 5.595-13.408 11.79-17.707 4.547-2.527 8.298-2.717 13.374-2.688"/><path fill="#ffe08c" d="M93.938 112.375c4.78.976 6.746 3.72 9.449 7.633 3.526 5.477 4.964 9.319 4.613 15.992-.855 2.638-1.502 3.645-3.75 5.25-3.04 1.014-5.054 1.197-8.25.75-4.965-3.018-6.974-5.955-8.527-11.527-1.073-5.614-1.53-10.439 1.152-15.598C91 113 91 113 93.938 112.375"/><path fill="#ffefde" d="M163 198c1.444 2.889 1.377 4.796 1 8-3.133 4.055-5.97 6.05-11 7-6.381.083-11.004-.753-16-5-2-3-2-3-2-6.437 1-3.563 1-3.563 3.688-5.938 8.33-4.086 17.142-3.54 24.312 2.375"/><path fill="#fe717e" d="m87.938 69.75 3.777-.078C95 70 95 70 96.902 71.316c2 3.068 1.682 5.121 1.098 8.684-2.953 4.508-6.9 9.057-12 11-3.115.502-5.894.602-9 0-3.125-2.279-4.584-3.89-5.937-7.5-.08-3.161.353-4.745 1.937-7.5 4.873-4.832 8.124-6.166 14.938-6.25"/><path fill="#f9d1a2" d="M150 151h2a320 320 0 0 1 2.125 5.688l1.195 3.199c.801 3.669.528 4.89-1.32 8.113-2.023 2.57-2.023 2.57-4.375 5.125l-2.336 2.57C145 178 145 178 141 181l-7-18c3.263-3.263 5.837-5.318 9.688-7.687 3.334-1.922 3.334-1.922 6.312-4.313"/><path fill="#559ae1" d="M55 165c8.462-.302 16.637.85 25 2v3l-13 1 3 5v3a324 324 0 0 1-4.75 2.563l-2.672 1.44C60 184 60 184 57.816 183.833c-3.103-1.421-4.242-3.918-5.816-6.832l1-3h5z"/><path fill="#84e291" d="M24 61c3.152 1.393 5.262 3.025 7.672 5.477l2.012 2.03 2.066 2.118 2.113 2.14Q40.44 75.378 43 78l-2 2-11-6-1 6c-4.97-.412-9.445-.796-14-3V67l2-1a101 101 0 0 1 6 3z"/><path fill="#1fd6fe" d="m185 44-2 7h9c-1.685 4.827-4.26 8.99-6.937 13.313l-1.342 2.244-1.31 2.119-1.184 1.935L180 72h-3q.718-2.657 1.438-5.312l.808-2.989A121 121 0 0 1 181 58l-7 1V45c7.625-2.125 7.625-2.125 11-1"/><path fill="#ffd14d" d="M205 103c12.788.256 23.374 8.261 32 17l2.273 2.02C241 124 241 124 241 128c-3.287-1.398-4.995-2.956-7.187-5.75-7.59-8.912-18.154-13.033-28.813-17.25z"/><path fill="#ffefdd" d="M174.125 195.188C177 196 177 196 179 198c-.125 2.5-.125 2.5-1 5-1.687 1.375-1.687 1.375-4 2-3.25-.375-3.25-.375-6-1l-1-6c2.549-2.45 3.516-3.03 7.125-2.812"/><path fill="#ff919c" d="M85.813 71.75c3.464.272 4.681.937 7.187 3.25-.573 2.867-.861 3.861-3 6-2.875.375-2.875.375-6 0-2.375-2-2.375-2-4-4 2.393-4.946 2.393-4.946 5.813-5.25"/><path fill="#fe8991" d="M100.813 30.813c3.113.183 4.74.283 7.187 2.187.75 2.625.75 2.625 1 5-3 2-3 2-6.5 1.813C99 39 99 39 97 37.687 96 36 96 36 96.25 33.876c1.166-2.916 1.266-2.843 4.563-3.062"/><path fill="#ffd14e" d="M220 100c5.62.401 8.087 2.18 12 6v2c-3.165-.634-5.517-1.732-8.25-3.437l-2.14-1.31L220 102z"/><path fill="#fe8890" d="M112 41h6l1 4h-6z"/></svg>